<?xml version="1.0" encoding="UTF-8" standalone="no"?>
<svg
   xmlns:dc="http://purl.org/dc/elements/1.1/"
   xmlns:cc="http://creativecommons.org/ns#"
   xmlns:rdf="http://www.w3.org/1999/02/22-rdf-syntax-ns#"
   xmlns:svg="http://www.w3.org/2000/svg"
   xmlns="http://www.w3.org/2000/svg"
   xmlns:sodipodi="http://sodipodi.sourceforge.net/DTD/sodipodi-0.dtd"
   xmlns:inkscape="http://www.inkscape.org/namespaces/inkscape"
   viewBox="0 0 432.06565 158.18352"
   height="158.18352"
   width="432.06564"
   xml:space="preserve"
   version="1.1"
   id="svg2"
   inkscape:version="0.91 r13725"
   sodipodi:docname="addSubDataHazard-2.svg"><sodipodi:namedview
     pagecolor="#ffffff"
     bordercolor="#666666"
     borderopacity="1"
     objecttolerance="10"
     gridtolerance="10"
     guidetolerance="10"
     inkscape:pageopacity="0"
     inkscape:pageshadow="2"
     inkscape:window-width="1855"
     inkscape:window-height="1056"
     id="namedview118"
     showgrid="false"
     inkscape:zoom="2.5968276"
     inkscape:cx="216.03282"
     inkscape:cy="79.091759"
     inkscape:window-x="1985"
     inkscape:window-y="24"
     inkscape:window-maximized="1"
     inkscape:current-layer="svg2"
     inkscape:showpageshadow="false"
     fit-margin-top="8"
     fit-margin-left="8"
     fit-margin-bottom="8"
     fit-margin-right="8" /><metadata
     id="metadata8"><rdf:RDF><cc:Work
         rdf:about=""><dc:format>image/svg+xml</dc:format><dc:type
           rdf:resource="http://purl.org/dc/dcmitype/StillImage" /><dc:title></dc:title></cc:Work></rdf:RDF></metadata><defs
     id="defs6"><clipPath
       id="clipPath130"
       clipPathUnits="userSpaceOnUse"><path
         id="path132"
         d="m 49,411 0,1148 3332,0 0,-1148 -3332,0 z"
         inkscape:connector-curvature="0" /></clipPath><clipPath
       id="clipPath150"
       clipPathUnits="userSpaceOnUse"><path
         id="path152"
         d="m 49,411 0,1148 3332,0 0,-1148 -3332,0 z"
         inkscape:connector-curvature="0" /></clipPath></defs><path
     id="path14"
     style="fill:none;stroke:#ff0000;stroke-width:1;stroke-linecap:butt;stroke-linejoin:miter;stroke-miterlimit:4;stroke-dasharray:none;stroke-opacity:1"
     d="m 266.7219,118.0174 24.3775,0"
     inkscape:connector-curvature="0" /><path
     id="path16"
     style="fill:none;stroke:#231f20;stroke-width:1;stroke-linecap:butt;stroke-linejoin:miter;stroke-miterlimit:4;stroke-dasharray:none;stroke-opacity:1"
     d="m 108.9749,36.022782 294.3145,0"
     inkscape:connector-curvature="0" /><path
     id="path18"
     style="fill:#231f20;fill-opacity:1;fill-rule:nonzero;stroke:none"
     d="m 404.3944,35.541532 c -0.77375,-0.23375 -1.27625,-0.44875 -1.89875,-0.69875 l 0,2.36375 c 0.2225,-0.105 1.125,-0.465 1.89875,-0.69875 0.83125,-0.25 1.585,-0.4225 2.07125,-0.4825 -0.48625,-0.06125 -1.24,-0.2325 -2.07125,-0.48375"
     inkscape:connector-curvature="0" /><path
     id="path20"
     style="fill:none;stroke:#231f20;stroke-width:1;stroke-linecap:butt;stroke-linejoin:miter;stroke-miterlimit:4;stroke-dasharray:none;stroke-opacity:1"
     d="m 162.94065,39.456532 0,-3.5425 m 54.56375,3.5425 0,-3.5425 m 54.56375,3.5425 0,-3.5425 m 54.56125,3.5425 0,-3.5425 m 54.565,3.5425 0,-3.5425"
     inkscape:connector-curvature="0" /><text
     style="font-variant:normal;font-weight:normal;font-size:10.00038719px;font-family:Helvetica;-inkscape-font-specification:Helvetica;writing-mode:lr-tb;fill:#000000;fill-opacity:1;fill-rule:nonzero;stroke:none"
     id="text24"
     x="80.222527"
     y="39.195282"><tspan
       x="80.222527 86.332756 88.552849 96.883171"
       y="39.195282"
       id="tspan26">Time</tspan><tspan
       x="22.163898 27.724115 33.284328 38.844543"
       y="68.691406"
       id="tspan28">add </tspan></text>
<text
     style="font-variant:normal;font-weight:normal;font-size:10.00038719px;font-family:Helvetica;-inkscape-font-specification:Helvetica;writing-mode:lr-tb;fill:#00adef;fill-opacity:1;fill-rule:nonzero;stroke:none"
     id="text32"
     x="41.624897"
     y="68.691528"><tspan
       x="41.624897 47.185112 52.185307 57.745522"
       y="68.691528"
       id="tspan34">$s0,</tspan></text>
<text
     style="font-variant:normal;font-weight:normal;font-size:10.00038719px;font-family:Helvetica;-inkscape-font-specification:Helvetica;writing-mode:lr-tb;fill:#000000;fill-opacity:1;fill-rule:nonzero;stroke:none"
     id="text38"
     x="63.305382"
     y="68.691528"><tspan
       x="63.305382 68.865593 71.645706 77.205917 79.986023 82.766136 88.326347 91.107613"
       y="68.691528"
       id="tspan40">$t0, $t1</tspan><tspan
       x="22.445648 27.445841 33.006058 38.566273 41.346382 46.906593 49.686703 55.246918 58.025909"
       y="130.44441"
       id="tspan42">sub $t2, </tspan></text>
<text
     style="font-variant:normal;font-weight:normal;font-size:10.00038719px;font-family:Helvetica;-inkscape-font-specification:Helvetica;writing-mode:lr-tb;fill:#00adef;fill-opacity:1;fill-rule:nonzero;stroke:none"
     id="text46"
     x="60.806023"
     y="130.44429"><tspan
       x="60.806023 66.366241 71.366432 76.926651"
       y="130.44429"
       id="tspan48">$s0,</tspan></text>
<text
     style="font-variant:normal;font-weight:normal;font-size:10.00038719px;font-family:Helvetica;-inkscape-font-specification:Helvetica;writing-mode:lr-tb;fill:#000000;fill-opacity:1;fill-rule:nonzero;stroke:none"
     id="text52"
     x="82.487007"
     y="130.44429"><tspan
       x="82.487007 88.047218 90.827332 96.387543"
       y="130.44429"
       id="tspan54">$t3 </tspan></text>
<path
     id="path56"
     style="fill:#b2b1b1;fill-opacity:1;fill-rule:nonzero;stroke:none"
     d="m 135.95065,52.455282 0,27.08125 14.455,0 0,-27.05625 -14.455,-0.025"
     inkscape:connector-curvature="0" /><path
     id="path58"
     style="fill:none;stroke:#231f20;stroke-width:1;stroke-linecap:butt;stroke-linejoin:miter;stroke-miterlimit:4;stroke-dasharray:none;stroke-opacity:1"
     d="m 150.0944,79.562407 -26.59062,0 0,-27.082125 26.59062,0 0,27.082125 z m 162.12,-0.21875 -26.18375,0 0,-26.667125 26.18375,0 0,26.667125 z"
     inkscape:connector-curvature="0" /><text
     style="font-variant:normal;font-weight:normal;font-size:10.00038719px;font-family:Helvetica;-inkscape-font-specification:Helvetica;writing-mode:lr-tb;fill:#000000;fill-opacity:1;fill-rule:nonzero;stroke:none"
     id="text62"
     x="132.37814"
     y="68.679031"><tspan
       x="132.37814 135.15825 287.17514 295.50546 302.17572"
       y="68.679031"
       id="tspan64">IFMEM</tspan></text>
<path
     id="path66"
     style="fill:#b2b1b1;fill-opacity:1;fill-rule:nonzero;stroke:none"
     d="m 190.37565,53.080282 0,25.83275 13.78625,0 0,-25.80775 -13.78625,-0.025"
     inkscape:connector-curvature="0" /><path
     id="path68"
     style="fill:none;stroke:#231f20;stroke-width:1;stroke-linecap:butt;stroke-linejoin:miter;stroke-miterlimit:4;stroke-dasharray:none;stroke-opacity:1"
     d="m 190.37565,53.105282 13.49,0 0,25.832125 -13.49,0"
     inkscape:connector-curvature="0" /><path
     id="path70"
     style="fill:none;stroke:#000000;stroke-width:1;stroke-linecap:butt;stroke-linejoin:miter;stroke-miterlimit:4;stroke-dasharray:2,2;stroke-dashoffset:0;stroke-opacity:1"
     d="m 190.36815,53.105282 -11.86625,0 0,25.832125 11.86625,0"
     inkscape:connector-curvature="0" /><text
     style="font-variant:normal;font-weight:normal;font-size:10.00038719px;font-family:Helvetica;-inkscape-font-specification:Helvetica;writing-mode:lr-tb;fill:#000000;fill-opacity:1;fill-rule:nonzero;stroke:none"
     id="text74"
     x="186.75565"
     y="68.679031"><tspan
       x="186.75565 189.53575"
       y="68.679031"
       id="tspan76">ID</tspan></text>
<path
     id="path78"
     style="fill:#b2b1b1;fill-opacity:1;fill-rule:nonzero;stroke:none"
     d="m 357.9344,52.664032 0,26.2475 -14.0075,0 0,-26.22125 14.0075,-0.02625"
     inkscape:connector-curvature="0" /><path
     id="path80"
     style="fill:none;stroke:#231f20;stroke-width:1;stroke-linecap:butt;stroke-linejoin:miter;stroke-miterlimit:4;stroke-dasharray:none;stroke-opacity:1"
     d="m 358.1669,52.686532 -13.92625,0 0,26.247 13.92625,0"
     inkscape:connector-curvature="0" /><path
     id="path82"
     style="fill:none;stroke:#000000;stroke-width:1;stroke-linecap:butt;stroke-linejoin:miter;stroke-miterlimit:4;stroke-dasharray:2,2;stroke-dashoffset:0;stroke-opacity:1"
     d="m 357.9419,52.686532 12.05875,0 0,26.247 -12.05875,0"
     inkscape:connector-curvature="0" /><text
     style="font-variant:normal;font-weight:normal;font-size:10.00038719px;font-family:Helvetica;-inkscape-font-specification:Helvetica;writing-mode:lr-tb;fill:#000000;fill-opacity:1;fill-rule:nonzero;stroke:none"
     id="text86"
     x="348.6369"
     y="68.679031"><tspan
       x="348.6369 358.07678"
       y="68.679031"
       id="tspan88">WB</tspan></text>
<path
     id="path90"
     style="fill:#b2b1b1;fill-opacity:1;fill-rule:nonzero;stroke:none"
     d="m 237.3119,43.612782 22.5,12.08375 0,20.41875 -22.71,12.290875 0,-17.292125 6.2525,-5.41625 -6.0425,-3.33375 0,-18.75125"
     inkscape:connector-curvature="0" /><path
     id="path92"
     style="fill:none;stroke:#231f20;stroke-width:1;stroke-linecap:butt;stroke-linejoin:miter;stroke-miterlimit:4;stroke-dasharray:none;stroke-opacity:1"
     d="m 237.3119,43.612782 22.5,12.08375 0,20.41875 -22.71,12.290875 0,-17.292125 6.2525,-5.41625 -6.0425,-3.33375 0,-18.75125 z m -87.29375,22.3975 28.48375,0 m 25.06,-9.20875 33.54,0 m -32.915,17.5 32.915,0 m 30.245,61.217368 23.5075,0 m -31.25,-69.508618 26.25,0 m 26.2525,0 32.19,0 m -165.885,-4.19875 -4.175,0 0,4.3025"
     inkscape:connector-curvature="0" /><text
     style="font-variant:normal;font-weight:normal;font-size:10.00038719px;font-family:Helvetica;-inkscape-font-specification:Helvetica;writing-mode:lr-tb;fill:#000000;fill-opacity:1;fill-rule:nonzero;stroke:none"
     id="text96"
     x="244.81065"
     y="68.680283"><tspan
       x="244.81065 251.48091"
       y="68.680283"
       id="tspan98">EX</tspan></text>
<path
     id="path100"
     style="fill:#b2b1b1;fill-opacity:1;fill-rule:nonzero;stroke:none"
     d="m 190.12315,113.7069 0,27.0835 14.4525,0 0,-27.05762 -14.4525,-0.0259"
     inkscape:connector-curvature="0" /><path
     id="path102"
     style="fill:none;stroke:#231f20;stroke-width:1;stroke-linecap:butt;stroke-linejoin:miter;stroke-miterlimit:4;stroke-dasharray:none;stroke-opacity:1"
     d="m 204.2644,140.81528 -26.59,0 0,-27.0825 26.59,0 0,27.0825 z m 166.7025,-0.21875 -26.18375,0 0,-26.66838 26.18375,0 0,26.66838 z"
     inkscape:connector-curvature="0" /><text
     style="font-variant:normal;font-weight:normal;font-size:10.00038719px;font-family:Helvetica;-inkscape-font-specification:Helvetica;writing-mode:lr-tb;fill:#000000;fill-opacity:1;fill-rule:nonzero;stroke:none"
     id="text106"
     x="186.54691"
     y="129.93253"><tspan
       x="186.54691 189.32701"
       y="129.93253"
       id="tspan108">IF</tspan><tspan
       x="345.92813 354.25848 360.92874"
       y="129.93155"
       id="tspan110">MEM</tspan></text>
<path
     id="path112"
     style="fill:#a6e2f9;fill-opacity:1;fill-rule:nonzero;stroke:none"
     d="m 253.2944,114.3319 0,25.8335 13.78875,0 0,-25.80912 -13.78875,-0.0244"
     inkscape:connector-curvature="0" /><path
     id="path114"
     style="fill:none;stroke:#00adef;stroke-width:1;stroke-linecap:butt;stroke-linejoin:miter;stroke-miterlimit:4;stroke-dasharray:none;stroke-opacity:1"
     d="m 253.2944,114.35628 13.48875,0 0,25.834 -13.48875,0"
     inkscape:connector-curvature="0" /><path
     id="path116"
     style="fill:none;stroke:#000000;stroke-width:1;stroke-linecap:butt;stroke-linejoin:miter;stroke-miterlimit:4;stroke-dasharray:2,2;stroke-dashoffset:0;stroke-opacity:1"
     d="m 253.2894,114.35628 -11.8675,0 0,25.834 11.8675,0"
     inkscape:connector-curvature="0" /><text
     style="font-variant:normal;font-weight:normal;font-size:10.00038719px;font-family:Helvetica;-inkscape-font-specification:Helvetica;writing-mode:lr-tb;fill:#000000;fill-opacity:1;fill-rule:nonzero;stroke:none"
     id="text120"
     x="249.67314"
     y="129.93253"><tspan
       x="249.67314 252.4527"
       y="129.93253"
       id="tspan122">ID</tspan></text>
<path
     id="path124"
     style="fill:#b2b1b1;fill-opacity:1;fill-rule:nonzero;stroke:none"
     d="m 411.6869,113.9159 0,26.2495 -14.00625,0 0,-26.22412 14.00625,-0.0254"
     inkscape:connector-curvature="0" /><path
     id="path134"
     style="fill:none;stroke:#231f20;stroke-width:1;stroke-linecap:butt;stroke-linejoin:miter;stroke-miterlimit:4;stroke-dasharray:none;stroke-opacity:1"
     d="m 411.9194,113.9379 -13.92625,0 0,26.351 13.92625,0"
     inkscape:connector-curvature="0" /><path
     id="path136"
     style="fill:none;stroke:#000000;stroke-width:1;stroke-linecap:butt;stroke-linejoin:miter;stroke-miterlimit:4;stroke-dasharray:2,2;stroke-dashoffset:0;stroke-opacity:1"
     d="m 411.6969,113.94128 12.05625,0 0,26.249 -12.05625,0"
     inkscape:connector-curvature="0" /><text
     style="font-variant:normal;font-weight:normal;font-size:10.00038719px;font-family:Helvetica;-inkscape-font-specification:Helvetica;writing-mode:lr-tb;fill:#000000;fill-opacity:1;fill-rule:nonzero;stroke:none"
     id="text140"
     x="402.3894"
     y="129.93153"><tspan
       x="402.3894 411.82925"
       y="129.93153"
       id="tspan142">WB</tspan></text>
<path
     id="path144"
     style="fill:#b2b1b1;fill-opacity:1;fill-rule:nonzero;stroke:none"
     d="m 291.0619,104.86466 22.5025,12.08349 0,20.41838 -22.71,12.2925 0,-17.2925 6.25,-5.41688 -6.0425,-3.334 0,-18.75099"
     inkscape:connector-curvature="0" /><path
     id="path154"
     style="fill:none;stroke:#231f20;stroke-width:1;stroke-linecap:butt;stroke-linejoin:miter;stroke-miterlimit:4;stroke-dasharray:none;stroke-opacity:1"
     d="m 291.0619,104.86466 22.5025,12.08349 0,20.41838 -22.71,12.2925 0,-17.2925 6.25,-5.41688 -6.0425,-3.334 0,-18.75099 z m -86.875,22.39749 37.235,0 m 71.935,0 31.2525,0 m 26.875,0 26.50875,0 m -156.6625,-4.19825 -4.17625,0 0,4.30175"
     inkscape:connector-curvature="0" /><text
     style="font-variant:normal;font-weight:normal;font-size:10.00038719px;font-family:Helvetica;-inkscape-font-specification:Helvetica;writing-mode:lr-tb;fill:#000000;fill-opacity:1;fill-rule:nonzero;stroke:none"
     id="text158"
     x="298.56439"
     y="129.93253"><tspan
       x="298.56439 305.23465"
       y="129.93253"
       id="tspan160">EX</tspan></text>
<path
     id="path162"
     style="fill:#ff0000;fill-opacity:1;fill-rule:nonzero;stroke:none"
     d="m 268.9069,65.969032 c 0,1.38 -1.12375,2.5 -2.5,2.5 -1.385,0 -2.5,-1.12 -2.5,-2.5 0,-1.38125 1.115,-2.5 2.5,-2.5 1.37625,0 2.5,1.11875 2.5,2.5"
     inkscape:connector-curvature="0" /><path
     id="path164"
     style="fill:#ff0000;fill-opacity:1;fill-rule:nonzero;stroke:none"
     d="m 280.6944,117.68053 c 0,1.38037 -1.11875,2.5 -2.5,2.5 -1.38,0 -2.5,-1.11963 -2.5,-2.5 0,-1.38088 1.12,-2.5 2.5,-2.5 1.38125,0 2.5,1.11912 2.5,2.5"
     inkscape:connector-curvature="0" /><path
     id="path166"
     style="fill:none;stroke:#ff0000;stroke-width:1;stroke-linecap:butt;stroke-linejoin:miter;stroke-miterlimit:4;stroke-dasharray:none;stroke-opacity:1"
     d="m 266.4069,65.969032 11.7875,51.711498"
     inkscape:connector-curvature="0" /><text
     style="font-variant:normal;font-weight:normal;font-size:10.00038719px;font-family:Helvetica;-inkscape-font-specification:Helvetica;writing-mode:lr-tb;fill:#000000;fill-opacity:1;fill-rule:nonzero;stroke:none"
     id="text170"
     x="7.639986"
     y="15.290282"><tspan
       x="7.639986 14.310246 17.640373 23.20059 28.760803 32.090935 37.65115"
       y="15.290282"
       id="tspan172">Program</tspan><tspan
       x="7.639986 13.200202 18.200394 23.760611 28.760803 34.321022 37.101128 39.321213 44.888031"
       y="27.290771"
       id="tspan174">execution</tspan><tspan
       x="7.639986 13.200202 16.530331 22.090546 27.650763"
       y="39.29126"
       id="tspan176">order</tspan><tspan
       x="7.639986 10.970116 13.190202 18.750416 21.530523 23.75061 29.310825 34.31102 37.091125 40.421257 45.981472 50.981667 53.761772 55.981861 61.542072 67.102287 72.102486"
       y="51.290771"
       id="tspan178">(in instructions)</tspan></text>
<path
     id="path180"
     style="fill:none;stroke:#231f20;stroke-width:1;stroke-linecap:butt;stroke-linejoin:miter;stroke-miterlimit:4;stroke-dasharray:none;stroke-opacity:1"
     d="m 14.174649,54.629032 0,90.298618"
     inkscape:connector-curvature="0" /><path
     id="path182"
     style="fill:#231f20;fill-opacity:1;fill-rule:nonzero;stroke:none"
     d="m 14.655149,146.03503 c 0.234375,-0.77488 0.449625,-1.27975 0.69925,-1.90088 l -2.364313,0 c 0.105463,0.22213 0.464838,1.126 0.698725,1.90088 0.250975,0.82762 0.422338,1.5815 0.483463,2.06887 0.061,-0.48737 0.232375,-1.24125 0.482875,-2.06887"
     inkscape:connector-curvature="0" /><text
     style="font-variant:normal;font-weight:normal;font-size:10.00038719px;font-family:Helvetica;-inkscape-font-specification:Helvetica;writing-mode:lr-tb;fill:#000000;fill-opacity:1;fill-rule:nonzero;stroke:none"
     id="text186"
     x="154.5994"
     y="32.08028"><tspan
       x="154.5994 160.15961 165.71983 209.16292 214.72313 220.28334 263.72684 269.28705 274.84726 318.28934 323.84955 329.40976 370.07306 375.63327 381.19348 386.75369"
       y="32.08028"
       id="tspan188">2004006008001000</tspan></text>
<g
     transform="translate(114.66202,-359.88613)"
     id="layer1"
     inkscape:label="Camada 1"><text
       sodipodi:linespacing="125%"
       id="text4894"
       y="368.73376"
       x="192.30464"
       style="font-style:normal;font-weight:normal;font-size:10px;line-height:125%;font-family:sans-serif;text-align:start;letter-spacing:0px;word-spacing:0px;writing-mode:lr-tb;text-anchor:start;opacity:0.93999999;fill:#000000;fill-opacity:1;stroke:none;stroke-width:1px;stroke-linecap:butt;stroke-linejoin:miter;stroke-opacity:1"
       xml:space="preserve"><tspan
         style="font-size:7.5px"
         y="368.73376"
         x="192.30464"
         id="tspan4304"
         sodipodi:role="line">COD 4Ed, Copyright © 2009 </tspan><tspan
         id="tspan4308"
         style="font-size:7.5px"
         y="378.10876"
         x="192.30464"
         sodipodi:role="line">Elsevier, Inc. All rights reserved.</tspan><tspan
         y="387.48376"
         x="192.30464"
         id="tspan4306"
         sodipodi:role="line" /></text>
</g></svg>