<?xml version="1.0" encoding="UTF-8" standalone="no"?>
<svg
   xmlns:dc="http://purl.org/dc/elements/1.1/"
   xmlns:cc="http://creativecommons.org/ns#"
   xmlns:rdf="http://www.w3.org/1999/02/22-rdf-syntax-ns#"
   xmlns:svg="http://www.w3.org/2000/svg"
   xmlns="http://www.w3.org/2000/svg"
   xmlns:sodipodi="http://sodipodi.sourceforge.net/DTD/sodipodi-0.dtd"
   xmlns:inkscape="http://www.inkscape.org/namespaces/inkscape"
   viewBox="0 0 421.08978 337.00141"
   height="337.0014"
   width="421.08978"
   xml:space="preserve"
   version="1.1"
   id="svg2"
   inkscape:version="0.91 r13725"
   sodipodi:docname="alteracaoSequenciaInstrucoesDesvioPostergado-1.svg"><sodipodi:namedview
     pagecolor="#ffffff"
     bordercolor="#666666"
     borderopacity="1"
     objecttolerance="10"
     gridtolerance="10"
     guidetolerance="10"
     inkscape:pageopacity="0"
     inkscape:pageshadow="2"
     inkscape:window-width="1855"
     inkscape:window-height="1056"
     id="namedview136"
     showgrid="false"
     inkscape:zoom="2.6320365"
     inkscape:cx="210.54489"
     inkscape:cy="168.5007"
     inkscape:window-x="1985"
     inkscape:window-y="24"
     inkscape:window-maximized="1"
     inkscape:current-layer="g4602"
     inkscape:showpageshadow="false"
     fit-margin-top="8"
     fit-margin-left="8"
     fit-margin-bottom="8"
     fit-margin-right="8" /><metadata
     id="metadata8"><rdf:RDF><cc:Work
         rdf:about=""><dc:format>image/svg+xml</dc:format><dc:type
           rdf:resource="http://purl.org/dc/dcmitype/StillImage" /><dc:title></dc:title></cc:Work></rdf:RDF></metadata><defs
     id="defs6"><clipPath
       id="clipPath94"
       clipPathUnits="userSpaceOnUse"><path
         id="path96"
         d="m 94.6406,1264.16 3240.72,0 0,2418.83 -3240.72,0 0,-2418.83 z"
         inkscape:connector-curvature="0" /></clipPath><clipPath
       id="clipPath120"
       clipPathUnits="userSpaceOnUse"><path
         id="path122"
         d="m 94.6406,1264.16 3240.72,0 0,2418.83 -3240.72,0 0,-2418.83 z"
         inkscape:connector-curvature="0" /></clipPath><clipPath
       id="clipPath172"
       clipPathUnits="userSpaceOnUse"><path
         id="path174"
         d="m 94.6406,1264.16 3240.72,0 0,2418.83 -3240.72,0 0,-2418.83 z"
         inkscape:connector-curvature="0" /></clipPath><clipPath
       id="clipPath232"
       clipPathUnits="userSpaceOnUse"><path
         id="path234"
         d="m 94.6406,1264.16 3240.72,0 0,2418.83 -3240.72,0 0,-2418.83 z"
         inkscape:connector-curvature="0" /></clipPath></defs><g
     id="g4602"><path
       inkscape:connector-curvature="0"
       d="m 8.46875,143.60789 114.14013,0 0,-122.871126 -114.14013,0 0,122.871126 z"
       style="fill:none;stroke:#231f20;stroke-width:0.9375;stroke-linecap:butt;stroke-linejoin:miter;stroke-miterlimit:4;stroke-dasharray:none;stroke-opacity:1"
       id="path98" /><text
       y="40.736641"
       x="26.066925"
       id="text102"
       style="font-variant:normal;font-weight:normal;font-size:10.0003624px;font-family:Helvetica;-inkscape-font-specification:Helvetica;writing-mode:lr-tb;fill:#231f20;fill-opacity:1;fill-rule:nonzero;stroke:none"><tspan
         id="tspan104"
         y="40.736641"
         x="26.066925 31.627129 37.187328 42.747528 45.52763 51.087833 56.088013 61.64822 64.428314 67.208412 72.768616 77.768799 83.329002 86.1091 88.889198 94.449402 99.449585">add $s1, $s2, $s3</tspan><tspan
         id="tspan106"
         y="64.48764"
         x="26.066925 28.287006 31.067108 33.847206 39.40741 44.407589 49.967793 52.747894 58.588104 61.368206 66.928406 69.708504 72.488602 78.048805 83.609009">if $s2 = 0 then</tspan></text>
<path
       inkscape:connector-curvature="0"
       d="m 25.8843,92.782889 79.30662,0 0,-17.349625 -79.30662,0 0,17.349625 z"
       style="fill:#a6e2f9;fill-opacity:1;fill-rule:nonzero;stroke:none"
       id="path108" /><path
       inkscape:connector-curvature="0"
       d="m 25.8858,92.782889 79.30662,0 0,-17.349625 -79.30662,0 0,17.349625 z"
       style="fill:none;stroke:#231f20;stroke-width:0.9375;stroke-linecap:butt;stroke-linejoin:miter;stroke-miterlimit:4;stroke-dasharray:none;stroke-opacity:1"
       id="path110" /><path
       inkscape:connector-curvature="0"
       d="m 93.8623,61.802889 19.4395,0 0,63.507501 -53.28375,0"
       style="fill:none;stroke:#231f20;stroke-width:0.625;stroke-linecap:butt;stroke-linejoin:miter;stroke-miterlimit:4;stroke-dasharray:none;stroke-opacity:1"
       id="path112" /><path
       inkscape:connector-curvature="0"
       d="m 58.54205,125.95039 c 1.033625,0.3125 1.705,0.6 2.534125,0.9325 l 0,-3.1525 c -0.296875,0.14125 -1.5005,0.62 -2.534125,0.9325 -1.106,0.33375 -2.1085,0.5625 -2.758875,0.64375 0.650375,0.0825 1.652875,0.31125 2.758875,0.64375"
       style="fill:#231f20;fill-opacity:1;fill-rule:nonzero;stroke:none"
       id="path114" /><path
       inkscape:connector-curvature="0"
       d="m 8.46875,308.61539 114.14013,0 0,-122.87113 -114.14013,0 0,122.87113 z"
       style="fill:none;stroke:#231f20;stroke-width:0.9375;stroke-linecap:butt;stroke-linejoin:miter;stroke-miterlimit:4;stroke-dasharray:none;stroke-opacity:1"
       id="path124" /><text
       y="87.277893"
       x="43.588425"
       id="text128"
       style="font-variant:normal;font-weight:normal;font-size:10.0003624px;font-family:Helvetica;-inkscape-font-specification:Helvetica;writing-mode:lr-tb;fill:#231f20;fill-opacity:1;fill-rule:nonzero;stroke:none"><tspan
         id="tspan130"
         y="87.277893"
         x="43.588425 50.808689 56.368889 58.58897 64.14917 69.149353 71.929451 76.929626 79.149712 84.709915">Delay slot</tspan><tspan
         id="tspan132"
         y="229.49414"
         x="26.065426 28.285507 31.065605 33.845707 39.40591 44.40609 49.966293 52.746391 58.586605 61.366703 66.926903 69.707001 72.487106 78.04731 83.607513">if $s2 = 0 then</tspan></text>
<path
       inkscape:connector-curvature="0"
       d="m 21.5093,257.78914 88.05813,0 0,-17.34863 -88.05813,0 0,17.34863 z"
       style="fill:#a6e2f9;fill-opacity:1;fill-rule:nonzero;stroke:none"
       id="path134" /><path
       inkscape:connector-curvature="0"
       d="m 21.5093,257.78914 88.05813,0 0,-17.34863 -88.05813,0 0,17.34863 z"
       style="fill:none;stroke:#231f20;stroke-width:0.9375;stroke-linecap:butt;stroke-linejoin:miter;stroke-miterlimit:4;stroke-dasharray:none;stroke-opacity:1"
       id="path136" /><path
       inkscape:connector-curvature="0"
       d="m 94.07955,226.80914 19.44151,0 0,63.50875 -53.28476,0"
       style="fill:none;stroke:#231f20;stroke-width:0.625;stroke-linecap:butt;stroke-linejoin:miter;stroke-miterlimit:4;stroke-dasharray:none;stroke-opacity:1"
       id="path138" /><path
       inkscape:connector-curvature="0"
       d="m 58.7603,290.95664 c 1.032625,0.3125 1.7045,0.6 2.533625,0.9325 l 0,-3.1525 c -0.296875,0.14125 -1.501,0.62 -2.533625,0.9325 -1.106,0.335 -2.109375,0.5625 -2.759375,0.645 0.65,0.0813 1.653375,0.31 2.759375,0.6425"
       style="fill:#231f20;fill-opacity:1;fill-rule:nonzero;stroke:none"
       id="path140" /><path
       inkscape:connector-curvature="0"
       d="m 62.959425,143.45039 0,37.5025"
       style="fill:none;stroke:#231f20;stroke-width:0.625;stroke-linecap:butt;stroke-linejoin:miter;stroke-miterlimit:4;stroke-dasharray:none;stroke-opacity:1"
       id="path142" /><path
       inkscape:connector-curvature="0"
       d="m 63.599675,182.42914 c 0.312,-1.03375 0.5995,-1.705 0.9325,-2.53375 l -3.15275,0 c 0.141125,0.2975 0.620125,1.5 0.932125,2.53375 0.3345,1.105 0.5625,2.10875 0.6445,2.75875 0.0815,-0.65 0.310125,-1.65375 0.643625,-2.75875"
       style="fill:#231f20;fill-opacity:1;fill-rule:nonzero;stroke:none"
       id="path144" /><path
       inkscape:connector-curvature="0"
       d="m 153.47368,143.60789 114.14011,0 0,-122.871126 -114.14011,0 0,122.871126 z"
       style="fill:none;stroke:#231f20;stroke-width:0.9375;stroke-linecap:butt;stroke-linejoin:miter;stroke-miterlimit:4;stroke-dasharray:none;stroke-opacity:1"
       id="path146" /><text
       y="252.2829"
       x="26.066925"
       id="text150"
       style="font-variant:normal;font-weight:normal;font-size:10.0003624px;font-family:Helvetica;-inkscape-font-specification:Helvetica;writing-mode:lr-tb;fill:#231f20;fill-opacity:1;fill-rule:nonzero;stroke:none"><tspan
         id="tspan152"
         y="252.2829"
         x="26.066925 31.627129 37.187328 42.747528 45.52763 51.087833 56.088013 61.64822 64.428314 67.208412 72.768616 77.768799 83.329002 86.1091 88.889198 94.449402 99.449585">add $s1, $s2, $s3</tspan><tspan
         id="tspan154"
         y="169.07776"
         x="9.8335495 16.503792 22.063993 27.064175 32.624378 40.954678 46.514381">Becomes</tspan><tspan
         id="tspan156"
         y="15.320264"
         x="8.4687996 14.029002 16.809103 22.369175 28.478882 31.808487 37.369175 45.699478 48.47958 54.03978 59.599983 62.380085 67.940285 71.270401">a. From before</tspan><tspan
         id="tspan158"
         y="40.736774"
         x="171.07292 176.07309 181.63332 187.1935 189.97362 195.53381 198.31392 203.87411 206.65422 209.43431 214.99452 217.77461 223.33482 226.11543 228.89497 234.45529 237.23553">sub $t4, $t5, $t6</tspan><tspan
         id="tspan160"
         y="64.486771"
         x="171.07291 173.85301 176.6331 179.41321 182.19547">. . .</tspan><tspan
         id="tspan162"
         y="88.23777"
         x="171.07291 176.6331 182.19333 187.75351 190.53362 196.09381 201.09401 206.65419 209.43431 212.21454 217.77364 222.77486 228.33395 231.1154 233.89494 239.45528 244.45428">add $s1, $s2, $s3</tspan><tspan
         id="tspan164"
         y="111.98877"
         x="171.07291 173.29298 176.07309 178.8532 184.41339 189.41357 194.97379 197.75388 203.59409 206.37419 211.93439 214.71303 217.4938 223.05467 228.6154">if $s1 = 0 then</tspan></text>
<path
       inkscape:connector-curvature="0"
       d="m 170.89117,139.03539 79.30762,0 0,-17.35013 -79.30762,0 0,17.35013 z"
       style="fill:#a6e2f9;fill-opacity:1;fill-rule:nonzero;stroke:none"
       id="path166" /><path
       inkscape:connector-curvature="0"
       d="m 267.61367,308.61539 -114.13999,0 0,-122.87125 114.13999,0 0,122.87125 z m -17.41499,-169.58 -79.3075,0 0,-17.35 79.3075,0 0,17.35 z"
       style="fill:none;stroke:#231f20;stroke-width:0.9375;stroke-linecap:butt;stroke-linejoin:miter;stroke-miterlimit:4;stroke-dasharray:none;stroke-opacity:1"
       id="path176" /><text
       y="133.52914"
       x="188.59367"
       id="text180"
       style="font-variant:normal;font-weight:normal;font-size:10.0003624px;font-family:Helvetica;-inkscape-font-specification:Helvetica;writing-mode:lr-tb;fill:#231f20;fill-opacity:1;fill-rule:nonzero;stroke:none"><tspan
         id="tspan182"
         y="133.52914"
         x="188.59367 195.81393 201.37413 203.59422 209.15442 214.1546 216.93469 221.93488 224.1541 229.71431">Delay slot</tspan><tspan
         id="tspan184"
         y="244.49539"
         x="171.07217 176.63237 182.19258 187.75278 190.53288 196.09308 201.09326 206.65346 209.43356 212.21379 217.77289 222.77412 228.33322 231.11467 233.89421 239.45454 244.45355">add $s1, $s2, $s3</tspan><tspan
         id="tspan186"
         y="268.24539"
         x="171.07217 173.29225 176.07236 178.85245 184.41266 189.41284 194.97304 197.75314 203.59335 206.37346 211.93365 214.7123 217.49307 223.05394 228.61467">if $s1 = 0 then</tspan></text>
<path
       inkscape:connector-curvature="0"
       d="m 166.51617,300.29164 88.05762,0 0,-17.35013 -88.05762,0 0,17.35013 z"
       style="fill:#a6e2f9;fill-opacity:1;fill-rule:nonzero;stroke:none"
       id="path188" /><path
       inkscape:connector-curvature="0"
       d="m 166.51617,300.29164 88.05762,0 0,-17.35013 -88.05762,0 0,17.35013 z"
       style="fill:none;stroke:#231f20;stroke-width:0.9375;stroke-linecap:butt;stroke-linejoin:miter;stroke-miterlimit:4;stroke-dasharray:none;stroke-opacity:1"
       id="path190" /><path
       inkscape:connector-curvature="0"
       d="m 207.96743,143.45039 0,37.5025"
       style="fill:none;stroke:#231f20;stroke-width:0.625;stroke-linecap:butt;stroke-linejoin:miter;stroke-miterlimit:4;stroke-dasharray:none;stroke-opacity:1"
       id="path192" /><path
       inkscape:connector-curvature="0"
       d="m 208.60617,182.42914 c 0.31125,-1.03375 0.59875,-1.705 0.9325,-2.53375 l -3.15375,0 c 0.14251,0.2975 0.62126,1.5 0.93251,2.53375 0.33625,1.105 0.56375,2.10875 0.64625,2.75875 0.0813,-0.65 0.31,-1.65375 0.6425,-2.75875"
       style="fill:#231f20;fill-opacity:1;fill-rule:nonzero;stroke:none"
       id="path194" /><path
       inkscape:connector-curvature="0"
       d="m 239.21743,109.07414 18.75249,0 0,-71.252501 -9.37749,0"
       style="fill:none;stroke:#231f20;stroke-width:0.625;stroke-linecap:butt;stroke-linejoin:miter;stroke-miterlimit:4;stroke-dasharray:none;stroke-opacity:1"
       id="path196" /><path
       inkscape:connector-curvature="0"
       d="m 246.74617,38.621639 c 1.295,0.39 2.1325,0.75 3.17,1.16625 l 0,-3.94125 c -0.37375,0.17625 -1.875,0.775 -3.17,1.165 -1.38125,0.4175 -2.63375,0.70375 -3.44625,0.805 0.8125,0.1025 2.065,0.3875 3.44625,0.805"
       style="fill:#231f20;fill-opacity:1;fill-rule:nonzero;stroke:none"
       id="path198" /><path
       inkscape:connector-curvature="0"
       d="m 238.59243,265.95539 19.37749,0 0,-50.00125 -46.25249,0"
       style="fill:none;stroke:#231f20;stroke-width:0.625;stroke-linecap:butt;stroke-linejoin:miter;stroke-miterlimit:4;stroke-dasharray:none;stroke-opacity:1"
       id="path200" /><path
       inkscape:connector-curvature="0"
       d="m 210.23992,216.59414 c 1.03375,0.3125 1.70376,0.6 2.53375,0.9325 l 0,-3.1525 c -0.29625,0.1425 -1.5,0.62 -2.53375,0.93125 -1.105,0.335 -2.11,0.565 -2.76,0.645 0.65001,0.0813 1.655,0.31125 2.76,0.64375"
       style="fill:#231f20;fill-opacity:1;fill-rule:nonzero;stroke:none"
       id="path202" /><path
       inkscape:connector-curvature="0"
       d="m 296.26367,143.60789 114.14012,0 0,-122.871126 -114.14012,0 0,122.871126 z"
       style="fill:none;stroke:#231f20;stroke-width:0.9375;stroke-linecap:butt;stroke-linejoin:miter;stroke-miterlimit:4;stroke-dasharray:none;stroke-opacity:1"
       id="path204" /><text
       y="294.78412"
       x="174.68242"
       id="text208"
       style="font-variant:normal;font-weight:normal;font-size:10.0003624px;font-family:Helvetica;-inkscape-font-specification:Helvetica;writing-mode:lr-tb;fill:#231f20;fill-opacity:1;fill-rule:nonzero;stroke:none"><tspan
         id="tspan210"
         y="294.78412"
         x="174.68242 179.6826 185.2428 190.80301 193.58311 199.14331 201.92342 207.48367 210.26378 213.0446 218.6033 221.38406 226.94493 229.72398 232.50475 238.06561 240.84454">sub $t4, $t5, $t6</tspan><tspan
         id="tspan212"
         y="169.07788"
         x="154.83968 161.50992 167.07011 172.0703 177.63049 185.9608 191.521">Becomes</tspan><tspan
         id="tspan214"
         y="15.320389"
         x="153.47346 159.03366 161.81377 167.37334 173.48305 176.81265 182.37334 190.70364 193.48373 196.26384 201.82404 205.15416 210.71436 216.27457">b. From target</tspan><tspan
         id="tspan216"
         y="40.7369"
         x="313.85959 319.41977 324.97998 330.54071 333.32028 338.88058 343.87958 349.43979 352.22064 355.00076 360.56094 365.56113 371.12134 373.90143 376.68295 382.24313 387.24332">add $s1, $s2, $s3</tspan><tspan
         id="tspan218"
         y="64.4869"
         x="313.85959 316.0802 318.85977 321.6384 327.19861 332.19992 337.75952 340.54031 346.38013 349.16089 354.72089 357.50046 360.28003 365.84033 371.40103">if $s1 = 0 then</tspan></text>
<path
       inkscape:connector-curvature="0"
       d="m 313.67742,92.782889 79.30762,0 0,-17.349625 -79.30762,0 0,17.349625 z"
       style="fill:#a6e2f9;fill-opacity:1;fill-rule:nonzero;stroke:none"
       id="path220" /><path
       inkscape:connector-curvature="0"
       d="m 313.67742,92.782889 79.30762,0 0,-17.349625 -79.30762,0 0,17.349625 z"
       style="fill:none;stroke:#231f20;stroke-width:0.9375;stroke-linecap:butt;stroke-linejoin:miter;stroke-miterlimit:4;stroke-dasharray:none;stroke-opacity:1"
       id="path222" /><path
       inkscape:connector-curvature="0"
       d="m 383.87617,61.802889 19.4375,0 0,63.507501 -9.53125,0"
       style="fill:none;stroke:#231f20;stroke-width:0.625;stroke-linecap:butt;stroke-linejoin:miter;stroke-miterlimit:4;stroke-dasharray:none;stroke-opacity:1"
       id="path224" /><path
       inkscape:connector-curvature="0"
       d="m 392.30617,125.95039 c 1.03251,0.3125 1.70375,0.6 2.53375,0.9325 l 0,-3.1525 c -0.2975,0.14125 -1.50125,0.62 -2.53375,0.9325 -1.10625,0.33375 -2.11,0.5625 -2.75875,0.64375 0.64875,0.0825 1.6525,0.31125 2.75875,0.64375"
       style="fill:#231f20;fill-opacity:1;fill-rule:nonzero;stroke:none"
       id="path226" /><path
       inkscape:connector-curvature="0"
       d="m 298.47992,308.61539 114.14112,0 0,-122.87113 -114.14112,0 0,122.87113 z"
       style="fill:none;stroke:#231f20;stroke-width:0.9375;stroke-linecap:butt;stroke-linejoin:miter;stroke-miterlimit:4;stroke-dasharray:none;stroke-opacity:1"
       id="path236" /><text
       y="87.277893"
       x="331.38116"
       id="text240"
       style="font-variant:normal;font-weight:normal;font-size:10.0003624px;font-family:Helvetica;-inkscape-font-specification:Helvetica;writing-mode:lr-tb;fill:#231f20;fill-opacity:1;fill-rule:nonzero;stroke:none"><tspan
         id="tspan242"
         y="87.277893"
         x="331.38116 338.60181 344.16238 346.38116 351.94138 356.94156 359.72226 364.72244 366.94217 372.50238">Delay slot</tspan><tspan
         id="tspan244"
         y="205.74226"
         x="316.07843 321.63861 327.19882 332.75955 335.53912 341.09943 346.09991 351.66013 354.44098 357.21957 362.77975 367.77994 373.34015 376.12024 378.90176 384.46194 389.46213">add $s1, $s2, $s3</tspan><tspan
         id="tspan246"
         y="229.49376"
         x="316.07843 318.29904 321.07861 323.8587 329.41888 334.4202 339.97833 342.75912 348.59891 351.3797 356.94119 359.72076 362.50034 368.06064 373.61993">if $s1 = 0 then</tspan></text>
<path
       inkscape:connector-curvature="0"
       d="m 311.51992,257.78914 88.05863,0 0,-17.34863 -88.05863,0 0,17.34863 z"
       style="fill:#a6e2f9;fill-opacity:1;fill-rule:nonzero;stroke:none"
       id="path248" /><path
       inkscape:connector-curvature="0"
       d="m 311.51992,257.78914 88.05863,0 0,-17.34863 -88.05863,0 0,17.34863 z"
       style="fill:none;stroke:#231f20;stroke-width:0.9375;stroke-linecap:butt;stroke-linejoin:miter;stroke-miterlimit:4;stroke-dasharray:none;stroke-opacity:1"
       id="path250" /><path
       inkscape:connector-curvature="0"
       d="m 384.09242,226.80914 19.44126,0 0,63.50875 -53.28625,0"
       style="fill:none;stroke:#231f20;stroke-width:0.625;stroke-linecap:butt;stroke-linejoin:miter;stroke-miterlimit:4;stroke-dasharray:none;stroke-opacity:1"
       id="path252" /><path
       inkscape:connector-curvature="0"
       d="m 348.77117,290.95664 c 1.0325,0.3125 1.70625,0.6 2.53375,0.9325 l 0,-3.1525 c -0.295,0.14125 -1.50125,0.62 -2.53375,0.9325 -1.10625,0.335 -2.1075,0.5625 -2.75875,0.645 0.65125,0.0813 1.6525,0.31 2.75875,0.6425"
       style="fill:#231f20;fill-opacity:1;fill-rule:nonzero;stroke:none"
       id="path254" /><path
       inkscape:connector-curvature="0"
       d="m 352.97242,143.45039 0,37.5025"
       style="fill:none;stroke:#231f20;stroke-width:0.625;stroke-linecap:butt;stroke-linejoin:miter;stroke-miterlimit:4;stroke-dasharray:none;stroke-opacity:1"
       id="path256" /><path
       inkscape:connector-curvature="0"
       d="m 353.61242,182.42914 c 0.3125,-1.03375 0.6,-1.705 0.9325,-2.53375 l -3.1525,0 c 0.14,0.2975 0.62,1.5 0.9325,2.53375 0.335,1.105 0.5625,2.10875 0.645,2.75875 0.08,-0.65 0.31,-1.65375 0.6425,-2.75875"
       style="fill:#231f20;fill-opacity:1;fill-rule:nonzero;stroke:none"
       id="path258" /><text
       y="252.2829"
       x="319.68741"
       id="text262"
       style="font-variant:normal;font-weight:normal;font-size:10.0003624px;font-family:Helvetica;-inkscape-font-specification:Helvetica;writing-mode:lr-tb;fill:#231f20;fill-opacity:1;fill-rule:nonzero;stroke:none"><tspan
         id="tspan264"
         y="252.2829"
         x="319.68741 324.68759 330.2478 335.80801 338.58765 344.14786 346.92868 352.48886 355.26898 358.0488 363.60788 366.38867 371.94968 374.72922 377.51001 383.06976 385.84988">sub $t4, $t5, $t6</tspan><tspan
         id="tspan266"
         y="169.07776"
         x="299.84616 306.51639 312.0766 317.07678 322.63696 330.96729 336.52747">Becomes</tspan><tspan
         id="tspan268"
         y="15.321504"
         x="296.26215 301.26233 304.04245 309.60178 315.71268 319.04242 324.60263 332.93295 335.71249 338.49356 344.05377 346.27383 348.49472 351.82483 354.60495 360.16513 363.49527 369.05545 374.61566 380.17587">c. From fall-through</tspan><tspan
         id="tspan270"
         y="127.20038"
         x="313.86118 318.86136 324.42157 329.98178 332.76141 338.32162 341.10245 346.66263 349.44275 352.22253 357.78165 360.56244 366.12241 368.90198 371.68277 377.2435 380.02307">sub $t4, $t5, $t6</tspan></text>
<g
       inkscape:label="Camada 1"
       id="layer1"
       transform="translate(-41.953842,-41.292417)"><text
         xml:space="preserve"
         style="font-style:normal;font-weight:normal;font-size:10px;line-height:125%;font-family:sans-serif;text-align:center;letter-spacing:0px;word-spacing:0px;writing-mode:lr-tb;text-anchor:middle;opacity:0.93999999;fill:#000000;fill-opacity:1;stroke:none;stroke-width:1px;stroke-linecap:butt;stroke-linejoin:miter;stroke-opacity:1"
         x="252.28816"
         y="368.73376"
         id="text4894"
         sodipodi:linespacing="125%"><tspan
           sodipodi:role="line"
           id="tspan4306"
           x="253.48201"
           y="368.73376"
           style="font-size:7.5px;text-align:center;letter-spacing:0px;word-spacing:0px;text-anchor:middle"> COD 4Ed, Copyright © 2009  -  Elsevier, Inc. All rights reserved.  </tspan></text>
</g></g></svg>