<?xml version="1.0" encoding="UTF-8" standalone="no"?>
<svg
   xmlns:dc="http://purl.org/dc/elements/1.1/"
   xmlns:cc="http://creativecommons.org/ns#"
   xmlns:rdf="http://www.w3.org/1999/02/22-rdf-syntax-ns#"
   xmlns:svg="http://www.w3.org/2000/svg"
   xmlns="http://www.w3.org/2000/svg"
   xmlns:sodipodi="http://sodipodi.sourceforge.net/DTD/sodipodi-0.dtd"
   xmlns:inkscape="http://www.inkscape.org/namespaces/inkscape"
   viewBox="0 0 718.48237 957.16628"
   height="957.16626"
   width="718.48236"
   xml:space="preserve"
   version="1.1"
   id="svg3336"
   inkscape:version="0.91 r13725"
   sodipodi:docname="atalho(pipeline).svg"><sodipodi:namedview
     pagecolor="#ffffff"
     bordercolor="#666666"
     borderopacity="1"
     objecttolerance="10"
     gridtolerance="10"
     guidetolerance="10"
     inkscape:pageopacity="0"
     inkscape:pageshadow="2"
     inkscape:window-width="1855"
     inkscape:window-height="1056"
     id="namedview63"
     showgrid="false"
     showguides="true"
     inkscape:guide-bbox="true"
     inkscape:zoom="0.92669376"
     inkscape:cx="359.24118"
     inkscape:cy="478.58313"
     inkscape:window-x="1985"
     inkscape:window-y="24"
     inkscape:window-maximized="1"
     inkscape:current-layer="svg3336" /><metadata
     id="metadata3342"><rdf:RDF><cc:Work
         rdf:about=""><dc:format>image/svg+xml</dc:format><dc:type
           rdf:resource="http://purl.org/dc/dcmitype/StillImage" /><dc:title></dc:title></cc:Work></rdf:RDF></metadata><defs
     id="defs3340" /><g
     id="g4342"
     transform="translate(696.02282,-79.37915)"><path
       inkscape:connector-curvature="0"
       d="m -241.24412,272.00841 c -4.70886,0 -8.52601,3.80249 -8.52601,8.51624 0.009,27.28333 -0.0113,54.96886 0,78.36304 0,3.38927 2.00501,6.32872 4.9115,7.70141 0.61585,0.2893 1.28052,0.50843 1.97266,0.6488 0.59021,0.12213 1.18958,0.17151 1.651,0.17579 52.93701,-0.01 101.69006,-0.01 155.23743,0 0.46203,-0.004 1.06323,-0.0537 1.65161,-0.17579 0.69152,-0.14037 1.35192,-0.3595 1.97387,-0.6488 2.901,-1.37269 4.91211,-4.31214 4.91211,-7.70141 0.01,-26.79444 -0.0113,-55.31068 0,-78.36304 0,-4.71375 -3.81226,-8.51624 -8.526,-8.52051 -54.23462,0 -109.3097,0.004 -155.25817,0.004 z"
       style="fill:#ffffff;fill-opacity:1;fill-rule:nonzero;stroke:none"
       id="path3354" /><path
       inkscape:connector-curvature="0"
       d="m -239.0139,277.77929 c -2.74536,0 -4.96643,2.22534 -4.96643,4.96521 -0.01,27.19665 0.0112,50.66833 0,73.97644 0,2.74536 2.22107,4.96704 4.96643,4.96704 51.3916,0.0153 102.77893,0.0373 150.41687,0 2.73926,0 4.95971,-2.22168 4.95971,-4.96704 0,-26.69251 0.01,-50.94605 0,-73.97644 0,-2.73987 -2.22045,-4.96521 -4.95971,-4.96521 -52.15882,-0.0434 -104.86512,0 -150.41687,0 z"
       style="fill:#276235;fill-opacity:1;fill-rule:nonzero;stroke:none"
       id="path3356" /><path
       inkscape:connector-curvature="0"
       d="m -230.94506,347.49914 c 0,0 0,-57.87049 0,-57.87049 0,0 37.016,0 37.016,0 0,0 0,8.30139 0,8.30139 0,0 -28.24219,0 -28.24219,0 0,0 0,16.47827 0,16.47827 0,0 24.06494,0 24.06494,0 0,0 0,7.82288 0,7.82288 0,0 -24.06494,0 -24.06494,0 0,0 0,17.00989 0,17.00989 0,0 28.24219,0 28.24219,0 0,0 0,8.25806 0,8.25806 0,0 -37.016,0 -37.016,0"
       style="fill:#ffffff;fill-opacity:1;fill-rule:nonzero;stroke:none"
       id="path3366" /><path
       inkscape:connector-curvature="0"
       d="m -162.21031,321.31994 c 0,0 0,-7.30287 0,-7.30287 0,0 2.85767,0 2.85767,0 2.75146,0 4.92858,-0.76782 6.51488,-2.30591 1.615,-1.56005 2.42493,-3.53392 2.42493,-5.91919 0,-2.35473 -0.8374,-4.34386 -2.50549,-5.95215 -1.67175,-1.62047 -3.65661,-2.43041 -5.95764,-2.43041 -1.74744,0 -3.39905,0.58471 -4.9646,1.74926 -1.56006,1.1676 -2.56897,2.91688 -3.01941,5.24354 0,0 -8.29529,0 -8.29529,0 0.31189,-4.07594 2.02209,-7.63488 5.11658,-10.68115 3.09753,-3.07251 6.71265,-4.60755 10.84717,-4.60755 5.15808,0 9.29321,1.70654 12.39135,5.12268 3.12744,3.39295 4.6814,7.18995 4.6814,11.40015 0,2.21985 -0.43396,4.39697 -1.3086,6.5094 -0.8728,2.09595 -2.50366,3.90808 -4.88341,5.44311 2.43346,1.56495 4.18212,3.48511 5.24352,5.75867 1.05652,2.27844 1.5863,4.57947 1.5863,6.91162 0,5.40588 -1.68822,9.7052 -5.0824,12.90588 -3.38988,3.2019 -7.54516,4.80469 -12.47313,4.80469 -3.91358,0 -7.4524,-1.25366 -10.59998,-3.76892 -3.12744,-2.54089 -5.07446,-6.23597 -5.83985,-11.07849 0,0 8.30079,0 8.30079,0 0.76599,1.98425 1.80115,3.58155 3.09814,4.80469 1.29883,1.1908 3.13843,1.7865 5.51818,1.7865 2.30653,0 4.34388,-0.80994 6.11878,-2.42432 1.77491,-1.64062 2.66419,-3.88793 2.66419,-6.7511 0,-2.88452 -0.88928,-5.13732 -2.66419,-6.7511 -1.74744,-1.64062 -3.83971,-2.46703 -6.27319,-2.46703 0,0 -3.4967,0 -3.4967,0"
       style="fill:#ffffff;fill-opacity:1;fill-rule:nonzero;stroke:none"
       id="path3368" /><path
       inkscape:connector-curvature="0"
       d="m -131.34544,331.44933 c 0,0 0,-25.61524 0,-25.61524 0.0275,-5.35095 1.69495,-9.47998 5.00366,-12.39197 3.04443,-2.86316 6.70166,-4.28955 10.96496,-4.28955 3.78662,0 7.1753,1.1145 10.16663,3.33374 2.83203,2.25343 4.67163,5.5249 5.51879,9.81445 0,0 -8.33862,0 -8.33862,0 -1.29821,-3.17565 -3.75915,-4.80956 -7.38891,-4.89135 -5.18677,0.14038 -7.80823,3.11645 -7.86194,8.93921 0,0 0,5.44373 0,5.44373 3.81226,-1.21826 7.38404,-1.81275 10.7251,-1.7865 3.70484,0 6.85852,1.27136 9.44702,3.81164 2.52014,2.61841 3.74939,6.72607 3.69568,12.31262 0,0 0,5.2826 0,5.2826 -0.0805,5.37231 -1.67846,9.49035 -4.80469,12.35473 -2.99195,2.80457 -6.71386,4.26147 -11.15906,4.36462 -4.31701,-0.10312 -7.97424,-1.54419 -10.96496,-4.33348 -3.30872,-2.87843 -4.9762,-6.99708 -5.00367,-12.34926 m 8.06458,-5.23803 c 0,0 0,4.76135 0,4.76135 0.0811,5.90882 2.70812,8.86841 7.90405,8.90076 5.11109,-0.0324 7.7533,-2.99194 7.94129,-8.90076 0,0 0,-4.76135 0,-4.76135 -0.18799,-5.80262 -2.8302,-8.75672 -7.94129,-8.85864 -5.19593,0.10187 -7.82288,3.05603 -7.90405,8.85864"
       style="fill:#ffffff;fill-opacity:1;fill-rule:nonzero;stroke:none"
       id="path3370" /></g><path
     id="path3348"
     style="fill:#ffffff;fill-opacity:1;fill-rule:nonzero;stroke:none"
     d="m 26.858905,0.959825 c -14.124763,0.01 -25.8837875,11.348875 -25.86365,25.485838 -0.0635,312.107547 -0.025,629.932247 -0.025,903.844617 0,0.71288 0.035375,1.41845 0.094,2.12157 0.00875,0.0684 0.00875,0.1416 0.018875,0.20996 0.058625,0.67749 0.145875,1.34888 0.2533,2.00928 0.01525,0.0769 0.0305,0.15625 0.044,0.23316 0.12275,0.6787 0.263675,1.35009 0.4351875,2.00439 0.1763875,0.67871 0.38635,1.34277 0.614625,1.99951 0.01,0.0341 0.020125,0.0671 0.035375,0.1025 0.2233875,0.63843 0.4772875,1.25976 0.7513375,1.87623 0.025,0.0537 0.04825,0.10737 0.07325,0.15747 0.2825875,0.62011 0.5816625,1.23046 0.912475,1.82129 0.3430125,0.62134 0.709225,1.2268 1.0992375,1.81396 0.3711,0.55541 0.7659875,1.09496 1.177375,1.62231 0.044,0.0489 0.082375,0.1025 0.120875,0.15137 0.41015,0.5127 0.8355625,1.01075 1.275025,1.49048 0.039,0.0403 0.0775,0.0745 0.112875,0.1135 0.91735,0.97534 1.9036875,1.87988 2.9583745,2.70019 0.04388,0.0403 0.08788,0.0745 0.131226,0.10738 0.517575,0.39795 1.045525,0.7727 1.587524,1.13037 0.069,0.044 0.131226,0.083 0.195313,0.12088 1.12365,0.72387 2.304687,1.36473 3.53515,1.91161 0.04337,0.0184 0.0885,0.039 0.137338,0.0586 0.609737,0.26855 1.234737,0.51392 1.870112,0.72998 0.05375,0.0244 0.11225,0.039 0.169675,0.0574 0.650025,0.22095 1.3086,0.41993 1.977538,0.58717 0.127562,0.0292 0.255125,0.0586 0.376587,0.0866 0.224613,0.0538 0.449838,0.10738 0.673225,0.15625 0.01,0 0.01,0 0.01525,0.005 0.01,0 0.01525,0 0.02013,0 0,0 0,0 0,0 0.0088,0.005 0.02375,0.005 0.0335,0.0113 0.33265,0.0635 0.664063,0.12695 1.001587,0.17578 1.362313,0.21973 2.753301,0.34058 4.178463,0.34058 0.52735,0 1.0553,0 1.58265,0 0.0335,0 0.06837,0 0.1025,0 0.08363,0.006 0.151363,0.0112 0.234988,0.0112 223.343497,-0.16722 439.123537,-0.15502 662.861327,-0.0112 1.42578,0.001 2.82471,-0.12087 4.18457,-0.34058 0.33692,-0.0489 0.67139,-0.11226 1.00098,-0.17578 0.01,-0.006 0.0195,-0.006 0.0293,-0.0113 0.01,0 0.0146,0 0.0244,0 0.35644,-0.0769 0.71289,-0.16114 1.06445,-0.2478 0.66895,-0.17212 1.32324,-0.36621 1.97265,-0.58227 0.0586,-0.0232 0.12213,-0.0427 0.18068,-0.0622 0.63964,-0.22094 1.26464,-0.4663 1.87987,-0.73487 0.0341,-0.0146 0.0635,-0.0293 0.0976,-0.0451 1.24511,-0.55054 2.43652,-1.19141 3.56934,-1.92505 0.0586,-0.0379 0.11712,-0.072 0.17088,-0.11113 0.55177,-0.35766 1.08399,-0.7373 1.60645,-1.14013 0.039,-0.0281 0.0732,-0.0622 0.11225,-0.0915 1.06934,-0.8313 2.07031,-1.74439 2.99318,-2.73072 0.0244,-0.0292 0.0489,-0.0537 0.0781,-0.0781 0.44921,-0.49194 0.88379,-0.99365 1.29883,-1.51611 0.0293,-0.039 0.0635,-0.083 0.0976,-0.12695 0.41504,-0.53223 0.81544,-1.07544 1.19141,-1.63697 0,-0.005 0,-0.005 0.01,-0.01 0.37598,-0.56763 0.7373,-1.15967 1.06934,-1.76026 0.0146,-0.0208 0.0244,-0.039 0.0366,-0.0635 0.31982,-0.58228 0.61767,-1.17675 0.89598,-1.78466 0.0292,-0.0671 0.0586,-0.13063 0.0879,-0.19898 0.26855,-0.59692 0.51269,-1.2085 0.73486,-1.82861 0.022,-0.0538 0.0366,-0.11237 0.061,-0.16969 0.21974,-0.64086 0.41993,-1.29272 0.59571,-1.95556 0.1709,-0.64941 0.3125,-1.30981 0.42969,-1.97876 0.0195,-0.0879 0.0341,-0.18188 0.0489,-0.27465 0.11475,-0.64941 0.19531,-1.31593 0.25878,-1.98487 0.0125,-0.0769 0.0125,-0.16113 0.0146,-0.24292 0.0586,-0.69458 0.0928,-1.39404 0.0928,-2.09716 0.0146,-298.62183 -0.01,-644.04969 -0.0244,-903.844615 0.0244,-14.136962 -11.73828,-25.4858375 -25.86426,-25.4858375 -233.95812,-0.001225 -446.25,-0.001225 -664.771723,0 z"
     inkscape:connector-curvature="0" /><path
     id="path3350"
     style="fill:none;stroke:#000000;stroke-width:1.91738749;stroke-linecap:butt;stroke-linejoin:miter;stroke-miterlimit:4;stroke-dasharray:none;stroke-opacity:1"
     d="m 26.858905,0.959825 c -14.124763,0.01 -25.8837875,11.348875 -25.86365,25.485838 -0.0635,312.107547 -0.025,629.932247 -0.025,903.844617 0,0.71288 0.035375,1.41845 0.094,2.12157 0.00875,0.0684 0.00875,0.1416 0.018875,0.20996 0.058625,0.67749 0.145875,1.34888 0.2533,2.00928 0.01525,0.0769 0.0305,0.15625 0.044,0.23316 0.12275,0.6787 0.263675,1.35009 0.4351875,2.00439 0.1763875,0.67871 0.38635,1.34277 0.614625,1.99951 0.01,0.0341 0.020125,0.0671 0.035375,0.1025 0.2233875,0.63843 0.4772875,1.25976 0.7513375,1.87623 0.025,0.0537 0.04825,0.10737 0.07325,0.15747 0.2825875,0.62011 0.5816625,1.23046 0.912475,1.82129 0.3430125,0.62134 0.709225,1.2268 1.0992375,1.81396 0.3711,0.55541 0.7659875,1.09496 1.177375,1.62231 0.044,0.0489 0.082375,0.1025 0.120875,0.15137 0.41015,0.5127 0.8355625,1.01075 1.275025,1.49048 0.039,0.0403 0.0775,0.0745 0.112875,0.1135 0.91735,0.97534 1.9036875,1.87988 2.9583745,2.70019 0.04388,0.0403 0.08788,0.0745 0.131226,0.10738 0.517575,0.39795 1.045525,0.7727 1.587524,1.13037 0.069,0.044 0.131226,0.083 0.195313,0.12088 1.12365,0.72387 2.304687,1.36473 3.53515,1.91161 0.04337,0.0184 0.0885,0.039 0.137338,0.0586 0.609737,0.26855 1.234737,0.51392 1.870112,0.72998 0.05375,0.0244 0.11225,0.039 0.169675,0.0574 0.650025,0.22095 1.3086,0.41993 1.977538,0.58717 0.127562,0.0292 0.255125,0.0586 0.376587,0.0866 0.224613,0.0538 0.449838,0.10738 0.673225,0.15625 0.01,0 0.01,0 0.01525,0.005 0.01,0 0.01525,0 0.02013,0 0,0 0,0 0,0 0.0088,0.005 0.02375,0.005 0.0335,0.0113 0.33265,0.0635 0.664063,0.12695 1.001587,0.17578 1.362313,0.21973 2.753301,0.34058 4.178463,0.34058 0.52735,0 1.0553,0 1.58265,0 0.0335,0 0.06837,0 0.1025,0 0.08363,0.006 0.151363,0.0112 0.234988,0.0112 223.343502,-0.16722 439.123542,-0.15502 662.861322,-0.0112 1.42578,10e-4 2.82471,-0.12087 4.18457,-0.34058 0.33692,-0.0489 0.67139,-0.11226 1.00098,-0.17578 0.01,-0.006 0.0195,-0.006 0.0293,-0.0113 0.01,0 0.0146,0 0.0244,0 0.35645,-0.0769 0.7129,-0.16114 1.06445,-0.2478 0.66895,-0.17212 1.32325,-0.36621 1.97266,-0.58227 0.0586,-0.0232 0.12212,-0.0427 0.18068,-0.0622 0.63964,-0.22094 1.26464,-0.4663 1.87987,-0.73487 0.0341,-0.0146 0.0635,-0.0293 0.0976,-0.0451 1.24511,-0.55054 2.43652,-1.19141 3.56934,-1.92505 0.0586,-0.0379 0.11712,-0.072 0.17088,-0.11113 0.55177,-0.35766 1.08399,-0.7373 1.60645,-1.14013 0.039,-0.0281 0.0732,-0.0622 0.11225,-0.0915 1.06934,-0.8313 2.07031,-1.74439 2.99318,-2.73072 0.0244,-0.0292 0.0489,-0.0537 0.0781,-0.0781 0.44921,-0.49194 0.88379,-0.99365 1.29883,-1.51611 0.0293,-0.039 0.0635,-0.083 0.0976,-0.12695 0.41504,-0.53223 0.81544,-1.07544 1.19141,-1.63697 0,-0.005 0,-0.005 0.01,-0.01 0.37598,-0.56763 0.7373,-1.15967 1.06934,-1.76026 0.0146,-0.0208 0.0244,-0.039 0.0366,-0.0635 0.31982,-0.58228 0.61767,-1.17675 0.89598,-1.78466 0.0292,-0.0671 0.0586,-0.13063 0.0879,-0.19898 0.26855,-0.59692 0.51269,-1.2085 0.73486,-1.82861 0.022,-0.0538 0.0366,-0.11237 0.061,-0.16969 0.21974,-0.64086 0.41993,-1.29272 0.59571,-1.95556 0.1709,-0.64941 0.3125,-1.30981 0.42969,-1.97876 0.0195,-0.0879 0.0341,-0.18188 0.0489,-0.27465 0.11475,-0.64941 0.19531,-1.31593 0.25878,-1.98487 0.0125,-0.0769 0.0125,-0.16113 0.0146,-0.24292 0.0586,-0.69458 0.0928,-1.39404 0.0928,-2.09716 0.0146,-298.62183 -0.01,-644.04969 -0.0244,-903.844615 0.0244,-14.136962 -11.73828,-25.4858375 -25.86426,-25.4858375 -233.95812,-0.001225 -446.25,-0.001225 -664.771728,0 z"
     inkscape:connector-curvature="0" /><path
     id="path3352"
     style="fill:#2b2c7c;fill-opacity:1;fill-rule:evenodd;stroke:none"
     d="m 27.13783,15.94945 c -0.341188,-0.01525 -0.7074,0.02875 -1.000975,0.04887 -0.02875,0 -0.05375,0.005 -0.08237,0.01 -4.986575,0.513312 -8.8678,4.720463 -8.872675,9.74 0.01,300.082405 0.01,637.724605 0.0385,904.986565 0,5.41505 4.370112,9.78394 9.7815,9.78394 224.736325,0.0195 455.790395,-0.005 663.115225,0.0489 3.17384,0.0281 5.66895,-0.77637 8.40332,-3.18116 1.66993,-1.54906 2.58302,-3.55956 2.58302,-5.78003 -0.13673,-299.01367 0.01,-636.95068 -0.0538,-905.81481 0,-5.433962 -4.4043,-9.841925 -9.83399,-9.841925 -235.10804,-0.122625 -441.344,-0.05375 -664.077763,0 z"
     inkscape:connector-curvature="0" /><path
     id="path3358"
     style="fill:#ffffff;fill-opacity:1;fill-rule:evenodd;stroke:none"
     d="m 136.86012,384.09704 c 0,0 -45.69214,77.31384 -45.69214,77.31384 -2.34375,4.0387 -0.19165,12.84241 8.343512,11.93847 0,0 20.029898,-6.8164 20.029898,-6.8164 0,0 2.16248,0 2.16248,0 0,0 0,439.09545 0,439.09545 0,0 33.15002,0 33.15002,0 0,0 -0.64514,-37.94189 -0.64514,-37.94189 0.47424,-27.63427 5.74768,-38.99902 25.74768,-60.75927 0,0 20.72755,-21.5625 20.72755,-21.5625 0.88379,-0.90089 1.57226,-1.61621 2.48535,-2.54884 0.0299,-0.0415 0.0538,-0.0756 0.0836,-0.11962 0,0 55.9613,-57.64649 55.9613,-57.64649 0,0 10.91249,19.66554 10.91249,19.66554 4.62035,5.15625 11.9049,3.33983 14.2926,-2.76857 0,0 19.25231,-88.75732 19.25231,-88.75732 0,0 -87.98217,22.58789 -87.98217,22.58789 -4.49768,1.28175 -9.04908,9.11621 -2.27661,14.38965 0,0 20.58655,10.37353 20.58655,10.37353 0,0 1.5625,1.50147 1.5625,1.50147 0,0 -63.36914,65.16602 -63.36914,65.16602 -1.31898,1.1914 -2.60743,2.36328 -3.95509,3.56445 -6.02477,5.05615 -13.0664,7.52441 -13.09631,-8.58155 0,0 -0.4486,-295.5017 -0.4486,-295.5017 0,0 21.50879,6.59668 21.50879,6.59668 6.90368,0.50842 10.89355,-5.85877 8.37402,-11.90918 0,0 -47.71546,-77.27966 -47.71546,-77.27966 z"
     inkscape:connector-curvature="0" /><path
     id="path3360"
     style="fill:#ffffff;fill-opacity:1;fill-rule:nonzero;stroke:none"
     d="m 277.18239,881.50488 c 0,-6.81885 -0.8136,-13.83668 -6.3086,-19.32497 -2.95166,-2.95165 -7.31567,-4.67895 -13.01696,-4.67895 -5.29114,0 -9.56177,1.6272 -12.00379,4.17603 0,0 0,-19.12475 0,-19.12475 0,0 29.70154,0 29.70154,0 0,0 0,-9.25781 0,-9.25781 0,0 -39.05456,0 -39.05456,0 0,0 0,39.5642 0,39.5642 0,0 9.45495,0 9.45495,0 1.12244,-3.55713 4.37072,-6.51 10.27405,-6.51 8.34472,0 10.5774,6.51 10.5774,15.15625 0,4.88281 -0.40345,9.66307 -3.45643,12.71483 -1.82983,1.83105 -4.47082,2.84668 -7.52441,2.84668 -6.5149,0 -9.76319,-3.66699 -10.57801,-10.06835 0,0 -10.37964,0 -10.37964,0 0.41016,5.18432 1.63209,9.96581 5.49928,13.833 3.14697,3.14697 8.53942,5.59449 15.45837,5.59449 7.01355,0 11.99646,-2.44752 15.25635,-5.69703 5.28686,-5.29052 6.10046,-11.4917 6.10046,-19.22362"
     inkscape:connector-curvature="0" /><path
     id="path3362"
     style="fill:#ffffff;fill-opacity:1;fill-rule:nonzero;stroke:none"
     d="m 330.70351,885.5747 c 0,0 0,-32.14356 0,-32.14356 0,-12.91626 -9.45984,-20.74219 -20.95154,-20.74219 -11.49293,0 -20.85267,7.82593 -20.85267,20.74219 0,0 0,32.14356 0,32.14356 0,12.91625 9.35974,20.74829 20.85267,20.74829 11.4917,0 20.95154,-7.83204 20.95154,-20.74829 m -10.37598,-0.30519 c 0,7.01539 -3.96667,11.79688 -10.57556,11.79688 -6.61011,0 -10.47669,-4.78149 -10.47669,-11.79688 0,0 0,-31.5271 0,-31.5271 0,-7.02147 3.86658,-11.80297 10.47669,-11.80297 6.60889,0 10.57556,4.7815 10.57556,11.80297 0,0 0,31.5271 0,31.5271"
     inkscape:connector-curvature="0" /><path
     id="path3364"
     style="fill:#ffffff;fill-opacity:1;fill-rule:nonzero;stroke:none"
     d="m 384.93202,885.5747 c 0,0 0,-32.14356 0,-32.14356 0,-12.91626 -9.45434,-20.74219 -20.94543,-20.74219 -11.50452,0 -20.85816,7.82593 -20.85816,20.74219 0,0 0,32.14356 0,32.14356 0,12.91625 9.35364,20.74829 20.85816,20.74829 11.49109,0 20.94543,-7.83204 20.94543,-20.74829 m -10.37475,-0.30519 c 0,7.01539 -3.96729,11.79688 -10.57068,11.79688 -6.61621,0 -10.48279,-4.78149 -10.48279,-11.79688 0,0 0,-31.5271 0,-31.5271 0,-7.02147 3.86658,-11.80297 10.48279,-11.80297 6.60339,0 10.57068,4.7815 10.57068,11.80297 0,0 0,31.5271 0,31.5271"
     inkscape:connector-curvature="0" /><path
     id="path3392"
     style="fill:#ffffff;fill-opacity:1;fill-rule:nonzero;stroke:none"
     d="m 436.58181,853.81323 c -2.80945,0.25878 -5.82887,0.58837 -8.03345,1.91893 0,0 0,-0.88867 0,-0.88867 0,0 -10.6189,0 -10.6189,0 0,0 0,0.70312 0,0.70312 0,0 -0.0379,0 -0.0379,0 0,0 0,50.52369 0,50.52369 0,0 10.65674,0 10.65674,0 0,0 0,-35.63721 0,-35.63721 0.007,-3.88183 2.26806,-5.9375 5.43701,-5.89478 3.27515,0.044 5.75256,1.99585 5.75256,5.89478 0,0 0,35.69092 0,35.69092 0,0 10.75989,0 10.75989,0 0,0 -0.0159,-35.80445 -0.0159,-35.80445 0.0525,-3.07006 2.26075,-5.75561 5.38392,-5.78125 3.27392,-0.0269 5.75867,1.99585 5.75867,5.89478 0,0 0,35.63721 0,35.63721 0,0 10.7605,0 10.7605,0 0,0 0,-39.54224 0,-39.54224 0,-1.31713 -0.0629,-2.56713 -0.32166,-3.77075 -0.1886,-1.25488 -0.52918,-2.31323 -1.09558,-3.25927 -0.79956,-1.38063 -1.92688,-2.44263 -3.23852,-3.27026 -0.24475,-0.18312 -0.50294,-0.33937 -0.77515,-0.49562 -1.75904,-1.01562 -4.07287,-1.60156 -6.43921,-1.81152 -0.307,-0.039 -0.60792,-0.0513 -0.9143,-0.0769 -0.0635,-0.004 -0.12325,0 -0.17823,0 -1.05712,-0.0549 -2.1637,-0.0244 -3.2428,0.0769 -2.35169,0.20996 -4.63501,0.7959 -6.39037,1.81152 -0.26918,0.15625 -0.53345,0.3125 -0.7782,0.49562 -0.56947,0.35888 -1.10658,0.75072 -1.59852,1.20361 -0.48523,-0.44679 -0.99365,-0.84718 -1.56311,-1.20361 -0.25207,-0.18312 -0.5072,-0.33937 -0.78307,-0.49562 -2.27052,-1.30858 -5.4303,-1.93358 -8.4845,-1.91893 z"
     inkscape:connector-curvature="0" /><path
     id="path3424"
     style="fill:#2b2c7c;fill-opacity:1;fill-rule:nonzero;stroke:none"
     d="m 422.78237,395.62596 c -0.96375,0.1709 -2.76857,0.54444 -4.31458,1.344 -5.75562,3.13843 -3.81775,12.06177 3.76891,12.19483 2.84852,0 5.23988,-0.5896 6.83412,-1.67603 1.64734,-1.05714 3.33373,-2.61718 3.33373,-5.41992 0,-1.01808 0,-3.22022 0.01,-5.99365 -4.11132,-1.09132 -8.16711,-0.74219 -9.63195,-0.44923 z"
     inkscape:connector-curvature="0" /><text
     xml:space="preserve"
     style="font-style:normal;font-variant:normal;font-weight:normal;font-stretch:normal;font-size:20px;line-height:110%;font-family:Helvetica;-inkscape-font-specification:'Helvetica, Normal';text-align:start;letter-spacing:0px;word-spacing:0px;writing-mode:lr-tb;text-anchor:start;fill:#000000;fill-opacity:1;stroke:none;stroke-width:1px;stroke-linecap:butt;stroke-linejoin:miter;stroke-opacity:1;"
     x="339.18497"
     y="415.95526"
     id="text4314"
     sodipodi:linespacing="110%"><tspan
       sodipodi:role="line"
       x="339.18497"
       y="415.95526"
       style="font-style:normal;font-variant:normal;font-weight:bold;font-stretch:normal;font-size:90px;line-height:110%;font-family:Arial;-inkscape-font-specification:'Arial Bold';fill:#ffffff;fill-opacity:1;"
       id="tspan4318">Retorno</tspan><tspan
       sodipodi:role="line"
       x="339.18497"
       y="514.95526"
       style="font-style:normal;font-variant:normal;font-weight:bold;font-stretch:normal;font-size:90px;line-height:110%;font-family:Arial;-inkscape-font-specification:'Arial Bold';fill:#ffffff;fill-opacity:1;"
       id="tspan4383">Pipeline</tspan></text>
<text
     xml:space="preserve"
     style="font-style:normal;font-variant:normal;font-weight:normal;font-stretch:normal;font-size:20px;line-height:110%;font-family:Helvetica;-inkscape-font-specification:'Helvetica, Normal';text-align:start;letter-spacing:0px;word-spacing:0px;writing-mode:lr-tb;text-anchor:start;fill:#000000;fill-opacity:1;stroke:none;stroke-width:1px;stroke-linecap:butt;stroke-linejoin:miter;stroke-opacity:1;"
     x="55.034348"
     y="131.65082"
     id="text4320"
     sodipodi:linespacing="110%"><tspan
       sodipodi:role="line"
       id="tspan4322"
       x="55.034348"
       y="131.65082"
       style="font-style:normal;font-variant:normal;font-weight:bold;font-stretch:normal;font-size:90px;font-family:Arial;-inkscape-font-specification:'Arial Bold';fill:#ffffff;fill-opacity:1;line-height:110%;">Próxima </tspan><tspan
       sodipodi:role="line"
       x="55.034348"
       y="244.1508"
       id="tspan4324"
       style="font-style:normal;font-variant:normal;font-weight:bold;font-stretch:normal;font-size:90px;font-family:Arial;-inkscape-font-specification:'Arial Bold';fill:#ffffff;fill-opacity:1;line-height:110%;">Etapa</tspan></text>
<g
     id="g4359"
     transform="translate(345.89736,-286.46585)"><path
       id="path4349"
       style="fill:#ffffff;fill-opacity:1;fill-rule:nonzero;stroke:none"
       d="m -268.78563,555.21948 c -4.70887,0 -8.526,3.80248 -8.526,8.51683 0.009,27.28272 -0.0113,54.96827 0,78.36183 0,3.38866 2.00501,6.32812 4.9115,7.70262 0.61585,0.28809 1.28051,0.50782 1.97266,0.64698 0.5902,0.12212 1.18957,0.17334 1.651,0.17579 52.93701,-0.01 64.19006,-0.01 117.73742,0 0.46204,-0.002 1.06323,-0.0537 1.65162,-0.17579 0.69091,-0.13916 1.35253,-0.35889 1.97387,-0.64698 2.90161,-1.3745 4.91211,-4.31396 4.91211,-7.70262 0.0113,-26.79444 -0.0113,-55.31006 0,-78.36183 0,-4.71435 -3.81226,-8.51683 -8.52599,-8.5205 -54.23463,0 -71.8097,0.004 -117.75819,0.004 z"
       inkscape:connector-curvature="0" /><path
       id="path4351"
       style="fill:#276235;fill-opacity:1;fill-rule:nonzero;stroke:none"
       d="m -266.55541,560.98974 c -2.74536,0 -4.96642,2.22656 -4.96642,4.96581 -0.01,27.19728 0.0113,50.66895 0,73.97705 0,2.74415 2.22106,4.96583 4.96642,4.96583 51.3916,0.0146 65.27894,0.0366 112.91688,0 2.73925,0 4.9591,-2.22168 4.9591,-4.96583 0,-26.69311 0.0113,-50.94726 0,-73.97705 0,-2.73925 -2.21985,-4.96581 -4.9591,-4.96581 -52.15882,-0.0427 -67.36512,0 -112.91688,0 z"
       inkscape:connector-curvature="0" /><text
       sodipodi:linespacing="125%"
       id="text4338"
       y="630.19739"
       x="-261.14346"
       style="font-style:normal;font-variant:normal;font-weight:bold;font-stretch:normal;font-size:80px;line-height:125%;font-family:'Bitstream Vera Sans Mono';-inkscape-font-specification:'Bitstream Vera Sans Mono Bold';text-align:start;letter-spacing:0px;word-spacing:0px;writing-mode:lr-tb;text-anchor:start;fill:#ffffff;fill-opacity:1;stroke:none;stroke-width:1px;stroke-linecap:butt;stroke-linejoin:miter;stroke-opacity:1"
       xml:space="preserve"><tspan
         y="630.19739"
         x="-261.14346"
         id="tspan4340"
         sodipodi:role="line">E4</tspan></text>
</g><g
     transform="translate(619.89736,-2.46585)"
     id="g4365"><path
       inkscape:connector-curvature="0"
       d="m -268.78563,555.21948 c -4.70887,0 -8.526,3.80248 -8.526,8.51683 0.009,27.28272 -0.0113,54.96827 0,78.36183 0,3.38866 2.00501,6.32812 4.9115,7.70262 0.61585,0.28809 1.28051,0.50782 1.97266,0.64698 0.5902,0.12212 1.18957,0.17334 1.651,0.17579 52.93701,-0.01 64.19006,-0.01 117.73742,0 0.46204,-0.002 1.06323,-0.0537 1.65162,-0.17579 0.69091,-0.13916 1.35253,-0.35889 1.97387,-0.64698 2.90161,-1.3745 4.91211,-4.31396 4.91211,-7.70262 0.0113,-26.79444 -0.0113,-55.31006 0,-78.36183 0,-4.71435 -3.81226,-8.51683 -8.52599,-8.5205 -54.23463,0 -71.8097,0.004 -117.75819,0.004 z"
       style="fill:#ffffff;fill-opacity:1;fill-rule:nonzero;stroke:none"
       id="path4367" /><path
       inkscape:connector-curvature="0"
       d="m -266.55541,560.98974 c -2.74536,0 -4.96642,2.22656 -4.96642,4.96581 -0.01,27.19728 0.0113,50.66895 0,73.97705 0,2.74415 2.22106,4.96583 4.96642,4.96583 51.3916,0.0146 65.27894,0.0366 112.91688,0 2.73925,0 4.9591,-2.22168 4.9591,-4.96583 0,-26.69311 0.0113,-50.94726 0,-73.97705 0,-2.73925 -2.21985,-4.96581 -4.9591,-4.96581 -52.15882,-0.0427 -67.36512,0 -112.91688,0 z"
       style="fill:#276235;fill-opacity:1;fill-rule:nonzero;stroke:none"
       id="path4369" /><text
       xml:space="preserve"
       style="font-style:normal;font-variant:normal;font-weight:bold;font-stretch:normal;font-size:80px;line-height:125%;font-family:'Bitstream Vera Sans Mono';-inkscape-font-specification:'Bitstream Vera Sans Mono Bold';text-align:start;letter-spacing:0px;word-spacing:0px;writing-mode:lr-tb;text-anchor:start;fill:#ffffff;fill-opacity:1;stroke:none;stroke-width:1px;stroke-linecap:butt;stroke-linejoin:miter;stroke-opacity:1"
       x="-261.14346"
       y="630.19739"
       id="text4371"
       sodipodi:linespacing="125%"><tspan
         sodipodi:role="line"
         id="tspan4373"
         x="-261.14346"
         y="630.19739">E3</tspan></text>
</g></svg>