<?xml version="1.0" encoding="UTF-8" standalone="no"?>
<!-- Created with Inkscape (http://www.inkscape.org/) -->

<svg
   xmlns:dc="http://purl.org/dc/elements/1.1/"
   xmlns:cc="http://creativecommons.org/ns#"
   xmlns:rdf="http://www.w3.org/1999/02/22-rdf-syntax-ns#"
   xmlns:svg="http://www.w3.org/2000/svg"
   xmlns="http://www.w3.org/2000/svg"
   xmlns:sodipodi="http://sodipodi.sourceforge.net/DTD/sodipodi-0.dtd"
   xmlns:inkscape="http://www.inkscape.org/namespaces/inkscape"
   id="svg2"
   version="1.1"
   inkscape:version="0.91 r13725"
   xml:space="preserve"
   width="582.862"
   height="387.34052"
   viewBox="0 0 582.86202 387.34051"
   sodipodi:docname="bancoRegistradoresMIPSescrita-leitura.svg"><metadata
     id="metadata8"><rdf:RDF><cc:Work
         rdf:about=""><dc:format>image/svg+xml</dc:format><dc:type
           rdf:resource="http://purl.org/dc/dcmitype/StillImage" /><dc:title></dc:title></cc:Work></rdf:RDF></metadata><defs
     id="defs6" /><sodipodi:namedview
     pagecolor="#ffffff"
     bordercolor="#666666"
     borderopacity="1"
     objecttolerance="10"
     gridtolerance="10"
     guidetolerance="10"
     inkscape:pageopacity="0"
     inkscape:pageshadow="2"
     inkscape:window-width="1920"
     inkscape:window-height="1031"
     id="namedview4"
     showgrid="false"
     fit-margin-top="8"
     fit-margin-left="8"
     fit-margin-bottom="8"
     fit-margin-right="8"
     inkscape:zoom="2.0982668"
     inkscape:cx="291.431"
     inkscape:cy="193.67026"
     inkscape:window-x="1920"
     inkscape:window-y="30"
     inkscape:window-maximized="1"
     inkscape:current-layer="g10"
     showguides="true"
     inkscape:guide-bbox="true" /><g
     id="g10"
     inkscape:groupmode="layer"
     inkscape:label="ink_ext_XXXXXX"
     transform="matrix(1.25,0,0,-1.25,169.10225,983.18955)"><path
       inkscape:connector-curvature="0"
       id="path18"
       style="fill:none;stroke:#000000;stroke-width:0.80000001;stroke-linecap:butt;stroke-linejoin:miter;stroke-miterlimit:4;stroke-dasharray:none;stroke-opacity:1"
       d="m 72.91386,734.19386 26.93822,0" /><text
       transform="scale(1,-1)"
       style="font-style:normal;font-variant:normal;font-weight:normal;font-stretch:normal;font-size:8px;line-height:125%;font-family:Arial;-inkscape-font-specification:Arial;text-align:center;writing-mode:lr-tb;text-anchor:middle;fill:#000000;fill-opacity:1;fill-rule:nonzero;stroke:none;"
       id="text22"
       x="-109.5994"
       y="-617.12518"
       sodipodi:linespacing="125%"><tspan
         sodipodi:role="line"
         id="tspan4514"
         x="-109.5994"
         y="-617.12518">Write</tspan><tspan
         sodipodi:role="line"
         id="tspan4516"
         x="-109.5994"
         y="-607.12518">Enable</tspan></text>
<path
       inkscape:connector-curvature="0"
       id="path28"
       style="fill:none;stroke:#000000;stroke-width:0.80000001;stroke-linecap:butt;stroke-linejoin:miter;stroke-miterlimit:4;stroke-dasharray:none;stroke-opacity:1"
       d="m -81.013009,483.47922 368.640309,0 0,296.27242 -368.640309,0 0,-296.27242 z" /><text
       transform="scale(1,-1)"
       style="font-style:normal;font-variant:normal;font-weight:normal;font-stretch:normal;font-size:8px;font-family:Arial;-inkscape-font-specification:Arial;writing-mode:lr-tb;fill:#000000;fill-opacity:1;fill-rule:nonzero;stroke:none;"
       id="text32"
       x="-36.283924"
       y="-713.66486"><tspan
         x="-36.283924"
         y="-713.66486"
         id="tspan34"
         style="font-style:normal;font-variant:normal;font-weight:normal;font-stretch:normal;font-family:Arial;-inkscape-font-specification:Arial;fill:#000000;fill-opacity:1;">1</tspan></text>
<text
       transform="scale(1,-1)"
       style="font-style:normal;font-variant:normal;font-size:8px;font-family:Arial;-inkscape-font-specification:Arial;writing-mode:lr-tb;fill:#000000;fill-opacity:1;fill-rule:nonzero;stroke:none;font-weight:normal;font-stretch:normal;"
       id="text36"
       x="-61.988621"
       y="-699.97858"><tspan
         x="-61.988621"
         y="-699.97858"
         id="tspan38"
         style="fill:#000000;fill-opacity:1;-inkscape-font-specification:Arial;font-family:Arial;font-weight:normal;font-style:normal;font-stretch:normal;font-variant:normal;">n</tspan></text>
<text
       transform="scale(1,-1)"
       style="font-variant:normal;font-weight:normal;font-size:8px;font-family:Arial;-inkscape-font-specification:Arial;writing-mode:lr-tb;fill:#000000;fill-opacity:1;fill-rule:nonzero;stroke:none;font-style:normal;font-stretch:normal;"
       id="text40-9"
       x="-57.540569"
       y="-699.97858"><tspan
         x="-57.540569 -54.876575 -52.652569 -48.204571 -45.540569"
         y="-699.97858"
         sodipodi:role="line"
         id="tspan42-1">-to-2</tspan></text>
<text
       transform="scale(1,-1)"
       style="font-style:normal;font-variant:normal;font-size:6px;font-family:Arial;-inkscape-font-specification:Arial;writing-mode:lr-tb;fill:#000000;fill-opacity:1;fill-rule:nonzero;stroke:none;font-weight:normal;font-stretch:normal;"
       id="text44"
       x="-41.092869"
       y="-701.97858"><tspan
         x="-41.092869"
         y="-701.97858"
         id="tspan46"
         style="fill:#000000;fill-opacity:1;-inkscape-font-specification:Arial;font-family:Arial;font-weight:normal;font-style:normal;font-stretch:normal;font-variant:normal;">n</tspan></text>
<text
       transform="scale(1,-1)"
       style="font-variant:normal;font-weight:normal;font-size:8px;font-family:Arial;-inkscape-font-specification:Arial;writing-mode:lr-tb;fill:#000000;fill-opacity:1;fill-rule:nonzero;stroke:none;font-style:normal;font-stretch:normal;"
       id="text48-2"
       x="-66.660469"
       y="-690.37854"><tspan
         x="-66.660469 -62.212475 -57.764469 -53.764469 -49.316471 -44.868473 -40.420475"
         y="-690.37854"
         sodipodi:role="line"
         id="tspan50-7"
         style="font-style:normal;font-variant:normal;font-weight:normal;font-stretch:normal;font-family:Arial;-inkscape-font-specification:Arial;">decoder</tspan></text>
<text
       transform="scale(1,-1)"
       style="font-style:normal;font-variant:normal;font-weight:normal;font-stretch:normal;font-size:8px;line-height:125%;font-family:Arial;-inkscape-font-specification:Arial;text-align:start;writing-mode:lr-tb;text-anchor:start;fill:#000000;fill-opacity:1;fill-rule:nonzero;stroke:none;"
       id="text56-0"
       x="-49.356014"
       y="-668.11053"
       sodipodi:linespacing="125%"><tspan
         sodipodi:role="line"
         id="tspan4604"
         x="-49.356014"
         y="-668.11053">n – 2</tspan></text>
<path
       inkscape:connector-curvature="0"
       id="path68-2"
       style="fill:none;fill-opacity:1;fill-rule:nonzero;stroke:none"
       d="m 39.38808,747.66486 0,-27 20.25,0 c 0,0 13.502,0 13.502,13.5 0,13.5 -13.502,13.5 -13.502,13.5 l -20.25,0" /><path
       inkscape:connector-curvature="0"
       id="path70"
       style="fill:none;stroke:#000000;stroke-width:1;stroke-linecap:butt;stroke-linejoin:miter;stroke-miterlimit:4;stroke-dasharray:none;stroke-opacity:1"
       d="m 39.38808,747.66486 0,-27 20.25,0 c 0,0 13.502,0 13.502,13.5 0,13.5 -13.502,13.5 -13.502,13.5 l -20.25,0 z" /><path
       inkscape:connector-curvature="0"
       id="path72"
       style="fill:none;stroke:#000000;stroke-width:1;stroke-linecap:butt;stroke-linejoin:miter;stroke-miterlimit:4;stroke-dasharray:none;stroke-opacity:1"
       d="m -73.81262,646.63486 44.9996,0 0,96.0465 -44.9996,0 0,-96.0465 z" /><path
       inkscape:connector-curvature="0"
       id="path74"
       style="fill:none;stroke:#000000;stroke-width:0.80000001;stroke-linecap:butt;stroke-linejoin:miter;stroke-miterlimit:4;stroke-dasharray:none;stroke-opacity:1"
       d="m -93.44782,697.16686 15.4,0" /><path
       inkscape:connector-curvature="0"
       id="path76"
       style="fill:#000000;fill-opacity:1;fill-rule:nonzero;stroke:none"
       d="m -76.57202,697.80686 c -1.0332,0.313 -1.7051,0.6 -2.5336,0.933 l 0,-3.153 c 0.2965,0.141 1.5004,0.62 2.5336,0.933 1.1058,0.334 2.109,0.562 2.7594,0.643 -0.6504,0.082 -1.6536,0.311 -2.7594,0.644" /><path
       inkscape:connector-curvature="0"
       id="path78"
       style="fill:none;stroke:#000000;stroke-width:1;stroke-linecap:butt;stroke-linejoin:miter;stroke-miterlimit:4;stroke-dasharray:none;stroke-opacity:1"
       d="m 100.14008,697.68086 72,0 0,45 -72,0 0,-45 z" /><text
       transform="scale(1,-1)"
       style="font-style:normal;font-variant:normal;font-weight:normal;font-stretch:normal;font-size:8px;font-family:Arial;-inkscape-font-specification:Arial;writing-mode:lr-tb;fill:#000000;fill-opacity:1;fill-rule:nonzero;stroke:none;"
       id="text82"
       x="117.91307"
       y="-716.61786"><tspan
         x="117.91307 123.68907 128.13707 132.58507 134.36107 138.36107 140.5851 145.0331 147.6971 149.9211"
         y="-716.61786"
         sodipodi:role="line"
         id="tspan84">Register 0</tspan></text>
<text
       transform="scale(1,-1)"
       style="font-style:normal;font-variant:normal;font-weight:normal;font-stretch:normal;font-size:8px;line-height:110.00000238%;font-family:Arial;-inkscape-font-specification:Arial;text-align:start;writing-mode:lr-tb;text-anchor:start;fill:#000000;fill-opacity:1;fill-rule:nonzero;stroke:none;"
       id="text86"
       x="101.90608"
       y="-730.80066"
       sodipodi:linespacing="110%"><tspan
         sodipodi:role="line"
         id="tspan4566"
         x="101.90608"
         y="-730.80066">C </tspan><tspan
         sodipodi:role="line"
         id="tspan4568"
         x="101.90608"
         y="-722.00067" /><tspan
         sodipodi:role="line"
         id="tspan4570"
         x="101.90608"
         y="-713.20068" /><tspan
         sodipodi:role="line"
         id="tspan4572"
         x="101.90608"
         y="-704.40063">D</tspan></text>
<path
       inkscape:connector-curvature="0"
       id="path92"
       style="fill:none;stroke:#000000;stroke-width:1;stroke-linecap:butt;stroke-linejoin:miter;stroke-miterlimit:4;stroke-dasharray:none;stroke-opacity:1"
       d="m 100.14008,652.68086 72,0 0,45 -72,0 0,-45 z" /><text
       transform="scale(1,-1)"
       style="font-style:normal;font-variant:normal;font-weight:normal;font-stretch:normal;font-size:8px;font-family:Arial;-inkscape-font-specification:Arial;writing-mode:lr-tb;fill:#000000;fill-opacity:1;fill-rule:nonzero;stroke:none;"
       id="text96"
       x="117.91307"
       y="-672.69684"><tspan
         x="117.91307 123.68907 128.13707 132.58507 134.36107 138.36107 140.5851 145.0331 147.6971 149.9211"
         y="-672.69684"
         sodipodi:role="line"
         id="tspan98">Register 1</tspan></text>
<path
       inkscape:connector-curvature="0"
       id="path106-1"
       style="fill:none;stroke:#000000;stroke-width:1;stroke-linecap:butt;stroke-linejoin:miter;stroke-miterlimit:4;stroke-dasharray:none;stroke-opacity:1"
       d="m 100.14008,562.68076 72,0 0,45 -72,0 0,-45 z" /><text
       transform="scale(1,-1)"
       style="font-style:normal;font-variant:normal;font-weight:normal;font-stretch:normal;font-size:8px;line-height:125%;font-family:Arial;-inkscape-font-specification:Arial;text-align:start;writing-mode:lr-tb;text-anchor:start;fill:#000000;fill-opacity:1;fill-rule:nonzero;stroke:none;"
       id="text110"
       x="109.54341"
       y="-582.69678"
       sodipodi:linespacing="125%"><tspan
         sodipodi:role="line"
         id="tspan4534"
         x="109.54341"
         y="-582.69678">Register <tspan
   style="font-style:normal;font-variant:normal;font-weight:normal;font-stretch:normal;font-family:Arial;-inkscape-font-specification:Arial;"
   id="tspan4536">n - 2</tspan></tspan></text>
<path
       inkscape:connector-curvature="0"
       id="path132"
       style="fill:none;stroke:#000000;stroke-width:1;stroke-linecap:butt;stroke-linejoin:miter;stroke-miterlimit:4;stroke-dasharray:none;stroke-opacity:1"
       d="m 100.14008,517.68076 72,0 0,45 -72,0 0,-45 z" /><path
       inkscape:connector-curvature="0"
       id="path158-9"
       style="fill:none;stroke:#000000;stroke-width:1;stroke-linecap:butt;stroke-linejoin:miter;stroke-miterlimit:4;stroke-dasharray:none;stroke-opacity:1"
       d="m 100.14008,607.68086 72,0 0,45 -72,0 0,-45 z" /><path
       inkscape:connector-curvature="0"
       id="path170"
       style="fill:none;stroke:#000000;stroke-width:0.80000001;stroke-linecap:butt;stroke-linejoin:miter;stroke-miterlimit:4;stroke-dasharray:none;stroke-opacity:1"
       d="m 21.18008,696.47213 18.41761,0" /><path
       inkscape:connector-curvature="0"
       id="path172"
       style="fill:#000000;fill-opacity:1;fill-rule:nonzero;stroke:none"
       d="m 22.53608,696.19786 c 0,-0.968 -0.782,-1.751 -1.75,-1.751 -0.968,0 -1.75,0.783 -1.75,1.751 0,0.965 0.782,1.749 1.75,1.749 0.968,0 1.75,-0.784 1.75,-1.749" /><path
       inkscape:connector-curvature="0"
       id="path174"
       style="fill:none;stroke:#000000;stroke-width:0.80000001;stroke-linecap:butt;stroke-linejoin:miter;stroke-miterlimit:4;stroke-dasharray:none;stroke-opacity:1"
       d="m 73.47328,689.02186 26.3558,0" /><path
       inkscape:connector-curvature="0"
       id="path176-2"
       style="fill:none;fill-opacity:1;fill-rule:nonzero;stroke:none"
       d="m 39.36508,702.49286 0,-27.001 20.25,0 c 0,0 13.502,0 13.502,13.501 0,13.5 -13.502,13.5 -13.502,13.5 l -20.25,0" /><path
       inkscape:connector-curvature="0"
       id="path178-0"
       style="fill:none;stroke:#000000;stroke-width:1;stroke-linecap:butt;stroke-linejoin:miter;stroke-miterlimit:4;stroke-dasharray:none;stroke-opacity:1"
       d="m 39.36508,702.49286 0,-27.001 20.25,0 c 0,0 13.502,0 13.502,13.501 0,13.5 -13.502,13.5 -13.502,13.5 l -20.25,0 z" /><path
       inkscape:connector-curvature="0"
       id="path180"
       style="fill:none;stroke:#000000;stroke-width:0.80000001;stroke-linecap:butt;stroke-linejoin:miter;stroke-miterlimit:4;stroke-dasharray:none;stroke-opacity:1"
       d="m 21.18008,606.1075 18.72988,0" /><path
       inkscape:connector-curvature="0"
       id="path182"
       style="fill:#000000;fill-opacity:1;fill-rule:nonzero;stroke:none"
       d="m 22.53608,605.98986 c 0,-0.9681 -0.782,-1.7509 -1.75,-1.7509 -0.968,0 -1.75,0.7828 -1.75,1.7509 0,0.965 0.782,1.749 1.75,1.749 0.968,0 1.75,-0.784 1.75,-1.749" /><path
       inkscape:connector-curvature="0"
       id="path184"
       style="fill:none;stroke:#000000;stroke-width:0.80000001;stroke-linecap:butt;stroke-linejoin:miter;stroke-miterlimit:4;stroke-dasharray:none;stroke-opacity:1"
       d="m 72.83728,598.81396 26.9918,0" /><path
       inkscape:connector-curvature="0"
       id="path186"
       style="fill:none;fill-opacity:1;fill-rule:nonzero;stroke:none"
       d="m 39.36408,612.28486 0,-27.001 20.25,0 c 0,0 13.502,0 13.502,13.5012 0,13.4998 -13.502,13.4998 -13.502,13.4998 l -20.25,0" /><path
       inkscape:connector-curvature="0"
       id="path188"
       style="fill:none;stroke:#000000;stroke-width:1;stroke-linecap:butt;stroke-linejoin:miter;stroke-miterlimit:4;stroke-dasharray:none;stroke-opacity:1"
       d="m 39.36408,612.28486 0,-27.001 20.25,0 c 0,0 13.502,0 13.502,13.5012 0,13.4998 -13.502,13.4998 -13.502,13.4998 l -20.25,0 z" /><path
       inkscape:connector-curvature="0"
       id="path190"
       style="fill:none;stroke:#000000;stroke-width:0.80000001;stroke-linecap:butt;stroke-linejoin:miter;stroke-miterlimit:4;stroke-dasharray:none;stroke-opacity:1"
       d="m 39.104797,741.20209 -18.312717,-0.13545 0,-179.63278 0.365,-0.008 18.282,0"
       sodipodi:nodetypes="ccccc" /><path
       inkscape:connector-curvature="0"
       id="path192"
       style="fill:none;stroke:#000000;stroke-width:0.80000001;stroke-linecap:butt;stroke-linejoin:miter;stroke-miterlimit:4;stroke-dasharray:none;stroke-opacity:1"
       d="m 72.82174,554.28786 26.99181,0" /><path
       inkscape:connector-curvature="0"
       id="path194"
       style="fill:none;fill-opacity:1;fill-rule:nonzero;stroke:none"
       d="m 39.34108,567.75886 0,-27.0011 20.25,0 c 0,0 13.502,0 13.502,13.5023 0,13.4988 -13.502,13.4988 -13.502,13.4988 l -20.25,0" /><path
       inkscape:connector-curvature="0"
       id="path196"
       style="fill:none;stroke:#000000;stroke-width:1;stroke-linecap:butt;stroke-linejoin:miter;stroke-miterlimit:4;stroke-dasharray:none;stroke-opacity:1"
       d="m 39.34108,567.75886 0,-27.0011 20.25,0 c 0,0 13.502,0 13.502,13.5023 0,13.4988 -13.502,13.4988 -13.502,13.4988 l -20.25,0 z" /><path
       inkscape:connector-curvature="0"
       id="path198"
       style="fill:none;stroke:#000000;stroke-width:0.80000001;stroke-linecap:butt;stroke-linejoin:miter;stroke-miterlimit:4;stroke-dasharray:none;stroke-opacity:1"
       d="m -28.78792,726.87986 67.967,0" /><path
       inkscape:connector-curvature="0"
       id="path200"
       style="fill:none;stroke:#000000;stroke-width:0.80000001;stroke-linecap:butt;stroke-linejoin:miter;stroke-miterlimit:4;stroke-dasharray:none;stroke-opacity:1"
       d="m -28.78792,716.39886 21.527,0 0,-30.84 46.44,0" /><text
       transform="scale(1,-1)"
       style="font-style:normal;font-variant:normal;font-weight:normal;font-stretch:normal;font-size:8px;line-height:125%;font-family:Arial;-inkscape-font-specification:Arial;text-align:center;writing-mode:lr-tb;text-anchor:middle;fill:#000000;fill-opacity:1;fill-rule:nonzero;stroke:none;"
       id="text204"
       y="-704.24615"
       x="-112.82069"
       sodipodi:linespacing="125%"><tspan
         sodipodi:role="line"
         id="tspan5110"
         x="-111.54725"
         y="-704.24615">Write </tspan><tspan
         sodipodi:role="line"
         x="-112.82069"
         y="-694.24615"
         id="tspan4510">Register</tspan><tspan
         sodipodi:role="line"
         x="-112.82069"
         y="-684.24615"
         id="tspan5120">Address</tspan></text>
<path
       inkscape:connector-curvature="0"
       id="path214"
       style="fill:none;stroke:#000000;stroke-width:0.80000001;stroke-linecap:butt;stroke-linejoin:miter;stroke-miterlimit:4;stroke-dasharray:none;stroke-opacity:1"
       d="m -29.15092,670.92486 33.823,0 0,-80.1019 34.871,0" /><path
       inkscape:connector-curvature="0"
       id="path216"
       style="fill:none;stroke:#000000;stroke-width:0.80000001;stroke-linecap:butt;stroke-linejoin:miter;stroke-miterlimit:4;stroke-dasharray:none;stroke-opacity:1"
       d="m -28.78792,655.80686 23.664,0 0,-109.6909 44.303,0" /><path
       inkscape:connector-curvature="0"
       id="path218"
       style="fill:#000000;fill-opacity:1;fill-rule:nonzero;stroke:none"
       d="m 22.195425,614.35735 c 0,-0.968 -0.782,-1.7512 -1.75,-1.7512 -0.968,0 -1.75,0.7832 -1.75,1.7512 0,0.966 0.782,1.7488 1.75,1.7488 0.968,0 1.75,-0.7828 1.75,-1.7488" /><path
       inkscape:connector-curvature="0"
       id="path220"
       style="fill:none;stroke:#000000;stroke-width:0.80000001;stroke-linecap:butt;stroke-linejoin:miter;stroke-miterlimit:4;stroke-dasharray:none;stroke-opacity:1"
       d="m 11.72108,525.93976 0,181.2261 84.32,0" /><path
       inkscape:connector-curvature="0"
       id="path222"
       style="fill:#000000;fill-opacity:1;fill-rule:nonzero;stroke:none"
       d="m 97.51708,707.80686 c -1.034,0.312 -1.705,0.6 -2.534,0.932 l 0,-3.153 c 0.297,0.141 1.5,0.621 2.534,0.933 1.106,0.334 2.109,0.562 2.759,0.644 -0.65,0.082 -1.653,0.31 -2.759,0.644" /><path
       inkscape:connector-curvature="0"
       id="path224"
       style="fill:#000000;fill-opacity:1;fill-rule:nonzero;stroke:none"
       d="m 13.38308,660.71186 c 0,-0.968 -0.783,-1.751 -1.75,-1.751 -0.968,0 -1.75,0.783 -1.75,1.751 0,0.966 0.782,1.749 1.75,1.749 0.967,0 1.75,-0.783 1.75,-1.749" /><path
       inkscape:connector-curvature="0"
       id="path226"
       style="fill:none;stroke:#000000;stroke-width:0.80000001;stroke-linecap:butt;stroke-linejoin:miter;stroke-miterlimit:4;stroke-dasharray:none;stroke-opacity:1"
       d="m 11.44608,661.11386 84.564,0" /><path
       inkscape:connector-curvature="0"
       id="path228"
       style="fill:#000000;fill-opacity:1;fill-rule:nonzero;stroke:none"
       d="m 97.48608,661.75386 c -1.034,0.312 -1.705,0.6 -2.534,0.932 l 0,-3.152 c 0.297,0.141 1.5,0.62 2.534,0.932 1.106,0.334 2.108,0.563 2.759,0.644 -0.651,0.082 -1.653,0.31 -2.759,0.644" /><path
       inkscape:connector-curvature="0"
       id="path230"
       style="fill:#000000;fill-opacity:1;fill-rule:nonzero;stroke:none"
       d="m 13.31608,571.14176 c 0,-0.968 -0.782,-1.75 -1.75,-1.75 -0.968,0 -1.75,0.782 -1.75,1.75 0,0.966 0.782,1.75 1.75,1.75 0.968,0 1.75,-0.784 1.75,-1.75" /><path
       inkscape:connector-curvature="0"
       id="path232"
       style="fill:none;stroke:#000000;stroke-width:0.80000001;stroke-linecap:butt;stroke-linejoin:miter;stroke-miterlimit:4;stroke-dasharray:none;stroke-opacity:1"
       d="m 11.38008,571.54406 84.563,0" /><path
       inkscape:connector-curvature="0"
       id="path234"
       style="fill:#000000;fill-opacity:1;fill-rule:nonzero;stroke:none"
       d="m 97.42008,572.18506 c -1.035,0.311 -1.705,0.6 -2.535,0.9317 l 0,-3.1528 c 0.297,0.141 1.5,0.6199 2.535,0.9321 1.105,0.3339 2.108,0.5617 2.758,0.6437 -0.65,0.082 -1.653,0.3109 -2.758,0.6453" /><path
       inkscape:connector-curvature="0"
       id="path236"
       style="fill:none;stroke:#000000;stroke-width:0.80000001;stroke-linecap:butt;stroke-linejoin:miter;stroke-miterlimit:4;stroke-dasharray:none;stroke-opacity:1"
       d="m 11.321218,526.37297 84.730863,0"
       sodipodi:nodetypes="cc" /><path
       inkscape:connector-curvature="0"
       id="path238"
       style="fill:#000000;fill-opacity:1;fill-rule:nonzero;stroke:none"
       d="m 97.52908,527.01396 c -1.034,0.311 -1.705,0.6 -2.534,0.9321 l 0,-3.1532 c 0.297,0.141 1.5,0.6192 2.534,0.9321 1.106,0.3339 2.108,0.5621 2.759,0.6441 -0.651,0.0828 -1.653,0.3109 -2.759,0.6449" /><path
       d="m -92.85195,763.51626 351.7217,0 0,-30.64379"
       style="fill:none;stroke:#000000;stroke-width:0.80000001;stroke-linecap:butt;stroke-linejoin:miter;stroke-miterlimit:4;stroke-dasharray:none;stroke-opacity:1"
       id="path4442"
       inkscape:connector-curvature="0"
       sodipodi:nodetypes="ccc" /><path
       d="m 259.66753,730.79855 c 0.312,1.033 0.599,1.705 0.932,2.533 l -3.153,0 c 0.142,-0.296 0.62,-1.5 0.933,-2.533 0.334,-1.106 0.562,-2.109 0.644,-2.759 0.081,0.65 0.31,1.653 0.644,2.759"
       style="fill:#000000;fill-opacity:1;fill-rule:nonzero;stroke:none"
       id="path4444"
       inkscape:connector-curvature="0" /><text
       id="text4448"
       style="font-style:normal;font-variant:normal;font-weight:normal;font-stretch:normal;font-size:8px;line-height:125%;font-family:Arial;-inkscape-font-specification:Arial;text-align:center;writing-mode:lr-tb;text-anchor:middle;fill:#000000;fill-opacity:1;fill-rule:nonzero;stroke:none;"
       transform="scale(1,-1)"
       x="-113.09927"
       y="-771.1228"
       sodipodi:linespacing="125%"><tspan
         sodipodi:role="line"
         id="tspan5130"
         x="-111.82584"
         y="-771.1228">Read </tspan><tspan
         sodipodi:role="line"
         id="tspan5132"
         x="-113.09927"
         y="-761.1228">Register</tspan><tspan
         sodipodi:role="line"
         id="tspan5134"
         x="-113.09927"
         y="-751.1228">A</tspan></text>
<path
       d="m 209.37753,540.82856 c 0,-0.968 -0.783,-1.751 -1.75,-1.751 -0.968,0 -1.75,0.783 -1.75,1.751 0,0.965 0.782,1.749 1.75,1.749 0.967,0 1.75,-0.784 1.75,-1.749"
       style="fill:#000000;fill-opacity:1;fill-rule:nonzero;stroke:none"
       id="path4512"
       inkscape:connector-curvature="0" /><text
       id="text4516"
       style="font-variant:normal;font-weight:normal;font-size:8px;font-family:Arial;-inkscape-font-specification:Arial;writing-mode:lr-tb;fill:#000000;fill-opacity:1;fill-rule:nonzero;stroke:none;font-style:normal;font-stretch:normal;"
       transform="scale(1,-1)"
       x="260.28952"
       y="-636.00861"><tspan
         id="tspan4518"
         y="-636.00861"
         x="260.28952"
         style="fill:#000000;fill-opacity:1;-inkscape-font-specification:Arial;font-family:Arial;font-weight:normal;font-style:normal;font-stretch:normal;font-variant:normal;" /></text>
<path
       d="m 172.20804,719.21751 71.24848,0"
       style="fill:none;stroke:#000000;stroke-width:0.79999995;stroke-linecap:butt;stroke-linejoin:miter;stroke-miterlimit:4;stroke-dasharray:none;stroke-opacity:1"
       id="path4526"
       inkscape:connector-curvature="0"
       sodipodi:nodetypes="cc" /><path
       d="m 244.93253,719.85855 c -1.034,0.312 -1.705,0.6 -2.534,0.932 l 0,-3.153 c 0.297,0.141 1.5,0.621 2.534,0.933 1.106,0.334 2.109,0.563 2.759,0.644 -0.65,0.082 -1.653,0.31 -2.759,0.644"
       style="fill:#000000;fill-opacity:1;fill-rule:nonzero;stroke:none"
       id="path4528"
       inkscape:connector-curvature="0" /><path
       d="m 172.08362,674.41816 18.80311,0.12853 0.014,26.91589 52.23182,0"
       style="fill:none;stroke:#000000;stroke-width:0.80000001;stroke-linecap:butt;stroke-linejoin:miter;stroke-miterlimit:4;stroke-dasharray:none;stroke-opacity:1"
       id="path4530"
       inkscape:connector-curvature="0"
       sodipodi:nodetypes="cccc" /><path
       d="m 244.60853,702.10255 c -1.034,0.312 -1.705,0.6 -2.534,0.932 l 0,-3.153 c 0.297,0.141 1.5,0.621 2.534,0.933 1.106,0.334 2.109,0.563 2.759,0.644 -0.65,0.082 -1.653,0.31 -2.759,0.644"
       style="fill:#000000;fill-opacity:1;fill-rule:nonzero;stroke:none"
       id="path4532"
       inkscape:connector-curvature="0" /><path
       d="m 172.22554,584.83978 18.86878,0.0155 -0.15878,-27.0199 52.19699,0"
       style="fill:none;stroke:#000000;stroke-width:0.80000001;stroke-linecap:butt;stroke-linejoin:miter;stroke-miterlimit:4;stroke-dasharray:none;stroke-opacity:1"
       id="path4538"
       inkscape:connector-curvature="0"
       sodipodi:nodetypes="cccc" /><path
       d="m 244.60853,558.3921 c -1.034,0.312 -1.705,0.6 -2.534,0.932 l 0,-3.152 c 0.297,0.14 1.5,0.62 2.534,0.932 1.106,0.334 2.109,0.563 2.759,0.644 -0.65,0.082 -1.653,0.31 -2.759,0.644"
       style="fill:#000000;fill-opacity:1;fill-rule:nonzero;stroke:none"
       id="path4540"
       inkscape:connector-curvature="0" /><path
       d="m 171.75502,540.72655 71.37751,0"
       style="fill:none;stroke:#000000;stroke-width:0.80000001;stroke-linecap:butt;stroke-linejoin:miter;stroke-miterlimit:4;stroke-dasharray:none;stroke-opacity:1"
       id="path4542"
       inkscape:connector-curvature="0" /><path
       d="m 244.60853,541.36756 c -1.034,0.312 -1.705,0.599 -2.534,0.932 l 0,-3.153 c 0.297,0.142 1.5,0.62 2.534,0.933 1.106,0.334 2.109,0.562 2.759,0.644 -0.65,0.081 -1.653,0.31 -2.759,0.644"
       style="fill:#000000;fill-opacity:1;fill-rule:nonzero;stroke:none"
       id="path4544"
       inkscape:connector-curvature="0" /><path
       d="m 217.08853,557.83332 c 0,-0.967 -0.783,-1.75 -1.75,-1.75 -0.968,0 -1.75,0.783 -1.75,1.75 0,0.966 0.782,1.75 1.75,1.75 0.967,0 1.75,-0.784 1.75,-1.75"
       style="fill:#000000;fill-opacity:1;fill-rule:nonzero;stroke:none"
       id="path4546"
       inkscape:connector-curvature="0" /><path
       d="m 232.32053,701.44055 c 0,-0.967 -0.782,-1.75 -1.75,-1.75 -0.968,0 -1.75,0.783 -1.75,1.75 0,0.966 0.782,1.75 1.75,1.75 0.968,0 1.75,-0.784 1.75,-1.75"
       style="fill:#000000;fill-opacity:1;fill-rule:nonzero;stroke:none"
       id="path4550"
       inkscape:connector-curvature="0" /><path
       d="m 239.92053,719.26455 c 0,-0.967 -0.783,-1.75 -1.75,-1.75 -0.968,0 -1.75,0.783 -1.75,1.75 0,0.966 0.782,1.75 1.75,1.75 0.967,0 1.75,-0.784 1.75,-1.75"
       style="fill:#000000;fill-opacity:1;fill-rule:nonzero;stroke:none"
       id="path4552"
       inkscape:connector-curvature="0" /><path
       d="m 259.50413,524.03444 c 0.312,-1.033 0.599,-1.705 0.932,-2.534 l -3.153,0 c 0.142,0.296 0.62,1.501 0.933,2.534 0.334,1.106 0.562,2.108 0.644,2.759 0.081,-0.651 0.31,-1.653 0.644,-2.759"
       style="fill:#000000;fill-opacity:1;fill-rule:nonzero;stroke:none"
       id="path4556"
       inkscape:connector-curvature="0" /><path
       d="m 243.41253,607.05456 -5.205,0 0,111.987"
       style="fill:none;stroke:#000000;stroke-width:0.80000001;stroke-linecap:butt;stroke-linejoin:miter;stroke-miterlimit:4;stroke-dasharray:none;stroke-opacity:1"
       id="path4574"
       inkscape:connector-curvature="0"
       sodipodi:nodetypes="ccc" /><path
       d="m 244.88853,607.69556 c -1.034,0.312 -1.705,0.599 -2.534,0.932 l 0,-3.153 c 0.297,0.142 1.5,0.621 2.534,0.934 1.106,0.334 2.109,0.562 2.759,0.643 -0.65,0.081 -1.653,0.31 -2.759,0.644"
       style="fill:#000000;fill-opacity:1;fill-rule:nonzero;stroke:none"
       id="path4576"
       inkscape:connector-curvature="0" /><path
       d="m 243.08853,589.29856 -12.701,0 0,112.106"
       style="fill:none;stroke:#000000;stroke-width:0.80000001;stroke-linecap:butt;stroke-linejoin:miter;stroke-miterlimit:4;stroke-dasharray:none;stroke-opacity:1"
       id="path4578"
       inkscape:connector-curvature="0"
       sodipodi:nodetypes="ccc" /><path
       d="m 244.56453,589.93956 c -1.034,0.3121 -1.705,0.6 -2.534,0.9328 l 0,-3.1539 c 0.297,0.1422 1.5,0.6211 2.534,0.934 1.106,0.334 2.109,0.5621 2.759,0.643 -0.65,0.0812 -1.653,0.3101 -2.759,0.6441"
       style="fill:#000000;fill-opacity:1;fill-rule:nonzero;stroke:none"
       id="path4580"
       inkscape:connector-curvature="0" /><path
       d="m 243.08853,663.69908 -27.707,0 0,-105.84465"
       style="fill:none;stroke:#000000;stroke-width:0.80000001;stroke-linecap:butt;stroke-linejoin:miter;stroke-miterlimit:4;stroke-dasharray:none;stroke-opacity:1"
       id="path4586"
       inkscape:connector-curvature="0"
       sodipodi:nodetypes="ccc" /><path
       d="m 244.56453,663.05145 c -1.034,-0.3109 -1.705,-0.5988 -2.534,-0.9316 l 0,3.1527 c 0.297,-0.141 1.5,-0.6199 2.534,-0.932 1.106,-0.334 2.109,-0.5618 2.759,-0.6438 -0.65,-0.082 -1.653,-0.3113 -2.759,-0.6453"
       style="fill:#000000;fill-opacity:1;fill-rule:nonzero;stroke:none"
       id="path4588"
       inkscape:connector-curvature="0" /><path
       d="m 243.08853,646.85018 -35.446,0 0,-106.00231"
       style="fill:none;stroke:#000000;stroke-width:0.80000001;stroke-linecap:butt;stroke-linejoin:miter;stroke-miterlimit:4;stroke-dasharray:none;stroke-opacity:1"
       id="path4590"
       inkscape:connector-curvature="0"
       sodipodi:nodetypes="ccc" /><path
       d="m 244.56453,647.47575 c -1.034,0.3117 -1.705,0.5988 -2.534,0.9316 l 0,-3.1527 c 0.297,0.141 1.5,0.6188 2.534,0.932 1.106,0.334 2.109,0.5618 2.759,0.6438 -0.65,0.082 -1.653,0.3113 -2.759,0.6453"
       style="fill:#000000;fill-opacity:1;fill-rule:nonzero;stroke:none"
       id="path4592"
       inkscape:connector-curvature="0" /><path
       d="m 270.49753,683.11955 28.633,0"
       style="fill:none;stroke:#000000;stroke-width:0.80000001;stroke-linecap:butt;stroke-linejoin:miter;stroke-miterlimit:4;stroke-dasharray:none;stroke-opacity:1"
       id="path4594"
       inkscape:connector-curvature="0" /><path
       d="m 300.60653,683.76055 c -1.034,0.311 -1.705,0.6 -2.534,0.932 l 0,-3.153 c 0.297,0.141 1.5,0.62 2.534,0.932 1.106,0.334 2.109,0.562 2.759,0.644 -0.65,0.082 -1.653,0.311 -2.759,0.645"
       style="fill:#000000;fill-opacity:1;fill-rule:nonzero;stroke:none"
       id="path4596"
       inkscape:connector-curvature="0" /><text
       id="text4600"
       style="font-style:normal;font-variant:normal;font-weight:normal;font-stretch:normal;font-size:8px;line-height:125%;font-family:Arial;-inkscape-font-specification:Arial;text-align:center;writing-mode:lr-tb;text-anchor:middle;fill:#000000;fill-opacity:1;fill-rule:nonzero;stroke:none;"
       transform="scale(1,-1)"
       x="315.27966"
       y="-690.53552"
       sodipodi:linespacing="125%"><tspan
         sodipodi:role="line"
         id="tspan4520"
         x="315.27966"
         y="-690.53552">Read</tspan><tspan
         sodipodi:role="line"
         id="tspan4522"
         x="315.27966"
         y="-680.53552">Data</tspan><tspan
         sodipodi:role="line"
         id="tspan4524"
         x="315.27966"
         y="-670.53552">A</tspan></text>
<path
       d="m 270.43953,571.03056 28.633,0"
       style="fill:none;stroke:#000000;stroke-width:0.80000001;stroke-linecap:butt;stroke-linejoin:miter;stroke-miterlimit:4;stroke-dasharray:none;stroke-opacity:1"
       id="path4604"
       inkscape:connector-curvature="0" /><path
       d="m 300.54953,571.67046 c -1.035,0.3121 -1.705,0.6 -2.535,0.932 l 0,-3.1519 c 0.297,0.1402 1.5,0.6199 2.535,0.9312 1.105,0.334 2.108,0.5629 2.758,0.6449 -0.65,0.0821 -1.653,0.3098 -2.758,0.6438"
       style="fill:#000000;fill-opacity:1;fill-rule:nonzero;stroke:none"
       id="path4606"
       inkscape:connector-curvature="0" /><path
       d="m 270.20853,538.64156 c 0,-6.627 -3.358,-12 -9.985,-12 l -3,0 c -6.627,0 -9.984,5.373 -9.984,12 l 0,65.321 c 0,6.627 3.357,12 9.984,12 l 3,0 c 6.627,0 9.985,-5.373 9.985,-12 l 0,-65.321 z"
       style="fill:none;stroke:#231f20;stroke-width:1;stroke-linecap:butt;stroke-linejoin:miter;stroke-miterlimit:4;stroke-dasharray:none;stroke-opacity:1"
       id="path4572"
       inkscape:connector-curvature="0" /><text
       xml:space="preserve"
       style="font-style:normal;font-weight:normal;font-size:32px;line-height:125%;font-family:Arial;text-align:center;letter-spacing:0px;word-spacing:0px;text-anchor:middle;fill:#000000;fill-opacity:1;stroke:none;stroke-width:1px;stroke-linecap:butt;stroke-linejoin:miter;stroke-opacity:1;-inkscape-font-specification:Arial;font-stretch:normal;font-variant:normal;"
       x="258.73282"
       y="-581.92804"
       id="text5069"
       sodipodi:linespacing="125%"
       transform="scale(1,-1)"><tspan
         sodipodi:role="line"
         id="tspan5071"
         x="258.73282"
         y="-581.92804"
         style="font-style:normal;font-variant:normal;font-weight:normal;font-stretch:normal;font-size:12px;font-family:Arial;-inkscape-font-specification:Arial;text-align:center;text-anchor:middle;">M</tspan><tspan
         sodipodi:role="line"
         x="258.73282"
         y="-566.92804"
         style="font-style:normal;font-variant:normal;font-weight:normal;font-stretch:normal;font-size:12px;font-family:Arial;-inkscape-font-specification:Arial;text-align:center;text-anchor:middle;"
         id="tspan5073">U</tspan><tspan
         sodipodi:role="line"
         x="258.73282"
         y="-551.92804"
         style="font-style:normal;font-variant:normal;font-weight:normal;font-stretch:normal;font-size:12px;font-family:Arial;-inkscape-font-specification:Arial;text-align:center;text-anchor:middle;"
         id="tspan5075">X</tspan></text>
<path
       d="m 270.25253,650.80355 c 0,-6.627 -3.358,-12 -9.985,-12 l -3,0 c -6.627,0 -9.984,5.373 -9.984,12 l 0,65.322 c 0,6.628 3.357,12 9.984,12 l 3,0 c 6.627,0 9.985,-5.372 9.985,-12 l 0,-65.322 z"
       style="fill:none;stroke:#231f20;stroke-width:1;stroke-linecap:butt;stroke-linejoin:miter;stroke-miterlimit:4;stroke-dasharray:none;stroke-opacity:1"
       id="path4524"
       inkscape:connector-curvature="0" /><text
       transform="scale(1,-1)"
       sodipodi:linespacing="125%"
       id="text5077"
       y="-694.09052"
       x="258.77682"
       style="font-style:normal;font-weight:normal;font-size:32px;line-height:125%;font-family:Arial;text-align:center;letter-spacing:0px;word-spacing:0px;text-anchor:middle;fill:#000000;fill-opacity:1;stroke:none;stroke-width:1px;stroke-linecap:butt;stroke-linejoin:miter;stroke-opacity:1;-inkscape-font-specification:Arial;font-stretch:normal;font-variant:normal;"
       xml:space="preserve"><tspan
         style="font-style:normal;font-variant:normal;font-weight:normal;font-stretch:normal;font-size:12px;font-family:Arial;-inkscape-font-specification:Arial;text-align:center;text-anchor:middle;"
         y="-694.09052"
         x="258.77682"
         id="tspan5079"
         sodipodi:role="line">M</tspan><tspan
         id="tspan5081"
         style="font-style:normal;font-variant:normal;font-weight:normal;font-stretch:normal;font-size:12px;font-family:Arial;-inkscape-font-specification:Arial;text-align:center;text-anchor:middle;"
         y="-679.09052"
         x="258.77682"
         sodipodi:role="line">U</tspan><tspan
         id="tspan5083"
         style="font-style:normal;font-variant:normal;font-weight:normal;font-stretch:normal;font-size:12px;font-family:Arial;-inkscape-font-specification:Arial;text-align:center;text-anchor:middle;"
         y="-664.09052"
         x="258.77682"
         sodipodi:role="line">X</tspan></text>
<g
       id="g5089"><path
         inkscape:connector-curvature="0"
         id="path4548"
         style="fill:#000000;fill-opacity:1;fill-rule:nonzero;stroke:none"
         d="m 223.73453,683.48805 c 0,-0.4835 -0.391,-0.8755 -0.875,-0.8755 -0.484,0 -0.875,0.392 -0.875,0.8755 0,0.4825 0.391,0.8745 0.875,0.8745 0.484,0 0.875,-0.392 0.875,-0.8745" /><path
         d="m 223.73453,688.28805 c 0,-0.4835 -0.391,-0.8755 -0.875,-0.8755 -0.484,0 -0.875,0.392 -0.875,0.8755 0,0.4825 0.391,0.8745 0.875,0.8745 0.484,0 0.875,-0.392 0.875,-0.8745"
         style="fill:#000000;fill-opacity:1;fill-rule:nonzero;stroke:none"
         id="path5085"
         inkscape:connector-curvature="0" /><path
         d="m 223.73453,678.68805 c 0,-0.4835 -0.391,-0.8755 -0.875,-0.8755 -0.484,0 -0.875,0.392 -0.875,0.8755 0,0.4825 0.391,0.8745 0.875,0.8745 0.484,0 0.875,-0.392 0.875,-0.8745"
         style="fill:#000000;fill-opacity:1;fill-rule:nonzero;stroke:none"
         id="path5087"
         inkscape:connector-curvature="0" /></g><g
       id="g5094"
       transform="translate(-86.350828,-52.080843)"><path
         d="m 223.73453,683.48805 c 0,-0.4835 -0.391,-0.8755 -0.875,-0.8755 -0.484,0 -0.875,0.392 -0.875,0.8755 0,0.4825 0.391,0.8745 0.875,0.8745 0.484,0 0.875,-0.392 0.875,-0.8745"
         style="fill:#000000;fill-opacity:1;fill-rule:nonzero;stroke:none"
         id="path5096"
         inkscape:connector-curvature="0" /><path
         inkscape:connector-curvature="0"
         id="path5098"
         style="fill:#000000;fill-opacity:1;fill-rule:nonzero;stroke:none"
         d="m 223.73453,688.28805 c 0,-0.4835 -0.391,-0.8755 -0.875,-0.8755 -0.484,0 -0.875,0.392 -0.875,0.8755 0,0.4825 0.391,0.8745 0.875,0.8745 0.484,0 0.875,-0.392 0.875,-0.8745" /><path
         inkscape:connector-curvature="0"
         id="path5100"
         style="fill:#000000;fill-opacity:1;fill-rule:nonzero;stroke:none"
         d="m 223.73453,678.68805 c 0,-0.4835 -0.391,-0.8755 -0.875,-0.8755 -0.484,0 -0.875,0.392 -0.875,0.8755 0,0.4825 0.391,0.8745 0.875,0.8745 0.484,0 0.875,-0.392 0.875,-0.8745" /></g><g
       id="g5102"
       transform="translate(12.8,-110.4)"><path
         d="m 223.73453,683.48805 c 0,-0.4835 -0.391,-0.8755 -0.875,-0.8755 -0.484,0 -0.875,0.392 -0.875,0.8755 0,0.4825 0.391,0.8745 0.875,0.8745 0.484,0 0.875,-0.392 0.875,-0.8745"
         style="fill:#000000;fill-opacity:1;fill-rule:nonzero;stroke:none"
         id="path5104"
         inkscape:connector-curvature="0" /><path
         inkscape:connector-curvature="0"
         id="path5106"
         style="fill:#000000;fill-opacity:1;fill-rule:nonzero;stroke:none"
         d="m 223.73453,688.28805 c 0,-0.4835 -0.391,-0.8755 -0.875,-0.8755 -0.484,0 -0.875,0.392 -0.875,0.8755 0,0.4825 0.391,0.8745 0.875,0.8745 0.484,0 0.875,-0.392 0.875,-0.8745" /><path
         inkscape:connector-curvature="0"
         id="path5108"
         style="fill:#000000;fill-opacity:1;fill-rule:nonzero;stroke:none"
         d="m 223.73453,678.68805 c 0,-0.4835 -0.391,-0.8755 -0.875,-0.8755 -0.484,0 -0.875,0.392 -0.875,0.8755 0,0.4825 0.391,0.8745 0.875,0.8745 0.484,0 0.875,-0.392 0.875,-0.8745" /></g><g
       id="g5112"
       transform="translate(-244.8,9.6)"><path
         d="m 223.73453,683.48805 c 0,-0.4835 -0.391,-0.8755 -0.875,-0.8755 -0.484,0 -0.875,0.392 -0.875,0.8755 0,0.4825 0.391,0.8745 0.875,0.8745 0.484,0 0.875,-0.392 0.875,-0.8745"
         style="fill:#000000;fill-opacity:1;fill-rule:nonzero;stroke:none"
         id="path5114"
         inkscape:connector-curvature="0" /><path
         inkscape:connector-curvature="0"
         id="path5116"
         style="fill:#000000;fill-opacity:1;fill-rule:nonzero;stroke:none"
         d="m 223.73453,688.28805 c 0,-0.4835 -0.391,-0.8755 -0.875,-0.8755 -0.484,0 -0.875,0.392 -0.875,0.8755 0,0.4825 0.391,0.8745 0.875,0.8745 0.484,0 0.875,-0.392 0.875,-0.8745" /><path
         inkscape:connector-curvature="0"
         id="path5118"
         style="fill:#000000;fill-opacity:1;fill-rule:nonzero;stroke:none"
         d="m 223.73453,678.68805 c 0,-0.4835 -0.391,-0.8755 -0.875,-0.8755 -0.484,0 -0.875,0.392 -0.875,0.8755 0,0.4825 0.391,0.8745 0.875,0.8745 0.484,0 0.875,-0.392 0.875,-0.8745" /></g><text
       sodipodi:linespacing="125%"
       x="-113.19039"
       y="-578.46692"
       id="text5122"
       style="font-style:normal;font-variant:normal;font-weight:normal;font-stretch:normal;font-size:8px;line-height:125%;font-family:Arial;-inkscape-font-specification:Arial;text-align:center;writing-mode:lr-tb;text-anchor:middle;fill:#000000;fill-opacity:1;fill-rule:nonzero;stroke:none;"
       transform="scale(1,-1)"><tspan
         y="-578.46692"
         x="-113.19039"
         id="tspan5124"
         sodipodi:role="line">Write</tspan><tspan
         y="-568.46692"
         x="-113.19039"
         sodipodi:role="line"
         id="tspan4508">Register</tspan><tspan
         id="tspan5126"
         y="-558.46692"
         x="-113.19039"
         sodipodi:role="line">Data</tspan></text>
<path
       sodipodi:nodetypes="ccc"
       inkscape:connector-curvature="0"
       id="path5136"
       style="fill:none;stroke:#000000;stroke-width:0.80000001;stroke-linecap:butt;stroke-linejoin:miter;stroke-miterlimit:4;stroke-dasharray:none;stroke-opacity:1"
       d="m -92.85195,499.57162 351.7217,0 0,27.74787" /><text
       sodipodi:linespacing="125%"
       y="-506.91992"
       x="-113.09927"
       transform="scale(1,-1)"
       style="font-style:normal;font-variant:normal;font-weight:normal;font-stretch:normal;font-size:8px;line-height:125%;font-family:Arial;-inkscape-font-specification:Arial;text-align:center;writing-mode:lr-tb;text-anchor:middle;fill:#000000;fill-opacity:1;fill-rule:nonzero;stroke:none;"
       id="text5138"><tspan
         y="-506.91992"
         x="-111.82584"
         id="tspan5140"
         sodipodi:role="line">Read </tspan><tspan
         y="-496.91992"
         x="-113.09927"
         id="tspan5142"
         sodipodi:role="line">Register</tspan><tspan
         y="-486.91992"
         x="-113.09927"
         id="tspan5144"
         sodipodi:role="line">B</tspan></text>
<path
       d="m -93.360824,571.4116 104.612904,0"
       style="fill:none;stroke:#000000;stroke-width:0.80000001;stroke-linecap:butt;stroke-linejoin:miter;stroke-miterlimit:4;stroke-dasharray:none;stroke-opacity:1"
       id="path4518"
       inkscape:connector-curvature="0" /><text
       sodipodi:linespacing="125%"
       y="-578.53723"
       x="315.27966"
       transform="scale(1,-1)"
       style="font-style:normal;font-variant:normal;font-weight:normal;font-stretch:normal;font-size:8px;line-height:125%;font-family:Arial;-inkscape-font-specification:Arial;text-align:center;writing-mode:lr-tb;text-anchor:middle;fill:#000000;fill-opacity:1;fill-rule:nonzero;stroke:none;"
       id="text4526"><tspan
         y="-578.53723"
         x="315.27966"
         id="tspan4528"
         sodipodi:role="line">Read</tspan><tspan
         y="-568.53723"
         x="315.27966"
         id="tspan4530"
         sodipodi:role="line">Data</tspan><tspan
         y="-558.53723"
         x="315.27966"
         id="tspan4532"
         sodipodi:role="line">B</tspan></text>
<text
       sodipodi:linespacing="125%"
       y="-538.5658"
       x="109.54341"
       id="text4538"
       style="font-style:normal;font-variant:normal;font-weight:normal;font-stretch:normal;font-size:8px;line-height:125%;font-family:Arial;-inkscape-font-specification:Arial;text-align:start;writing-mode:lr-tb;text-anchor:start;fill:#000000;fill-opacity:1;fill-rule:nonzero;stroke:none;"
       transform="scale(1,-1)"><tspan
         sodipodi:role="line"
         id="tspan4544"
         x="109.54341"
         y="-538.5658">Register <tspan
   style="font-style:normal;font-variant:normal;font-weight:normal;font-stretch:normal;font-family:Arial;-inkscape-font-specification:Arial;"
   id="tspan4546">n - 1</tspan></tspan></text>
<text
       sodipodi:linespacing="110%"
       y="-684.85986"
       x="101.90609"
       id="text4574"
       style="font-style:normal;font-variant:normal;font-weight:normal;font-stretch:normal;font-size:8px;line-height:110.00000238%;font-family:Arial;-inkscape-font-specification:Arial;text-align:start;writing-mode:lr-tb;text-anchor:start;fill:#000000;fill-opacity:1;fill-rule:nonzero;stroke:none;"
       transform="scale(1,-1)"><tspan
         id="tspan4576"
         sodipodi:role="line"
         x="101.90609"
         y="-684.85986">C </tspan><tspan
         id="tspan4578"
         sodipodi:role="line"
         x="101.90609"
         y="-676.05988" /><tspan
         id="tspan4580"
         sodipodi:role="line"
         x="101.90609"
         y="-667.25989" /><tspan
         id="tspan4582"
         sodipodi:role="line"
         x="101.90609"
         y="-658.45984">D</tspan></text>
<text
       transform="scale(1,-1)"
       style="font-style:normal;font-variant:normal;font-weight:normal;font-stretch:normal;font-size:8px;line-height:110.00000238%;font-family:Arial;-inkscape-font-specification:Arial;text-align:start;writing-mode:lr-tb;text-anchor:start;fill:#000000;fill-opacity:1;fill-rule:nonzero;stroke:none;"
       id="text4584"
       x="101.90609"
       y="-595.26123"
       sodipodi:linespacing="110%"><tspan
         y="-595.26123"
         x="101.90609"
         sodipodi:role="line"
         id="tspan4586">C </tspan><tspan
         y="-586.46124"
         x="101.90609"
         sodipodi:role="line"
         id="tspan4588" /><tspan
         y="-577.66125"
         x="101.90609"
         sodipodi:role="line"
         id="tspan4590" /><tspan
         y="-568.86121"
         x="101.90609"
         sodipodi:role="line"
         id="tspan4592">D</tspan></text>
<text
       sodipodi:linespacing="110%"
       y="-550.46191"
       x="101.90609"
       id="text4594"
       style="font-style:normal;font-variant:normal;font-weight:normal;font-stretch:normal;font-size:8px;line-height:110.00000238%;font-family:Arial;-inkscape-font-specification:Arial;text-align:start;writing-mode:lr-tb;text-anchor:start;fill:#000000;fill-opacity:1;fill-rule:nonzero;stroke:none;"
       transform="scale(1,-1)"><tspan
         id="tspan4596"
         sodipodi:role="line"
         x="101.90609"
         y="-550.46191">C </tspan><tspan
         id="tspan4598"
         sodipodi:role="line"
         x="101.90609"
         y="-541.66193" /><tspan
         id="tspan4600"
         sodipodi:role="line"
         x="101.90609"
         y="-532.86194" /><tspan
         id="tspan4602"
         sodipodi:role="line"
         x="101.90609"
         y="-524.06189">D</tspan></text>
<text
       sodipodi:linespacing="125%"
       y="-653.71075"
       x="-49.356014"
       id="text4606"
       style="font-style:normal;font-variant:normal;font-weight:normal;font-stretch:normal;font-size:8px;line-height:125%;font-family:Arial;-inkscape-font-specification:Arial;text-align:start;writing-mode:lr-tb;text-anchor:start;fill:#000000;fill-opacity:1;fill-rule:nonzero;stroke:none;"
       transform="scale(1,-1)"><tspan
         y="-653.71075"
         x="-49.356014"
         id="tspan4608"
         sodipodi:role="line">n – 1</tspan></text>
<text
       y="-723.90277"
       x="-36.283924"
       id="text4610"
       style="font-style:normal;font-variant:normal;font-weight:normal;font-stretch:normal;font-size:8px;font-family:Arial;-inkscape-font-specification:Arial;writing-mode:lr-tb;fill:#000000;fill-opacity:1;fill-rule:nonzero;stroke:none;"
       transform="scale(1,-1)"><tspan
         style="font-style:normal;font-variant:normal;font-weight:normal;font-stretch:normal;font-family:Arial;-inkscape-font-specification:Arial;fill:#000000;fill-opacity:1;"
         id="tspan4612"
         y="-723.90277"
         x="-36.283924">0</tspan></text>
<path
       inkscape:connector-curvature="0"
       id="path4306"
       style="fill:none;stroke:#000000;stroke-width:0.80000001;stroke-linecap:butt;stroke-linejoin:miter;stroke-miterlimit:4;stroke-dasharray:none;stroke-opacity:1"
       d="m -92.841413,614.61166 114.171434,0" /></g></svg>