<?xml version="1.0" encoding="UTF-8" standalone="no"?>
<!-- Created with Inkscape (http://www.inkscape.org/) -->

<svg
   xmlns:dc="http://purl.org/dc/elements/1.1/"
   xmlns:cc="http://creativecommons.org/ns#"
   xmlns:rdf="http://www.w3.org/1999/02/22-rdf-syntax-ns#"
   xmlns:svg="http://www.w3.org/2000/svg"
   xmlns="http://www.w3.org/2000/svg"
   xmlns:sodipodi="http://sodipodi.sourceforge.net/DTD/sodipodi-0.dtd"
   xmlns:inkscape="http://www.inkscape.org/namespaces/inkscape"
   id="svg2"
   version="1.1"
   inkscape:version="0.91 r13725"
   xml:space="preserve"
   width="335.72501"
   height="350.095"
   viewBox="0 0 335.725 350.095"
   sodipodi:docname="controladorMIPS_SingleCycleHardWired-Prova-A.svg"><metadata
     id="metadata8"><rdf:RDF><cc:Work
         rdf:about=""><dc:format>image/svg+xml</dc:format><dc:type
           rdf:resource="http://purl.org/dc/dcmitype/StillImage" /><dc:title></dc:title></cc:Work></rdf:RDF></metadata><defs
     id="defs6" /><sodipodi:namedview
     pagecolor="#ffffff"
     bordercolor="#666666"
     borderopacity="1"
     objecttolerance="10"
     gridtolerance="10"
     guidetolerance="10"
     inkscape:pageopacity="0"
     inkscape:pageshadow="2"
     inkscape:window-width="1920"
     inkscape:window-height="1031"
     id="namedview4"
     showgrid="false"
     inkscape:zoom="2.3793542"
     inkscape:cx="167.8625"
     inkscape:cy="175.0475"
     inkscape:window-x="1920"
     inkscape:window-y="30"
     inkscape:window-maximized="1"
     inkscape:current-layer="g10"
     fit-margin-left="10"
     fit-margin-bottom="10"
     fit-margin-top="10"
     fit-margin-right="10" /><g
     id="g10"
     inkscape:groupmode="layer"
     inkscape:label="ink_ext_XXXXXX"
     transform="matrix(1.25,0,0,-1.25,9.3700125,340.165)"><path
       inkscape:connector-curvature="0"
       id="path14"
       style="fill:none;stroke:#000000;stroke-width:1;stroke-linecap:butt;stroke-linejoin:miter;stroke-miterlimit:4;stroke-dasharray:none;stroke-opacity:1"
       d="m 163.834,169.54354 c 0.966,0 1.749,0.784 1.749,1.75 0,0.967 -0.783,1.75 -1.749,1.75 -0.967,0 -1.751,-0.783 -1.751,-1.75 0,-0.966 0.784,-1.75 1.751,-1.75 z" /><path
       inkscape:connector-curvature="0"
       id="path16"
       style="fill:none;stroke:#000000;stroke-width:1;stroke-linecap:butt;stroke-linejoin:miter;stroke-miterlimit:4;stroke-dasharray:none;stroke-opacity:1"
       d="m 158.666,169.54354 c 0.967,0 1.751,0.784 1.751,1.75 0,0.967 -0.784,1.75 -1.751,1.75 -0.966,0 -1.749,-0.783 -1.749,-1.75 0,-0.966 0.783,-1.75 1.749,-1.75 z" /><path
       inkscape:connector-curvature="0"
       id="path18"
       style="fill:none;stroke:#000000;stroke-width:1;stroke-linecap:butt;stroke-linejoin:miter;stroke-miterlimit:4;stroke-dasharray:none;stroke-opacity:1"
       d="m 149.584,169.54354 c 0.966,0 1.749,0.784 1.749,1.75 0,0.967 -0.783,1.75 -1.749,1.75 -0.967,0 -1.751,-0.783 -1.751,-1.75 0,-0.966 0.784,-1.75 1.751,-1.75 z" /><path
       inkscape:connector-curvature="0"
       id="path20"
       style="fill:none;stroke:#000000;stroke-width:1;stroke-linecap:butt;stroke-linejoin:miter;stroke-miterlimit:4;stroke-dasharray:none;stroke-opacity:1"
       d="m 144.5,169.54354 c 0.966,0 1.75,0.784 1.75,1.75 0,0.967 -0.784,1.75 -1.75,1.75 -0.966,0 -1.75,-0.783 -1.75,-1.75 0,-0.966 0.784,-1.75 1.75,-1.75 z" /><path
       inkscape:connector-curvature="0"
       id="path22"
       style="fill:none;stroke:#000000;stroke-width:1;stroke-linecap:butt;stroke-linejoin:miter;stroke-miterlimit:4;stroke-dasharray:none;stroke-opacity:1"
       d="m 139.334,169.54354 c 0.966,0 1.749,0.784 1.749,1.75 0,0.967 -0.783,1.75 -1.749,1.75 -0.967,0 -1.751,-0.783 -1.751,-1.75 0,-0.966 0.784,-1.75 1.751,-1.75 z" /><path
       inkscape:connector-curvature="0"
       id="path24"
       style="fill:none;stroke:#000000;stroke-width:1;stroke-linecap:butt;stroke-linejoin:miter;stroke-miterlimit:4;stroke-dasharray:none;stroke-opacity:1"
       d="m 139.166,173.04354 0,67.667" /><path
       inkscape:connector-curvature="0"
       id="path26"
       style="fill:none;stroke:#000000;stroke-width:1;stroke-linecap:butt;stroke-linejoin:miter;stroke-miterlimit:4;stroke-dasharray:none;stroke-opacity:1"
       d="m 144.5,173.29754 0,56.08" /><path
       inkscape:connector-curvature="0"
       id="path28"
       style="fill:none;stroke:#000000;stroke-width:1;stroke-linecap:butt;stroke-linejoin:miter;stroke-miterlimit:4;stroke-dasharray:none;stroke-opacity:1"
       d="m 149.584,173.29754 0,44.08" /><path
       inkscape:connector-curvature="0"
       id="path30"
       style="fill:none;stroke:#000000;stroke-width:1;stroke-linecap:butt;stroke-linejoin:miter;stroke-miterlimit:4;stroke-dasharray:none;stroke-opacity:1"
       d="m 153.834,168.37754 0,36.334" /><path
       inkscape:connector-curvature="0"
       id="path32"
       style="fill:none;stroke:#000000;stroke-width:1;stroke-linecap:butt;stroke-linejoin:miter;stroke-miterlimit:4;stroke-dasharray:none;stroke-opacity:1"
       d="m 158.666,173.29754 0,19.914" /><path
       inkscape:connector-curvature="0"
       id="path34"
       style="fill:none;stroke:#000000;stroke-width:1;stroke-linecap:butt;stroke-linejoin:miter;stroke-miterlimit:4;stroke-dasharray:none;stroke-opacity:1"
       d="m 163.834,173.29754 0,7.58" /><path
       inkscape:connector-curvature="0"
       id="path36"
       style="fill:#000000;fill-opacity:1;fill-rule:nonzero;stroke:none"
       d="m 163.835,179.12754 c 0.965,0 1.748,0.784 1.748,1.75 0,0.966 -0.783,1.75 -1.748,1.75 -0.968,0 -1.752,-0.784 -1.752,-1.75 0,-0.966 0.784,-1.75 1.752,-1.75" /><path
       inkscape:connector-curvature="0"
       id="path38"
       style="fill:#000000;fill-opacity:1;fill-rule:nonzero;stroke:none"
       d="m 158.75,191.00254 c 0.966,0 1.75,0.784 1.75,1.75 0,0.966 -0.784,1.75 -1.75,1.75 -0.966,0 -1.75,-0.784 -1.75,-1.75 0,-0.966 0.784,-1.75 1.75,-1.75" /><path
       inkscape:connector-curvature="0"
       id="path40"
       style="fill:#000000;fill-opacity:1;fill-rule:nonzero;stroke:none"
       d="m 153.834,203.29454 c 0.966,0 1.749,0.783 1.749,1.749 0,0.967 -0.783,1.751 -1.749,1.751 -0.967,0 -1.751,-0.784 -1.751,-1.751 0,-0.966 0.784,-1.749 1.751,-1.749" /><path
       inkscape:connector-curvature="0"
       id="path42"
       style="fill:#000000;fill-opacity:1;fill-rule:nonzero;stroke:none"
       d="m 149.585,215.62754 c 0.965,0 1.748,0.784 1.748,1.75 0,0.966 -0.783,1.75 -1.748,1.75 -0.968,0 -1.752,-0.784 -1.752,-1.75 0,-0.966 0.784,-1.75 1.752,-1.75" /><path
       inkscape:connector-curvature="0"
       id="path44"
       style="fill:#000000;fill-opacity:1;fill-rule:nonzero;stroke:none"
       d="m 144.5,228.06554 c 0.966,0 1.75,0.782 1.75,1.75 0,0.966 -0.784,1.75 -1.75,1.75 -0.966,0 -1.75,-0.784 -1.75,-1.75 0,-0.968 0.784,-1.75 1.75,-1.75" /><path
       inkscape:connector-curvature="0"
       id="path46"
       style="fill:#000000;fill-opacity:1;fill-rule:nonzero;stroke:none"
       d="m 139.165,240.13954 c 0.968,0 1.752,0.783 1.752,1.75 0,0.967 -0.784,1.75 -1.752,1.75 -0.965,0 -1.748,-0.783 -1.748,-1.75 0,-0.967 0.783,-1.75 1.748,-1.75" /><path
       inkscape:connector-curvature="0"
       id="path48"
       style="fill:none;stroke:#000000;stroke-width:1;stroke-linecap:butt;stroke-linejoin:miter;stroke-miterlimit:4;stroke-dasharray:none;stroke-opacity:1"
       d="m 118.291,169.54354 c 0.967,0 1.751,0.784 1.751,1.75 0,0.967 -0.784,1.75 -1.751,1.75 -0.966,0 -1.749,-0.783 -1.749,-1.75 0,-0.966 0.783,-1.75 1.749,-1.75 z" /><path
       inkscape:connector-curvature="0"
       id="path50"
       style="fill:none;stroke:#000000;stroke-width:1;stroke-linecap:butt;stroke-linejoin:miter;stroke-miterlimit:4;stroke-dasharray:none;stroke-opacity:1"
       d="m 108.834,169.54354 c 0.966,0 1.749,0.784 1.749,1.75 0,0.967 -0.783,1.75 -1.749,1.75 -0.967,0 -1.751,-0.783 -1.751,-1.75 0,-0.966 0.784,-1.75 1.751,-1.75 z" /><path
       inkscape:connector-curvature="0"
       id="path52"
       style="fill:none;stroke:#000000;stroke-width:1;stroke-linecap:butt;stroke-linejoin:miter;stroke-miterlimit:4;stroke-dasharray:none;stroke-opacity:1"
       d="m 103.5,168.75254 0,71.958" /><path
       inkscape:connector-curvature="0"
       id="path54"
       style="fill:none;stroke:#000000;stroke-width:1;stroke-linecap:butt;stroke-linejoin:miter;stroke-miterlimit:4;stroke-dasharray:none;stroke-opacity:1"
       d="m 108.834,173.29754 0,56.08" /><path
       inkscape:connector-curvature="0"
       id="path56"
       style="fill:none;stroke:#000000;stroke-width:1;stroke-linecap:butt;stroke-linejoin:miter;stroke-miterlimit:4;stroke-dasharray:none;stroke-opacity:1"
       d="m 113.916,168.62754 0,48.75" /><path
       inkscape:connector-curvature="0"
       id="path58"
       style="fill:none;stroke:#000000;stroke-width:1;stroke-linecap:butt;stroke-linejoin:miter;stroke-miterlimit:4;stroke-dasharray:none;stroke-opacity:1"
       d="m 118.166,173.24954 0,31.462" /><path
       inkscape:connector-curvature="0"
       id="path60"
       style="fill:none;stroke:#000000;stroke-width:1;stroke-linecap:butt;stroke-linejoin:miter;stroke-miterlimit:4;stroke-dasharray:none;stroke-opacity:1"
       d="m 123,168.87754 0,24.334" /><path
       inkscape:connector-curvature="0"
       id="path62"
       style="fill:none;stroke:#000000;stroke-width:1;stroke-linecap:butt;stroke-linejoin:miter;stroke-miterlimit:4;stroke-dasharray:none;stroke-opacity:1"
       d="m 128.166,168.75254 0,12.125" /><path
       inkscape:connector-curvature="0"
       id="path64"
       style="fill:#000000;fill-opacity:1;fill-rule:nonzero;stroke:none"
       d="m 128.291,179.12754 c 0.967,0 1.751,0.784 1.751,1.75 0,0.966 -0.784,1.75 -1.751,1.75 -0.966,0 -1.749,-0.784 -1.749,-1.75 0,-0.966 0.783,-1.75 1.749,-1.75" /><path
       inkscape:connector-curvature="0"
       id="path66"
       style="fill:#000000;fill-opacity:1;fill-rule:nonzero;stroke:none"
       d="m 123.084,191.00254 c 0.966,0 1.749,0.784 1.749,1.75 0,0.966 -0.783,1.75 -1.749,1.75 -0.967,0 -1.751,-0.784 -1.751,-1.75 0,-0.966 0.784,-1.75 1.751,-1.75" /><path
       inkscape:connector-curvature="0"
       id="path68"
       style="fill:#000000;fill-opacity:1;fill-rule:nonzero;stroke:none"
       d="m 118.166,203.29454 c 0.967,0 1.751,0.783 1.751,1.749 0,0.967 -0.784,1.751 -1.751,1.751 -0.966,0 -1.749,-0.784 -1.749,-1.751 0,-0.966 0.783,-1.749 1.749,-1.749" /><path
       inkscape:connector-curvature="0"
       id="path70"
       style="fill:#000000;fill-opacity:1;fill-rule:nonzero;stroke:none"
       d="m 113.916,215.62754 c 0.967,0 1.751,0.784 1.751,1.75 0,0.966 -0.784,1.75 -1.751,1.75 -0.966,0 -1.749,-0.784 -1.749,-1.75 0,-0.966 0.783,-1.75 1.749,-1.75" /><path
       inkscape:connector-curvature="0"
       id="path72"
       style="fill:#000000;fill-opacity:1;fill-rule:nonzero;stroke:none"
       d="m 108.916,228.12754 c 0.967,0 1.751,0.782 1.751,1.75 0,0.967 -0.784,1.75 -1.751,1.75 -0.966,0 -1.749,-0.783 -1.749,-1.75 0,-0.968 0.783,-1.75 1.749,-1.75" /><path
       inkscape:connector-curvature="0"
       id="path74"
       style="fill:#000000;fill-opacity:1;fill-rule:nonzero;stroke:none"
       d="m 103.514,240.13954 c 0.967,0 1.75,0.783 1.75,1.75 0,0.967 -0.783,1.75 -1.75,1.75 -0.967,0 -1.75,-0.783 -1.75,-1.75 0,-0.967 0.783,-1.75 1.75,-1.75" /><path
       inkscape:connector-curvature="0"
       id="path76"
       style="fill:none;stroke:#000000;stroke-width:1;stroke-linecap:butt;stroke-linejoin:miter;stroke-miterlimit:4;stroke-dasharray:none;stroke-opacity:1"
       d="m 82.7914,169.54354 c 0.9668,0 1.7508,0.784 1.7508,1.75 0,0.967 -0.784,1.75 -1.7508,1.75 -0.966,0 -1.7492,-0.783 -1.7492,-1.75 0,-0.966 0.7832,-1.75 1.7492,-1.75 z" /><path
       inkscape:connector-curvature="0"
       id="path78"
       style="fill:none;stroke:#000000;stroke-width:1;stroke-linecap:butt;stroke-linejoin:miter;stroke-miterlimit:4;stroke-dasharray:none;stroke-opacity:1"
       d="m 77.9164,169.54354 c 0.9668,0 1.7508,0.784 1.7508,1.75 0,0.967 -0.784,1.75 -1.7508,1.75 -0.966,0 -1.7492,-0.783 -1.7492,-1.75 0,-0.966 0.7832,-1.75 1.7492,-1.75 z" /><path
       inkscape:connector-curvature="0"
       id="path80"
       style="fill:none;stroke:#000000;stroke-width:1;stroke-linecap:butt;stroke-linejoin:miter;stroke-miterlimit:4;stroke-dasharray:none;stroke-opacity:1"
       d="m 72.8336,169.54354 c 0.966,0 1.7492,0.784 1.7492,1.75 0,0.967 -0.7832,1.75 -1.7492,1.75 -0.9668,0 -1.7508,-0.783 -1.7508,-1.75 0,-0.966 0.784,-1.75 1.7508,-1.75 z" /><path
       inkscape:connector-curvature="0"
       id="path82"
       style="fill:none;stroke:#000000;stroke-width:1;stroke-linecap:butt;stroke-linejoin:miter;stroke-miterlimit:4;stroke-dasharray:none;stroke-opacity:1"
       d="m 67.5,168.62754 0,72.083" /><path
       inkscape:connector-curvature="0"
       id="path84"
       style="fill:none;stroke:#000000;stroke-width:1;stroke-linecap:butt;stroke-linejoin:miter;stroke-miterlimit:4;stroke-dasharray:none;stroke-opacity:1"
       d="m 72.8336,173.29754 0,56.08" /><path
       inkscape:connector-curvature="0"
       id="path86"
       style="fill:none;stroke:#000000;stroke-width:1;stroke-linecap:butt;stroke-linejoin:miter;stroke-miterlimit:4;stroke-dasharray:none;stroke-opacity:1"
       d="m 77.9164,173.29754 0,44.08" /><path
       inkscape:connector-curvature="0"
       id="path88"
       style="fill:none;stroke:#000000;stroke-width:1;stroke-linecap:butt;stroke-linejoin:miter;stroke-miterlimit:4;stroke-dasharray:none;stroke-opacity:1"
       d="m 82.4164,173.00154 0,31.71" /><path
       inkscape:connector-curvature="0"
       id="path90"
       style="fill:none;stroke:#000000;stroke-width:1;stroke-linecap:butt;stroke-linejoin:miter;stroke-miterlimit:4;stroke-dasharray:none;stroke-opacity:1"
       d="m 87,168.62754 0,24.584" /><path
       inkscape:connector-curvature="0"
       id="path92"
       style="fill:none;stroke:#000000;stroke-width:1;stroke-linecap:butt;stroke-linejoin:miter;stroke-miterlimit:4;stroke-dasharray:none;stroke-opacity:1"
       d="m 92.166,168.62754 0,12.25" /><path
       inkscape:connector-curvature="0"
       id="path94"
       style="fill:#000000;fill-opacity:1;fill-rule:nonzero;stroke:none"
       d="m 92.2906,179.12754 c 0.9672,0 1.7516,0.784 1.7516,1.75 0,0.966 -0.7844,1.75 -1.7516,1.75 -0.966,0 -1.7484,-0.784 -1.7484,-1.75 0,-0.966 0.7824,-1.75 1.7484,-1.75" /><path
       inkscape:connector-curvature="0"
       id="path96"
       style="fill:#000000;fill-opacity:1;fill-rule:nonzero;stroke:none"
       d="m 87.0836,191.00254 c 0.9668,0 1.7492,0.784 1.7492,1.75 0,0.966 -0.7824,1.75 -1.7492,1.75 -0.9664,0 -1.7508,-0.784 -1.7508,-1.75 0,-0.966 0.7844,-1.75 1.7508,-1.75" /><path
       inkscape:connector-curvature="0"
       id="path98"
       style="fill:#000000;fill-opacity:1;fill-rule:nonzero;stroke:none"
       d="m 82.4164,203.29454 c 0.9664,0 1.7508,0.783 1.7508,1.749 0,0.967 -0.7844,1.751 -1.7508,1.751 -0.9668,0 -1.7492,-0.784 -1.7492,-1.751 0,-0.966 0.7824,-1.749 1.7492,-1.749" /><path
       inkscape:connector-curvature="0"
       id="path100"
       style="fill:#000000;fill-opacity:1;fill-rule:nonzero;stroke:none"
       d="m 77.9164,215.62754 c 0.9664,0 1.7508,0.784 1.7508,1.75 0,0.966 -0.7844,1.75 -1.7508,1.75 -0.9668,0 -1.7492,-0.784 -1.7492,-1.75 0,-0.966 0.7824,-1.75 1.7492,-1.75" /><path
       inkscape:connector-curvature="0"
       id="path102"
       style="fill:#000000;fill-opacity:1;fill-rule:nonzero;stroke:none"
       d="m 72.9164,228.12754 c 0.9664,0 1.7508,0.782 1.7508,1.75 0,0.967 -0.7844,1.75 -1.7508,1.75 -0.9668,0 -1.7492,-0.783 -1.7492,-1.75 0,-0.968 0.7824,-1.75 1.7492,-1.75" /><path
       inkscape:connector-curvature="0"
       id="path104"
       style="fill:#000000;fill-opacity:1;fill-rule:nonzero;stroke:none"
       d="m 67.5141,240.13954 c 0.9668,0 1.7496,0.783 1.7496,1.75 0,0.967 -0.7828,1.75 -1.7496,1.75 -0.9661,0 -1.7504,-0.783 -1.7504,-1.75 0,-0.967 0.7843,-1.75 1.7504,-1.75" /><path
       inkscape:connector-curvature="0"
       id="path106"
       style="fill:none;stroke:#000000;stroke-width:1;stroke-linecap:butt;stroke-linejoin:miter;stroke-miterlimit:4;stroke-dasharray:none;stroke-opacity:1"
       d="m 56.375,169.54354 c 0.9664,0 1.75,0.784 1.75,1.75 0,0.967 -0.7836,1.75 -1.75,1.75 -0.9664,0 -1.75,-0.783 -1.75,-1.75 0,-0.966 0.7836,-1.75 1.75,-1.75 z" /><path
       inkscape:connector-curvature="0"
       id="path108"
       style="fill:none;stroke:#000000;stroke-width:1;stroke-linecap:butt;stroke-linejoin:miter;stroke-miterlimit:4;stroke-dasharray:none;stroke-opacity:1"
       d="m 46.5,169.54354 c 0.9664,0 1.75,0.784 1.75,1.75 0,0.967 -0.7836,1.75 -1.75,1.75 -0.9664,0 -1.75,-0.783 -1.75,-1.75 0,-0.966 0.7836,-1.75 1.75,-1.75 z" /><path
       inkscape:connector-curvature="0"
       id="path110"
       style="fill:none;stroke:#000000;stroke-width:1;stroke-linecap:butt;stroke-linejoin:miter;stroke-miterlimit:4;stroke-dasharray:none;stroke-opacity:1"
       d="m 51.2086,169.54354 c 0.966,0 1.7492,0.784 1.7492,1.75 0,0.967 -0.7832,1.75 -1.7492,1.75 -0.9668,0 -1.7508,-0.783 -1.7508,-1.75 0,-0.966 0.784,-1.75 1.7508,-1.75 z" /><path
       inkscape:connector-curvature="0"
       id="path112"
       style="fill:none;stroke:#000000;stroke-width:1;stroke-linecap:butt;stroke-linejoin:miter;stroke-miterlimit:4;stroke-dasharray:none;stroke-opacity:1"
       d="m 42.125,169.54354 c 0.9664,0 1.75,0.784 1.75,1.75 0,0.967 -0.7836,1.75 -1.75,1.75 -0.9664,0 -1.75,-0.783 -1.75,-1.75 0,-0.966 0.7836,-1.75 1.75,-1.75 z" /><path
       inkscape:connector-curvature="0"
       id="path114"
       style="fill:none;stroke:#000000;stroke-width:1;stroke-linecap:butt;stroke-linejoin:miter;stroke-miterlimit:4;stroke-dasharray:none;stroke-opacity:1"
       d="m 37.0414,169.54354 c 0.9668,0 1.7508,0.784 1.7508,1.75 0,0.967 -0.784,1.75 -1.7508,1.75 -0.966,0 -1.7492,-0.783 -1.7492,-1.75 0,-0.966 0.7832,-1.75 1.7492,-1.75 z" /><path
       inkscape:connector-curvature="0"
       id="path116"
       style="fill:none;stroke:#000000;stroke-width:1;stroke-linecap:butt;stroke-linejoin:miter;stroke-miterlimit:4;stroke-dasharray:none;stroke-opacity:1"
       d="m 31.875,169.54354 c 0.9664,0 1.75,0.784 1.75,1.75 0,0.967 -0.7836,1.75 -1.75,1.75 -0.9664,0 -1.75,-0.783 -1.75,-1.75 0,-0.966 0.7836,-1.75 1.75,-1.75 z" /><path
       inkscape:connector-curvature="0"
       id="path118"
       style="fill:none;stroke:#000000;stroke-width:1;stroke-linecap:butt;stroke-linejoin:miter;stroke-miterlimit:4;stroke-dasharray:none;stroke-opacity:1"
       d="m 31.7086,173.03054 0,67.68" /><path
       inkscape:connector-curvature="0"
       id="path120"
       style="fill:none;stroke:#000000;stroke-width:1;stroke-linecap:butt;stroke-linejoin:miter;stroke-miterlimit:4;stroke-dasharray:none;stroke-opacity:1"
       d="m 37.0414,173.29754 0,56.08" /><path
       inkscape:connector-curvature="0"
       id="path122"
       style="fill:none;stroke:#000000;stroke-width:1;stroke-linecap:butt;stroke-linejoin:miter;stroke-miterlimit:4;stroke-dasharray:none;stroke-opacity:1"
       d="m 42.125,173.29754 0,44.08" /><path
       inkscape:connector-curvature="0"
       id="path124"
       style="fill:none;stroke:#000000;stroke-width:1;stroke-linecap:butt;stroke-linejoin:miter;stroke-miterlimit:4;stroke-dasharray:none;stroke-opacity:1"
       d="m 46.375,173.03354 0,31.678" /><path
       inkscape:connector-curvature="0"
       id="path126"
       style="fill:none;stroke:#000000;stroke-width:1;stroke-linecap:butt;stroke-linejoin:miter;stroke-miterlimit:4;stroke-dasharray:none;stroke-opacity:1"
       d="m 51.2086,173.29754 0,19.914" /><path
       inkscape:connector-curvature="0"
       id="path128"
       style="fill:none;stroke:#000000;stroke-width:1;stroke-linecap:butt;stroke-linejoin:miter;stroke-miterlimit:4;stroke-dasharray:none;stroke-opacity:1"
       d="m 56.375,173.29754 0,7.58" /><path
       inkscape:connector-curvature="0"
       id="path130"
       style="fill:#000000;fill-opacity:1;fill-rule:nonzero;stroke:none"
       d="m 56.5,179.12754 c 0.9664,0 1.75,0.784 1.75,1.75 0,0.966 -0.7836,1.75 -1.75,1.75 -0.9664,0 -1.75,-0.784 -1.75,-1.75 0,-0.966 0.7836,-1.75 1.75,-1.75" /><path
       inkscape:connector-curvature="0"
       id="path132"
       style="fill:#000000;fill-opacity:1;fill-rule:nonzero;stroke:none"
       d="m 51.2914,191.00254 c 0.9664,0 1.7508,0.784 1.7508,1.75 0,0.966 -0.7844,1.75 -1.7508,1.75 -0.9668,0 -1.7492,-0.784 -1.7492,-1.75 0,-0.966 0.7824,-1.75 1.7492,-1.75" /><path
       inkscape:connector-curvature="0"
       id="path134"
       style="fill:#000000;fill-opacity:1;fill-rule:nonzero;stroke:none"
       d="m 46.375,203.29454 c 0.9664,0 1.75,0.783 1.75,1.749 0,0.967 -0.7836,1.751 -1.75,1.751 -0.9664,0 -1.75,-0.784 -1.75,-1.751 0,-0.966 0.7836,-1.749 1.75,-1.749" /><path
       inkscape:connector-curvature="0"
       id="path136"
       style="fill:#000000;fill-opacity:1;fill-rule:nonzero;stroke:none"
       d="m 42.125,215.62754 c 0.9664,0 1.75,0.784 1.75,1.75 0,0.966 -0.7836,1.75 -1.75,1.75 -0.9664,0 -1.75,-0.784 -1.75,-1.75 0,-0.966 0.7836,-1.75 1.75,-1.75" /><path
       inkscape:connector-curvature="0"
       id="path138"
       style="fill:#000000;fill-opacity:1;fill-rule:nonzero;stroke:none"
       d="m 37.0414,228.12754 c 0.9664,0 1.7508,0.782 1.7508,1.75 0,0.967 -0.7844,1.75 -1.7508,1.75 -0.9668,0 -1.7492,-0.783 -1.7492,-1.75 0,-0.968 0.7824,-1.75 1.7492,-1.75" /><path
       inkscape:connector-curvature="0"
       id="path140"
       style="fill:#000000;fill-opacity:1;fill-rule:nonzero;stroke:none"
       d="m 31.7086,240.13954 c 0.9656,0 1.7492,0.783 1.7492,1.75 0,0.967 -0.7836,1.75 -1.7492,1.75 -0.9664,0 -1.7508,-0.783 -1.7508,-1.75 0,-0.967 0.7844,-1.75 1.7508,-1.75" /><path
       inkscape:connector-curvature="0"
       id="path142"
       style="fill:#000000;fill-opacity:1;fill-rule:nonzero;stroke:none"
       d="m 43.2914,124.187 c 0.9664,0 1.7508,0.784 1.7508,1.75 0,0.965 -0.7844,1.75 -1.7508,1.75 -0.9668,0 -1.7492,-0.785 -1.7492,-1.75 0,-0.966 0.7824,-1.75 1.7492,-1.75" /><path
       inkscape:connector-curvature="0"
       id="path144"
       style="fill:#000000;fill-opacity:1;fill-rule:nonzero;stroke:none"
       d="m 43.2914,85.3121 c 0.9664,0 1.7508,0.784 1.7508,1.75 0,0.9649 -0.7844,1.75 -1.7508,1.75 -0.9668,0 -1.7492,-0.7851 -1.7492,-1.75 0,-0.966 0.7824,-1.75 1.7492,-1.75" /><path
       inkscape:connector-curvature="0"
       id="path146"
       style="fill:#000000;fill-opacity:1;fill-rule:nonzero;stroke:none"
       d="m 43.1664,19.1039 c 0.9664,0 1.7508,0.7832 1.7508,1.75 0,0.966 -0.7844,1.75 -1.7508,1.75 -0.9668,0 -1.7492,-0.784 -1.7492,-1.75 0,-0.9668 0.7824,-1.75 1.7492,-1.75" /><path
       inkscape:connector-curvature="0"
       id="path148"
       style="fill:#000000;fill-opacity:1;fill-rule:nonzero;stroke:none"
       d="m 79.25,115.104 c 0.9664,0 1.75,0.783 1.75,1.75 0,0.966 -0.7836,1.75 -1.75,1.75 -0.9664,0 -1.75,-0.784 -1.75,-1.75 0,-0.967 0.7836,-1.75 1.75,-1.75" /><path
       inkscape:connector-curvature="0"
       id="path150"
       style="fill:#000000;fill-opacity:1;fill-rule:nonzero;stroke:none"
       d="m 79.25,93.8828 c 0.9664,0 1.75,0.7844 1.75,1.7512 0,0.966 -0.7836,1.7488 -1.75,1.7488 -0.9664,0 -1.75,-0.7828 -1.75,-1.7488 0,-0.9668 0.7836,-1.7512 1.75,-1.7512" /><path
       inkscape:connector-curvature="0"
       id="path152"
       style="fill:#000000;fill-opacity:1;fill-rule:nonzero;stroke:none"
       d="m 79.25,72.4672 c 0.9664,0 1.75,0.7828 1.75,1.7488 0,0.9668 -0.7836,1.7512 -1.75,1.7512 -0.9664,0 -1.75,-0.7844 -1.75,-1.7512 0,-0.966 0.7836,-1.7488 1.75,-1.7488" /><path
       inkscape:connector-curvature="0"
       id="path154"
       style="fill:#000000;fill-opacity:1;fill-rule:nonzero;stroke:none"
       d="m 79.25,63.55 c 0.9664,0 1.75,0.784 1.75,1.75 0,0.966 -0.7836,1.75 -1.75,1.75 -0.9664,0 -1.75,-0.784 -1.75,-1.75 0,-0.966 0.7836,-1.75 1.75,-1.75" /><path
       inkscape:connector-curvature="0"
       id="path156"
       style="fill:#000000;fill-opacity:1;fill-rule:nonzero;stroke:none"
       d="m 115.084,49.1328 c 0.966,0 1.749,0.7844 1.749,1.7512 0,0.966 -0.783,1.7488 -1.749,1.7488 -0.967,0 -1.751,-0.7828 -1.751,-1.7488 0,-0.9668 0.784,-1.7512 1.751,-1.7512" /><path
       inkscape:connector-curvature="0"
       id="path158"
       style="fill:#000000;fill-opacity:1;fill-rule:nonzero;stroke:none"
       d="m 151.196,3.05 c 0.967,0 1.75,0.78398 1.75,1.75 0,0.96602 -0.783,1.75 -1.75,1.75 -0.967,0 -1.75,-0.78398 -1.75,-1.75 0,-0.96602 0.783,-1.75 1.75,-1.75" /><path
       inkscape:connector-curvature="0"
       id="path160"
       style="fill:#000000;fill-opacity:1;fill-rule:nonzero;stroke:none"
       d="m 151.321,33.4672 c 0.967,0 1.75,0.7828 1.75,1.7488 0,0.9672 -0.783,1.7512 -1.75,1.7512 -0.967,0 -1.75,-0.784 -1.75,-1.7512 0,-0.966 0.783,-1.7488 1.75,-1.7488" /><path
       inkscape:connector-curvature="0"
       id="path162"
       style="fill:#000000;fill-opacity:1;fill-rule:nonzero;stroke:none"
       d="m 115.125,102.508 c 0.966,0 1.75,0.784 1.75,1.751 0,0.966 -0.784,1.749 -1.75,1.749 -0.966,0 -1.75,-0.783 -1.75,-1.749 0,-0.967 0.784,-1.751 1.75,-1.751" /><path
       inkscape:connector-curvature="0"
       id="path164"
       style="fill:none;stroke:#000000;stroke-width:1;stroke-linecap:butt;stroke-linejoin:miter;stroke-miterlimit:4;stroke-dasharray:none;stroke-opacity:1"
       d="m 211.209,126.009 -167.709,0" /><path
       inkscape:connector-curvature="0"
       id="path166"
       style="fill:none;stroke:#000000;stroke-width:1;stroke-linecap:butt;stroke-linejoin:miter;stroke-miterlimit:4;stroke-dasharray:none;stroke-opacity:1"
       d="m 164.166,116.884 -84.541,0" /><path
       inkscape:connector-curvature="0"
       id="path168"
       style="fill:none;stroke:#000000;stroke-width:1;stroke-linecap:butt;stroke-linejoin:miter;stroke-miterlimit:4;stroke-dasharray:none;stroke-opacity:1"
       d="m 196.334,109.884 14.5,0" /><path
       inkscape:connector-curvature="0"
       id="path170"
       style="fill:none;stroke:#000000;stroke-width:1;stroke-linecap:butt;stroke-linejoin:miter;stroke-miterlimit:4;stroke-dasharray:none;stroke-opacity:1"
       d="m 164.5,104.216 -49,0" /><path
       inkscape:connector-curvature="0"
       id="path172"
       style="fill:none;stroke:#000000;stroke-width:1;stroke-linecap:butt;stroke-linejoin:miter;stroke-miterlimit:4;stroke-dasharray:none;stroke-opacity:1"
       d="m 211.166,95.384 -132.666,0" /><path
       inkscape:connector-curvature="0"
       id="path174"
       style="fill:none;stroke:#000000;stroke-width:1;stroke-linecap:butt;stroke-linejoin:miter;stroke-miterlimit:4;stroke-dasharray:none;stroke-opacity:1"
       d="m 196.334,79.55 14.75,0" /><path
       inkscape:connector-curvature="0"
       id="path176"
       style="fill:none;stroke:#000000;stroke-width:1;stroke-linecap:butt;stroke-linejoin:miter;stroke-miterlimit:4;stroke-dasharray:none;stroke-opacity:1"
       d="m 164.5,74.216 -86,0" /><path
       inkscape:connector-curvature="0"
       id="path178"
       style="fill:none;stroke:#000000;stroke-width:1;stroke-linecap:butt;stroke-linejoin:miter;stroke-miterlimit:4;stroke-dasharray:none;stroke-opacity:1"
       d="m 164.166,87.009 -119.9996,0" /><path
       inkscape:connector-curvature="0"
       id="path180"
       style="fill:none;stroke:#000000;stroke-width:1;stroke-linecap:butt;stroke-linejoin:miter;stroke-miterlimit:4;stroke-dasharray:none;stroke-opacity:1"
       d="m 78.5,65.3 132.625,0" /><path
       inkscape:connector-curvature="0"
       id="path182"
       style="fill:none;stroke:#000000;stroke-width:1;stroke-linecap:butt;stroke-linejoin:miter;stroke-miterlimit:4;stroke-dasharray:none;stroke-opacity:1"
       d="m 210.916,50.759 -95.75,0" /><path
       inkscape:connector-curvature="0"
       id="path184"
       style="fill:none;stroke:#000000;stroke-width:1;stroke-linecap:butt;stroke-linejoin:miter;stroke-miterlimit:4;stroke-dasharray:none;stroke-opacity:1"
       d="m 151.166,35.216 59.875,0" /><path
       inkscape:connector-curvature="0"
       id="path186"
       style="fill:none;stroke:#000000;stroke-width:1;stroke-linecap:butt;stroke-linejoin:miter;stroke-miterlimit:4;stroke-dasharray:none;stroke-opacity:1"
       d="m 211.5,20.841 -168.5414,0" /><path
       inkscape:connector-curvature="0"
       id="path188"
       style="fill:none;stroke:#000000;stroke-width:1;stroke-linecap:butt;stroke-linejoin:miter;stroke-miterlimit:4;stroke-dasharray:none;stroke-opacity:1"
       d="m 151.25,4.55 59.875,0" /><path
       inkscape:connector-curvature="0"
       id="path190"
       style="fill:none;stroke:#000000;stroke-width:1;stroke-linecap:butt;stroke-linejoin:miter;stroke-miterlimit:4;stroke-dasharray:none;stroke-opacity:1"
       d="m 151.209,137.216 0,-131.791" /><path
       inkscape:connector-curvature="0"
       id="path192"
       style="fill:none;stroke:#000000;stroke-width:1;stroke-linecap:butt;stroke-linejoin:miter;stroke-miterlimit:4;stroke-dasharray:none;stroke-opacity:1"
       d="m 115.166,137.884 0,-131.66798" /><path
       inkscape:connector-curvature="0"
       id="path194"
       style="fill:none;stroke:#000000;stroke-width:1;stroke-linecap:butt;stroke-linejoin:miter;stroke-miterlimit:4;stroke-dasharray:none;stroke-opacity:1"
       d="m 79.1664,137.884 0,-131.459" /><path
       inkscape:connector-curvature="0"
       id="path196"
       style="fill:none;stroke:#000000;stroke-width:1;stroke-linecap:butt;stroke-linejoin:miter;stroke-miterlimit:4;stroke-dasharray:none;stroke-opacity:1"
       d="m 43.375,137.884 0,-131.66798" /><path
       inkscape:connector-curvature="0"
       id="path198"
       style="fill:#000000;fill-opacity:1;fill-rule:nonzero;stroke:none"
       d="m 163.834,180.87754 -141.334,0" /><path
       inkscape:connector-curvature="0"
       id="path200"
       style="fill:none;stroke:#000000;stroke-width:1;stroke-linecap:butt;stroke-linejoin:miter;stroke-miterlimit:4;stroke-dasharray:none;stroke-opacity:1"
       d="m 163.834,180.87754 -141.334,0" /><path
       inkscape:connector-curvature="0"
       id="path202"
       style="fill:#000000;fill-opacity:1;fill-rule:nonzero;stroke:none"
       d="m 159.929,192.75254 -137.054,0" /><path
       inkscape:connector-curvature="0"
       id="path204"
       style="fill:none;stroke:#000000;stroke-width:1;stroke-linecap:butt;stroke-linejoin:miter;stroke-miterlimit:4;stroke-dasharray:none;stroke-opacity:1"
       d="m 159.929,192.75254 -137.054,0" /><path
       inkscape:connector-curvature="0"
       id="path206"
       style="fill:#000000;fill-opacity:1;fill-rule:nonzero;stroke:none"
       d="m 155.012,205.04354 -132.262,0" /><path
       inkscape:connector-curvature="0"
       id="path208"
       style="fill:none;stroke:#000000;stroke-width:1;stroke-linecap:butt;stroke-linejoin:miter;stroke-miterlimit:4;stroke-dasharray:none;stroke-opacity:1"
       d="m 155.012,205.04354 -132.262,0" /><path
       inkscape:connector-curvature="0"
       id="path210"
       style="fill:#000000;fill-opacity:1;fill-rule:nonzero;stroke:none"
       d="m 150.762,217.37754 -128.012,0" /><path
       inkscape:connector-curvature="0"
       id="path212"
       style="fill:none;stroke:#000000;stroke-width:1;stroke-linecap:butt;stroke-linejoin:miter;stroke-miterlimit:4;stroke-dasharray:none;stroke-opacity:1"
       d="m 150.762,217.37754 -128.012,0" /><path
       inkscape:connector-curvature="0"
       id="path214"
       style="fill:#000000;fill-opacity:1;fill-rule:nonzero;stroke:none"
       d="m 144.5,229.87754 -121.75,0" /><path
       inkscape:connector-curvature="0"
       id="path216"
       style="fill:none;stroke:#000000;stroke-width:1;stroke-linecap:butt;stroke-linejoin:miter;stroke-miterlimit:4;stroke-dasharray:none;stroke-opacity:1"
       d="m 144.5,229.87754 -121.75,0" /><path
       inkscape:connector-curvature="0"
       id="path218"
       style="fill:#000000;fill-opacity:1;fill-rule:nonzero;stroke:none"
       d="m 139.5,241.97254 -116.75,0" /><path
       inkscape:connector-curvature="0"
       id="path220"
       style="fill:none;stroke:#000000;stroke-width:1;stroke-linecap:butt;stroke-linejoin:miter;stroke-miterlimit:4;stroke-dasharray:none;stroke-opacity:1"
       d="m 139.5,241.97254 -116.75,0" /><text
       transform="scale(1,-1)"
       style="font-variant:normal;font-weight:normal;font-size:8px;font-family:Helvetica;-inkscape-font-specification:Helvetica;writing-mode:lr-tb;fill:#000000;fill-opacity:1;fill-rule:nonzero;stroke:none;"
       id="text224"
       x="9.1156197"
       y="-128.925"><tspan
         x="9.1156197 14.89162 17.55562 19.539448 23.987448 26.85928 33.523281 37.971279 67.905518 70.129524 102.39888 106.16695 135.01799 139.46599 143.91399"
         y="-128.925"
         sodipodi:role="line"
         id="tspan226">R-formatIwswbeq</tspan><tspan
         x="5.49999 11.72399 16.171989"
         y="-180.925"
         sodipodi:role="line"
         id="tspan228">Op0</tspan><tspan
         x="5.49999 11.72399 16.171989"
         y="-193.425"
         sodipodi:role="line"
         id="tspan230">Op1</tspan><tspan
         x="5.49999 11.72399 16.171989"
         y="-205.55"
         sodipodi:role="line"
         id="tspan232">Op2</tspan><tspan
         x="5.49999 11.72399 16.171989"
         y="-217.8"
         sodipodi:role="line"
         id="tspan234">Op3</tspan><tspan
         x="5.49999 11.72399 16.171989"
         y="-230.675"
         sodipodi:role="line"
         id="tspan236">Op4</tspan><tspan
         x="5.49999 11.72399 16.171989"
         y="-242.8"
         sodipodi:role="line"
         id="tspan238">Op5</tspan></text>
<text
       transform="scale(1,-1)"
       style="font-variant:normal;font-weight:bold;font-size:8px;font-family:Helvetica;-inkscape-font-specification:Helvetica-Bold;writing-mode:lr-tb;fill:#000000;fill-opacity:1;fill-rule:nonzero;stroke:none;"
       id="text240"
       x="-9.9999997e-06"
       y="-258.29999"><tspan
         x="-9.9999997e-06 2.22399 7.11199 11.99999 16.887991 19.551991"
         y="-258.29999"
         sodipodi:role="line"
         id="tspan242">Inputs</tspan><tspan
         x="215.24998 221.47398 226.36198 229.02599 233.91399 238.80199 241.46599"
         y="-142.3"
         sodipodi:role="line"
         id="tspan244">Outputs</tspan></text>
<text
       transform="scale(1,-1)"
       style="font-variant:normal;font-weight:normal;font-size:8px;font-family:Helvetica;-inkscape-font-specification:Helvetica;writing-mode:lr-tb;fill:#000000;fill-opacity:1;fill-rule:nonzero;stroke:none;"
       id="text246"
       x="214.49998"
       y="-123.259"><tspan
         x="214.49998 220.27599 224.72398 229.172 234.94798 238.94798"
         y="-123.259"
         sodipodi:role="line"
         id="tspan248">RegDst</tspan><tspan
         x="214.49998 219.83598 224.284 230.06 235.396 238.05998"
         y="-106.675"
         sodipodi:role="line"
         id="tspan250">ALUSrc</tspan><tspan
         x="214.49998 221.16399 225.61198 232.27599 234.49998 238.94798 244.72398 249.172"
         y="-92.259003"
         sodipodi:role="line"
         id="tspan252">MemtoReg</tspan><tspan
         x="214.49998 220.27599 224.72398 229.172 236.72398 239.5 241.276 243.5"
         y="-76.737099"
         sodipodi:role="line"
         id="tspan254">RegWrite</tspan><tspan
         x="214.49998 221.16399 225.61198 232.27599 238.05199 242.49998 246.948"
         y="-62.299999"
         sodipodi:role="line"
         id="tspan256">MemRead</tspan><tspan
         x="214.49998 221.16399 225.61198 232.27599 239.82799 242.6039 244.3799 246.60391"
         y="-47.966"
         sodipodi:role="line"
         id="tspan258">MemWrite</tspan><tspan
         x="214.49998 219.83598 222.41998 226.868 231.31599 235.31599"
         y="-32.091"
         sodipodi:role="line"
         id="tspan260">Branch</tspan><tspan
         x="214.49998 219.83598 224.284 230.06 236.284 240.73199"
         y="-17.925001"
         sodipodi:role="line"
         id="tspan262">ALUOp1</tspan><tspan
         x="214.49998 219.83598 224.284 230.06 236.284 240.73199"
         y="-1.8000003"
         sodipodi:role="line"
         id="tspan264">ALUOp0</tspan></text>
<path
       inkscape:connector-curvature="0"
       id="path268"
       style="fill:none;stroke:#000000;stroke-width:1;stroke-linecap:butt;stroke-linejoin:miter;stroke-miterlimit:2;stroke-dasharray:none;stroke-opacity:1"
       d="m 161.834,121.216 c 0,0 2.717,-2.941 3.666,-6.5 0.666,-2.5 0.666,-7 0,-8.832 -0.649,-1.787 -3.5,-6.334 -3.5,-6.334 0,0 12.166,-0.334 16.334,0.166 4.166,0.5 7.877,1.17 12.666,4.5 3.834,2.668 5.334,5.668 5.334,5.668 0,0 -2.334,4.332 -5.834,6.832 -2.145,1.532 -5.334,3.5 -9.166,4.168 -3.834,0.666 -8,1.166 -19.5,0.332 z" /><path
       inkscape:connector-curvature="0"
       id="path272"
       style="fill:none;stroke:#000000;stroke-width:1;stroke-linecap:butt;stroke-linejoin:miter;stroke-miterlimit:2;stroke-dasharray:none;stroke-opacity:1"
       d="m 161.834,90.884 c 0,0 2.717,-2.943 3.666,-6.5 0.666,-2.5 0.666,-7 0,-8.834 -0.649,-1.7859 -3.5,-6.334 -3.5,-6.334 0,0 12.166,-0.332 16.334,0.168 4.166,0.5 7.877,1.168 12.666,4.5 3.834,2.666 5.334,5.666 5.334,5.666 0,0 -2.334,4.334 -5.834,6.834 -2.145,1.5308 -5.334,3.5 -9.166,4.166 -3.834,0.666 -8,1.166 -19.5,0.334 z" /><path
       inkscape:connector-curvature="0"
       id="path276"
       style="fill:none;stroke:#000000;stroke-width:1;stroke-linecap:butt;stroke-linejoin:miter;stroke-miterlimit:2;stroke-dasharray:none;stroke-opacity:1"
       d="m 136.75,168.716 c 0,0 -0.084,-10 -0.084,-14.5 0,-4.5 0,-7.25 2.834,-11 1.531,-2.025 4.5,-5.332 11.334,-5.332 6.832,0 8.717,1.945 11,4.166 3.082,3 4.332,5.416 4.5,10.5 0.163,5 0.125,16.166 0.125,16.166 l -29.709,0 z" /><path
       inkscape:connector-curvature="0"
       id="path280"
       style="fill:none;stroke:#000000;stroke-width:1;stroke-linecap:butt;stroke-linejoin:miter;stroke-miterlimit:2;stroke-dasharray:none;stroke-opacity:1"
       d="m 101.084,168.716 c 0,0 -0.084,-10 -0.084,-14.5 0,-4.5 0,-7.25 2.834,-11 1.53,-2.025 4.5,-5.332 11.332,-5.332 6.834,0 8.719,1.945 11,4.166 3.084,3 4.334,5.416 4.5,10.5 0.164,5 0,16.166 0,16.166 l -29.582,0 z" /><path
       inkscape:connector-curvature="0"
       id="path284"
       style="fill:none;stroke:#000000;stroke-width:1;stroke-linecap:butt;stroke-linejoin:miter;stroke-miterlimit:2;stroke-dasharray:none;stroke-opacity:1"
       d="m 65.0836,168.716 c 0,0 -0.0836,-10 -0.0836,-14.5 0,-4.5 0,-7.25 2.8336,-11 1.5309,-2.025 4.5,-5.332 11.3328,-5.332 6.8336,0 8.718,1.945 10.9996,4.166 3.084,3 4.334,5.416 4.5,10.5 0.1641,5 0,16.166 0,16.166 l -29.5824,0 z" /><path
       inkscape:connector-curvature="0"
       id="path288"
       style="fill:none;stroke:#000000;stroke-width:1;stroke-linecap:butt;stroke-linejoin:miter;stroke-miterlimit:2;stroke-dasharray:none;stroke-opacity:1"
       d="m 29.2914,168.716 c 0,0 -0.0828,-10 -0.0828,-14.5 0,-4.5 0,-7.25 2.8328,-11 1.5313,-2.025 4.5,-5.332 11.3336,-5.332 6.8336,0 8.718,1.945 11,4.166 3.0836,3 4.3336,5.416 4.5,10.5 0.1641,5 0,16.166 0,16.166 l -29.5836,0 z" /></g></svg>