<?xml version="1.0" encoding="UTF-8" standalone="no"?>
<!-- Created with Inkscape (http://www.inkscape.org/) -->

<svg
   xmlns:dc="http://purl.org/dc/elements/1.1/"
   xmlns:cc="http://creativecommons.org/ns#"
   xmlns:rdf="http://www.w3.org/1999/02/22-rdf-syntax-ns#"
   xmlns:svg="http://www.w3.org/2000/svg"
   xmlns="http://www.w3.org/2000/svg"
   xmlns:sodipodi="http://sodipodi.sourceforge.net/DTD/sodipodi-0.dtd"
   xmlns:inkscape="http://www.inkscape.org/namespaces/inkscape"
   id="svg2"
   version="1.1"
   inkscape:version="0.91 r13725"
   xml:space="preserve"
   width="221.4487"
   height="196.17587"
   viewBox="0 0 221.4487 196.17587"
   sodipodi:docname="controladorMIPS_SingleCycleHardWired-Prova-B.svg"><metadata
     id="metadata8"><rdf:RDF><cc:Work
         rdf:about=""><dc:format>image/svg+xml</dc:format><dc:type
           rdf:resource="http://purl.org/dc/dcmitype/StillImage" /><dc:title></dc:title></cc:Work></rdf:RDF></metadata><defs
     id="defs6" /><sodipodi:namedview
     pagecolor="#ffffff"
     bordercolor="#666666"
     borderopacity="1"
     objecttolerance="10"
     gridtolerance="10"
     guidetolerance="10"
     inkscape:pageopacity="0"
     inkscape:pageshadow="2"
     inkscape:window-width="1920"
     inkscape:window-height="1031"
     id="namedview4"
     showgrid="false"
     inkscape:zoom="2.3793542"
     inkscape:cx="161.23749"
     inkscape:cy="43.029925"
     inkscape:window-x="1920"
     inkscape:window-y="30"
     inkscape:window-maximized="1"
     inkscape:current-layer="g10"
     fit-margin-left="10"
     fit-margin-bottom="10"
     fit-margin-top="10"
     fit-margin-right="10"
     showguides="true"
     inkscape:guide-bbox="true" /><g
     id="g10"
     inkscape:groupmode="layer"
     inkscape:label="ink_ext_XXXXXX"
     transform="matrix(1.25,0,0,-1.25,2.745,318.26345)"><path
       inkscape:connector-curvature="0"
       id="path14"
       style="fill:none;stroke:#000000;stroke-width:1;stroke-linecap:butt;stroke-linejoin:miter;stroke-miterlimit:4;stroke-dasharray:none;stroke-opacity:1"
       d="m 163.834,169.54354 c 0.966,0 1.749,0.784 1.749,1.75 0,0.967 -0.783,1.75 -1.749,1.75 -0.967,0 -1.751,-0.783 -1.751,-1.75 0,-0.966 0.784,-1.75 1.751,-1.75 z" /><path
       inkscape:connector-curvature="0"
       id="path16"
       style="fill:none;stroke:#000000;stroke-width:1;stroke-linecap:butt;stroke-linejoin:miter;stroke-miterlimit:4;stroke-dasharray:none;stroke-opacity:1"
       d="m 158.666,169.54354 c 0.967,0 1.751,0.784 1.751,1.75 0,0.967 -0.784,1.75 -1.751,1.75 -0.966,0 -1.749,-0.783 -1.749,-1.75 0,-0.966 0.783,-1.75 1.749,-1.75 z" /><path
       inkscape:connector-curvature="0"
       id="path18"
       style="fill:none;stroke:#000000;stroke-width:1;stroke-linecap:butt;stroke-linejoin:miter;stroke-miterlimit:4;stroke-dasharray:none;stroke-opacity:1"
       d="m 149.584,169.54354 c 0.966,0 1.749,0.784 1.749,1.75 0,0.967 -0.783,1.75 -1.749,1.75 -0.967,0 -1.751,-0.783 -1.751,-1.75 0,-0.966 0.784,-1.75 1.751,-1.75 z" /><path
       inkscape:connector-curvature="0"
       id="path20"
       style="fill:none;stroke:#000000;stroke-width:1;stroke-linecap:butt;stroke-linejoin:miter;stroke-miterlimit:4;stroke-dasharray:none;stroke-opacity:1"
       d="m 144.5,169.54354 c 0.966,0 1.75,0.784 1.75,1.75 0,0.967 -0.784,1.75 -1.75,1.75 -0.966,0 -1.75,-0.783 -1.75,-1.75 0,-0.966 0.784,-1.75 1.75,-1.75 z" /><path
       inkscape:connector-curvature="0"
       id="path22"
       style="fill:none;stroke:#000000;stroke-width:1;stroke-linecap:butt;stroke-linejoin:miter;stroke-miterlimit:4;stroke-dasharray:none;stroke-opacity:1"
       d="m 139.334,169.54354 c 0.966,0 1.749,0.784 1.749,1.75 0,0.967 -0.783,1.75 -1.749,1.75 -0.967,0 -1.751,-0.783 -1.751,-1.75 0,-0.966 0.784,-1.75 1.751,-1.75 z" /><path
       inkscape:connector-curvature="0"
       id="path24"
       style="fill:none;stroke:#000000;stroke-width:1;stroke-linecap:butt;stroke-linejoin:miter;stroke-miterlimit:4;stroke-dasharray:none;stroke-opacity:1"
       d="m 139.166,173.04354 0,67.667" /><path
       inkscape:connector-curvature="0"
       id="path26"
       style="fill:none;stroke:#000000;stroke-width:1;stroke-linecap:butt;stroke-linejoin:miter;stroke-miterlimit:4;stroke-dasharray:none;stroke-opacity:1"
       d="m 144.5,173.29754 0,56.08" /><path
       inkscape:connector-curvature="0"
       id="path28"
       style="fill:none;stroke:#000000;stroke-width:1;stroke-linecap:butt;stroke-linejoin:miter;stroke-miterlimit:4;stroke-dasharray:none;stroke-opacity:1"
       d="m 149.584,173.29754 0,44.08" /><path
       inkscape:connector-curvature="0"
       id="path30"
       style="fill:none;stroke:#000000;stroke-width:1;stroke-linecap:butt;stroke-linejoin:miter;stroke-miterlimit:4;stroke-dasharray:none;stroke-opacity:1"
       d="m 153.834,168.37754 0,36.334" /><path
       inkscape:connector-curvature="0"
       id="path32"
       style="fill:none;stroke:#000000;stroke-width:1;stroke-linecap:butt;stroke-linejoin:miter;stroke-miterlimit:4;stroke-dasharray:none;stroke-opacity:1"
       d="m 158.666,173.29754 0,19.914" /><path
       inkscape:connector-curvature="0"
       id="path34"
       style="fill:none;stroke:#000000;stroke-width:1;stroke-linecap:butt;stroke-linejoin:miter;stroke-miterlimit:4;stroke-dasharray:none;stroke-opacity:1"
       d="m 163.834,173.29754 0,7.58" /><path
       inkscape:connector-curvature="0"
       id="path36"
       style="fill:#000000;fill-opacity:1;fill-rule:nonzero;stroke:none"
       d="m 163.835,179.12754 c 0.965,0 1.748,0.784 1.748,1.75 0,0.966 -0.783,1.75 -1.748,1.75 -0.968,0 -1.752,-0.784 -1.752,-1.75 0,-0.966 0.784,-1.75 1.752,-1.75" /><path
       inkscape:connector-curvature="0"
       id="path38"
       style="fill:#000000;fill-opacity:1;fill-rule:nonzero;stroke:none"
       d="m 158.75,191.00254 c 0.966,0 1.75,0.784 1.75,1.75 0,0.966 -0.784,1.75 -1.75,1.75 -0.966,0 -1.75,-0.784 -1.75,-1.75 0,-0.966 0.784,-1.75 1.75,-1.75" /><path
       inkscape:connector-curvature="0"
       id="path40"
       style="fill:#000000;fill-opacity:1;fill-rule:nonzero;stroke:none"
       d="m 153.834,203.29454 c 0.966,0 1.749,0.783 1.749,1.749 0,0.967 -0.783,1.751 -1.749,1.751 -0.967,0 -1.751,-0.784 -1.751,-1.751 0,-0.966 0.784,-1.749 1.751,-1.749" /><path
       inkscape:connector-curvature="0"
       id="path42"
       style="fill:#000000;fill-opacity:1;fill-rule:nonzero;stroke:none"
       d="m 149.585,215.62754 c 0.965,0 1.748,0.784 1.748,1.75 0,0.966 -0.783,1.75 -1.748,1.75 -0.968,0 -1.752,-0.784 -1.752,-1.75 0,-0.966 0.784,-1.75 1.752,-1.75" /><path
       inkscape:connector-curvature="0"
       id="path44"
       style="fill:#000000;fill-opacity:1;fill-rule:nonzero;stroke:none"
       d="m 144.5,228.06554 c 0.966,0 1.75,0.782 1.75,1.75 0,0.966 -0.784,1.75 -1.75,1.75 -0.966,0 -1.75,-0.784 -1.75,-1.75 0,-0.968 0.784,-1.75 1.75,-1.75" /><path
       inkscape:connector-curvature="0"
       id="path46"
       style="fill:#000000;fill-opacity:1;fill-rule:nonzero;stroke:none"
       d="m 139.165,240.13954 c 0.968,0 1.752,0.783 1.752,1.75 0,0.967 -0.784,1.75 -1.752,1.75 -0.965,0 -1.748,-0.783 -1.748,-1.75 0,-0.967 0.783,-1.75 1.748,-1.75" /><path
       inkscape:connector-curvature="0"
       id="path48"
       style="fill:none;stroke:#000000;stroke-width:1;stroke-linecap:butt;stroke-linejoin:miter;stroke-miterlimit:4;stroke-dasharray:none;stroke-opacity:1"
       d="m 118.291,169.54354 c 0.967,0 1.751,0.784 1.751,1.75 0,0.967 -0.784,1.75 -1.751,1.75 -0.966,0 -1.749,-0.783 -1.749,-1.75 0,-0.966 0.783,-1.75 1.749,-1.75 z" /><path
       inkscape:connector-curvature="0"
       id="path50"
       style="fill:none;stroke:#000000;stroke-width:1;stroke-linecap:butt;stroke-linejoin:miter;stroke-miterlimit:4;stroke-dasharray:none;stroke-opacity:1"
       d="m 108.834,169.54354 c 0.966,0 1.749,0.784 1.749,1.75 0,0.967 -0.783,1.75 -1.749,1.75 -0.967,0 -1.751,-0.783 -1.751,-1.75 0,-0.966 0.784,-1.75 1.751,-1.75 z" /><path
       inkscape:connector-curvature="0"
       id="path52"
       style="fill:none;stroke:#000000;stroke-width:1;stroke-linecap:butt;stroke-linejoin:miter;stroke-miterlimit:4;stroke-dasharray:none;stroke-opacity:1"
       d="m 103.5,168.75254 0,71.958" /><path
       inkscape:connector-curvature="0"
       id="path54"
       style="fill:none;stroke:#000000;stroke-width:1;stroke-linecap:butt;stroke-linejoin:miter;stroke-miterlimit:4;stroke-dasharray:none;stroke-opacity:1"
       d="m 108.834,173.29754 0,56.08" /><path
       inkscape:connector-curvature="0"
       id="path56"
       style="fill:none;stroke:#000000;stroke-width:1;stroke-linecap:butt;stroke-linejoin:miter;stroke-miterlimit:4;stroke-dasharray:none;stroke-opacity:1"
       d="m 113.916,168.62754 0,48.75" /><path
       inkscape:connector-curvature="0"
       id="path58"
       style="fill:none;stroke:#000000;stroke-width:1;stroke-linecap:butt;stroke-linejoin:miter;stroke-miterlimit:4;stroke-dasharray:none;stroke-opacity:1"
       d="m 118.166,173.24954 0,31.462" /><path
       inkscape:connector-curvature="0"
       id="path60"
       style="fill:none;stroke:#000000;stroke-width:1;stroke-linecap:butt;stroke-linejoin:miter;stroke-miterlimit:4;stroke-dasharray:none;stroke-opacity:1"
       d="m 123,168.87754 0,24.334" /><path
       inkscape:connector-curvature="0"
       id="path62"
       style="fill:none;stroke:#000000;stroke-width:1;stroke-linecap:butt;stroke-linejoin:miter;stroke-miterlimit:4;stroke-dasharray:none;stroke-opacity:1"
       d="m 128.166,168.75254 0,12.125" /><path
       inkscape:connector-curvature="0"
       id="path64"
       style="fill:#000000;fill-opacity:1;fill-rule:nonzero;stroke:none"
       d="m 128.291,179.12754 c 0.967,0 1.751,0.784 1.751,1.75 0,0.966 -0.784,1.75 -1.751,1.75 -0.966,0 -1.749,-0.784 -1.749,-1.75 0,-0.966 0.783,-1.75 1.749,-1.75" /><path
       inkscape:connector-curvature="0"
       id="path66"
       style="fill:#000000;fill-opacity:1;fill-rule:nonzero;stroke:none"
       d="m 123.084,191.00254 c 0.966,0 1.749,0.784 1.749,1.75 0,0.966 -0.783,1.75 -1.749,1.75 -0.967,0 -1.751,-0.784 -1.751,-1.75 0,-0.966 0.784,-1.75 1.751,-1.75" /><path
       inkscape:connector-curvature="0"
       id="path68"
       style="fill:#000000;fill-opacity:1;fill-rule:nonzero;stroke:none"
       d="m 118.166,203.29454 c 0.967,0 1.751,0.783 1.751,1.749 0,0.967 -0.784,1.751 -1.751,1.751 -0.966,0 -1.749,-0.784 -1.749,-1.751 0,-0.966 0.783,-1.749 1.749,-1.749" /><path
       inkscape:connector-curvature="0"
       id="path70"
       style="fill:#000000;fill-opacity:1;fill-rule:nonzero;stroke:none"
       d="m 113.916,215.62754 c 0.967,0 1.751,0.784 1.751,1.75 0,0.966 -0.784,1.75 -1.751,1.75 -0.966,0 -1.749,-0.784 -1.749,-1.75 0,-0.966 0.783,-1.75 1.749,-1.75" /><path
       inkscape:connector-curvature="0"
       id="path72"
       style="fill:#000000;fill-opacity:1;fill-rule:nonzero;stroke:none"
       d="m 108.916,228.12754 c 0.967,0 1.751,0.782 1.751,1.75 0,0.967 -0.784,1.75 -1.751,1.75 -0.966,0 -1.749,-0.783 -1.749,-1.75 0,-0.968 0.783,-1.75 1.749,-1.75" /><path
       inkscape:connector-curvature="0"
       id="path74"
       style="fill:#000000;fill-opacity:1;fill-rule:nonzero;stroke:none"
       d="m 103.514,240.13954 c 0.967,0 1.75,0.783 1.75,1.75 0,0.967 -0.783,1.75 -1.75,1.75 -0.967,0 -1.75,-0.783 -1.75,-1.75 0,-0.967 0.783,-1.75 1.75,-1.75" /><path
       inkscape:connector-curvature="0"
       id="path76"
       style="fill:none;stroke:#000000;stroke-width:1;stroke-linecap:butt;stroke-linejoin:miter;stroke-miterlimit:4;stroke-dasharray:none;stroke-opacity:1"
       d="m 82.7914,169.54354 c 0.9668,0 1.7508,0.784 1.7508,1.75 0,0.967 -0.784,1.75 -1.7508,1.75 -0.966,0 -1.7492,-0.783 -1.7492,-1.75 0,-0.966 0.7832,-1.75 1.7492,-1.75 z" /><path
       inkscape:connector-curvature="0"
       id="path78"
       style="fill:none;stroke:#000000;stroke-width:1;stroke-linecap:butt;stroke-linejoin:miter;stroke-miterlimit:4;stroke-dasharray:none;stroke-opacity:1"
       d="m 77.9164,169.54354 c 0.9668,0 1.7508,0.784 1.7508,1.75 0,0.967 -0.784,1.75 -1.7508,1.75 -0.966,0 -1.7492,-0.783 -1.7492,-1.75 0,-0.966 0.7832,-1.75 1.7492,-1.75 z" /><path
       inkscape:connector-curvature="0"
       id="path80"
       style="fill:none;stroke:#000000;stroke-width:1;stroke-linecap:butt;stroke-linejoin:miter;stroke-miterlimit:4;stroke-dasharray:none;stroke-opacity:1"
       d="m 72.8336,169.54354 c 0.966,0 1.7492,0.784 1.7492,1.75 0,0.967 -0.7832,1.75 -1.7492,1.75 -0.9668,0 -1.7508,-0.783 -1.7508,-1.75 0,-0.966 0.784,-1.75 1.7508,-1.75 z" /><path
       inkscape:connector-curvature="0"
       id="path82"
       style="fill:none;stroke:#000000;stroke-width:1;stroke-linecap:butt;stroke-linejoin:miter;stroke-miterlimit:4;stroke-dasharray:none;stroke-opacity:1"
       d="m 67.5,168.62754 0,72.083" /><path
       inkscape:connector-curvature="0"
       id="path84"
       style="fill:none;stroke:#000000;stroke-width:1;stroke-linecap:butt;stroke-linejoin:miter;stroke-miterlimit:4;stroke-dasharray:none;stroke-opacity:1"
       d="m 72.8336,173.29754 0,56.08" /><path
       inkscape:connector-curvature="0"
       id="path86"
       style="fill:none;stroke:#000000;stroke-width:1;stroke-linecap:butt;stroke-linejoin:miter;stroke-miterlimit:4;stroke-dasharray:none;stroke-opacity:1"
       d="m 77.9164,173.29754 0,44.08" /><path
       inkscape:connector-curvature="0"
       id="path88"
       style="fill:none;stroke:#000000;stroke-width:1;stroke-linecap:butt;stroke-linejoin:miter;stroke-miterlimit:4;stroke-dasharray:none;stroke-opacity:1"
       d="m 82.4164,173.00154 0,31.71" /><path
       inkscape:connector-curvature="0"
       id="path90"
       style="fill:none;stroke:#000000;stroke-width:1;stroke-linecap:butt;stroke-linejoin:miter;stroke-miterlimit:4;stroke-dasharray:none;stroke-opacity:1"
       d="m 87,168.62754 0,24.584" /><path
       inkscape:connector-curvature="0"
       id="path92"
       style="fill:none;stroke:#000000;stroke-width:1;stroke-linecap:butt;stroke-linejoin:miter;stroke-miterlimit:4;stroke-dasharray:none;stroke-opacity:1"
       d="m 92.166,168.62754 0,12.25" /><path
       inkscape:connector-curvature="0"
       id="path94"
       style="fill:#000000;fill-opacity:1;fill-rule:nonzero;stroke:none"
       d="m 92.2906,179.12754 c 0.9672,0 1.7516,0.784 1.7516,1.75 0,0.966 -0.7844,1.75 -1.7516,1.75 -0.966,0 -1.7484,-0.784 -1.7484,-1.75 0,-0.966 0.7824,-1.75 1.7484,-1.75" /><path
       inkscape:connector-curvature="0"
       id="path96"
       style="fill:#000000;fill-opacity:1;fill-rule:nonzero;stroke:none"
       d="m 87.0836,191.00254 c 0.9668,0 1.7492,0.784 1.7492,1.75 0,0.966 -0.7824,1.75 -1.7492,1.75 -0.9664,0 -1.7508,-0.784 -1.7508,-1.75 0,-0.966 0.7844,-1.75 1.7508,-1.75" /><path
       inkscape:connector-curvature="0"
       id="path98"
       style="fill:#000000;fill-opacity:1;fill-rule:nonzero;stroke:none"
       d="m 82.4164,203.29454 c 0.9664,0 1.7508,0.783 1.7508,1.749 0,0.967 -0.7844,1.751 -1.7508,1.751 -0.9668,0 -1.7492,-0.784 -1.7492,-1.751 0,-0.966 0.7824,-1.749 1.7492,-1.749" /><path
       inkscape:connector-curvature="0"
       id="path100"
       style="fill:#000000;fill-opacity:1;fill-rule:nonzero;stroke:none"
       d="m 77.9164,215.62754 c 0.9664,0 1.7508,0.784 1.7508,1.75 0,0.966 -0.7844,1.75 -1.7508,1.75 -0.9668,0 -1.7492,-0.784 -1.7492,-1.75 0,-0.966 0.7824,-1.75 1.7492,-1.75" /><path
       inkscape:connector-curvature="0"
       id="path102"
       style="fill:#000000;fill-opacity:1;fill-rule:nonzero;stroke:none"
       d="m 72.9164,228.12754 c 0.9664,0 1.7508,0.782 1.7508,1.75 0,0.967 -0.7844,1.75 -1.7508,1.75 -0.9668,0 -1.7492,-0.783 -1.7492,-1.75 0,-0.968 0.7824,-1.75 1.7492,-1.75" /><path
       inkscape:connector-curvature="0"
       id="path104"
       style="fill:#000000;fill-opacity:1;fill-rule:nonzero;stroke:none"
       d="m 67.5141,240.13954 c 0.9668,0 1.7496,0.783 1.7496,1.75 0,0.967 -0.7828,1.75 -1.7496,1.75 -0.9661,0 -1.7504,-0.783 -1.7504,-1.75 0,-0.967 0.7843,-1.75 1.7504,-1.75" /><path
       inkscape:connector-curvature="0"
       id="path106"
       style="fill:none;stroke:#000000;stroke-width:1;stroke-linecap:butt;stroke-linejoin:miter;stroke-miterlimit:4;stroke-dasharray:none;stroke-opacity:1"
       d="m 56.375,169.54354 c 0.9664,0 1.75,0.784 1.75,1.75 0,0.967 -0.7836,1.75 -1.75,1.75 -0.9664,0 -1.75,-0.783 -1.75,-1.75 0,-0.966 0.7836,-1.75 1.75,-1.75 z" /><path
       inkscape:connector-curvature="0"
       id="path108"
       style="fill:none;stroke:#000000;stroke-width:1;stroke-linecap:butt;stroke-linejoin:miter;stroke-miterlimit:4;stroke-dasharray:none;stroke-opacity:1"
       d="m 46.5,169.54354 c 0.9664,0 1.75,0.784 1.75,1.75 0,0.967 -0.7836,1.75 -1.75,1.75 -0.9664,0 -1.75,-0.783 -1.75,-1.75 0,-0.966 0.7836,-1.75 1.75,-1.75 z" /><path
       inkscape:connector-curvature="0"
       id="path110"
       style="fill:none;stroke:#000000;stroke-width:1;stroke-linecap:butt;stroke-linejoin:miter;stroke-miterlimit:4;stroke-dasharray:none;stroke-opacity:1"
       d="m 51.2086,169.54354 c 0.966,0 1.7492,0.784 1.7492,1.75 0,0.967 -0.7832,1.75 -1.7492,1.75 -0.9668,0 -1.7508,-0.783 -1.7508,-1.75 0,-0.966 0.784,-1.75 1.7508,-1.75 z" /><path
       inkscape:connector-curvature="0"
       id="path112"
       style="fill:none;stroke:#000000;stroke-width:1;stroke-linecap:butt;stroke-linejoin:miter;stroke-miterlimit:4;stroke-dasharray:none;stroke-opacity:1"
       d="m 42.125,169.54354 c 0.9664,0 1.75,0.784 1.75,1.75 0,0.967 -0.7836,1.75 -1.75,1.75 -0.9664,0 -1.75,-0.783 -1.75,-1.75 0,-0.966 0.7836,-1.75 1.75,-1.75 z" /><path
       inkscape:connector-curvature="0"
       id="path114"
       style="fill:none;stroke:#000000;stroke-width:1;stroke-linecap:butt;stroke-linejoin:miter;stroke-miterlimit:4;stroke-dasharray:none;stroke-opacity:1"
       d="m 37.0414,169.54354 c 0.9668,0 1.7508,0.784 1.7508,1.75 0,0.967 -0.784,1.75 -1.7508,1.75 -0.966,0 -1.7492,-0.783 -1.7492,-1.75 0,-0.966 0.7832,-1.75 1.7492,-1.75 z" /><path
       inkscape:connector-curvature="0"
       id="path116"
       style="fill:none;stroke:#000000;stroke-width:1;stroke-linecap:butt;stroke-linejoin:miter;stroke-miterlimit:4;stroke-dasharray:none;stroke-opacity:1"
       d="m 31.875,169.54354 c 0.9664,0 1.75,0.784 1.75,1.75 0,0.967 -0.7836,1.75 -1.75,1.75 -0.9664,0 -1.75,-0.783 -1.75,-1.75 0,-0.966 0.7836,-1.75 1.75,-1.75 z" /><path
       inkscape:connector-curvature="0"
       id="path118"
       style="fill:none;stroke:#000000;stroke-width:1;stroke-linecap:butt;stroke-linejoin:miter;stroke-miterlimit:4;stroke-dasharray:none;stroke-opacity:1"
       d="m 31.7086,173.03054 0,67.68" /><path
       inkscape:connector-curvature="0"
       id="path120"
       style="fill:none;stroke:#000000;stroke-width:1;stroke-linecap:butt;stroke-linejoin:miter;stroke-miterlimit:4;stroke-dasharray:none;stroke-opacity:1"
       d="m 37.0414,173.29754 0,56.08" /><path
       inkscape:connector-curvature="0"
       id="path122"
       style="fill:none;stroke:#000000;stroke-width:1;stroke-linecap:butt;stroke-linejoin:miter;stroke-miterlimit:4;stroke-dasharray:none;stroke-opacity:1"
       d="m 42.125,173.29754 0,44.08" /><path
       inkscape:connector-curvature="0"
       id="path124"
       style="fill:none;stroke:#000000;stroke-width:1;stroke-linecap:butt;stroke-linejoin:miter;stroke-miterlimit:4;stroke-dasharray:none;stroke-opacity:1"
       d="m 46.375,173.03354 0,31.678" /><path
       inkscape:connector-curvature="0"
       id="path126"
       style="fill:none;stroke:#000000;stroke-width:1;stroke-linecap:butt;stroke-linejoin:miter;stroke-miterlimit:4;stroke-dasharray:none;stroke-opacity:1"
       d="m 51.2086,173.29754 0,19.914" /><path
       inkscape:connector-curvature="0"
       id="path128"
       style="fill:none;stroke:#000000;stroke-width:1;stroke-linecap:butt;stroke-linejoin:miter;stroke-miterlimit:4;stroke-dasharray:none;stroke-opacity:1"
       d="m 56.375,173.29754 0,7.58" /><path
       inkscape:connector-curvature="0"
       id="path130"
       style="fill:#000000;fill-opacity:1;fill-rule:nonzero;stroke:none"
       d="m 56.5,179.12754 c 0.9664,0 1.75,0.784 1.75,1.75 0,0.966 -0.7836,1.75 -1.75,1.75 -0.9664,0 -1.75,-0.784 -1.75,-1.75 0,-0.966 0.7836,-1.75 1.75,-1.75" /><path
       inkscape:connector-curvature="0"
       id="path132"
       style="fill:#000000;fill-opacity:1;fill-rule:nonzero;stroke:none"
       d="m 51.2914,191.00254 c 0.9664,0 1.7508,0.784 1.7508,1.75 0,0.966 -0.7844,1.75 -1.7508,1.75 -0.9668,0 -1.7492,-0.784 -1.7492,-1.75 0,-0.966 0.7824,-1.75 1.7492,-1.75" /><path
       inkscape:connector-curvature="0"
       id="path134"
       style="fill:#000000;fill-opacity:1;fill-rule:nonzero;stroke:none"
       d="m 46.375,203.29454 c 0.9664,0 1.75,0.783 1.75,1.749 0,0.967 -0.7836,1.751 -1.75,1.751 -0.9664,0 -1.75,-0.784 -1.75,-1.751 0,-0.966 0.7836,-1.749 1.75,-1.749" /><path
       inkscape:connector-curvature="0"
       id="path136"
       style="fill:#000000;fill-opacity:1;fill-rule:nonzero;stroke:none"
       d="m 42.125,215.62754 c 0.9664,0 1.75,0.784 1.75,1.75 0,0.966 -0.7836,1.75 -1.75,1.75 -0.9664,0 -1.75,-0.784 -1.75,-1.75 0,-0.966 0.7836,-1.75 1.75,-1.75" /><path
       inkscape:connector-curvature="0"
       id="path138"
       style="fill:#000000;fill-opacity:1;fill-rule:nonzero;stroke:none"
       d="m 37.0414,228.12754 c 0.9664,0 1.7508,0.782 1.7508,1.75 0,0.967 -0.7844,1.75 -1.7508,1.75 -0.9668,0 -1.7492,-0.783 -1.7492,-1.75 0,-0.968 0.7824,-1.75 1.7492,-1.75" /><path
       inkscape:connector-curvature="0"
       id="path140"
       style="fill:#000000;fill-opacity:1;fill-rule:nonzero;stroke:none"
       d="m 31.7086,240.13954 c 0.9656,0 1.7492,0.783 1.7492,1.75 0,0.967 -0.7836,1.75 -1.7492,1.75 -0.9664,0 -1.7508,-0.783 -1.7508,-1.75 0,-0.967 0.7844,-1.75 1.7508,-1.75" /><path
       inkscape:connector-curvature="0"
       id="path190"
       style="fill:none;stroke:#000000;stroke-width:1;stroke-linecap:butt;stroke-linejoin:miter;stroke-miterlimit:4;stroke-dasharray:none;stroke-opacity:1"
       d="m 151.209,137.77216 0,-22.06513" /><path
       inkscape:connector-curvature="0"
       id="path192"
       style="fill:none;stroke:#000000;stroke-width:1;stroke-linecap:butt;stroke-linejoin:miter;stroke-miterlimit:4;stroke-dasharray:none;stroke-opacity:1"
       d="m 115.166,137.884 0,-22.04453" /><path
       inkscape:connector-curvature="0"
       id="path194"
       style="fill:none;stroke:#000000;stroke-width:1;stroke-linecap:butt;stroke-linejoin:miter;stroke-miterlimit:4;stroke-dasharray:none;stroke-opacity:1"
       d="m 79.1664,137.884 0,-22.00954" /><path
       inkscape:connector-curvature="0"
       id="path196"
       style="fill:none;stroke:#000000;stroke-width:1;stroke-linecap:butt;stroke-linejoin:miter;stroke-miterlimit:4;stroke-dasharray:none;stroke-opacity:1"
       d="m 43.375,137.884 0,-22.04453" /><path
       inkscape:connector-curvature="0"
       id="path198"
       style="fill:#000000;fill-opacity:1;fill-rule:nonzero;stroke:none"
       d="m 163.834,180.87754 -141.334,0" /><path
       inkscape:connector-curvature="0"
       id="path200"
       style="fill:none;stroke:#000000;stroke-width:1;stroke-linecap:butt;stroke-linejoin:miter;stroke-miterlimit:4;stroke-dasharray:none;stroke-opacity:1"
       d="m 163.834,180.87754 -141.334,0" /><path
       inkscape:connector-curvature="0"
       id="path202"
       style="fill:#000000;fill-opacity:1;fill-rule:nonzero;stroke:none"
       d="m 159.929,192.75254 -137.054,0" /><path
       inkscape:connector-curvature="0"
       id="path204"
       style="fill:none;stroke:#000000;stroke-width:1;stroke-linecap:butt;stroke-linejoin:miter;stroke-miterlimit:4;stroke-dasharray:none;stroke-opacity:1"
       d="m 159.929,192.75254 -137.054,0" /><path
       inkscape:connector-curvature="0"
       id="path206"
       style="fill:#000000;fill-opacity:1;fill-rule:nonzero;stroke:none"
       d="m 155.012,205.04354 -132.262,0" /><path
       inkscape:connector-curvature="0"
       id="path208"
       style="fill:none;stroke:#000000;stroke-width:1;stroke-linecap:butt;stroke-linejoin:miter;stroke-miterlimit:4;stroke-dasharray:none;stroke-opacity:1"
       d="m 155.012,205.04354 -132.262,0" /><path
       inkscape:connector-curvature="0"
       id="path210"
       style="fill:#000000;fill-opacity:1;fill-rule:nonzero;stroke:none"
       d="m 150.762,217.37754 -128.012,0" /><path
       inkscape:connector-curvature="0"
       id="path212"
       style="fill:none;stroke:#000000;stroke-width:1;stroke-linecap:butt;stroke-linejoin:miter;stroke-miterlimit:4;stroke-dasharray:none;stroke-opacity:1"
       d="m 150.762,217.37754 -128.012,0" /><path
       inkscape:connector-curvature="0"
       id="path214"
       style="fill:#000000;fill-opacity:1;fill-rule:nonzero;stroke:none"
       d="m 144.5,229.87754 -121.75,0" /><path
       inkscape:connector-curvature="0"
       id="path216"
       style="fill:none;stroke:#000000;stroke-width:1;stroke-linecap:butt;stroke-linejoin:miter;stroke-miterlimit:4;stroke-dasharray:none;stroke-opacity:1"
       d="m 144.5,229.87754 -121.75,0" /><path
       inkscape:connector-curvature="0"
       id="path218"
       style="fill:#000000;fill-opacity:1;fill-rule:nonzero;stroke:none"
       d="m 139.5,241.97254 -116.75,0" /><path
       inkscape:connector-curvature="0"
       id="path220"
       style="fill:none;stroke:#000000;stroke-width:1;stroke-linecap:butt;stroke-linejoin:miter;stroke-miterlimit:4;stroke-dasharray:none;stroke-opacity:1"
       d="m 139.5,241.97254 -116.75,0" /><path
       inkscape:connector-curvature="0"
       id="path276"
       style="fill:none;stroke:#000000;stroke-width:1;stroke-linecap:butt;stroke-linejoin:miter;stroke-miterlimit:2;stroke-dasharray:none;stroke-opacity:1"
       d="m 136.75,168.716 c 0,0 -0.084,-10 -0.084,-14.5 0,-4.5 0,-7.25 2.834,-11 1.531,-2.025 4.5,-5.332 11.334,-5.332 6.832,0 8.717,1.945 11,4.166 3.082,3 4.332,5.416 4.5,10.5 0.163,5 0.125,16.166 0.125,16.166 l -29.709,0 z" /><path
       inkscape:connector-curvature="0"
       id="path280"
       style="fill:none;stroke:#000000;stroke-width:1;stroke-linecap:butt;stroke-linejoin:miter;stroke-miterlimit:2;stroke-dasharray:none;stroke-opacity:1"
       d="m 101.084,168.716 c 0,0 -0.084,-10 -0.084,-14.5 0,-4.5 0,-7.25 2.834,-11 1.53,-2.025 4.5,-5.332 11.332,-5.332 6.834,0 8.719,1.945 11,4.166 3.084,3 4.334,5.416 4.5,10.5 0.164,5 0,16.166 0,16.166 l -29.582,0 z" /><path
       inkscape:connector-curvature="0"
       id="path284"
       style="fill:none;stroke:#000000;stroke-width:1;stroke-linecap:butt;stroke-linejoin:miter;stroke-miterlimit:2;stroke-dasharray:none;stroke-opacity:1"
       d="m 65.0836,168.716 c 0,0 -0.0836,-10 -0.0836,-14.5 0,-4.5 0,-7.25 2.8336,-11 1.5309,-2.025 4.5,-5.332 11.3328,-5.332 6.8336,0 8.718,1.945 10.9996,4.166 3.084,3 4.334,5.416 4.5,10.5 0.1641,5 0,16.166 0,16.166 l -29.5824,0 z" /><path
       inkscape:connector-curvature="0"
       id="path288"
       style="fill:none;stroke:#000000;stroke-width:1;stroke-linecap:butt;stroke-linejoin:miter;stroke-miterlimit:2;stroke-dasharray:none;stroke-opacity:1"
       d="m 29.2914,168.716 c 0,0 -0.0828,-10 -0.0828,-14.5 0,-4.5 0,-7.25 2.8328,-11 1.5313,-2.025 4.5,-5.332 11.3336,-5.332 6.8336,0 8.718,1.945 11,4.166 3.0836,3 4.3336,5.416 4.5,10.5 0.1641,5 0,16.166 0,16.166 l -29.5836,0 z" /><text
       y="-126.90765"
       x="9.1156311"
       id="text4264"
       style="font-variant:normal;font-weight:normal;font-size:8px;font-family:Helvetica;-inkscape-font-specification:Helvetica;writing-mode:lr-tb;fill:#000000;fill-opacity:1;fill-rule:nonzero;stroke:none"
       transform="scale(1,-1)"><tspan
         id="tspan4266"
         sodipodi:role="line"
         y="-126.90765"
         x="9.1156311" /><tspan
         id="tspan4268"
         sodipodi:role="line"
         y="-178.90764"
         x="5.5 11.723999 16.171997">O<tspan
   style="font-style:normal;font-variant:normal;font-weight:normal;font-stretch:normal;font-family:Arial;-inkscape-font-specification:Arial"
   id="tspan4280">p0</tspan></tspan><tspan
         id="tspan4270"
         sodipodi:role="line"
         y="-191.40764"
         x="5.5 11.723999 16.171997"
         style="font-style:normal;font-variant:normal;font-weight:normal;font-stretch:normal;font-family:Arial;-inkscape-font-specification:Arial">Op1</tspan><tspan
         id="tspan4272"
         sodipodi:role="line"
         y="-203.53264"
         x="5.5 11.723999 16.171997"
         style="font-style:normal;font-variant:normal;font-weight:normal;font-stretch:normal;font-family:Arial;-inkscape-font-specification:Arial">Op2</tspan><tspan
         id="tspan4274"
         sodipodi:role="line"
         y="-215.78264"
         x="5.5 11.723999 16.171997"
         style="font-style:normal;font-variant:normal;font-weight:normal;font-stretch:normal;font-family:Arial;-inkscape-font-specification:Arial">Op3</tspan><tspan
         id="tspan4276"
         sodipodi:role="line"
         y="-228.65764"
         x="5.5 11.723999 16.171997"
         style="font-style:normal;font-variant:normal;font-weight:normal;font-stretch:normal;font-family:Arial;-inkscape-font-specification:Arial">Op4</tspan><tspan
         id="tspan4278"
         sodipodi:role="line"
         y="-240.78264"
         x="5.5 11.723999 16.171997"
         style="font-style:normal;font-variant:normal;font-weight:normal;font-stretch:normal;font-family:Arial;-inkscape-font-specification:Arial">Op5</tspan></text>
<text
       xml:space="preserve"
       style="font-style:normal;font-variant:normal;font-weight:bold;font-stretch:normal;font-size:12px;line-height:125%;font-family:Arial;-inkscape-font-specification:'Arial, Bold';text-align:center;letter-spacing:0px;word-spacing:0px;writing-mode:lr-tb;text-anchor:middle;fill:#000000;fill-opacity:1;stroke:none;stroke-width:1px;stroke-linecap:butt;stroke-linejoin:miter;stroke-opacity:1"
       x="43.343487"
       y="-105.9905"
       id="text4282"
       sodipodi:linespacing="125%"
       transform="scale(1,-1)"><tspan
         sodipodi:role="line"
         id="tspan4284"
         x="43.343487"
         y="-105.9905">A</tspan></text>
<text
       xml:space="preserve"
       style="font-style:normal;font-variant:normal;font-weight:bold;font-stretch:normal;font-size:12px;line-height:125%;font-family:Arial;-inkscape-font-specification:'Arial, Bold';text-align:center;letter-spacing:0px;word-spacing:0px;writing-mode:lr-tb;text-anchor:middle;fill:#000000;fill-opacity:1;stroke:none;stroke-width:1px;stroke-linecap:butt;stroke-linejoin:miter;stroke-opacity:1"
       x="78.913986"
       y="-105.70029"
       id="text4286"
       sodipodi:linespacing="125%"
       transform="scale(1,-1)"><tspan
         sodipodi:role="line"
         id="tspan4288"
         x="78.913986"
         y="-105.70029">B</tspan><tspan
         sodipodi:role="line"
         x="78.913986"
         y="-90.700287"
         id="tspan4290" /></text>
<text
       xml:space="preserve"
       style="font-style:normal;font-variant:normal;font-weight:bold;font-stretch:normal;font-size:12px;line-height:125%;font-family:Arial;-inkscape-font-specification:'Arial, Bold';text-align:center;letter-spacing:0px;word-spacing:0px;writing-mode:lr-tb;text-anchor:middle;fill:#000000;fill-opacity:1;stroke:none;stroke-width:1px;stroke-linecap:butt;stroke-linejoin:miter;stroke-opacity:1"
       x="114.89013"
       y="-105.81654"
       id="text4292"
       sodipodi:linespacing="125%"
       transform="scale(1,-1)"><tspan
         sodipodi:role="line"
         id="tspan4294"
         x="114.89013"
         y="-105.81654">C</tspan></text>
<text
       xml:space="preserve"
       style="font-style:normal;font-variant:normal;font-weight:bold;font-stretch:normal;font-size:12px;line-height:125%;font-family:Arial;-inkscape-font-specification:'Arial, Bold';text-align:center;letter-spacing:0px;word-spacing:0px;writing-mode:lr-tb;text-anchor:middle;fill:#000000;fill-opacity:1;stroke:none;stroke-width:1px;stroke-linecap:butt;stroke-linejoin:miter;stroke-opacity:1"
       x="151.20253"
       y="-105.79313"
       id="text4296"
       sodipodi:linespacing="125%"
       transform="scale(1,-1)"><tspan
         sodipodi:role="line"
         id="tspan4298"
         x="151.20253"
         y="-105.79313">D</tspan></text>
</g></svg>