<?xml version="1.0" encoding="UTF-8" standalone="no"?>
<!-- Created with Inkscape (http://www.inkscape.org/) -->

<svg
   xmlns:dc="http://purl.org/dc/elements/1.1/"
   xmlns:cc="http://creativecommons.org/ns#"
   xmlns:rdf="http://www.w3.org/1999/02/22-rdf-syntax-ns#"
   xmlns:svg="http://www.w3.org/2000/svg"
   xmlns="http://www.w3.org/2000/svg"
   xmlns:sodipodi="http://sodipodi.sourceforge.net/DTD/sodipodi-0.dtd"
   xmlns:inkscape="http://www.inkscape.org/namespaces/inkscape"
   id="svg2"
   version="1.1"
   inkscape:version="0.91 r13725"
   xml:space="preserve"
   width="450.21863"
   height="289.49509"
   viewBox="0 0 450.21863 289.49509"
   sodipodi:docname="detetorHazardForward-1.svg"><metadata
     id="metadata8"><rdf:RDF><cc:Work
         rdf:about=""><dc:format>image/svg+xml</dc:format><dc:type
           rdf:resource="http://purl.org/dc/dcmitype/StillImage" /><dc:title></dc:title></cc:Work></rdf:RDF></metadata><defs
     id="defs6" /><sodipodi:namedview
     pagecolor="#ffffff"
     bordercolor="#666666"
     borderopacity="1"
     objecttolerance="10"
     gridtolerance="10"
     guidetolerance="10"
     inkscape:pageopacity="0"
     inkscape:pageshadow="2"
     inkscape:window-width="1920"
     inkscape:window-height="1031"
     id="namedview4"
     showgrid="false"
     inkscape:zoom="2.77865"
     inkscape:cx="225.10931"
     inkscape:cy="144.74754"
     inkscape:window-x="1920"
     inkscape:window-y="30"
     inkscape:window-maximized="1"
     inkscape:current-layer="g10"
     inkscape:showpageshadow="false"
     fit-margin-top="8"
     fit-margin-left="8"
     fit-margin-right="8"
     fit-margin-bottom="8" /><g
     id="g10"
     inkscape:groupmode="layer"
     inkscape:label="ink_ext_XXXXXX"
     transform="matrix(1.25,0,0,-1.25,7.6098637,283.56004)"><text
       transform="scale(1,-1)"
       style="font-variant:normal;font-size:7px;font-family:Arial;-inkscape-font-specification:Arial;writing-mode:lr-tb;fill:#000000;fill-opacity:1;fill-rule:nonzero;stroke:none;font-weight:normal;font-style:normal;font-stretch:normal;"
       id="text112"
       x="172.041"
       y="-156.461"><tspan
         x="172.041 177.095 181.37199"
         y="-156.461"
         sodipodi:role="line"
         id="tspan114">ALU</tspan></text>
<path
       inkscape:connector-curvature="0"
       id="path126"
       style="fill:none;stroke:#000000;stroke-width:0.8;stroke-linecap:butt;stroke-linejoin:miter;stroke-miterlimit:4;stroke-dasharray:none;stroke-opacity:1"
       d="m 235.582,96.0191 39.668,0 0,70.707 -39.668,0 0,-70.707 z" /><text
       transform="scale(1,-1)"
       style="font-variant:normal;font-size:8px;font-family:Arial;-inkscape-font-specification:Arial;writing-mode:lr-tb;fill:#000000;fill-opacity:1;fill-rule:nonzero;stroke:none;font-weight:normal;font-style:normal;font-stretch:normal;"
       id="text134"
       x="246.74899"
       y="-133.679"><tspan
         x="246.74899 252.52499 256.97299 259.63699"
         y="-133.679"
         sodipodi:role="line"
         id="tspan136">Data</tspan><tspan
         x="239.85603 246.96803 251.41603 258.52802 263.41602 266.52802"
         y="-124.07822"
         sodipodi:role="line"
         id="tspan138">memory</tspan></text>
<path
       inkscape:connector-curvature="0"
       id="path140"
       style="fill:none;stroke:#000000;stroke-width:0.8;stroke-linecap:butt;stroke-linejoin:miter;stroke-miterlimit:4;stroke-dasharray:none;stroke-opacity:1"
       d="m 341.094,108.008 c 0,-3 -2.434,-5.434 -5.434,-5.434 -3,0 -5.437,2.434 -5.437,5.434 l 0,27.949 c 0,3.004 2.437,5.437 5.437,5.437 3,0 5.434,-2.433 5.434,-5.437 l 0,-27.949 z m -285.0549,20.629 -43.4692,0 0,70.711 43.4692,0 0,-70.711 z" /><text
       transform="scale(1,-1)"
       style="font-variant:normal;font-size:8px;font-family:Arial;-inkscape-font-specification:Arial;writing-mode:lr-tb;fill:#000000;fill-opacity:1;fill-rule:nonzero;stroke:none;font-weight:normal;font-style:normal;font-stretch:normal;"
       id="text144"
       x="16.075399"
       y="-161.496"><tspan
         x="16.075399 21.8514 26.2994 31.187401 33.4114 37.859402 40.523399 44.971401 48.083401"
         y="-161.496"
         sodipodi:role="line"
         id="tspan146">Registers</tspan><tspan
         x="332.32541"
         y="-127.1105"
         id="tspan148"
         style="-inkscape-font-specification:Arial;font-family:Arial;font-weight:normal;font-style:normal;font-stretch:normal;font-variant:normal;">M</tspan><tspan
         x="333.21252"
         y="-119.1105"
         id="tspan150"
         style="-inkscape-font-specification:Arial;font-family:Arial;font-weight:normal;font-style:normal;font-stretch:normal;font-variant:normal;">u</tspan><tspan
         x="333.43362"
         y="-111.1105"
         id="tspan152"
         style="-inkscape-font-specification:Arial;font-family:Arial;font-weight:normal;font-style:normal;font-stretch:normal;font-variant:normal;">x</tspan></text>
<path
       inkscape:connector-curvature="0"
       id="path154"
       style="fill:none;stroke:#000000;stroke-width:0.8;stroke-linecap:butt;stroke-linejoin:miter;stroke-miterlimit:4;stroke-dasharray:none;stroke-opacity:1"
       d="m 130.359,174.504 c 0,-3 -2.433,-5.434 -5.437,-5.434 -3,0 -5.434,2.434 -5.434,5.434 l 0,27.953 c 0,3 2.434,5.434 5.434,5.434 3.004,0 5.437,-2.434 5.437,-5.434 l 0,-27.953 z" /><text
       transform="scale(1,-1)"
       style="font-variant:normal;font-size:8px;font-family:Arial;-inkscape-font-specification:Arial;writing-mode:lr-tb;fill:#000000;fill-opacity:1;fill-rule:nonzero;stroke:none;font-weight:normal;font-style:normal;font-stretch:normal;"
       id="text158"
       x="121.592"
       y="-193.608"><tspan
         x="121.592"
         y="-193.608"
         id="tspan160"
         style="-inkscape-font-specification:Arial;font-family:Arial;font-weight:normal;font-style:normal;font-stretch:normal;font-variant:normal;">M</tspan><tspan
         x="122.47872"
         y="-185.608"
         id="tspan162"
         style="-inkscape-font-specification:Arial;font-family:Arial;font-weight:normal;font-style:normal;font-stretch:normal;font-variant:normal;">u</tspan><tspan
         x="122.69981"
         y="-177.608"
         id="tspan164"
         style="-inkscape-font-specification:Arial;font-family:Arial;font-weight:normal;font-style:normal;font-stretch:normal;font-variant:normal;">x</tspan><tspan
         x="121.592"
         y="-136.7471"
         id="tspan166"
         style="-inkscape-font-specification:Arial;font-family:Arial;font-weight:normal;font-style:normal;font-stretch:normal;font-variant:normal;">M</tspan><tspan
         x="122.47872"
         y="-128.7471"
         id="tspan168"
         style="-inkscape-font-specification:Arial;font-family:Arial;font-weight:normal;font-style:normal;font-stretch:normal;font-variant:normal;">u</tspan><tspan
         x="122.69981"
         y="-120.7471"
         id="tspan170"
         style="-inkscape-font-specification:Arial;font-family:Arial;font-weight:normal;font-style:normal;font-stretch:normal;font-variant:normal;">x</tspan><tspan
         x="121.592"
         y="-61.577606"
         id="tspan172"
         style="-inkscape-font-specification:Arial;font-family:Arial;font-weight:normal;font-style:normal;font-stretch:normal;font-variant:normal;">M</tspan><tspan
         x="122.47872"
         y="-53.577606"
         id="tspan174"
         style="-inkscape-font-specification:Arial;font-family:Arial;font-weight:normal;font-style:normal;font-stretch:normal;font-variant:normal;">u</tspan><tspan
         x="122.69982"
         y="-45.577606"
         id="tspan176"
         style="-inkscape-font-specification:Arial;font-family:Arial;font-weight:normal;font-style:normal;font-stretch:normal;font-variant:normal;">x</tspan></text>
<path
       inkscape:connector-curvature="0"
       id="path178"
       style="fill:none;stroke:#000000;stroke-width:0.8;stroke-linecap:butt;stroke-linejoin:miter;stroke-miterlimit:4;stroke-dasharray:none;stroke-opacity:1"
       d="m 167.148,193.18 20.551,-22.368 0,-23.308 -20.379,-22.363 0,27.718 3.469,6.614 -3.641,6.617 0,27.09 z M 305.039,49.5 l -13.496,0 0,160.098 13.496,0 0,-160.098 z m -92.199,0 -13.492,0 0,160.094 13.492,0 0,-160.094 z m -129.1412,0 -13.4918,0 0,160.094 13.4918,0 0,-160.094 z m 46.6602,-7.027 c 0,-3 -2.433,-5.4339 -5.437,-5.4339 -3,0 -5.434,2.4339 -5.434,5.4339 l 0,27.9532 c 0,3 2.434,5.4328 5.434,5.4328 3.004,0 5.437,-2.4328 5.437,-5.4328 l 0,-27.9532 z m 0,75.171 c 0,-3 -2.433,-5.433 -5.437,-5.433 -3,0 -5.434,2.433 -5.434,5.433 l 0,27.954 c 0,3 2.434,5.433 5.434,5.433 3.004,0 5.437,-2.433 5.437,-5.433 l 0,-27.954 z" /><path
       inkscape:connector-curvature="0"
       id="path180"
       style="fill:none;stroke:#231f20;stroke-width:0.75;stroke-linecap:butt;stroke-linejoin:miter;stroke-miterlimit:4;stroke-dasharray:none;stroke-opacity:1"
       d="m 56.273,182.57 10.3481,0" /><path
       inkscape:connector-curvature="0"
       id="path182"
       style="fill:#231f20;fill-opacity:1;fill-rule:nonzero;stroke:none"
       d="m 68.043,183.187 c -0.9961,0.301 -1.645,0.582 -2.441,0.903 l 0,-3.039 c 0.2851,0.136 1.4449,0.597 2.441,0.894 1.066,0.324 2.0308,0.543 2.6601,0.621 -0.6293,0.082 -1.5941,0.301 -2.6601,0.621" /><path
       inkscape:connector-curvature="0"
       id="path184"
       style="fill:none;stroke:#231f20;stroke-width:0.75;stroke-linecap:butt;stroke-linejoin:miter;stroke-miterlimit:4;stroke-dasharray:none;stroke-opacity:1"
       d="m 56.273,144.273 10.3481,0" /><path
       inkscape:connector-curvature="0"
       id="path186"
       style="fill:#231f20;fill-opacity:1;fill-rule:nonzero;stroke:none"
       d="m 68.043,144.894 c -0.9961,0.297 -1.645,0.579 -2.441,0.895 l 0,-3.035 c 0.2851,0.137 1.4449,0.597 2.441,0.898 1.066,0.321 2.0308,0.543 2.6601,0.621 -0.6293,0.078 -1.5941,0.297 -2.6601,0.621" /><path
       inkscape:connector-curvature="0"
       id="path188"
       style="fill:none;stroke:#231f20;stroke-width:0.75;stroke-linecap:butt;stroke-linejoin:miter;stroke-miterlimit:4;stroke-dasharray:none;stroke-opacity:1"
       d="m 130.359,188.355 33.118,0" /><path
       inkscape:connector-curvature="0"
       id="path190"
       style="fill:#231f20;fill-opacity:1;fill-rule:nonzero;stroke:none"
       d="m 164.898,188.973 c -0.996,0.3 -1.644,0.578 -2.441,0.898 l 0,-3.039 c 0.285,0.137 1.445,0.598 2.441,0.898 1.067,0.325 2.032,0.543 2.661,0.621 -0.629,0.079 -1.594,0.297 -2.661,0.622" /><path
       inkscape:connector-curvature="0"
       id="path192"
       style="fill:none;stroke:#231f20;stroke-width:0.75;stroke-linecap:butt;stroke-linejoin:miter;stroke-miterlimit:4;stroke-dasharray:none;stroke-opacity:1"
       d="m 129.996,130.781 33.481,0" /><path
       inkscape:connector-curvature="0"
       id="path194"
       style="fill:#231f20;fill-opacity:1;fill-rule:nonzero;stroke:none"
       d="m 164.898,131.398 c -0.996,0.301 -1.644,0.578 -2.441,0.903 l 0,-3.039 c 0.285,0.136 1.445,0.597 2.441,0.898 1.067,0.32 2.032,0.543 2.661,0.621 -0.629,0.078 -1.594,0.297 -2.661,0.617" /><path
       inkscape:connector-curvature="0"
       id="path196"
       style="fill:none;stroke:#231f20;stroke-width:0.75;stroke-linecap:butt;stroke-linejoin:miter;stroke-miterlimit:4;stroke-dasharray:none;stroke-opacity:1"
       d="m 187.656,159.203 7.953,0" /><path
       inkscape:connector-curvature="0"
       id="path198"
       style="fill:#231f20;fill-opacity:1;fill-rule:nonzero;stroke:none"
       d="m 197.027,159.82 c -0.992,0.301 -1.64,0.578 -2.441,0.899 l 0,-3.039 c 0.285,0.136 1.449,0.597 2.441,0.898 1.067,0.32 2.035,0.543 2.661,0.621 -0.626,0.078 -1.594,0.297 -2.661,0.621" /><path
       inkscape:connector-curvature="0"
       id="path200"
       style="fill:none;stroke:#231f20;stroke-width:0.75;stroke-linecap:butt;stroke-linejoin:miter;stroke-miterlimit:4;stroke-dasharray:none;stroke-opacity:1"
       d="m 213.195,159.203 18.551,0" /><path
       inkscape:connector-curvature="0"
       id="path202"
       style="fill:#231f20;fill-opacity:1;fill-rule:nonzero;stroke:none"
       d="m 233.168,159.82 c -0.996,0.301 -1.641,0.578 -2.441,0.899 l 0,-3.039 c 0.285,0.136 1.445,0.597 2.441,0.898 1.066,0.32 2.035,0.543 2.66,0.621 -0.625,0.078 -1.594,0.297 -2.66,0.621" /><path
       inkscape:connector-curvature="0"
       id="path204"
       style="fill:none;stroke:#231f20;stroke-width:0.75;stroke-linecap:butt;stroke-linejoin:miter;stroke-miterlimit:4;stroke-dasharray:none;stroke-opacity:1"
       d="m 212.715,109.812 18.551,0" /><path
       inkscape:connector-curvature="0"
       id="path206"
       style="fill:#231f20;fill-opacity:1;fill-rule:nonzero;stroke:none"
       d="m 232.688,110.43 c -0.997,0.3 -1.645,0.578 -2.442,0.898 l 0,-3.039 c 0.285,0.137 1.445,0.598 2.442,0.898 1.066,0.325 2.031,0.543 2.66,0.621 -0.629,0.079 -1.594,0.297 -2.66,0.622" /><path
       inkscape:connector-curvature="0"
       id="path208"
       style="fill:none;stroke:#231f20;stroke-width:0.75;stroke-linecap:butt;stroke-linejoin:miter;stroke-miterlimit:4;stroke-dasharray:none;stroke-opacity:1"
       d="m 156.816,130.773 0,-21.683 39.27,0" /><path
       inkscape:connector-curvature="0"
       id="path210"
       style="fill:#231f20;fill-opacity:1;fill-rule:nonzero;stroke:none"
       d="m 196.547,109.707 c -0.996,0.301 -1.645,0.574 -2.442,0.898 l 0,-3.039 c 0.286,0.137 1.446,0.598 2.442,0.899 1.066,0.32 2.031,0.543 2.66,0.621 -0.629,0.078 -1.594,0.301 -2.66,0.621" /><path
       inkscape:connector-curvature="0"
       id="path212"
       style="fill:none;stroke:#231f20;stroke-width:0.75;stroke-linecap:butt;stroke-linejoin:miter;stroke-miterlimit:4;stroke-dasharray:none;stroke-opacity:1"
       d="m 275.355,132.219 12.047,0" /><path
       inkscape:connector-curvature="0"
       id="path214"
       style="fill:#231f20;fill-opacity:1;fill-rule:nonzero;stroke:none"
       d="m 288.824,132.836 c -0.996,0.301 -1.64,0.578 -2.441,0.898 l 0,-3.039 c 0.285,0.137 1.445,0.602 2.441,0.899 1.067,0.324 2.031,0.543 2.66,0.621 -0.629,0.078 -1.593,0.301 -2.66,0.621" /><path
       inkscape:connector-curvature="0"
       id="path216"
       style="fill:none;stroke:#231f20;stroke-width:0.75;stroke-linecap:butt;stroke-linejoin:miter;stroke-miterlimit:4;stroke-dasharray:none;stroke-opacity:1"
       d="m 305.23,132.219 20.239,0" /><path
       inkscape:connector-curvature="0"
       id="path218"
       style="fill:#231f20;fill-opacity:1;fill-rule:nonzero;stroke:none"
       d="m 326.891,132.836 c -0.996,0.301 -1.641,0.578 -2.442,0.898 l 0,-3.039 c 0.285,0.137 1.446,0.602 2.442,0.899 1.066,0.324 2.035,0.543 2.66,0.621 -0.625,0.078 -1.594,0.301 -2.66,0.621" /><path
       inkscape:connector-curvature="0"
       id="path220"
       style="fill:none;stroke:#231f20;stroke-width:0.75;stroke-linecap:butt;stroke-linejoin:miter;stroke-miterlimit:4;stroke-dasharray:none;stroke-opacity:1"
       d="m 305.23,83.5512 13.973,0 0,24.5738 6.746,0" /><path
       inkscape:connector-curvature="0"
       id="path222"
       style="fill:#231f20;fill-opacity:1;fill-rule:nonzero;stroke:none"
       d="m 327.375,108.742 c -1,0.301 -1.645,0.578 -2.445,0.899 l 0,-3.04 c 0.285,0.137 1.445,0.598 2.445,0.899 1.066,0.324 2.031,0.543 2.656,0.621 -0.625,0.078 -1.59,0.301 -2.656,0.621" /><path
       inkscape:connector-curvature="0"
       id="path224"
       style="fill:none;stroke:#231f20;stroke-width:0.75;stroke-linecap:butt;stroke-linejoin:miter;stroke-miterlimit:4;stroke-dasharray:none;stroke-opacity:1"
       d="m 340.891,122.742 6.421,0 0,-119.49981 -343.08505,0 0,140.05881 4.4961,0" /><path
       inkscape:connector-curvature="0"
       id="path226"
       style="fill:#231f20;fill-opacity:1;fill-rule:nonzero;stroke:none"
       d="m 10.1449,143.922 c -0.99685,0.301 -1.64099,0.574 -2.44177,0.894 l 0,-3.039 c 0.28476,0.137 1.44492,0.602 2.44177,0.903 1.066,0.32 2.0352,0.543 2.6602,0.621 -0.625,0.074 -1.5942,0.297 -2.6602,0.621" /><path
       inkscape:connector-curvature="0"
       id="path228"
       style="fill:none;stroke:#231f20;stroke-width:0.75;stroke-linecap:butt;stroke-linejoin:miter;stroke-miterlimit:4;stroke-dasharray:none;stroke-opacity:1"
       d="m 0.312109,192.129 8.032031,0" /><path
       inkscape:connector-curvature="0"
       id="path230"
       style="fill:#231f20;fill-opacity:1;fill-rule:nonzero;stroke:none"
       d="m 9.76602,192.75 c -0.9961,0.297 -1.64493,0.574 -2.44219,0.898 l 0,-3.043 c 0.28515,0.141 1.44609,0.602 2.44219,0.903 1.06598,0.32 2.03088,0.539 2.66018,0.621 -0.6293,0.078 -1.5942,0.297 -2.66018,0.621" /><path
       inkscape:connector-curvature="0"
       id="path232"
       style="fill:none;stroke:#231f20;stroke-width:0.75;stroke-linecap:butt;stroke-linejoin:miter;stroke-miterlimit:4;stroke-dasharray:none;stroke-opacity:1"
       d="m 0.312109,175.258 8.032031,0" /><path
       inkscape:connector-curvature="0"
       id="path234"
       style="fill:#231f20;fill-opacity:1;fill-rule:nonzero;stroke:none"
       d="m 9.76602,175.875 c -0.9961,0.301 -1.64493,0.578 -2.44219,0.898 l 0,-3.039 c 0.28515,0.137 1.44609,0.598 2.44219,0.899 1.06598,0.324 2.03088,0.543 2.66018,0.621 -0.6293,0.078 -1.5942,0.301 -2.66018,0.621" /><path
       inkscape:connector-curvature="0"
       id="path236"
       style="fill:none;stroke:#231f20;stroke-width:0.75;stroke-linecap:butt;stroke-linejoin:miter;stroke-miterlimit:4;stroke-dasharray:none;stroke-opacity:1"
       d="m 0.312109,183.691 8.032031,0" /><path
       inkscape:connector-curvature="0"
       id="path238"
       style="fill:#231f20;fill-opacity:1;fill-rule:nonzero;stroke:none"
       d="m 9.76602,184.312 c -0.9961,0.297 -1.64493,0.579 -2.44219,0.899 l 0,-3.039 c 0.28515,0.136 1.44609,0.597 2.44219,0.898 1.06598,0.321 2.03088,0.539 2.66018,0.621 -0.6293,0.078 -1.5942,0.297 -2.66018,0.621" /><text
       transform="scale(1,-1)"
       style="font-variant:normal;font-size:8px;font-family:Arial;-inkscape-font-specification:Arial;writing-mode:lr-tb;fill:#000000;fill-opacity:1;fill-rule:nonzero;stroke:none;font-weight:normal;font-style:normal;font-stretch:normal;"
       id="text242"
       x="66.505898"
       y="-214.614"><tspan
         x="66.505898 68.729897 74.505898 76.729897 82.065903 190.3091 195.64511 200.98111 203.20511 209.86911 215.20511"
         y="-214.614"
         sodipodi:role="line"
         id="tspan244">ID/EXEX/MEM</tspan></text>
<path
       inkscape:connector-curvature="0"
       id="path246"
       style="fill:none;stroke:#231f20;stroke-width:0.75;stroke-linecap:butt;stroke-linejoin:miter;stroke-miterlimit:4;stroke-dasharray:none;stroke-opacity:1"
       d="m 130.312,55.8441 65.54,0" /><path
       inkscape:connector-curvature="0"
       id="path248"
       style="fill:#231f20;fill-opacity:1;fill-rule:nonzero;stroke:none"
       d="m 197.27,56.4609 c -0.997,0.3012 -1.645,0.5782 -2.442,0.8981 l 0,-3.0391 c 0.285,0.1371 1.445,0.602 2.442,0.8992 1.066,0.3239 2.031,0.543 2.66,0.6207 -0.629,0.0782 -1.594,0.3012 -2.66,0.6211" /><path
       inkscape:connector-curvature="0"
       id="path250"
       style="fill:none;stroke:#231f20;stroke-width:0.75;stroke-linecap:butt;stroke-linejoin:miter;stroke-miterlimit:4;stroke-dasharray:none;stroke-opacity:1"
       d="m 223.312,158.961 0,-146.9688 -111.308,0 0,163.3558 3.855,0" /><path
       inkscape:connector-curvature="0"
       id="path252"
       style="fill:#231f20;fill-opacity:1;fill-rule:nonzero;stroke:none"
       d="m 116.801,175.965 c -0.996,0.301 -1.645,0.574 -2.446,0.894 l 0,-3.035 c 0.286,0.133 1.45,0.598 2.446,0.899 1.062,0.32 2.031,0.543 2.656,0.621 -0.625,0.078 -1.594,0.297 -2.656,0.621" /><path
       inkscape:connector-curvature="0"
       id="path254"
       style="fill:none;stroke:#231f20;stroke-width:0.75;stroke-linecap:butt;stroke-linejoin:miter;stroke-miterlimit:4;stroke-dasharray:none;stroke-opacity:1"
       d="m 106.223,3.31992 0,184.55508 9.156,0" /><path
       inkscape:connector-curvature="0"
       id="path256"
       style="fill:#231f20;fill-opacity:1;fill-rule:nonzero;stroke:none"
       d="m 116.801,188.492 c -0.996,0.301 -1.645,0.574 -2.446,0.899 l 0,-3.04 c 0.286,0.137 1.45,0.598 2.446,0.899 1.062,0.32 2.031,0.543 2.656,0.621 -0.625,0.078 -1.594,0.297 -2.656,0.621" /><path
       inkscape:connector-curvature="0"
       id="path258"
       style="fill:#231f20;fill-opacity:1;fill-rule:nonzero;stroke:none"
       d="m 288.824,84.168 c -0.996,0.3011 -1.64,0.5781 -2.441,0.898 l 0,-3.039 c 0.285,0.1371 1.445,0.6019 2.441,0.8992 1.067,0.3238 2.031,0.5429 2.66,0.6207 -0.629,0.0781 -1.593,0.3011 -2.66,0.6211" /><path
       inkscape:connector-curvature="0"
       id="path260"
       style="fill:none;stroke:#231f20;stroke-width:0.75;stroke-linecap:butt;stroke-linejoin:miter;stroke-miterlimit:4;stroke-dasharray:none;stroke-opacity:1"
       d="m 212.715,63.0699 75.168,0 m -0.481,20.4813 -64.09,0" /><path
       inkscape:connector-curvature="0"
       id="path262"
       style="fill:#231f20;fill-opacity:1;fill-rule:nonzero;stroke:none"
       d="m 289.309,63.6871 c -0.997,0.3008 -1.645,0.5789 -2.446,0.8988 l 0,-3.0347 c 0.289,0.1359 1.449,0.5968 2.446,0.8937 1.062,0.3242 2.031,0.543 2.656,0.6211 -0.625,0.0781 -1.594,0.3012 -2.656,0.6211" /><path
       inkscape:connector-curvature="0"
       id="path264"
       style="fill:none;stroke:#231f20;stroke-width:0.75;stroke-linecap:butt;stroke-linejoin:miter;stroke-miterlimit:4;stroke-dasharray:none;stroke-opacity:1"
       d="m 105.738,130.531 9.641,0" /><path
       inkscape:connector-curvature="0"
       id="path266"
       style="fill:#231f20;fill-opacity:1;fill-rule:nonzero;stroke:none"
       d="m 116.801,131.148 c -0.996,0.301 -1.645,0.578 -2.446,0.899 l 0,-3.035 c 0.286,0.136 1.45,0.597 2.446,0.894 1.062,0.324 2.031,0.543 2.656,0.621 -0.625,0.078 -1.594,0.301 -2.656,0.621" /><path
       inkscape:connector-curvature="0"
       id="path268"
       style="fill:none;stroke:#231f20;stroke-width:0.75;stroke-linecap:butt;stroke-linejoin:miter;stroke-miterlimit:4;stroke-dasharray:none;stroke-opacity:1"
       d="m 83.6988,144.023 33.0042,0" /><path
       inkscape:connector-curvature="0"
       id="path270"
       style="fill:#231f20;fill-opacity:1;fill-rule:nonzero;stroke:none"
       d="m 117.16,144.644 c -0.996,0.297 -1.64,0.575 -2.441,0.895 l 0,-3.039 c 0.285,0.141 1.445,0.601 2.441,0.902 1.067,0.321 2.031,0.539 2.66,0.621 -0.629,0.078 -1.593,0.297 -2.66,0.621" /><path
       inkscape:connector-curvature="0"
       id="path272"
       style="fill:none;stroke:#231f20;stroke-width:0.75;stroke-linecap:butt;stroke-linejoin:miter;stroke-miterlimit:4;stroke-dasharray:none;stroke-opacity:1"
       d="m 111.52,118.484 3.976,0" /><path
       inkscape:connector-curvature="0"
       id="path274"
       style="fill:#231f20;fill-opacity:1;fill-rule:nonzero;stroke:none"
       d="m 116.922,119.105 c -1,0.297 -1.645,0.575 -2.445,0.895 l 0,-3.035 c 0.285,0.136 1.445,0.597 2.445,0.898 1.062,0.32 2.027,0.539 2.656,0.621 -0.629,0.078 -1.594,0.297 -2.656,0.621" /><text
       transform="scale(1,-1)"
       style="font-variant:normal;font-size:8px;font-family:Arial;-inkscape-font-specification:Arial;writing-mode:lr-tb;fill:#000000;fill-opacity:1;fill-rule:nonzero;stroke:none;font-weight:normal;font-style:normal;font-stretch:normal;"
       id="text278"
       x="281.40201"
       y="-214.616"><tspan
         x="281.40201 288.06601 293.40201 300.06601 302.29001 309.84201"
         y="-214.616"
         sodipodi:role="line"
         id="tspan280">MEM/WB</tspan></text>
<path
       inkscape:connector-curvature="0"
       id="path282"
       style="fill:none;stroke:#ff0000;stroke-width:0.8;stroke-linecap:butt;stroke-linejoin:miter;stroke-miterlimit:4;stroke-dasharray:none;stroke-opacity:1"
       d="m 198.738,33.918 c 0,-7.4489 -5.125,-13.4879 -11.441,-13.4879 l -20,0 c -6.32,0 -11.445,6.039 -11.445,13.4879 0,7.4531 5.125,13.4922 11.445,13.4922 l 20,0 c 6.316,0 11.441,-6.0391 11.441,-13.4922 z" /><text
       transform="scale(1,-1)"
       style="font-variant:normal;font-size:7px;font-family:Arial;-inkscape-font-specification:Arial;writing-mode:lr-tb;fill:#ff0000;fill-opacity:1;fill-rule:nonzero;stroke:none;font-weight:normal;font-style:normal;font-stretch:normal;"
       id="text286"
       x="159.79201"
       y="-35.8992"><tspan
         x="159.79201 164.069 167.961 170.29201 175.34599 179.23801 181.569 185.461 187.015 190.907"
         y="-35.8992"
         sodipodi:role="line"
         id="tspan288">Forwarding</tspan><tspan
         x="171.6537 175.5457 179.4377 180.9917"
         y="-27.499201"
         sodipodi:role="line"
         id="tspan290">unit</tspan></text>
<path
       inkscape:connector-curvature="0"
       id="path292"
       style="fill:none;stroke:#231f20;stroke-width:0.75;stroke-linecap:butt;stroke-linejoin:miter;stroke-miterlimit:4;stroke-dasharray:none;stroke-opacity:1"
       d="m 83.8121,54.1559 30.3599,0" /><path
       inkscape:connector-curvature="0"
       id="path294"
       style="fill:#231f20;fill-opacity:1;fill-rule:nonzero;stroke:none"
       d="m 116.559,54.773 c -0.997,0.3008 -1.645,0.5782 -2.442,0.8989 l 0,-3.0348 c 0.285,0.1359 1.445,0.5969 2.442,0.8938 1.066,0.3242 2.031,0.5429 2.66,0.6211 -0.629,0.0781 -1.594,0.3011 -2.66,0.621" /><path
       inkscape:connector-curvature="0"
       id="path296"
       style="fill:none;stroke:#231f20;stroke-width:0.75;stroke-linecap:butt;stroke-linejoin:miter;stroke-miterlimit:4;stroke-dasharray:none;stroke-opacity:1"
       d="m 83.8121,61.3871 30.3599,0" /><path
       inkscape:connector-curvature="0"
       id="path298"
       style="fill:#231f20;fill-opacity:1;fill-rule:nonzero;stroke:none"
       d="m 116.559,62.0039 c -0.997,0.3012 -1.645,0.5742 -2.442,0.8941 l 0,-3.0351 c 0.285,0.1371 1.445,0.598 2.442,0.8992 1.066,0.3199 2.031,0.543 2.66,0.6211 -0.629,0.0738 -1.594,0.2969 -2.66,0.6207" /><path
       inkscape:connector-curvature="0"
       id="path300"
       style="fill:none;stroke:#231f20;stroke-width:0.75;stroke-linecap:butt;stroke-linejoin:miter;stroke-miterlimit:4;stroke-dasharray:none;stroke-opacity:1"
       d="m 83.8121,74.3941 16.1449,0 0,-39.0312 52.766,0" /><path
       inkscape:connector-curvature="0"
       id="path302"
       style="fill:#231f20;fill-opacity:1;fill-rule:nonzero;stroke:none"
       d="m 153.18,35.9801 c -0.996,0.3008 -1.645,0.5777 -2.442,0.8988 l 0,-3.0348 c 0.285,0.136 1.446,0.5969 2.442,0.8938 1.066,0.3242 2.031,0.543 2.66,0.6211 -0.629,0.0781 -1.594,0.3012 -2.66,0.6211" /><path
       inkscape:connector-curvature="0"
       id="path304"
       style="fill:none;stroke:#231f20;stroke-width:0.75;stroke-linecap:butt;stroke-linejoin:miter;stroke-miterlimit:4;stroke-dasharray:none;stroke-opacity:1"
       d="m 84.0551,68.6129 9.8789,0 0,-39.9957 59.027,0" /><path
       inkscape:connector-curvature="0"
       id="path306"
       style="fill:#231f20;fill-opacity:1;fill-rule:nonzero;stroke:none"
       d="m 154.383,29.234 c -0.996,0.3012 -1.641,0.5781 -2.442,0.8988 l 0,-3.0348 c 0.286,0.1321 1.446,0.5969 2.442,0.8981 1.066,0.3199 2.031,0.5391 2.66,0.6168 -0.629,0.0781 -1.594,0.3012 -2.66,0.6211" /><path
       inkscape:connector-curvature="0"
       id="path308"
       style="fill:none;stroke:#231f20;stroke-width:0.75;stroke-linecap:butt;stroke-linejoin:miter;stroke-miterlimit:4;stroke-dasharray:none;stroke-opacity:1"
       d="m 219.941,62.5898 0,-26.5039 -17.832,0" /><path
       inkscape:connector-curvature="0"
       id="path310"
       style="fill:#231f20;fill-opacity:1;fill-rule:nonzero;stroke:none"
       d="m 201.652,35.4691 c 0.996,-0.3011 1.641,-0.575 2.442,-0.8992 l 0,3.0391 c -0.285,-0.136 -1.446,-0.5969 -2.442,-0.8981 -1.066,-0.3199 -2.031,-0.5429 -2.66,-0.6211 0.629,-0.0777 1.594,-0.2968 2.66,-0.6207" /><path
       inkscape:connector-curvature="0"
       id="path312"
       style="fill:none;stroke:#231f20;stroke-width:0.75;stroke-linecap:butt;stroke-linejoin:miter;stroke-miterlimit:4;stroke-dasharray:none;stroke-opacity:1"
       d="m 305.23,62.5898 12.528,0 0,-32.766 -115.164,0" /><path
       inkscape:connector-curvature="0"
       id="path314"
       style="fill:#231f20;fill-opacity:1;fill-rule:nonzero;stroke:none"
       d="m 201.168,29.207 c 1,-0.3011 1.644,-0.5781 2.445,-0.8992 l 0,3.0363 c -0.285,-0.1332 -1.445,-0.598 -2.445,-0.8992 -1.063,-0.3199 -2.027,-0.539 -2.656,-0.6211 0.629,-0.0777 1.593,-0.2968 2.656,-0.6168" /><path
       inkscape:connector-curvature="0"
       id="path316"
       style="fill:none;stroke:#ff0000;stroke-width:0.8;stroke-linecap:butt;stroke-linejoin:miter;stroke-miterlimit:4;stroke-dasharray:none;stroke-opacity:1"
       d="m 161.152,45.7262 -10.117,0 0,115.1648 -26.504,0 0,4.816" /><path
       inkscape:connector-curvature="0"
       id="path318"
       style="fill:#ff0000;fill-opacity:1;fill-rule:nonzero;stroke:none"
       d="m 123.914,166.168 c -0.301,-0.996 -0.578,-1.645 -0.898,-2.442 l 3.039,0 c -0.137,0.286 -0.598,1.446 -0.899,2.442 -0.32,1.066 -0.543,2.031 -0.621,2.656 -0.078,-0.625 -0.301,-1.59 -0.621,-2.656" /><path
       inkscape:connector-curvature="0"
       id="path320"
       style="fill:none;stroke:#ff0000;stroke-width:0.8;stroke-linecap:butt;stroke-linejoin:miter;stroke-miterlimit:4;stroke-dasharray:none;stroke-opacity:1"
       d="m 157.297,40.9059 -13.008,0 0,57.8242 -19.273,0 0,9.6369" /><path
       inkscape:connector-curvature="0"
       id="path322"
       style="fill:#ff0000;fill-opacity:1;fill-rule:nonzero;stroke:none"
       d="m 124.395,109.387 c -0.301,-0.996 -0.579,-1.645 -0.899,-2.442 l 3.039,0 c -0.137,0.285 -0.597,1.446 -0.898,2.442 -0.321,1.066 -0.543,2.031 -0.621,2.66 -0.078,-0.629 -0.297,-1.594 -0.621,-2.66" /><text
       transform="scale(1,-1)"
       style="font-variant:normal;font-size:6.49997997px;font-family:Arial;-inkscape-font-specification:Arial;writing-mode:lr-tb;fill:#000000;fill-opacity:1;fill-rule:nonzero;stroke:none;font-weight:normal;font-style:normal;font-stretch:normal;"
       id="text326"
       x="227.007"
       y="-66.926201"><tspan
         x="227.007 231.34248 235.67798 237.48497 242.89944 247.23494 252.64943 254.45642 259.14941 262.7634 266.37738 267.82037 271.07037 272.87735 276.49136 278.65585 283.34882"
         y="-66.926201"
         sodipodi:role="line"
         id="tspan328">EX/MEM.RegisterRd</tspan><tspan
         x="227.007 232.42148 236.75697 242.17145 243.97845 250.11443 254.44992 256.2569 260.94989 264.56387 268.17789 269.62088 272.87085 274.67786 278.29184 280.45633 285.14932"
         y="-32.2309"
         sodipodi:role="line"
         id="tspan330">MEM/WB.RegisterRd</tspan></text>
<text
       transform="scale(1,-1)"
       style="font-variant:normal;font-size:5px;font-family:Arial;-inkscape-font-specification:Arial;writing-mode:lr-tb;fill:#000000;fill-opacity:1;fill-rule:nonzero;stroke:none;font-weight:normal;font-style:normal;font-stretch:normal;"
       id="text332"
       x="84.652"
       y="-75.881699"><tspan
         x="84.652 88.262001"
         y="-75.881699"
         sodipodi:role="line"
         id="tspan334">Rs</tspan><tspan
         x="84.652 88.262001"
         y="-69.5942"
         sodipodi:role="line"
         id="tspan336">Rt</tspan><tspan
         x="84.652 88.262001"
         y="-62.271931"
         sodipodi:role="line"
         id="tspan338">Rt</tspan><tspan
         x="84.652 88.262001"
         y="-55.234039"
         sodipodi:role="line"
         id="tspan340">Rd</tspan></text>
<text
       transform="scale(1,-1)"
       style="font-variant:normal;font-size:7px;font-family:Arial;-inkscape-font-specification:Arial;writing-mode:lr-tb;fill:#ff0000;fill-opacity:1;fill-rule:nonzero;stroke:none;font-weight:normal;font-style:normal;font-stretch:normal;"
       id="text344"
       x="113.046"
       y="-92.466003"><tspan
         x="113.046 117.323 121.215 123.546 128.60001 132.492 134.823 138.715"
         y="-92.466003"
         sodipodi:role="line"
         id="tspan346">ForwardB</tspan><tspan
         x="127.6601 131.9371 135.8291 138.1601 143.2141 147.10609 149.4371 153.3291"
         y="-162.8148"
         sodipodi:role="line"
         id="tspan348">ForwardA</tspan></text>
<path
       inkscape:connector-curvature="0"
       id="path350"
       style="fill:#231f20;fill-opacity:1;fill-rule:nonzero;stroke:none"
       d="m 224.762,158.961 c 0,-0.797 -0.649,-1.445 -1.45,-1.445 -0.796,0 -1.445,0.648 -1.445,1.445 0,0.801 0.649,1.445 1.445,1.445 0.801,0 1.45,-0.644 1.45,-1.445" /><path
       inkscape:connector-curvature="0"
       id="path352"
       style="fill:#231f20;fill-opacity:1;fill-rule:nonzero;stroke:none"
       d="m 107.668,130.531 c 0,-0.797 -0.648,-1.445 -1.445,-1.445 -0.801,0 -1.45,0.648 -1.45,1.445 0,0.797 0.649,1.445 1.45,1.445 0.797,0 1.445,-0.648 1.445,-1.445" /><path
       inkscape:connector-curvature="0"
       id="path358"
       style="fill:#231f20;fill-opacity:1;fill-rule:nonzero;stroke:none"
       d="m 107.668,3.09805 c 0,-0.79688 -0.648,-1.4461 -1.445,-1.4461 -0.801,0 -1.45,0.64922 -1.45,1.4461 0,0.8 0.649,1.44883 1.45,1.44883 0.797,0 1.445,-0.64883 1.445,-1.44883" /><path
       inkscape:connector-curvature="0"
       id="path360"
       style="fill:#231f20;fill-opacity:1;fill-rule:nonzero;stroke:none"
       d="m 158.262,130.531 c 0,-0.797 -0.649,-1.445 -1.446,-1.445 -0.8,0 -1.445,0.648 -1.445,1.445 0,0.797 0.645,1.445 1.445,1.445 0.797,0 1.446,-0.648 1.446,-1.445" /><path
       inkscape:connector-curvature="0"
       id="path362"
       style="fill:#231f20;fill-opacity:1;fill-rule:nonzero;stroke:none"
       d="m 221.629,63.0699 c 0,-0.7969 -0.649,-1.4449 -1.445,-1.4449 -0.801,0 -1.446,0.648 -1.446,1.4449 0,0.7973 0.645,1.4461 1.446,1.4461 0.796,0 1.445,-0.6488 1.445,-1.4461" /><path
       inkscape:connector-curvature="0"
       id="path364"
       style="fill:#231f20;fill-opacity:1;fill-rule:nonzero;stroke:none"
       d="m 113.449,118.648 c 0,-0.797 -0.648,-1.449 -1.445,-1.449 -0.801,0 -1.445,0.652 -1.445,1.449 0,0.797 0.644,1.446 1.445,1.446 0.797,0 1.445,-0.649 1.445,-1.446" /><path
       inkscape:connector-curvature="0"
       id="path366"
       style="fill:none;stroke:#231f20;stroke-width:0.75;stroke-linecap:butt;stroke-linejoin:miter;stroke-miterlimit:4;stroke-dasharray:none;stroke-opacity:1"
       d="m 84.0039,198.715 32.6441,0" /><path
       inkscape:connector-curvature="0"
       id="path368"
       style="fill:#231f20;fill-opacity:1;fill-rule:nonzero;stroke:none"
       d="m 117.105,199.332 c -0.996,0.301 -1.64,0.578 -2.441,0.898 l 0,-3.039 c 0.285,0.141 1.445,0.602 2.441,0.899 1.067,0.324 2.036,0.543 2.661,0.621 -0.625,0.082 -1.594,0.301 -2.661,0.621" /><g
       transform="matrix(0.8,0,0,-0.8,-153.36626,311.09696)"
       id="layer1"
       inkscape:label="Camada 1"><text
         sodipodi:linespacing="100%"
         id="text4894"
         y="368.73376"
         x="252.28816"
         style="font-style:normal;font-weight:normal;font-size:10px;line-height:100%;font-family:sans-serif;text-align:center;letter-spacing:0px;word-spacing:0px;writing-mode:lr-tb;text-anchor:middle;opacity:0.93999999;fill:#000000;fill-opacity:1;stroke:none;stroke-width:1px;stroke-linecap:butt;stroke-linejoin:miter;stroke-opacity:1"
         xml:space="preserve"><tspan
           style="font-style:normal;font-variant:normal;font-weight:bold;font-stretch:normal;font-size:5px;line-height:100%;font-family:Arial;-inkscape-font-specification:'Arial Bold';text-align:center;letter-spacing:0px;word-spacing:0px;text-anchor:middle"
           y="368.73376"
           x="252.98152"
           id="tspan4304"
           sodipodi:role="line">COD 4Ed, Copyright © 2009 </tspan><tspan
           id="tspan4308"
           style="font-style:normal;font-variant:normal;font-weight:normal;font-stretch:normal;font-size:5px;line-height:100%;font-family:Arial;-inkscape-font-specification:Arial;text-align:center;letter-spacing:0px;word-spacing:0px;text-anchor:middle"
           y="373.73376"
           x="252.28816"
           sodipodi:role="line"><tspan
   style="font-style:normal;font-variant:normal;font-weight:bold;font-stretch:normal;font-size:5px;line-height:100%;font-family:Arial;-inkscape-font-specification:'Arial Bold'"
   id="tspan4252">  Elsevier, Inc. All rights reserved</tspan>.</tspan><tspan
           y="378.73376"
           x="252.28816"
           id="tspan4306"
           sodipodi:role="line"
           style="line-height:100%" /></text>
</g></g></svg>