<?xml version="1.0" encoding="UTF-8" standalone="no"?>
<svg
   xmlns:dc="http://purl.org/dc/elements/1.1/"
   xmlns:cc="http://creativecommons.org/ns#"
   xmlns:rdf="http://www.w3.org/1999/02/22-rdf-syntax-ns#"
   xmlns:svg="http://www.w3.org/2000/svg"
   xmlns="http://www.w3.org/2000/svg"
   xmlns:sodipodi="http://sodipodi.sourceforge.net/DTD/sodipodi-0.dtd"
   xmlns:inkscape="http://www.inkscape.org/namespaces/inkscape"
   viewBox="0 0 388.81482 93.017709"
   height="93.017708"
   width="388.81482"
   xml:space="preserve"
   version="1.1"
   id="svg2"
   inkscape:version="0.91 r13725"
   sodipodi:docname="fluxoSimplificadoCOD4Ed-1.svg"><sodipodi:namedview
     pagecolor="#ffffff"
     bordercolor="#666666"
     borderopacity="1"
     objecttolerance="10"
     gridtolerance="10"
     guidetolerance="10"
     inkscape:pageopacity="0"
     inkscape:pageshadow="2"
     inkscape:window-width="1855"
     inkscape:window-height="1056"
     id="namedview83"
     showgrid="false"
     inkscape:zoom="2.6058979"
     inkscape:cx="179.83847"
     inkscape:cy="-54.209108"
     inkscape:window-x="1985"
     inkscape:window-y="24"
     inkscape:window-maximized="1"
     inkscape:current-layer="svg2"
     fit-margin-top="8"
     fit-margin-right="8"
     fit-margin-left="8"
     fit-margin-bottom="8" /><metadata
     id="metadata8"><rdf:RDF><cc:Work
         rdf:about=""><dc:format>image/svg+xml</dc:format><dc:type
           rdf:resource="http://purl.org/dc/dcmitype/StillImage" /><dc:title></dc:title></cc:Work></rdf:RDF></metadata><defs
     id="defs6"><clipPath
       id="clipPath152"
       clipPathUnits="userSpaceOnUse"><path
         id="path154"
         d="m 232.105,1263.13 2965.79,0 0,523.395 -2965.79,0 0,-523.395 z"
         inkscape:connector-curvature="0" /></clipPath></defs><text
     style="font-style:normal;font-variant:normal;font-weight:normal;font-stretch:normal;font-size:10px;line-height:125%;font-family:Helvetica;-inkscape-font-specification:'Helvetica, Normal';text-align:start;writing-mode:lr-tb;text-anchor:start;fill:#000000;fill-opacity:1;fill-rule:nonzero;stroke:none"
     id="text18"
     y="82.749016"
     sodipodi:linespacing="125%"
     x="8.5668612"><tspan
       sodipodi:role="line"
       id="tspan4415"
       style="font-style:normal;font-variant:normal;font-weight:normal;font-stretch:normal;font-size:7.5px;font-family:sans-serif;-inkscape-font-specification:sans-serif;fill:#000000;fill-opacity:1"
       x="8.5668612"
       y="82.749016">FIGURE 4.28 Graphical representation of the instruction pipeline.</tspan></text>
<path
     id="path96"
     style="fill:none;stroke:#000000;stroke-width:0.625;stroke-linecap:butt;stroke-linejoin:miter;stroke-miterlimit:4;stroke-dasharray:none;stroke-opacity:1"
     d="m 80.681115,19.016526 294.445755,0"
     inkscape:connector-curvature="0" /><path
     id="path98"
     style="fill:#231f20;fill-opacity:1;fill-rule:nonzero;stroke:none"
     d="m 376.23437,18.536526 c -0.775,-0.235 -1.28,-0.45125 -1.90125,-0.7 l 0,2.365 c 0.2225,-0.10625 1.12625,-0.46625 1.90125,-0.7 0.8275,-0.25 1.58125,-0.4225 2.06875,-0.4825 -0.4875,-0.06125 -1.24125,-0.2325 -2.06875,-0.4825"
     inkscape:connector-curvature="0" /><path
     id="path100"
     style="fill:none;stroke:#231f20;stroke-width:0.625;stroke-linecap:butt;stroke-linejoin:miter;stroke-miterlimit:4;stroke-dasharray:none;stroke-opacity:1"
     d="m 134.77937,22.450276 0,-3.5425 m 54.56375,3.5425 0,-3.5425 m 54.56375,3.5425 0,-3.5425 m 54.56125,3.5425 0,-3.5425 m 54.56375,3.5425 0,-3.5425"
     inkscape:connector-curvature="0" /><text
     style="font-variant:normal;font-weight:normal;font-size:10.00038719px;font-family:Helvetica;-inkscape-font-specification:Helvetica;writing-mode:lr-tb;fill:#000000;fill-opacity:1;fill-rule:nonzero;stroke:none"
     id="text104"
     x="50.498486"
     y="21.685276"><tspan
       x="50.498486 56.608723 58.828808 67.159134"
       y="21.685276"
       id="tspan106">Time</tspan><tspan
       x="7.5799837 13.140203 18.700418 24.260614 27.040167 32.600475 37.600986 43.160686 45.940281 48.721096 54.281315 57.06142 62.621639 65.401749 68.181854 73.742081 76.522179"
       y="52.184776"
       id="tspan108">add $s0, $t0, $t1</tspan></text>
<path
     id="path110"
     style="fill:#b2b1b1;fill-opacity:1;fill-rule:nonzero;stroke:none"
     d="m 107.37312,35.450276 0,27.081251 14.45375,0 0,-27.056251 -14.45375,-0.025"
     inkscape:connector-curvature="0" /><path
     id="path112"
     style="fill:none;stroke:#231f20;stroke-width:0.625;stroke-linecap:butt;stroke-linejoin:miter;stroke-miterlimit:4;stroke-dasharray:none;stroke-opacity:1"
     d="m 121.51562,62.556527 -26.589385,0 0,-27.081251 26.589385,0 0,27.081251 z m 162.5375,-0.21875 -26.185,0 0,-26.667501 26.185,0 0,26.667501 z"
     inkscape:connector-curvature="0" /><text
     style="font-variant:normal;font-weight:normal;font-size:10.00038719px;font-family:Helvetica;-inkscape-font-specification:Helvetica;writing-mode:lr-tb;fill:#000000;fill-opacity:1;fill-rule:nonzero;stroke:none"
     id="text116"
     x="103.79935"
     y="52.174026"><tspan
       x="103.79935 106.57947"
       y="52.174026"
       id="tspan118">IF</tspan><tspan
       x="259.01312 267.34341 274.0137"
       y="52.172562"
       id="tspan120">MEM</tspan></text>
<path
     id="path122"
     style="fill:#b2b1b1;fill-opacity:1;fill-rule:nonzero;stroke:none"
     d="m 162.00562,36.075276 0,25.832501 13.7875,0 0,-25.808751 -13.7875,-0.02375"
     inkscape:connector-curvature="0" /><path
     id="path124"
     style="fill:none;stroke:#231f20;stroke-width:0.625;stroke-linecap:butt;stroke-linejoin:miter;stroke-miterlimit:4;stroke-dasharray:none;stroke-opacity:1"
     d="m 162.00562,36.099026 13.49,0 0,25.832501 -13.49,0"
     inkscape:connector-curvature="0" /><path
     id="path126"
     style="fill:none;stroke:#231f20;stroke-width:0.625;stroke-linecap:butt;stroke-linejoin:miter;stroke-miterlimit:4;stroke-dasharray:1.25, 1.25;stroke-dashoffset:0;stroke-opacity:1"
     d="m 161.99812,36.099026 -11.865,0 0,25.832501 11.865,0"
     inkscape:connector-curvature="0" /><text
     style="font-variant:normal;font-weight:normal;font-size:10.00038719px;font-family:Helvetica;-inkscape-font-specification:Helvetica;writing-mode:lr-tb;fill:#000000;fill-opacity:1;fill-rule:nonzero;stroke:none"
     id="text130"
     x="158.38437"
     y="52.174026"><tspan
       x="158.38437 161.16447"
       y="52.174026"
       id="tspan132">ID</tspan></text>
<path
     id="path134"
     style="fill:#b2b1b1;fill-opacity:1;fill-rule:nonzero;stroke:none"
     d="m 326.69187,35.659026 0,26.247501 -14.0075,0 0,-26.222501 14.0075,-0.025"
     inkscape:connector-curvature="0" /><path
     id="path136"
     style="fill:none;stroke:#231f20;stroke-width:0.625;stroke-linecap:butt;stroke-linejoin:miter;stroke-miterlimit:4;stroke-dasharray:none;stroke-opacity:1"
     d="m 326.67062,35.680276 -13.92375,0 0,26.225001 13.92375,0"
     inkscape:connector-curvature="0" /><path
     id="path138"
     style="fill:none;stroke:#231f20;stroke-width:0.625;stroke-linecap:butt;stroke-linejoin:miter;stroke-miterlimit:4;stroke-dasharray:1.25, 1.25;stroke-dashoffset:0;stroke-opacity:1"
     d="m 326.44937,35.684026 12.05625,0 0,26.245001 -12.05625,0"
     inkscape:connector-curvature="0" /><text
     style="font-variant:normal;font-weight:normal;font-size:10.00038719px;font-family:Helvetica;-inkscape-font-specification:Helvetica;writing-mode:lr-tb;fill:#000000;fill-opacity:1;fill-rule:nonzero;stroke:none"
     id="text142"
     x="317.14062"
     y="52.172775"><tspan
       x="317.14062 326.58047"
       y="52.172775"
       id="tspan144">WB</tspan></text>
<path
     id="path146"
     style="fill:#b2b1b1;fill-opacity:1;fill-rule:nonzero;stroke:none"
     d="m 209.15187,26.607776 22.5,12.0825 0,20.420001 -22.70875,12.29 0,-17.292501 6.25125,-5.415 -6.0425,-3.335 0,-18.75"
     inkscape:connector-curvature="0" /><path
     id="path156"
     style="fill:none;stroke:#231f20;stroke-width:0.625;stroke-linecap:butt;stroke-linejoin:miter;stroke-miterlimit:4;stroke-dasharray:none;stroke-opacity:1"
     d="m 209.15187,26.607776 22.5,12.0825 0,20.420001 -22.70875,12.29 0,-17.292501 6.25125,-5.415 -6.0425,-3.335 0,-18.75 z m -87.71125,22.3975 28.6925,0 m 25.05875,-9.21 33.7525,0 m -33.12625,17.5 33.125,0 m 22.50125,-8.29 26.25125,0 m 26.3275,0 28.69375,0 m -162.67375,-4.19875 -4.17625,0 0,4.30125"
     inkscape:connector-curvature="0" /><text
     style="font-variant:normal;font-weight:normal;font-size:10.00038719px;font-family:Helvetica;-inkscape-font-specification:Helvetica;writing-mode:lr-tb;fill:#000000;fill-opacity:1;fill-rule:nonzero;stroke:none"
     id="text160"
     x="216.65062"
     y="52.172775"><tspan
       x="216.65062 223.32088"
       y="52.172775"
       id="tspan162">EX</tspan><tspan
       x="126.43773 131.99796 137.55817 181.00026 186.56047 192.12068 235.56418 241.12439 246.6846 290.12909 295.6893 301.24951 341.91177 347.47202 353.03223 358.59244"
       y="15.090275"
       id="tspan164">2004006008001000</tspan></text>
<text
     xml:space="preserve"
     style="font-style:normal;font-weight:normal;font-size:10px;line-height:125%;font-family:sans-serif;text-align:start;letter-spacing:0px;word-spacing:0px;writing-mode:lr-tb;text-anchor:start;opacity:0.93999999;fill:#000000;fill-opacity:1;stroke:none;stroke-width:1px;stroke-linecap:butt;stroke-linejoin:miter;stroke-opacity:1"
     x="260.42664"
     y="74.082649"
     id="text4894"
     sodipodi:linespacing="125%"><tspan
       sodipodi:role="line"
       id="tspan4304"
       x="260.42664"
       y="74.082649"
       style="font-size:7.5px">COD 4Ed, Copyright © 2009 </tspan><tspan
       sodipodi:role="line"
       x="260.42664"
       y="83.457649"
       style="font-size:7.5px"
       id="tspan4308">Elsevier, Inc. All rights reserved.</tspan><tspan
       sodipodi:role="line"
       id="tspan4306"
       x="260.42664"
       y="92.832649" /></text>
</svg>