<?xml version="1.0" encoding="UTF-8" standalone="no"?>
<svg
   xmlns:dc="http://purl.org/dc/elements/1.1/"
   xmlns:cc="http://creativecommons.org/ns#"
   xmlns:rdf="http://www.w3.org/1999/02/22-rdf-syntax-ns#"
   xmlns:svg="http://www.w3.org/2000/svg"
   xmlns="http://www.w3.org/2000/svg"
   xmlns:sodipodi="http://sodipodi.sourceforge.net/DTD/sodipodi-0.dtd"
   xmlns:inkscape="http://www.inkscape.org/namespaces/inkscape"
   viewBox="0 0 549.65436 343.11237"
   height="343.11237"
   width="549.65436"
   xml:space="preserve"
   version="1.1"
   id="svg2"
   inkscape:version="0.91 r13725"
   sodipodi:docname="fluxoDadosFinal-1.svg"><sodipodi:namedview
     pagecolor="#ffffff"
     bordercolor="#666666"
     borderopacity="1"
     objecttolerance="10"
     gridtolerance="10"
     guidetolerance="10"
     inkscape:pageopacity="0"
     inkscape:pageshadow="2"
     inkscape:window-width="1920"
     inkscape:window-height="1031"
     id="namedview215"
     showgrid="false"
     fit-margin-left="8"
     fit-margin-bottom="8"
     fit-margin-right="8"
     fit-margin-top="8"
     inkscape:zoom="2.2759758"
     inkscape:cx="274.82718"
     inkscape:cy="171.55619"
     inkscape:window-x="1920"
     inkscape:window-y="30"
     inkscape:window-maximized="1"
     inkscape:current-layer="svg2" /><metadata
     id="metadata8"><rdf:RDF><cc:Work
         rdf:about=""><dc:format>image/svg+xml</dc:format><dc:type
           rdf:resource="http://purl.org/dc/dcmitype/StillImage" /><dc:title></dc:title></cc:Work></rdf:RDF></metadata><defs
     id="defs6"><clipPath
       id="clipPath34"
       clipPathUnits="userSpaceOnUse"><path
         id="path36"
         d="m 115,408 0,2617 4270,0 0,-2617 -4270,0 z"
         inkscape:connector-curvature="0" /></clipPath><clipPath
       id="clipPath52"
       clipPathUnits="userSpaceOnUse"><path
         id="path54"
         d="m 115,408 0,2617 4270,0 0,-2617 -4270,0 z"
         inkscape:connector-curvature="0" /></clipPath><clipPath
       id="clipPath82"
       clipPathUnits="userSpaceOnUse"><path
         id="path84"
         d="m 115,408 0,2617 4270,0 0,-2617 -4270,0 z"
         inkscape:connector-curvature="0" /></clipPath></defs><path
     id="path38"
     style="fill:none;stroke:#231f20;stroke-width:0.9375;stroke-linecap:butt;stroke-linejoin:miter;stroke-miterlimit:4;stroke-dasharray:none;stroke-opacity:1"
     d="m 19.535125,194.04375 -4.797375,0 0,-107.43625 91.38188,0 0,36.425 m -43.85988,61.38 0,-74.10875 20.669,0 m -27.727125,74.6125 11.59575,0 m -31.46675,0 5.209375,0 m 181.53187,-70.07375 4.5375,0 0,-106.37375 -215.10012,0 0,167.92 9.24325,0"
     inkscape:connector-curvature="0" /><path
     id="path40"
     style="fill:none;stroke:#231f20;stroke-width:0.625;stroke-linecap:butt;stroke-linejoin:miter;stroke-miterlimit:4;stroke-dasharray:none;stroke-opacity:1"
     d="m 97.550255,123.41125 15.712505,0"
     inkscape:connector-curvature="0" /><path
     id="path42"
     style="fill:none;stroke:#231f20;stroke-width:0.9375;stroke-linecap:butt;stroke-linejoin:miter;stroke-miterlimit:4;stroke-dasharray:none;stroke-opacity:1"
     d="m 149.47562,40.73375 -6.04875,0 0,246.01625 122.73001,0 m -136.34126,-102.3375 13.61126,0 m -34.28337,0.50375 4.28712,0"
     inkscape:connector-curvature="0" /><path
     id="path44"
     style="fill:none;stroke:#000000;stroke-width:0.625;stroke-linecap:butt;stroke-linejoin:miter;stroke-miterlimit:4;stroke-dasharray:none;stroke-opacity:1"
     d="m 164.71938,88.5375 c 0,-14.19875 5.41624,-25.7125 12.09874,-25.7125 6.68126,0 12.1,11.51375 12.1,25.7125 0,14.19875 -5.41874,25.71 -12.1,25.71 -6.6825,0 -12.09874,-11.51125 -12.09874,-25.71 z"
     inkscape:connector-curvature="0" /><path
     id="path46"
     style="fill:none;stroke:#231f20;stroke-width:0.625;stroke-linecap:butt;stroke-linejoin:miter;stroke-miterlimit:4;stroke-dasharray:none;stroke-opacity:1"
     d="m 182.24437,141.05625 c 0,-8.075 3.83875,-14.61875 8.57125,-14.61875 4.73375,0 8.56875,6.54375 8.56875,14.61875 0,8.075 -3.835,14.6225 -8.56875,14.6225 -4.7325,0 -8.57125,-6.5475 -8.57125,-14.6225 z m 68.39625,30.50125 c 0,-8.77 3.0075,-15.87875 6.72001,-15.87875 3.71375,0 6.72125,7.10875 6.72125,15.87875 0,8.77 -3.0075,15.88 -6.72125,15.88 -3.7125,0 -6.72001,-7.11 -6.72001,-15.88 z m -70.39499,65.73 c 0,-12.85375 4.905,-23.27625 10.95375,-23.27625 6.04875,0 10.9525,10.4225 10.9525,23.27625 0,12.85125 -4.90375,23.27375 -10.9525,23.27375 -6.04875,0 -10.95375,-10.4225 -10.95375,-23.27375 z"
     inkscape:connector-curvature="0" /><path
     id="path56"
     style="fill:none;stroke:#231f20;stroke-width:0.9375;stroke-linecap:butt;stroke-linejoin:miter;stroke-miterlimit:4;stroke-dasharray:none;stroke-opacity:1"
     d="m 197.70562,201.555 -28.5675,0 0,126.53387 372.04751,0 0,-134.09762 -7.5575,0 m -267.9425,82.67875 -122.25875,0 m 13.1075,-110.91 0,104.35475 109.15125,0 M 149.98062,158.7025 l 0,104.85762 115.98876,0 m -62.55126,-162.33262 -12.6025,0 0,25.21 m 0,29.24125 0,54.94875 17.64501,0 0,26.21375 m -5.0425,-113.43 -73.09875,0 m 67.38625,61.00125 -35.1225,0 0,150.23112 291.39125,0 0,-29.74362 m -310.5475,-139.14 54.27875,0 m -54.27875,-7.0575 54.27875,0 m -40.16375,-106.20625 0,88.56 18.15,0 0,160.31637 113.42875,0 0,-24.70262"
     inkscape:connector-curvature="0" /><path
     id="path58"
     style="fill:none;stroke:#231f20;stroke-width:0.625;stroke-linecap:butt;stroke-linejoin:miter;stroke-miterlimit:4;stroke-dasharray:none;stroke-opacity:1"
     d="m 405.57812,292.29737 -11.59375,0 0,-173.42362 11.59375,0 0,173.42363 z m 88.2225,0 -11.59125,0 0,-173.42362 11.59125,0 0,173.42363 z m -211.1325,0 -11.59375,0 0,-173.42362 11.59375,0 0,173.42363 z m -152.8525,0 -11.59588,0 0,-173.42362 11.59588,0 0,173.42363 z"
     inkscape:connector-curvature="0" /><path
     id="path60"
     style="fill:none;stroke:#000000;stroke-width:0.625;stroke-linecap:butt;stroke-linejoin:miter;stroke-miterlimit:4;stroke-dasharray:none;stroke-opacity:1"
     d="m 493.80063,118.87375 -11.59125,0 0,-20.24875 11.59125,0 0,20.24875 z m -88.31,0 -11.59501,0 0,-40.4975 11.59501,0 0,40.4975 z"
     inkscape:connector-curvature="0" /><path
     id="path62"
     style="fill:none;stroke:#231f20;stroke-width:0.625;stroke-linecap:butt;stroke-linejoin:miter;stroke-miterlimit:4;stroke-dasharray:none;stroke-opacity:1"
     d="m 55.201625,200.79625 -11.09075,0 0,-31.25875 11.09075,0 0,31.25875 z m 190.968995,8.07125 -43.85999,0 0,-69.0675 43.86,0 0,69.0675 z m 226.96126,8.56375 -37.81,0 0,-70.075 37.81,0 0,70.075 z m -363.98837,2.02 -37.81001,0 0,-70.075 37.81001,0 0,70.075 z"
     inkscape:connector-curvature="0" /><path
     id="path64"
     style="fill:none;stroke:#231f20;stroke-width:0.9375;stroke-linecap:butt;stroke-linejoin:miter;stroke-miterlimit:4;stroke-dasharray:none;stroke-opacity:1"
     d="m 266.05813,68.66125 -3.2525,0 0,40.3325 3.63125,0 M 256.35312,88.625 l 9.075,0 m 0.5025,147.715 -63.7725,0 m -21.9025,0 -35.57875,0 m 44.52375,-147.51375 51.02,0 m -96.79375,-0.07375 16.50875,0"
     inkscape:connector-curvature="0" /><path
     id="path66"
     style="fill:none;stroke:#231f20;stroke-width:0.625;stroke-linecap:butt;stroke-linejoin:miter;stroke-miterlimit:4;stroke-dasharray:none;stroke-opacity:1"
     d="m 250.80687,67.075 0,-28.8625 -52.93375,0"
     inkscape:connector-curvature="0" /><path
     id="path68"
     style="fill:none;stroke:#231f20;stroke-width:0.9375;stroke-linecap:butt;stroke-linejoin:miter;stroke-miterlimit:4;stroke-dasharray:none;stroke-opacity:1"
     d="m 282.06313,68.965 102.33875,0 0,19.1575 8.57375,0 m -110.40751,0 98.30501,0 0,19.15625 12.1025,0 m -135.74,39.19875 0,5.585 m 0,39.24125 0,4.2 m -10.965,0.62875 20.24999,0 m -20.25,-49.7325 24.80375,0"
     inkscape:connector-curvature="0" /><path
     id="path70"
     style="fill:none;stroke:#231f20;stroke-width:0.625;stroke-linecap:butt;stroke-linejoin:miter;stroke-miterlimit:4;stroke-dasharray:none;stroke-opacity:1"
     d="m 405.82938,89.13 66.7975,0 0,19.66125 9.075,0"
     inkscape:connector-curvature="0" /><path
     id="path72"
     style="fill:none;stroke:#231f20;stroke-width:0.9375;stroke-linecap:butt;stroke-linejoin:miter;stroke-miterlimit:4;stroke-dasharray:none;stroke-opacity:1"
     d="m 82.42725,137.52875 -7.5645,0 m 402.97663,44.86875 -4.7075,0 m 44.36249,0.50125 -23.69375,0 m 0,40.83625 20.16625,0 0,-18.14875 3.4425,0 m -39.82375,18.14875 -51.84375,0 m 5.715,-41.3375 -25.87875,0 m -14.87,0 -15.88125,0 m -23.025,23.69375 -15.46125,0 m -27.05375,9.075 10.58625,0 m -4.53375,-9.075 4.6625,0 m 173.79875,76.12362 8.06375,0 0,22.68513 -106.37125,0 m 17.14375,-24.19875 0,15.1235 -17.3925,0 m 10.33375,-15.1235 72.59501,0 m -141.8325,0.50487 52.54125,0 m -106.21376,6.04788 37.54125,0 m -37.54125,-10.084 37.625,0 m -37.625,-6.54988 12.505,0 0,38.3135 48.39625,0 m -60.90125,-46.37987 18.04875,0 0,38.81887 41.465,0 m -21.55,-141.66262 -5.2925,0 0,168.37887 m 5.85875,-133.53387 -38.345,0 m 69.6225,-35.4875 -16.47,0 m 89.73625,23.33 0,138.63475 -116.455,0 0,-150.73475 10.8375,0"
     inkscape:connector-curvature="0" /><path
     id="path74"
     style="fill:none;stroke:#000000;stroke-width:0.625;stroke-linecap:butt;stroke-linejoin:miter;stroke-miterlimit:4;stroke-dasharray:none;stroke-opacity:1"
     d="m 271.07437,98.54 11.59375,0 m -11.59375,-20.50125 11.59375,0 m 0,40.835 -11.59375,0 0,-60.3275 11.59375,0 0,60.3275 z M 393.98437,98.205 l 11.59375,0"
     inkscape:connector-curvature="0" /><path
     id="path76"
     style="fill:none;stroke:#231f20;stroke-width:0.625;stroke-linecap:butt;stroke-linejoin:miter;stroke-miterlimit:4;stroke-dasharray:none;stroke-opacity:1"
     d="m 84.61725,101.92625 13.100495,14.2575 0,14.8575 -12.988245,14.25375 0,-17.66875 2.21,-4.215 -2.32225,-4.21625 0,-17.26875 z m 123.69088,-9.67 13.10249,14.255 0,14.85875 -12.99,14.2575 0,-17.67 2.21125,-4.21625 -2.32374,-4.215 0,-17.27 z m 148.38874,60.40625 18.13,19.73 0,20.56125 -17.97625,19.7275 0,-24.45 3.05875,-5.83375 -3.2125,-5.83625 0,-23.89875 z M 35.306625,195.49875 c 0,3.14125 -2.545875,5.685 -5.686,5.685 -3.140625,0 -5.688,-2.54375 -5.688,-5.685 l 0,-22.23875 c 0,-3.1425 2.547375,-5.68625 5.688,-5.68625 3.140125,0 5.686,2.54375 5.686,5.68625 l 0,22.23875 z m 221.187745,-96.09 c 0,3.14125 -2.5475,5.68625 -5.6875,5.68625 -3.13875,0 -5.68625,-2.545 -5.68625,-5.68625 l 0,-22.23875 c 0,-3.13875 2.5475,-5.68625 5.68625,-5.68625 3.14,0 5.6875,2.5475 5.6875,5.68625 l 0,22.23875 z m 79.82375,70.75 c 0,3.1375 -2.54624,5.6825 -5.68875,5.6825 -3.14,0 -5.68625,-2.545 -5.68625,-5.6825 l 0,-22.24 c 0,-3.1425 2.54625,-5.6875 5.68625,-5.6875 3.1425,0 5.68875,2.545 5.68875,5.6875 l 0,22.24 z m 0,123.00975 c 0,3.14012 -2.54624,5.68162 -5.68875,5.68162 -3.14,0 -5.68625,-2.5415 -5.68625,-5.68162 l 0,-22.23875 c 0,-3.1435 2.54625,-5.686 5.68625,-5.686 3.1425,0 5.68875,2.5425 5.68875,5.686 l 0,22.23875 z m 197.31,-87.721 c 0,3.13875 -2.5475,5.685 -5.68875,5.685 -3.1375,0 -5.68375,-2.54625 -5.68375,-5.685 l 0,-22.24 c 0,-3.14125 2.54625,-5.6875 5.68375,-5.6875 3.14125,0 5.68875,2.54625 5.68875,5.6875 l 0,22.24 z m -197.31,11.7625 c 0,3.13875 -2.54625,5.68375 -5.68875,5.68375 -3.14,0 -5.68625,-2.545 -5.68625,-5.68375 l 0,-22.24 c 0,-3.14 2.54625,-5.685 5.68625,-5.685 3.1425,0 5.68875,2.545 5.68875,5.685 l 0,22.24 z"
     inkscape:connector-curvature="0" /><path
     id="path86"
     style="fill:none;stroke:#000000;stroke-width:0.625;stroke-linecap:butt;stroke-linejoin:miter;stroke-miterlimit:4;stroke-dasharray:none;stroke-opacity:1"
     d="m 330.62937,225.24875 0,6.34125 8.3575,0 0,65.016 7.675,0 m -16.0325,-116.64725 0,5.04625 12.04625,0 0,106.91113 5.185,0 m -116.79,-156.27988 0,-110.495 276.1525,0 0,285.2035 -114.1225,0 m -195.375,-278.406 91.66125,0 0,55.8475 m -134.87,-51.91875 -30.42,0 0,79.1625 m 30.45625,-83.0525 -104.796245,0 0,137.30875 M 185.82687,71.0225 l 20.1075,0 0,-52.24875 -197.62187,0 0,268.446 109.90676,0 m 272.05386,16.78912 c 0,5.186 -3.145,9.38713 -7.02375,9.38713 l -29.20625,0 c -3.8775,0 -7.0225,-4.20113 -7.0225,-9.38713 l 0,-6.13775 c 0,-5.1875 3.145,-9.38712 7.0225,-9.38712 l 29.20625,0 c 3.87875,0 7.02375,4.19962 7.02375,9.38712 l 0,6.13775 z M 197.77187,39.24125 c 0,5.185 -3.145,9.39 -7.025,9.39 l -29.2025,0 c -3.87875,0 -7.02125,-4.205 -7.02125,-9.39 l 0,-6.13625 c 0,-5.18625 3.1425,-9.38875 7.02125,-9.38875 l 29.2025,0 c 3.88,0 7.025,4.2025 7.025,9.38875 l 0,6.13625 z"
     inkscape:connector-curvature="0" /><text
     style="font-style:normal;font-variant:normal;font-weight:normal;font-stretch:normal;font-size:6.25px;font-family:Arial;-inkscape-font-specification:Arial;writing-mode:lr-tb;fill:#000000;fill-opacity:1;fill-rule:nonzero;stroke:none"
     id="text90"
     x="165.70813"
     y="90.483749"><tspan
       style="font-style:normal;font-variant:normal;font-weight:normal;font-stretch:normal;font-family:Arial;-inkscape-font-specification:Arial;fill:#000000;fill-opacity:1"
       x="165.70813 170.22063 174.03937 177.85812 179.93938 182.37062 186.18938"
       y="90.483749"
       id="tspan92">Control</tspan><tspan
       style="font-style:normal;font-variant:normal;font-weight:normal;font-stretch:normal;font-family:Arial;-inkscape-font-specification:Arial;fill:#000000;fill-opacity:1"
       x="165.72815 170.24065 173.71564 176.84064 180.31502 182.74626"
       y="30.621876"
       id="tspan94">Hazard</tspan><tspan
       style="font-style:normal;font-variant:normal;font-weight:normal;font-stretch:normal;font-family:Arial;-inkscape-font-specification:Arial;fill:#000000;fill-opacity:1"
       x="162.25598 166.075 169.55026 171.63179 175.10706 178.58232 180.66223 182.39929 186.21831"
       y="38.121876"
       id="tspan96">detection</tspan><tspan
       style="font-style:normal;font-variant:normal;font-weight:normal;font-stretch:normal;font-family:Arial;-inkscape-font-specification:Arial;fill:#000000;fill-opacity:1"
       x="170.41809 174.23711 178.05612 179.7939"
       y="45.621876"
       id="tspan98">unit</tspan></text>
<text
     style="font-style:normal;font-variant:normal;font-weight:normal;font-stretch:normal;font-size:6.04967499px;font-family:Arial;-inkscape-font-specification:Arial;writing-mode:lr-tb;fill:#231f20;fill-opacity:1;fill-rule:nonzero;stroke:none"
     id="text102"
     x="89.399376"
     y="125.42751"><tspan
       style="font-style:normal;font-variant:normal;font-weight:normal;font-stretch:normal;font-family:Arial;-inkscape-font-specification:Arial"
       x="89.399376"
       y="125.42751"
       id="tspan104">+</tspan></text>
<text
     style="font-style:normal;font-variant:normal;font-weight:normal;font-stretch:normal;font-size:6.25px;font-family:Arial;-inkscape-font-specification:Arial;writing-mode:lr-tb;fill:#231f20;fill-opacity:1;fill-rule:nonzero;stroke:none"
     id="text106"
     x="68.809502"
     y="139.54225"><tspan
       style="font-style:normal;font-variant:normal;font-weight:normal;font-stretch:normal;font-family:Arial;-inkscape-font-specification:Arial"
       x="68.809502"
       y="139.54225"
       id="tspan108">4</tspan></text>
<text
     style="font-style:normal;font-variant:normal;font-weight:normal;font-stretch:normal;font-size:6.25px;font-family:Arial;-inkscape-font-specification:Arial;writing-mode:lr-tb;fill:#231f20;fill-opacity:1;fill-rule:nonzero;stroke:none"
     id="text110"
     x="45.314877"
     y="187.11349"><tspan
       style="font-style:normal;font-variant:normal;font-weight:normal;font-stretch:normal;font-family:Arial;-inkscape-font-specification:Arial"
       x="45.314877 49.483624"
       y="187.11349"
       id="tspan112">PC</tspan><tspan
       style="font-style:normal;font-variant:normal;font-weight:normal;font-stretch:normal;font-family:Arial;-inkscape-font-specification:Arial"
       x="74.090752 75.828247 79.647003 83.122002 85.203247 87.634499 91.452621 94.927979 97.009567 98.746368 102.56297"
       y="182.66576"
       id="tspan114">Instruction</tspan><tspan
       style="font-style:normal;font-variant:normal;font-weight:normal;font-stretch:normal;font-family:Arial;-inkscape-font-specification:Arial"
       x="78.0811 83.637352 87.11235 92.668602 96.487358 98.918602"
       y="190.16576"
       id="tspan116">memory</tspan><tspan
       style="font-style:normal;font-variant:normal;font-weight:normal;font-stretch:normal;font-family:Arial;-inkscape-font-specification:Arial"
       x="183.38585 187.5546 189.2921 193.11086 196.9296"
       y="235.507"
       id="tspan118">Sign-</tspan><tspan
       style="font-style:normal;font-variant:normal;font-weight:normal;font-stretch:normal;font-family:Arial;-inkscape-font-specification:Arial"
       x="181.12561 184.60034 188.07507 190.15605 193.6308 197.44926"
       y="243.007"
       id="tspan120">extend</tspan><tspan
       style="font-style:normal;font-variant:normal;font-weight:normal;font-stretch:normal;font-family:Arial;-inkscape-font-specification:Arial"
       x="209.99811 214.5106 217.9856 221.80434 223.54184 227.01686 229.0981 232.5731 235.00436"
       y="176.76825"
       id="tspan122">Registers</tspan></text>
<text
     style="font-style:normal;font-variant:normal;font-weight:normal;font-stretch:normal;font-size:9.375px;font-family:Arial;-inkscape-font-specification:Arial;writing-mode:lr-tb;fill:#231f20;fill-opacity:1;fill-rule:nonzero;stroke:none"
     id="text124"
     x="254.62061"
     y="174.47821"><tspan
       style="font-style:normal;font-variant:normal;font-weight:normal;font-stretch:normal;font-family:Arial;-inkscape-font-specification:Arial"
       x="254.62061"
       y="174.47821"
       id="tspan126">=</tspan></text>
<text
     style="font-style:normal;font-variant:normal;font-weight:normal;font-stretch:normal;font-size:6.25px;font-family:Arial;-inkscape-font-specification:Arial;writing-mode:lr-tb;fill:#231f20;fill-opacity:1;fill-rule:nonzero;stroke:none"
     id="text128"
     x="213.03322"
     y="115.9221"><tspan
       style="font-style:normal;font-variant:normal;font-weight:normal;font-stretch:normal;font-family:Arial;-inkscape-font-specification:Arial"
       x="213.03322"
       y="115.9221"
       id="tspan130">+</tspan></text>
<text
     style="font-style:normal;font-variant:normal;font-weight:normal;font-stretch:normal;font-size:6.25px;font-family:Arial;-inkscape-font-specification:Arial;writing-mode:lr-tb;fill:#000000;fill-opacity:1;fill-rule:nonzero;stroke:none"
     id="text134"
     x="352.84561"
     y="298.6875"><tspan
       style="font-style:normal;font-variant:normal;font-weight:normal;font-stretch:normal;font-family:Arial;-inkscape-font-specification:Arial;fill:#000000;fill-opacity:1"
       x="352.84561 356.66464 360.48303 365.34579 368.81924 371.25095 375.06937 376.80704 380.62579"
       y="298.6875"
       id="tspan136">Fowarding</tspan><tspan
       style="font-style:normal;font-variant:normal;font-weight:normal;font-stretch:normal;font-family:Arial;-inkscape-font-specification:Arial;fill:#000000;fill-opacity:1"
       x="362.91791 366.73694 370.5553 372.29306"
       y="306.1875"
       id="tspan138">unit</tspan></text>
<text
     style="font-style:normal;font-variant:normal;font-weight:normal;font-stretch:normal;font-size:6.25px;font-family:Arial;-inkscape-font-specification:Arial;writing-mode:lr-tb;fill:#231f20;fill-opacity:1;fill-rule:nonzero;stroke:none"
     id="text142"
     x="360.55313"
     y="184.62125"><tspan
       style="font-style:normal;font-variant:normal;font-weight:normal;font-stretch:normal;font-family:Arial;-inkscape-font-specification:Arial"
       x="360.55313 365.06561 368.88174"
       y="184.62125"
       id="tspan144">ALU</tspan></text>
<text
     style="font-style:normal;font-variant:normal;font-weight:normal;font-stretch:normal;font-size:6.25px;font-family:Arial;-inkscape-font-specification:Arial;writing-mode:lr-tb;fill:#231f20;fill-opacity:1;fill-rule:nonzero;stroke:none"
     id="text146"
     x="268.70789"
     y="54.174999"><tspan
       style="font-style:normal;font-variant:normal;font-weight:normal;font-stretch:normal;font-family:Arial;-inkscape-font-specification:Arial"
       x="268.70789 270.45166 274.97043 276.7142 280.86414"
       y="54.174999"
       id="tspan148">ID/EX</tspan><tspan
       style="font-style:normal;font-variant:normal;font-weight:normal;font-stretch:normal;font-family:Arial;-inkscape-font-specification:Arial"
       x="386.58676 391.793 395.96176 401.168 402.90549 408.80551"
       y="74.385002"
       id="tspan150">MEM/WB</tspan></text>
<text
     style="font-style:normal;font-variant:normal;font-weight:normal;font-stretch:normal;font-size:6.04967499px;font-family:Arial;-inkscape-font-specification:Arial;writing-mode:lr-tb;fill:#231f20;fill-opacity:1;fill-rule:nonzero;stroke:none"
     id="text152"
     x="475.23026"
     y="93.92263"><tspan
       style="font-style:normal;font-variant:normal;font-weight:normal;font-stretch:normal;font-family:Arial;-inkscape-font-specification:Arial"
       x="475.23026 480.26935 484.30508 489.34418 491.02563 496.73618"
       y="93.92263"
       id="tspan154">MEM/WB</tspan></text>
<text
     style="font-style:normal;font-variant:normal;font-weight:normal;font-stretch:normal;font-size:6.25px;font-family:Arial;-inkscape-font-specification:Arial;writing-mode:lr-tb;fill:#000000;fill-opacity:1;fill-rule:nonzero;stroke:none"
     id="text158"
     x="271.83563"
     y="70.879997"><tspan
       style="font-style:normal;font-variant:normal;font-weight:normal;font-stretch:normal;font-family:Arial;-inkscape-font-specification:Arial;fill:#000000;fill-opacity:1"
       x="271.83563 277.73563"
       y="70.879997"
       id="tspan160">WB</tspan><tspan
       style="font-style:normal;font-variant:normal;font-weight:normal;font-stretch:normal;font-family:Arial;-inkscape-font-specification:Arial;fill:#000000;fill-opacity:1"
       x="274.26727"
       y="91.148499"
       id="tspan162">M</tspan><tspan
       style="font-style:normal;font-variant:normal;font-weight:normal;font-stretch:normal;font-family:Arial;-inkscape-font-specification:Arial;fill:#000000;fill-opacity:1"
       x="272.70084 276.8696"
       y="110.63825"
       id="tspan164">EX</tspan></text>
<text
     style="font-style:normal;font-variant:normal;font-weight:normal;font-stretch:normal;font-size:6.25px;font-family:Arial;-inkscape-font-specification:Arial;writing-mode:lr-tb;fill:#231f20;fill-opacity:1;fill-rule:nonzero;stroke:none"
     id="text168"
     x="183.87062"
     y="139.2775"><tspan
       style="font-style:normal;font-variant:normal;font-weight:normal;font-stretch:normal;font-family:Arial;-inkscape-font-specification:Arial"
       x="183.87062 188.03937 191.85812 193.59563 195.6757"
       y="139.2775"
       id="tspan170">Shift</tspan><tspan
       style="font-style:normal;font-variant:normal;font-weight:normal;font-stretch:normal;font-family:Arial;-inkscape-font-specification:Arial"
       x="183.52052 185.25803 188.73303 190.81427 192.89552 194.63087"
       y="146.7775"
       id="tspan172">left 2</tspan></text>
<text
     style="font-style:normal;font-variant:normal;font-weight:normal;font-stretch:normal;font-size:6.25px;font-family:Arial;-inkscape-font-specification:Arial;writing-mode:lr-tb;fill:#000000;fill-opacity:1;fill-rule:nonzero;stroke:none"
     id="text176"
     x="21.419874"
     y="17.28875"><tspan
       style="font-style:normal;font-variant:normal;font-weight:normal;font-stretch:normal;font-family:Arial;-inkscape-font-specification:Arial;fill:#000000;fill-opacity:1"
       x="21.419874 23.157375 26.976124 28.713627 32.532375 33.919876 37.394875 40.519875"
       y="17.28875"
       id="tspan178">IF.Flush</tspan></text>
<text
     style="font-style:normal;font-variant:normal;font-weight:normal;font-stretch:normal;font-size:6.25px;font-family:Arial;-inkscape-font-specification:Arial;writing-mode:lr-tb;fill:#231f20;fill-opacity:1;fill-rule:nonzero;stroke:none"
     id="text182"
     x="117.32613"
     y="112.31876"><tspan
       style="font-style:normal;font-variant:normal;font-weight:normal;font-stretch:normal;font-family:Arial;-inkscape-font-specification:Arial"
       x="117.32613 119.06362 122.88237 124.61987 126.35738"
       y="112.31876"
       id="tspan184">IF/ID</tspan></text>
<text
     style="font-style:normal;font-variant:normal;font-weight:normal;font-stretch:normal;font-size:6.25px;font-family:Arial;-inkscape-font-specification:Arial;writing-mode:lr-tb;fill:#231f20;fill-opacity:1;fill-rule:nonzero;stroke:none"
     id="text186"
     x="27.015625"
     y="180.77238"><tspan
       style="font-style:normal;font-variant:normal;font-weight:normal;font-stretch:normal;font-family:Arial;-inkscape-font-specification:Arial"
       x="27.015625"
       y="180.77238"
       id="tspan188">M</tspan><tspan
       style="font-style:normal;font-variant:normal;font-weight:normal;font-stretch:normal;font-family:Arial;-inkscape-font-specification:Arial"
       x="27.709473"
       y="187.02238"
       id="tspan190">u</tspan><tspan
       style="font-style:normal;font-variant:normal;font-weight:normal;font-stretch:normal;font-family:Arial;-inkscape-font-specification:Arial"
       x="27.881836"
       y="193.27238"
       id="tspan192">x</tspan><tspan
       style="font-style:normal;font-variant:normal;font-weight:normal;font-stretch:normal;font-family:Arial;-inkscape-font-specification:Arial"
       x="248.20308"
       y="84.683006"
       id="tspan194">M</tspan><tspan
       style="font-style:normal;font-variant:normal;font-weight:normal;font-stretch:normal;font-family:Arial;-inkscape-font-specification:Arial"
       x="248.89694"
       y="90.933006"
       id="tspan196">u</tspan><tspan
       style="font-style:normal;font-variant:normal;font-weight:normal;font-stretch:normal;font-family:Arial;-inkscape-font-specification:Arial"
       x="249.06931"
       y="97.183006"
       id="tspan198">x</tspan><tspan
       style="font-style:normal;font-variant:normal;font-weight:normal;font-stretch:normal;font-family:Arial;-inkscape-font-specification:Arial"
       x="447.45306 451.96555 455.44055 457.5202"
       y="180.64888"
       id="tspan200">Data</tspan><tspan
       style="font-style:normal;font-variant:normal;font-weight:normal;font-stretch:normal;font-family:Arial;-inkscape-font-specification:Arial"
       x="442.06827 447.62451 451.09952 456.65579 460.47452 462.90579"
       y="188.14888"
       id="tspan202">memory</tspan></text>
<text
     style="font-style:normal;font-variant:normal;font-weight:normal;font-stretch:normal;font-size:6.25px;font-family:Arial;-inkscape-font-specification:Arial;writing-mode:lr-tb;fill:#000000;fill-opacity:1;fill-rule:nonzero;stroke:none"
     id="text206"
     x="394.65439"
     y="91.147499"><tspan
       style="font-style:normal;font-variant:normal;font-weight:normal;font-stretch:normal;font-family:Arial;-inkscape-font-specification:Arial;fill:#000000;fill-opacity:1"
       x="394.65439 400.55438"
       y="91.147499"
       id="tspan208">WB</tspan><tspan
       style="font-style:normal;font-variant:normal;font-weight:normal;font-stretch:normal;font-family:Arial;-inkscape-font-specification:Arial;fill:#000000;fill-opacity:1"
       x="482.96838 488.86838"
       y="111.3125"
       id="tspan210">WB</tspan><tspan
       style="font-style:normal;font-variant:normal;font-weight:normal;font-stretch:normal;font-family:Arial;-inkscape-font-specification:Arial;fill:#000000;fill-opacity:1"
       x="397.08951"
       y="110.64209"
       id="tspan212">M</tspan></text>
<path
     id="path214"
     style="fill:none;stroke:#231f20;stroke-width:0.9375;stroke-linecap:butt;stroke-linejoin:miter;stroke-miterlimit:4;stroke-dasharray:none;stroke-opacity:1"
     d="m 493.80063,108.79125 13.42249,0"
     inkscape:connector-curvature="0" /><path
     id="path216"
     style="fill:#231f20;fill-opacity:1;fill-rule:nonzero;stroke:none"
     d="m 390.82187,87.47375 c -1.04249,-0.315 -1.71875,-0.60625 -2.55625,-0.94125 l 0,3.17875 c 0.30375,-0.14375 1.51376,-0.62625 2.55625,-0.94 1.11875,-0.33625 2.125,-0.56625 2.78375,-0.64875 -0.65875,-0.0825 -1.665,-0.3125 -2.78375,-0.64875"
     inkscape:connector-curvature="0" /><path
     id="path218"
     style="fill:#231f20;fill-opacity:1;fill-rule:nonzero;stroke:none"
     d="m 478.92062,108.1425 c -1.0425,-0.31375 -1.71875,-0.60625 -2.55625,-0.94125 l 0,3.17875 c 0.3025,-0.14125 1.51375,-0.625 2.55625,-0.94 1.115,-0.33625 2.12875,-0.56625 2.78125,-0.64875 -0.6525,-0.0825 -1.66625,-0.3125 -2.78125,-0.64875"
     inkscape:connector-curvature="0" /><path
     id="path220"
     style="fill:#231f20;fill-opacity:1;fill-rule:nonzero;stroke:none"
     d="m 390.82187,106.63 c -1.0425,-0.315 -1.71875,-0.605 -2.55625,-0.94 l 0,3.1775 c 0.30375,-0.14 1.51376,-0.62375 2.55625,-0.93875 1.11875,-0.3375 2.125,-0.5675 2.78375,-0.65 -0.65875,-0.0812 -1.665,-0.3125 -2.78375,-0.64875"
     inkscape:connector-curvature="0" /><path
     id="path222"
     style="fill:#231f20;fill-opacity:1;fill-rule:nonzero;stroke:none"
     d="m 267.68563,67.9375 c -1.04001,-0.315 -1.7175,-0.605 -2.55375,-0.94 l 0,3.18 c 0.29875,-0.14125 1.51375,-0.62625 2.55375,-0.94125 1.1175,-0.3375 2.12625,-0.5675 2.7825,-0.65 -0.65625,-0.08125 -1.665,-0.3125 -2.7825,-0.64875"
     inkscape:connector-curvature="0" /><path
     id="path224"
     style="fill:#231f20;fill-opacity:1;fill-rule:nonzero;stroke:none"
     d="m 251.56063,68.095 c 0.315,-1.04375 0.60624,-1.72 0.94125,-2.555 l -3.17875,0 c 0.14125,0.3 0.62375,1.51125 0.94,2.555 0.33625,1.11375 0.5675,2.125 0.6475,2.78125 0.0825,-0.65625 0.31375,-1.6675 0.65,-2.78125"
     inkscape:connector-curvature="0" /><path
     id="path226"
     style="fill:#231f20;fill-opacity:1;fill-rule:nonzero;stroke:none"
     d="m 267.68563,87.97625 c -1.04001,-0.315 -1.7175,-0.60375 -2.55375,-0.94 l 0,3.17875 c 0.29875,-0.14125 1.51375,-0.625 2.55375,-0.94 1.1175,-0.3375 2.12625,-0.5675 2.7825,-0.65 -0.65625,-0.08 -1.665,-0.31 -2.7825,-0.64875"
     inkscape:connector-curvature="0" /><path
     id="path228"
     style="fill:none;stroke:#231f20;stroke-width:0.9375;stroke-linecap:butt;stroke-linejoin:miter;stroke-miterlimit:4;stroke-dasharray:none;stroke-opacity:1"
     d="m 237.36312,96.02 2.185,0"
     inkscape:connector-curvature="0" /><path
     id="path230"
     style="fill:#231f20;fill-opacity:1;fill-rule:nonzero;stroke:none"
     d="m 241.80687,95.37125 c -1.04125,-0.31625 -1.71875,-0.605 -2.555,-0.94 l 0,3.17875 c 0.3,-0.14125 1.51375,-0.625 2.555,-0.94125 1.11625,-0.33625 2.1275,-0.5675 2.78375,-0.64875 -0.65625,-0.0825 -1.6675,-0.3125 -2.78375,-0.64875"
     inkscape:connector-curvature="0" /><text
     style="font-style:normal;font-variant:normal;font-weight:normal;font-stretch:normal;font-size:6.25px;font-family:Arial;-inkscape-font-specification:Arial;writing-mode:lr-tb;fill:#231f20;fill-opacity:1;fill-rule:nonzero;stroke:none"
     id="text234"
     x="233.49562"
     y="98.203751"><tspan
       style="font-style:normal;font-variant:normal;font-weight:normal;font-stretch:normal;font-family:Arial;-inkscape-font-specification:Arial"
       x="233.49562"
       y="98.203751"
       id="tspan236">0</tspan></text>
<path
     id="path238"
     style="fill:#000000;fill-opacity:1;fill-rule:nonzero;stroke:none"
     d="m 231.73187,136.9325 c 0.3125,-1.04125 0.60625,-1.71875 0.94125,-2.55375 l -3.18,0 c 0.14375,0.2975 0.625,1.5125 0.94,2.55375 0.33625,1.11625 0.5675,2.125 0.65,2.78 0.0813,-0.655 0.31125,-1.66375 0.64875,-2.78"
     inkscape:connector-curvature="0" /><path
     id="path240"
     style="fill:#231f20;fill-opacity:1;fill-rule:nonzero;stroke:none"
     d="m 241.85062,88.1025 c -1.04124,-0.31375 -1.72,-0.605 -2.555,-0.94 l 0,3.17875 c 0.29751,-0.1425 1.51375,-0.62625 2.555,-0.93875 1.11626,-0.3375 2.125,-0.5675 2.78125,-0.65 -0.65625,-0.0825 -1.66499,-0.3125 -2.78125,-0.65"
     inkscape:connector-curvature="0" /><path
     id="path242"
     style="fill:#231f20;fill-opacity:1;fill-rule:nonzero;stroke:none"
     d="m 161.94437,88.1025 c -1.04124,-0.31375 -1.72,-0.605 -2.555,-0.94 l 0,3.17875 c 0.29876,-0.1425 1.51375,-0.62625 2.555,-0.93875 1.11626,-0.3375 2.125,-0.5675 2.78125,-0.65 -0.65625,-0.0825 -1.66499,-0.3125 -2.78125,-0.65"
     inkscape:connector-curvature="0" /><path
     id="path244"
     style="fill:#000000;fill-opacity:1;fill-rule:nonzero;stroke:none"
     d="m 124.74937,115.7575 c 0.315,-1.0425 0.605,-1.72 0.93875,-2.555 l -3.1775,0 c 0.1425,0.29875 0.6275,1.5125 0.94,2.555 0.33625,1.115 0.5675,2.12625 0.65,2.78 0.0825,-0.65375 0.31125,-1.665 0.64875,-2.78"
     inkscape:connector-curvature="0" /><path
     id="path246"
     style="fill:#231f20;fill-opacity:1;fill-rule:nonzero;stroke:none"
     d="m 114.91413,122.7825 c -1.0435,-0.315 -1.72026,-0.6025 -2.55912,-0.94 l 0,3.18 c 0.30074,-0.1425 1.51562,-0.62625 2.55912,-0.94 1.11325,-0.33625 2.1235,-0.5675 2.77775,-0.64875 -0.65425,-0.0838 -1.6645,-0.31375 -2.77775,-0.65125"
     inkscape:connector-curvature="0" /><path
     id="path248"
     style="fill:#231f20;fill-opacity:1;fill-rule:nonzero;stroke:none"
     d="m 156.87062,50.3 c -0.315,1.04 -0.605,1.7175 -0.94,2.55375 l 3.18,0 c -0.1425,-0.3 -0.62625,-1.51375 -0.94125,-2.55375 -0.3375,-1.1175 -0.5675,-2.1275 -0.64875,-2.7825 -0.0838,0.655 -0.3125,1.665 -0.65,2.7825"
     inkscape:connector-curvature="0" /><path
     id="path250"
     style="fill:#231f20;fill-opacity:1;fill-rule:nonzero;stroke:none"
     d="m 151.31562,40.1675 c -1.04124,-0.31625 -1.71875,-0.60375 -2.555,-0.93875 l 0,3.1775 c 0.29876,-0.14125 1.51375,-0.625 2.555,-0.94 1.11501,-0.33625 2.1275,-0.5675 2.78125,-0.64875 -0.65375,-0.08375 -1.66624,-0.3125 -2.78125,-0.65"
     inkscape:connector-curvature="0" /><path
     id="path252"
     style="fill:#231f20;fill-opacity:1;fill-rule:nonzero;stroke:none"
     d="m 267.68563,108.2675 c -1.04001,-0.31375 -1.7175,-0.60375 -2.55375,-0.93875 l 0,3.17875 c 0.29875,-0.1425 1.51375,-0.625 2.55375,-0.94 1.1175,-0.3375 2.12625,-0.56875 2.7825,-0.64875 -0.65625,-0.0825 -1.665,-0.315 -2.7825,-0.65125"
     inkscape:connector-curvature="0" /><path
     id="path254"
     style="fill:#231f20;fill-opacity:1;fill-rule:nonzero;stroke:none"
     d="m 268.29312,145.75 c -1.04375,-0.315 -1.71875,-0.605 -2.5575,-0.94 l 0,3.1775 c 0.3,-0.14125 1.51375,-0.625 2.5575,-0.94 1.11375,-0.335 2.12375,-0.565 2.78125,-0.6475 -0.6575,-0.0825 -1.6675,-0.31375 -2.78125,-0.65"
     inkscape:connector-curvature="0" /><path
     id="path256"
     style="fill:#231f20;fill-opacity:1;fill-rule:nonzero;stroke:none"
     d="m 257.88437,152.945 c 0.315,-1.04125 0.605,-1.72 0.94125,-2.55625 l -3.17874,0 c 0.13999,0.29875 0.625,1.515 0.9375,2.55625 0.33749,1.11375 0.5675,2.125 0.65125,2.78 0.0825,-0.655 0.31124,-1.66625 0.64875,-2.78"
     inkscape:connector-curvature="0" /><path
     id="path258"
     style="fill:#231f20;fill-opacity:1;fill-rule:nonzero;stroke:none"
     d="m 199.45937,158.05125 c -1.04,-0.3125 -1.7175,-0.6025 -2.5525,-0.94 l 0,3.18125 c 0.3,-0.145 1.5125,-0.625 2.5525,-0.94125 1.11875,-0.33625 2.1275,-0.5675 2.785,-0.64875 -0.6575,-0.0812 -1.66625,-0.315 -2.785,-0.65125"
     inkscape:connector-curvature="0" /><path
     id="path260"
     style="fill:#231f20;fill-opacity:1;fill-rule:nonzero;stroke:none"
     d="m 204.92187,100.57875 c -1.04,-0.3125 -1.71875,-0.60375 -2.555,-0.93875 l 0,3.18 c 0.30125,-0.1425 1.515,-0.6275 2.555,-0.94125 1.11625,-0.3375 2.12625,-0.5675 2.78125,-0.65125 -0.655,-0.0813 -1.665,-0.31 -2.78125,-0.64875"
     inkscape:connector-curvature="0" /><path
     id="path262"
     style="fill:#231f20;fill-opacity:1;fill-rule:nonzero;stroke:none"
     d="m 204.92187,122.76125 c -1.04,-0.31375 -1.71875,-0.60375 -2.555,-0.93875 l 0,3.1775 c 0.30125,-0.14125 1.515,-0.625 2.555,-0.94 1.11625,-0.33625 2.12625,-0.565 2.78125,-0.64875 -0.655,-0.0812 -1.665,-0.31375 -2.78125,-0.65"
     inkscape:connector-curvature="0" /><path
     id="path264"
     style="fill:#231f20;fill-opacity:1;fill-rule:nonzero;stroke:none"
     d="m 199.45937,165.11 c -1.04,-0.31375 -1.7175,-0.6075 -2.5525,-0.9375 l 0,3.1775 c 0.3,-0.145 1.5125,-0.62375 2.5525,-0.93875 1.11875,-0.34 2.1275,-0.56875 2.785,-0.65125 -0.6575,-0.0812 -1.66625,-0.3125 -2.785,-0.65"
     inkscape:connector-curvature="0" /><path
     id="path266"
     style="fill:#231f20;fill-opacity:1;fill-rule:nonzero;stroke:none"
     d="m 199.45937,183.76375 c -1.04,-0.31625 -1.7175,-0.605 -2.5525,-0.94125 l 0,3.18 c 0.3,-0.145 1.5125,-0.6275 2.5525,-0.94125 1.11875,-0.335 2.1275,-0.5675 2.785,-0.64875 -0.6575,-0.0838 -1.66625,-0.3125 -2.785,-0.64875"
     inkscape:connector-curvature="0" /><path
     id="path268"
     style="fill:#231f20;fill-opacity:1;fill-rule:nonzero;stroke:none"
     d="m 199.45937,200.90375 c -1.04,-0.3125 -1.7175,-0.60125 -2.5525,-0.94 l 0,3.17875 c 0.3,-0.1425 1.5125,-0.6275 2.5525,-0.94 1.11875,-0.335 2.1275,-0.56625 2.785,-0.6475 -0.6575,-0.085 -1.66625,-0.3125 -2.785,-0.65125"
     inkscape:connector-curvature="0" /><path
     id="path270"
     style="fill:#231f20;fill-opacity:1;fill-rule:nonzero;stroke:none"
     d="m 267.68563,235.78875 c -1.04001,-0.315 -1.7175,-0.6025 -2.55375,-0.94 l 0,3.18125 c 0.29875,-0.14625 1.51375,-0.6275 2.55375,-0.94 1.1175,-0.3375 2.12625,-0.56875 2.7825,-0.6525 -0.65625,-0.08 -1.665,-0.3125 -2.7825,-0.64875"
     inkscape:connector-curvature="0" /><path
     id="path272"
     style="fill:#231f20;fill-opacity:1;fill-rule:nonzero;stroke:none"
     d="m 268.12812,262.91262 c -1.0425,-0.31487 -1.71875,-0.605 -2.55624,-0.93987 l 0,3.18112 c 0.29875,-0.1465 1.51375,-0.6275 2.55624,-0.94 1.11751,-0.33887 2.1275,-0.56875 2.78251,-0.65375 -0.655,-0.0791 -1.665,-0.31012 -2.78251,-0.6475"
     inkscape:connector-curvature="0" /><path
     id="path274"
     style="fill:#231f20;fill-opacity:1;fill-rule:nonzero;stroke:none"
     d="m 268.12812,269.46737 c -1.0425,-0.315 -1.71875,-0.60262 -2.55624,-0.94 l 0,3.18113 c 0.29875,-0.146 1.51375,-0.62738 2.55624,-0.94475 1.11751,-0.3365 2.1275,-0.564 2.78251,-0.649 -0.655,-0.081 -1.665,-0.3125 -2.78251,-0.64738"
     inkscape:connector-curvature="0" /><path
     id="path276"
     style="fill:#231f20;fill-opacity:1;fill-rule:nonzero;stroke:none"
     d="m 268.12812,276.01862 c -1.0425,-0.3125 -1.71875,-0.60112 -2.55624,-0.94 l 0,3.18126 c 0.29875,-0.14263 1.51375,-0.625 2.55624,-0.94238 1.11751,-0.335 2.1275,-0.5675 2.78251,-0.6475 -0.655,-0.0825 -1.665,-0.3125 -2.78251,-0.65138"
     inkscape:connector-curvature="0" /><path
     id="path278"
     style="fill:#231f20;fill-opacity:1;fill-rule:nonzero;stroke:none"
     d="m 268.12812,286.15487 c -1.0425,-0.315 -1.71875,-0.605 -2.55624,-0.94 l 0,3.17875 c 0.29875,-0.14362 1.51375,-0.625 2.55624,-0.94 1.11751,-0.33887 2.1275,-0.56637 2.78251,-0.65137 -0.655,-0.0785 -1.665,-0.311 -2.78251,-0.64738"
     inkscape:connector-curvature="0" /><path
     id="path280"
     style="fill:#231f20;fill-opacity:1;fill-rule:nonzero;stroke:none"
     d="m 321.96562,276.5235 c -1.0425,-0.315 -1.72,-0.6035 -2.55625,-0.94 l 0,3.17875 c 0.30001,-0.14113 1.51376,-0.625 2.55625,-0.9375 1.115,-0.33738 2.12626,-0.57075 2.78251,-0.65475 -0.65625,-0.0776 -1.66751,-0.30763 -2.78251,-0.6465"
     inkscape:connector-curvature="0" /><path
     id="path282"
     style="fill:#231f20;fill-opacity:1;fill-rule:nonzero;stroke:none"
     d="m 343.77188,300.72275 c -1.04251,-0.3125 -1.72125,-0.60263 -2.55875,-0.9405 l 0,3.18162 c 0.3,-0.14637 1.51625,-0.62787 2.55875,-0.94037 1.1125,-0.33838 2.12374,-0.56838 2.77749,-0.65088 -0.65375,-0.0815 -1.665,-0.3125 -2.77749,-0.64987"
     inkscape:connector-curvature="0" /><path
     id="path284"
     style="fill:#231f20;fill-opacity:1;fill-rule:nonzero;stroke:none"
     d="m 393.46438,295.11475 c 1.0425,-0.31738 1.72125,-0.6035 2.55374,-0.93988 l 0,3.17876 c -0.29874,-0.14363 -1.51125,-0.625 -2.55374,-0.94238 -1.11625,-0.3375 -2.12375,-0.5635 -2.78375,-0.65 0.66,-0.0776 1.6675,-0.31 2.78375,-0.6465"
     inkscape:connector-curvature="0" /><path
     id="path286"
     style="fill:#231f20;fill-opacity:1;fill-rule:nonzero;stroke:none"
     d="m 390.65688,281.855 c -1.04251,0.315 -1.71875,0.6035 -2.55875,0.9375 l 0,-3.17625 c 0.3,0.14262 1.51625,0.62112 2.55875,0.9375 1.1125,0.33987 2.12374,0.56737 2.77999,0.65237 -0.65625,0.0801 -1.6675,0.3125 -2.77999,0.64888"
     inkscape:connector-curvature="0" /><path
     id="path288"
     style="fill:#000000;fill-opacity:1;fill-rule:nonzero;stroke:none"
     d="m 393.71812,299.58987 c 1.04,-0.31487 1.71875,-0.605 2.55375,-0.93987 l 0,3.17862 c -0.3,-0.1435 -1.51375,-0.625 -2.55375,-0.93987 -1.12125,-0.33888 -2.12875,-0.57125 -2.78375,-0.65138 0.655,-0.0811 1.6625,-0.3125 2.78375,-0.6475"
     inkscape:connector-curvature="0" /><path
     id="path290"
     style="fill:#231f20;fill-opacity:1;fill-rule:nonzero;stroke:none"
     d="m 393.71812,304.2525 c 1.04,-0.31638 1.71875,-0.6025 2.55375,-0.94 l 0,3.17875 c -0.3,-0.1435 -1.51375,-0.6265 -2.55375,-0.94138 -1.12125,-0.33737 -2.12875,-0.56987 -2.78375,-0.64987 0.655,-0.0776 1.6625,-0.31013 2.78375,-0.6475"
     inkscape:connector-curvature="0" /><path
     id="path292"
     style="fill:#000000;fill-opacity:1;fill-rule:nonzero;stroke:none"
     d="m 391.82562,309.73887 c 1.04251,-0.31737 1.71875,-0.6075 2.55625,-0.94537 l 0,3.18162 c -0.2975,-0.1465 -1.51375,-0.62737 -2.55625,-0.94287 -1.115,-0.33838 -2.12625,-0.56588 -2.7825,-0.65088 0.65625,-0.0815 1.6675,-0.31 2.7825,-0.6425"
     inkscape:connector-curvature="0" /><path
     id="path294"
     style="fill:#231f20;fill-opacity:1;fill-rule:nonzero;stroke:none"
     d="m 345.15312,308.28625 c -1.04,-0.315 -1.71375,-0.6075 -2.55375,-0.94 l 0,3.17875 c 0.30125,-0.146 1.51376,-0.625 2.55375,-0.94238 1.11625,-0.3365 2.12876,-0.5665 2.78375,-0.649 -0.65499,-0.0786 -1.6675,-0.3125 -2.78375,-0.64737"
     inkscape:connector-curvature="0" /><path
     id="path296"
     style="fill:#231f20;fill-opacity:1;fill-rule:nonzero;stroke:none"
     d="m 321.96562,286.66025 c -1.0425,-0.3155 -1.72,-0.6055 -2.55625,-0.94288 l 0,3.184 c 0.30001,-0.14637 1.51376,-0.62787 2.55625,-0.94525 1.115,-0.336 2.12626,-0.56587 2.78251,-0.65137 -0.65625,-0.0786 -1.66751,-0.30963 -2.78251,-0.6445"
     inkscape:connector-curvature="0" /><path
     id="path298"
     style="fill:#000000;fill-opacity:1;fill-rule:nonzero;stroke:none"
     d="m 115.43851,286.57475 c -1.041,-0.31487 -1.72075,-0.605 -2.55613,-0.94238 l 0,3.17875 c 0.30025,-0.14112 1.51513,-0.6275 2.55613,-0.94 1.11525,-0.33737 2.124,-0.56887 2.78075,-0.65137 -0.65675,-0.0786 -1.6655,-0.311 -2.78075,-0.645"
     inkscape:connector-curvature="0" /><path
     id="path300"
     style="fill:#231f20;fill-opacity:1;fill-rule:nonzero;stroke:none"
     d="m 115.43851,184.26625 c -1.041,-0.31375 -1.72075,-0.60375 -2.55613,-0.94 l 0,3.18125 c 0.30025,-0.145 1.51513,-0.62625 2.55613,-0.94 1.11525,-0.33875 2.124,-0.5675 2.78075,-0.65125 -0.65675,-0.0837 -1.6655,-0.31375 -2.78075,-0.65"
     inkscape:connector-curvature="0" /><path
     id="path302"
     style="fill:#231f20;fill-opacity:1;fill-rule:nonzero;stroke:none"
     d="m 81.94725,136.88 c -1.0425,-0.31375 -1.71975,-0.6075 -2.555625,-0.94 l 0,3.17875 c 0.29975,-0.14375 1.513125,-0.625 2.555625,-0.94 1.11575,-0.3375 2.1255,-0.56875 2.78225,-0.65 -0.65675,-0.085 -1.6665,-0.31125 -2.78225,-0.64875"
     inkscape:connector-curvature="0" /><path
     id="path304"
     style="fill:#231f20;fill-opacity:1;fill-rule:nonzero;stroke:none"
     d="m 81.94725,109.655 c -1.0425,-0.315 -1.71975,-0.605 -2.555625,-0.94125 l 0,3.18125 c 0.29975,-0.14375 1.513125,-0.625 2.555625,-0.94125 1.11575,-0.33625 2.1255,-0.56625 2.78225,-0.65 -0.65675,-0.0825 -1.6665,-0.31125 -2.78225,-0.64875"
     inkscape:connector-curvature="0" /><path
     id="path306"
     style="fill:#231f20;fill-opacity:1;fill-rule:nonzero;stroke:none"
     d="m 21.3325,193.34 c -1.043,-0.3125 -1.71875,-0.605 -2.556625,-0.9375 l 0,3.1775 c 0.30025,-0.1425 1.513625,-0.625 2.556625,-0.93875 1.11525,-0.3375 2.126,-0.56875 2.78175,-0.65 -0.65575,-0.0825 -1.6665,-0.315 -2.78175,-0.65125"
     inkscape:connector-curvature="0" /><path
     id="path308"
     style="fill:#231f20;fill-opacity:1;fill-rule:nonzero;stroke:none"
     d="m 21.3325,175.69625 c -1.043,-0.315 -1.71875,-0.605 -2.556625,-0.94125 l 0,3.1825 c 0.30025,-0.145 1.513625,-0.62625 2.556625,-0.94375 1.11525,-0.335 2.126,-0.565 2.78175,-0.6475 -0.65575,-0.0838 -1.6665,-0.3125 -2.78175,-0.65"
     inkscape:connector-curvature="0" /><path
     id="path310"
     style="fill:#231f20;fill-opacity:1;fill-rule:nonzero;stroke:none"
     d="m 68.17575,184.26625 c -1.042875,-0.31375 -1.71975,-0.60375 -2.555125,-0.94 l 0,3.18125 c 0.298375,-0.145 1.51225,-0.62625 2.555125,-0.94 1.11475,-0.33875 2.1255,-0.5675 2.78075,-0.65125 -0.65525,-0.0837 -1.666,-0.31375 -2.78075,-0.65"
     inkscape:connector-curvature="0" /><path
     id="path312"
     style="fill:#231f20;fill-opacity:1;fill-rule:nonzero;stroke:none"
     d="m 41.455625,184.26625 c -1.0415,-0.31375 -1.72025,-0.60375 -2.55525,-0.94 l 0,3.18125 c 0.297875,-0.145 1.51375,-0.62625 2.55525,-0.94 1.115625,-0.33875 2.126875,-0.5675 2.781625,-0.65125 -0.65475,-0.0837 -1.666,-0.31375 -2.781625,-0.65"
     inkscape:connector-curvature="0" /><path
     id="path314"
     style="fill:none;stroke:#231f20;stroke-width:0.9375;stroke-linecap:butt;stroke-linejoin:miter;stroke-miterlimit:4;stroke-dasharray:none;stroke-opacity:1"
     d="m 282.82687,148.4175 42.11625,0"
     inkscape:connector-curvature="0" /><path
     id="path316"
     style="fill:#231f20;fill-opacity:1;fill-rule:nonzero;stroke:none"
     d="m 322.16312,147.76625 c -1.0425,-0.3125 -1.72125,-0.6025 -2.55625,-0.9375 l 0,3.17625 c 0.30001,-0.14125 1.51376,-0.625 2.55625,-0.9375 1.1125,-0.3375 2.12625,-0.57 2.78,-0.65 -0.65375,-0.0837 -1.6675,-0.3125 -2.78,-0.65125"
     inkscape:connector-curvature="0" /><path
     id="path318"
     style="fill:#231f20;fill-opacity:1;fill-rule:nonzero;stroke:none"
     d="m 268.29312,195.48125 c -1.04375,-0.315 -1.71875,-0.60375 -2.5575,-0.93875 l 0,3.17875 c 0.3,-0.14125 1.51375,-0.62375 2.5575,-0.93875 1.11375,-0.3375 2.12375,-0.56625 2.78125,-0.65 -0.6575,-0.0838 -1.6675,-0.315 -2.78125,-0.65125"
     inkscape:connector-curvature="0" /><path
     id="path320"
     style="fill:#231f20;fill-opacity:1;fill-rule:nonzero;stroke:none"
     d="m 256.58438,190.2175 c -0.3125,1.04125 -0.60375,1.71875 -0.9375,2.555 l 3.17874,0 c -0.14375,-0.29875 -0.62625,-1.51375 -0.94125,-2.555 -0.3375,-1.115 -0.56625,-2.12375 -0.64875,-2.78 -0.0838,0.65625 -0.31375,1.665 -0.65125,2.78"
     inkscape:connector-curvature="0" /><path
     id="path322"
     style="fill:#231f20;fill-opacity:1;fill-rule:nonzero;stroke:none"
     d="m 322.16312,159.05875 c -1.0425,-0.315 -1.72125,-0.6025 -2.55625,-0.94 l 0,3.18 c 0.30001,-0.1425 1.51376,-0.625 2.55625,-0.94 1.1125,-0.33625 2.12625,-0.56625 2.78,-0.64875 -0.65375,-0.0825 -1.6675,-0.31375 -2.78,-0.65125"
     inkscape:connector-curvature="0" /><path
     id="path324"
     style="fill:#231f20;fill-opacity:1;fill-rule:nonzero;stroke:none"
     d="m 321.49187,169.635 c -1.045,-0.315 -1.72125,-0.60625 -2.55624,-0.94125 l 0,3.18125 c 0.2975,-0.1475 1.51125,-0.62875 2.55624,-0.9425 1.1125,-0.33625 2.12125,-0.565 2.78,-0.64875 -0.65875,-0.0825 -1.6675,-0.315 -2.78,-0.64875"
     inkscape:connector-curvature="0" /><path
     id="path326"
     style="fill:#231f20;fill-opacity:1;fill-rule:nonzero;stroke:none"
     d="m 353.45688,158.4175 c -1.04251,-0.3125 -1.71875,-0.6025 -2.55625,-0.9375 l 0,3.1775 c 0.2975,-0.1425 1.51375,-0.625 2.55625,-0.94 1.1125,-0.3375 2.12374,-0.56875 2.77999,-0.65 -0.65625,-0.0838 -1.6675,-0.3125 -2.77999,-0.65"
     inkscape:connector-curvature="0" /><path
     id="path328"
     style="fill:#231f20;fill-opacity:1;fill-rule:nonzero;stroke:none"
     d="m 321.59188,194.0675 c -1.03751,-0.3125 -1.71875,-0.6025 -2.55125,-0.93875 l 0,3.18 c 0.3,-0.1425 1.51375,-0.62625 2.55125,-0.93875 1.12,-0.34 2.12875,-0.57125 2.7825,-0.6525 -0.65375,-0.0813 -1.6625,-0.31125 -2.7825,-0.65"
     inkscape:connector-curvature="0" /><path
     id="path330"
     style="fill:#231f20;fill-opacity:1;fill-rule:nonzero;stroke:none"
     d="m 322.16312,205.4425 c -1.0425,-0.315 -1.72125,-0.60625 -2.55625,-0.9425 l 0,3.17875 c 0.30001,-0.14 1.51376,-0.625 2.55625,-0.9425 1.1125,-0.3325 2.12625,-0.56375 2.78,-0.645 -0.65375,-0.0825 -1.6675,-0.3125 -2.78,-0.64875"
     inkscape:connector-curvature="0" /><path
     id="path332"
     style="fill:#231f20;fill-opacity:1;fill-rule:nonzero;stroke:none"
     d="m 322.16312,214.51375 c -1.0425,-0.315 -1.72125,-0.6025 -2.55625,-0.94 l 0,3.17875 c 0.30001,-0.14125 1.51376,-0.6225 2.55625,-0.94 1.1125,-0.33625 2.12625,-0.56375 2.78,-0.64625 -0.65375,-0.085 -1.6675,-0.3125 -2.78,-0.6525"
     inkscape:connector-curvature="0" /><path
     id="path334"
     style="fill:#231f20;fill-opacity:1;fill-rule:nonzero;stroke:none"
     d="m 353.79062,205.4175 c -1.04,-0.315 -1.72125,-0.605 -2.55375,-0.9375 l 0,3.17625 c 0.30125,-0.14375 1.51376,-0.625 2.55375,-0.94 1.11875,-0.33375 2.1275,-0.56875 2.78625,-0.64875 -0.65875,-0.0813 -1.6675,-0.3125 -2.78625,-0.65"
     inkscape:connector-curvature="0" /><path
     id="path336"
     style="fill:#000000;fill-opacity:1;fill-rule:nonzero;stroke:none"
     d="m 330.06812,226.09625 c -0.31749,1.04 -0.6075,1.71625 -0.94,2.55375 l 3.17375,0 c -0.13875,-0.3025 -0.6225,-1.51375 -0.935,-2.55375 -0.34125,-1.12 -0.56875,-2.12875 -0.65125,-2.78375 -0.0813,0.655 -0.3125,1.66375 -0.6475,2.78375"
     inkscape:connector-curvature="0" /><path
     id="path338"
     style="fill:#000000;fill-opacity:1;fill-rule:nonzero;stroke:none"
     d="m 330.02688,178.99625 c -0.315,1.04375 -0.60875,1.72 -0.94,2.5575 l 3.17874,0 c -0.14499,-0.29875 -0.63,-1.51375 -0.9425,-2.5575 -0.33249,-1.11625 -0.56625,-2.12375 -0.64749,-2.7775 -0.085,0.65375 -0.315,1.66125 -0.64875,2.7775"
     inkscape:connector-curvature="0" /><path
     id="path340"
     style="fill:#231f20;fill-opacity:1;fill-rule:nonzero;stroke:none"
     d="m 391.40812,181.7725 c -1.0425,-0.31375 -1.72125,-0.60875 -2.55875,-0.93875 l 0,3.17625 c 0.29875,-0.14375 1.51626,-0.62375 2.55875,-0.93625 1.11375,-0.34125 2.12125,-0.56875 2.78125,-0.65125 -0.66,-0.085 -1.6675,-0.315 -2.78125,-0.65"
     inkscape:connector-curvature="0" /><path
     id="path342"
     style="fill:#231f20;fill-opacity:1;fill-rule:nonzero;stroke:none"
     d="m 432.40688,181.7725 c -1.04001,-0.31375 -1.71626,-0.60875 -2.55125,-0.93875 l 0,3.17625 c 0.2975,-0.14375 1.51125,-0.62375 2.55125,-0.93625 1.11874,-0.34125 2.12875,-0.56875 2.78374,-0.65125 -0.65499,-0.085 -1.665,-0.315 -2.78374,-0.65"
     inkscape:connector-curvature="0" /><path
     id="path344"
     style="fill:#231f20;fill-opacity:1;fill-rule:nonzero;stroke:none"
     d="m 479.04562,181.7725 c -1.045,-0.31375 -1.72125,-0.60875 -2.55875,-0.93875 l 0,3.17625 c 0.3,-0.14375 1.51376,-0.62375 2.55875,-0.93625 1.1125,-0.34125 2.12375,-0.56875 2.7775,-0.65125 -0.65375,-0.085 -1.665,-0.315 -2.7775,-0.65"
     inkscape:connector-curvature="0" /><path
     id="path346"
     style="fill:#231f20;fill-opacity:1;fill-rule:nonzero;stroke:none"
     d="m 479.46312,223.1075 c -1.0425,-0.3125 -1.72125,-0.6 -2.55375,-0.9375 l 0,3.18125 c 0.29751,-0.14375 1.51126,-0.6275 2.55375,-0.9425 1.115,-0.33625 2.12626,-0.56625 2.78251,-0.64875 -0.65625,-0.0812 -1.66751,-0.3125 -2.78251,-0.6525"
     inkscape:connector-curvature="0" /><path
     id="path348"
     style="fill:#231f20;fill-opacity:1;fill-rule:nonzero;stroke:none"
     d="m 479.46312,280.07862 c -1.0425,-0.31487 -1.72125,-0.60587 -2.55375,-0.94237 l 0,3.18125 c 0.29751,-0.14263 1.51126,-0.625 2.55375,-0.94 1.115,-0.335 2.12626,-0.56888 2.78251,-0.64987 -0.65625,-0.0825 -1.66751,-0.3125 -2.78251,-0.649"
     inkscape:connector-curvature="0" /><path
     id="path350"
     style="fill:#231f20;fill-opacity:1;fill-rule:nonzero;stroke:none"
     d="m 519.37437,182.27625 c -1.04499,-0.31375 -1.72375,-0.60375 -2.55875,-0.94 l 0,3.17875 c 0.30125,-0.1425 1.51375,-0.6275 2.55875,-0.94125 1.11626,-0.33625 2.12375,-0.5675 2.77875,-0.6475 -0.655,-0.0825 -1.6625,-0.31375 -2.77875,-0.65"
     inkscape:connector-curvature="0" /><path
     id="path352"
     style="fill:#231f20;fill-opacity:1;fill-rule:nonzero;stroke:none"
     d="m 519.37437,204.8775 c -1.04499,-0.3125 -1.72375,-0.6025 -2.55875,-0.94 l 0,3.17875 c 0.30125,-0.14125 1.51375,-0.625 2.55875,-0.93875 1.11626,-0.3375 2.12375,-0.565 2.77875,-0.65 -0.655,-0.0825 -1.6625,-0.3125 -2.77875,-0.65"
     inkscape:connector-curvature="0" /><path
     id="path354"
     style="fill:#000000;fill-opacity:1;fill-rule:nonzero;stroke:none"
     d="m 200.50812,32.59 c 1.04,0.31375 1.71875,0.6025 2.55625,0.94 l 0,-3.18 c -0.3,0.1425 -1.51625,0.62625 -2.55625,0.94 -1.115,0.3375 -2.125,0.56875 -2.7825,0.64875 0.6575,0.0825 1.6675,0.31375 2.7825,0.65125"
     inkscape:connector-curvature="0" /><path
     id="path356"
     style="fill:#231f20;fill-opacity:1;fill-rule:nonzero;stroke:none"
     d="m 414.14812,281.20612 c 0,0.8325 -0.67625,1.50875 -1.51125,1.50875 -0.835,0 -1.51375,-0.67624 -1.51375,-1.50875 0,-0.835 0.67875,-1.51362 1.51375,-1.51362 0.835,0 1.51125,0.67862 1.51125,1.51362"
     inkscape:connector-curvature="0" /><path
     id="path358"
     style="fill:#231f20;fill-opacity:1;fill-rule:nonzero;stroke:none"
     d="m 317.10437,328.08887 c 0,0.8375 -0.67874,1.51375 -1.51375,1.51375 -0.835,0 -1.51375,-0.67625 -1.51375,-1.51375 0,-0.8325 0.67875,-1.51112 1.51375,-1.51112 0.835,0 1.51375,0.67862 1.51375,1.51112"
     inkscape:connector-curvature="0" /><path
     id="path360"
     style="fill:#231f20;fill-opacity:1;fill-rule:nonzero;stroke:none"
     d="m 145.19062,276.67 c 0,0.8325 -0.6775,1.51362 -1.51249,1.51362 -0.835,0 -1.51125,-0.68112 -1.51125,-1.51362 0,-0.835 0.67625,-1.51375 1.51125,-1.51375 0.835,0 1.51249,0.67875 1.51249,1.51375"
     inkscape:connector-curvature="0" /><path
     id="path362"
     style="fill:#231f20;fill-opacity:1;fill-rule:nonzero;stroke:none"
     d="m 145.19062,236.5925 c 0,0.8325 -0.6775,1.51125 -1.51249,1.51125 -0.835,0 -1.51125,-0.67875 -1.51125,-1.51125 0,-0.8375 0.67625,-1.51625 1.51125,-1.51625 0.835,0 1.51249,0.67875 1.51249,1.51625"
     inkscape:connector-curvature="0" /><path
     id="path364"
     style="fill:#231f20;fill-opacity:1;fill-rule:nonzero;stroke:none"
     d="m 290.71688,277.17 c 0,0.83737 -0.67875,1.51362 -1.51376,1.51362 -0.83375,0 -1.51,-0.67624 -1.51,-1.51362 0,-0.835 0.67625,-1.51125 1.51,-1.51125 0.835,0 1.51376,0.67625 1.51376,1.51125"
     inkscape:connector-curvature="0" /><path
     id="path366"
     style="fill:#231f20;fill-opacity:1;fill-rule:nonzero;stroke:none"
     d="m 209.80437,236.5925 c 0,0.8325 -0.67875,1.51125 -1.5125,1.51125 -0.83625,0 -1.51249,-0.67875 -1.51249,-1.51125 0,-0.8375 0.67625,-1.51625 1.51249,-1.51625 0.83376,0 1.5125,0.67875 1.5125,1.51625"
     inkscape:connector-curvature="0" /><path
     id="path368"
     style="fill:#231f20;fill-opacity:1;fill-rule:nonzero;stroke:none"
     d="m 158.38187,166.01125 c 0,0.83375 -0.6775,1.51375 -1.51249,1.51375 -0.83376,0 -1.5125,-0.68 -1.5125,-1.51375 0,-0.8375 0.67875,-1.51375 1.5125,-1.51375 0.835,0 1.51249,0.67625 1.51249,1.51375"
     inkscape:connector-curvature="0" /><path
     id="path370"
     style="fill:#231f20;fill-opacity:1;fill-rule:nonzero;stroke:none"
     d="m 151.82812,158.9525 c 0,0.83625 -0.67625,1.5125 -1.5125,1.5125 -0.83375,0 -1.51124,-0.67625 -1.51124,-1.5125 0,-0.83625 0.6775,-1.51125 1.51124,-1.51125 0.83626,0 1.5125,0.675 1.5125,1.51125"
     inkscape:connector-curvature="0" /><path
     id="path372"
     style="fill:#231f20;fill-opacity:1;fill-rule:nonzero;stroke:none"
     d="m 291.22312,88.37375 c 0,0.83625 -0.67625,1.51125 -1.51375,1.51125 -0.835,0 -1.51125,-0.675 -1.51125,-1.51125 0,-0.835 0.67625,-1.51125 1.51125,-1.51125 0.8375,0 1.51375,0.67625 1.51375,1.51125"
     inkscape:connector-curvature="0" /><path
     id="path374"
     style="fill:#231f20;fill-opacity:1;fill-rule:nonzero;stroke:none"
     d="m 427.33562,182.3975 c 0,0.83625 -0.67625,1.51375 -1.51125,1.51375 -0.835,0 -1.51375,-0.6775 -1.51375,-1.51375 0,-0.8375 0.67875,-1.515 1.51375,-1.515 0.835,0 1.51125,0.6775 1.51125,1.515"
     inkscape:connector-curvature="0" /><path
     id="path376"
     style="fill:#231f20;fill-opacity:1;fill-rule:nonzero;stroke:none"
     d="m 427.33562,223.48375 c 0,0.835 -0.67625,1.51375 -1.51125,1.51375 -0.835,0 -1.51375,-0.67875 -1.51375,-1.51375 0,-0.835 0.67875,-1.51375 1.51375,-1.51375 0.835,0 1.51125,0.67875 1.51125,1.51375"
     inkscape:connector-curvature="0" /><path
     id="path378"
     style="fill:#231f20;fill-opacity:1;fill-rule:nonzero;stroke:none"
     d="m 348.00063,206.09125 c 0,0.8325 -0.67625,1.51125 -1.51376,1.51125 -0.83499,0 -1.51125,-0.67875 -1.51125,-1.51125 0,-0.8375 0.67625,-1.51375 1.51125,-1.51375 0.8375,0 1.51376,0.67625 1.51376,1.51375"
     inkscape:connector-curvature="0" /><path
     id="path380"
     style="fill:#231f20;fill-opacity:1;fill-rule:nonzero;stroke:none"
     d="m 258.62187,146.51625 c 0,0.83625 -0.67875,1.5125 -1.51125,1.5125 -0.83625,0 -1.51375,-0.67625 -1.51375,-1.5125 0,-0.83375 0.6775,-1.51125 1.51375,-1.51125 0.8325,0 1.51125,0.6775 1.51125,1.51125"
     inkscape:connector-curvature="0" /><path
     id="path382"
     style="fill:#231f20;fill-opacity:1;fill-rule:nonzero;stroke:none"
     d="m 258.62187,196.42625 c 0,0.8375 -0.67875,1.51125 -1.51125,1.51125 -0.83625,0 -1.51375,-0.67375 -1.51375,-1.51125 0,-0.835 0.6775,-1.5125 1.51375,-1.5125 0.8325,0 1.51125,0.6775 1.51125,1.5125"
     inkscape:connector-curvature="0" /><path
     id="path384"
     style="fill:#231f20;fill-opacity:1;fill-rule:nonzero;stroke:none"
     d="m 316.93313,206.175 c 0,0.83625 -0.67625,1.51125 -1.51376,1.51125 -0.83499,0 -1.51375,-0.675 -1.51375,-1.51125 0,-0.8375 0.67875,-1.51375 1.51375,-1.51375 0.8375,0 1.51376,0.67625 1.51376,1.51375"
     inkscape:connector-curvature="0" /><path
     id="path386"
     style="fill:#231f20;fill-opacity:1;fill-rule:nonzero;stroke:none"
     d="m 310.88312,215.07875 c 0,0.8375 -0.67624,1.51125 -1.51375,1.51125 -0.835,0 -1.51375,-0.67375 -1.51375,-1.51125 0,-0.835 0.67875,-1.51125 1.51375,-1.51125 0.8375,0 1.51375,0.67625 1.51375,1.51125"
     inkscape:connector-curvature="0" /><path
     id="path388"
     style="fill:#231f20;fill-opacity:1;fill-rule:nonzero;stroke:none"
     d="m 107.71537,123.66375 c 0,0.835 -0.67725,1.5125 -1.51125,1.5125 -0.835,0 -1.51275,-0.6775 -1.51275,-1.5125 0,-0.835 0.67775,-1.5125 1.51275,-1.5125 0.834,0 1.51125,0.6775 1.51125,1.5125"
     inkscape:connector-curvature="0" /><path
     id="path390"
     style="fill:#231f20;fill-opacity:1;fill-rule:nonzero;stroke:none"
     d="m 455.73687,305.15137 c 0,0.8375 -0.67624,1.51613 -1.51125,1.51613 -0.8325,0 -1.50875,-0.67863 -1.50875,-1.51613 0,-0.8325 0.67625,-1.51112 1.50875,-1.51112 0.835,0 1.51125,0.67862 1.51125,1.51112"
     inkscape:connector-curvature="0" /><path
     id="path392"
     style="fill:#231f20;fill-opacity:1;fill-rule:nonzero;stroke:none"
     d="m 391.20062,214.6975 c -1.04,-0.3175 -1.72125,-0.605 -2.55374,-0.94 l 0,3.17625 c 0.2975,-0.14125 1.51375,-0.625 2.55374,-0.9375 1.11625,-0.335 2.12125,-0.57125 2.78375,-0.65 -0.6625,-0.08 -1.6675,-0.3125 -2.78375,-0.64875"
     inkscape:connector-curvature="0" /><path
     id="path394"
     style="fill:none;stroke:#231f20;stroke-width:0.9375;stroke-linecap:butt;stroke-linejoin:miter;stroke-miterlimit:4;stroke-dasharray:none;stroke-opacity:1"
     d="m 346.48687,206.09125 0,9.255 44.64375,0"
     inkscape:connector-curvature="0" /><path
     id="path396"
     style="fill:#231f20;fill-opacity:1;fill-rule:nonzero;stroke:none"
     d="m 432.53562,214.6975 c -1.04,-0.3175 -1.72,-0.605 -2.5525,-0.94 l 0,3.17625 c 0.3,-0.14125 1.5125,-0.625 2.5525,-0.9375 1.11875,-0.335 2.1275,-0.57125 2.78625,-0.65 -0.65875,-0.08 -1.6675,-0.3125 -2.78625,-0.64875"
     inkscape:connector-curvature="0" /><path
     id="path398"
     style="fill:none;stroke:#231f20;stroke-width:0.9375;stroke-linecap:butt;stroke-linejoin:miter;stroke-miterlimit:4;stroke-dasharray:none;stroke-opacity:1"
     d="m 405.57812,215.34625 24.75126,0"
     inkscape:connector-curvature="0" /><text
     style="font-style:normal;font-variant:normal;font-weight:normal;font-stretch:normal;font-size:6.25px;font-family:Arial;-inkscape-font-specification:Arial;writing-mode:lr-tb;fill:#231f20;fill-opacity:1;fill-rule:nonzero;stroke:none"
     id="text402"
     x="328.02689"
     y="155.42876"><tspan
       style="font-style:normal;font-variant:normal;font-weight:normal;font-stretch:normal;font-family:Arial;-inkscape-font-specification:Arial"
       x="328.02689"
       y="155.42876"
       id="tspan404">M</tspan><tspan
       style="font-style:normal;font-variant:normal;font-weight:normal;font-stretch:normal;font-family:Arial;-inkscape-font-specification:Arial"
       x="328.72073"
       y="161.67876"
       id="tspan406">u</tspan><tspan
       style="font-style:normal;font-variant:normal;font-weight:normal;font-stretch:normal;font-family:Arial;-inkscape-font-specification:Arial"
       x="328.89066"
       y="167.92876"
       id="tspan408">x</tspan><tspan
       style="font-style:normal;font-variant:normal;font-weight:normal;font-stretch:normal;font-family:Arial;-inkscape-font-specification:Arial"
       x="328.02689"
       y="202.4825"
       id="tspan410">M</tspan><tspan
       style="font-style:normal;font-variant:normal;font-weight:normal;font-stretch:normal;font-family:Arial;-inkscape-font-specification:Arial"
       x="328.72073"
       y="208.7325"
       id="tspan412">u</tspan><tspan
       style="font-style:normal;font-variant:normal;font-weight:normal;font-stretch:normal;font-family:Arial;-inkscape-font-specification:Arial"
       x="328.89066"
       y="214.9825"
       id="tspan414">x</tspan><tspan
       style="font-style:normal;font-variant:normal;font-weight:normal;font-stretch:normal;font-family:Arial;-inkscape-font-specification:Arial"
       x="328.02689"
       y="278.4415"
       id="tspan416">M</tspan><tspan
       style="font-style:normal;font-variant:normal;font-weight:normal;font-stretch:normal;font-family:Arial;-inkscape-font-specification:Arial"
       x="328.72073"
       y="284.6915"
       id="tspan418">u</tspan><tspan
       style="font-style:normal;font-variant:normal;font-weight:normal;font-stretch:normal;font-family:Arial;-inkscape-font-specification:Arial"
       x="328.89066"
       y="290.9415"
       id="tspan420">x</tspan><tspan
       style="font-style:normal;font-variant:normal;font-weight:normal;font-stretch:normal;font-family:Arial;-inkscape-font-specification:Arial"
       x="525.33813"
       y="190.72125"
       id="tspan422">M</tspan><tspan
       style="font-style:normal;font-variant:normal;font-weight:normal;font-stretch:normal;font-family:Arial;-inkscape-font-specification:Arial"
       x="526.03149"
       y="196.97125"
       id="tspan424">u</tspan><tspan
       style="font-style:normal;font-variant:normal;font-weight:normal;font-stretch:normal;font-family:Arial;-inkscape-font-specification:Arial"
       x="526.20435"
       y="203.22125"
       id="tspan426">x</tspan></text>
<path
     id="path428"
     style="fill:none;stroke:#000000;stroke-width:0.625;stroke-linecap:butt;stroke-linejoin:miter;stroke-miterlimit:4;stroke-dasharray:none;stroke-opacity:1"
     d="m 394.99187,300.2925 24.095,0 0,-211.1625"
     inkscape:connector-curvature="0" /><text
     xml:space="preserve"
     style="font-style:normal;font-variant:normal;font-weight:bold;font-stretch:normal;font-size:10px;line-height:100%;font-family:Arial;-inkscape-font-specification:'Arial, Bold';text-align:center;letter-spacing:0px;word-spacing:0px;writing-mode:lr-tb;text-anchor:middle;fill:#000000;fill-opacity:1;stroke:none;stroke-width:1px;stroke-linecap:butt;stroke-linejoin:miter;stroke-opacity:1"
     x="73.466187"
     y="322.05124"
     id="text4851"
     sodipodi:linespacing="100%"><tspan
       sodipodi:role="line"
       id="tspan4853"
       x="74.506226"
       y="322.05124"
       style="font-size:7.5px">COD 4Ed, Copyright  2009 </tspan><tspan
       sodipodi:role="line"
       x="73.466187"
       y="329.55124"
       id="tspan4855"
       style="font-size:7.5px">  Elsevier, Inc. All rights reserved.</tspan></text>
</svg>