<?xml version="1.0" encoding="UTF-8" standalone="no"?>
<svg
   xmlns:dc="http://purl.org/dc/elements/1.1/"
   xmlns:cc="http://creativecommons.org/ns#"
   xmlns:rdf="http://www.w3.org/1999/02/22-rdf-syntax-ns#"
   xmlns:svg="http://www.w3.org/2000/svg"
   xmlns="http://www.w3.org/2000/svg"
   xmlns:sodipodi="http://sodipodi.sourceforge.net/DTD/sodipodi-0.dtd"
   xmlns:inkscape="http://www.inkscape.org/namespaces/inkscape"
   viewBox="0 0 553.77374 342.27677"
   height="342.27676"
   width="553.77374"
   xml:space="preserve"
   version="1.1"
   id="svg2"
   inkscape:version="0.91 r13725"
   sodipodi:docname="hazardBEQ-1.svg"><sodipodi:namedview
     pagecolor="#ffffff"
     bordercolor="#666666"
     borderopacity="1"
     objecttolerance="10"
     gridtolerance="10"
     guidetolerance="10"
     inkscape:pageopacity="0"
     inkscape:pageshadow="2"
     inkscape:window-width="1855"
     inkscape:window-height="1056"
     id="namedview227"
     showgrid="false"
     showguides="true"
     inkscape:guide-bbox="true"
     inkscape:showpageshadow="false"
     fit-margin-top="8"
     fit-margin-left="8"
     fit-margin-bottom="8"
     fit-margin-right="8"
     inkscape:zoom="2.0297098"
     inkscape:cx="276.88687"
     inkscape:cy="171.13839"
     inkscape:window-x="1985"
     inkscape:window-y="24"
     inkscape:window-maximized="1"
     inkscape:current-layer="svg2"><sodipodi:guide
       position="479.82712,449.9867"
       orientation="0,1"
       id="guide5152" /></sodipodi:namedview><metadata
     id="metadata8"><rdf:RDF><cc:Work
         rdf:about=""><dc:format>image/svg+xml</dc:format><dc:type
           rdf:resource="http://purl.org/dc/dcmitype/StillImage" /><dc:title></dc:title></cc:Work></rdf:RDF></metadata><defs
     id="defs6"><marker
       inkscape:stockid="Arrow1Mend"
       orient="auto"
       refY="0"
       refX="0"
       id="Arrow1Mend"
       style="overflow:visible"
       inkscape:isstock="true"><path
         id="path4875"
         d="M 0,0 5,-5 -12.5,0 5,5 0,0 Z"
         style="fill:#231f20;fill-opacity:1;fill-rule:evenodd;stroke:#231f20;stroke-width:1pt;stroke-opacity:1"
         transform="matrix(-0.4,0,0,-0.4,-4,0)"
         inkscape:connector-curvature="0" /></marker><clipPath
       id="clipPath372"
       clipPathUnits="userSpaceOnUse"><path
         id="path374"
         d="m 94,598 0,3021 4312,0 0,-3021 -4312,0 z"
         inkscape:connector-curvature="0" /></clipPath><clipPath
       id="clipPath392"
       clipPathUnits="userSpaceOnUse"><path
         id="path394"
         d="m 94,598 0,3021 4312,0 0,-3021 -4312,0 z"
         inkscape:connector-curvature="0" /></clipPath><clipPath
       id="clipPath406"
       clipPathUnits="userSpaceOnUse"><path
         id="path408"
         d="m 94,598 0,3021 4312,0 0,-3021 -4312,0 z"
         inkscape:connector-curvature="0" /></clipPath><clipPath
       id="clipPath418"
       clipPathUnits="userSpaceOnUse"><path
         id="path420"
         d="m 94,598 0,3021 4312,0 0,-3021 -4312,0 z"
         inkscape:connector-curvature="0" /></clipPath><clipPath
       id="clipPath430"
       clipPathUnits="userSpaceOnUse"><path
         id="path432"
         d="m 94,598 0,3021 4312,0 0,-3021 -4312,0 z"
         inkscape:connector-curvature="0" /></clipPath></defs><g
     id="g4316"
     transform="translate(1.335144e-7,6.7138672e-6)"><path
       inkscape:connector-curvature="0"
       d="m 333.03251,316.53125 0,-20.48388 10.34125,0 0,20.40238 -10.34125,0.0815"
       style="fill:#aa2f2f;fill-opacity:0.55244757;fill-rule:nonzero;stroke:none"
       id="path336" /><path
       inkscape:connector-curvature="0"
       d="m 239.13751,141.65625 28.54625,0 m -28.54625,-13.92375 18.79875,0 m 32.37375,70.31875 17.4075,0 m 11.33,-13.925 -28.545,0"
       style="fill:none;stroke:#231f20;stroke-width:1.25;stroke-linecap:butt;stroke-linejoin:miter;stroke-miterlimit:4;stroke-dasharray:none;stroke-opacity:1"
       id="path56" /><path
       inkscape:connector-curvature="0"
       d="m 229.59501,146.1225 0,-20.48375 10.335,0 0,20.40375 -10.335,0.08"
       style="fill:#918f90;fill-opacity:1;fill-rule:nonzero;stroke:none"
       id="path58" /><path
       inkscape:connector-curvature="0"
       d="m 280.65251,202.2875 0,-20.48625 10.33625,0 0,20.40375 -10.33625,0.0825"
       style="fill:#918f90;fill-opacity:1;fill-rule:nonzero;stroke:none"
       id="path60" /><path
       inkscape:connector-curvature="0"
       d="m 280.47376,181.78 10.4425,0 0,20.53 -10.26375,0"
       style="fill:none;stroke:#000000;stroke-width:1;stroke-linecap:butt;stroke-linejoin:miter;stroke-miterlimit:4;stroke-dasharray:none;stroke-opacity:1"
       id="path62" /><path
       inkscape:connector-curvature="0"
       d="m 279.13251,181.82125 -8.75,0 0,20.44875 10.265,0"
       style="fill:none;stroke:#231f20;stroke-width:0.625;stroke-linecap:butt;stroke-linejoin:miter;stroke-miterlimit:4;stroke-dasharray:5.00025, 2.500125;stroke-dashoffset:0;stroke-opacity:1"
       id="path64" /><text
       y="195.21375"
       x="271.47751"
       id="text68"
       style="font-variant:normal;font-weight:normal;font-size:10px;font-family:Helvetica;-inkscape-font-specification:Helvetica;writing-mode:lr-tb;fill:#000000;fill-opacity:1;fill-rule:nonzero;stroke:none"><tspan
         id="tspan70"
         y="195.21375"
         x="271.47751 278.69751 284.2612">Reg</tspan><tspan
         id="tspan72"
         y="15.29"
         x="7.6399999 14.310018 17.639999 23.200016 28.760014 32.089252 37.649555">Program</tspan><tspan
         id="tspan74"
         y="27.289516"
         x="7.6399999 13.200322 18.200626 23.760128 28.760128 34.320126 37.100124 39.320126 44.880142">execution</tspan><tspan
         id="tspan76"
         y="39.289993"
         x="7.6399999 13.200322 16.529865 22.090168 27.649765">order</tspan><tspan
         id="tspan78"
         y="51.288536"
         x="7.6399999 10.970002 13.190003 18.75 21.530018 23.75 29.310017 34.310017 37.090015 40.420017 45.980015 50.980015 53.760014 55.980015 61.539379 67.099075 72.09877">(in instructions)</tspan><tspan
         id="tspan80"
         y="82.033661"
         x="17.561378 23.121681 28.682003 31.462307 37.021465 42.581768 48.142071 50.922375 56.480751 62.041073 64.821381 67.601379 73.160881 78.720573 81.500282 84.280991 89.841309">40 beq $1, $3, 28</tspan><tspan
         id="tspan82"
         y="138.77878"
         x="17.561245 23.121548 28.680878 31.460876 37.020874 42.580872 48.140869 50.920868 56.480865 62.041241 67.601547 70.381088 73.161392 78.720497 84.2808 87.061104 89.841103 95.401115">44 and $12, $2, $5</tspan><tspan
         id="tspan84"
         y="195.17227"
         x="17.561245 23.121548 28.68185 31.462154 37.020741 40.350742 43.131046 48.690662 54.250984 59.811287 62.591587 65.370789 70.930504 76.490196 79.271164 82.050705 87.611031">48 or $13, $6, $2</tspan><tspan
         id="tspan86"
         y="252.26352"
         x="17.561169 23.121471 28.681774 31.462078 37.021255 42.581558 48.140793 50.920792 56.480789 62.040783 67.600807 70.380806 73.160805 78.720802 84.2808 87.060799 89.840797 95.400795">52 add $14, $2, $2</tspan></text>
<path
       inkscape:connector-curvature="0"
       d="m 13.210384,62.633744 0,247.161256"
       style="fill:none;stroke:#000000;stroke-width:1;stroke-linecap:butt;stroke-linejoin:miter;stroke-miterlimit:4;stroke-dasharray:none;stroke-opacity:1"
       id="path88" /><path
       inkscape:connector-curvature="0"
       d="m 14.100634,311.85262 c 0.4355,-1.4375 0.836375,-2.375 1.29925,-3.53037 l -4.389625,0 c 0.19725,0.41262 0.86325,2.09287 1.297875,3.53037 0.46525,1.5385 0.784125,2.935 0.896875,3.84125 0.114375,-0.90625 0.43125,-2.30275 0.895625,-3.84125"
       style="fill:#231f20;fill-opacity:1;fill-rule:nonzero;stroke:none"
       id="path90" /><text
       y="309.35599"
       x="17.562008"
       id="text94"
       style="font-variant:normal;font-weight:normal;font-size:10px;font-family:Helvetica;-inkscape-font-specification:Helvetica;writing-mode:lr-tb;fill:#000000;fill-opacity:1;fill-rule:nonzero;stroke:none"><tspan
         id="tspan96"
         y="309.35599"
         x="17.562008 23.122313 28.682617 31.462925 33.681633 40.901634 43.681175 49.241257 54.801563 57.581104 60.361408 65.921722 71.482025 74.812332 80.371872 85.932175">72 lw $4, 50($7)</tspan></text>
<path
       inkscape:connector-curvature="0"
       d="m 124.60876,28.614994 417.74,0"
       style="fill:none;stroke:#231f20;stroke-width:1;stroke-linecap:butt;stroke-linejoin:miter;stroke-miterlimit:4;stroke-dasharray:none;stroke-opacity:1;marker-end:url(#Arrow1Mend)"
       id="path98" /><text
       sodipodi:linespacing="125%"
       y="43.90387"
       x="123.22631"
       id="text104"
       style="font-style:normal;font-variant:normal;font-weight:normal;font-stretch:normal;font-size:10px;line-height:125%;font-family:Helvetica;-inkscape-font-specification:'Helvetica, Normal';text-align:start;writing-mode:lr-tb;text-anchor:start;fill:#000000;fill-opacity:1;fill-rule:nonzero;stroke:none"><tspan
         y="43.90387"
         x="123.22631"
         id="tspan5142"
         sodipodi:role="line">CC 1       CC 2          CC 3          CC 4          CC 5          CC 6           CC 7          CC 8        CC 9</tspan></text>
<path
       inkscape:connector-curvature="0"
       d="m 309.80751,78.906248 10.44125,0 m -73.8,0 23.67125,0 m -82.15375,6.005 28.545,0 m -28.545,-13.92375 28.545,0 m -77.98,7.91875 29.93875,0 m 90.17625,49.030002 9.195,0 m 93.09875,113.2525 9.375,0"
       style="fill:none;stroke:#231f20;stroke-width:1.25;stroke-linecap:butt;stroke-linejoin:miter;stroke-miterlimit:4;stroke-dasharray:none;stroke-opacity:1"
       id="path110" /><path
       inkscape:connector-curvature="0"
       d="m 128.34126,89.211248 0,-20.485 10.34,0 0,20.4025 -10.34,0.0825"
       style="fill:#918f90;fill-opacity:1;fill-rule:nonzero;stroke:none"
       id="path112" /><path
       inkscape:connector-curvature="0"
       d="m 290.78876,89.128748 -20.52875,0 0,-20.52875 20.52875,0 0,20.52875 z m -152.185,0 -20.52662,0 0,-20.52875 20.52662,0 0,20.52875 z"
       style="fill:none;stroke:#000000;stroke-width:1;stroke-linecap:butt;stroke-linejoin:miter;stroke-miterlimit:4;stroke-dasharray:none;stroke-opacity:1"
       id="path114" /><text
       y="82.033752"
       x="122.78501"
       id="text118"
       style="font-variant:normal;font-weight:normal;font-size:10px;font-family:Helvetica;-inkscape-font-specification:Helvetica;writing-mode:lr-tb;fill:#000000;fill-opacity:1;fill-rule:nonzero;stroke:none"><tspan
         id="tspan120"
         y="82.033752"
         x="122.78501 125.56501 272.74902 279.96902">IMDM</tspan></text>
<path
       inkscape:connector-curvature="0"
       d="m 178.30501,89.148748 0,-20.485 10.33875,0 0,20.40375 -10.33875,0.0813"
       style="fill:#918f90;fill-opacity:1;fill-rule:nonzero;stroke:none"
       id="path122" /><path
       inkscape:connector-curvature="0"
       d="m 178.12751,68.642498 10.44125,0 0,20.5275 -10.26375,0"
       style="fill:none;stroke:#000000;stroke-width:1;stroke-linecap:butt;stroke-linejoin:miter;stroke-miterlimit:4;stroke-dasharray:none;stroke-opacity:1"
       id="path124" /><path
       inkscape:connector-curvature="0"
       d="m 176.78626,68.682498 -8.75,0 0,20.45125 10.26375,0"
       style="fill:none;stroke:#231f20;stroke-width:0.625;stroke-linecap:butt;stroke-linejoin:miter;stroke-miterlimit:4;stroke-dasharray:5.00025, 2.500125;stroke-dashoffset:0;stroke-opacity:1"
       id="path126" /><text
       y="82.078735"
       x="169.13126"
       id="text130"
       style="font-variant:normal;font-weight:normal;font-size:10px;font-family:Helvetica;-inkscape-font-specification:Helvetica;writing-mode:lr-tb;fill:#000000;fill-opacity:1;fill-rule:nonzero;stroke:none"><tspan
         id="tspan132"
         y="82.078735"
         x="169.13126 176.35126 181.91348">Reg</tspan></text>
<path
       inkscape:connector-curvature="0"
       d="m 330.67876,68.642498 -10.44125,0 0,20.5275 10.26375,0"
       style="fill:none;stroke:#000000;stroke-width:1;stroke-linecap:butt;stroke-linejoin:miter;stroke-miterlimit:4;stroke-dasharray:none;stroke-opacity:1"
       id="path134" /><path
       inkscape:connector-curvature="0"
       d="m 332.01876,68.682498 8.75,0 0,20.45125 -10.26625,0"
       style="fill:none;stroke:#231f20;stroke-width:0.625;stroke-linecap:butt;stroke-linejoin:miter;stroke-miterlimit:4;stroke-dasharray:5.00025, 2.500125;stroke-dashoffset:0;stroke-opacity:1"
       id="path136" /><text
       y="82.077492"
       x="321.33252"
       id="text140"
       style="font-variant:normal;font-weight:normal;font-size:10px;font-family:Helvetica;-inkscape-font-specification:Helvetica;writing-mode:lr-tb;fill:#000000;fill-opacity:1;fill-rule:nonzero;stroke:none"><tspan
         id="tspan142"
         y="82.077492"
         x="321.33252 328.55252 334.11523">Reg</tspan></text>
<path
       inkscape:connector-curvature="0"
       d="m 216.89376,51.746244 29.695,17.856254 0,18.60875 -29.4425,17.857502 0,-22.131252 5.01125,-5.28125 -5.26375,-5.2825 0,-21.627504"
       style="fill:#918f90;fill-opacity:1;fill-rule:nonzero;stroke:none"
       id="path144" /><path
       inkscape:connector-curvature="0"
       d="m 163.70126,78.897498 0,-4.315 4.09875,0 m 49.09375,-22.836254 29.695,17.856254 0,18.60875 -29.4425,17.857502 0,-22.131252 5.01125,-5.28125 -5.26375,-5.2825 0,-21.627504 z"
       style="fill:none;stroke:#000000;stroke-width:1;stroke-linecap:butt;stroke-linejoin:miter;stroke-miterlimit:4;stroke-dasharray:none;stroke-opacity:1"
       id="path146" /><path
       inkscape:connector-curvature="0"
       d="m 265.41626,79.113748 0,14.79 34.06875,0 0,-9.18125 3.90375,0"
       style="fill:none;stroke:#231f20;stroke-width:1.25;stroke-linecap:butt;stroke-linejoin:miter;stroke-miterlimit:4;stroke-dasharray:none;stroke-opacity:1"
       id="path148" /><path
       inkscape:connector-curvature="0"
       d="m 150.02126,105.8875 6.26611,0 0,-53.960506 -6.26611,0 0,53.960506 z"
       style="fill:#918f90;fill-opacity:1;fill-rule:nonzero;stroke:none"
       id="path150" /><path
       inkscape:connector-curvature="0"
       d="m 150.02126,105.8875 6.26611,0 0,-53.960506 -6.26611,0 0,53.960506 z"
       style="fill:none;stroke:#000000;stroke-width:1;stroke-linecap:butt;stroke-linejoin:miter;stroke-miterlimit:4;stroke-dasharray:none;stroke-opacity:1"
       id="path152" /><path
       inkscape:connector-curvature="0"
       d="m 201.07751,105.8875 6.26611,0 0,-53.960506 -6.26611,0 0,53.960506 z"
       style="fill:#918f90;fill-opacity:1;fill-rule:nonzero;stroke:none"
       id="path154" /><path
       inkscape:connector-curvature="0"
       d="m 201.07876,105.8875 6.2666,0 0,-53.960506 -6.2666,0 0,53.960506 z"
       style="fill:none;stroke:#000000;stroke-width:1;stroke-linecap:butt;stroke-linejoin:miter;stroke-miterlimit:4;stroke-dasharray:none;stroke-opacity:1"
       id="path156" /><path
       inkscape:connector-curvature="0"
       d="m 252.13501,105.8875 6.26611,0 0,-53.960506 -6.26611,0 0,53.960506 z"
       style="fill:#918f90;fill-opacity:1;fill-rule:nonzero;stroke:none"
       id="path158" /><path
       inkscape:connector-curvature="0"
       d="m 252.13501,105.8875 6.26465,0 0,-53.960506 -6.26465,0 0,53.960506 z"
       style="fill:none;stroke:#000000;stroke-width:1;stroke-linecap:butt;stroke-linejoin:miter;stroke-miterlimit:4;stroke-dasharray:none;stroke-opacity:1"
       id="path160" /><path
       inkscape:connector-curvature="0"
       d="m 303.18876,105.8875 6.27002,0 0,-53.960506 -6.27002,0 0,53.960506 z"
       style="fill:#918f90;fill-opacity:1;fill-rule:nonzero;stroke:none"
       id="path162" /><path
       inkscape:connector-curvature="0"
       d="m 303.19126,105.8875 6.26757,0 0,-53.960506 -6.26757,0 0,53.960506 z"
       style="fill:none;stroke:#000000;stroke-width:1;stroke-linecap:butt;stroke-linejoin:miter;stroke-miterlimit:4;stroke-dasharray:none;stroke-opacity:1"
       id="path164" /><path
       inkscape:connector-curvature="0"
       d="m 360.98126,135.65125 10.44,0 m -73.79875,0 23.67125,0 m -131.5875,0 29.93875,0 m 84.0125,-56.813752 -12.89125,0"
       style="fill:none;stroke:#231f20;stroke-width:1.25;stroke-linecap:butt;stroke-linejoin:miter;stroke-miterlimit:4;stroke-dasharray:none;stroke-opacity:1"
       id="path166" /><path
       inkscape:connector-curvature="0"
       d="m 179.51501,145.955 0,-20.48375 10.34,0 0,20.39875 -10.34,0.085"
       style="fill:#918f90;fill-opacity:1;fill-rule:nonzero;stroke:none"
       id="path168" /><path
       inkscape:connector-curvature="0"
       d="m 341.95876,145.87 -20.525,0 0,-20.5275 20.525,0 0,20.5275 z m -152.18125,0 -20.525,0 0,-20.5275 20.525,0 0,20.5275 z"
       style="fill:none;stroke:#000000;stroke-width:1;stroke-linecap:butt;stroke-linejoin:miter;stroke-miterlimit:4;stroke-dasharray:none;stroke-opacity:1"
       id="path170" /><text
       y="138.77875"
       x="173.95876"
       id="text174"
       style="font-variant:normal;font-weight:normal;font-size:10px;font-family:Helvetica;-inkscape-font-specification:Helvetica;writing-mode:lr-tb;fill:#000000;fill-opacity:1;fill-rule:nonzero;stroke:none"><tspan
         id="tspan176"
         y="138.77875"
         x="173.95876 176.73875 323.91977 331.13977">IMDM</tspan></text>
<path
       inkscape:connector-curvature="0"
       d="m 229.30001,125.3875 10.44125,0 0,20.5275 -10.26375,0"
       style="fill:none;stroke:#000000;stroke-width:1;stroke-linecap:butt;stroke-linejoin:miter;stroke-miterlimit:4;stroke-dasharray:none;stroke-opacity:1"
       id="path178" /><path
       inkscape:connector-curvature="0"
       d="m 227.95876,125.425 -8.74875,0 0,20.45125 10.26125,0"
       style="fill:none;stroke:#231f20;stroke-width:0.625;stroke-linecap:butt;stroke-linejoin:miter;stroke-miterlimit:4;stroke-dasharray:5.00025, 2.500125;stroke-dashoffset:0;stroke-opacity:1"
       id="path180" /><text
       y="138.81999"
       x="220.30501"
       id="text184"
       style="font-variant:normal;font-weight:normal;font-size:10px;font-family:Helvetica;-inkscape-font-specification:Helvetica;writing-mode:lr-tb;fill:#000000;fill-opacity:1;fill-rule:nonzero;stroke:none"><tspan
         id="tspan186"
         y="138.81999"
         x="220.30501 227.52501 233.0887">Reg</tspan></text>
<path
       inkscape:connector-curvature="0"
       d="m 381.67251,145.89125 0,-20.4825 -10.3375,0 0,20.40125 10.3375,0.0813"
       style="fill:#918f90;fill-opacity:1;fill-rule:nonzero;stroke:none"
       id="path188" /><path
       inkscape:connector-curvature="0"
       d="m 381.85376,125.3875 -10.4425,0 0,20.5275 10.26125,0"
       style="fill:none;stroke:#000000;stroke-width:1;stroke-linecap:butt;stroke-linejoin:miter;stroke-miterlimit:4;stroke-dasharray:none;stroke-opacity:1"
       id="path190" /><path
       inkscape:connector-curvature="0"
       d="m 383.19626,125.425 8.7475,0 0,20.45125 -10.26625,0"
       style="fill:none;stroke:#231f20;stroke-width:0.625;stroke-linecap:butt;stroke-linejoin:miter;stroke-miterlimit:4;stroke-dasharray:5.00025, 2.500125;stroke-dashoffset:0;stroke-opacity:1"
       id="path192" /><text
       y="138.81999"
       x="372.50626"
       id="text196"
       style="font-variant:normal;font-weight:normal;font-size:10px;font-family:Helvetica;-inkscape-font-specification:Helvetica;writing-mode:lr-tb;fill:#000000;fill-opacity:1;fill-rule:nonzero;stroke:none"><tspan
         id="tspan198"
         y="138.81999"
         x="372.50626 379.72626 385.28625">Reg</tspan></text>
<path
       inkscape:connector-curvature="0"
       d="m 268.06626,108.49 29.695,17.855 0,18.61 -29.44375,17.85625 0,-22.13125 5.0125,-5.2825 -5.26375,-5.28125 0,-21.62625"
       style="fill:#918f90;fill-opacity:1;fill-rule:nonzero;stroke:none"
       id="path200" /><path
       inkscape:connector-curvature="0"
       d="m 214.87626,135.64 0,-4.31125 4.0975,0 m 49.0925,-22.83875 29.695,17.855 0,18.61 -29.44375,17.85625 0,-22.13125 5.0125,-5.2825 -5.26375,-5.28125 0,-21.62625 z"
       style="fill:none;stroke:#000000;stroke-width:1;stroke-linecap:butt;stroke-linejoin:miter;stroke-miterlimit:4;stroke-dasharray:none;stroke-opacity:1"
       id="path202" /><path
       inkscape:connector-curvature="0"
       d="m 316.59001,135.8575 0,14.78875 34.06875,0 0,-9.18 3.905,0"
       style="fill:none;stroke:#231f20;stroke-width:1.25;stroke-linecap:butt;stroke-linejoin:miter;stroke-miterlimit:4;stroke-dasharray:none;stroke-opacity:1"
       id="path204" /><path
       inkscape:connector-curvature="0"
       d="m 201.19251,162.63 6.2666,0 0,-53.9585 -6.2666,0 0,53.9585 z"
       style="fill:#918f90;fill-opacity:1;fill-rule:nonzero;stroke:none"
       id="path206" /><path
       inkscape:connector-curvature="0"
       d="m 201.19501,162.63 6.26514,0 0,-53.9585 -6.26514,0 0,53.9585 z"
       style="fill:none;stroke:#000000;stroke-width:1;stroke-linecap:butt;stroke-linejoin:miter;stroke-miterlimit:4;stroke-dasharray:none;stroke-opacity:1"
       id="path208" /><path
       inkscape:connector-curvature="0"
       d="m 252.25001,162.63 6.26611,0 0,-53.9585 -6.26611,0 0,53.9585 z"
       style="fill:#918f90;fill-opacity:1;fill-rule:nonzero;stroke:none"
       id="path210" /><path
       inkscape:connector-curvature="0"
       d="m 252.25001,162.63 6.26611,0 0,-53.9585 -6.26611,0 0,53.9585 z"
       style="fill:none;stroke:#000000;stroke-width:1;stroke-linecap:butt;stroke-linejoin:miter;stroke-miterlimit:4;stroke-dasharray:none;stroke-opacity:1"
       id="path212" /><path
       inkscape:connector-curvature="0"
       d="m 303.30626,162.63 6.2666,0 0,-53.9585 -6.2666,0 0,53.9585 z"
       style="fill:#918f90;fill-opacity:1;fill-rule:nonzero;stroke:none"
       id="path214" /><path
       inkscape:connector-curvature="0"
       d="m 303.30626,162.63 6.2666,0 0,-53.9585 -6.2666,0 0,53.9585 z"
       style="fill:none;stroke:#000000;stroke-width:1;stroke-linecap:butt;stroke-linejoin:miter;stroke-miterlimit:4;stroke-dasharray:none;stroke-opacity:1"
       id="path216" /><path
       inkscape:connector-curvature="0"
       d="m 354.36501,162.63 6.26465,0 0,-53.9585 -6.26465,0 0,53.9585 z"
       style="fill:#918f90;fill-opacity:1;fill-rule:nonzero;stroke:none"
       id="path218" /><path
       inkscape:connector-curvature="0"
       d="m 354.36501,162.63 6.26465,0 0,-53.9585 -6.26465,0 0,53.9585 z"
       style="fill:none;stroke:#000000;stroke-width:1;stroke-linecap:butt;stroke-linejoin:miter;stroke-miterlimit:4;stroke-dasharray:none;stroke-opacity:1"
       id="path220" /><path
       inkscape:connector-curvature="0"
       d="m 412.15376,192.04625 10.44125,0 m -73.79875,0 23.67,0 m -131.58875,0 29.94,0 m 84.01375,-56.46625 -12.8925,0"
       style="fill:none;stroke:#231f20;stroke-width:1.25;stroke-linecap:butt;stroke-linejoin:miter;stroke-miterlimit:4;stroke-dasharray:none;stroke-opacity:1"
       id="path222" /><path
       inkscape:connector-curvature="0"
       d="m 230.68876,202.35125 0,-20.48625 10.3375,0 0,20.40125 -10.3375,0.085"
       style="fill:#918f90;fill-opacity:1;fill-rule:nonzero;stroke:none"
       id="path224" /><path
       inkscape:connector-curvature="0"
       d="m 393.13251,202.26625 -20.525,0 0,-20.52625 20.525,0 0,20.52625 z m -152.18,0 -20.5275,0 0,-20.52625 20.5275,0 0,20.52625 z"
       style="fill:none;stroke:#000000;stroke-width:1;stroke-linecap:butt;stroke-linejoin:miter;stroke-miterlimit:4;stroke-dasharray:none;stroke-opacity:1"
       id="path226" /><text
       y="195.17249"
       x="225.13376"
       id="text230"
       style="font-variant:normal;font-weight:normal;font-size:10px;font-family:Helvetica;-inkscape-font-specification:Helvetica;writing-mode:lr-tb;fill:#000000;fill-opacity:1;fill-rule:nonzero;stroke:none"><tspan
         id="tspan232"
         y="195.17249"
         x="225.13376 227.91376 375.09378 382.31378">IMDM</tspan></text>
<path
       inkscape:connector-curvature="0"
       d="m 432.84626,202.2875 0,-20.48625 -10.33625,0 0,20.40375 10.33625,0.0825"
       style="fill:#918f90;fill-opacity:1;fill-rule:nonzero;stroke:none"
       id="path234" /><path
       inkscape:connector-curvature="0"
       d="m 433.02501,181.78 -10.44125,0 0,20.53 10.2625,0"
       style="fill:none;stroke:#000000;stroke-width:1;stroke-linecap:butt;stroke-linejoin:miter;stroke-miterlimit:4;stroke-dasharray:none;stroke-opacity:1"
       id="path236" /><path
       inkscape:connector-curvature="0"
       d="m 434.36501,181.82125 8.75,0 0,20.44875 -10.26375,0"
       style="fill:none;stroke:#231f20;stroke-width:0.625;stroke-linecap:butt;stroke-linejoin:miter;stroke-miterlimit:4;stroke-dasharray:5.00025, 2.500125;stroke-dashoffset:0;stroke-opacity:1"
       id="path238" /><text
       y="195.21375"
       x="423.67752"
       id="text242"
       style="font-variant:normal;font-weight:normal;font-size:10px;font-family:Helvetica;-inkscape-font-specification:Helvetica;writing-mode:lr-tb;fill:#000000;fill-opacity:1;fill-rule:nonzero;stroke:none"><tspan
         id="tspan244"
         y="195.21375"
         x="423.67752 430.89752 436.45975">Reg</tspan></text>
<path
       inkscape:connector-curvature="0"
       d="m 319.24126,164.885 29.695,17.85375 0,18.61375 -29.44625,17.85375 0,-22.13125 5.015,-5.28 -5.26375,-5.28125 0,-21.62875"
       style="fill:#918f90;fill-opacity:1;fill-rule:nonzero;stroke:none"
       id="path246" /><path
       inkscape:connector-curvature="0"
       d="m 266.04876,192.03625 0,-4.31375 4.1,0 m 49.0925,-22.8375 29.695,17.85375 0,18.61375 -29.44625,17.85375 0,-22.13125 5.015,-5.28 -5.26375,-5.28125 0,-21.62875 z"
       style="fill:none;stroke:#000000;stroke-width:1;stroke-linecap:butt;stroke-linejoin:miter;stroke-miterlimit:4;stroke-dasharray:none;stroke-opacity:1"
       id="path248" /><path
       inkscape:connector-curvature="0"
       d="m 367.76376,192.25375 0,14.7875 34.0675,0 0,-9.1775 3.90625,0"
       style="fill:none;stroke:#231f20;stroke-width:1.25;stroke-linecap:butt;stroke-linejoin:miter;stroke-miterlimit:4;stroke-dasharray:none;stroke-opacity:1"
       id="path250" /><path
       inkscape:connector-curvature="0"
       d="m 252.36751,219.02375 6.26611,0 0,-53.959 -6.26611,0 0,53.959 z"
       style="fill:#918f90;fill-opacity:1;fill-rule:nonzero;stroke:none"
       id="path252" /><path
       inkscape:connector-curvature="0"
       d="m 252.36751,219.02625 6.26611,0 0,-53.96138 -6.26611,0 0,53.96138 z"
       style="fill:none;stroke:#000000;stroke-width:1;stroke-linecap:butt;stroke-linejoin:miter;stroke-miterlimit:4;stroke-dasharray:none;stroke-opacity:1"
       id="path254" /><path
       inkscape:connector-curvature="0"
       d="m 303.42251,219.02375 6.26514,0 0,-53.959 -6.26514,0 0,53.959 z"
       style="fill:#918f90;fill-opacity:1;fill-rule:nonzero;stroke:none"
       id="path256" /><path
       inkscape:connector-curvature="0"
       d="m 303.42501,219.02625 6.26514,0 0,-53.96138 -6.26514,0 0,53.96138 z"
       style="fill:none;stroke:#000000;stroke-width:1;stroke-linecap:butt;stroke-linejoin:miter;stroke-miterlimit:4;stroke-dasharray:none;stroke-opacity:1"
       id="path258" /><path
       inkscape:connector-curvature="0"
       d="m 354.48001,219.02375 6.26757,0 0,-53.959 -6.26757,0 0,53.959 z"
       style="fill:#918f90;fill-opacity:1;fill-rule:nonzero;stroke:none"
       id="path260" /><path
       inkscape:connector-curvature="0"
       d="m 354.48001,219.02625 6.26757,0 0,-53.96138 -6.26757,0 0,53.96138 z"
       style="fill:none;stroke:#000000;stroke-width:1;stroke-linecap:butt;stroke-linejoin:miter;stroke-miterlimit:4;stroke-dasharray:none;stroke-opacity:1"
       id="path262" /><path
       inkscape:connector-curvature="0"
       d="m 405.54001,219.02375 6.26367,0 0,-53.959 -6.26367,0 0,53.959 z"
       style="fill:#918f90;fill-opacity:1;fill-rule:nonzero;stroke:none"
       id="path264" /><path
       inkscape:connector-curvature="0"
       d="m 405.54001,219.02625 6.26367,0 0,-53.96138 -6.26367,0 0,53.96138 z"
       style="fill:none;stroke:#000000;stroke-width:1;stroke-linecap:butt;stroke-linejoin:miter;stroke-miterlimit:4;stroke-dasharray:none;stroke-opacity:1"
       id="path266" /><path
       inkscape:connector-curvature="0"
       d="m 462.97876,249.13625 10.79125,0 m -73.80125,0 23.67125,0 m -82.155,6.0075 18.79875,0 m -18.79875,-13.925 18.79875,0 m -68.23,7.9175 29.93625,0 m 84.01375,-57.16125 -12.89125,0"
       style="fill:none;stroke:#231f20;stroke-width:1.25;stroke-linecap:butt;stroke-linejoin:miter;stroke-miterlimit:4;stroke-dasharray:none;stroke-opacity:1"
       id="path268" /><path
       inkscape:connector-curvature="0"
       d="m 281.86251,259.44125 0,-20.48375 10.335,0 0,20.4 -10.335,0.0838"
       style="fill:#918f90;fill-opacity:1;fill-rule:nonzero;stroke:none"
       id="path270" /><path
       inkscape:connector-curvature="0"
       d="m 444.30376,259.3575 -20.52375,0 0,-20.5275 20.52375,0 0,20.5275 z m -152.1775,0 -20.5275,0 0,-20.5275 20.5275,0 0,20.5275 z"
       style="fill:none;stroke:#000000;stroke-width:1;stroke-linecap:butt;stroke-linejoin:miter;stroke-miterlimit:4;stroke-dasharray:none;stroke-opacity:1"
       id="path272" /><text
       y="252.26498"
       x="276.30627"
       id="text276"
       style="font-variant:normal;font-weight:normal;font-size:10px;font-family:Helvetica;-inkscape-font-specification:Helvetica;writing-mode:lr-tb;fill:#000000;fill-opacity:1;fill-rule:nonzero;stroke:none"><tspan
         id="tspan278"
         y="252.26498"
         x="276.30627 279.08627">IM</tspan><tspan
         id="tspan280"
         y="252.26352"
         x="426.26627 433.48627">DM</tspan></text>
<path
       inkscape:connector-curvature="0"
       d="m 331.82376,259.38 0,-20.48625 10.34,0 0,20.40375 -10.34,0.0825"
       style="fill:#918f90;fill-opacity:1;fill-rule:nonzero;stroke:none"
       id="path282" /><path
       inkscape:connector-curvature="0"
       d="m 331.64626,238.8725 10.44125,0 0,20.5275 -10.26375,0"
       style="fill:none;stroke:#000000;stroke-width:1;stroke-linecap:butt;stroke-linejoin:miter;stroke-miterlimit:4;stroke-dasharray:none;stroke-opacity:1"
       id="path284" /><path
       inkscape:connector-curvature="0"
       d="m 330.30501,238.91125 -8.7475,0 0,20.45125 10.26375,0"
       style="fill:none;stroke:#231f20;stroke-width:0.625;stroke-linecap:butt;stroke-linejoin:miter;stroke-miterlimit:4;stroke-dasharray:5.00025, 2.500125;stroke-dashoffset:0;stroke-opacity:1"
       id="path286" /><text
       y="252.30624"
       x="322.65128"
       id="text290"
       style="font-variant:normal;font-weight:normal;font-size:10px;font-family:Helvetica;-inkscape-font-specification:Helvetica;writing-mode:lr-tb;fill:#000000;fill-opacity:1;fill-rule:nonzero;stroke:none"><tspan
         id="tspan292"
         y="252.30624"
         x="322.65128 329.87128 335.4335">Reg</tspan></text>
<path
       inkscape:connector-curvature="0"
       d="m 484.19876,238.8725 -10.44125,0 0,20.5275 10.26375,0"
       style="fill:none;stroke:#000000;stroke-width:1;stroke-linecap:butt;stroke-linejoin:miter;stroke-miterlimit:4;stroke-dasharray:none;stroke-opacity:1"
       id="path294" /><path
       inkscape:connector-curvature="0"
       d="m 484.02126,259.38 0,-20.48625 -10.3375,0 0,20.40375 10.3375,0.0825"
       style="fill:#918f90;fill-opacity:1;fill-rule:nonzero;stroke:none"
       id="path296" /><path
       inkscape:connector-curvature="0"
       d="m 485.54001,238.91125 8.75,0 0,20.45125 -10.26375,0"
       style="fill:none;stroke:#231f20;stroke-width:0.625;stroke-linecap:butt;stroke-linejoin:miter;stroke-miterlimit:4;stroke-dasharray:5.00025, 2.500125;stroke-dashoffset:0;stroke-opacity:1"
       id="path298" /><text
       y="252.30624"
       x="474.97128"
       id="text302"
       style="font-variant:normal;font-weight:normal;font-size:10px;font-family:Helvetica;-inkscape-font-specification:Helvetica;writing-mode:lr-tb;fill:#000000;fill-opacity:1;fill-rule:nonzero;stroke:none"><tspan
         id="tspan304"
         y="252.30624"
         x="474.97128 482.19128 487.75128">Reg</tspan></text>
<path
       inkscape:connector-curvature="0"
       d="m 370.41501,221.975 29.6925,17.85625 0,18.61125 -29.44375,17.85625 0,-22.13125 5.0125,-5.28375 -5.26125,-5.28 0,-21.62875"
       style="fill:#918f90;fill-opacity:1;fill-rule:nonzero;stroke:none"
       id="path306" /><path
       inkscape:connector-curvature="0"
       d="m 317.22126,249.12625 0,-4.31375 4.1025,0 m 49.09125,-22.8375 29.6925,17.85625 0,18.61125 -29.44375,17.85625 0,-22.13125 5.0125,-5.28375 -5.26125,-5.28 0,-21.62875 z"
       style="fill:none;stroke:#000000;stroke-width:1;stroke-linecap:butt;stroke-linejoin:miter;stroke-miterlimit:4;stroke-dasharray:none;stroke-opacity:1"
       id="path308" /><path
       inkscape:connector-curvature="0"
       d="m 418.93626,249.34375 0,14.7875 34.06875,0 0,-9.1775 3.90375,0"
       style="fill:none;stroke:#231f20;stroke-width:1.25;stroke-linecap:butt;stroke-linejoin:miter;stroke-miterlimit:4;stroke-dasharray:none;stroke-opacity:1"
       id="path310" /><path
       inkscape:connector-curvature="0"
       d="m 303.54001,276.11625 6.26514,0 0,-53.96 -6.26514,0 0,53.96 z"
       style="fill:#918f90;fill-opacity:1;fill-rule:nonzero;stroke:none"
       id="path312" /><path
       inkscape:connector-curvature="0"
       d="m 303.54001,276.11625 6.26757,0 0,-53.96 -6.26757,0 0,53.96 z"
       style="fill:none;stroke:#000000;stroke-width:1;stroke-linecap:butt;stroke-linejoin:miter;stroke-miterlimit:4;stroke-dasharray:none;stroke-opacity:1"
       id="path314" /><path
       inkscape:connector-curvature="0"
       d="m 354.59501,276.11625 6.26709,0 0,-53.96 -6.26709,0 0,53.96 z"
       style="fill:#918f90;fill-opacity:1;fill-rule:nonzero;stroke:none"
       id="path316" /><path
       inkscape:connector-curvature="0"
       d="m 354.59501,276.11625 6.26709,0 0,-53.96 -6.26709,0 0,53.96 z"
       style="fill:none;stroke:#000000;stroke-width:1;stroke-linecap:butt;stroke-linejoin:miter;stroke-miterlimit:4;stroke-dasharray:none;stroke-opacity:1"
       id="path318" /><path
       inkscape:connector-curvature="0"
       d="m 405.65251,276.11625 6.2666,0 0,-53.96 -6.2666,0 0,53.96 z"
       style="fill:#918f90;fill-opacity:1;fill-rule:nonzero;stroke:none"
       id="path320" /><path
       inkscape:connector-curvature="0"
       d="m 405.65501,276.11625 6.26611,0 0,-53.96 -6.26611,0 0,53.96 z"
       style="fill:none;stroke:#000000;stroke-width:1;stroke-linecap:butt;stroke-linejoin:miter;stroke-miterlimit:4;stroke-dasharray:none;stroke-opacity:1"
       id="path322" /><path
       inkscape:connector-curvature="0"
       d="m 456.71126,276.11625 6.26758,0 0,-53.96 -6.26758,0 0,53.96 z"
       style="fill:#918f90;fill-opacity:1;fill-rule:nonzero;stroke:none"
       id="path324" /><path
       inkscape:connector-curvature="0"
       d="m 456.71126,276.11625 6.26758,0 0,-53.96 -6.26758,0 0,53.96 z"
       style="fill:none;stroke:#000000;stroke-width:1;stroke-linecap:butt;stroke-linejoin:miter;stroke-miterlimit:4;stroke-dasharray:none;stroke-opacity:1"
       id="path326" /><path
       inkscape:connector-curvature="0"
       d="m 456.71126,249.0675 -12.42375,0"
       style="fill:none;stroke:#231f20;stroke-width:1.25;stroke-linecap:butt;stroke-linejoin:miter;stroke-miterlimit:4;stroke-dasharray:none;stroke-opacity:1"
       id="path328" /><path
       inkscape:connector-curvature="0"
       d="m 495.27626,316.46975 0,-20.48337 -10.3375,0 0,20.39987 10.3375,0.0835"
       style="fill:#918f90;fill-opacity:1;fill-rule:nonzero;stroke:none"
       id="path330" /><path
       inkscape:connector-curvature="0"
       d="m 343.22251,306.22762 29.94125,0"
       style="fill:none;stroke:#ff0000;stroke-width:0.9375;stroke-linecap:butt;stroke-linejoin:miter;stroke-miterlimit:4;stroke-dasharray:none;stroke-opacity:1"
       id="path332" /><path
       inkscape:connector-curvature="0"
       d="m 514.50001,306.22762 10.44375,0 m -73.80125,0 23.6725,0 m -82.15625,6.00625 28.545,0 m -28.545,-13.92375 17.405,0"
       style="fill:none;stroke:#231f20;stroke-width:1.25;stroke-linecap:butt;stroke-linejoin:miter;stroke-miterlimit:4;stroke-dasharray:none;stroke-opacity:1"
       id="path334" /><path
       inkscape:connector-curvature="0"
       d="m 322.77126,316.44975 20.52488,0 0,-20.52975 -20.52488,0 0,20.52975 z"
       style="fill:none;stroke:#ff0000;stroke-width:1;stroke-linecap:butt;stroke-linejoin:miter;stroke-miterlimit:4;stroke-dasharray:none;stroke-opacity:1"
       id="path338" /><text
       y="309.35599"
       x="327.47876"
       id="text342"
       style="font-variant:normal;font-weight:normal;font-size:10px;font-family:Helvetica;-inkscape-font-specification:Helvetica;writing-mode:lr-tb;fill:#000000;fill-opacity:1;fill-rule:nonzero;stroke:none;stroke-opacity:1"><tspan
         style="fill:#000000;fill-opacity:1;stroke:none;stroke-opacity:1"
         id="tspan344"
         y="309.35599"
         x="327.47876 330.25876">IM</tspan></text>
<path
       inkscape:connector-curvature="0"
       d="m 474.95376,316.44975 20.52537,0 0,-20.52975 -20.52537,0 0,20.52975 z"
       style="fill:none;stroke:#000000;stroke-width:1;stroke-linecap:butt;stroke-linejoin:miter;stroke-miterlimit:4;stroke-dasharray:none;stroke-opacity:1"
       id="path346" /><text
       y="309.35599"
       x="477.44003"
       id="text350"
       style="font-variant:normal;font-weight:normal;font-size:10px;font-family:Helvetica;-inkscape-font-specification:Helvetica;writing-mode:lr-tb;fill:#000000;fill-opacity:1;fill-rule:nonzero;stroke:none"><tspan
         id="tspan352"
         y="309.35599"
         x="477.44003 484.66003">DM</tspan></text>
<path
       inkscape:connector-curvature="0"
       d="m 382.99876,316.46975 0,-20.48588 10.33625,0 0,20.40238 -10.33625,0.0835"
       style="fill:#706d6e;fill-opacity:1;fill-rule:nonzero;stroke:none"
       id="path354" /><path
       inkscape:connector-curvature="0"
       d="m 382.82001,295.96487 10.44125,0 0,20.52638 -10.2625,0"
       style="fill:none;stroke:#000000;stroke-width:1;stroke-linecap:butt;stroke-linejoin:miter;stroke-miterlimit:4;stroke-dasharray:none;stroke-opacity:1"
       id="path356" /><path
       inkscape:connector-curvature="0"
       d="m 381.47751,296.004 -8.7475,0 0,20.44862 10.26625,0"
       style="fill:none;stroke:#231f20;stroke-width:0.625;stroke-linecap:butt;stroke-linejoin:miter;stroke-miterlimit:4;stroke-dasharray:5.00025, 2.500125;stroke-dashoffset:0;stroke-opacity:1"
       id="path358" /><text
       y="309.39749"
       x="373.82376"
       id="text362"
       style="font-variant:normal;font-weight:normal;font-size:10px;font-family:Helvetica;-inkscape-font-specification:Helvetica;writing-mode:lr-tb;fill:#000000;fill-opacity:1;fill-rule:nonzero;stroke:none"><tspan
         id="tspan364"
         y="309.39749"
         x="373.82376 381.04376 386.60376">Reg</tspan></text>
<path
       inkscape:connector-curvature="0"
       d="m 535.19251,316.46975 0,-20.48337 -10.33375,0 0,20.39987 10.33375,0.0835"
       style="fill:#918f90;fill-opacity:1;fill-rule:nonzero;stroke:none"
       id="path366" /><path
       inkscape:connector-curvature="0"
       d="m 535.37126,295.96487 -10.44,0 0,20.52638 10.26125,0"
       style="fill:none;stroke:#000000;stroke-width:1;stroke-linecap:butt;stroke-linejoin:miter;stroke-miterlimit:4;stroke-dasharray:none;stroke-opacity:1"
       id="path376" /><path
       inkscape:connector-curvature="0"
       d="m 536.71376,296.004 8.7475,0 0,20.44862 -10.26375,0"
       style="fill:none;stroke:#231f20;stroke-width:0.625;stroke-linecap:butt;stroke-linejoin:miter;stroke-miterlimit:4;stroke-dasharray:5.00025, 2.500125;stroke-dashoffset:0;stroke-opacity:1"
       id="path378" /><text
       y="309.39749"
       x="526.02502"
       id="text382"
       style="font-variant:normal;font-weight:normal;font-size:10px;font-family:Helvetica;-inkscape-font-specification:Helvetica;writing-mode:lr-tb;fill:#000000;fill-opacity:1;fill-rule:nonzero;stroke:none"><tspan
         id="tspan384"
         y="309.39749"
         x="526.02502 533.245 538.80768">Reg</tspan></text>
<path
       inkscape:connector-curvature="0"
       d="m 421.58751,279.065 29.69375,17.85637 0,18.61088 -29.4425,17.8565 0,-22.13388 5.0125,-5.27875 -5.26375,-5.28225 0,-21.62887"
       style="fill:#918f90;fill-opacity:1;fill-rule:nonzero;stroke:none"
       id="path386" /><path
       inkscape:connector-curvature="0"
       d="m 368.39376,306.21875 0,-4.31387 4.10125,0 m 49.0925,-22.83988 29.69375,17.85638 0,18.61087 -29.4425,17.8565 0,-22.13387 5.0125,-5.27876 -5.26375,-5.28225 0,-21.62887 z"
       style="fill:none;stroke:#000000;stroke-width:1;stroke-linecap:butt;stroke-linejoin:miter;stroke-miterlimit:4;stroke-dasharray:none;stroke-opacity:1"
       id="path396" /><path
       inkscape:connector-curvature="0"
       d="m 470.10751,306.43512 0,14.7885 34.07,0 0,-9.17962 3.90375,0"
       style="fill:none;stroke:#231f20;stroke-width:1.25;stroke-linecap:butt;stroke-linejoin:miter;stroke-miterlimit:4;stroke-dasharray:none;stroke-opacity:1"
       id="path398" /><path
       inkscape:connector-curvature="0"
       d="m 354.71501,333.2075 6.2666,0 0,-53.9575 -6.2666,0 0,53.9575 z"
       style="fill:#918f90;fill-opacity:1;fill-rule:nonzero;stroke:none"
       id="path400" /><path
       inkscape:connector-curvature="0"
       d="m 354.71501,333.2075 6.2666,0 0,-53.9575 -6.2666,0 0,53.9575 z"
       style="fill:none;stroke:#000000;stroke-width:1;stroke-linecap:butt;stroke-linejoin:miter;stroke-miterlimit:4;stroke-dasharray:none;stroke-opacity:1"
       id="path410" /><path
       inkscape:connector-curvature="0"
       d="m 405.76876,333.2075 6.26709,0 0,-53.9575 -6.26709,0 0,53.9575 z"
       style="fill:#918f90;fill-opacity:1;fill-rule:nonzero;stroke:none"
       id="path412" /><path
       inkscape:connector-curvature="0"
       d="m 405.76876,333.2075 6.26709,0 0,-53.9575 -6.26709,0 0,53.9575 z"
       style="fill:none;stroke:#000000;stroke-width:1;stroke-linecap:butt;stroke-linejoin:miter;stroke-miterlimit:4;stroke-dasharray:none;stroke-opacity:1"
       id="path422" /><path
       inkscape:connector-curvature="0"
       d="m 456.82876,333.2075 6.26514,0 0,-53.9575 -6.26514,0 0,53.9575 z"
       style="fill:#918f90;fill-opacity:1;fill-rule:nonzero;stroke:none"
       id="path424" /><path
       inkscape:connector-curvature="0"
       d="m 456.82876,333.2075 6.26514,0 0,-53.9575 -6.26514,0 0,53.9575 z"
       style="fill:none;stroke:#000000;stroke-width:1;stroke-linecap:butt;stroke-linejoin:miter;stroke-miterlimit:4;stroke-dasharray:none;stroke-opacity:1"
       id="path434" /><path
       inkscape:connector-curvature="0"
       d="m 507.88626,333.2075 6.26122,0 0,-53.9575 -6.26122,0 0,53.9575 z"
       style="fill:#918f90;fill-opacity:1;fill-rule:nonzero;stroke:none"
       id="path436" /><path
       inkscape:connector-curvature="0"
       d="m 507.88626,333.2075 6.26368,0 0,-53.9575 -6.26368,0 0,53.9575 z"
       style="fill:none;stroke:#000000;stroke-width:1;stroke-linecap:butt;stroke-linejoin:miter;stroke-miterlimit:4;stroke-dasharray:none;stroke-opacity:1"
       id="path438" /><path
       inkscape:connector-curvature="0"
       d="m 360.98376,254.9225 9.285,0 m 41.58,43.34362 9.91625,0 m -112.095,-100.39987 9.375,0 m 189.3075,108.291 -12.89125,0"
       style="fill:none;stroke:#231f20;stroke-width:1.25;stroke-linecap:butt;stroke-linejoin:miter;stroke-miterlimit:4;stroke-dasharray:none;stroke-opacity:1"
       id="path440" /><path
       inkscape:connector-curvature="0"
       d="m 308.02501,84.796248 c 0,0.725 -0.58875,1.31125 -1.31125,1.31125 -0.7225,0 -1.30875,-0.58625 -1.30875,-1.31125 0,-0.72375 0.58625,-1.3075 1.30875,-1.3075 0.7225,0 1.31125,0.58375 1.31125,1.3075"
       style="fill:#ff0000;fill-opacity:1;fill-rule:nonzero;stroke:#ff0000;stroke-opacity:1"
       id="path442" /><path
       inkscape:connector-curvature="0"
       d="m 308.02501,84.796248 c 0,0.725 -0.58875,1.31125 -1.31125,1.31125 -0.7225,0 -1.30875,-0.58625 -1.30875,-1.31125 0,-0.72375 0.58625,-1.3075 1.30875,-1.3075 0.7225,0 1.31125,0.58375 1.31125,1.3075 z"
       style="fill:#ff0000;fill-opacity:1;stroke:#ff0000;stroke-width:2.5;stroke-linecap:butt;stroke-linejoin:miter;stroke-miterlimit:4;stroke-dasharray:none;stroke-opacity:1"
       id="path444" /><path
       inkscape:connector-curvature="0"
       d="m 311.28626,305.26125 c 0,0.72262 -0.5875,1.30612 -1.3125,1.30612 -0.72125,0 -1.30875,-0.5835 -1.30875,-1.30612 0,-0.72513 0.5875,-1.30863 1.30875,-1.30863 0.725,0 1.3125,0.5835 1.3125,1.30863"
       style="fill:#ff0000;fill-opacity:1;fill-rule:nonzero;stroke:#ff0000;stroke-opacity:1"
       id="path446" /><path
       inkscape:connector-curvature="0"
       d="m 311.28626,305.26125 c 0,0.72262 -0.5875,1.30612 -1.3125,1.30612 -0.72125,0 -1.30875,-0.5835 -1.30875,-1.30612 0,-0.72513 0.5875,-1.30863 1.30875,-1.30863 0.725,0 1.3125,0.5835 1.3125,1.30863 z"
       style="fill:#ff0000;fill-opacity:1;stroke:#ff0000;stroke-width:2.5;stroke-linecap:butt;stroke-linejoin:miter;stroke-miterlimit:4;stroke-dasharray:none;stroke-opacity:1"
       id="path448" /><path
       inkscape:connector-curvature="0"
       d="m 68.908134,93.266248 0,19.496252 58.485626,0 0,155.95625 -62.662751,0 0,17.40625 m 245.242751,19.13625 -3.26,-220.465002"
       style="fill:none;stroke:#ff0000;stroke-width:0.9375;stroke-linecap:butt;stroke-linejoin:miter;stroke-miterlimit:4;stroke-dasharray:none;stroke-opacity:1"
       id="path450" /><path
       inkscape:connector-curvature="0"
       d="m 65.690884,288.33987 c 0.46825,-1.54975 0.8995,-2.55612 1.399,-3.80125 l -4.7295,0 c 0.211875,0.44625 0.930125,2.2515 1.398375,3.80125 0.5015,1.66013 0.84425,3.16413 0.966875,4.13775 0.1225,-0.97362 0.46475,-2.47762 0.96525,-4.13775"
       style="fill:#ff0000;fill-opacity:1;fill-rule:nonzero;stroke:none;stroke-opacity:1"
       id="path452" /><text
       style="font-style:normal;font-variant:normal;font-weight:normal;font-stretch:normal;font-size:10px;line-height:125%;font-family:Helvetica;-inkscape-font-specification:'Helvetica, Normal';text-align:start;writing-mode:lr-tb;text-anchor:start;fill:#000000;fill-opacity:1;fill-rule:nonzero;stroke:none"
       id="text5144"
       x="127.22631"
       y="17.90387"
       sodipodi:linespacing="125%"><tspan
         y="17.90387"
         x="127.22631"
         id="tspan5148"
         sodipodi:role="line">Time (in clock cycles)</tspan></text>
<g
       inkscape:label="Camada 1"
       id="layer1"
       transform="translate(-54.3424,-47.504548)"><text
         xml:space="preserve"
         style="font-style:normal;font-weight:normal;font-size:10px;line-height:125%;font-family:sans-serif;text-align:center;letter-spacing:0px;word-spacing:0px;writing-mode:lr-tb;text-anchor:middle;opacity:0.93999999;fill:#000000;fill-opacity:1;stroke:none;stroke-width:1px;stroke-linecap:butt;stroke-linejoin:miter;stroke-opacity:1"
         x="252.28816"
         y="368.73376"
         id="text4894"
         sodipodi:linespacing="125%"><tspan
           sodipodi:role="line"
           id="tspan4304"
           x="253.48201"
           y="368.73376"
           style="font-size:7.5px;text-align:center;letter-spacing:0px;word-spacing:0px;text-anchor:middle">COD 4Ed, Copyright © 2009 </tspan><tspan
           sodipodi:role="line"
           id="tspan4306"
           x="253.48201"
           y="378.10876"
           style="font-size:7.5px;text-align:center;letter-spacing:0px;word-spacing:0px;text-anchor:middle"> Elsevier, Inc. All rights reserved. </tspan></text>
</g></g></svg>