<?xml version="1.0" encoding="UTF-8" standalone="no"?>
<!-- Created with Inkscape (http://www.inkscape.org/) -->

<svg
   xmlns:dc="http://purl.org/dc/elements/1.1/"
   xmlns:cc="http://creativecommons.org/ns#"
   xmlns:rdf="http://www.w3.org/1999/02/22-rdf-syntax-ns#"
   xmlns:svg="http://www.w3.org/2000/svg"
   xmlns="http://www.w3.org/2000/svg"
   xmlns:sodipodi="http://sodipodi.sourceforge.net/DTD/sodipodi-0.dtd"
   xmlns:inkscape="http://www.inkscape.org/namespaces/inkscape"
   id="svg2"
   version="1.1"
   inkscape:version="0.91 r13725"
   xml:space="preserve"
   width="493.80188"
   height="310.80133"
   viewBox="0 0 493.80188 310.80133"
   sodipodi:docname="hazardADD-2.svg"><metadata
     id="metadata8"><rdf:RDF><cc:Work
         rdf:about=""><dc:format>image/svg+xml</dc:format><dc:type
           rdf:resource="http://purl.org/dc/dcmitype/StillImage" /><dc:title></dc:title></cc:Work></rdf:RDF></metadata><defs
     id="defs6"><clipPath
       clipPathUnits="userSpaceOnUse"
       id="clipPath430"><path
         d="m 330,693 0,2746 3840,0 0,-2746 -3840,0 z"
         id="path432"
         inkscape:connector-curvature="0" /></clipPath><clipPath
       clipPathUnits="userSpaceOnUse"
       id="clipPath454"><path
         d="m 330,693 0,2746 3840,0 0,-2746 -3840,0 z"
         id="path456"
         inkscape:connector-curvature="0" /></clipPath><clipPath
       clipPathUnits="userSpaceOnUse"
       id="clipPath476"><path
         d="m 330,693 0,2746 3840,0 0,-2746 -3840,0 z"
         id="path478"
         inkscape:connector-curvature="0" /></clipPath></defs><sodipodi:namedview
     pagecolor="#ffffff"
     bordercolor="#666666"
     borderopacity="1"
     objecttolerance="10"
     gridtolerance="10"
     guidetolerance="10"
     inkscape:pageopacity="0"
     inkscape:pageshadow="2"
     inkscape:window-width="1920"
     inkscape:window-height="1031"
     id="namedview4"
     showgrid="false"
     fit-margin-top="8"
     fit-margin-left="8"
     fit-margin-bottom="8"
     fit-margin-right="8"
     inkscape:zoom="2.4767018"
     inkscape:cx="246.90094"
     inkscape:cy="155.40067"
     inkscape:window-x="1920"
     inkscape:window-y="30"
     inkscape:window-maximized="1"
     inkscape:current-layer="g10"
     showguides="true"
     inkscape:guide-bbox="true" /><g
     id="g10"
     inkscape:groupmode="layer"
     inkscape:label="ink_ext_XXXXXX"
     transform="matrix(1.25,0,0,-1.25,-33.256875,400.57757)"><path
       style="fill:none;fill-rule:evenodd;stroke:#000000;stroke-width:0.80000007px;stroke-linecap:butt;stroke-linejoin:miter;stroke-opacity:1"
       d="m 234.46226,97.95864 21.5589,0"
       id="path4367"
       inkscape:connector-curvature="0" /><path
       style="fill:none;fill-rule:evenodd;stroke:#000000;stroke-width:0.80000001px;stroke-linecap:butt;stroke-linejoin:miter;stroke-opacity:1"
       d="m 198.10931,148.87298 20.89429,0"
       id="path4345"
       inkscape:connector-curvature="0" /><path
       inkscape:connector-curvature="0"
       id="path4347"
       d="m 233.33183,152.35864 22.68933,0"
       style="fill:none;fill-rule:evenodd;stroke:#000000;stroke-width:0.80000007px;stroke-linecap:butt;stroke-linejoin:miter;stroke-opacity:1" /><path
       style="fill:none;fill-rule:evenodd;stroke:#000000;stroke-width:0.80000007px;stroke-linecap:butt;stroke-linejoin:miter;stroke-opacity:1"
       d="m 246.90236,145.08654 9.1188,0"
       id="path4349"
       inkscape:connector-curvature="0" /><path
       inkscape:connector-curvature="0"
       id="path14"
       style="fill:none;stroke:#000000;stroke-width:0.80000001;stroke-linecap:butt;stroke-linejoin:miter;stroke-miterlimit:4;stroke-dasharray:none;stroke-opacity:1"
       d="m 210.809,205.816 13.102,0"
       sodipodi:nodetypes="cc" /><text
       transform="scale(0.9999945,-1.0000055)"
       style="font-style:normal;font-variant:normal;font-weight:normal;font-stretch:normal;font-size:8px;line-height:125%;font-family:Arial;-inkscape-font-specification:Arial;text-align:start;writing-mode:lr-tb;text-anchor:start;fill:#000000;fill-opacity:1;fill-rule:nonzero;stroke:none;"
       id="text18"
       x="34.58609"
       y="-297.89337"
       sodipodi:linespacing="125%"><tspan
         sodipodi:role="line"
         id="tspan4341"
         style="font-style:normal;font-variant:normal;font-weight:normal;font-stretch:normal;font-family:Arial;-inkscape-font-specification:Arial;"
         x="34.58609"
         y="-297.89337">Program</tspan><tspan
         sodipodi:role="line"
         id="tspan4345"
         style="font-style:normal;font-variant:normal;font-weight:normal;font-stretch:normal;font-family:Arial;-inkscape-font-specification:Arial;"
         x="34.58609"
         y="-287.89337">execution</tspan><tspan
         sodipodi:role="line"
         id="tspan4347"
         style="font-style:normal;font-variant:normal;font-weight:normal;font-stretch:normal;font-family:Arial;-inkscape-font-specification:Arial;"
         x="34.58609"
         y="-277.89337">order</tspan><tspan
         sodipodi:role="line"
         style="font-style:normal;font-variant:normal;font-weight:normal;font-stretch:normal;font-family:Arial;-inkscape-font-specification:Arial;"
         x="34.58609"
         y="-267.89337"
         id="tspan4324">(in instructions)</tspan></text>
<path
       inkscape:connector-curvature="0"
       id="path116"
       style="fill:none;stroke:#000000;stroke-width:0.80000001;stroke-linecap:butt;stroke-linejoin:miter;stroke-miterlimit:4;stroke-dasharray:none;stroke-opacity:1"
       d="m 34.5859,263.904 0,-177.4642" /><path
       inkscape:connector-curvature="0"
       id="path118"
       style="fill:#231f20;fill-opacity:1;fill-rule:nonzero;stroke:none"
       d="m 35.2258,84.9629 c 0.3117,1.0312 0.5996,1.7031 0.9316,2.5332 l -3.1519,0 c 0.1414,-0.2969 0.6211,-1.502 0.9324,-2.5332 0.334,-1.107 0.5625,-2.109 0.6441,-2.7598 0.0821,0.6508 0.309,1.6528 0.6438,2.7598" /><text
       transform="scale(0.9999945,-1.0000055)"
       style="font-variant:normal;font-weight:normal;font-size:8px;font-family:Arial;-inkscape-font-specification:Arial;writing-mode:lr-tb;fill:#000000;fill-opacity:1;fill-rule:nonzero;stroke:none;font-style:normal;font-stretch:normal;"
       id="text122"
       x="111.46465"
       y="-308.22833"><tspan
         x="111.46465 116.35262 118.12859 124.7925 129.2408 131.46506 134.12856 135.90425 140.35219 142.57567 146.57568 148.35199 152.79993 156.7999 160.79988 163.02386 167.02385 171.0238 175.02379 176.79977 181.24776 185.24686"
         y="-308.22833"
         sodipodi:role="line"
         id="tspan124">Time (in clock cycles)</tspan></text>
<path
       inkscape:connector-curvature="0"
       id="path126"
       style="fill:none;stroke:#000000;stroke-width:0.80000001;stroke-linecap:butt;stroke-linejoin:miter;stroke-miterlimit:4;stroke-dasharray:none;stroke-opacity:1"
       d="m 111.96363,304.157 299.04795,-0.173" /><path
       inkscape:connector-curvature="0"
       id="path128"
       style="fill:#231f20;fill-opacity:1;fill-rule:nonzero;stroke:none"
       d="m 412.489,304.624 c -1.035,0.312 -1.707,0.599 -2.535,0.932 l 0,-3.152 c 0.296,0.141 1.5,0.62 2.535,0.933 1.101,0.333 2.105,0.562 2.758,0.643 -0.653,0.081 -1.657,0.311 -2.758,0.644" /><text
       transform="scale(0.9999945,-1.0000055)"
       style="font-variant:normal;font-weight:normal;font-size:8px;font-family:Arial;-inkscape-font-specification:Arial;writing-mode:lr-tb;fill:#000000;fill-opacity:1;fill-rule:nonzero;stroke:none;font-style:normal;font-stretch:normal;"
       id="text132"
       x="109.0706"
       y="-290.65439"><tspan
         x="109.0706 114.84657 120.62254 122.84683 145.06375 150.83972 156.61568 158.83998 181.05809 186.83406 192.61003 194.83432 217.05 222.82597 228.60194 230.83012 253.04611 258.82056 264.59653 266.81946 289.03543 294.81378 300.58975 302.81265 325.02866 330.80701 336.58298 338.80698 361.02295 366.79892 372.57489 374.79889 397.01486 402.79321 408.56918 410.79211"
         y="-290.65439"
         sodipodi:role="line"
         id="tspan134">CC 1CC 2CC 3CC 4CC 5CC 6CC 7CC 8CC 9</tspan></text>
<path
       inkscape:connector-curvature="0"
       id="path136"
       style="fill:none;stroke:#000000;stroke-width:0.80000001;stroke-linecap:butt;stroke-linejoin:miter;stroke-miterlimit:4;stroke-dasharray:none;stroke-opacity:1"
       d="M 200.48495,252.11353 219.049,252.218 m -58.988,-4.311 26.995,0 m -26.995,9.998 26.995,0 m -62.489,-5.687 21.185,0"
       sodipodi:nodetypes="cccccccc" /><path
       inkscape:connector-curvature="0"
       id="path138"
       style="fill:none;stroke:#000000;stroke-width:0.80000001;stroke-linecap:butt;stroke-linejoin:miter;stroke-miterlimit:4;stroke-dasharray:none;stroke-opacity:1"
       d="m 247.543,252.218 7.5,0" /><path
       inkscape:connector-curvature="0"
       id="path140"
       style="fill:#b2b1b1;fill-opacity:1;fill-rule:nonzero;stroke:none"
       d="m 117.251,244.82 0,14.709 7.422,0 0,-14.65 -7.422,-0.059" /><path
       inkscape:connector-curvature="0"
       id="path142"
       style="fill:none;stroke:#000000;stroke-width:0.80000001;stroke-linecap:butt;stroke-linejoin:miter;stroke-miterlimit:4;stroke-dasharray:none;stroke-opacity:1"
       d="m 233.887,244.879 -14.738,0 0,14.739 14.738,0 0,-14.739 z m -109.267,0 -14.739,0 0,14.739 14.739,0 0,-14.739 z" /><text
       transform="scale(0.9999945,-1.0000055)"
       style="font-variant:normal;font-weight:normal;font-size:8px;font-family:Arial;-inkscape-font-specification:Arial;writing-mode:lr-tb;fill:#000000;fill-opacity:1;fill-rule:nonzero;stroke:none;font-style:normal;font-stretch:normal;"
       id="text146"
       x="112.80662"
       y="-249.93062"><tspan
         x="112.80662 115.03061"
         y="-249.93062"
         sodipodi:role="line"
         id="tspan148">IM</tspan><tspan
         x="220.29802 226.07399"
         y="-249.70993"
         sodipodi:role="line"
         id="tspan150">DM</tspan></text>
<path
       inkscape:connector-curvature="0"
       id="path152"
       style="fill:#b2b1b1;fill-opacity:1;fill-rule:nonzero;stroke:none"
       d="m 153.124,244.864 0,14.71 7.424,0 0,-14.651 -7.424,-0.059" /><path
       inkscape:connector-curvature="0"
       id="path154"
       style="fill:none;stroke:#000000;stroke-width:0.80000001;stroke-linecap:butt;stroke-linejoin:miter;stroke-miterlimit:4;stroke-dasharray:none;stroke-opacity:1"
       d="m 152.996,259.588 7.498,0 0,-14.739 -7.37,0" /><path
       inkscape:connector-curvature="0"
       id="path156"
       style="fill:none;stroke:#000000;stroke-width:0.5;stroke-linecap:butt;stroke-linejoin:miter;stroke-miterlimit:4;stroke-dasharray:4.0002, 2.0001;stroke-dashoffset:0;stroke-opacity:1"
       d="m 152.033,259.56 -6.281,0 0,-14.683 7.367,0" /><text
       transform="scale(0.9999945,-1.0000055)"
       style="font-variant:normal;font-weight:normal;font-size:8px;font-family:Arial;-inkscape-font-specification:Arial;writing-mode:lr-tb;fill:#000000;fill-opacity:1;fill-rule:nonzero;stroke:none;font-style:normal;font-stretch:normal;"
       id="text160"
       x="145.6678"
       y="-249.59962"><tspan
         x="145.6678 151.44377 155.89363"
         y="-249.59962"
         sodipodi:role="line"
         id="tspan162">Reg</tspan></text>
<path
       inkscape:connector-curvature="0"
       id="path164"
       style="fill:#b2b1b1;fill-opacity:1;fill-rule:nonzero;stroke:none"
       d="m 262.403,244.864 0,14.709 -7.422,0 0,-14.65 7.422,-0.059" /><path
       inkscape:connector-curvature="0"
       id="path166"
       style="fill:none;stroke:#000202;stroke-width:0.5;stroke-linecap:butt;stroke-linejoin:miter;stroke-miterlimit:4;stroke-dasharray:none;stroke-opacity:1"
       d="m 262.532,259.588 -7.498,0 0,-14.739 7.369,0" /><text
       transform="scale(0.9999945,-1.0000055)"
       style="font-variant:normal;font-weight:normal;font-size:8px;font-family:Arial;-inkscape-font-specification:Arial;writing-mode:lr-tb;fill:#000000;fill-opacity:1;fill-rule:nonzero;stroke:none;font-style:normal;font-stretch:normal;"
       id="text170"
       x="254.9254"
       y="-249.49263"><tspan
         x="254.9254 260.70139 265.15164"
         y="-249.49263"
         sodipodi:role="line"
         id="tspan172">Reg</tspan></text>
<path
       inkscape:connector-curvature="0"
       id="path174"
       style="fill:none;stroke:#000000;stroke-width:0.5;stroke-linecap:butt;stroke-linejoin:miter;stroke-miterlimit:4;stroke-dasharray:4.0002, 2.0001;stroke-dashoffset:0;stroke-opacity:1"
       d="m 263.493,259.56 6.283,0 0,-14.683 -7.371,0" /><path
       inkscape:connector-curvature="0"
       id="path176"
       style="fill:#b2b1b1;fill-opacity:1;fill-rule:nonzero;stroke:none"
       d="m 182.431,268.795 18.121,-10.899 0,-11.357 -17.967,-10.898 0,13.507 3.058,3.224 -3.212,3.223 0,13.2" /><path
       inkscape:connector-curvature="0"
       id="path178"
       style="fill:none;stroke:#000000;stroke-width:0.80000001;stroke-linecap:butt;stroke-linejoin:miter;stroke-miterlimit:4;stroke-dasharray:none;stroke-opacity:1"
       d="m 142.64,252.225 0,3.099 2.943,0 m 36.848,13.47 18.121,-10.898 0,-11.357 -17.967,-10.898 0,13.507 3.058,3.223 -3.212,3.224 0,13.199 z" /><path
       inkscape:connector-curvature="0"
       id="path180"
       style="fill:none;stroke:#000000;stroke-width:0.80000001;stroke-linecap:butt;stroke-linejoin:miter;stroke-miterlimit:4;stroke-dasharray:none;stroke-opacity:1"
       d="m 215.671,252.069 0,-10.618 24.462,0 0,6.592 2.803,0" /><path
       inkscape:connector-curvature="0"
       id="path182"
       style="fill:#b2b1b1;fill-opacity:1;fill-rule:nonzero;stroke:none"
       d="m 132.816,232.847 4.5,0 0,38.7426 -4.5,0 0,-38.7426 z" /><path
       inkscape:connector-curvature="0"
       id="path184"
       style="fill:none;stroke:#000000;stroke-width:0.80000001;stroke-linecap:butt;stroke-linejoin:miter;stroke-miterlimit:4;stroke-dasharray:none;stroke-opacity:1"
       d="m 132.816,232.847 4.5,0 0,38.7426 -4.5,0 0,-38.7426 z" /><path
       inkscape:connector-curvature="0"
       id="path186"
       style="fill:#b2b1b1;fill-opacity:1;fill-rule:nonzero;stroke:none"
       d="m 169.476,232.847 4.49883,0 0,38.7426 -4.49883,0 0,-38.7426 z" /><path
       inkscape:connector-curvature="0"
       id="path188"
       style="fill:none;stroke:#000000;stroke-width:0.80000001;stroke-linecap:butt;stroke-linejoin:miter;stroke-miterlimit:4;stroke-dasharray:none;stroke-opacity:1"
       d="m 169.476,232.847 4.49883,0 0,38.7426 -4.49883,0 0,-38.7426 z" /><path
       inkscape:connector-curvature="0"
       id="path190"
       style="fill:#b2b1b1;fill-opacity:1;fill-rule:nonzero;stroke:none"
       d="m 206.135,232.847 4.49883,0 0,38.7426 -4.49883,0 0,-38.7426 z" /><path
       inkscape:connector-curvature="0"
       id="path192"
       style="fill:none;stroke:#000000;stroke-width:0.80000001;stroke-linecap:butt;stroke-linejoin:miter;stroke-miterlimit:4;stroke-dasharray:none;stroke-opacity:1"
       d="m 206.135,232.847 4.49883,0 0,38.7426 -4.49883,0 0,-38.7426 z" /><path
       inkscape:connector-curvature="0"
       id="path194"
       style="fill:#b2b1b1;fill-opacity:1;fill-rule:nonzero;stroke:none"
       d="m 242.793,232.847 4.5,0 0,38.7426 -4.5,0 0,-38.7426 z" /><path
       inkscape:connector-curvature="0"
       id="path196"
       style="fill:none;stroke:#000000;stroke-width:0.80000001;stroke-linecap:butt;stroke-linejoin:miter;stroke-miterlimit:4;stroke-dasharray:none;stroke-opacity:1"
       d="m 242.793,232.847 4.5,0 0,38.7426 -4.5,0 0,-38.7426 z" /><path
       inkscape:connector-curvature="0"
       id="path198"
       style="fill:none;stroke:#000000;stroke-width:0.80000001;stroke-linecap:butt;stroke-linejoin:miter;stroke-miterlimit:4;stroke-dasharray:none;stroke-opacity:1"
       d="m 161.311,200.275 21.496,0"
       sodipodi:nodetypes="cc" /><path
       inkscape:connector-curvature="0"
       id="path200"
       style="fill:none;stroke:#000000;stroke-width:0.80000001;stroke-linecap:butt;stroke-linejoin:miter;stroke-miterlimit:4;stroke-dasharray:none;stroke-opacity:1"
       d="m 196.803,205.962 13.498,0" /><path
       inkscape:connector-curvature="0"
       id="path202"
       style="fill:none;stroke:#000000;stroke-width:0.80000001;stroke-linecap:butt;stroke-linejoin:miter;stroke-miterlimit:4;stroke-dasharray:none;stroke-opacity:1"
       d="m 284.286,200.275 7.498,0 m -54.56245,0.1459 18.57145,-0.1459 m -58.99,-4.31 26.995,0"
       sodipodi:nodetypes="cccccc" /><path
       inkscape:connector-curvature="0"
       id="path204"
       style="fill:#b2b1b1;fill-opacity:1;fill-rule:nonzero;stroke:none"
       d="m 153.993,192.877 0,14.709 7.424,0 0,-14.649 -7.424,-0.06" /><path
       inkscape:connector-curvature="0"
       id="path206"
       style="fill:none;stroke:#000000;stroke-width:0.80000001;stroke-linecap:butt;stroke-linejoin:miter;stroke-miterlimit:4;stroke-dasharray:none;stroke-opacity:1"
       d="m 270.629,192.937 -14.738,0 0,14.739 14.738,0 0,-14.739 z m -109.267,0 -14.737,0 0,14.739 14.737,0 0,-14.739 z" /><text
       transform="scale(0.9999945,-1.0000055)"
       style="font-variant:normal;font-weight:normal;font-size:8px;font-family:Arial;-inkscape-font-specification:Arial;writing-mode:lr-tb;fill:#000000;fill-opacity:1;fill-rule:nonzero;stroke:none;font-style:normal;font-stretch:normal;"
       id="text210"
       x="149.54883"
       y="-197.98991"><tspan
         x="149.54883 151.77281"
         y="-197.98991"
         sodipodi:role="line"
         id="tspan212">IM</tspan><tspan
         x="257.04224 262.81821"
         y="-197.44695"
         sodipodi:role="line"
         id="tspan214">DM</tspan></text>
<path
       inkscape:connector-curvature="0"
       id="path216"
       style="fill:#b2b1b1;fill-opacity:1;fill-rule:nonzero;stroke:none"
       d="m 189.867,192.921 0,14.71 7.424,0 0,-14.65 -7.424,-0.06" /><path
       inkscape:connector-curvature="0"
       id="path218"
       style="fill:none;stroke:#000202;stroke-width:0.5;stroke-linecap:butt;stroke-linejoin:miter;stroke-miterlimit:4;stroke-dasharray:none;stroke-opacity:1"
       d="m 189.739,207.645 7.497,0 0,-14.738 -7.369,0" /><text
       transform="scale(0.9999945,-1.0000055)"
       style="font-variant:normal;font-weight:normal;font-size:8px;font-family:Arial;-inkscape-font-specification:Arial;writing-mode:lr-tb;fill:#000000;fill-opacity:1;fill-rule:nonzero;stroke:none;font-style:normal;font-stretch:normal;"
       id="text222"
       x="182.483"
       y="-197.65892"><tspan
         x="182.483 188.25897 192.70885"
         y="-197.65892"
         sodipodi:role="line"
         id="tspan224">Reg</tspan></text>
<path
       inkscape:connector-curvature="0"
       id="path226"
       style="fill:none;stroke:#000000;stroke-width:0.5;stroke-linecap:butt;stroke-linejoin:miter;stroke-miterlimit:4;stroke-dasharray:4.0002, 2.0001;stroke-dashoffset:0;stroke-opacity:1"
       d="m 188.777,207.618 -6.283,0 0,-14.685 7.369,0" /><path
       inkscape:connector-curvature="0"
       id="path228"
       style="fill:#b2b1b1;fill-opacity:1;fill-rule:nonzero;stroke:none"
       d="m 299.143,192.921 0,14.71 -7.42,0 0,-14.65 7.42,-0.06" /><path
       inkscape:connector-curvature="0"
       id="path230"
       style="fill:none;stroke:#000000;stroke-width:0.80000001;stroke-linecap:butt;stroke-linejoin:miter;stroke-miterlimit:4;stroke-dasharray:none;stroke-opacity:1"
       d="m 299.274,207.645 -7.498,0 0,-14.738 7.367,0" /><path
       inkscape:connector-curvature="0"
       id="path232"
       style="fill:none;stroke:#000000;stroke-width:0.5;stroke-linecap:butt;stroke-linejoin:miter;stroke-miterlimit:4;stroke-dasharray:4.0002, 2.0001;stroke-dashoffset:0;stroke-opacity:1"
       d="m 300.03,207.765 6.281,0 0,-14.684 -7.369,0" /><text
       transform="scale(0.9999945,-1.0000055)"
       style="font-variant:normal;font-weight:normal;font-size:8px;font-family:Arial;-inkscape-font-specification:Arial;writing-mode:lr-tb;fill:#000000;fill-opacity:1;fill-rule:nonzero;stroke:none;font-style:normal;font-stretch:normal;"
       id="text236"
       x="291.68262"
       y="-197.65892"><tspan
         x="291.68262 297.45859 301.90884"
         y="-197.65892"
         sodipodi:role="line"
         id="tspan238">Reg</tspan></text>
<path
       inkscape:connector-curvature="0"
       id="path240"
       style="fill:#b2b1b1;fill-opacity:1;fill-rule:nonzero;stroke:none"
       d="m 219.173,216.852 18.122,-10.897 0,-11.358 -17.97,-10.896 0,13.504 3.059,3.225 -3.211,3.223 0,13.199" /><path
       inkscape:connector-curvature="0"
       id="path242"
       style="fill:none;stroke:#000000;stroke-width:0.80000001;stroke-linecap:butt;stroke-linejoin:miter;stroke-miterlimit:4;stroke-dasharray:none;stroke-opacity:1"
       d="m 219.173,216.85 18.122,-10.895 0,-11.358 -17.97,-10.896 0,13.503 3.059,3.225 -3.211,3.224 0,13.197 z" /><path
       inkscape:connector-curvature="0"
       id="path244"
       style="fill:none;stroke:#000000;stroke-width:0.80000001;stroke-linecap:butt;stroke-linejoin:miter;stroke-miterlimit:4;stroke-dasharray:none;stroke-opacity:1"
       d="m 179.214,200.34 0,3.096 2.944,0" /><path
       inkscape:connector-curvature="0"
       id="path246"
       style="fill:none;stroke:#000000;stroke-width:0.80000001;stroke-linecap:butt;stroke-linejoin:miter;stroke-miterlimit:4;stroke-dasharray:none;stroke-opacity:1"
       d="m 252.415,200.126 0,-10.616 24.462,0 0,6.589 2.803,0" /><path
       inkscape:connector-curvature="0"
       id="path248"
       style="fill:#b2b1b1;fill-opacity:1;fill-rule:nonzero;stroke:none"
       d="m 169.559,180.906 4.49883,0 0,38.7422 -4.49883,0 0,-38.7422 z" /><path
       inkscape:connector-curvature="0"
       id="path250"
       style="fill:none;stroke:#000000;stroke-width:0.80000001;stroke-linecap:butt;stroke-linejoin:miter;stroke-miterlimit:4;stroke-dasharray:none;stroke-opacity:1"
       d="m 169.559,180.906 4.49883,0 0,38.7422 -4.49883,0 0,-38.7422 z" /><path
       inkscape:connector-curvature="0"
       id="path252"
       style="fill:#b2b1b1;fill-opacity:1;fill-rule:nonzero;stroke:none"
       d="m 206.218,180.906 4.49922,0 0,38.7422 -4.49922,0 0,-38.7422 z" /><path
       inkscape:connector-curvature="0"
       id="path254"
       style="fill:none;stroke:#000000;stroke-width:0.80000001;stroke-linecap:butt;stroke-linejoin:miter;stroke-miterlimit:4;stroke-dasharray:none;stroke-opacity:1"
       d="m 206.218,180.906 4.49922,0 0,38.7422 -4.49922,0 0,-38.7422 z" /><path
       inkscape:connector-curvature="0"
       id="path256"
       style="fill:#b2b1b1;fill-opacity:1;fill-rule:nonzero;stroke:none"
       d="m 242.877,180.906 4.49922,0 0,38.7422 -4.49922,0 0,-38.7422 z" /><path
       inkscape:connector-curvature="0"
       id="path258"
       style="fill:none;stroke:#000000;stroke-width:0.80000001;stroke-linecap:butt;stroke-linejoin:miter;stroke-miterlimit:4;stroke-dasharray:none;stroke-opacity:1"
       d="m 242.877,180.906 4.49922,0 0,38.7422 -4.49922,0 0,-38.7422 z" /><path
       inkscape:connector-curvature="0"
       id="path260"
       style="fill:#b2b1b1;fill-opacity:1;fill-rule:nonzero;stroke:none"
       d="m 279.538,180.906 4.5,0 0,38.7422 -4.5,0 0,-38.7422 z" /><path
       inkscape:connector-curvature="0"
       id="path262"
       style="fill:none;stroke:#000000;stroke-width:0.80000001;stroke-linecap:butt;stroke-linejoin:miter;stroke-miterlimit:4;stroke-dasharray:none;stroke-opacity:1"
       d="m 279.538,180.906 4.5,0 0,38.7422 -4.5,0 0,-38.7422 z" /><path
       inkscape:connector-curvature="0"
       id="path264"
       style="fill:none;stroke:#000000;stroke-width:0.80000001;stroke-linecap:butt;stroke-linejoin:miter;stroke-miterlimit:4;stroke-dasharray:none;stroke-opacity:1"
       d="m 279.874,200.326 -9.258,0"
       sodipodi:nodetypes="cc" /><path
       inkscape:connector-curvature="0"
       id="path266"
       style="fill:none;stroke:#000000;stroke-width:0.80000001;stroke-linecap:butt;stroke-linejoin:miter;stroke-miterlimit:4;stroke-dasharray:none;stroke-opacity:1"
       d="m 233.547,144.272 12.496,0" /><path
       inkscape:connector-curvature="0"
       id="path268"
       style="fill:none;stroke:#000000;stroke-width:0.80000001;stroke-linecap:butt;stroke-linejoin:miter;stroke-miterlimit:4;stroke-dasharray:none;stroke-opacity:1"
       d="m 321.028,148.585 7.5,0 m -54.69153,-0.0926 18.69753,0.0926"
       sodipodi:nodetypes="cccc" /><path
       inkscape:connector-curvature="0"
       id="path270"
       style="fill:#b2b1b1;fill-opacity:1;fill-rule:nonzero;stroke:none"
       d="m 190.735,141.186 0,14.709 7.423,0 0,-14.65 -7.423,-0.059" /><path
       inkscape:connector-curvature="0"
       id="path272"
       style="fill:none;stroke:#000000;stroke-width:0.80000001;stroke-linecap:butt;stroke-linejoin:miter;stroke-miterlimit:4;stroke-dasharray:none;stroke-opacity:1"
       d="m 307.374,141.245 -14.741,0 0,14.738 14.741,0 0,-14.738 z m -109.268,0 -14.74,0 0,14.738 14.74,0 0,-14.738 z" /><text
       transform="scale(0.9999945,-1.0000055)"
       style="font-variant:normal;font-weight:normal;font-size:8px;font-family:Arial;-inkscape-font-specification:Arial;writing-mode:lr-tb;fill:#000000;fill-opacity:1;fill-rule:nonzero;stroke:none;font-style:normal;font-stretch:normal;"
       id="text276"
       x="186.29303"
       y="-146.29919"><tspan
         x="186.29303 188.51701 293.78522 299.56119"
         y="-146.29919"
         sodipodi:role="line"
         id="tspan278">IMDM</tspan></text>
<path
       inkscape:connector-curvature="0"
       id="path280"
       style="fill:#b2b1b1;fill-opacity:1;fill-rule:nonzero;stroke:none"
       d="m 226.609,141.229 0,14.71 7.423,0 0,-14.649 -7.423,-0.061" /><path
       inkscape:connector-curvature="0"
       id="path282"
       style="fill:none;stroke:#000202;stroke-width:0.5;stroke-linecap:butt;stroke-linejoin:miter;stroke-miterlimit:4;stroke-dasharray:none;stroke-opacity:1"
       d="m 226.481,155.954 7.5,0 0,-14.741 -7.372,0" /><text
       transform="scale(0.9999945,-1.0000055)"
       style="font-variant:normal;font-weight:normal;font-size:8px;font-family:Arial;-inkscape-font-specification:Arial;writing-mode:lr-tb;fill:#000000;fill-opacity:1;fill-rule:nonzero;stroke:none;font-style:normal;font-stretch:normal;"
       id="text286"
       x="219.41521"
       y="-145.9082"><tspan
         x="219.41521 225.19118 229.64105"
         y="-145.9082"
         sodipodi:role="line"
         id="tspan288">Reg</tspan></text>
<path
       inkscape:connector-curvature="0"
       id="path290"
       style="fill:none;stroke:#000000;stroke-width:0.5;stroke-linecap:butt;stroke-linejoin:miter;stroke-miterlimit:4;stroke-dasharray:4.0002, 2.0001;stroke-dashoffset:0;stroke-opacity:1"
       d="m 225.519,155.925 -6.282,0 0,-14.682 7.369,0" /><path
       inkscape:connector-curvature="0"
       id="path292"
       style="fill:#b2b1b1;fill-opacity:1;fill-rule:nonzero;stroke:none"
       d="m 335.887,141.229 0,14.71 -7.422,0 0,-14.649 7.422,-0.061" /><path
       inkscape:connector-curvature="0"
       id="path294"
       style="fill:none;stroke:#000000;stroke-width:0.80000001;stroke-linecap:butt;stroke-linejoin:miter;stroke-miterlimit:4;stroke-dasharray:none;stroke-opacity:1"
       d="m 336.016,155.954 -7.498,0 0,-14.741 7.369,0" /><path
       inkscape:connector-curvature="0"
       id="path296"
       style="fill:none;stroke:#000000;stroke-width:0.5;stroke-linecap:butt;stroke-linejoin:miter;stroke-miterlimit:4;stroke-dasharray:4.0002, 2.0001;stroke-dashoffset:0;stroke-opacity:1"
       d="m 336.979,155.925 6.281,0 0,-14.682 -7.369,0" /><text
       transform="scale(0.9999945,-1.0000055)"
       style="font-variant:normal;font-weight:normal;font-size:8px;font-family:Arial;-inkscape-font-specification:Arial;writing-mode:lr-tb;fill:#000000;fill-opacity:1;fill-rule:nonzero;stroke:none;font-style:normal;font-stretch:normal;"
       id="text300"
       x="328.4238"
       y="-145.9682"><tspan
         x="328.4238 334.19977 338.65005"
         y="-145.9682"
         sodipodi:role="line"
         id="tspan302">Reg</tspan></text>
<path
       inkscape:connector-curvature="0"
       id="path304"
       style="fill:#b2b1b1;fill-opacity:1;fill-rule:nonzero;stroke:none"
       d="m 255.917,165.161 18.121,-10.898 0,-11.358 -17.967,-10.897 0,13.506 3.058,3.224 -3.212,3.224 0,13.199" /><path
       inkscape:connector-curvature="0"
       id="path306"
       style="fill:none;stroke:#000000;stroke-width:0.80000001;stroke-linecap:butt;stroke-linejoin:miter;stroke-miterlimit:4;stroke-dasharray:none;stroke-opacity:1"
       d="m 216.125,148.592 0,3.098 2.944,0 m 36.848,13.469 18.121,-10.896 0,-11.36 -17.967,-10.895 0,13.506 3.058,3.223 -3.212,3.223 0,13.199 z" /><path
       inkscape:connector-curvature="0"
       id="path308"
       style="fill:none;stroke:#000000;stroke-width:0.80000001;stroke-linecap:butt;stroke-linejoin:miter;stroke-miterlimit:4;stroke-dasharray:none;stroke-opacity:1"
       d="m 289.157,148.436 0,-10.619 24.461,0 0,6.59 2.804,0" /><path
       inkscape:connector-curvature="0"
       id="path310"
       style="fill:#b2b1b1;fill-opacity:1;fill-rule:nonzero;stroke:none"
       d="m 206.301,129.213 4.5,0 0,38.743 -4.5,0 0,-38.743 z" /><path
       inkscape:connector-curvature="0"
       id="path312"
       style="fill:none;stroke:#000000;stroke-width:0.80000001;stroke-linecap:butt;stroke-linejoin:miter;stroke-miterlimit:4;stroke-dasharray:none;stroke-opacity:1"
       d="m 206.301,129.213 4.5,0 0,38.743 -4.5,0 0,-38.743 z" /><path
       inkscape:connector-curvature="0"
       id="path314"
       style="fill:#b2b1b1;fill-opacity:1;fill-rule:nonzero;stroke:none"
       d="m 242.961,129.213 4.49805,0 0,38.743 -4.49805,0 0,-38.743 z" /><path
       inkscape:connector-curvature="0"
       id="path316"
       style="fill:none;stroke:#000000;stroke-width:0.80000001;stroke-linecap:butt;stroke-linejoin:miter;stroke-miterlimit:4;stroke-dasharray:none;stroke-opacity:1"
       d="m 242.961,129.213 4.49805,0 0,38.743 -4.49805,0 0,-38.743 z" /><path
       inkscape:connector-curvature="0"
       id="path318"
       style="fill:#b2b1b1;fill-opacity:1;fill-rule:nonzero;stroke:none"
       d="m 279.62,129.213 4.5,0 0,38.743 -4.5,0 0,-38.743 z" /><path
       inkscape:connector-curvature="0"
       id="path320"
       style="fill:none;stroke:#000000;stroke-width:0.80000001;stroke-linecap:butt;stroke-linejoin:miter;stroke-miterlimit:4;stroke-dasharray:none;stroke-opacity:1"
       d="m 279.62,129.213 4.5,0 0,38.743 -4.5,0 0,-38.743 z" /><path
       inkscape:connector-curvature="0"
       id="path322"
       style="fill:#b2b1b1;fill-opacity:1;fill-rule:nonzero;stroke:none"
       d="m 316.28,129.213 4.49805,0 0,38.743 -4.49805,0 0,-38.743 z" /><path
       inkscape:connector-curvature="0"
       id="path324"
       style="fill:none;stroke:#000000;stroke-width:0.80000001;stroke-linecap:butt;stroke-linejoin:miter;stroke-miterlimit:4;stroke-dasharray:none;stroke-opacity:1"
       d="m 316.28,129.213 4.49805,0 0,38.743 -4.49805,0 0,-38.743 z" /><path
       inkscape:connector-curvature="0"
       id="path326"
       style="fill:none;stroke:#000000;stroke-width:0.80000001;stroke-linecap:butt;stroke-linejoin:miter;stroke-miterlimit:4;stroke-dasharray:none;stroke-opacity:1"
       d="m 316.616,148.98802 -9.256,0"
       sodipodi:nodetypes="cc" /><path
       inkscape:connector-curvature="0"
       id="path328"
       style="fill:none;stroke:#000000;stroke-width:0.80000001;stroke-linecap:butt;stroke-linejoin:miter;stroke-miterlimit:4;stroke-dasharray:none;stroke-opacity:1"
       d="m 270.29,93.68 13.496,0 m -13.496,9.998 13.496,0" /><path
       inkscape:connector-curvature="0"
       id="path330"
       style="fill:none;stroke:#000000;stroke-width:0.80000001;stroke-linecap:butt;stroke-linejoin:miter;stroke-miterlimit:4;stroke-dasharray:none;stroke-opacity:1"
       d="m 357.77,97.992 7.498,0 M 310.57847,98 329.278,97.992"
       sodipodi:nodetypes="cccc" /><path
       inkscape:connector-curvature="0"
       id="path332"
       style="fill:#b2b1b1;fill-opacity:1;fill-rule:nonzero;stroke:none"
       d="m 227.481,90.594 0,14.707 7.42,0 0,-14.648 -7.42,-0.059" /><path
       inkscape:connector-curvature="0"
       id="path334"
       style="fill:none;stroke:#000000;stroke-width:0.80000001;stroke-linecap:butt;stroke-linejoin:miter;stroke-miterlimit:4;stroke-dasharray:none;stroke-opacity:1"
       d="m 344.116,90.653 -14.737,0 0,14.74 14.737,0 0,-14.74 z m -109.268,0 -14.738,0 0,14.74 14.738,0 0,-14.74 z" /><text
       transform="scale(0.9999945,-1.0000055)"
       style="font-variant:normal;font-weight:normal;font-size:8px;font-family:Arial;-inkscape-font-specification:Arial;writing-mode:lr-tb;fill:#000000;fill-opacity:1;fill-rule:nonzero;stroke:none;font-style:normal;font-stretch:normal;"
       id="text338"
       x="223.03622"
       y="-95.708496"><tspan
         x="223.03622 225.26021 330.52762 336.30359"
         y="-95.708496"
         sodipodi:role="line"
         id="tspan340">IMDM</tspan></text>
<path
       inkscape:connector-curvature="0"
       id="path342"
       style="fill:#b2b1b1;fill-opacity:1;fill-rule:nonzero;stroke:none"
       d="m 263.352,90.639 0,14.707 7.422,0 0,-14.649 -7.422,-0.058" /><path
       inkscape:connector-curvature="0"
       id="path344"
       style="fill:none;stroke:#000202;stroke-width:0.5;stroke-linecap:butt;stroke-linejoin:miter;stroke-miterlimit:4;stroke-dasharray:none;stroke-opacity:1"
       d="m 263.223,105.36 7.496,0 0,-14.737 -7.367,0" /><text
       transform="scale(0.9999945,-1.0000055)"
       style="font-variant:normal;font-weight:normal;font-size:8px;font-family:Arial;-inkscape-font-specification:Arial;writing-mode:lr-tb;fill:#000000;fill-opacity:1;fill-rule:nonzero;stroke:none;font-style:normal;font-stretch:normal;"
       id="text348"
       x="255.8394"
       y="-95.377495"><tspan
         x="255.8394 261.61539 266.06564"
         y="-95.377495"
         sodipodi:role="line"
         id="tspan350">Reg</tspan></text>
<path
       inkscape:connector-curvature="0"
       id="path352"
       style="fill:none;stroke:#000000;stroke-width:0.5;stroke-linecap:butt;stroke-linejoin:miter;stroke-miterlimit:4;stroke-dasharray:4.0002, 2.0001;stroke-dashoffset:0;stroke-opacity:1"
       d="m 262.26,105.334 -6.279,0 0,-14.683 7.367,0" /><path
       inkscape:connector-curvature="0"
       id="path354"
       style="fill:#b2b1b1;fill-opacity:1;fill-rule:nonzero;stroke:none"
       d="m 372.629,90.639 0,14.707 -7.421,0 0,-14.649 7.421,-0.058" /><path
       inkscape:connector-curvature="0"
       id="path356"
       style="fill:none;stroke:#000000;stroke-width:0.80000001;stroke-linecap:butt;stroke-linejoin:miter;stroke-miterlimit:4;stroke-dasharray:none;stroke-opacity:1"
       d="m 372.758,105.36 -7.498,0 0,-14.737 7.369,0" /><path
       inkscape:connector-curvature="0"
       id="path358"
       style="fill:none;stroke:#000000;stroke-width:0.5;stroke-linecap:butt;stroke-linejoin:miter;stroke-miterlimit:4;stroke-dasharray:4.0002, 2.0001;stroke-dashoffset:0;stroke-opacity:1"
       d="m 373.721,105.334 6.283,0 0,-14.683 -7.371,0" /><text
       transform="scale(0.9999945,-1.0000055)"
       style="font-variant:normal;font-weight:normal;font-size:8px;font-family:Arial;-inkscape-font-specification:Arial;writing-mode:lr-tb;fill:#000000;fill-opacity:1;fill-rule:nonzero;stroke:none;font-style:normal;font-stretch:normal;"
       id="text362"
       x="365.08502"
       y="-95.377495"><tspan
         x="365.08502 370.86096 375.31204"
         y="-95.377495"
         sodipodi:role="line"
         id="tspan364">Reg</tspan></text>
<path
       inkscape:connector-curvature="0"
       id="path366"
       style="fill:#b2b1b1;fill-opacity:1;fill-rule:nonzero;stroke:none"
       d="m 292.659,114.569 18.121,-10.897 0,-11.359 -17.969,-10.897 0,13.508 3.059,3.223 -3.211,3.222 0,13.2" /><path
       inkscape:connector-curvature="0"
       id="path368"
       style="fill:none;stroke:#000000;stroke-width:0.80000001;stroke-linecap:butt;stroke-linejoin:miter;stroke-miterlimit:4;stroke-dasharray:none;stroke-opacity:1"
       d="m 252.87,98 0,3.096 2.943,0 m 36.846,13.473 18.121,-10.897 0,-11.359 -17.969,-10.897 0,13.506 3.059,3.223 -3.211,3.224 0,13.2 z" /><path
       inkscape:connector-curvature="0"
       id="path370"
       style="fill:none;stroke:#000000;stroke-width:0.80000001;stroke-linecap:butt;stroke-linejoin:miter;stroke-miterlimit:4;stroke-dasharray:none;stroke-opacity:1"
       d="m 325.899,97.842 0,-10.617 24.463,0 0,6.592 2.804,0" /><path
       inkscape:connector-curvature="0"
       id="path372"
       style="fill:#b2b1b1;fill-opacity:1;fill-rule:nonzero;stroke:none"
       d="m 243.043,78.621 4.5,0 0,38.7418 -4.5,0 0,-38.7418 z" /><path
       inkscape:connector-curvature="0"
       id="path374"
       style="fill:none;stroke:#000000;stroke-width:0.80000001;stroke-linecap:butt;stroke-linejoin:miter;stroke-miterlimit:4;stroke-dasharray:none;stroke-opacity:1"
       d="m 243.043,78.621 4.5,0 0,38.7418 -4.5,0 0,-38.7418 z" /><path
       inkscape:connector-curvature="0"
       id="path376"
       style="fill:#b2b1b1;fill-opacity:1;fill-rule:nonzero;stroke:none"
       d="m 279.704,78.621 4.49805,0 0,38.7418 -4.49805,0 0,-38.7418 z" /><path
       inkscape:connector-curvature="0"
       id="path378"
       style="fill:none;stroke:#000000;stroke-width:0.80000001;stroke-linecap:butt;stroke-linejoin:miter;stroke-miterlimit:4;stroke-dasharray:none;stroke-opacity:1"
       d="m 279.704,78.621 4.49805,0 0,38.7418 -4.49805,0 0,-38.7418 z" /><path
       inkscape:connector-curvature="0"
       id="path380"
       style="fill:#b2b1b1;fill-opacity:1;fill-rule:nonzero;stroke:none"
       d="m 316.362,78.621 4.5,0 0,38.7418 -4.5,0 0,-38.7418 z" /><path
       inkscape:connector-curvature="0"
       id="path382"
       style="fill:none;stroke:#000000;stroke-width:0.80000001;stroke-linecap:butt;stroke-linejoin:miter;stroke-miterlimit:4;stroke-dasharray:none;stroke-opacity:1"
       d="m 316.362,78.621 4.5,0 0,38.7418 -4.5,0 0,-38.7418 z" /><path
       inkscape:connector-curvature="0"
       id="path384"
       style="fill:#b2b1b1;fill-opacity:1;fill-rule:nonzero;stroke:none"
       d="m 353.024,78.621 4.49805,0 0,38.7418 -4.49805,0 0,-38.7418 z" /><path
       inkscape:connector-curvature="0"
       id="path386"
       style="fill:none;stroke:#000000;stroke-width:0.80000001;stroke-linecap:butt;stroke-linejoin:miter;stroke-miterlimit:4;stroke-dasharray:none;stroke-opacity:1"
       d="m 353.024,78.621 4.49805,0 0,38.7418 -4.49805,0 0,-38.7418 z" /><path
       inkscape:connector-curvature="0"
       id="path388"
       style="fill:none;stroke:#000000;stroke-width:0.80000001;stroke-linecap:butt;stroke-linejoin:miter;stroke-miterlimit:4;stroke-dasharray:none;stroke-opacity:1"
       d="m 353.358,98.043 -9.258,0"
       sodipodi:nodetypes="cc" /><path
       inkscape:connector-curvature="0"
       id="path482"
       style="fill:none;stroke:#000000;stroke-width:0.80000001;stroke-linecap:butt;stroke-linejoin:miter;stroke-miterlimit:4;stroke-dasharray:none;stroke-opacity:1"
       d="m 284.29,93.838 8.43308,0"
       sodipodi:nodetypes="cc" /><g
       transform="matrix(0.8,0,0,-0.8,159.97505,551.56791)"
       id="layer1"
       inkscape:label="Camada 1"><text
         sodipodi:linespacing="125%"
         id="text4894"
         y="368.73376"
         x="252.28816"
         style="font-style:normal;font-weight:normal;font-size:10px;line-height:125%;font-family:sans-serif;text-align:center;letter-spacing:0px;word-spacing:0px;writing-mode:lr-tb;text-anchor:middle;opacity:0.93999999;fill:#000000;fill-opacity:1;stroke:none;stroke-width:1px;stroke-linecap:butt;stroke-linejoin:miter;stroke-opacity:1"
         xml:space="preserve"><tspan
           style="font-size:7.5px;text-align:center;letter-spacing:0px;word-spacing:0px;text-anchor:middle"
           y="368.73376"
           x="253.48201"
           id="tspan4304"
           sodipodi:role="line">COD 4Ed, Copyright © 2009 </tspan><tspan
           id="tspan4308"
           style="font-size:7.5px;text-align:center;letter-spacing:0px;word-spacing:0px;text-anchor:middle"
           y="378.10876"
           x="252.28816"
           sodipodi:role="line">Elsevier, Inc. All rights reserved.</tspan><tspan
           y="387.48376"
           x="252.28816"
           id="tspan4306"
           sodipodi:role="line" /></text>
</g><text
       y="-249.4088"
       x="42.084232"
       id="text4349"
       style="font-style:normal;font-variant:normal;font-weight:normal;font-stretch:normal;font-size:8px;line-height:125%;font-family:Arial;-inkscape-font-specification:Arial;text-align:start;writing-mode:lr-tb;text-anchor:start;fill:#000000;fill-opacity:1;fill-rule:nonzero;stroke:none;"
       transform="scale(0.9999945,-1.0000055)"
       sodipodi:linespacing="125%"><tspan
         sodipodi:role="line"
         id="tspan4353"
         style="font-style:normal;font-variant:normal;font-weight:normal;font-stretch:normal;font-family:Arial;-inkscape-font-specification:Arial;"
         x="42.084232"
         y="-249.4088">add  $1, $1, $2</tspan></text>
<text
       sodipodi:linespacing="125%"
       transform="scale(0.9999945,-1.0000055)"
       style="font-style:normal;font-variant:normal;font-weight:normal;font-stretch:normal;font-size:8px;line-height:125%;font-family:Arial;-inkscape-font-specification:Arial;text-align:start;writing-mode:lr-tb;text-anchor:start;fill:#000000;fill-opacity:1;fill-rule:nonzero;stroke:none;"
       id="text4365"
       x="42.084232"
       y="-198.20909"><tspan
         y="-198.20909"
         x="42.084232"
         style="font-style:normal;font-variant:normal;font-weight:normal;font-stretch:normal;font-family:Arial;-inkscape-font-specification:Arial;"
         id="tspan4367"
         sodipodi:role="line">add  $1, $1, $3</tspan></text>
<text
       y="-145.40939"
       x="42.084232"
       id="text4371"
       style="font-style:normal;font-variant:normal;font-weight:normal;font-stretch:normal;font-size:8px;line-height:125%;font-family:Arial;-inkscape-font-specification:Arial;text-align:start;writing-mode:lr-tb;text-anchor:start;fill:#000000;fill-opacity:1;fill-rule:nonzero;stroke:none;"
       transform="scale(0.9999945,-1.0000055)"
       sodipodi:linespacing="125%"><tspan
         sodipodi:role="line"
         id="tspan4373"
         style="font-style:normal;font-variant:normal;font-weight:normal;font-stretch:normal;font-family:Arial;-inkscape-font-specification:Arial;"
         x="42.084232"
         y="-145.40939">add  $1, $1, $4</tspan></text>
<text
       sodipodi:linespacing="125%"
       transform="scale(0.9999945,-1.0000055)"
       style="font-style:normal;font-variant:normal;font-weight:normal;font-stretch:normal;font-size:8px;line-height:125%;font-family:Arial;-inkscape-font-specification:Arial;text-align:start;writing-mode:lr-tb;text-anchor:start;fill:#000000;fill-opacity:1;fill-rule:nonzero;stroke:none;"
       id="text4375"
       x="42.084232"
       y="-95.103645"><tspan
         y="-95.103645"
         x="42.084232"
         style="font-style:normal;font-variant:normal;font-weight:normal;font-stretch:normal;font-family:Arial;-inkscape-font-specification:Arial;"
         id="tspan4377"
         sodipodi:role="line">add  $1, $1, $5</tspan></text>
<text
       sodipodi:linespacing="125%"
       transform="scale(0.9999945,-1.0000055)"
       style="font-style:normal;font-variant:normal;font-weight:normal;font-stretch:normal;font-size:8px;line-height:125%;font-family:Arial;-inkscape-font-specification:Arial;text-align:start;writing-mode:lr-tb;text-anchor:start;fill:#000000;fill-opacity:1;fill-rule:nonzero;stroke:none;"
       id="text4314"
       x="190.20677"
       y="-274.01843"><tspan
         y="-274.01843"
         x="190.20677"
         style="font-style:normal;font-variant:normal;font-weight:normal;font-stretch:normal;font-size:6px;font-family:Arial;-inkscape-font-specification:Arial;"
         id="tspan4316"
         sodipodi:role="line">$1=$1+$2</tspan></text>
<text
       y="-222.7578"
       x="233.68126"
       id="text4327"
       style="font-style:normal;font-variant:normal;font-weight:normal;font-stretch:normal;font-size:8px;line-height:125%;font-family:Arial;-inkscape-font-specification:Arial;text-align:start;writing-mode:lr-tb;text-anchor:start;fill:#000000;fill-opacity:1;fill-rule:nonzero;stroke:none;"
       transform="scale(0.9999945,-1.0000055)"
       sodipodi:linespacing="125%"><tspan
         sodipodi:role="line"
         id="tspan4329"
         style="font-style:normal;font-variant:normal;font-weight:normal;font-stretch:normal;font-size:6px;font-family:Arial;-inkscape-font-specification:Arial"
         x="233.68126"
         y="-222.7578">$1=$1+$3</tspan></text>
<text
       sodipodi:linespacing="125%"
       transform="scale(0.9999945,-1.0000055)"
       style="font-style:normal;font-variant:normal;font-weight:normal;font-stretch:normal;font-size:8px;line-height:125%;font-family:Arial;-inkscape-font-specification:Arial;text-align:start;writing-mode:lr-tb;text-anchor:start;fill:#000000;fill-opacity:1;fill-rule:nonzero;stroke:none;"
       id="text4331"
       x="270.00388"
       y="-171.57071"><tspan
         y="-171.57071"
         x="270.00388"
         style="font-style:normal;font-variant:normal;font-weight:normal;font-stretch:normal;font-size:6px;font-family:Arial;-inkscape-font-specification:Arial"
         id="tspan4333"
         sodipodi:role="line">$1=$1+$4</tspan></text>
<text
       y="-120.20081"
       x="308.40402"
       id="text4335"
       style="font-style:normal;font-variant:normal;font-weight:normal;font-stretch:normal;font-size:8px;line-height:125%;font-family:Arial;-inkscape-font-specification:Arial;text-align:start;writing-mode:lr-tb;text-anchor:start;fill:#000000;fill-opacity:1;fill-rule:nonzero;stroke:none;"
       transform="scale(0.9999945,-1.0000055)"
       sodipodi:linespacing="125%"><tspan
         sodipodi:role="line"
         id="tspan4337"
         style="font-style:normal;font-variant:normal;font-weight:normal;font-stretch:normal;font-size:6px;font-family:Arial;-inkscape-font-specification:Arial"
         x="308.40402"
         y="-120.20081">$1=$1+$5</tspan></text>
<path
       style="fill:none;fill-rule:evenodd;stroke:#000000;stroke-width:0.80000001;stroke-linecap:butt;stroke-linejoin:miter;stroke-miterlimit:4;stroke-dasharray:none;stroke-opacity:1"
       d="m 233.79761,252.23977 9.17176,-0.0728"
       id="path4339"
       inkscape:connector-curvature="0" /><text
       y="-222.44267"
       x="270.32648"
       id="text4341"
       style="font-style:normal;font-variant:normal;font-weight:normal;font-stretch:normal;font-size:8px;line-height:125%;font-family:Arial;-inkscape-font-specification:Arial;text-align:start;writing-mode:lr-tb;text-anchor:start;fill:#000000;fill-opacity:1;fill-rule:nonzero;stroke:none;"
       transform="scale(0.9999945,-1.0000055)"
       sodipodi:linespacing="125%"><tspan
         sodipodi:role="line"
         id="tspan4343"
         style="font-style:normal;font-variant:normal;font-weight:normal;font-stretch:normal;font-size:6px;font-family:Arial;-inkscape-font-specification:Arial"
         x="270.32648"
         y="-222.44267">$1=$1+$2</tspan></text>
<path
       inkscape:connector-curvature="0"
       id="path4351"
       d="m 284.23845,103.6627 8.36516,0"
       style="fill:none;fill-rule:evenodd;stroke:#000000;stroke-width:0.80000001px;stroke-linecap:butt;stroke-linejoin:miter;stroke-opacity:1" /><text
       sodipodi:linespacing="125%"
       transform="scale(0.9999945,-1.0000055)"
       style="font-style:normal;font-variant:normal;font-weight:normal;font-stretch:normal;font-size:8px;line-height:125%;font-family:Arial;-inkscape-font-specification:Arial;text-align:start;writing-mode:lr-tb;text-anchor:start;fill:#000000;fill-opacity:1;fill-rule:nonzero;stroke:none;"
       id="text4357"
       x="306.57544"
       y="-171.55809"><tspan
         y="-171.55809"
         x="306.57544"
         style="font-style:normal;font-variant:normal;font-weight:normal;font-stretch:normal;font-size:6px;font-family:Arial;-inkscape-font-specification:Arial"
         id="tspan4359"
         sodipodi:role="line">$1=$1+$3</tspan></text>
<text
       y="-120.37101"
       x="345.20416"
       id="text4369"
       style="font-style:normal;font-variant:normal;font-weight:normal;font-stretch:normal;font-size:8px;line-height:125%;font-family:Arial;-inkscape-font-specification:Arial;text-align:start;writing-mode:lr-tb;text-anchor:start;fill:#000000;fill-opacity:1;fill-rule:nonzero;stroke:none;"
       transform="scale(0.9999945,-1.0000055)"
       sodipodi:linespacing="125%"><tspan
         sodipodi:role="line"
         id="tspan4371"
         style="font-style:normal;font-variant:normal;font-weight:normal;font-stretch:normal;font-size:6px;font-family:Arial;-inkscape-font-specification:Arial"
         x="345.20416"
         y="-120.37101">$1=$1+$4</tspan></text>
</g></svg>