<?xml version="1.0" encoding="UTF-8" standalone="no"?>
<svg
   xmlns:dc="http://purl.org/dc/elements/1.1/"
   xmlns:cc="http://creativecommons.org/ns#"
   xmlns:rdf="http://www.w3.org/1999/02/22-rdf-syntax-ns#"
   xmlns:svg="http://www.w3.org/2000/svg"
   xmlns="http://www.w3.org/2000/svg"
   xmlns:sodipodi="http://sodipodi.sourceforge.net/DTD/sodipodi-0.dtd"
   xmlns:inkscape="http://www.inkscape.org/namespaces/inkscape"
   viewBox="0 0 451.62368 161.21238"
   height="161.21239"
   width="451.62369"
   xml:space="preserve"
   version="1.1"
   id="svg2"
   inkscape:version="0.91 r13725"
   sodipodi:docname="loadUseHazard-1.svg"><sodipodi:namedview
     pagecolor="#ffffff"
     bordercolor="#666666"
     borderopacity="1"
     objecttolerance="10"
     gridtolerance="10"
     guidetolerance="10"
     inkscape:pageopacity="0"
     inkscape:pageshadow="2"
     inkscape:window-width="1855"
     inkscape:window-height="1056"
     id="namedview139"
     showgrid="false"
     inkscape:showpageshadow="false"
     fit-margin-top="8"
     fit-margin-left="8"
     fit-margin-bottom="8"
     fit-margin-right="8"
     inkscape:zoom="2.4843692"
     inkscape:cx="231.02389"
     inkscape:cy="80.606194"
     inkscape:window-x="1985"
     inkscape:window-y="24"
     inkscape:window-maximized="1"
     inkscape:current-layer="svg2"
     showguides="true"
     inkscape:guide-bbox="true" /><metadata
     id="metadata8"><rdf:RDF><cc:Work
         rdf:about=""><dc:format>image/svg+xml</dc:format><dc:type
           rdf:resource="http://purl.org/dc/dcmitype/StillImage" /><dc:title></dc:title></cc:Work></rdf:RDF></metadata><defs
     id="defs6"><marker
       inkscape:stockid="Arrow1Mend"
       orient="auto"
       refY="0"
       refX="0"
       id="Arrow1Mend"
       style="overflow:visible"
       inkscape:isstock="true"><path
         id="path4270"
         d="M 0,0 5,-5 -12.5,0 5,5 0,0 Z"
         style="fill:#000000;fill-opacity:1;fill-rule:evenodd;stroke:#000000;stroke-width:1pt;stroke-opacity:1"
         transform="matrix(-0.4,0,0,-0.4,-4,0)"
         inkscape:connector-curvature="0" /></marker><marker
       inkscape:stockid="Arrow1Mstart"
       orient="auto"
       refY="0"
       refX="0"
       id="Arrow1Mstart"
       style="overflow:visible"
       inkscape:isstock="true"><path
         id="path4267"
         d="M 0,0 5,-5 -12.5,0 5,5 0,0 Z"
         style="fill:#231f20;fill-opacity:1;fill-rule:evenodd;stroke:#231f20;stroke-width:1pt;stroke-opacity:1"
         transform="matrix(0.4,0,0,0.4,4,0)"
         inkscape:connector-curvature="0" /></marker><clipPath
       id="clipPath172"
       clipPathUnits="userSpaceOnUse"><path
         id="path174"
         d="m 0,693 0,1364 3456,0 0,-1364 -3456,0 z"
         inkscape:connector-curvature="0" /></clipPath></defs><g
     id="g4851"><path
       inkscape:connector-curvature="0"
       d="m 257.04249,53.019025 0,26.87375 13.2675,0 0,-26.85 -13.2675,-0.0238"
       style="fill:#b2b1b1;fill-opacity:1;fill-rule:nonzero;stroke:none"
       id="path44" /><path
       sodipodi:nodetypes="cc"
       inkscape:connector-curvature="0"
       d="m 95.405111,36.377775 341.009879,0"
       style="fill:none;stroke:#000000;stroke-width:1;stroke-linecap:butt;stroke-linejoin:miter;stroke-miterlimit:4;stroke-dasharray:none;stroke-opacity:1"
       id="path46" /><path
       inkscape:connector-curvature="0"
       d="m 437.52249,35.897775 c -0.775,-0.23375 -1.28,-0.45 -1.90125,-0.7 l 0,2.365 c 0.2225,-0.10625 1.12625,-0.465 1.90125,-0.69875 0.82875,-0.25125 1.58125,-0.4225 2.06875,-0.48375 -0.4875,-0.06 -1.24,-0.2325 -2.06875,-0.4825"
       style="fill:#231f20;fill-opacity:1;fill-rule:nonzero;stroke:none"
       id="path48" /><path
       inkscape:connector-curvature="0"
       d="m 141.06374,39.417775 0,-3.15 m 46.37625,3.15 0,-3.15 m 46.375,3.15 0,-3.15 m 46.3775,3.15 0,-3.15 m 46.37625,3.54375 0,-3.15 m 46.37625,3.15 0,-3.15 m 46.375,3.15 0,-3.15"
       style="fill:none;stroke:#000000;stroke-width:1;stroke-linecap:butt;stroke-linejoin:miter;stroke-miterlimit:4;stroke-dasharray:none;stroke-opacity:1"
       id="path50" /><text
       y="32.395279"
       x="132.72249"
       id="text54"
       style="font-variant:normal;font-weight:normal;font-size:10.00038719px;font-family:Helvetica;-inkscape-font-specification:Helvetica;writing-mode:lr-tb;fill:#000000;fill-opacity:1;fill-rule:nonzero;stroke:none"><tspan
         id="tspan56"
         y="32.395279"
         x="132.72249 138.2827 143.84291 179.09898 184.65919 190.21941 225.47638 231.03659 236.5968 271.85138 277.41159 282.9718 315.44757 321.00778 326.56799 332.1282 361.82205 367.38226 372.9425 378.50272 408.19806 413.75827 419.31848 424.87869">200400600800100012001400</tspan><tspan
         id="tspan58"
         y="39.547127"
         x="69.81424 75.924469 78.144554 86.474876">Time</tspan><tspan
         id="tspan60"
         y="69.546127"
         x="22.164358" /></text>
<text
       sodipodi:linespacing="125%"
       y="69.943489"
       x="24.208069"
       id="text70"
       style="font-style:normal;font-variant:normal;font-weight:normal;font-stretch:normal;font-size:10.00037575px;line-height:125%;font-family:Helvetica;-inkscape-font-specification:'Helvetica, Normal';text-align:start;writing-mode:lr-tb;text-anchor:start;fill:#000000;fill-opacity:1;fill-rule:nonzero;stroke:none"><tspan
         y="69.943489"
         x="24.208069"
         id="tspan4255"
         sodipodi:role="line">lw $s0, 20($t1)</tspan></text>
<path
       inkscape:connector-curvature="0"
       d="m 117.82499,52.810275 0,27.0825 14.45363,0 0,-27.0575 -14.45363,-0.025"
       style="fill:#b2b1b1;fill-opacity:1;fill-rule:nonzero;stroke:none"
       id="path88" /><path
       inkscape:connector-curvature="0"
       d="m 131.96761,79.916525 -26.58887,0 0,-27.08125 26.58887,0 0,27.08125 z m 138.37113,-0.2175 -26.18625,0 0,-26.66875 26.18625,0 0,26.66875 z"
       style="fill:none;stroke:#000000;stroke-width:1;stroke-linecap:butt;stroke-linejoin:miter;stroke-miterlimit:4;stroke-dasharray:none;stroke-opacity:1"
       id="path90" /><text
       y="69.545273"
       x="114.25184"
       id="text94"
       style="font-variant:normal;font-weight:normal;font-size:10.00038719px;font-family:Helvetica;-inkscape-font-specification:Helvetica;writing-mode:lr-tb;fill:#000000;fill-opacity:1;fill-rule:nonzero;stroke:none"><tspan
         id="tspan96"
         y="69.545273"
         x="114.25184 117.03197 245.29893 253.62926 260.29953">IFMEM</tspan></text>
<path
       inkscape:connector-curvature="0"
       d="m 164.33249,53.435275 0,25.8325 13.7875,0 0,-25.80875 -13.7875,-0.0238"
       style="fill:#b2b1b1;fill-opacity:1;fill-rule:nonzero;stroke:none"
       id="path98" /><path
       inkscape:connector-curvature="0"
       d="m 164.33249,53.459025 13.49,0 0,25.8325 -13.49,0"
       style="fill:none;stroke:#000000;stroke-width:1;stroke-linecap:butt;stroke-linejoin:miter;stroke-miterlimit:4;stroke-dasharray:none;stroke-opacity:1"
       id="path100" /><path
       inkscape:connector-curvature="0"
       d="m 164.32499,53.459025 -11.865,0 0,25.8325 11.865,0"
       style="fill:none;stroke:#231f20;stroke-width:0.625;stroke-linecap:butt;stroke-linejoin:miter;stroke-miterlimit:4;stroke-dasharray:1.25, 1.25;stroke-dashoffset:0;stroke-opacity:1"
       id="path102" /><text
       y="69.545273"
       x="160.71248"
       id="text106"
       style="font-variant:normal;font-weight:normal;font-size:10.00038719px;font-family:Helvetica;-inkscape-font-specification:Helvetica;writing-mode:lr-tb;fill:#000000;fill-opacity:1;fill-rule:nonzero;stroke:none"><tspan
         id="tspan108"
         y="69.545273"
         x="160.71248 163.4926">ID</tspan></text>
<path
       inkscape:connector-curvature="0"
       d="m 304.80874,53.020275 0,26.2475 -14.0075,0 0,-26.22375 14.0075,-0.0238"
       style="fill:#b2b1b1;fill-opacity:1;fill-rule:nonzero;stroke:none"
       id="path110" /><path
       inkscape:connector-curvature="0"
       d="m 305.03874,53.040275 -13.92375,0 0,26.25125 13.92375,0"
       style="fill:none;stroke:#000000;stroke-width:1;stroke-linecap:butt;stroke-linejoin:miter;stroke-miterlimit:4;stroke-dasharray:none;stroke-opacity:1"
       id="path112" /><path
       inkscape:connector-curvature="0"
       d="m 304.81749,53.044025 12.055,0 0,26.2475 -12.055,0"
       style="fill:none;stroke:#231f20;stroke-width:0.625;stroke-linecap:butt;stroke-linejoin:miter;stroke-miterlimit:4;stroke-dasharray:1.25, 1.25;stroke-dashoffset:0;stroke-opacity:1"
       id="path114" /><text
       y="69.545273"
       x="295.50873"
       id="text118"
       style="font-variant:normal;font-weight:normal;font-size:10.00038719px;font-family:Helvetica;-inkscape-font-specification:Helvetica;writing-mode:lr-tb;fill:#000000;fill-opacity:1;fill-rule:nonzero;stroke:none"><tspan
         id="tspan120"
         y="69.545273"
         x="295.50873 304.94861">WB</tspan></text>
<path
       inkscape:connector-curvature="0"
       d="m 200.43624,43.967775 22.50125,12.08375 0,20.4175 -22.71,12.2925 0,-17.2925 6.2525,-5.4175 -6.04375,-3.33375 0,-18.75"
       style="fill:#b2b1b1;fill-opacity:1;fill-rule:nonzero;stroke:none"
       id="path122" /><path
       sodipodi:nodetypes="ccccccccccccccccccccc"
       inkscape:connector-curvature="0"
       d="m 200.43624,43.967775 22.50125,12.08375 0,20.4175 -22.71,12.2925 0,-17.2925 6.2525,-5.4175 -6.04375,-3.33375 z m -68.54375,22.39625 20.5675,0 m 25.3625,-9.20875 22.405,0 m -22.405,17.50125 22.69,0 m 22.425,-8.2925 21.04375,0 m 26.32875,0 20.805,0 m -138.745,-4.1975 -4.17625,0 0,4.30125"
       style="fill:none;stroke:#000000;stroke-width:1;stroke-linecap:butt;stroke-linejoin:miter;stroke-miterlimit:4;stroke-dasharray:none;stroke-opacity:1"
       id="path124" /><text
       y="69.545273"
       x="207.93498"
       id="text128"
       style="font-variant:normal;font-weight:normal;font-size:10.00038719px;font-family:Helvetica;-inkscape-font-specification:Helvetica;writing-mode:lr-tb;fill:#000000;fill-opacity:1;fill-rule:nonzero;stroke:none"><tspan
         id="tspan130"
         y="69.545273"
         x="207.93498 214.60524">EX</tspan></text>
<path
       inkscape:connector-curvature="0"
       d="m 160.66374,112.33052 0,27.0825 14.4525,0 0,-27.05763 -14.4525,-0.0249"
       style="fill:#b2b1b1;fill-opacity:1;fill-rule:nonzero;stroke:none"
       id="path132" /><path
       inkscape:connector-curvature="0"
       d="m 174.80499,139.43639 -26.59,0 0,-27.081 26.59,0 0,27.081 z m 142.5375,-0.21725 -26.18625,0 0,-26.6675 26.18625,0 0,26.6675 z"
       style="fill:none;stroke:#000000;stroke-width:1;stroke-linecap:butt;stroke-linejoin:miter;stroke-miterlimit:4;stroke-dasharray:none;stroke-opacity:1"
       id="path134" /><text
       y="129.06529"
       x="157.08998"
       id="text138"
       style="font-variant:normal;font-weight:normal;font-size:10.00038719px;font-family:Helvetica;-inkscape-font-specification:Helvetica;writing-mode:lr-tb;fill:#000000;fill-opacity:1;fill-rule:nonzero;stroke:none"><tspan
         id="tspan140"
         y="129.06529"
         x="157.08998 159.86954 292.30374 300.63406 307.30432">IFMEM</tspan></text>
<path
       inkscape:connector-curvature="0"
       d="m 213.41999,112.95552 0,25.8325 13.7875,0 0,-25.80913 -13.7875,-0.0234"
       style="fill:#a6e2f9;fill-opacity:1;fill-rule:nonzero;stroke:none"
       id="path142" /><path
       inkscape:connector-curvature="0"
       d="m 213.41999,112.97889 13.48875,0 0,25.8325 -13.48875,0"
       style="fill:none;stroke:#00adef;stroke-width:0.625;stroke-linecap:butt;stroke-linejoin:miter;stroke-miterlimit:4;stroke-dasharray:none;stroke-opacity:1"
       id="path144" /><path
       inkscape:connector-curvature="0"
       d="m 213.41374,112.97889 -11.86625,0 0,25.8325 11.86625,0"
       style="fill:none;stroke:#231f20;stroke-width:0.625;stroke-linecap:butt;stroke-linejoin:miter;stroke-miterlimit:4;stroke-dasharray:1.25, 1.25;stroke-dashoffset:0;stroke-opacity:1"
       id="path146" /><text
       y="129.06529"
       x="209.79874"
       id="text150"
       style="font-variant:normal;font-weight:normal;font-size:10.00038719px;font-family:Helvetica;-inkscape-font-specification:Helvetica;writing-mode:lr-tb;fill:#000000;fill-opacity:1;fill-rule:nonzero;stroke:none"><tspan
         id="tspan152"
         y="129.06529"
         x="209.79874 212.57828">ID</tspan></text>
<path
       inkscape:connector-curvature="0"
       d="m 351.81374,112.44914 0,26.8725 -14.0075,0 0,-26.84612 14.0075,-0.0264"
       style="fill:#b2b1b1;fill-opacity:1;fill-rule:nonzero;stroke:none"
       id="path154" /><path
       inkscape:connector-curvature="0"
       d="m 352.04249,112.75777 -13.9225,0 0,26.25487 13.9225,0"
       style="fill:none;stroke:#000000;stroke-width:1;stroke-linecap:butt;stroke-linejoin:miter;stroke-miterlimit:4;stroke-dasharray:none;stroke-opacity:1"
       id="path156" /><path
       inkscape:connector-curvature="0"
       d="m 351.82124,112.76264 12.055,0 0,26.24513 -12.055,0"
       style="fill:none;stroke:#231f20;stroke-width:0.625;stroke-linecap:butt;stroke-linejoin:miter;stroke-miterlimit:4;stroke-dasharray:1.25, 1.25;stroke-dashoffset:0;stroke-opacity:1"
       id="path158" /><text
       y="129.06529"
       x="342.51373"
       id="text162"
       style="font-variant:normal;font-weight:normal;font-size:10.00038719px;font-family:Helvetica;-inkscape-font-specification:Helvetica;writing-mode:lr-tb;fill:#000000;fill-opacity:1;fill-rule:nonzero;stroke:none"><tspan
         id="tspan164"
         y="129.06529"
         x="342.51373 351.95361">WB</tspan></text>
<path
       inkscape:connector-curvature="0"
       d="m 249.94124,103.48652 22.50125,12.08612 0,20.4175 -22.70875,12.2915 0,-17.2925 6.25,-5.4165 -6.0425,-3.3335 0,-18.75262"
       style="fill:#b2b1b1;fill-opacity:1;fill-rule:nonzero;stroke:none"
       id="path166" /><path
       inkscape:connector-curvature="0"
       d="m 249.94124,103.48652 22.50125,12.08612 0,20.4175 -22.70875,12.2915 0,-17.2925 6.25,-5.4165 -6.0425,-3.3335 0,-18.75262 z m -75.21125,22.39862 26.8175,0 m 70.6875,0 18.75,0 m 26.3575,0 20.7775,0 m -136.6625,-4.19875 -4.17625,0 0,4.30275"
       style="fill:none;stroke:#000000;stroke-width:1;stroke-linecap:butt;stroke-linejoin:miter;stroke-miterlimit:4;stroke-dasharray:none;stroke-opacity:1"
       id="path176" /><text
       y="129.06529"
       x="257.43997"
       id="text180"
       style="font-variant:normal;font-weight:normal;font-size:10.00038719px;font-family:Helvetica;-inkscape-font-specification:Helvetica;writing-mode:lr-tb;fill:#000000;fill-opacity:1;fill-rule:nonzero;stroke:none"><tspan
         id="tspan182"
         y="129.06529"
         x="257.43997 264.11023">EX</tspan></text>
<path
       inkscape:connector-curvature="0"
       d="m 282.95124,66.364025 c 0,1.20875 -0.98125,2.1875 -2.1875,2.1875 -1.21,0 -2.1875,-0.97875 -2.1875,-2.1875 0,-1.20625 0.9775,-2.1875 2.1875,-2.1875 1.20625,0 2.1875,0.98125 2.1875,2.1875"
       style="fill:#ff0000;fill-opacity:1;fill-rule:nonzero;stroke:none"
       id="path184" /><path
       sodipodi:nodetypes="cc"
       inkscape:connector-curvature="0"
       d="m 280.58892,66.507539 c 1.22915,40.596751 -36.87241,11.311898 -42.60282,50.088971"
       style="fill:none;stroke:#ff0000;stroke-width:1;stroke-linecap:butt;stroke-linejoin:miter;stroke-miterlimit:4;stroke-dasharray:none;stroke-opacity:1"
       id="path188" /><text
       x="7.639986"
       y="15.290282"
       id="text192"
       style="font-variant:normal;font-weight:normal;font-size:10.00038719px;font-family:Helvetica;-inkscape-font-specification:Helvetica;writing-mode:lr-tb;fill:#000000;fill-opacity:1;fill-rule:nonzero;stroke:none"><tspan
         id="tspan194"
         y="15.290282"
         x="7.639986 14.310245 17.640373 23.20059 28.760803 32.090935 37.65115">Program</tspan><tspan
         id="tspan196"
         y="27.290756"
         x="7.639986 13.200202 18.200396 23.760611 28.760803 34.321022 37.101128 39.321217 44.888035">execution</tspan><tspan
         id="tspan198"
         y="39.290276"
         x="7.639986 13.200202 16.530331 22.090546 27.650763">order</tspan><tspan
         id="tspan200"
         y="51.29126"
         x="7.639986 10.970116 13.190202 18.750418 21.530525 23.75061 29.310827 34.31102 37.091129 40.421257 45.981476 50.981667 53.761776 55.981861 61.542076 67.102287 72.102486">(in instructions)</tspan></text>
<path
       inkscape:connector-curvature="0"
       d="m 14.175149,54.984024 0,96.318356"
       style="fill:#000000;fill-opacity:1;stroke:#000000;stroke-width:1;stroke-linecap:butt;stroke-linejoin:miter;stroke-miterlimit:4;stroke-dasharray:none;stroke-opacity:1;marker-end:url(#Arrow1Mend)"
       id="path202" /><g
       inkscape:label="Camada 1"
       id="layer1"
       transform="translate(-85.233032,-212.54744)"><text
         xml:space="preserve"
         style="font-style:normal;font-weight:normal;font-size:10px;line-height:125%;font-family:sans-serif;text-align:start;letter-spacing:0px;word-spacing:0px;writing-mode:lr-tb;text-anchor:start;opacity:0.93999999;fill:#000000;fill-opacity:1;stroke:none;stroke-width:1px;stroke-linecap:butt;stroke-linejoin:miter;stroke-opacity:1"
         x="192.30464"
         y="368.73376"
         id="text4894"
         sodipodi:linespacing="125%"><tspan
           sodipodi:role="line"
           x="192.30464"
           y="368.73376"
           style="font-size:7.5px"
           id="tspan4308"> COD 4Ed, Copyright © 2009 - Elsevier, Inc. All rights reserved. </tspan><tspan
           sodipodi:role="line"
           id="tspan4306"
           x="192.30464"
           y="378.10876" /></text>
</g><path
       inkscape:connector-curvature="0"
       id="path4237"
       d="m 226.72516,133.0736 22.84059,0"
       style="fill:none;fill-rule:evenodd;stroke:#000000;stroke-width:1;stroke-linecap:butt;stroke-linejoin:miter;stroke-miterlimit:4;stroke-dasharray:none;stroke-opacity:1" /><path
       style="fill:none;fill-rule:evenodd;stroke:#000000;stroke-width:1;stroke-linecap:butt;stroke-linejoin:miter;stroke-miterlimit:4;stroke-dasharray:none;stroke-opacity:1"
       d="m 226.72516,116.91716 22.84059,0"
       id="path4239"
       inkscape:connector-curvature="0" /><text
       sodipodi:linespacing="125%"
       style="font-style:normal;font-variant:normal;font-weight:normal;font-stretch:normal;font-size:10.00037575px;line-height:125%;font-family:Helvetica;-inkscape-font-specification:'Helvetica, Normal';text-align:start;writing-mode:lr-tb;text-anchor:start;fill:#000000;fill-opacity:1;fill-rule:nonzero;stroke:none"
       id="text4243"
       x="24.065094"
       y="128.34171"><tspan
         y="128.34171"
         x="24.065094"
         id="tspan4249"
         sodipodi:role="line">sub $t2, $s0, $t3 </tspan></text>
<ellipse
       ry="8.9757614"
       rx="9.7736063"
       cy="125.13336"
       cx="70.409859"
       id="path4845"
       style="opacity:1;fill:none;fill-opacity:1;fill-rule:nonzero;stroke:#ff0000;stroke-width:1;stroke-linecap:round;stroke-miterlimit:4;stroke-dasharray:none;stroke-dashoffset:0;stroke-opacity:1" /><ellipse
       style="opacity:1;fill:none;fill-opacity:1;fill-rule:nonzero;stroke:#ff0000;stroke-width:1;stroke-linecap:round;stroke-miterlimit:4;stroke-dasharray:none;stroke-dashoffset:0;stroke-opacity:1"
       id="ellipse4847"
       cx="45.207703"
       cy="66.729065"
       rx="9.7736063"
       ry="8.9757614" /><path
       inkscape:connector-curvature="0"
       d="m 240.60124,116.67427 c 0,1.2075 -0.9825,2.1875 -2.1875,2.1875 -1.20875,0 -2.1875,-0.98 -2.1875,-2.1875 0,-1.20513 0.97875,-2.1875 2.1875,-2.1875 1.205,0 2.1875,0.98237 2.1875,2.1875"
       style="fill:#ff0000;fill-opacity:1;fill-rule:nonzero;stroke:none"
       id="path186" /></g></svg>