<?xml version="1.0" encoding="UTF-8" standalone="no"?>
<svg
   xmlns:dc="http://purl.org/dc/elements/1.1/"
   xmlns:cc="http://creativecommons.org/ns#"
   xmlns:rdf="http://www.w3.org/1999/02/22-rdf-syntax-ns#"
   xmlns:svg="http://www.w3.org/2000/svg"
   xmlns="http://www.w3.org/2000/svg"
   xmlns:sodipodi="http://sodipodi.sourceforge.net/DTD/sodipodi-0.dtd"
   xmlns:inkscape="http://www.inkscape.org/namespaces/inkscape"
   viewBox="0 0 553.1264 304.25277"
   height="304.25278"
   width="553.1264"
   xml:space="preserve"
   version="1.1"
   id="svg2"
   inkscape:version="0.91 r13725"
   sodipodi:docname="pipelineVerificacaoLW-3A.svg"><sodipodi:namedview
     pagecolor="#ffffff"
     bordercolor="#666666"
     borderopacity="1"
     objecttolerance="10"
     gridtolerance="10"
     guidetolerance="10"
     inkscape:pageopacity="0"
     inkscape:pageshadow="2"
     inkscape:window-width="1855"
     inkscape:window-height="1056"
     id="namedview420"
     showgrid="false"
     showguides="true"
     inkscape:guide-bbox="true"
     inkscape:zoom="19.892353"
     inkscape:cx="536.8253"
     inkscape:cy="110.03241"
     inkscape:window-x="1985"
     inkscape:window-y="24"
     inkscape:window-maximized="1"
     inkscape:current-layer="svg2"
     fit-margin-left="8"
     fit-margin-bottom="8"
     fit-margin-top="8"
     fit-margin-right="8"><sodipodi:guide
       position="483.27117,252.97332"
       orientation="0,1"
       id="guide4517" /></sodipodi:namedview><metadata
     id="metadata8"><rdf:RDF><cc:Work
         rdf:about=""><dc:format>image/svg+xml</dc:format><dc:type
           rdf:resource="http://purl.org/dc/dcmitype/StillImage" /><dc:title></dc:title></cc:Work></rdf:RDF></metadata><defs
     id="defs6"><clipPath
       id="clipPath60"
       clipPathUnits="userSpaceOnUse"><path
         id="path62"
         d="m 99,503 0,4894 4302,0 0,-4894 -4302,0 z"
         inkscape:connector-curvature="0" /></clipPath><clipPath
       id="clipPath214"
       clipPathUnits="userSpaceOnUse"><path
         id="path216"
         d="m 99,503 0,4894 4302,0 0,-4894 -4302,0 z"
         inkscape:connector-curvature="0" /></clipPath><clipPath
       id="clipPath368"
       clipPathUnits="userSpaceOnUse"><path
         id="path370"
         d="m 99,503 0,4894 4302,0 0,-4894 -4302,0 z"
         inkscape:connector-curvature="0" /></clipPath><clipPath
       id="clipPath594"
       clipPathUnits="userSpaceOnUse"><path
         id="path596"
         d="m 99,503 0,4894 4302,0 0,-4894 -4302,0 z"
         inkscape:connector-curvature="0" /></clipPath><clipPath
       id="clipPath748"
       clipPathUnits="userSpaceOnUse"><path
         id="path750"
         d="m 99,503 0,4894 4302,0 0,-4894 -4302,0 z"
         inkscape:connector-curvature="0" /></clipPath></defs><path
     id="path36"
     style="fill:none;stroke:#231f20;stroke-width:0.625;stroke-linecap:butt;stroke-linejoin:miter;stroke-miterlimit:4;stroke-dasharray:none;stroke-opacity:1"
     d="m 403.03388,29.323751 0,-17.86625 m 100.4375,17.86625 0,-17.86625 m -100.4375,8.9325 100.4375,0"
     inkscape:connector-curvature="0" /><text
     style="font-variant:normal;font-weight:normal;font-size:7.5px;font-family:Helvetica;-inkscape-font-specification:Helvetica;writing-mode:lr-tb;fill:#00adef;fill-opacity:1;fill-rule:nonzero;stroke:none"
     id="text40"
     x="439.70889"
     y="32.782501"><tspan
       x="439.70889 445.95639 450.1264 456.3739 460.54388 463.04138"
       y="32.782501"
       id="tspan42">Memory</tspan></text>
<text
     style="font-variant:normal;font-weight:normal;font-size:7.5px;font-family:Helvetica;-inkscape-font-specification:Helvetica;writing-mode:lr-tb;fill:#000000;fill-opacity:1;fill-rule:nonzero;stroke:none"
     id="text46"
     x="448.66763"
     y="13.4675"><tspan
       x="448.66763 450.75262"
       y="13.4675"
       id="tspan48">Iw</tspan></text>
<path
     id="path72"
     style="fill:#a6e2f9;fill-opacity:1;fill-rule:nonzero;stroke:none"
     d="m 400.91762,266.5325 7.01904,0 0,-210.932499 -7.01904,0 0,210.932499 z"
     inkscape:connector-curvature="0" /><path
     id="path74"
     style="fill:#a6e2f9;fill-opacity:1;fill-rule:nonzero;stroke:none"
     d="m 497.18763,266.81 7.02149,0 0,-210.933749 -7.02149,0 0,210.933749 z"
     inkscape:connector-curvature="0" /><path
     id="path78"
     style="fill:#a6e2f9;fill-opacity:1;fill-rule:nonzero;stroke:none"
     d="m 456.03512,221.20875 31.3735,0 0,-63.9575 -31.3735,0 0,63.9575 z"
     inkscape:connector-curvature="0" /><path
     id="path80"
     style="fill:none;stroke:#231f20;stroke-width:0.625;stroke-linecap:butt;stroke-linejoin:miter;stroke-miterlimit:4;stroke-dasharray:none;stroke-opacity:1"
     d="m 101.23976,64.856251 21.38662,12.8575 0,13.40375 -21.2045,12.858749 0,-15.938749 3.60938,-3.8025 -3.7915,-3.80375 0,-15.575 z"
     inkscape:connector-curvature="0" /><text
     style="font-variant:normal;font-weight:normal;font-size:5px;font-family:Helvetica;-inkscape-font-specification:Helvetica;writing-mode:lr-tb;fill:#000000;fill-opacity:1;fill-rule:nonzero;stroke:none"
     id="text84"
     x="105.97862"
     y="86.072502"><tspan
       x="105.97862 109.31362 112.09191"
       y="86.072502"
       id="tspan86">Add</tspan><tspan
       x="76.13237 79.467377 82.247375 85.027885 86.692352 89.472504 91.972221"
       y="144.31812"
       id="tspan88">Address</tspan></text>
<text
     style="font-variant:normal;font-weight:bold;font-size:5px;font-family:Helvetica;-inkscape-font-specification:Helvetica-Bold;writing-mode:lr-tb;fill:#000000;fill-opacity:1;fill-rule:nonzero;stroke:none"
     id="text90"
     x="93.252502"
     y="169.18436"><tspan
       x="93.252502 94.642502 97.697502 100.4775 102.1425 104.0875 107.1425 109.9225 111.5875 112.9775 116.0325"
       y="169.18436"
       id="tspan92">Instruction</tspan><tspan
       x="96.444885 100.88988 103.66988 108.11488 111.16988 113.11488"
       y="175.18436"
       id="tspan94">memory</tspan></text>
<path
     id="path96"
     style="fill:none;stroke:#231f20;stroke-width:0.625;stroke-linecap:butt;stroke-linejoin:miter;stroke-miterlimit:4;stroke-dasharray:none;stroke-opacity:1"
     d="m 137.54263,202.58875 -62.744255,0 0,-63.955 62.744255,0 0,63.955 z m 124.5775,-0.17875 -62.7425,0 0,-63.9575 62.7425,0 0,63.9575 z"
     inkscape:connector-curvature="0" /><text
     style="font-variant:normal;font-weight:normal;font-size:5px;font-family:Helvetica;-inkscape-font-specification:Helvetica;writing-mode:lr-tb;fill:#000000;fill-opacity:1;fill-rule:nonzero;stroke:none"
     id="text100"
     x="201.20387"
     y="144.96625"><tspan
       x="201.20387 204.81357 207.59326 210.37428"
       y="144.96625"
       id="tspan102">Read</tspan><tspan
       x="201.20387 202.86888 205.64888 208.42888 209.53888 212.03888 213.42888 216.20888 217.87387 219.25905"
       y="150.96625"
       id="tspan104">register 1</tspan></text>
<text
     transform="matrix(0,-1,1,0,0,0)"
     style="font-variant:normal;font-weight:normal;font-size:5px;font-family:Helvetica;-inkscape-font-specification:Helvetica;writing-mode:lr-tb;fill:#000000;fill-opacity:1;fill-rule:nonzero;stroke:none"
     id="text106"
     x="-159.98874"
     y="180.61888"><tspan
       x="-159.98874 -158.59874 -155.81874 -153.31874 -151.92874 -150.26491 -147.48491 -144.98491 -143.59491 -142.48564 -139.70686"
       y="180.61888"
       id="tspan108">Instruction</tspan></text>
<text
     style="font-variant:normal;font-weight:normal;font-size:5px;font-family:Helvetica;-inkscape-font-specification:Helvetica;writing-mode:lr-tb;fill:#000000;fill-opacity:1;fill-rule:nonzero;stroke:none"
     id="text110"
     x="201.20387"
     y="161.345"><tspan
       x="201.20387 204.81357 207.59326 210.37428"
       y="161.345"
       id="tspan112">Read</tspan><tspan
       x="201.20387 202.86888 205.64888 208.42888 209.53888 212.03888 213.42888 216.20888 217.87387 219.25905"
       y="167.345"
       id="tspan114">register 2</tspan><tspan
       x="201.20387 205.92387 207.58887 208.69887 210.08887"
       y="179.06131"
       id="tspan116">Write</tspan><tspan
       x="201.20387 202.86888 205.64888 208.42888 209.53888 212.03888 213.42888 216.20888"
       y="185.06277"
       id="tspan118">register</tspan><tspan
       x="201.20387 205.92387 207.58887 208.69887 210.08887"
       y="193.43631"
       id="tspan120">Write</tspan><tspan
       x="201.20387 203.98891 206.77394 208.16898"
       y="199.43777"
       id="tspan122">data</tspan><tspan
       x="246.54025 250.14995 252.92964 255.71019"
       y="149.14139"
       id="tspan124">Read</tspan><tspan
       x="246.54025 249.32025 252.10023 253.49025 256.26962 257.65964"
       y="155.14139"
       id="tspan126">data 1</tspan><tspan
       x="246.54025 250.14995 252.92964 255.71019"
       y="174.21127"
       id="tspan128">Read</tspan><tspan
       x="246.54025 249.32025 252.10023 253.49025 256.26962 257.65829"
       y="180.21127"
       id="tspan130">data 2</tspan></text>
<path
     id="path132"
     style="fill:none;stroke:#231f20;stroke-width:0.625;stroke-linecap:butt;stroke-linejoin:miter;stroke-miterlimit:4;stroke-dasharray:none;stroke-opacity:1"
     d="m 424.70137,221.20875 62.74512,0 0,-63.9575 -62.74512,0 0,63.9575 z"
     inkscape:connector-curvature="0" /><text
     style="font-variant:normal;font-weight:bold;font-size:5px;font-family:Helvetica;-inkscape-font-specification:Helvetica-Bold;writing-mode:lr-tb;fill:#000000;fill-opacity:1;fill-rule:nonzero;stroke:none"
     id="text136"
     x="219.35512"
     y="172.27374"><tspan
       x="219.35512 222.96481 225.74451 228.79921 230.19008 232.97009 234.63509 237.41508 239.36009"
       y="172.27374"
       id="tspan138">Registers</tspan></text>
<text
     style="font-variant:normal;font-weight:normal;font-size:5px;font-family:Helvetica;-inkscape-font-specification:Helvetica;writing-mode:lr-tb;fill:#000000;fill-opacity:1;fill-rule:nonzero;stroke:none"
     id="text140"
     x="428.24384"
     y="174.89386"><tspan
       x="428.24384 431.57886 434.35886 437.13889 438.80334 441.58347 444.0842"
       y="174.89386"
       id="tspan142">Address</tspan><tspan
       x="428.2438 432.96381 434.62881 435.7388 437.12729"
       y="212.0486"
       id="tspan144">Write</tspan><tspan
       x="428.2438 431.0238 433.8038 435.19382"
       y="218.0486"
       id="tspan146">data</tspan><tspan
       x="471.77405 475.38376 478.16345 480.944"
       y="170.76248"
       id="tspan148">Read</tspan><tspan
       x="472.88538 475.66537 478.44537 479.83539"
       y="176.76151"
       id="tspan150">data</tspan></text>
<text
     style="font-variant:normal;font-weight:bold;font-size:5px;font-family:Helvetica;-inkscape-font-specification:Helvetica-Bold;writing-mode:lr-tb;fill:#000000;fill-opacity:1;fill-rule:nonzero;stroke:none"
     id="text152"
     x="450.6539"
     y="187.80154"><tspan
       x="450.6539 454.26358 457.04404 458.70901"
       y="187.80154"
       id="tspan154">Data</tspan><tspan
       x="446.34628 450.79129 453.57129 458.01627 461.07129 463.01627"
       y="193.80154"
       id="tspan156">memory</tspan></text>
<path
     id="path158"
     style="fill:none;stroke:#231f20;stroke-width:0.625;stroke-linecap:butt;stroke-linejoin:miter;stroke-miterlimit:4;stroke-dasharray:none;stroke-opacity:1"
     d="m 333.57887,78.416251 27.4025,12.86125 0,15.406249 -27.2225,10.855 0,-15.94 2.6075,-3.803749 -2.7875,-3.80125 0,-15.5775 z"
     inkscape:connector-curvature="0" /><text
     style="font-variant:normal;font-weight:bold;font-size:5px;font-family:Helvetica;-inkscape-font-specification:Helvetica-Bold;writing-mode:lr-tb;fill:#000000;fill-opacity:1;fill-rule:nonzero;stroke:none"
     id="text162"
     x="337.06265"
     y="99.603752"><tspan
       x="337.06265 340.67233 343.72672"
       y="99.603752"
       id="tspan164">Add</tspan></text>
<text
     style="font-variant:normal;font-weight:normal;font-size:5px;font-family:Helvetica;-inkscape-font-specification:Helvetica;writing-mode:lr-tb;fill:#000000;fill-opacity:1;fill-rule:nonzero;stroke:none"
     id="text166"
     x="350.84534"
     y="97.187737"><tspan
       x="350.84534 354.18036 356.96036"
       y="97.187737"
       id="tspan168">Add</tspan><tspan
       x="347.51526 349.18027 351.96027 354.46027 357.24026 358.35028"
       y="103.18774"
       id="tspan170">result</tspan></text>
<path
     id="path172"
     style="fill:none;stroke:#231f20;stroke-width:0.625;stroke-linecap:butt;stroke-linejoin:miter;stroke-miterlimit:4;stroke-dasharray:none;stroke-opacity:1"
     d="m 344.73887,143.23625 32.83126,15.40625 0,18.46125 -32.61501,13.005 0,-19.09625 3.12125,-4.55625 -3.3375,-4.55875 0,-18.66125 z"
     inkscape:connector-curvature="0" /><text
     style="font-variant:normal;font-weight:bold;font-size:5px;font-family:Helvetica;-inkscape-font-specification:Helvetica-Bold;writing-mode:lr-tb;fill:#000000;fill-opacity:1;fill-rule:nonzero;stroke:none"
     id="text176"
     x="348.97263"
     y="168.41374"><tspan
       x="348.97263 352.58234 355.6362"
       y="168.41374"
       id="tspan178">ALU</tspan></text>
<text
     style="font-variant:normal;font-weight:normal;font-size:5px;font-family:Helvetica;-inkscape-font-specification:Helvetica;writing-mode:lr-tb;fill:#000000;fill-opacity:1;fill-rule:nonzero;stroke:none"
     id="text180"
     x="365.61618"
     y="170.86736"><tspan
       x="365.61618 368.9512 371.7312"
       y="170.86736"
       id="tspan182">ALU</tspan><tspan
       x="363.11618 364.78119 367.56119 370.06119 372.84119 373.9512"
       y="176.86638"
       id="tspan184">result</tspan></text>
<path
     id="path186"
     style="fill:none;stroke:#231f20;stroke-width:0.625;stroke-linecap:butt;stroke-linejoin:miter;stroke-miterlimit:4;stroke-dasharray:none;stroke-opacity:1"
     d="m 317.70762,108.4175 c 0,8.77 -4.20249,15.87625 -9.38749,15.87625 -5.18375,0 -9.385,-7.10625 -9.385,-15.87625 0,-8.768749 4.20125,-15.876249 9.385,-15.876249 5.185,0 9.38749,7.1075 9.38749,15.876249 z"
     inkscape:connector-curvature="0" /><text
     style="font-variant:normal;font-weight:normal;font-size:5px;font-family:Helvetica;-inkscape-font-specification:Helvetica;writing-mode:lr-tb;fill:#000000;fill-opacity:1;fill-rule:nonzero;stroke:none"
     id="text190"
     x="365.0614"
     y="162.31999"><tspan
       x="365.0614 368.11639 370.89639 372.5614"
       y="162.31999"
       id="tspan192">Zero</tspan></text>
<text
     style="font-variant:normal;font-weight:bold;font-size:5px;font-family:Helvetica;-inkscape-font-specification:Helvetica-Bold;writing-mode:lr-tb;fill:#000000;fill-opacity:1;fill-rule:nonzero;stroke:none"
     id="text194"
     x="302.48477"
     y="106.63838"><tspan
       x="302.48477 305.81976 308.87476 310.26477 311.92975"
       y="106.63838"
       id="tspan196">Shift</tspan><tspan
       x="302.48477 303.87476 306.65475 308.31976 309.98477 311.37476"
       y="112.63838"
       id="tspan198">left 2</tspan></text>
<path
     id="path200"
     style="fill:none;stroke:#231f20;stroke-width:0.625;stroke-linecap:butt;stroke-linejoin:miter;stroke-miterlimit:4;stroke-dasharray:none;stroke-opacity:1"
     d="m 261.64762,233.355 c 0,10.5575 -5.44375,19.11125 -12.16,19.11125 -6.7175,0 -12.16124,-8.55375 -12.16124,-19.11125 0,-10.55125 5.44374,-19.10875 12.16124,-19.10875 6.71625,0 12.16,8.5575 12.16,19.10875 z"
     inkscape:connector-curvature="0" /><text
     style="font-variant:normal;font-weight:bold;font-size:5px;font-family:Helvetica;-inkscape-font-specification:Helvetica-Bold;writing-mode:lr-tb;fill:#000000;fill-opacity:1;fill-rule:nonzero;stroke:none"
     id="text204"
     x="243.23512"
     y="231.64499"><tspan
       x="243.23512 246.57013 247.96013 251.01512 254.07011"
       y="231.64499"
       id="tspan206">Sign-</tspan><tspan
       x="241.42799 244.20799 246.98807 248.65253 251.43269 254.48805"
       y="237.64499"
       id="tspan208">extend</tspan></text>
<path
     id="path218"
     style="fill:none;stroke:#231f20;stroke-width:0.625;stroke-linecap:butt;stroke-linejoin:miter;stroke-miterlimit:4;stroke-dasharray:none;stroke-opacity:1"
     d="m 175.61137,266.5325 -14.03999,0 0,-210.931249 14.03999,0 0,210.931249 z m 121.34375,0 -14.04,0 0,-210.931249 14.04,0 0,210.931249 z m 110.98125,0 -14.04,0 0,-210.932499 14.04,0 0,210.932499 z m 103.29375,0 -14.04,0 0,-210.932499 14.04,0 0,210.932499 z M 57.545,158.33375 l -12.536625,0 0,-29.585 12.536625,0 0,29.585 z"
     inkscape:connector-curvature="0" /><path
     id="path220"
     style="fill:none;stroke:#231f20;stroke-width:0.9375;stroke-linecap:butt;stroke-linejoin:miter;stroke-miterlimit:4;stroke-dasharray:none;stroke-opacity:1"
     d="m 538.93262,185.21875 5.72501,0 0,93.6 -358.35001,0 0,-84.24 8.215,0"
     inkscape:connector-curvature="0" /><path
     id="path222"
     style="fill:#231f20;fill-opacity:1;fill-rule:nonzero;stroke:none"
     d="m 196.18387,193.85875 c -1.1625,-0.3525 -1.9175,-0.675 -2.84875,-1.05 l 0,3.5475 c 0.33251,-0.15875 1.68625,-0.69875 2.84875,-1.04875 1.245,-0.37625 2.3725,-0.63375 3.105,-0.725 -0.7325,-0.0913 -1.86,-0.34875 -3.105,-0.72375"
     inkscape:connector-curvature="0" /><path
     id="path224"
     style="fill:none;stroke:#231f20;stroke-width:0.9375;stroke-linecap:butt;stroke-linejoin:miter;stroke-miterlimit:4;stroke-dasharray:none;stroke-opacity:1"
     d="m 487.16262,172.18375 6.01625,0"
     inkscape:connector-curvature="0" /><path
     id="path226"
     style="fill:#231f20;fill-opacity:1;fill-rule:nonzero;stroke:none"
     d="m 494.02512,171.46375 c -1.16375,-0.3525 -1.91874,-0.675 -2.85125,-1.05 l 0,3.5475 c 0.335,-0.15875 1.6875,-0.69875 2.85125,-1.04875 1.2425,-0.37625 2.37125,-0.63375 3.10375,-0.725 -0.7325,-0.0913 -1.86125,-0.34875 -3.10375,-0.72375"
     inkscape:connector-curvature="0" /><path
     id="path228"
     style="fill:none;stroke:#231f20;stroke-width:0.9375;stroke-linecap:butt;stroke-linejoin:miter;stroke-miterlimit:4;stroke-dasharray:none;stroke-opacity:1"
     d="m 194.52262,146.10875 -11.26374,0 0,88.25 49.17875,0"
     inkscape:connector-curvature="0" /><path
     id="path230"
     style="fill:#231f20;fill-opacity:1;fill-rule:nonzero;stroke:none"
     d="m 233.96512,233.63875 c -1.16375,-0.35125 -1.91999,-0.675 -2.8525,-1.05 l 0,3.5475 c 0.33376,-0.15875 1.68875,-0.69875 2.8525,-1.04875 1.24375,-0.37625 2.37125,-0.63375 3.10125,-0.725 -0.73,-0.0913 -1.8575,-0.34875 -3.10125,-0.72375"
     inkscape:connector-curvature="0" /><path
     id="path232"
     style="fill:#231f20;fill-opacity:1;fill-rule:nonzero;stroke:none"
     d="m 196.18387,145.38625 c -1.1625,-0.35 -1.9175,-0.67375 -2.84875,-1.0475 l 0,3.54625 c 0.33251,-0.15875 1.68625,-0.6975 2.84875,-1.0475 1.245,-0.37625 2.3725,-0.63375 3.105,-0.72625 -0.7325,-0.0913 -1.86,-0.34875 -3.105,-0.725"
     inkscape:connector-curvature="0" /><path
     id="path234"
     style="fill:#231f20;fill-opacity:1;fill-rule:nonzero;stroke:none"
     d="m 196.18387,161.76625 c -1.1625,-0.35 -1.9175,-0.67375 -2.84875,-1.0475 l 0,3.54625 c 0.33251,-0.15875 1.68625,-0.69875 2.84875,-1.04875 1.245,-0.37625 2.3725,-0.63375 3.105,-0.725 -0.7325,-0.0913 -1.86,-0.34875 -3.105,-0.725"
     inkscape:connector-curvature="0" /><path
     id="path236"
     style="fill:none;stroke:#231f20;stroke-width:0.9375;stroke-linecap:butt;stroke-linejoin:miter;stroke-miterlimit:4;stroke-dasharray:none;stroke-opacity:1"
     d="m 183.42387,162.4875 11.24251,0"
     inkscape:connector-curvature="0" /><path
     id="path238"
     style="fill:#231f20;fill-opacity:1;fill-rule:nonzero;stroke:none"
     d="m 196.18387,179.39125 c -1.1625,-0.35 -1.9175,-0.67375 -2.84875,-1.0475 l 0,3.54625 c 0.33251,-0.15875 1.68625,-0.69875 2.84875,-1.04875 1.245,-0.37625 2.3725,-0.63375 3.105,-0.725 -0.7325,-0.0913 -1.86,-0.34875 -3.105,-0.725"
     inkscape:connector-curvature="0" /><path
     id="path240"
     style="fill:none;stroke:#231f20;stroke-width:0.9375;stroke-linecap:butt;stroke-linejoin:miter;stroke-miterlimit:4;stroke-dasharray:none;stroke-opacity:1"
     d="m 137.64012,170.61125 19.26626,0 m 26.51749,9.50125 11.24251,0"
     inkscape:connector-curvature="0" /><path
     id="path242"
     style="fill:#231f20;fill-opacity:1;fill-rule:nonzero;stroke:none"
     d="m 158.23762,169.8875 c -1.16499,-0.35125 -1.91999,-0.675 -2.85249,-1.05 l 0,3.5475 c 0.33375,-0.15875 1.6875,-0.69875 2.85249,-1.04875 1.24251,-0.37625 2.37001,-0.63375 3.10125,-0.725 -0.73124,-0.0913 -1.85874,-0.34875 -3.10125,-0.72375"
     inkscape:connector-curvature="0" /><path
     id="path244"
     style="fill:#231f20;fill-opacity:1;fill-rule:nonzero;stroke:none"
     d="m 158.23762,83.862501 c -1.16499,-0.35125 -1.91999,-0.675 -2.85249,-1.05 l 0,3.5475 c 0.33375,-0.15875 1.6875,-0.69875 2.85249,-1.04875 1.24251,-0.375 2.37001,-0.63375 3.10125,-0.725 -0.73124,-0.0913 -1.85874,-0.34875 -3.10125,-0.72375"
     inkscape:connector-curvature="0" /><text
     style="font-variant:normal;font-weight:bold;font-size:5px;font-family:Helvetica;-inkscape-font-specification:Helvetica-Bold;writing-mode:lr-tb;fill:#000000;fill-opacity:1;fill-rule:nonzero;stroke:none"
     id="text248"
     x="47.804749"
     y="144.7825"><tspan
       x="47.804749 51.139748"
       y="144.7825"
       id="tspan250">PC</tspan></text>
<path
     id="path252"
     style="fill:none;stroke:#231f20;stroke-width:0.9375;stroke-linecap:butt;stroke-linejoin:miter;stroke-miterlimit:4;stroke-dasharray:none;stroke-opacity:1"
     d="m 377.51888,172.0875 12.03625,0 m -12.03625,-11.49875 11.795,0"
     inkscape:connector-curvature="0" /><path
     id="path254"
     style="fill:#231f20;fill-opacity:1;fill-rule:nonzero;stroke:none"
     d="m 390.74637,171.3675 c -1.16125,-0.3525 -1.91625,-0.675 -2.85125,-1.05 l 0,3.5475 c 0.335,-0.15875 1.69,-0.69875 2.85125,-1.04875 1.245,-0.37625 2.37375,-0.63375 3.10375,-0.725 -0.73,-0.0925 -1.85875,-0.35 -3.10375,-0.72375"
     inkscape:connector-curvature="0" /><path
     id="path256"
     style="fill:#231f20;fill-opacity:1;fill-rule:nonzero;stroke:none"
     d="m 390.74637,159.85 c -1.16125,-0.3525 -1.91625,-0.675 -2.85125,-1.05 l 0,3.5475 c 0.335,-0.15875 1.69,-0.69875 2.85125,-1.04875 1.245,-0.37625 2.37375,-0.63375 3.10375,-0.725 -0.73,-0.0913 -1.85875,-0.35 -3.10375,-0.72375"
     inkscape:connector-curvature="0" /><path
     id="path258"
     style="fill:none;stroke:#231f20;stroke-width:0.9375;stroke-linecap:butt;stroke-linejoin:miter;stroke-miterlimit:4;stroke-dasharray:none;stroke-opacity:1"
     d="m 407.93637,172.85 12.28501,0"
     inkscape:connector-curvature="0" /><path
     id="path260"
     style="fill:#231f20;fill-opacity:1;fill-rule:nonzero;stroke:none"
     d="m 421.36012,172.13 c -1.1625,-0.35125 -1.9175,-0.675 -2.85,-1.05 l 0,3.5475 c 0.335,-0.15875 1.6875,-0.69875 2.85,-1.04875 1.245,-0.37625 2.3725,-0.63375 3.105,-0.725 -0.7325,-0.0913 -1.86,-0.34875 -3.105,-0.72375"
     inkscape:connector-curvature="0" /><path
     id="path262"
     style="fill:none;stroke:#231f20;stroke-width:0.9375;stroke-linecap:butt;stroke-linejoin:miter;stroke-miterlimit:4;stroke-dasharray:none;stroke-opacity:1"
     d="m 407.93637,213.465 12.53501,0"
     inkscape:connector-curvature="0" /><path
     id="path264"
     style="fill:#231f20;fill-opacity:1;fill-rule:nonzero;stroke:none"
     d="m 421.61137,212.745 c -1.1625,-0.35125 -1.91874,-0.675 -2.85,-1.05 l 0,3.5475 c 0.335,-0.15875 1.6875,-0.6975 2.85,-1.04875 1.24501,-0.375 2.3725,-0.63375 3.10501,-0.725 -0.73251,-0.0913 -1.86,-0.34875 -3.10501,-0.72375"
     inkscape:connector-curvature="0" /><path
     id="path266"
     style="fill:none;stroke:#231f20;stroke-width:0.9375;stroke-linecap:butt;stroke-linejoin:miter;stroke-miterlimit:4;stroke-dasharray:none;stroke-opacity:1"
     d="m 413.20013,172.85 0,56.66 79.97874,0"
     inkscape:connector-curvature="0" /><path
     id="path268"
     style="fill:#231f20;fill-opacity:1;fill-rule:nonzero;stroke:none"
     d="m 493.89388,228.79 c -1.1625,-0.35125 -1.91875,-0.675 -2.85125,-1.05 l 0,3.5475 c 0.33625,-0.15875 1.68875,-0.69875 2.85125,-1.04875 1.245,-0.37625 2.3725,-0.63375 3.105,-0.725 -0.7325,-0.0913 -1.86,-0.34875 -3.105,-0.72375"
     inkscape:connector-curvature="0" /><path
     id="path270"
     style="fill:none;stroke:#231f20;stroke-width:0.9375;stroke-linecap:butt;stroke-linejoin:miter;stroke-miterlimit:4;stroke-dasharray:none;stroke-opacity:1"
     d="m 511.48138,172.85 10.27875,0"
     inkscape:connector-curvature="0" /><path
     id="path272"
     style="fill:#231f20;fill-opacity:1;fill-rule:nonzero;stroke:none"
     d="m 522.99013,172.13 c -1.16126,-0.35125 -1.91625,-0.675 -2.85126,-1.05 l 0,3.5475 c 0.335,-0.15875 1.69,-0.69875 2.85126,-1.04875 1.24499,-0.37625 2.37374,-0.63375 3.10375,-0.725 -0.73001,-0.0913 -1.85876,-0.34875 -3.10375,-0.72375"
     inkscape:connector-curvature="0" /><path
     id="path274"
     style="fill:none;stroke:#231f20;stroke-width:0.9375;stroke-linecap:butt;stroke-linejoin:miter;stroke-miterlimit:4;stroke-dasharray:none;stroke-opacity:1"
     d="m 511.23012,229.76125 6.51875,0 0,-34.09625 5.76625,0"
     inkscape:connector-curvature="0" /><path
     id="path276"
     style="fill:#231f20;fill-opacity:1;fill-rule:nonzero;stroke:none"
     d="m 523.35887,194.945 c -1.16375,-0.35125 -1.91875,-0.675 -2.85125,-1.05 l 0,3.5475 c 0.335,-0.15875 1.6875,-0.69875 2.85125,-1.04875 1.24501,-0.37625 2.37126,-0.63375 3.10375,-0.725 -0.73249,-0.0913 -1.85874,-0.34875 -3.10375,-0.72375"
     inkscape:connector-curvature="0" /><path
     id="path278"
     style="fill:none;stroke:#231f20;stroke-width:0.9375;stroke-linecap:butt;stroke-linejoin:miter;stroke-miterlimit:4;stroke-dasharray:none;stroke-opacity:1"
     d="m 408.18513,160.06375 6.26999,0"
     inkscape:connector-curvature="0" /><path
     id="path280"
     style="fill:#231f20;fill-opacity:1;fill-rule:nonzero;stroke:none"
     d="m 416.07887,159.35875 c -1.1375,-0.34375 -1.875,-0.66 -2.78625,-1.025 l 0,3.4675 c 0.325,-0.155 1.64875,-0.6825 2.78625,-1.025 1.21625,-0.36875 2.31875,-0.62 3.035,-0.70875 -0.71625,-0.09 -1.81875,-0.34125 -3.035,-0.70875"
     inkscape:connector-curvature="0" /><path
     id="path282"
     style="fill:none;stroke:#231f20;stroke-width:0.9375;stroke-linecap:butt;stroke-linejoin:miter;stroke-miterlimit:4;stroke-dasharray:none;stroke-opacity:1"
     d="m 331.05137,186.47375 9.6925,0"
     inkscape:connector-curvature="0" /><path
     id="path284"
     style="fill:#231f20;fill-opacity:1;fill-rule:nonzero;stroke:none"
     d="m 341.73512,185.7525 c -1.16375,-0.35125 -1.91875,-0.675 -2.85125,-1.04875 l 0,3.54625 c 0.335,-0.15875 1.6875,-0.6975 2.85125,-1.0475 1.245,-0.37625 2.37125,-0.63375 3.10375,-0.72625 -0.73249,-0.0913 -1.85875,-0.34875 -3.10375,-0.72375"
     inkscape:connector-curvature="0" /><path
     id="path286"
     style="fill:none;stroke:#231f20;stroke-width:0.9375;stroke-linecap:butt;stroke-linejoin:miter;stroke-miterlimit:4;stroke-dasharray:none;stroke-opacity:1"
     d="m 296.87013,150.035 43.625,0"
     inkscape:connector-curvature="0" /><path
     id="path288"
     style="fill:#231f20;fill-opacity:1;fill-rule:nonzero;stroke:none"
     d="m 341.47138,149.315 c -1.16375,-0.35125 -1.91875,-0.67375 -2.85125,-1.04875 l 0,3.54625 c 0.33499,-0.15875 1.6875,-0.6975 2.85125,-1.0475 1.24374,-0.37625 2.37124,-0.635 3.10375,-0.725 -0.73251,-0.0925 -1.86001,-0.34875 -3.10375,-0.725"
     inkscape:connector-curvature="0" /><path
     id="path290"
     style="fill:none;stroke:#231f20;stroke-width:0.9375;stroke-linecap:butt;stroke-linejoin:miter;stroke-miterlimit:4;stroke-dasharray:none;stroke-opacity:1"
     d="m 296.87013,175.60875 16.96499,0 m -5.51499,-51.315 0,108.7275 -11.69876,0"
     inkscape:connector-curvature="0" /><path
     id="path292"
     style="fill:#231f20;fill-opacity:1;fill-rule:nonzero;stroke:none"
     d="m 314.89262,174.88875 c -1.1625,-0.35125 -1.91624,-0.675 -2.85,-1.05 l 0,3.5475 c 0.335,-0.15875 1.6875,-0.69875 2.85,-1.04875 1.24501,-0.37625 2.375,-0.63375 3.10501,-0.725 -0.73001,-0.0913 -1.86,-0.34875 -3.10501,-0.72375"
     inkscape:connector-curvature="0" /><path
     id="path294"
     style="fill:none;stroke:#231f20;stroke-width:0.9375;stroke-linecap:butt;stroke-linejoin:miter;stroke-miterlimit:4;stroke-dasharray:none;stroke-opacity:1"
     d="m 308.65388,198.1725 5.26625,0"
     inkscape:connector-curvature="0" /><path
     id="path296"
     style="fill:#231f20;fill-opacity:1;fill-rule:nonzero;stroke:none"
     d="m 315.11012,197.4525 c -1.1625,-0.3525 -1.9175,-0.675 -2.85,-1.05 l 0,3.5475 c 0.335,-0.15875 1.6875,-0.69875 2.85,-1.04875 1.245,-0.37625 2.3725,-0.63375 3.105,-0.725 -0.7325,-0.0913 -1.86,-0.34875 -3.105,-0.72375"
     inkscape:connector-curvature="0" /><path
     id="path298"
     style="fill:none;stroke:#231f20;stroke-width:0.9375;stroke-linecap:butt;stroke-linejoin:miter;stroke-miterlimit:4;stroke-dasharray:none;stroke-opacity:1"
     d="m 302.38763,175.60875 0,38.1075 87.24874,0"
     inkscape:connector-curvature="0" /><path
     id="path300"
     style="fill:#231f20;fill-opacity:1;fill-rule:nonzero;stroke:none"
     d="m 390.58512,212.99625 c -1.16125,-0.35125 -1.91624,-0.675 -2.84875,-1.05 l 0,3.5475 c 0.3325,-0.15875 1.6875,-0.6975 2.84875,-1.04875 1.245,-0.375 2.37375,-0.6325 3.10375,-0.725 -0.73,-0.0913 -1.85875,-0.34875 -3.10375,-0.72375"
     inkscape:connector-curvature="0" /><path
     id="path302"
     style="fill:none;stroke:#231f20;stroke-width:0.9375;stroke-linecap:butt;stroke-linejoin:miter;stroke-miterlimit:4;stroke-dasharray:none;stroke-opacity:1"
     d="m 317.68013,109.67 11.7825,0"
     inkscape:connector-curvature="0" /><path
     id="path304"
     style="fill:#231f20;fill-opacity:1;fill-rule:nonzero;stroke:none"
     d="m 330.61263,108.95 c -1.1625,-0.35125 -1.91875,-0.675 -2.85125,-1.04875 l 0,3.54625 c 0.33625,-0.15875 1.68875,-0.6975 2.85125,-1.0475 1.245,-0.37625 2.3725,-0.63375 3.105,-0.725 -0.7325,-0.0925 -1.86,-0.35 -3.105,-0.725"
     inkscape:connector-curvature="0" /><path
     id="path306"
     style="fill:none;stroke:#231f20;stroke-width:0.9375;stroke-linecap:butt;stroke-linejoin:miter;stroke-miterlimit:4;stroke-dasharray:none;stroke-opacity:1"
     d="m 361.30387,98.890001 28.8325,0"
     inkscape:connector-curvature="0" /><path
     id="path308"
     style="fill:#231f20;fill-opacity:1;fill-rule:nonzero;stroke:none"
     d="m 390.63013,98.168751 c -1.16251,-0.35125 -1.91751,-0.67375 -2.85001,-1.0475 l 0,3.544999 c 0.335,-0.1575 1.6875,-0.696249 2.85001,-1.047499 1.245,-0.37625 2.3725,-0.63375 3.105,-0.725 -0.7325,-0.0925 -1.86,-0.34875 -3.105,-0.725"
     inkscape:connector-curvature="0" /><path
     id="path310"
     style="fill:none;stroke:#231f20;stroke-width:0.9375;stroke-linecap:butt;stroke-linejoin:miter;stroke-miterlimit:4;stroke-dasharray:none;stroke-opacity:1"
     d="m 296.87013,85.100001 32.34125,0"
     inkscape:connector-curvature="0" /><path
     id="path312"
     style="fill:#231f20;fill-opacity:1;fill-rule:nonzero;stroke:none"
     d="m 330.36137,84.380001 c -1.1625,-0.35125 -1.91874,-0.675 -2.85,-1.05 l 0,3.5475 c 0.335,-0.15875 1.6875,-0.6975 2.85,-1.04875 1.24501,-0.375 2.3725,-0.63375 3.10501,-0.725 -0.73251,-0.0913 -1.86,-0.34875 -3.10501,-0.72375"
     inkscape:connector-curvature="0" /><path
     id="path314"
     style="fill:none;stroke:#231f20;stroke-width:0.9375;stroke-linecap:butt;stroke-linejoin:miter;stroke-miterlimit:4;stroke-dasharray:none;stroke-opacity:1"
     d="m 262.27262,150.28625 15.5925,0"
     inkscape:connector-curvature="0" /><path
     id="path316"
     style="fill:#231f20;fill-opacity:1;fill-rule:nonzero;stroke:none"
     d="m 279.52638,149.565 c -1.16125,-0.35 -1.91875,-0.675 -2.85125,-1.04875 l 0,3.5475 c 0.335,-0.15875 1.69,-0.6975 2.85125,-1.05 1.2425,-0.375 2.3725,-0.6325 3.1025,-0.725 -0.73,-0.09 -1.86,-0.3475 -3.1025,-0.72375"
     inkscape:connector-curvature="0" /><path
     id="path318"
     style="fill:none;stroke:#231f20;stroke-width:0.9375;stroke-linecap:butt;stroke-linejoin:miter;stroke-miterlimit:4;stroke-dasharray:none;stroke-opacity:1"
     d="m 262.02138,175.35875 15.84375,0"
     inkscape:connector-curvature="0" /><path
     id="path320"
     style="fill:#231f20;fill-opacity:1;fill-rule:nonzero;stroke:none"
     d="m 279.52638,174.63875 c -1.16125,-0.3525 -1.91875,-0.675 -2.85125,-1.05 l 0,3.5475 c 0.335,-0.15875 1.69,-0.69875 2.85125,-1.04875 1.2425,-0.37625 2.3725,-0.63375 3.1025,-0.725 -0.73,-0.0913 -1.86,-0.34875 -3.1025,-0.72375"
     inkscape:connector-curvature="0" /><path
     id="path322"
     style="fill:none;stroke:#231f20;stroke-width:0.9375;stroke-linecap:butt;stroke-linejoin:miter;stroke-miterlimit:4;stroke-dasharray:none;stroke-opacity:1"
     d="m 175.77762,84.598751 102.0875,0"
     inkscape:connector-curvature="0" /><path
     id="path324"
     style="fill:#231f20;fill-opacity:1;fill-rule:nonzero;stroke:none"
     d="m 279.52638,83.877501 c -1.16125,-0.35 -1.91875,-0.67375 -2.85125,-1.04875 l 0,3.5475 c 0.335,-0.15875 1.69,-0.69875 2.85125,-1.04875 1.2425,-0.37625 2.3725,-0.63375 3.1025,-0.725 -0.73,-0.0913 -1.86,-0.34875 -3.1025,-0.725"
     inkscape:connector-curvature="0" /><path
     id="path326"
     style="fill:none;stroke:#231f20;stroke-width:0.9375;stroke-linecap:butt;stroke-linejoin:miter;stroke-miterlimit:4;stroke-dasharray:none;stroke-opacity:1"
     d="m 87.025,98.137501 10.029255,0 m 26.073375,-13.53875 34.59749,0"
     inkscape:connector-curvature="0" /><path
     id="path328"
     style="fill:#231f20;fill-opacity:1;fill-rule:nonzero;stroke:none"
     d="m 98.024495,97.416251 c -1.16312,-0.35 -1.9175,-0.67375 -2.85012,-1.04875 l 0,3.5475 c 0.333,-0.15875 1.687,-0.69875 2.85012,-1.04875 1.24413,-0.37625 2.372005,-0.63375 3.104505,-0.725 -0.7325,-0.0912 -1.860375,-0.34875 -3.104505,-0.725"
     inkscape:connector-curvature="0" /><path
     id="path330"
     style="fill:none;stroke:#231f20;stroke-width:0.9375;stroke-linecap:butt;stroke-linejoin:miter;stroke-miterlimit:4;stroke-dasharray:none;stroke-opacity:1"
     d="m 57.44,142.765 13.0395,0"
     inkscape:connector-curvature="0" /><path
     id="path332"
     style="fill:#231f20;fill-opacity:1;fill-rule:nonzero;stroke:none"
     d="m 71.38875,142.045 c -1.163125,-0.3525 -1.9175,-0.67375 -2.850125,-1.04875 l 0,3.54625 c 0.3335,-0.15875 1.687,-0.6975 2.850125,-1.0475 1.244125,-0.37625 2.372,-0.635 3.1045,-0.725 -0.7325,-0.0937 -1.860375,-0.35 -3.1045,-0.725"
     inkscape:connector-curvature="0" /><path
     id="path334"
     style="fill:none;stroke:#231f20;stroke-width:0.9375;stroke-linecap:butt;stroke-linejoin:miter;stroke-miterlimit:4;stroke-dasharray:none;stroke-opacity:1"
     d="m 63.458,142.765 0,-69.196249 33.094255,0"
     inkscape:connector-curvature="0" /><path
     id="path336"
     style="fill:#231f20;fill-opacity:1;fill-rule:nonzero;stroke:none"
     d="m 97.845245,72.847501 c -1.16212,-0.35125 -1.91887,-0.675 -2.851495,-1.04875 l 0,3.5475 c 0.334375,-0.15875 1.689375,-0.69875 2.851495,-1.04875 1.24363,-0.37625 2.373015,-0.63375 3.103005,-0.725 -0.73001,-0.09125 -1.859375,-0.34875 -3.103005,-0.725"
     inkscape:connector-curvature="0" /><path
     id="path338"
     style="fill:none;stroke:#231f20;stroke-width:0.9375;stroke-linecap:butt;stroke-linejoin:miter;stroke-miterlimit:4;stroke-dasharray:none;stroke-opacity:1"
     d="m 175.61137,172.5175 5.51626,0"
     inkscape:connector-curvature="0" /><text
     style="font-variant:normal;font-weight:normal;font-size:5px;font-family:Helvetica;-inkscape-font-specification:Helvetica;writing-mode:lr-tb;fill:#000000;fill-opacity:1;fill-rule:nonzero;stroke:none"
     id="text342"
     x="80.828621"
     y="100.14375"><tspan
       x="80.828621"
       y="100.14375"
       id="tspan344">4</tspan><tspan
       x="283.40363 284.79364 288.40363 289.79364 293.12726 163.17212 164.56212 167.61713 169.00713 170.39713 391.05215 394.38715 397.72214 399.11215 403.27713 406.61215"
       y="51.731628"
       id="tspan346">ID/EXIF/IDEX/MEM</tspan></text>
<path
     id="path348"
     style="fill:none;stroke:#231f20;stroke-width:0.9375;stroke-linecap:butt;stroke-linejoin:miter;stroke-miterlimit:4;stroke-dasharray:none;stroke-opacity:1"
     d="m 261.59638,234.46875 16.99374,0"
     inkscape:connector-curvature="0" /><path
     id="path350"
     style="fill:#231f20;fill-opacity:1;fill-rule:nonzero;stroke:none"
     d="m 279.61637,233.74875 c -1.16,-0.35125 -1.9175,-0.675 -2.85,-1.05 l 0,3.5475 c 0.335,-0.15875 1.69,-0.69875 2.85,-1.04875 1.2475,-0.37625 2.375,-0.63375 3.10501,-0.725 -0.73001,-0.0913 -1.85751,-0.34875 -3.10501,-0.72375"
     inkscape:connector-curvature="0" /><path
     id="path352"
     style="fill:none;stroke:#231f20;stroke-width:0.625;stroke-linecap:butt;stroke-linejoin:miter;stroke-miterlimit:4;stroke-dasharray:none;stroke-opacity:1"
     d="m 224.45387,231.5275 2.57375,5.63875 m 41.1875,-6.13 2.575,5.64"
     inkscape:connector-curvature="0" /><text
     style="font-variant:normal;font-weight:normal;font-size:5px;font-family:Helvetica;-inkscape-font-specification:Helvetica;writing-mode:lr-tb;fill:#000000;fill-opacity:1;fill-rule:nonzero;stroke:none"
     id="text356"
     x="220.03763"
     y="229.81125"><tspan
       x="220.03763 222.81763"
       y="229.81125"
       id="tspan358">16</tspan></text>
<path
     id="path360"
     style="fill:none;stroke:#231f20;stroke-width:0.9375;stroke-linecap:butt;stroke-linejoin:miter;stroke-miterlimit:4;stroke-dasharray:none;stroke-opacity:1"
     d="m 36.214375,142.43 4.34575,0"
     inkscape:connector-curvature="0" /><path
     id="path362"
     style="fill:#231f20;fill-opacity:1;fill-rule:nonzero;stroke:none"
     d="m 41.673375,141.71 c -1.162125,-0.35125 -1.918875,-0.67375 -2.8515,-1.04875 l 0,3.54625 c 0.334375,-0.15875 1.689375,-0.6975 2.8515,-1.0475 1.243625,-0.37625 2.373,-0.635 3.103,-0.725 -0.73,-0.0925 -1.859375,-0.34875 -3.103,-0.725"
     inkscape:connector-curvature="0" /><path
     id="path372"
     style="fill:none;stroke:#231f20;stroke-width:0.9375;stroke-linecap:butt;stroke-linejoin:miter;stroke-miterlimit:4;stroke-dasharray:none;stroke-opacity:1"
     d="m 407.93637,99.808751 23.73625,0 0,-67.69125 -423.20387,0 0,122.513749 10.361375,-0.0825"
     inkscape:connector-curvature="0" /><path
     id="path374"
     style="fill:#231f20;fill-opacity:1;fill-rule:nonzero;stroke:none"
     d="m 20.425875,153.81625 c -1.164625,-0.3425 -1.922875,-0.66125 -2.858,-1.0275 l 0.02838,3.5475 c 0.332,-0.16125 1.682125,-0.71125 2.84175,-1.07125 1.24125,-0.38625 2.36825,-0.6525 3.098125,-0.75 -0.732375,-0.085 -1.86275,-0.33375 -3.11025,-0.69875"
     inkscape:connector-curvature="0" /><path
     id="path376"
     style="fill:none;stroke:#231f20;stroke-width:0.9375;stroke-linecap:butt;stroke-linejoin:miter;stroke-miterlimit:4;stroke-dasharray:none;stroke-opacity:1"
     d="m 131.31763,84.598751 0,-43.9575 -118.50163,0 0,90.111249 6.014125,-0.0212"
     inkscape:connector-curvature="0" /><path
     id="path378"
     style="fill:#231f20;fill-opacity:1;fill-rule:nonzero;stroke:none"
     d="m 20.194875,130.00375 c -1.163125,-0.34625 -1.919875,-0.66625 -2.854,-1.0375 l 0.01362,3.5475 c 0.332125,-0.16125 1.684625,-0.705 2.84675,-1.06 1.242625,-0.38125 2.369125,-0.6425 3.1005,-0.73625 -0.732375,-0.0888 -1.86025,-0.3425 -3.106875,-0.71375"
     inkscape:connector-curvature="0" /><path
     id="path380"
     style="fill:#231f20;fill-opacity:1;fill-rule:nonzero;stroke:none"
     d="m 129.19263,84.591251 c 0,1.2075 0.97874,2.1875 2.1875,2.1875 1.20625,0 2.18875,-0.98 2.18875,-2.1875 0,-1.20875 -0.9825,-2.1875 -2.18875,-2.1875 -1.20876,0 -2.1875,0.97875 -2.1875,2.1875"
     inkscape:connector-curvature="0" /><path
     id="path382"
     style="fill:#231f20;fill-opacity:1;fill-rule:nonzero;stroke:none"
     d="m 61.331625,142.75625 c 0,1.2075 0.979,2.1875 2.1875,2.1875 1.2085,0 2.1875,-0.98 2.1875,-2.1875 0,-1.2075 -0.979,-2.1875 -2.1875,-2.1875 -1.2085,0 -2.1875,0.98 -2.1875,2.1875"
     inkscape:connector-curvature="0" /><path
     id="path384"
     style="fill:#231f20;fill-opacity:1;fill-rule:nonzero;stroke:none"
     d="m 180.96512,172.50875 c 0,1.2075 0.9775,2.1875 2.1875,2.1875 1.20501,0 2.1875,-0.98 2.1875,-2.1875 0,-1.20875 -0.98249,-2.1875 -2.1875,-2.1875 -1.21,0 -2.1875,0.97875 -2.1875,2.1875"
     inkscape:connector-curvature="0" /><path
     id="path386"
     style="fill:#231f20;fill-opacity:1;fill-rule:nonzero;stroke:none"
     d="m 181.23637,180.1125 c 0,1.20875 0.98125,2.1875 2.1875,2.1875 1.20751,0 2.1875,-0.97875 2.1875,-2.1875 0,-1.20875 -0.97999,-2.1875 -2.1875,-2.1875 -1.20625,0 -2.1875,0.97875 -2.1875,2.1875"
     inkscape:connector-curvature="0" /><path
     id="path388"
     style="fill:#231f20;fill-opacity:1;fill-rule:nonzero;stroke:none"
     d="m 180.96512,162.355 c 0,1.2075 0.9775,2.1875 2.1875,2.1875 1.20501,0 2.1875,-0.98 2.1875,-2.1875 0,-1.20875 -0.98249,-2.1875 -2.1875,-2.1875 -1.21,0 -2.1875,0.97875 -2.1875,2.1875"
     inkscape:connector-curvature="0" /><path
     id="path390"
     style="fill:#231f20;fill-opacity:1;fill-rule:nonzero;stroke:none"
     d="m 300.09512,175.78875 c 0,1.2075 0.97875,2.1875 2.1875,2.1875 1.20625,0 2.1875,-0.98 2.1875,-2.1875 0,-1.20875 -0.98125,-2.1875 -2.1875,-2.1875 -1.20875,0 -2.1875,0.97875 -2.1875,2.1875"
     inkscape:connector-curvature="0" /><path
     id="path392"
     style="fill:#231f20;fill-opacity:1;fill-rule:nonzero;stroke:none"
     d="m 411.06887,172.90875 c 0,1.2075 0.97875,2.1875 2.1875,2.1875 1.20625,0 2.1875,-0.98 2.1875,-2.1875 0,-1.20875 -0.98125,-2.1875 -2.1875,-2.1875 -1.20875,0 -2.1875,0.97875 -2.1875,2.1875"
     inkscape:connector-curvature="0" /><path
     id="path394"
     style="fill:#231f20;fill-opacity:1;fill-rule:nonzero;stroke:none"
     d="m 306.11012,198.185 c 0,1.2075 0.98,2.1875 2.1875,2.1875 1.20875,0 2.1875,-0.98 2.1875,-2.1875 0,-1.20875 -0.97875,-2.1875 -2.1875,-2.1875 -1.2075,0 -2.1875,0.97875 -2.1875,2.1875"
     inkscape:connector-curvature="0" /><path
     id="path396"
     style="fill:none;stroke:#231f20;stroke-width:0.625;stroke-linecap:butt;stroke-linejoin:miter;stroke-miterlimit:4;stroke-dasharray:none;stroke-opacity:1"
     d="m 36.1275,151.92 c 0,4.1725 -2.837875,7.55625 -6.337875,7.55625 -3.501,0 -6.338875,-3.38375 -6.338875,-7.55625 l 0,-19.30875 c 0,-4.175 2.837875,-7.5575 6.338875,-7.5575 3.5,0 6.337875,3.3825 6.337875,7.5575 l 0,19.30875 z"
     inkscape:connector-curvature="0" /><text
     style="font-variant:normal;font-weight:normal;font-size:5px;font-family:Helvetica;-inkscape-font-specification:Helvetica;writing-mode:lr-tb;fill:#000000;fill-opacity:1;fill-rule:nonzero;stroke:none"
     id="text400"
     x="264.7814"
     y="229.81"><tspan
       x="264.7814 267.5614"
       y="229.81"
       id="tspan402">32</tspan></text>
<path
     id="path404"
     style="fill:none;stroke:#231f20;stroke-width:0.625;stroke-linecap:butt;stroke-linejoin:miter;stroke-miterlimit:4;stroke-dasharray:none;stroke-opacity:1"
     d="m 330.80013,196.46125 c 0,4.175 -2.83875,7.55625 -6.34,7.55625 -3.49875,0 -6.3375,-3.38125 -6.3375,-7.55625 l 0,-19.30875 c 0,-4.17375 2.83875,-7.555 6.3375,-7.555 3.50125,0 6.34,3.38125 6.34,7.555 l 0,19.30875 z"
     inkscape:connector-curvature="0" /><text
     style="font-variant:normal;font-weight:normal;font-size:5px;font-family:Helvetica;-inkscape-font-specification:Helvetica;writing-mode:lr-tb;fill:#000000;fill-opacity:1;fill-rule:nonzero;stroke:none"
     id="text408"
     x="26.939501"
     y="132.5325"><tspan
       x="26.939501"
       y="132.5325"
       id="tspan410">0</tspan></text>
<text
     style="font-variant:normal;font-weight:bold;font-size:5px;font-family:Helvetica;-inkscape-font-specification:Helvetica-Bold;writing-mode:lr-tb;fill:#000000;fill-opacity:1;fill-rule:nonzero;stroke:none"
     id="text412"
     x="28.871626"
     y="138.40114"><tspan
       x="28.871626"
       y="138.40114"
       id="tspan414">M</tspan><tspan
       x="29.426313"
       y="144.40114"
       id="tspan416">u</tspan><tspan
       x="29.564497"
       y="150.40114"
       id="tspan418">x</tspan></text>
<text
     style="font-variant:normal;font-weight:normal;font-size:5px;font-family:Helvetica;-inkscape-font-specification:Helvetica;writing-mode:lr-tb;fill:#000000;fill-opacity:1;fill-rule:nonzero;stroke:none"
     id="text420"
     x="26.939497"
     y="156.34987"><tspan
       x="26.939497"
       y="156.34987"
       id="tspan422">1</tspan></text>
<path
     id="path424"
     style="fill:none;stroke:#231f20;stroke-width:0.625;stroke-linecap:butt;stroke-linejoin:miter;stroke-miterlimit:4;stroke-dasharray:none;stroke-opacity:1"
     d="m 538.88888,193.45375 c 0,4.17375 -2.83751,7.55625 -6.33751,7.55625 -3.49874,0 -6.33874,-3.3825 -6.33874,-7.55625 l 0,-19.30875 c 0,-4.17625 2.84,-7.5575 6.33874,-7.5575 3.5,0 6.33751,3.38125 6.33751,7.5575 l 0,19.30875 z"
     inkscape:connector-curvature="0" /><text
     style="font-variant:normal;font-weight:normal;font-size:5px;font-family:Helvetica;-inkscape-font-specification:Helvetica;writing-mode:lr-tb;fill:#000000;fill-opacity:1;fill-rule:nonzero;stroke:none"
     id="text428"
     x="321.61014"
     y="177.40999"><tspan
       x="321.61014"
       y="177.40999"
       id="tspan430">0</tspan></text>
<text
     style="font-variant:normal;font-weight:bold;font-size:5px;font-family:Helvetica;-inkscape-font-specification:Helvetica-Bold;writing-mode:lr-tb;fill:#000000;fill-opacity:1;fill-rule:nonzero;stroke:none"
     id="text432"
     x="323.34891"
     y="183.16878"><tspan
       x="323.34891"
       y="183.16878"
       id="tspan434">M</tspan><tspan
       x="323.90555"
       y="189.16878"
       id="tspan436">u</tspan><tspan
       x="324.04178"
       y="195.17024"
       id="tspan438">x</tspan></text>
<text
     style="font-variant:normal;font-weight:normal;font-size:5px;font-family:Helvetica;-inkscape-font-specification:'Helvetica, Normal';writing-mode:lr;fill:#000000;fill-opacity:1;fill-rule:nonzero;stroke:none;font-style:normal;font-stretch:normal;text-anchor:start;text-align:start;line-height:125%;"
     id="text440"
     x="321.61014"
     y="199.97395"
     sodipodi:linespacing="125%"><tspan
       sodipodi:role="line"
       id="tspan4539">1</tspan></text>
<text
     style="font-variant:normal;font-weight:bold;font-size:5px;font-family:Helvetica;-inkscape-font-specification:Helvetica-Bold;writing-mode:lr-tb;fill:#000000;fill-opacity:1;fill-rule:nonzero;stroke:none"
     id="text446"
     x="531.18744"
     y="180.2513"><tspan
       x="531.18744"
       y="180.2513"
       id="tspan448">M</tspan><tspan
       x="531.74261"
       y="186.2513"
       id="tspan450">u</tspan><tspan
       x="531.87982"
       y="192.25276"
       id="tspan452">x</tspan></text>
<text
     style="font-style:normal;font-variant:normal;font-weight:normal;font-stretch:normal;font-size:5px;line-height:125%;font-family:Helvetica;-inkscape-font-specification:'Helvetica, Normal';text-align:start;writing-mode:lr-tb;text-anchor:start;fill:#000000;fill-opacity:1;fill-rule:nonzero;stroke:none"
     id="text454"
     x="493.22131"
     y="51.466629"
     sodipodi:linespacing="125%"><tspan
       sodipodi:role="line"
       id="tspan4515"
       x="493.22131"
       y="51.466629">MEM/WB</tspan></text>
<text
     sodipodi:linespacing="125%"
     id="text5583"
     y="226.59372"
     x="24.805517"
     style="font-style:normal;font-weight:normal;font-size:10px;line-height:125%;font-family:sans-serif;text-align:start;letter-spacing:0px;word-spacing:0px;writing-mode:lr-tb;text-anchor:start;opacity:0.93999999;fill:#000000;fill-opacity:1;stroke:none;stroke-width:1px;stroke-linecap:butt;stroke-linejoin:miter;stroke-opacity:1"
     xml:space="preserve"><tspan
       style="font-size:7.5px"
       y="226.59372"
       x="24.805517"
       id="tspan5585"
       sodipodi:role="line">COD 4Ed, Copyright © 2009 </tspan><tspan
       id="tspan5587"
       style="font-size:7.5px"
       y="235.96872"
       x="24.805517"
       sodipodi:role="line">Elsevier, Inc. All rights reserved.</tspan><tspan
       y="245.34372"
       x="24.805517"
       id="tspan5589"
       sodipodi:role="line" /></text>
<text
     sodipodi:linespacing="125%"
     id="text5591"
     y="294.1727"
     x="122.44405"
     style="font-style:normal;font-weight:normal;font-size:10px;line-height:125%;font-family:sans-serif;letter-spacing:0px;word-spacing:0px;fill:#000000;fill-opacity:1;stroke:none;stroke-width:1px;stroke-linecap:butt;stroke-linejoin:miter;stroke-opacity:1"
     xml:space="preserve"><tspan
       y="294.1727"
       x="122.44405"
       id="tspan5593"
       sodipodi:role="line">Simulação, da instrução LW, na quarta etapa do pipelilne.</tspan></text>
<text
     sodipodi:linespacing="125%"
     y="176.45622"
     x="527.91809"
     id="text4529"
     style="font-style:normal;font-variant:normal;font-weight:normal;font-stretch:normal;font-size:5px;line-height:125%;font-family:Helvetica;-inkscape-font-specification:'Helvetica, Normal';text-align:start;writing-mode:lr;text-anchor:start;fill:#000000;fill-opacity:1;fill-rule:nonzero;stroke:none;"><tspan
       sodipodi:role="line"
       id="tspan4541">1</tspan><tspan
       sodipodi:role="line"
       id="tspan4543"></tspan><tspan
       sodipodi:role="line"
       id="tspan4545"></tspan><tspan
       sodipodi:role="line"
       id="tspan4547">0</tspan></text>
</svg>