<?xml version="1.0" encoding="UTF-8" standalone="no"?>
<svg
   xmlns:dc="http://purl.org/dc/elements/1.1/"
   xmlns:cc="http://creativecommons.org/ns#"
   xmlns:rdf="http://www.w3.org/1999/02/22-rdf-syntax-ns#"
   xmlns:svg="http://www.w3.org/2000/svg"
   xmlns="http://www.w3.org/2000/svg"
   xmlns:sodipodi="http://sodipodi.sourceforge.net/DTD/sodipodi-0.dtd"
   xmlns:inkscape="http://www.inkscape.org/namespaces/inkscape"
   viewBox="0 0 553.66137 291.97153"
   height="291.97153"
   width="553.66138"
   xml:space="preserve"
   version="1.1"
   id="svg2"
   inkscape:version="0.91 r13725"
   sodipodi:docname="pipelineVerificacaoLW-3B.svg"><sodipodi:namedview
     pagecolor="#ffffff"
     bordercolor="#666666"
     borderopacity="1"
     objecttolerance="10"
     gridtolerance="10"
     guidetolerance="10"
     inkscape:pageopacity="0"
     inkscape:pageshadow="2"
     inkscape:window-width="1855"
     inkscape:window-height="1056"
     id="namedview420"
     showgrid="false"
     showguides="true"
     inkscape:guide-bbox="true"
     inkscape:zoom="2.0301217"
     inkscape:cx="276.83069"
     inkscape:cy="145.98576"
     inkscape:window-x="1985"
     inkscape:window-y="24"
     inkscape:window-maximized="1"
     inkscape:current-layer="svg2"
     fit-margin-top="8"
     fit-margin-left="8"
     fit-margin-bottom="8"
     fit-margin-right="8" /><metadata
     id="metadata8"><rdf:RDF><cc:Work
         rdf:about=""><dc:format>image/svg+xml</dc:format><dc:type
           rdf:resource="http://purl.org/dc/dcmitype/StillImage" /><dc:title></dc:title></cc:Work></rdf:RDF></metadata><defs
     id="defs6"><clipPath
       id="clipPath60"
       clipPathUnits="userSpaceOnUse"><path
         id="path62"
         d="m 99,503 0,4894 4302,0 0,-4894 -4302,0 z"
         inkscape:connector-curvature="0" /></clipPath><clipPath
       id="clipPath214"
       clipPathUnits="userSpaceOnUse"><path
         id="path216"
         d="m 99,503 0,4894 4302,0 0,-4894 -4302,0 z"
         inkscape:connector-curvature="0" /></clipPath><clipPath
       id="clipPath368"
       clipPathUnits="userSpaceOnUse"><path
         id="path370"
         d="m 99,503 0,4894 4302,0 0,-4894 -4302,0 z"
         inkscape:connector-curvature="0" /></clipPath><clipPath
       id="clipPath594"
       clipPathUnits="userSpaceOnUse"><path
         id="path596"
         d="m 99,503 0,4894 4302,0 0,-4894 -4302,0 z"
         inkscape:connector-curvature="0" /></clipPath><clipPath
       id="clipPath748"
       clipPathUnits="userSpaceOnUse"><path
         id="path750"
         d="m 99,503 0,4894 4302,0 0,-4894 -4302,0 z"
         inkscape:connector-curvature="0" /></clipPath></defs><path
     id="path32"
     style="fill:#a6e2f9;fill-opacity:1;fill-rule:nonzero;stroke:none"
     d="m 199.37763,191.62625 31.37162,0 0,-63.9575 -31.37162,0 0,63.9575 z"
     inkscape:connector-curvature="0" /><path
     id="path34"
     style="fill:#a6e2f9;fill-opacity:1;fill-rule:nonzero;stroke:none"
     d="m 538.88888,182.6725 c 0,4.175 -2.83751,7.55625 -6.33751,7.55625 -3.49874,0 -6.33874,-3.38125 -6.33874,-7.55625 l 0,-19.31 c 0,-4.17375 2.84,-7.55625 6.33874,-7.55625 3.5,0 6.33751,3.3825 6.33751,7.55625 l 0,19.31"
     inkscape:connector-curvature="0" /><text
     style="font-variant:normal;font-weight:normal;font-size:7.5px;font-family:Helvetica;-inkscape-font-specification:Helvetica;writing-mode:lr-tb;fill:#00adef;fill-opacity:1;fill-rule:nonzero;stroke:none"
     id="text52"
     x="505.94138"
     y="32.782501"><tspan
       x="505.94138 512.89404 515.39014 517.05511 519.14014 523.31012 525.80762 529.9776 534.14764 537.89764"
       y="32.782501"
       id="tspan54">Write-back</tspan></text>
<path
     id="path64"
     style="fill:none;stroke:#231f20;stroke-width:0.625;stroke-linecap:butt;stroke-linejoin:miter;stroke-miterlimit:4;stroke-dasharray:none;stroke-opacity:1"
     d="m 501.83762,29.322495 0,-17.86375 m 43.51125,17.86375 0,-17.86375 m -43.51125,8.9325 43.51125,0"
     inkscape:connector-curvature="0" /><text
     style="font-variant:normal;font-weight:normal;font-size:7.5px;font-family:Helvetica;-inkscape-font-specification:Helvetica;writing-mode:lr-tb;fill:#000000;fill-opacity:1;fill-rule:nonzero;stroke:none"
     id="text68"
     x="519.01013"
     y="13.4675"><tspan
       x="519.01013 521.09515"
       y="13.4675"
       id="tspan70">Iw</tspan></text>
<path
     id="path76"
     style="fill:#a6e2f9;fill-opacity:1;fill-rule:nonzero;stroke:none"
     d="m 504.20888,255.75362 7.021,0 0,-210.933755 -7.021,0 0,210.933755 z"
     inkscape:connector-curvature="0" /><path
     id="path460"
     style="fill:none;stroke:#231f20;stroke-width:0.625;stroke-linecap:butt;stroke-linejoin:miter;stroke-miterlimit:4;stroke-dasharray:none;stroke-opacity:1"
     d="m 101.23976,54.074995 21.38662,12.85875 0,13.4025 -21.2045,12.86125 0,-15.94 3.60938,-3.80125 -3.7915,-3.80625 0,-15.575 z"
     inkscape:connector-curvature="0" /><text
     style="font-variant:normal;font-weight:normal;font-size:5px;font-family:Helvetica;-inkscape-font-specification:Helvetica;writing-mode:lr-tb;fill:#000000;fill-opacity:1;fill-rule:nonzero;stroke:none"
     id="text464"
     x="105.97862"
     y="75.290009"><tspan
       x="105.97862 109.31362 112.09191"
       y="75.290009"
       id="tspan466">Add</tspan><tspan
       x="76.13237 79.467377 82.247375 85.027885 86.692352 89.472504 91.972221"
       y="133.53711"
       id="tspan468">Address</tspan></text>
<text
     style="font-variant:normal;font-weight:bold;font-size:5px;font-family:Helvetica;-inkscape-font-specification:Helvetica-Bold;writing-mode:lr-tb;fill:#000000;fill-opacity:1;fill-rule:nonzero;stroke:none"
     id="text470"
     x="93.252502"
     y="158.40237"><tspan
       x="93.252502 94.642502 97.697502 100.4775 102.1425 104.0875 107.1425 109.9225 111.5875 112.9775 116.0325"
       y="158.40237"
       id="tspan472">Instruction</tspan><tspan
       x="96.444885 100.88988 103.66988 108.11488 111.16988 113.11488"
       y="164.40091"
       id="tspan474">memory</tspan></text>
<path
     id="path476"
     style="fill:none;stroke:#231f20;stroke-width:0.625;stroke-linecap:butt;stroke-linejoin:miter;stroke-miterlimit:4;stroke-dasharray:none;stroke-opacity:1"
     d="m 137.54263,191.8075 -62.744255,0 0,-63.955 62.744255,0 0,63.955 z m 124.5775,-0.18125 -62.7425,0 0,-63.9575 62.7425,0 0,63.9575 z m 0,0 -62.7425,0 0,-63.9575 62.7425,0 0,63.9575 z"
     inkscape:connector-curvature="0" /><text
     style="font-variant:normal;font-weight:normal;font-size:5px;font-family:Helvetica;-inkscape-font-specification:Helvetica;writing-mode:lr-tb;fill:#000000;fill-opacity:1;fill-rule:nonzero;stroke:none"
     id="text480"
     x="201.20387"
     y="134.185"><tspan
       x="201.20387 204.81357 207.59326 210.37428"
       y="134.185"
       id="tspan482">Read</tspan><tspan
       x="201.20387 202.86888 205.64888 208.42888 209.53888 212.03888 213.42888 216.20888 217.87387 219.25905"
       y="140.18353"
       id="tspan484">register 1</tspan></text>
<text
     transform="matrix(0,-1,1,0,0,0)"
     style="font-variant:normal;font-weight:normal;font-size:5px;font-family:Helvetica;-inkscape-font-specification:Helvetica;writing-mode:lr-tb;fill:#000000;fill-opacity:1;fill-rule:nonzero;stroke:none"
     id="text486"
     x="-149.20749"
     y="180.61888"><tspan
       x="-149.20749 -147.8175 -145.03751 -142.53751 -141.14749 -139.48248 -136.70248 -134.20248 -132.8125 -131.70248 -128.92249"
       y="180.61888"
       id="tspan488">Instruction</tspan></text>
<text
     style="font-variant:normal;font-weight:normal;font-size:5px;font-family:Helvetica;-inkscape-font-specification:Helvetica;writing-mode:lr-tb;fill:#000000;fill-opacity:1;fill-rule:nonzero;stroke:none"
     id="text490"
     x="201.20387"
     y="150.56375"><tspan
       x="201.20387 204.81357 207.59326 210.37428"
       y="150.56375"
       id="tspan492">Read</tspan><tspan
       x="201.20387 202.86888 205.64888 208.42888 209.53888 212.03888 213.42888 216.20888 217.87387 219.25905"
       y="156.56277"
       id="tspan494">register 2</tspan><tspan
       x="201.20387 205.92387 207.58887 208.69887 210.08887"
       y="168.28006"
       id="tspan496">Write</tspan><tspan
       x="201.20387 202.86888 205.64888 208.42888 209.53888 212.03888 213.42888 216.20888"
       y="174.27908"
       id="tspan498">register</tspan><tspan
       x="201.20387 205.92387 207.58887 208.69887 210.08887"
       y="182.65506"
       id="tspan500">Write</tspan><tspan
       x="201.20387 203.98891 206.77394 208.16898"
       y="188.65408"
       id="tspan502">data</tspan><tspan
       x="246.54025 250.14995 252.92964 255.71019"
       y="138.3587"
       id="tspan504">Read</tspan><tspan
       x="246.54025 249.32025 252.10023 253.49025 256.26962 257.65964"
       y="144.3587"
       id="tspan506">data 1</tspan><tspan
       x="246.54025 250.14995 252.92964 255.71019"
       y="163.42996"
       id="tspan508">Read</tspan><tspan
       x="246.54025 249.32025 252.10023 253.49025 256.26962 257.65829"
       y="169.42899"
       id="tspan510">data 2</tspan></text>
<path
     id="path512"
     style="fill:none;stroke:#231f20;stroke-width:0.625;stroke-linecap:butt;stroke-linejoin:miter;stroke-miterlimit:4;stroke-dasharray:none;stroke-opacity:1"
     d="m 424.70137,210.425 62.74512,0 0,-63.9575 -62.74512,0 0,63.9575 z"
     inkscape:connector-curvature="0" /><text
     style="font-variant:normal;font-weight:bold;font-size:5px;font-family:Helvetica;-inkscape-font-specification:Helvetica-Bold;writing-mode:lr-tb;fill:#000000;fill-opacity:1;fill-rule:nonzero;stroke:none"
     id="text516"
     x="219.35512"
     y="161.49124"><tspan
       x="219.35512 222.96481 225.74451 228.79921 230.19008 232.97009 234.63509 237.41508 239.36009"
       y="161.49124"
       id="tspan518">Registers</tspan></text>
<text
     style="font-variant:normal;font-weight:normal;font-size:5px;font-family:Helvetica;-inkscape-font-specification:Helvetica;writing-mode:lr-tb;fill:#000000;fill-opacity:1;fill-rule:nonzero;stroke:none"
     id="text520"
     x="428.24384"
     y="164.11234"><tspan
       x="428.24384 431.57886 434.35886 437.13889 438.80334 441.58347 444.0842"
       y="164.11234"
       id="tspan522">Address</tspan><tspan
       x="428.2438 432.96381 434.62881 435.7388 437.12729"
       y="201.26706"
       id="tspan524">Write</tspan><tspan
       x="428.2438 431.0238 433.8038 435.19382"
       y="207.26608"
       id="tspan526">data</tspan><tspan
       x="471.77405 475.38376 478.16345 480.944"
       y="159.97998"
       id="tspan528">Read</tspan><tspan
       x="472.88538 475.66537 478.44537 479.83539"
       y="165.97998"
       id="tspan530">data</tspan></text>
<text
     style="font-variant:normal;font-weight:bold;font-size:5px;font-family:Helvetica;-inkscape-font-specification:Helvetica-Bold;writing-mode:lr-tb;fill:#000000;fill-opacity:1;fill-rule:nonzero;stroke:none"
     id="text532"
     x="450.6539"
     y="177.01999"><tspan
       x="450.6539 454.26358 457.04404 458.70901"
       y="177.01999"
       id="tspan534">Data</tspan><tspan
       x="446.34628 450.79129 453.57129 458.01627 461.07129 463.01627"
       y="183.01999"
       id="tspan536">memory</tspan></text>
<path
     id="path538"
     style="fill:none;stroke:#231f20;stroke-width:0.625;stroke-linecap:butt;stroke-linejoin:miter;stroke-miterlimit:4;stroke-dasharray:none;stroke-opacity:1"
     d="m 333.57887,67.634995 27.4025,12.86125 0,15.40875 -27.2225,10.851255 0,-15.937505 2.6075,-3.80375 -2.7875,-3.80375 0,-15.57625 z"
     inkscape:connector-curvature="0" /><text
     style="font-variant:normal;font-weight:bold;font-size:5px;font-family:Helvetica;-inkscape-font-specification:Helvetica-Bold;writing-mode:lr-tb;fill:#000000;fill-opacity:1;fill-rule:nonzero;stroke:none"
     id="text542"
     x="337.06265"
     y="88.822479"><tspan
       x="337.06265 340.67233 343.72672"
       y="88.822479"
       id="tspan544">Add</tspan></text>
<text
     style="font-variant:normal;font-weight:normal;font-size:5px;font-family:Helvetica;-inkscape-font-specification:Helvetica;writing-mode:lr-tb;fill:#000000;fill-opacity:1;fill-rule:nonzero;stroke:none"
     id="text546"
     x="350.84534"
     y="86.404999"><tspan
       x="350.84534 354.18036 356.96036"
       y="86.404999"
       id="tspan548">Add</tspan><tspan
       x="347.51526 349.18027 351.96027 354.46027 357.24026 358.35028"
       y="92.404053"
       id="tspan550">result</tspan></text>
<path
     id="path552"
     style="fill:none;stroke:#231f20;stroke-width:0.625;stroke-linecap:butt;stroke-linejoin:miter;stroke-miterlimit:4;stroke-dasharray:none;stroke-opacity:1"
     d="m 344.73887,132.45375 32.83126,15.40625 0,18.4625 -32.61501,13.00375 0,-19.095 3.12125,-4.55625 -3.3375,-4.5575 0,-18.66375 z"
     inkscape:connector-curvature="0" /><text
     style="font-variant:normal;font-weight:bold;font-size:5px;font-family:Helvetica;-inkscape-font-specification:Helvetica-Bold;writing-mode:lr-tb;fill:#000000;fill-opacity:1;fill-rule:nonzero;stroke:none"
     id="text556"
     x="348.97263"
     y="157.63126"><tspan
       x="348.97263 352.58234 355.6362"
       y="157.63126"
       id="tspan558">ALU</tspan></text>
<text
     style="font-variant:normal;font-weight:normal;font-size:5px;font-family:Helvetica;-inkscape-font-specification:Helvetica;writing-mode:lr-tb;fill:#000000;fill-opacity:1;fill-rule:nonzero;stroke:none"
     id="text560"
     x="365.61618"
     y="160.08536"><tspan
       x="365.61618 368.9512 371.7312"
       y="160.08536"
       id="tspan562">ALU</tspan><tspan
       x="363.11618 364.78119 367.56119 370.06119 372.84119 373.9512"
       y="166.08536"
       id="tspan564">result</tspan></text>
<path
     id="path566"
     style="fill:none;stroke:#231f20;stroke-width:0.625;stroke-linecap:butt;stroke-linejoin:miter;stroke-miterlimit:4;stroke-dasharray:none;stroke-opacity:1"
     d="m 317.70762,97.637495 c 0,8.767505 -4.20249,15.875005 -9.38749,15.875005 -5.18375,0 -9.385,-7.1075 -9.385,-15.875005 0,-8.76875 4.20125,-15.87875 9.385,-15.87875 5.185,0 9.38749,7.11 9.38749,15.87875 z"
     inkscape:connector-curvature="0" /><text
     style="font-variant:normal;font-weight:normal;font-size:5px;font-family:Helvetica;-inkscape-font-specification:Helvetica;writing-mode:lr-tb;fill:#000000;fill-opacity:1;fill-rule:nonzero;stroke:none"
     id="text570"
     x="365.0614"
     y="151.53751"><tspan
       x="365.0614 368.11639 370.89639 372.5614"
       y="151.53751"
       id="tspan572">Zero</tspan></text>
<text
     style="font-variant:normal;font-weight:bold;font-size:5px;font-family:Helvetica;-inkscape-font-specification:Helvetica-Bold;writing-mode:lr-tb;fill:#000000;fill-opacity:1;fill-rule:nonzero;stroke:none"
     id="text574"
     x="302.48477"
     y="95.857758"><tspan
       x="302.48477 305.81976 308.87476 310.26477 311.92975"
       y="95.857758"
       id="tspan576">Shift</tspan><tspan
       x="302.48477 303.87476 306.65475 308.31976 309.98477 311.37476"
       y="101.85629"
       id="tspan578">left 2</tspan></text>
<path
     id="path580"
     style="fill:none;stroke:#231f20;stroke-width:0.625;stroke-linecap:butt;stroke-linejoin:miter;stroke-miterlimit:4;stroke-dasharray:none;stroke-opacity:1"
     d="m 261.64762,222.57487 c 0,10.55525 -5.44375,19.11138 -12.16,19.11138 -6.7175,0 -12.16124,-8.55613 -12.16124,-19.11138 0,-10.55225 5.44374,-19.10987 12.16124,-19.10987 6.71625,0 12.16,8.55762 12.16,19.10987 z"
     inkscape:connector-curvature="0" /><text
     style="font-variant:normal;font-weight:bold;font-size:5px;font-family:Helvetica;-inkscape-font-specification:Helvetica-Bold;writing-mode:lr-tb;fill:#000000;fill-opacity:1;fill-rule:nonzero;stroke:none"
     id="text584"
     x="243.23512"
     y="220.86252"><tspan
       x="243.23512 246.57013 247.96013 251.01512 254.07011"
       y="220.86252"
       id="tspan586">Sign-</tspan><tspan
       x="241.42799 244.20799 246.98807 248.65253 251.43269 254.48805"
       y="226.86252"
       id="tspan588">extend</tspan></text>
<path
     id="path598"
     style="fill:none;stroke:#231f20;stroke-width:0.625;stroke-linecap:butt;stroke-linejoin:miter;stroke-miterlimit:4;stroke-dasharray:none;stroke-opacity:1"
     d="m 175.61137,255.75113 -14.03999,0 0,-210.931135 14.03999,0 0,210.931125 z m 121.34375,0 -14.04,0 0,-210.931135 14.04,0 0,210.931125 z m 110.98125,0 -14.04,0 0,-210.931135 14.04,0 0,210.931125 z m 103.29375,0 -14.04,0 0,-210.931135 14.04,0 0,210.931125 z M 57.545,147.5525 l -12.536625,0 0,-29.585 12.536625,0 0,29.585 z"
     inkscape:connector-curvature="0" /><path
     id="path600"
     style="fill:none;stroke:#231f20;stroke-width:0.9375;stroke-linecap:butt;stroke-linejoin:miter;stroke-miterlimit:4;stroke-dasharray:none;stroke-opacity:1"
     d="m 538.93262,174.43625 5.72501,0 0,93.60012 -358.35001,0 0,-84.23887 8.215,0"
     inkscape:connector-curvature="0" /><path
     id="path602"
     style="fill:#231f20;fill-opacity:1;fill-rule:nonzero;stroke:none"
     d="m 196.18387,183.07625 c -1.1625,-0.35 -1.9175,-0.67625 -2.84875,-1.04875 l 0,3.5475 c 0.33251,-0.15875 1.68625,-0.69875 2.84875,-1.05 1.245,-0.37625 2.3725,-0.6325 3.105,-0.725 -0.7325,-0.0912 -1.86,-0.35 -3.105,-0.72375"
     inkscape:connector-curvature="0" /><path
     id="path604"
     style="fill:none;stroke:#231f20;stroke-width:0.9375;stroke-linecap:butt;stroke-linejoin:miter;stroke-miterlimit:4;stroke-dasharray:none;stroke-opacity:1"
     d="m 487.16262,161.4025 6.01625,0"
     inkscape:connector-curvature="0" /><path
     id="path606"
     style="fill:#231f20;fill-opacity:1;fill-rule:nonzero;stroke:none"
     d="m 494.02512,160.68125 c -1.16375,-0.35 -1.91874,-0.67625 -2.85125,-1.04875 l 0,3.54625 c 0.335,-0.1575 1.6875,-0.6975 2.85125,-1.04875 1.2425,-0.37625 2.37125,-0.6325 3.10375,-0.725 -0.7325,-0.0913 -1.86125,-0.35 -3.10375,-0.72375"
     inkscape:connector-curvature="0" /><path
     id="path608"
     style="fill:none;stroke:#231f20;stroke-width:0.9375;stroke-linecap:butt;stroke-linejoin:miter;stroke-miterlimit:4;stroke-dasharray:none;stroke-opacity:1"
     d="m 194.52262,135.32625 -11.26374,0 0,88.25112 49.17875,0"
     inkscape:connector-curvature="0" /><path
     id="path610"
     style="fill:#231f20;fill-opacity:1;fill-rule:nonzero;stroke:none"
     d="m 233.96512,222.85762 c -1.16375,-0.3525 -1.91999,-0.67624 -2.8525,-1.05025 l 0,3.54775 c 0.33376,-0.15862 1.68875,-0.69775 2.8525,-1.05025 1.24375,-0.375 2.37125,-0.63237 3.10125,-0.72512 -0.73,-0.0897 -1.8575,-0.34963 -3.10125,-0.72213"
     inkscape:connector-curvature="0" /><path
     id="path612"
     style="fill:#231f20;fill-opacity:1;fill-rule:nonzero;stroke:none"
     d="m 196.18387,134.60625 c -1.1625,-0.3525 -1.9175,-0.675 -2.84875,-1.0475 l 0,3.545 c 0.33251,-0.15875 1.68625,-0.69875 2.84875,-1.04875 1.245,-0.37625 2.3725,-0.635 3.105,-0.72375 -0.7325,-0.0937 -1.86,-0.35 -3.105,-0.725"
     inkscape:connector-curvature="0" /><path
     id="path614"
     style="fill:#231f20;fill-opacity:1;fill-rule:nonzero;stroke:none"
     d="m 196.18387,150.985 c -1.1625,-0.3525 -1.9175,-0.67375 -2.84875,-1.0475 l 0,3.545 c 0.33251,-0.15875 1.68625,-0.6975 2.84875,-1.0475 1.245,-0.37625 2.3725,-0.635 3.105,-0.725 -0.7325,-0.0937 -1.86,-0.35 -3.105,-0.725"
     inkscape:connector-curvature="0" /><path
     id="path616"
     style="fill:none;stroke:#231f20;stroke-width:0.9375;stroke-linecap:butt;stroke-linejoin:miter;stroke-miterlimit:4;stroke-dasharray:none;stroke-opacity:1"
     d="m 183.42387,151.705 11.24251,0"
     inkscape:connector-curvature="0" /><path
     id="path618"
     style="fill:#231f20;fill-opacity:1;fill-rule:nonzero;stroke:none"
     d="m 196.18387,168.61 c -1.1625,-0.35 -1.9175,-0.67375 -2.84875,-1.04875 l 0,3.54875 c 0.33251,-0.16 1.68625,-0.69875 2.84875,-1.05125 1.245,-0.375 2.3725,-0.63125 3.105,-0.725 -0.7325,-0.09 -1.86,-0.34875 -3.105,-0.72375"
     inkscape:connector-curvature="0" /><path
     id="path620"
     style="fill:none;stroke:#231f20;stroke-width:0.9375;stroke-linecap:butt;stroke-linejoin:miter;stroke-miterlimit:4;stroke-dasharray:none;stroke-opacity:1"
     d="m 137.64012,159.83 19.26626,0 m 26.51749,9.50125 11.24251,0"
     inkscape:connector-curvature="0" /><path
     id="path622"
     style="fill:#231f20;fill-opacity:1;fill-rule:nonzero;stroke:none"
     d="m 158.23762,159.10625 c -1.16499,-0.3525 -1.91999,-0.67625 -2.85249,-1.05 l 0,3.5475 c 0.33375,-0.15875 1.6875,-0.6975 2.85249,-1.05 1.24251,-0.375 2.37001,-0.6325 3.10125,-0.725 -0.73124,-0.09 -1.85874,-0.34875 -3.10125,-0.7225"
     inkscape:connector-curvature="0" /><path
     id="path624"
     style="fill:#231f20;fill-opacity:1;fill-rule:nonzero;stroke:none"
     d="m 158.23762,73.081245 c -1.16499,-0.35 -1.91999,-0.67625 -2.85249,-1.04875 l 0,3.54625 c 0.33375,-0.15875 1.6875,-0.6975 2.85249,-1.04875 1.24251,-0.37625 2.37001,-0.6325 3.10125,-0.72625 -0.73124,-0.0888 -1.85874,-0.3475 -3.10125,-0.7225"
     inkscape:connector-curvature="0" /><text
     style="font-variant:normal;font-weight:bold;font-size:5px;font-family:Helvetica;-inkscape-font-specification:Helvetica-Bold;writing-mode:lr-tb;fill:#000000;fill-opacity:1;fill-rule:nonzero;stroke:none"
     id="text628"
     x="47.804749"
     y="134.00125"><tspan
       x="47.804749 51.139748"
       y="134.00125"
       id="tspan630">PC</tspan></text>
<path
     id="path632"
     style="fill:none;stroke:#231f20;stroke-width:0.9375;stroke-linecap:butt;stroke-linejoin:miter;stroke-miterlimit:4;stroke-dasharray:none;stroke-opacity:1"
     d="m 377.51888,161.30375 12.03625,0 m -12.03625,-11.49875 11.795,0"
     inkscape:connector-curvature="0" /><path
     id="path634"
     style="fill:#231f20;fill-opacity:1;fill-rule:nonzero;stroke:none"
     d="m 390.74637,160.58375 c -1.16125,-0.35 -1.91625,-0.6725 -2.85125,-1.05 l 0,3.5475 c 0.335,-0.15875 1.69,-0.6975 2.85125,-1.0475 1.245,-0.375 2.37375,-0.63375 3.10375,-0.725 -0.73,-0.0913 -1.85875,-0.3475 -3.10375,-0.725"
     inkscape:connector-curvature="0" /><path
     id="path636"
     style="fill:#231f20;fill-opacity:1;fill-rule:nonzero;stroke:none"
     d="m 390.74637,149.0675 c -1.16125,-0.35 -1.91625,-0.67625 -2.85125,-1.04875 l 0,3.54625 c 0.335,-0.1575 1.69,-0.6975 2.85125,-1.04875 1.245,-0.37625 2.37375,-0.6325 3.10375,-0.725 -0.73,-0.0913 -1.85875,-0.34875 -3.10375,-0.72375"
     inkscape:connector-curvature="0" /><path
     id="path638"
     style="fill:none;stroke:#231f20;stroke-width:0.9375;stroke-linecap:butt;stroke-linejoin:miter;stroke-miterlimit:4;stroke-dasharray:none;stroke-opacity:1"
     d="m 407.93637,162.06875 12.28501,0"
     inkscape:connector-curvature="0" /><path
     id="path640"
     style="fill:#231f20;fill-opacity:1;fill-rule:nonzero;stroke:none"
     d="m 421.36012,161.34875 c -1.1625,-0.3525 -1.9175,-0.67625 -2.85,-1.05 l 0,3.5475 c 0.335,-0.15875 1.6875,-0.6975 2.85,-1.05 1.245,-0.375 2.3725,-0.6325 3.105,-0.725 -0.7325,-0.0913 -1.86,-0.35 -3.105,-0.7225"
     inkscape:connector-curvature="0" /><path
     id="path642"
     style="fill:none;stroke:#231f20;stroke-width:0.9375;stroke-linecap:butt;stroke-linejoin:miter;stroke-miterlimit:4;stroke-dasharray:none;stroke-opacity:1"
     d="m 407.93637,202.68375 12.53501,0"
     inkscape:connector-curvature="0" /><path
     id="path644"
     style="fill:#231f20;fill-opacity:1;fill-rule:nonzero;stroke:none"
     d="m 421.61137,201.96375 c -1.1625,-0.35125 -1.91874,-0.67625 -2.85,-1.05 l 0,3.5475 c 0.335,-0.15875 1.6875,-0.69875 2.85,-1.05 1.24501,-0.375 2.3725,-0.63125 3.10501,-0.725 -0.73251,-0.09 -1.86,-0.34875 -3.10501,-0.7225"
     inkscape:connector-curvature="0" /><path
     id="path646"
     style="fill:none;stroke:#231f20;stroke-width:0.9375;stroke-linecap:butt;stroke-linejoin:miter;stroke-miterlimit:4;stroke-dasharray:none;stroke-opacity:1"
     d="m 413.20013,162.06875 0,56.66 79.97874,0"
     inkscape:connector-curvature="0" /><path
     id="path648"
     style="fill:#231f20;fill-opacity:1;fill-rule:nonzero;stroke:none"
     d="m 493.89388,218.009 c -1.1625,-0.35162 -1.91875,-0.67625 -2.85125,-1.05025 l 0,3.54725 c 0.33625,-0.15863 1.68875,-0.69725 2.85125,-1.04975 1.245,-0.375 2.3725,-0.63138 3.105,-0.72513 -0.7325,-0.0899 -1.86,-0.34862 -3.105,-0.72212"
     inkscape:connector-curvature="0" /><path
     id="path650"
     style="fill:none;stroke:#231f20;stroke-width:0.9375;stroke-linecap:butt;stroke-linejoin:miter;stroke-miterlimit:4;stroke-dasharray:none;stroke-opacity:1"
     d="m 511.48138,162.06875 10.27875,0"
     inkscape:connector-curvature="0" /><path
     id="path652"
     style="fill:#231f20;fill-opacity:1;fill-rule:nonzero;stroke:none"
     d="m 522.99013,161.34875 c -1.16126,-0.3525 -1.91625,-0.67625 -2.85126,-1.05 l 0,3.5475 c 0.335,-0.15875 1.69,-0.6975 2.85126,-1.05 1.24499,-0.375 2.37374,-0.6325 3.10375,-0.725 -0.73001,-0.0913 -1.85876,-0.35 -3.10375,-0.7225"
     inkscape:connector-curvature="0" /><path
     id="path654"
     style="fill:none;stroke:#231f20;stroke-width:0.9375;stroke-linecap:butt;stroke-linejoin:miter;stroke-miterlimit:4;stroke-dasharray:none;stroke-opacity:1"
     d="m 511.23012,218.98112 6.51875,0 0,-34.09737 5.76625,0"
     inkscape:connector-curvature="0" /><path
     id="path656"
     style="fill:#231f20;fill-opacity:1;fill-rule:nonzero;stroke:none"
     d="m 523.35887,184.16375 c -1.16375,-0.3525 -1.91875,-0.67625 -2.85125,-1.05 l 0,3.5475 c 0.335,-0.15875 1.6875,-0.6975 2.85125,-1.05 1.24501,-0.37625 2.37126,-0.6325 3.10375,-0.725 -0.73249,-0.0913 -1.85874,-0.35 -3.10375,-0.7225"
     inkscape:connector-curvature="0" /><path
     id="path658"
     style="fill:none;stroke:#231f20;stroke-width:0.9375;stroke-linecap:butt;stroke-linejoin:miter;stroke-miterlimit:4;stroke-dasharray:none;stroke-opacity:1"
     d="m 408.18513,149.28 6.26999,0"
     inkscape:connector-curvature="0" /><path
     id="path660"
     style="fill:#231f20;fill-opacity:1;fill-rule:nonzero;stroke:none"
     d="m 416.07887,148.5775 c -1.1375,-0.345 -1.875,-0.66125 -2.78625,-1.025 l 0,3.46625 c 0.325,-0.15375 1.64875,-0.68 2.78625,-1.025 1.21625,-0.36875 2.31875,-0.62 3.035,-0.7075 -0.71625,-0.0913 -1.81875,-0.3425 -3.035,-0.70875"
     inkscape:connector-curvature="0" /><path
     id="path662"
     style="fill:none;stroke:#231f20;stroke-width:0.9375;stroke-linecap:butt;stroke-linejoin:miter;stroke-miterlimit:4;stroke-dasharray:none;stroke-opacity:1"
     d="m 331.05137,175.6925 9.6925,0"
     inkscape:connector-curvature="0" /><path
     id="path664"
     style="fill:#231f20;fill-opacity:1;fill-rule:nonzero;stroke:none"
     d="m 341.73512,174.9725 c -1.16375,-0.3525 -1.91875,-0.67625 -2.85125,-1.05 l 0,3.5475 c 0.335,-0.15875 1.6875,-0.69875 2.85125,-1.05125 1.245,-0.37625 2.37125,-0.6325 3.10375,-0.72375 -0.7325,-0.0912 -1.85875,-0.35 -3.10375,-0.7225"
     inkscape:connector-curvature="0" /><path
     id="path666"
     style="fill:none;stroke:#231f20;stroke-width:0.9375;stroke-linecap:butt;stroke-linejoin:miter;stroke-miterlimit:4;stroke-dasharray:none;stroke-opacity:1"
     d="m 296.87013,139.25375 43.625,0"
     inkscape:connector-curvature="0" /><path
     id="path668"
     style="fill:#231f20;fill-opacity:1;fill-rule:nonzero;stroke:none"
     d="m 341.47138,138.53375 c -1.16375,-0.3525 -1.91875,-0.67375 -2.85125,-1.05 l 0,3.5475 c 0.33499,-0.15875 1.6875,-0.6975 2.85125,-1.0475 1.24374,-0.375 2.37124,-0.635 3.10375,-0.725 -0.73251,-0.0925 -1.86001,-0.35 -3.10375,-0.725"
     inkscape:connector-curvature="0" /><path
     id="path670"
     style="fill:none;stroke:#231f20;stroke-width:0.9375;stroke-linecap:butt;stroke-linejoin:miter;stroke-miterlimit:4;stroke-dasharray:none;stroke-opacity:1"
     d="m 296.87013,164.8275 16.96499,0 m -5.51499,-51.315 0,108.7275 -11.69876,0"
     inkscape:connector-curvature="0" /><path
     id="path672"
     style="fill:#231f20;fill-opacity:1;fill-rule:nonzero;stroke:none"
     d="m 314.89262,164.1075 c -1.1625,-0.3525 -1.91624,-0.67625 -2.85,-1.05 l 0,3.5475 c 0.335,-0.15875 1.6875,-0.6975 2.85,-1.05 1.24501,-0.375 2.375,-0.6325 3.10501,-0.725 -0.73001,-0.09 -1.86,-0.35 -3.10501,-0.7225"
     inkscape:connector-curvature="0" /><path
     id="path674"
     style="fill:none;stroke:#231f20;stroke-width:0.9375;stroke-linecap:butt;stroke-linejoin:miter;stroke-miterlimit:4;stroke-dasharray:none;stroke-opacity:1"
     d="m 308.65388,187.39125 5.26625,0"
     inkscape:connector-curvature="0" /><path
     id="path676"
     style="fill:#231f20;fill-opacity:1;fill-rule:nonzero;stroke:none"
     d="m 315.11012,186.67 c -1.1625,-0.35 -1.9175,-0.67625 -2.85,-1.04875 l 0,3.54625 c 0.335,-0.1575 1.6875,-0.6975 2.85,-1.04875 1.245,-0.37625 2.3725,-0.6325 3.105,-0.725 -0.7325,-0.0912 -1.86,-0.35 -3.105,-0.72375"
     inkscape:connector-curvature="0" /><path
     id="path678"
     style="fill:none;stroke:#231f20;stroke-width:0.9375;stroke-linecap:butt;stroke-linejoin:miter;stroke-miterlimit:4;stroke-dasharray:none;stroke-opacity:1"
     d="m 302.38763,164.8275 0,38.10875 87.24874,0"
     inkscape:connector-curvature="0" /><path
     id="path680"
     style="fill:#231f20;fill-opacity:1;fill-rule:nonzero;stroke:none"
     d="m 390.58512,202.215 c -1.16125,-0.35125 -1.91624,-0.67625 -2.84875,-1.04875 l 0,3.5475 c 0.3325,-0.15875 1.6875,-0.7 2.84875,-1.05 1.245,-0.3775 2.37375,-0.63375 3.10375,-0.725 -0.73,-0.0913 -1.85875,-0.35 -3.10375,-0.72375"
     inkscape:connector-curvature="0" /><path
     id="path682"
     style="fill:none;stroke:#231f20;stroke-width:0.9375;stroke-linecap:butt;stroke-linejoin:miter;stroke-miterlimit:4;stroke-dasharray:none;stroke-opacity:1"
     d="m 317.68013,98.889995 11.7825,0"
     inkscape:connector-curvature="0" /><path
     id="path684"
     style="fill:#231f20;fill-opacity:1;fill-rule:nonzero;stroke:none"
     d="m 330.61263,98.169995 c -1.1625,-0.3525 -1.91875,-0.67625 -2.85125,-1.05 l 0,3.547505 c 0.33625,-0.15875 1.68875,-0.697505 2.85125,-1.050005 1.245,-0.375 2.3725,-0.6325 3.105,-0.725 -0.7325,-0.09 -1.86,-0.3475 -3.105,-0.7225"
     inkscape:connector-curvature="0" /><path
     id="path686"
     style="fill:none;stroke:#231f20;stroke-width:0.9375;stroke-linecap:butt;stroke-linejoin:miter;stroke-miterlimit:4;stroke-dasharray:none;stroke-opacity:1"
     d="m 361.30387,88.108745 28.8325,0"
     inkscape:connector-curvature="0" /><path
     id="path688"
     style="fill:#231f20;fill-opacity:1;fill-rule:nonzero;stroke:none"
     d="m 390.63013,87.388745 c -1.16251,-0.3525 -1.91751,-0.67375 -2.85001,-1.05 l 0,3.5475 c 0.335,-0.15875 1.6875,-0.6975 2.85001,-1.0475 1.245,-0.375 2.3725,-0.635 3.105,-0.725 -0.7325,-0.0925 -1.86,-0.35 -3.105,-0.725"
     inkscape:connector-curvature="0" /><path
     id="path690"
     style="fill:none;stroke:#231f20;stroke-width:0.9375;stroke-linecap:butt;stroke-linejoin:miter;stroke-miterlimit:4;stroke-dasharray:none;stroke-opacity:1"
     d="m 296.87013,74.319995 32.34125,0"
     inkscape:connector-curvature="0" /><path
     id="path692"
     style="fill:#231f20;fill-opacity:1;fill-rule:nonzero;stroke:none"
     d="m 330.36137,73.598745 c -1.1625,-0.35 -1.91874,-0.67625 -2.85,-1.04875 l 0,3.54625 c 0.335,-0.15875 1.6875,-0.6975 2.85,-1.04875 1.24501,-0.37625 2.3725,-0.6325 3.10501,-0.725 -0.73251,-0.0913 -1.86,-0.34625 -3.10501,-0.72375"
     inkscape:connector-curvature="0" /><path
     id="path694"
     style="fill:none;stroke:#231f20;stroke-width:0.9375;stroke-linecap:butt;stroke-linejoin:miter;stroke-miterlimit:4;stroke-dasharray:none;stroke-opacity:1"
     d="m 262.27262,139.50625 15.5925,0"
     inkscape:connector-curvature="0" /><path
     id="path696"
     style="fill:#231f20;fill-opacity:1;fill-rule:nonzero;stroke:none"
     d="m 279.52638,138.7825 c -1.16125,-0.34875 -1.91876,-0.67375 -2.85125,-1.0475 l 0,3.5475 c 0.335,-0.15875 1.69,-0.69875 2.85125,-1.04875 1.2425,-0.3775 2.3725,-0.6325 3.1025,-0.72625 -0.73,-0.09 -1.86,-0.34875 -3.1025,-0.725"
     inkscape:connector-curvature="0" /><path
     id="path698"
     style="fill:none;stroke:#231f20;stroke-width:0.9375;stroke-linecap:butt;stroke-linejoin:miter;stroke-miterlimit:4;stroke-dasharray:none;stroke-opacity:1"
     d="m 262.02138,164.57625 15.84375,0"
     inkscape:connector-curvature="0" /><path
     id="path700"
     style="fill:#231f20;fill-opacity:1;fill-rule:nonzero;stroke:none"
     d="m 279.52638,163.855 c -1.16125,-0.35 -1.91875,-0.67375 -2.85125,-1.04875 l 0,3.5475 c 0.335,-0.15875 1.69,-0.69875 2.85125,-1.0475 1.2425,-0.37625 2.3725,-0.635 3.1025,-0.725 -0.73,-0.0937 -1.86,-0.34875 -3.1025,-0.72625"
     inkscape:connector-curvature="0" /><path
     id="path702"
     style="fill:none;stroke:#231f20;stroke-width:0.9375;stroke-linecap:butt;stroke-linejoin:miter;stroke-miterlimit:4;stroke-dasharray:none;stroke-opacity:1"
     d="m 175.77762,73.817495 102.0875,0"
     inkscape:connector-curvature="0" /><path
     id="path704"
     style="fill:#231f20;fill-opacity:1;fill-rule:nonzero;stroke:none"
     d="m 279.52638,73.097495 c -1.16125,-0.3525 -1.91875,-0.675 -2.85125,-1.0475 l 0,3.545 c 0.335,-0.15875 1.69,-0.69875 2.85125,-1.0475 1.2425,-0.3775 2.3725,-0.63625 3.1025,-0.725 -0.73,-0.0937 -1.86,-0.35 -3.1025,-0.725"
     inkscape:connector-curvature="0" /><path
     id="path706"
     style="fill:none;stroke:#231f20;stroke-width:0.9375;stroke-linecap:butt;stroke-linejoin:miter;stroke-miterlimit:4;stroke-dasharray:none;stroke-opacity:1"
     d="m 87.025,87.356245 10.029255,0 m 26.073375,-13.53875 34.59749,0"
     inkscape:connector-curvature="0" /><path
     id="path708"
     style="fill:#231f20;fill-opacity:1;fill-rule:nonzero;stroke:none"
     d="m 98.024495,86.637495 c -1.16312,-0.3525 -1.9175,-0.67625 -2.85012,-1.05 l 0,3.5475 c 0.333,-0.15875 1.687,-0.69875 2.85012,-1.05125 1.24413,-0.375 2.372005,-0.6325 3.104505,-0.72375 -0.7325,-0.0913 -1.860375,-0.3475 -3.104505,-0.7225"
     inkscape:connector-curvature="0" /><path
     id="path710"
     style="fill:none;stroke:#231f20;stroke-width:0.9375;stroke-linecap:butt;stroke-linejoin:miter;stroke-miterlimit:4;stroke-dasharray:none;stroke-opacity:1"
     d="m 57.44,131.9825 13.0395,0"
     inkscape:connector-curvature="0" /><path
     id="path712"
     style="fill:#231f20;fill-opacity:1;fill-rule:nonzero;stroke:none"
     d="m 71.38875,131.2625 c -1.163125,-0.35125 -1.9175,-0.6725 -2.850125,-1.05 l 0,3.5475 c 0.3335,-0.15875 1.687,-0.6975 2.850125,-1.0475 1.244125,-0.375 2.372,-0.63375 3.1045,-0.725 -0.7325,-0.0913 -1.860375,-0.34875 -3.1045,-0.725"
     inkscape:connector-curvature="0" /><path
     id="path714"
     style="fill:none;stroke:#231f20;stroke-width:0.9375;stroke-linecap:butt;stroke-linejoin:miter;stroke-miterlimit:4;stroke-dasharray:none;stroke-opacity:1"
     d="m 63.458,131.9825 0,-69.196255 33.094255,0"
     inkscape:connector-curvature="0" /><path
     id="path716"
     style="fill:#231f20;fill-opacity:1;fill-rule:nonzero;stroke:none"
     d="m 97.845245,62.066245 c -1.16212,-0.35125 -1.91887,-0.67375 -2.851495,-1.0475 l 0,3.545 c 0.334375,-0.15875 1.689375,-0.69875 2.851495,-1.0475 1.24363,-0.375 2.373015,-0.63375 3.103005,-0.725 -0.73001,-0.0925 -1.859375,-0.34875 -3.103005,-0.725"
     inkscape:connector-curvature="0" /><path
     id="path718"
     style="fill:none;stroke:#231f20;stroke-width:0.9375;stroke-linecap:butt;stroke-linejoin:miter;stroke-miterlimit:4;stroke-dasharray:none;stroke-opacity:1"
     d="m 175.61137,161.7375 5.51626,0"
     inkscape:connector-curvature="0" /><text
     style="font-variant:normal;font-weight:normal;font-size:5px;font-family:Helvetica;-inkscape-font-specification:Helvetica;writing-mode:lr-tb;fill:#000000;fill-opacity:1;fill-rule:nonzero;stroke:none"
     id="text722"
     x="80.828621"
     y="89.361237"><tspan
       x="80.828621"
       y="89.361237"
       id="tspan724">4</tspan><tspan
       x="283.40363 284.79364 288.40363 289.79364 293.12726 163.17212 164.56212 167.61713 169.00713 170.39713 391.05215 394.38715 397.72214 399.11215 403.27713 406.61215"
       y="40.947632"
       id="tspan726">ID/EXIF/IDEX/MEM</tspan></text>
<path
     id="path728"
     style="fill:none;stroke:#231f20;stroke-width:0.9375;stroke-linecap:butt;stroke-linejoin:miter;stroke-miterlimit:4;stroke-dasharray:none;stroke-opacity:1"
     d="m 261.59638,223.68775 16.99374,0"
     inkscape:connector-curvature="0" /><path
     id="path730"
     style="fill:#231f20;fill-opacity:1;fill-rule:nonzero;stroke:none"
     d="m 279.61637,222.9675 c -1.16,-0.3525 -1.9175,-0.67625 -2.85,-1.04988 l 0,3.54738 c 0.335,-0.15862 1.69,-0.69875 2.85,-1.04975 1.2475,-0.3765 2.375,-0.63287 3.10501,-0.72513 -0.73001,-0.0912 -1.85751,-0.35012 -3.10501,-0.72262"
     inkscape:connector-curvature="0" /><path
     id="path732"
     style="fill:none;stroke:#231f20;stroke-width:0.625;stroke-linecap:butt;stroke-linejoin:miter;stroke-miterlimit:4;stroke-dasharray:none;stroke-opacity:1"
     d="m 224.45387,220.74625 2.57375,5.63875 m 41.1875,-6.12987 2.575,5.63862"
     inkscape:connector-curvature="0" /><text
     style="font-variant:normal;font-weight:normal;font-size:5px;font-family:Helvetica;-inkscape-font-specification:Helvetica;writing-mode:lr-tb;fill:#000000;fill-opacity:1;fill-rule:nonzero;stroke:none"
     id="text736"
     x="220.03763"
     y="219.03"><tspan
       x="220.03763 222.81763"
       y="219.03"
       id="tspan738">16</tspan></text>
<path
     id="path740"
     style="fill:none;stroke:#231f20;stroke-width:0.9375;stroke-linecap:butt;stroke-linejoin:miter;stroke-miterlimit:4;stroke-dasharray:none;stroke-opacity:1"
     d="m 36.214375,131.64875 4.34575,0"
     inkscape:connector-curvature="0" /><path
     id="path742"
     style="fill:#231f20;fill-opacity:1;fill-rule:nonzero;stroke:none"
     d="m 41.673375,130.92875 c -1.162125,-0.3525 -1.918875,-0.67375 -2.8515,-1.05 l 0,3.5475 c 0.334375,-0.15875 1.689375,-0.6975 2.8515,-1.0475 1.243625,-0.375 2.373,-0.635 3.103,-0.725 -0.73,-0.0925 -1.859375,-0.35 -3.103,-0.725"
     inkscape:connector-curvature="0" /><path
     id="path752"
     style="fill:none;stroke:#231f20;stroke-width:0.9375;stroke-linecap:butt;stroke-linejoin:miter;stroke-miterlimit:4;stroke-dasharray:none;stroke-opacity:1"
     d="m 407.93637,89.027495 23.73625,0 0,-67.69125 -423.20387,0 0,122.512505 10.361375,-0.08"
     inkscape:connector-curvature="0" /><path
     id="path754"
     style="fill:#231f20;fill-opacity:1;fill-rule:nonzero;stroke:none"
     d="m 20.425875,143.0325 c -1.164625,-0.34125 -1.922875,-0.65875 -2.858,-1.025 l 0.02838,3.5475 c 0.332,-0.16125 1.682125,-0.7125 2.84175,-1.0725 1.24125,-0.385 2.36825,-0.65125 3.098125,-0.74875 -0.732375,-0.0863 -1.86275,-0.335 -3.11025,-0.70125"
     inkscape:connector-curvature="0" /><path
     id="path756"
     style="fill:none;stroke:#231f20;stroke-width:0.9375;stroke-linecap:butt;stroke-linejoin:miter;stroke-miterlimit:4;stroke-dasharray:none;stroke-opacity:1"
     d="m 131.31763,73.817495 0,-43.955 -118.50163,0 0,90.110005 6.014125,-0.0225"
     inkscape:connector-curvature="0" /><path
     id="path758"
     style="fill:#231f20;fill-opacity:1;fill-rule:nonzero;stroke:none"
     d="m 20.194875,119.22125 c -1.163125,-0.345 -1.919875,-0.66625 -2.854,-1.0375 l 0.01362,3.54875 c 0.332125,-0.1625 1.684625,-0.70625 2.84675,-1.06 1.242625,-0.38125 2.369125,-0.6425 3.1005,-0.7375 -0.732375,-0.0888 -1.86025,-0.3425 -3.106875,-0.71375"
     inkscape:connector-curvature="0" /><path
     id="path760"
     style="fill:#231f20;fill-opacity:1;fill-rule:nonzero;stroke:none"
     d="m 129.19263,73.808745 c 0,1.21 0.97874,2.1875 2.1875,2.1875 1.20625,0 2.18875,-0.9775 2.18875,-2.1875 0,-1.2075 -0.9825,-2.1875 -2.18875,-2.1875 -1.20876,0 -2.1875,0.98 -2.1875,2.1875"
     inkscape:connector-curvature="0" /><path
     id="path762"
     style="fill:#231f20;fill-opacity:1;fill-rule:nonzero;stroke:none"
     d="m 61.331625,131.97375 c 0,1.2075 0.979,2.1875 2.1875,2.1875 1.2085,0 2.1875,-0.98 2.1875,-2.1875 0,-1.20625 -0.979,-2.1875 -2.1875,-2.1875 -1.2085,0 -2.1875,0.98125 -2.1875,2.1875"
     inkscape:connector-curvature="0" /><path
     id="path764"
     style="fill:#231f20;fill-opacity:1;fill-rule:nonzero;stroke:none"
     d="m 180.96512,161.72625 c 0,1.21 0.9775,2.1875 2.1875,2.1875 1.20501,0 2.1875,-0.9775 2.1875,-2.1875 0,-1.2075 -0.98249,-2.1875 -2.1875,-2.1875 -1.21,0 -2.1875,0.98 -2.1875,2.1875"
     inkscape:connector-curvature="0" /><path
     id="path766"
     style="fill:#231f20;fill-opacity:1;fill-rule:nonzero;stroke:none"
     d="m 181.23637,169.33125 c 0,1.21 0.98125,2.1875 2.1875,2.1875 1.20751,0 2.1875,-0.9775 2.1875,-2.1875 0,-1.2075 -0.97999,-2.1875 -2.1875,-2.1875 -1.20625,0 -2.1875,0.98 -2.1875,2.1875"
     inkscape:connector-curvature="0" /><path
     id="path768"
     style="fill:#231f20;fill-opacity:1;fill-rule:nonzero;stroke:none"
     d="m 180.96512,151.5725 c 0,1.21 0.9775,2.1875 2.1875,2.1875 1.20501,0 2.1875,-0.9775 2.1875,-2.1875 0,-1.2075 -0.98249,-2.1875 -2.1875,-2.1875 -1.21,0 -2.1875,0.98 -2.1875,2.1875"
     inkscape:connector-curvature="0" /><path
     id="path770"
     style="fill:#231f20;fill-opacity:1;fill-rule:nonzero;stroke:none"
     d="m 300.09512,165.005 c 0,1.21 0.97875,2.1875 2.1875,2.1875 1.20625,0 2.1875,-0.9775 2.1875,-2.1875 0,-1.2075 -0.98125,-2.1875 -2.1875,-2.1875 -1.20875,0 -2.1875,0.98 -2.1875,2.1875"
     inkscape:connector-curvature="0" /><path
     id="path772"
     style="fill:#231f20;fill-opacity:1;fill-rule:nonzero;stroke:none"
     d="m 411.06887,162.1275 c 0,1.20625 0.97875,2.1875 2.1875,2.1875 1.20625,0 2.1875,-0.98125 2.1875,-2.1875 0,-1.20875 -0.98125,-2.1875 -2.1875,-2.1875 -1.20875,0 -2.1875,0.97875 -2.1875,2.1875"
     inkscape:connector-curvature="0" /><path
     id="path774"
     style="fill:#231f20;fill-opacity:1;fill-rule:nonzero;stroke:none"
     d="m 306.11012,187.4025 c 0,1.21 0.98,2.1875 2.1875,2.1875 1.20875,0 2.1875,-0.9775 2.1875,-2.1875 0,-1.2075 -0.97875,-2.1875 -2.1875,-2.1875 -1.2075,0 -2.1875,0.98 -2.1875,2.1875"
     inkscape:connector-curvature="0" /><path
     id="path776"
     style="fill:none;stroke:#231f20;stroke-width:0.625;stroke-linecap:butt;stroke-linejoin:miter;stroke-miterlimit:4;stroke-dasharray:none;stroke-opacity:1"
     d="m 36.1275,141.13875 c 0,4.1725 -2.837875,7.55625 -6.337875,7.55625 -3.501,0 -6.338875,-3.38375 -6.338875,-7.55625 l 0,-19.31 c 0,-4.17375 2.837875,-7.5575 6.338875,-7.5575 3.5,0 6.337875,3.38375 6.337875,7.5575 l 0,19.31 z"
     inkscape:connector-curvature="0" /><text
     style="font-variant:normal;font-weight:normal;font-size:5px;font-family:Helvetica;-inkscape-font-specification:Helvetica;writing-mode:lr-tb;fill:#000000;fill-opacity:1;fill-rule:nonzero;stroke:none"
     id="text780"
     x="264.7814"
     y="219.02902"><tspan
       x="264.7814 267.5614"
       y="219.02902"
       id="tspan782">32</tspan></text>
<path
     id="path784"
     style="fill:none;stroke:#231f20;stroke-width:0.625;stroke-linecap:butt;stroke-linejoin:miter;stroke-miterlimit:4;stroke-dasharray:none;stroke-opacity:1"
     d="m 330.80013,185.67875 c 0,4.175 -2.83875,7.55625 -6.34,7.55625 -3.49875,0 -6.3375,-3.38125 -6.3375,-7.55625 l 0,-19.3075 c 0,-4.17625 2.83875,-7.5575 6.3375,-7.5575 3.50125,0 6.34,3.38125 6.34,7.5575 l 0,19.3075 z"
     inkscape:connector-curvature="0" /><text
     style="font-variant:normal;font-weight:normal;font-size:5px;font-family:Helvetica;-inkscape-font-specification:Helvetica;writing-mode:lr-tb;fill:#000000;fill-opacity:1;fill-rule:nonzero;stroke:none"
     id="text788"
     x="26.939501"
     y="121.75"><tspan
       x="26.939501"
       y="121.75"
       id="tspan790">0</tspan></text>
<text
     style="font-variant:normal;font-weight:bold;font-size:5px;font-family:Helvetica;-inkscape-font-specification:Helvetica-Bold;writing-mode:lr-tb;fill:#000000;fill-opacity:1;fill-rule:nonzero;stroke:none"
     id="text792"
     x="28.871626"
     y="127.61719"><tspan
       x="28.871626"
       y="127.61719"
       id="tspan794">M</tspan><tspan
       x="29.426313"
       y="133.61865"
       id="tspan796">u</tspan><tspan
       x="29.564497"
       y="139.61865"
       id="tspan798">x</tspan></text>
<text
     style="font-variant:normal;font-weight:normal;font-size:5px;font-family:Helvetica;-inkscape-font-specification:Helvetica;writing-mode:lr-tb;fill:#000000;fill-opacity:1;fill-rule:nonzero;stroke:none"
     id="text800"
     x="26.939497"
     y="145.56836"><tspan
       x="26.939497"
       y="145.56836"
       id="tspan802">1</tspan></text>
<path
     id="path804"
     style="fill:none;stroke:#231f20;stroke-width:0.625;stroke-linecap:butt;stroke-linejoin:miter;stroke-miterlimit:4;stroke-dasharray:none;stroke-opacity:1"
     d="m 538.88888,182.6725 c 0,4.175 -2.83751,7.55625 -6.33751,7.55625 -3.49874,0 -6.33874,-3.38125 -6.33874,-7.55625 l 0,-19.31 c 0,-4.17375 2.84,-7.55625 6.33874,-7.55625 3.5,0 6.33751,3.3825 6.33751,7.55625 l 0,19.31 z"
     inkscape:connector-curvature="0" /><text
     style="font-variant:normal;font-weight:normal;font-size:5px;font-family:Helvetica;-inkscape-font-specification:Helvetica;writing-mode:lr-tb;fill:#000000;fill-opacity:1;fill-rule:nonzero;stroke:none"
     id="text808"
     x="321.61014"
     y="166.62625"><tspan
       x="321.61014"
       y="166.62625"
       id="tspan810">0</tspan></text>
<text
     style="font-variant:normal;font-weight:bold;font-size:5px;font-family:Helvetica;-inkscape-font-specification:Helvetica-Bold;writing-mode:lr-tb;fill:#000000;fill-opacity:1;fill-rule:nonzero;stroke:none"
     id="text812"
     x="323.34891"
     y="172.38748"><tspan
       x="323.34891"
       y="172.38748"
       id="tspan814">M</tspan><tspan
       x="323.90555"
       y="178.38651"
       id="tspan816">u</tspan><tspan
       x="324.04178"
       y="184.38651"
       id="tspan818">x</tspan></text>
<text
     style="font-style:normal;font-variant:normal;font-weight:normal;font-stretch:normal;font-size:5px;line-height:125%;font-family:Helvetica;-inkscape-font-specification:'Helvetica, Normal';text-align:start;writing-mode:lr-tb;text-anchor:start;fill:#000000;fill-opacity:1;fill-rule:nonzero;stroke:none"
     id="text820"
     x="527.13623"
     y="165.9325"
     sodipodi:linespacing="125%"><tspan
       sodipodi:role="line"
       id="tspan4517"
       x="527.13623"
       y="165.9325">1</tspan><tspan
       sodipodi:role="line"
       id="tspan4519"
       x="527.13623"
       y="172.1825" /><tspan
       sodipodi:role="line"
       x="527.13623"
       y="178.4325"
       id="tspan4521" /><tspan
       sodipodi:role="line"
       x="527.13623"
       y="184.6825"
       id="tspan4523">0</tspan></text>
<text
     style="font-variant:normal;font-weight:bold;font-size:5px;font-family:Helvetica;-inkscape-font-specification:Helvetica-Bold;writing-mode:lr-tb;fill:#000000;fill-opacity:1;fill-rule:nonzero;stroke:none"
     id="text826"
     x="531.18744"
     y="169.47"><tspan
       x="531.18744"
       y="169.47"
       id="tspan828">M</tspan><tspan
       x="531.74261"
       y="175.46902"
       id="tspan830">u</tspan><tspan
       x="531.87982"
       y="181.46902"
       id="tspan832">x</tspan></text>
<text
     style="font-style:normal;font-variant:normal;font-weight:normal;font-stretch:normal;font-size:5px;line-height:125%;font-family:Helvetica;-inkscape-font-specification:'Helvetica, Normal';text-align:start;writing-mode:lr-tb;text-anchor:start;fill:#000000;fill-opacity:1;fill-rule:nonzero;stroke:none"
     id="text834"
     x="493.70013"
     y="40.849579"
     sodipodi:linespacing="125%"><tspan
       sodipodi:role="line"
       id="tspan4513"
       x="493.70013"
       y="40.849579">MEM/WB</tspan></text>
<text
     xml:space="preserve"
     style="font-style:normal;font-weight:normal;font-size:10px;line-height:125%;font-family:sans-serif;text-align:start;letter-spacing:0px;word-spacing:0px;writing-mode:lr-tb;text-anchor:start;opacity:0.93999999;fill:#000000;fill-opacity:1;stroke:none;stroke-width:1px;stroke-linecap:butt;stroke-linejoin:miter;stroke-opacity:1"
     x="24.805517"
     y="226.31247"
     id="text4894"
     sodipodi:linespacing="125%"><tspan
       sodipodi:role="line"
       id="tspan4304"
       x="24.805517"
       y="226.31247"
       style="font-size:7.5px">COD 4Ed, Copyright © 2009 </tspan><tspan
       sodipodi:role="line"
       x="24.805517"
       y="235.68747"
       style="font-size:7.5px"
       id="tspan4308">Elsevier, Inc. All rights reserved.</tspan><tspan
       sodipodi:role="line"
       id="tspan4306"
       x="24.805517"
       y="245.06247" /></text>
<text
     xml:space="preserve"
     style="font-style:normal;font-weight:normal;font-size:10px;line-height:125%;font-family:sans-serif;letter-spacing:0px;word-spacing:0px;fill:#000000;fill-opacity:1;stroke:none;stroke-width:1px;stroke-linecap:butt;stroke-linejoin:miter;stroke-opacity:1"
     x="121.96524"
     y="281.89145"
     id="text5570"
     sodipodi:linespacing="125%"><tspan
       sodipodi:role="line"
       id="tspan5572"
       x="121.96524"
       y="281.89145">Simulação, da instrução LW, na quinta etapa do pipelilne.</tspan></text>
<text
     sodipodi:linespacing="125%"
     y="189.19266"
     x="321.61014"
     id="text4525"
     style="font-style:normal;font-variant:normal;font-weight:normal;font-stretch:normal;font-size:5px;line-height:125%;font-family:Helvetica;-inkscape-font-specification:'Helvetica, Normal';text-align:start;writing-mode:lr;text-anchor:start;fill:#000000;fill-opacity:1;fill-rule:nonzero;stroke:none;"><tspan
       sodipodi:role="line"
       id="tspan4545">1</tspan></text>
</svg>