<?xml version="1.0" encoding="UTF-8" standalone="no"?>
<svg
   xmlns:dc="http://purl.org/dc/elements/1.1/"
   xmlns:cc="http://creativecommons.org/ns#"
   xmlns:rdf="http://www.w3.org/1999/02/22-rdf-syntax-ns#"
   xmlns:svg="http://www.w3.org/2000/svg"
   xmlns="http://www.w3.org/2000/svg"
   xmlns:sodipodi="http://sodipodi.sourceforge.net/DTD/sodipodi-0.dtd"
   xmlns:inkscape="http://www.inkscape.org/namespaces/inkscape"
   viewBox="0 0 553.12501 310.99536"
   height="310.99536"
   width="553.125"
   xml:space="preserve"
   version="1.1"
   id="svg2"
   inkscape:version="0.91 r13725"
   sodipodi:docname="pipelineVerificacaoLW-1B.svg"><sodipodi:namedview
     pagecolor="#ffffff"
     bordercolor="#666666"
     borderopacity="1"
     objecttolerance="10"
     gridtolerance="10"
     guidetolerance="10"
     inkscape:pageopacity="0"
     inkscape:pageshadow="2"
     inkscape:window-width="1855"
     inkscape:window-height="1056"
     id="namedview419"
     showgrid="false"
     inkscape:zoom="1.4932839"
     inkscape:cx="276.5625"
     inkscape:cy="296.99643"
     inkscape:window-x="1985"
     inkscape:window-y="24"
     inkscape:window-maximized="1"
     inkscape:current-layer="svg2"
     fit-margin-left="8"
     fit-margin-top="8"
     fit-margin-right="8"
     fit-margin-bottom="8"
     showguides="true"
     inkscape:guide-bbox="true" /><metadata
     id="metadata8"><rdf:RDF><cc:Work
         rdf:about=""><dc:format>image/svg+xml</dc:format><dc:type
           rdf:resource="http://purl.org/dc/dcmitype/StillImage" /><dc:title></dc:title></cc:Work></rdf:RDF></metadata><defs
     id="defs6"><clipPath
       id="clipPath212"
       clipPathUnits="userSpaceOnUse"><path
         id="path214"
         d="m 101.5,598.121 4297,0 0,4877.45 -4297,0 0,-4877.45 z"
         inkscape:connector-curvature="0" /></clipPath><clipPath
       id="clipPath366"
       clipPathUnits="userSpaceOnUse"><path
         id="path368"
         d="m 101.5,598.121 4297,0 0,4877.45 -4297,0 0,-4877.45 z"
         inkscape:connector-curvature="0" /></clipPath><clipPath
       id="clipPath592"
       clipPathUnits="userSpaceOnUse"><path
         id="path594"
         d="m 101.5,598.121 4297,0 0,4877.45 -4297,0 0,-4877.45 z"
         inkscape:connector-curvature="0" /></clipPath><clipPath
       id="clipPath744"
       clipPathUnits="userSpaceOnUse"><path
         id="path746"
         d="m 101.5,598.121 4297,0 0,4877.45 -4297,0 0,-4877.45 z"
         inkscape:connector-curvature="0" /></clipPath></defs><path
     id="path36"
     style="fill:#a6e2f9;fill-opacity:1;fill-rule:nonzero;stroke:none"
     d="m 261.64625,235.7775 c 0,10.55613 -5.44375,19.11125 -12.16125,19.11125 -6.71625,0 -12.15875,-8.55512 -12.15875,-19.11125 0,-10.55375 5.4425,-19.11125 12.15875,-19.11125 6.7175,0 12.16125,8.5575 12.16125,19.11125"
     inkscape:connector-curvature="0" /><path
     id="path38"
     style="fill:#a6e2f9;fill-opacity:1;fill-rule:nonzero;stroke:none"
     d="m 230.7475,204.83125 31.3725,0 0,-63.9575 -31.3725,0 0,63.9575 z"
     inkscape:connector-curvature="0" /><path
     id="path42"
     style="fill:#a6e2f9;fill-opacity:1;fill-rule:nonzero;stroke:none"
     d="m 282.91375,268.95475 7.02149,0 0,-210.93375 -7.02149,0 0,210.93375 z"
     inkscape:connector-curvature="0" /><path
     id="path44"
     style="fill:#a6e2f9;fill-opacity:1;fill-rule:nonzero;stroke:none"
     d="m 168.5925,268.95475 7.01904,0 0,-210.93375 -7.01904,0 0,210.93375 z"
     inkscape:connector-curvature="0" /><path
     id="path50"
     style="fill:none;stroke:#231f20;stroke-width:0.625;stroke-linecap:butt;stroke-linejoin:miter;stroke-miterlimit:4;stroke-dasharray:none;stroke-opacity:1"
     d="m 168.57875,26.85 0,-15.0825 M 289.815,26.85 l 0,-15.0825 m -121.23625,7.5425 121.23625,0"
     inkscape:connector-curvature="0" /><text
     style="font-variant:normal;font-weight:normal;font-size:7.5px;font-family:Helvetica;-inkscape-font-specification:Helvetica;writing-mode:lr-tb;fill:#00adef;fill-opacity:1;fill-rule:nonzero;stroke:none"
     id="text54"
     x="198.55499"
     y="29.772493"><tspan
       x="198.55499 200.64 204.81 208.56 210.645 213.1425 217.3125 221.0625 223.14751 224.8125 228.9825 233.1525 235.2375 239.4075 243.5775 247.3275 251.4975 255.66751"
       y="29.772493"
       id="tspan56">Instruction decode</tspan></text>
<text
     style="font-variant:normal;font-weight:normal;font-size:7.5px;font-family:Helvetica;-inkscape-font-specification:Helvetica;writing-mode:lr-tb;fill:#000000;fill-opacity:1;fill-rule:nonzero;stroke:none"
     id="text60"
     x="225.65625"
     y="13.4675"><tspan
       x="225.65625 227.32124"
       y="13.4675"
       id="tspan62">lw</tspan></text>
<path
     id="path458"
     style="fill:none;stroke:#231f20;stroke-width:0.625;stroke-linecap:butt;stroke-linejoin:miter;stroke-miterlimit:4;stroke-dasharray:none;stroke-opacity:1"
     d="m 101.23975,67.27875 21.3865,12.85875 0,13.4 -21.20488,12.8625 0,-15.94 3.60988,-3.80125 -3.7915,-3.805 0,-15.575 z"
     inkscape:connector-curvature="0" /><text
     style="font-variant:normal;font-weight:normal;font-size:5px;font-family:Helvetica;-inkscape-font-specification:Helvetica;writing-mode:lr-tb;fill:#000000;fill-opacity:1;fill-rule:nonzero;stroke:none"
     id="text462"
     x="105.9785"
     y="88.492493"><tspan
       x="105.9785 109.3135 112.0935"
       y="88.492493"
       id="tspan464">Add</tspan><tspan
       x="76.132248 79.467247 82.247246 85.027275 86.691742 89.471893 91.972099"
       y="146.73999"
       id="tspan466">Address</tspan></text>
<text
     style="font-variant:normal;font-weight:bold;font-size:5px;font-family:Helvetica;-inkscape-font-specification:Helvetica-Bold;writing-mode:lr-tb;fill:#000000;fill-opacity:1;fill-rule:nonzero;stroke:none"
     id="text468"
     x="93.251884"
     y="171.60526"><tspan
       x="93.251884 94.641891 97.696892 100.47689 102.14189 104.08689 107.14189 109.92189 111.58689 112.97689 116.03189"
       y="171.60526"
       id="tspan470">Instruction</tspan><tspan
       x="96.444763 100.88976 103.66976 108.11476 111.16976 113.11476"
       y="177.60379"
       id="tspan472">memory</tspan></text>
<path
     id="path474"
     style="fill:none;stroke:#231f20;stroke-width:0.625;stroke-linecap:butt;stroke-linejoin:miter;stroke-miterlimit:4;stroke-dasharray:none;stroke-opacity:1"
     d="m 137.5425,205.00875 -62.744625,0 0,-63.955 62.744625,0 0,63.955 z m 124.5775,-0.1775 -62.74375,0 0,-63.9575 62.74375,0 0,63.9575 z"
     inkscape:connector-curvature="0" /><text
     style="font-variant:normal;font-weight:normal;font-size:5px;font-family:Helvetica;-inkscape-font-specification:Helvetica;writing-mode:lr-tb;fill:#000000;fill-opacity:1;fill-rule:nonzero;stroke:none"
     id="text478"
     x="201.20375"
     y="147.38748"><tspan
       x="201.20375 204.81345 207.59314 210.37367"
       y="147.38748"
       id="tspan480">Read</tspan><tspan
       x="201.20375 202.86874 205.64874 208.42876 209.53876 212.03876 213.42876 216.20876 217.87375 219.26375"
       y="153.38651"
       id="tspan482">register 1</tspan></text>
<text
     transform="matrix(0,-1,1,0,0,0)"
     style="font-variant:normal;font-weight:normal;font-size:5px;font-family:Helvetica;-inkscape-font-specification:Helvetica;writing-mode:lr-tb;fill:#000000;fill-opacity:1;fill-rule:nonzero;stroke:none"
     id="text484"
     x="-162.41125"
     y="180.61749"><tspan
       x="-162.41125 -161.02124 -158.24124 -155.74124 -154.35126 -152.68625 -149.90625 -147.40625 -146.01624 -144.90698 -142.12698"
       y="180.61749"
       id="tspan486">Instruction</tspan></text>
<text
     style="font-variant:normal;font-weight:normal;font-size:5px;font-family:Helvetica;-inkscape-font-specification:Helvetica;writing-mode:lr-tb;fill:#000000;fill-opacity:1;fill-rule:nonzero;stroke:none"
     id="text488"
     x="201.20375"
     y="163.76624"><tspan
       x="201.20375 204.81345 207.59314 210.37367"
       y="163.76624"
       id="tspan490">Read</tspan><tspan
       x="201.20375 202.86874 205.64874 208.42876 209.53876 212.03876 213.42876 216.20876 217.87375 219.26375"
       y="169.76624"
       id="tspan492">register 2</tspan><tspan
       x="201.20375 205.92375 207.58875 208.69875 210.08875"
       y="181.48256"
       id="tspan494">Write</tspan><tspan
       x="201.20375 202.86874 205.64874 208.42876 209.53876 212.03876 213.42876 216.20876"
       y="187.48254"
       id="tspan496">register</tspan><tspan
       x="201.20375 205.92375 207.58875 208.69875 210.08875"
       y="195.85754"
       id="tspan498">Write</tspan><tspan
       x="201.20375 203.98375 206.76375 208.15375"
       y="201.85754"
       id="tspan500">data</tspan><tspan
       x="246.54013 250.14983 252.9295 255.71005"
       y="151.56018"
       id="tspan502">Read</tspan><tspan
       x="246.54013 249.32013 252.10013 253.49011 256.26947 257.65948"
       y="157.56116"
       id="tspan504">data 1</tspan><tspan
       x="246.54013 250.14983 252.9295 255.71005"
       y="176.63242"
       id="tspan506">Read</tspan><tspan
       x="246.54013 249.32013 252.10013 253.49011 256.26947 257.65948"
       y="182.63242"
       id="tspan508">data 2</tspan></text>
<path
     id="path510"
     style="fill:none;stroke:#231f20;stroke-width:0.625;stroke-linecap:butt;stroke-linejoin:miter;stroke-miterlimit:4;stroke-dasharray:none;stroke-opacity:1"
     d="m 424.7,223.63 62.7475,0 0,-63.9575 -62.7475,0 0,63.9575 z"
     inkscape:connector-curvature="0" /><text
     style="font-variant:normal;font-weight:bold;font-size:5px;font-family:Helvetica;-inkscape-font-specification:Helvetica-Bold;writing-mode:lr-tb;fill:#000000;fill-opacity:1;fill-rule:nonzero;stroke:none"
     id="text514"
     x="219.355"
     y="174.69376"><tspan
       x="219.355 222.96469 225.74438 228.79909 230.18996 232.96996 234.63496 237.41496 239.35995"
       y="174.69376"
       id="tspan516">Registers</tspan></text>
<text
     style="font-variant:normal;font-weight:normal;font-size:5px;font-family:Helvetica;-inkscape-font-specification:Helvetica;writing-mode:lr-tb;fill:#000000;fill-opacity:1;fill-rule:nonzero;stroke:none"
     id="text518"
     x="428.24246"
     y="177.31534"><tspan
       x="428.24246 431.57745 434.35745 437.13748 438.80194 441.58209 444.08231"
       y="177.31534"
       id="tspan520">Address</tspan><tspan
       x="428.24243 432.96243 434.62744 435.73743 437.12744"
       y="214.47009"
       id="tspan522">Write</tspan><tspan
       x="428.24243 431.02243 433.80243 435.19244"
       y="220.46912"
       id="tspan524">data</tspan><tspan
       x="471.77368 475.38339 478.16309 480.9436"
       y="173.1825"
       id="tspan526">Read</tspan><tspan
       x="472.88354 475.66354 478.44354 479.83356"
       y="179.1825"
       id="tspan528">data</tspan></text>
<text
     style="font-variant:normal;font-weight:bold;font-size:5px;font-family:Helvetica;-inkscape-font-specification:Helvetica-Bold;writing-mode:lr-tb;fill:#000000;fill-opacity:1;fill-rule:nonzero;stroke:none"
     id="text530"
     x="450.65356"
     y="190.22253"><tspan
       x="450.65356 454.26324 457.0437 458.70868"
       y="190.22253"
       id="tspan532">Data</tspan><tspan
       x="446.34595 450.79092 453.57092 458.01593 461.07092 463.01593"
       y="196.22253"
       id="tspan534">memory</tspan></text>
<path
     id="path536"
     style="fill:none;stroke:#231f20;stroke-width:0.625;stroke-linecap:butt;stroke-linejoin:miter;stroke-miterlimit:4;stroke-dasharray:none;stroke-opacity:1"
     d="m 333.5775,80.83625 27.4025,12.86125 0,15.41 -27.22,10.85125 0,-15.93875 2.605,-3.80375 -2.7875,-3.8025 0,-15.5775 z"
     inkscape:connector-curvature="0" /><text
     style="font-variant:normal;font-weight:bold;font-size:5px;font-family:Helvetica;-inkscape-font-specification:Helvetica-Bold;writing-mode:lr-tb;fill:#000000;fill-opacity:1;fill-rule:nonzero;stroke:none"
     id="text540"
     x="337.0625"
     y="102.02625"><tspan
       x="337.0625 340.67218 343.72754"
       y="102.02625"
       id="tspan542">Add</tspan></text>
<text
     style="font-variant:normal;font-weight:normal;font-size:5px;font-family:Helvetica;-inkscape-font-specification:Helvetica;writing-mode:lr-tb;fill:#000000;fill-opacity:1;fill-rule:nonzero;stroke:none"
     id="text544"
     x="350.84521"
     y="99.607788"><tspan
       x="350.84521 354.18021 356.96021"
       y="99.607788"
       id="tspan546">Add</tspan><tspan
       x="347.51514 349.18015 351.96014 354.46014 357.24014 358.35013"
       y="105.60876"
       id="tspan548">result</tspan></text>
<path
     id="path550"
     style="fill:none;stroke:#231f20;stroke-width:0.625;stroke-linecap:butt;stroke-linejoin:miter;stroke-miterlimit:4;stroke-dasharray:none;stroke-opacity:1"
     d="m 344.7375,145.6575 32.83125,15.405 0,18.46375 -32.615,13.00375 0,-19.095 3.12125,-4.55875 -3.3375,-4.55625 0,-18.6625 z"
     inkscape:connector-curvature="0" /><text
     style="font-variant:normal;font-weight:bold;font-size:5px;font-family:Helvetica;-inkscape-font-specification:Helvetica-Bold;writing-mode:lr-tb;fill:#000000;fill-opacity:1;fill-rule:nonzero;stroke:none"
     id="text554"
     x="348.9725"
     y="170.83374"><tspan
       x="348.9725 352.58218 355.63754"
       y="170.83374"
       id="tspan556">ALU</tspan></text>
<text
     style="font-variant:normal;font-weight:normal;font-size:5px;font-family:Helvetica;-inkscape-font-specification:Helvetica;writing-mode:lr-tb;fill:#000000;fill-opacity:1;fill-rule:nonzero;stroke:none"
     id="text558"
     x="365.61606"
     y="173.28735"><tspan
       x="365.61606 368.95105 371.73105"
       y="173.28735"
       id="tspan560">ALU</tspan><tspan
       x="363.11606 364.78104 367.56104 370.06104 372.84106 373.95105"
       y="179.28735"
       id="tspan562">result</tspan></text>
<path
     id="path564"
     style="fill:none;stroke:#231f20;stroke-width:0.625;stroke-linecap:butt;stroke-linejoin:miter;stroke-miterlimit:4;stroke-dasharray:none;stroke-opacity:1"
     d="m 317.70875,110.83875 c 0,8.77 -4.205,15.87625 -9.3875,15.87625 -5.18625,0 -9.3875,-7.10625 -9.3875,-15.87625 0,-8.7675 4.20125,-15.8775 9.3875,-15.8775 5.1825,0 9.3875,7.11 9.3875,15.8775 z"
     inkscape:connector-curvature="0" /><text
     style="font-variant:normal;font-weight:normal;font-size:5px;font-family:Helvetica;-inkscape-font-specification:Helvetica;writing-mode:lr-tb;fill:#000000;fill-opacity:1;fill-rule:nonzero;stroke:none"
     id="text568"
     x="365.06125"
     y="164.73999"><tspan
       x="365.06125 368.11624 370.89624 372.56125"
       y="164.73999"
       id="tspan570">Zero</tspan></text>
<text
     style="font-variant:normal;font-weight:bold;font-size:5px;font-family:Helvetica;-inkscape-font-specification:Helvetica-Bold;writing-mode:lr-tb;fill:#000000;fill-opacity:1;fill-rule:nonzero;stroke:none"
     id="text572"
     x="302.48462"
     y="109.05887"><tspan
       x="302.48462 305.81961 308.87463 310.26462 311.92819"
       y="109.05887"
       id="tspan574">Shift</tspan><tspan
       x="302.48462 303.87463 306.65463 308.31961 309.98462 311.37463"
       y="115.05887"
       id="tspan576">left 2</tspan></text>
<path
     id="path578"
     style="fill:none;stroke:#231f20;stroke-width:0.625;stroke-linecap:butt;stroke-linejoin:miter;stroke-miterlimit:4;stroke-dasharray:none;stroke-opacity:1"
     d="m 261.64625,235.7775 c 0,10.55613 -5.44375,19.11125 -12.16125,19.11125 -6.71625,0 -12.15875,-8.55512 -12.15875,-19.11125 0,-10.55375 5.4425,-19.11125 12.15875,-19.11125 6.7175,0 12.16125,8.5575 12.16125,19.11125 z"
     inkscape:connector-curvature="0" /><text
     style="font-variant:normal;font-weight:bold;font-size:5px;font-family:Helvetica;-inkscape-font-specification:Helvetica-Bold;writing-mode:lr-tb;fill:#000000;fill-opacity:1;fill-rule:nonzero;stroke:none"
     id="text582"
     x="243.235"
     y="234.065"><tspan
       x="243.235 246.57001 247.96001 251.015 254.07001"
       y="234.065"
       id="tspan584">Sign-</tspan><tspan
       x="241.42787 244.20787 246.98746 248.65192 251.43207 254.48746"
       y="240.065"
       id="tspan586">extend</tspan></text>
<path
     id="path596"
     style="fill:none;stroke:#231f20;stroke-width:0.625;stroke-linecap:butt;stroke-linejoin:miter;stroke-miterlimit:4;stroke-dasharray:none;stroke-opacity:1"
     d="m 175.61125,268.95475 -14.04125,0 0,-210.9335 14.04125,0 0,210.9335 z m 121.3425,0 -14.04,0 0,-210.9335 14.04,0 0,210.9335 z m 110.98125,0 -14.0375,0 0,-210.9335 14.0375,0 0,210.9335 z m 103.29375,0 -14.04125,0 0,-210.9335 14.04125,0 0,210.9335 z M 57.544375,160.755 l -12.5365,0 0,-29.58625 12.5365,0 0,29.58625 z"
     inkscape:connector-curvature="0" /><path
     id="path598"
     style="fill:none;stroke:#231f20;stroke-width:0.9375;stroke-linecap:butt;stroke-linejoin:miter;stroke-miterlimit:4;stroke-dasharray:none;stroke-opacity:1"
     d="m 538.93125,187.64 5.725,0 0,93.59988 -358.35,0 0,-84.24113 8.21625,0"
     inkscape:connector-curvature="0" /><path
     id="path600"
     style="fill:#231f20;fill-opacity:1;fill-rule:nonzero;stroke:none"
     d="m 196.18375,196.28 c -1.16375,-0.35125 -1.9175,-0.675 -2.84875,-1.05125 l 0,3.54875 c 0.33125,-0.15875 1.685,-0.7 2.84875,-1.05 1.24375,-0.37625 2.37125,-0.63375 3.10375,-0.72375 -0.7325,-0.0913 -1.86,-0.34875 -3.10375,-0.72375"
     inkscape:connector-curvature="0" /><path
     id="path602"
     style="fill:none;stroke:#231f20;stroke-width:0.9375;stroke-linecap:butt;stroke-linejoin:miter;stroke-miterlimit:4;stroke-dasharray:none;stroke-opacity:1"
     d="m 487.16125,174.60375 6.0175,0"
     inkscape:connector-curvature="0" /><path
     id="path604"
     style="fill:#231f20;fill-opacity:1;fill-rule:nonzero;stroke:none"
     d="m 494.02375,173.885 c -1.16125,-0.35125 -1.91875,-0.675 -2.85125,-1.05125 l 0,3.54875 c 0.335,-0.15875 1.69,-0.7 2.85125,-1.04875 1.2425,-0.3775 2.37375,-0.635 3.10375,-0.725 -0.73,-0.0913 -1.86125,-0.34875 -3.10375,-0.72375"
     inkscape:connector-curvature="0" /><path
     id="path606"
     style="fill:none;stroke:#231f20;stroke-width:0.9375;stroke-linecap:butt;stroke-linejoin:miter;stroke-miterlimit:4;stroke-dasharray:none;stroke-opacity:1"
     d="m 194.5225,148.53 -11.26625,0 0,88.24838 49.18125,0"
     inkscape:connector-curvature="0" /><path
     id="path608"
     style="fill:#231f20;fill-opacity:1;fill-rule:nonzero;stroke:none"
     d="m 233.96375,236.05875 c -1.1625,-0.35012 -1.92,-0.67487 -2.8525,-1.04987 l 0,3.54737 c 0.335,-0.15863 1.69,-0.69625 2.8525,-1.04875 1.245,-0.375 2.3725,-0.63388 3.1025,-0.72512 -0.73,-0.0899 -1.8575,-0.34775 -3.1025,-0.72363"
     inkscape:connector-curvature="0" /><path
     id="path610"
     style="fill:#231f20;fill-opacity:1;fill-rule:nonzero;stroke:none"
     d="m 196.18375,147.80875 c -1.16375,-0.3525 -1.9175,-0.67625 -2.84875,-1.0475 l 0,3.54625 c 0.33125,-0.15875 1.685,-0.69875 2.84875,-1.04875 1.24375,-0.37625 2.37125,-0.63375 3.10375,-0.725 -0.7325,-0.0937 -1.86,-0.35125 -3.10375,-0.725"
     inkscape:connector-curvature="0" /><path
     id="path612"
     style="fill:#231f20;fill-opacity:1;fill-rule:nonzero;stroke:none"
     d="m 196.18375,164.18625 c -1.16375,-0.34875 -1.9175,-0.67375 -2.84875,-1.0475 l 0,3.54625 c 0.33125,-0.15875 1.685,-0.6975 2.84875,-1.04875 1.24375,-0.37625 2.37125,-0.63375 3.10375,-0.725 -0.7325,-0.09 -1.86,-0.3475 -3.10375,-0.725"
     inkscape:connector-curvature="0" /><path
     id="path614"
     style="fill:none;stroke:#231f20;stroke-width:0.9375;stroke-linecap:butt;stroke-linejoin:miter;stroke-miterlimit:4;stroke-dasharray:none;stroke-opacity:1"
     d="m 183.42375,164.9075 11.24,0"
     inkscape:connector-curvature="0" /><path
     id="path616"
     style="fill:#231f20;fill-opacity:1;fill-rule:nonzero;stroke:none"
     d="m 196.18375,181.8125 c -1.16375,-0.35125 -1.9175,-0.67375 -2.84875,-1.0475 l 0,3.5475 c 0.33125,-0.15875 1.685,-0.7 2.84875,-1.05 1.24375,-0.3775 2.37125,-0.6325 3.10375,-0.725 -0.7325,-0.0925 -1.86,-0.35125 -3.10375,-0.725"
     inkscape:connector-curvature="0" /><path
     id="path618"
     style="fill:none;stroke:#231f20;stroke-width:0.9375;stroke-linecap:butt;stroke-linejoin:miter;stroke-miterlimit:4;stroke-dasharray:none;stroke-opacity:1"
     d="m 137.64,173.03125 19.26375,0 m 26.52,9.50375 11.24,0"
     inkscape:connector-curvature="0" /><path
     id="path620"
     style="fill:#231f20;fill-opacity:1;fill-rule:nonzero;stroke:none"
     d="m 158.235,172.3075 c -1.1625,-0.35 -1.91875,-0.675 -2.85125,-1.05 l 0,3.5475 c 0.335,-0.15875 1.68875,-0.69625 2.85125,-1.04875 1.245,-0.37375 2.3725,-0.63375 3.10375,-0.725 -0.73125,-0.09 -1.85875,-0.3475 -3.10375,-0.72375"
     inkscape:connector-curvature="0" /><path
     id="path622"
     style="fill:#231f20;fill-opacity:1;fill-rule:nonzero;stroke:none"
     d="m 158.235,86.285 c -1.1625,-0.35125 -1.91875,-0.675 -2.85125,-1.05 l 0,3.5475 c 0.335,-0.15875 1.68875,-0.7 2.85125,-1.04875 1.245,-0.3775 2.3725,-0.635 3.10375,-0.725 C 160.6075,86.91745 159.48,86.66 158.235,86.285"
     inkscape:connector-curvature="0" /><text
     style="font-variant:normal;font-weight:bold;font-size:5px;font-family:Helvetica;-inkscape-font-specification:Helvetica-Bold;writing-mode:lr-tb;fill:#000000;fill-opacity:1;fill-rule:nonzero;stroke:none"
     id="text626"
     x="47.804749"
     y="147.20374"><tspan
       x="47.804749 51.139751"
       y="147.20374"
       id="tspan628">PC</tspan></text>
<path
     id="path630"
     style="fill:none;stroke:#231f20;stroke-width:0.9375;stroke-linecap:butt;stroke-linejoin:miter;stroke-miterlimit:4;stroke-dasharray:none;stroke-opacity:1"
     d="m 377.5175,174.50875 12.03625,0 M 377.5175,163.01 l 11.7975,0"
     inkscape:connector-curvature="0" /><path
     id="path632"
     style="fill:#231f20;fill-opacity:1;fill-rule:nonzero;stroke:none"
     d="m 390.745,173.78875 c -1.1625,-0.35375 -1.91625,-0.675 -2.84875,-1.05 l 0,3.5475 c 0.33375,-0.15875 1.68625,-0.7 2.84875,-1.04875 1.245,-0.3775 2.37375,-0.635 3.10625,-0.725 -0.7325,-0.0913 -1.86125,-0.35 -3.10625,-0.72375"
     inkscape:connector-curvature="0" /><path
     id="path634"
     style="fill:#231f20;fill-opacity:1;fill-rule:nonzero;stroke:none"
     d="m 390.745,162.27125 c -1.1625,-0.35125 -1.91625,-0.675 -2.84875,-1.05125 l 0,3.54875 c 0.33375,-0.15875 1.68625,-0.7 2.84875,-1.05 1.245,-0.37625 2.37375,-0.63375 3.10625,-0.72375 -0.7325,-0.0913 -1.86125,-0.34875 -3.10625,-0.72375"
     inkscape:connector-curvature="0" /><path
     id="path636"
     style="fill:none;stroke:#231f20;stroke-width:0.9375;stroke-linecap:butt;stroke-linejoin:miter;stroke-miterlimit:4;stroke-dasharray:none;stroke-opacity:1"
     d="m 407.935,175.27 12.285,0"
     inkscape:connector-curvature="0" /><path
     id="path638"
     style="fill:#231f20;fill-opacity:1;fill-rule:nonzero;stroke:none"
     d="m 421.36,174.55 c -1.16125,-0.35 -1.91875,-0.67375 -2.85125,-1.05 l 0,3.5475 c 0.335,-0.15875 1.69,-0.6975 2.85125,-1.04875 1.245,-0.37625 2.37375,-0.63375 3.10375,-0.725 -0.73,-0.09 -1.85875,-0.3475 -3.10375,-0.72375"
     inkscape:connector-curvature="0" /><path
     id="path640"
     style="fill:none;stroke:#231f20;stroke-width:0.9375;stroke-linecap:butt;stroke-linejoin:miter;stroke-miterlimit:4;stroke-dasharray:none;stroke-opacity:1"
     d="m 407.935,215.885 12.53625,0"
     inkscape:connector-curvature="0" /><path
     id="path642"
     style="fill:#231f20;fill-opacity:1;fill-rule:nonzero;stroke:none"
     d="m 421.61,215.165 c -1.1625,-0.35 -1.9175,-0.675 -2.85,-1.05 l 0,3.5475 c 0.335,-0.15875 1.6875,-0.69625 2.85,-1.04875 1.245,-0.37375 2.3725,-0.63125 3.105,-0.725 -0.7325,-0.0913 -1.86,-0.34875 -3.105,-0.72375"
     inkscape:connector-curvature="0" /><path
     id="path644"
     style="fill:none;stroke:#231f20;stroke-width:0.9375;stroke-linecap:butt;stroke-linejoin:miter;stroke-miterlimit:4;stroke-dasharray:none;stroke-opacity:1"
     d="m 413.19875,175.27 0,56.65975 79.98,0"
     inkscape:connector-curvature="0" /><path
     id="path646"
     style="fill:#231f20;fill-opacity:1;fill-rule:nonzero;stroke:none"
     d="m 493.8925,231.21 c -1.1625,-0.35 -1.91625,-0.675 -2.85,-1.05 l 0,3.54763 c 0.335,-0.15913 1.6875,-0.69626 2.85,-1.04888 1.245,-0.374 2.3725,-0.63125 3.105,-0.725 -0.7325,-0.0914 -1.86,-0.34775 -3.105,-0.72375"
     inkscape:connector-curvature="0" /><path
     id="path648"
     style="fill:none;stroke:#231f20;stroke-width:0.9375;stroke-linecap:butt;stroke-linejoin:miter;stroke-miterlimit:4;stroke-dasharray:none;stroke-opacity:1"
     d="m 511.48,175.27 10.27875,0"
     inkscape:connector-curvature="0" /><path
     id="path650"
     style="fill:#231f20;fill-opacity:1;fill-rule:nonzero;stroke:none"
     d="m 522.98875,174.55 c -1.1625,-0.35 -1.91625,-0.67375 -2.84875,-1.05 l 0,3.5475 c 0.33375,-0.15875 1.68625,-0.6975 2.84875,-1.04875 1.245,-0.37625 2.37375,-0.63375 3.10625,-0.725 -0.7325,-0.09 -1.86125,-0.3475 -3.10625,-0.72375"
     inkscape:connector-curvature="0" /><path
     id="path652"
     style="fill:none;stroke:#231f20;stroke-width:0.9375;stroke-linecap:butt;stroke-linejoin:miter;stroke-miterlimit:4;stroke-dasharray:none;stroke-opacity:1"
     d="m 511.22875,232.18375 6.51875,0 0,-34.09875 5.76625,0"
     inkscape:connector-curvature="0" /><path
     id="path654"
     style="fill:#231f20;fill-opacity:1;fill-rule:nonzero;stroke:none"
     d="m 523.3575,197.365 c -1.165,-0.35 -1.91875,-0.67375 -2.85125,-1.05 l 0,3.5475 c 0.33375,-0.15875 1.68625,-0.6975 2.85125,-1.04875 1.245,-0.37625 2.3725,-0.63375 3.1025,-0.725 -0.73,-0.09 -1.8575,-0.3475 -3.1025,-0.72375"
     inkscape:connector-curvature="0" /><path
     id="path656"
     style="fill:none;stroke:#231f20;stroke-width:0.9375;stroke-linecap:butt;stroke-linejoin:miter;stroke-miterlimit:4;stroke-dasharray:none;stroke-opacity:1"
     d="m 408.18625,162.485 6.2675,0"
     inkscape:connector-curvature="0" /><path
     id="path658"
     style="fill:#231f20;fill-opacity:1;fill-rule:nonzero;stroke:none"
     d="m 416.0775,161.77875 c -1.135,-0.3425 -1.875,-0.65875 -2.78625,-1.02375 l 0,3.46625 c 0.325,-0.155 1.65125,-0.68125 2.78625,-1.025 1.2175,-0.36875 2.31875,-0.61875 3.035,-0.7075 -0.71625,-0.0913 -1.8175,-0.3425 -3.035,-0.71"
     inkscape:connector-curvature="0" /><path
     id="path660"
     style="fill:none;stroke:#231f20;stroke-width:0.9375;stroke-linecap:butt;stroke-linejoin:miter;stroke-miterlimit:4;stroke-dasharray:none;stroke-opacity:1"
     d="m 331.05,188.895 9.6925,0"
     inkscape:connector-curvature="0" /><path
     id="path662"
     style="fill:#231f20;fill-opacity:1;fill-rule:nonzero;stroke:none"
     d="m 341.73375,188.175 c -1.16125,-0.35375 -1.91875,-0.6775 -2.85125,-1.05 l 0,3.5475 c 0.335,-0.15875 1.69,-0.69875 2.85125,-1.04875 1.2425,-0.37625 2.37375,-0.63375 3.10375,-0.725 -0.73,-0.0937 -1.86125,-0.35125 -3.10375,-0.72375"
     inkscape:connector-curvature="0" /><path
     id="path664"
     style="fill:none;stroke:#231f20;stroke-width:0.9375;stroke-linecap:butt;stroke-linejoin:miter;stroke-miterlimit:4;stroke-dasharray:none;stroke-opacity:1"
     d="m 296.87125,152.455 43.6225,0"
     inkscape:connector-curvature="0" /><path
     id="path666"
     style="fill:#231f20;fill-opacity:1;fill-rule:nonzero;stroke:none"
     d="m 341.47,151.735 c -1.16125,-0.35 -1.91875,-0.67375 -2.85125,-1.04875 l 0,3.54625 c 0.335,-0.15875 1.69,-0.695 2.85125,-1.0475 1.2425,-0.375 2.37375,-0.635 3.10375,-0.725 -0.73,-0.0912 -1.86125,-0.3475 -3.10375,-0.725"
     inkscape:connector-curvature="0" /><path
     id="path668"
     style="fill:none;stroke:#231f20;stroke-width:0.9375;stroke-linecap:butt;stroke-linejoin:miter;stroke-miterlimit:4;stroke-dasharray:none;stroke-opacity:1"
     d="m 296.87125,178.02875 16.9625,0 m -5.5125,-51.31375 0,108.7275 -11.7025,0"
     inkscape:connector-curvature="0" /><path
     id="path670"
     style="fill:#231f20;fill-opacity:1;fill-rule:nonzero;stroke:none"
     d="m 314.89375,177.30875 c -1.1625,-0.35 -1.92,-0.675 -2.8525,-1.05 l 0,3.5475 c 0.335,-0.15875 1.69,-0.69625 2.8525,-1.04875 1.245,-0.375 2.3725,-0.63375 3.1025,-0.725 -0.73,-0.09 -1.8575,-0.3475 -3.1025,-0.72375"
     inkscape:connector-curvature="0" /><path
     id="path672"
     style="fill:none;stroke:#231f20;stroke-width:0.9375;stroke-linecap:butt;stroke-linejoin:miter;stroke-miterlimit:4;stroke-dasharray:none;stroke-opacity:1"
     d="m 308.6525,200.5925 5.26625,0"
     inkscape:connector-curvature="0" /><path
     id="path674"
     style="fill:#231f20;fill-opacity:1;fill-rule:nonzero;stroke:none"
     d="m 315.11,199.87375 c -1.16125,-0.35125 -1.91875,-0.675 -2.85125,-1.05125 l 0,3.54875 c 0.335,-0.15875 1.69,-0.7 2.85125,-1.05 1.245,-0.37625 2.37375,-0.63375 3.10375,-0.72375 -0.73,-0.0913 -1.85875,-0.34875 -3.10375,-0.72375"
     inkscape:connector-curvature="0" /><path
     id="path676"
     style="fill:none;stroke:#231f20;stroke-width:0.9375;stroke-linecap:butt;stroke-linejoin:miter;stroke-miterlimit:4;stroke-dasharray:none;stroke-opacity:1"
     d="m 302.38625,178.02875 0,38.11 87.24875,0"
     inkscape:connector-curvature="0" /><path
     id="path678"
     style="fill:#231f20;fill-opacity:1;fill-rule:nonzero;stroke:none"
     d="m 390.58375,215.41625 c -1.16125,-0.35125 -1.91625,-0.675 -2.84875,-1.0475 l 0,3.54625 c 0.335,-0.1575 1.6875,-0.6975 2.84875,-1.0475 1.245,-0.37625 2.37375,-0.63375 3.10625,-0.725 -0.7325,-0.0937 -1.86125,-0.35125 -3.10625,-0.72625"
     inkscape:connector-curvature="0" /><path
     id="path680"
     style="fill:none;stroke:#231f20;stroke-width:0.9375;stroke-linecap:butt;stroke-linejoin:miter;stroke-miterlimit:4;stroke-dasharray:none;stroke-opacity:1"
     d="m 317.67875,112.09125 11.785,0"
     inkscape:connector-curvature="0" /><path
     id="path682"
     style="fill:#231f20;fill-opacity:1;fill-rule:nonzero;stroke:none"
     d="m 330.61125,111.37125 c -1.1625,-0.35 -1.91625,-0.675 -2.84875,-1.05 l 0,3.5475 c 0.33375,-0.15875 1.68625,-0.69625 2.84875,-1.04875 1.245,-0.375 2.3725,-0.63375 3.105,-0.725 -0.7325,-0.09 -1.86,-0.34625 -3.105,-0.72375"
     inkscape:connector-curvature="0" /><path
     id="path684"
     style="fill:none;stroke:#231f20;stroke-width:0.9375;stroke-linecap:butt;stroke-linejoin:miter;stroke-miterlimit:4;stroke-dasharray:none;stroke-opacity:1"
     d="m 361.30375,101.31 28.83125,0"
     inkscape:connector-curvature="0" /><path
     id="path686"
     style="fill:#231f20;fill-opacity:1;fill-rule:nonzero;stroke:none"
     d="m 390.63,100.59 c -1.16125,-0.35 -1.91875,-0.67375 -2.85125,-1.04875 l 0,3.54625 c 0.335,-0.15875 1.69,-0.695 2.85125,-1.0475 1.245,-0.375 2.37375,-0.635 3.10375,-0.725 -0.73,-0.0913 -1.85875,-0.3475 -3.10375,-0.725"
     inkscape:connector-curvature="0" /><path
     id="path688"
     style="fill:none;stroke:#231f20;stroke-width:0.9375;stroke-linecap:butt;stroke-linejoin:miter;stroke-miterlimit:4;stroke-dasharray:none;stroke-opacity:1"
     d="m 296.87125,87.52125 32.34125,0"
     inkscape:connector-curvature="0" /><path
     id="path690"
     style="fill:#231f20;fill-opacity:1;fill-rule:nonzero;stroke:none"
     d="m 330.36,86.8025 c -1.1625,-0.35125 -1.9175,-0.675 -2.8525,-1.05125 l 0,3.54875 c 0.3375,-0.15875 1.69,-0.7 2.8525,-1.04875 1.245,-0.3775 2.3725,-0.635 3.105,-0.725 -0.7325,-0.0913 -1.86,-0.3475 -3.105,-0.72375"
     inkscape:connector-curvature="0" /><path
     id="path692"
     style="fill:none;stroke:#231f20;stroke-width:0.9375;stroke-linecap:butt;stroke-linejoin:miter;stroke-miterlimit:4;stroke-dasharray:none;stroke-opacity:1"
     d="m 262.27125,152.70625 15.59375,0"
     inkscape:connector-curvature="0" /><path
     id="path694"
     style="fill:#231f20;fill-opacity:1;fill-rule:nonzero;stroke:none"
     d="m 279.525,151.985 c -1.1625,-0.35 -1.91875,-0.675 -2.8525,-1.04875 l 0,3.5475 c 0.335,-0.15875 1.69,-0.69625 2.8525,-1.04875 1.245,-0.375 2.3725,-0.63125 3.1025,-0.72625 -0.73,-0.09 -1.8575,-0.3475 -3.1025,-0.72375"
     inkscape:connector-curvature="0" /><path
     id="path696"
     style="fill:none;stroke:#231f20;stroke-width:0.9375;stroke-linecap:butt;stroke-linejoin:miter;stroke-miterlimit:4;stroke-dasharray:none;stroke-opacity:1"
     d="m 262.02125,177.77875 15.84375,0"
     inkscape:connector-curvature="0" /><path
     id="path698"
     style="fill:#231f20;fill-opacity:1;fill-rule:nonzero;stroke:none"
     d="m 279.525,177.06 c -1.1625,-0.35125 -1.91875,-0.675 -2.8525,-1.05125 l 0,3.54875 c 0.335,-0.15875 1.69,-0.7 2.8525,-1.05 1.245,-0.37625 2.3725,-0.63375 3.1025,-0.725 -0.73,-0.09 -1.8575,-0.3475 -3.1025,-0.7225"
     inkscape:connector-curvature="0" /><path
     id="path700"
     style="fill:none;stroke:#231f20;stroke-width:0.9375;stroke-linecap:butt;stroke-linejoin:miter;stroke-miterlimit:4;stroke-dasharray:none;stroke-opacity:1"
     d="m 175.7775,87.02125 102.0875,0"
     inkscape:connector-curvature="0" /><path
     id="path702"
     style="fill:#231f20;fill-opacity:1;fill-rule:nonzero;stroke:none"
     d="m 279.525,86.3 c -1.1625,-0.3525 -1.91875,-0.67625 -2.8525,-1.0475 l 0,3.545 c 0.335,-0.1575 1.69,-0.6975 2.8525,-1.0475 1.245,-0.37625 2.3725,-0.63375 3.1025,-0.725 -0.73,-0.0937 -1.8575,-0.35125 -3.1025,-0.725"
     inkscape:connector-curvature="0" /><path
     id="path704"
     style="fill:none;stroke:#231f20;stroke-width:0.9375;stroke-linecap:butt;stroke-linejoin:miter;stroke-miterlimit:4;stroke-dasharray:none;stroke-opacity:1"
     d="m 87.024375,100.56 10.029375,0 m 26.07375,-13.53875 34.59625,0"
     inkscape:connector-curvature="0" /><path
     id="path706"
     style="fill:#231f20;fill-opacity:1;fill-rule:nonzero;stroke:none"
     d="m 98.02438,99.84 c -1.1635,-0.35375 -1.91788,-0.6775 -2.850505,-1.05 l 0,3.5475 c 0.333505,-0.15875 1.687005,-0.7 2.850505,-1.04875 1.24375,-0.37625 2.37162,-0.63375 3.104,-0.725 -0.73238,-0.0937 -1.86025,-0.35 -3.104,-0.72375"
     inkscape:connector-curvature="0" /><path
     id="path708"
     style="fill:none;stroke:#231f20;stroke-width:0.9375;stroke-linecap:butt;stroke-linejoin:miter;stroke-miterlimit:4;stroke-dasharray:none;stroke-opacity:1"
     d="m 57.4395,145.18625 13.04,0"
     inkscape:connector-curvature="0" /><path
     id="path710"
     style="fill:#231f20;fill-opacity:1;fill-rule:nonzero;stroke:none"
     d="m 71.388625,144.46625 c -1.1635,-0.35375 -1.917875,-0.67375 -2.8505,-1.04875 l 0,3.54625 c 0.3335,-0.15875 1.687,-0.69875 2.8505,-1.0475 1.24375,-0.3775 2.372125,-0.63625 3.104,-0.725 -0.731875,-0.0925 -1.86025,-0.35125 -3.104,-0.725"
     inkscape:connector-curvature="0" /><path
     id="path712"
     style="fill:none;stroke:#231f20;stroke-width:0.9375;stroke-linecap:butt;stroke-linejoin:miter;stroke-miterlimit:4;stroke-dasharray:none;stroke-opacity:1"
     d="m 63.4575,145.18625 0,-69.1975 33.09475,0"
     inkscape:connector-curvature="0" /><path
     id="path714"
     style="fill:#231f20;fill-opacity:1;fill-rule:nonzero;stroke:none"
     d="m 97.84475,75.2675 c -1.16212,-0.34875 -1.919,-0.67375 -2.851625,-1.0475 l 0,3.54625 C 95.32763,77.6075 96.68263,77.07 97.84475,76.7175 c 1.24413,-0.37375 2.373,-0.63125 3.1035,-0.725 -0.7305,-0.0913 -1.85937,-0.34875 -3.1035,-0.725"
     inkscape:connector-curvature="0" /><path
     id="path716"
     style="fill:none;stroke:#231f20;stroke-width:0.9375;stroke-linecap:butt;stroke-linejoin:miter;stroke-miterlimit:4;stroke-dasharray:none;stroke-opacity:1"
     d="m 175.61125,174.94 5.515,0"
     inkscape:connector-curvature="0" /><text
     style="font-variant:normal;font-weight:normal;font-size:5px;font-family:Helvetica;-inkscape-font-specification:Helvetica;writing-mode:lr-tb;fill:#000000;fill-opacity:1;fill-rule:nonzero;stroke:none"
     id="text720"
     x="80.828125"
     y="102.56375"><tspan
       x="80.828125"
       y="102.56375"
       id="tspan722">4</tspan><tspan
       x="283.40439 284.79437 288.40439 289.79437 293.12939 163.17288 164.56288 167.61787 169.00787 170.39787 391.05286 394.38788 397.72287 399.11288 403.27789 406.61288"
       y="54.151123"
       id="tspan724">ID/EXIF/IDEX/MEM</tspan></text>
<path
     id="path726"
     style="fill:none;stroke:#231f20;stroke-width:0.9375;stroke-linecap:butt;stroke-linejoin:miter;stroke-miterlimit:4;stroke-dasharray:none;stroke-opacity:1"
     d="m 261.595,236.88875 16.995,0"
     inkscape:connector-curvature="0" /><path
     id="path728"
     style="fill:#231f20;fill-opacity:1;fill-rule:nonzero;stroke:none"
     d="m 279.6175,236.17 c -1.1625,-0.3515 -1.91875,-0.67525 -2.85125,-1.05125 l 0,3.54738 c 0.33375,-0.15863 1.68875,-0.69875 2.85125,-1.04888 1.245,-0.37587 2.3725,-0.63375 3.1025,-0.725 -0.73,-0.0899 -1.8575,-0.34725 -3.1025,-0.72225"
     inkscape:connector-curvature="0" /><path
     id="path730"
     style="fill:none;stroke:#231f20;stroke-width:0.625;stroke-linecap:butt;stroke-linejoin:miter;stroke-miterlimit:4;stroke-dasharray:none;stroke-opacity:1"
     d="m 224.4525,233.94988 2.575,5.63612 m 41.1875,-6.12987 2.57375,5.64112"
     inkscape:connector-curvature="0" /><text
     style="font-variant:normal;font-weight:normal;font-size:5px;font-family:Helvetica;-inkscape-font-specification:Helvetica;writing-mode:lr-tb;fill:#000000;fill-opacity:1;fill-rule:nonzero;stroke:none"
     id="text734"
     x="220.03751"
     y="232.23248"><tspan
       x="220.03751 222.8175"
       y="232.23248"
       id="tspan736">16</tspan></text>
<path
     id="path738"
     style="fill:none;stroke:#231f20;stroke-width:0.9375;stroke-linecap:butt;stroke-linejoin:miter;stroke-miterlimit:4;stroke-dasharray:none;stroke-opacity:1"
     d="m 36.213875,144.85 4.34575,0"
     inkscape:connector-curvature="0" /><path
     id="path748"
     style="fill:#231f20;fill-opacity:1;fill-rule:nonzero;stroke:none"
     d="m 41.672875,144.13 c -1.162125,-0.35 -1.919,-0.67375 -2.851625,-1.04875 l 0,3.54625 c 0.3345,-0.15875 1.6895,-0.695 2.851625,-1.0475 1.244125,-0.375 2.373,-0.635 3.103,-0.725 -0.73,-0.0925 -1.858875,-0.3475 -3.103,-0.725"
     inkscape:connector-curvature="0" /><path
     id="path750"
     style="fill:none;stroke:#231f20;stroke-width:0.9375;stroke-linecap:butt;stroke-linejoin:miter;stroke-miterlimit:4;stroke-dasharray:none;stroke-opacity:1"
     d="m 407.935,102.23125 23.735,0 0,-67.69375 -423.20125,0 0,122.515 10.361375,-0.0813"
     inkscape:connector-curvature="0" /><path
     id="path752"
     style="fill:#231f20;fill-opacity:1;fill-rule:nonzero;stroke:none"
     d="m 20.42525,156.2375 c -1.1645,-0.34375 -1.922375,-0.6625 -2.857375,-1.02875 l 0.02787,3.5475 c 0.332,-0.16125 1.682125,-0.71 2.84175,-1.07 1.24175,-0.3875 2.368125,-0.65375 3.098125,-0.75125 -0.732375,-0.0838 -1.86275,-0.3325 -3.110375,-0.6975"
     inkscape:connector-curvature="0" /><path
     id="path754"
     style="fill:none;stroke:#231f20;stroke-width:0.9375;stroke-linecap:butt;stroke-linejoin:miter;stroke-miterlimit:4;stroke-dasharray:none;stroke-opacity:1"
     d="m 131.3175,87.02125 0,-43.95625 -118.502125,0 0,90.11 6.01475,-0.0225"
     inkscape:connector-curvature="0" /><path
     id="path756"
     style="fill:#231f20;fill-opacity:1;fill-rule:nonzero;stroke:none"
     d="m 20.194875,132.425 c -1.163625,-0.34625 -1.9205,-0.66625 -2.854,-1.0375 l 0.01363,3.5475 c 0.3315,-0.16125 1.684125,-0.70625 2.846125,-1.06125 1.24275,-0.38125 2.36975,-0.6425 3.100625,-0.73625 C 22.56888,133.05 21.44088,132.79625 20.19488,132.425"
     inkscape:connector-curvature="0" /><path
     id="path758"
     style="fill:#231f20;fill-opacity:1;fill-rule:nonzero;stroke:none"
     d="m 129.1925,87.01375 c 0,1.2075 0.97875,2.1875 2.1875,2.1875 1.20625,0 2.1875,-0.98 2.1875,-2.1875 0,-1.20875 -0.98125,-2.1875 -2.1875,-2.1875 -1.20875,0 -2.1875,0.97875 -2.1875,2.1875"
     inkscape:connector-curvature="0" /><path
     id="path760"
     style="fill:#231f20;fill-opacity:1;fill-rule:nonzero;stroke:none"
     d="m 61.331,145.17625 c 0,1.20875 0.979,2.1875 2.1875,2.1875 1.2085,0 2.1875,-0.97875 2.1875,-2.1875 0,-1.2075 -0.979,-2.18625 -2.1875,-2.18625 -1.2085,0 -2.1875,0.97875 -2.1875,2.18625"
     inkscape:connector-curvature="0" /><path
     id="path762"
     style="fill:#231f20;fill-opacity:1;fill-rule:nonzero;stroke:none"
     d="m 180.96375,174.93 c 0,1.20875 0.9775,2.1875 2.1875,2.1875 1.20625,0 2.1875,-0.97875 2.1875,-2.1875 0,-1.21 -0.98125,-2.1875 -2.1875,-2.1875 -1.21,0 -2.1875,0.9775 -2.1875,2.1875"
     inkscape:connector-curvature="0" /><path
     id="path764"
     style="fill:#231f20;fill-opacity:1;fill-rule:nonzero;stroke:none"
     d="m 181.23625,182.535 c 0,1.20875 0.97875,2.1875 2.1875,2.1875 1.2075,0 2.1875,-0.97875 2.1875,-2.1875 0,-1.21 -0.98,-2.1875 -2.1875,-2.1875 -1.20875,0 -2.1875,0.9775 -2.1875,2.1875"
     inkscape:connector-curvature="0" /><path
     id="path766"
     style="fill:#231f20;fill-opacity:1;fill-rule:nonzero;stroke:none"
     d="m 180.96375,164.77625 c 0,1.20875 0.9775,2.1875 2.1875,2.1875 1.20625,0 2.1875,-0.97875 2.1875,-2.1875 0,-1.20875 -0.98125,-2.1875 -2.1875,-2.1875 -1.21,0 -2.1875,0.97875 -2.1875,2.1875"
     inkscape:connector-curvature="0" /><path
     id="path768"
     style="fill:#231f20;fill-opacity:1;fill-rule:nonzero;stroke:none"
     d="m 300.09375,178.21 c 0,1.20875 0.97875,2.1875 2.1875,2.1875 1.20875,0 2.1875,-0.97875 2.1875,-2.1875 0,-1.21 -0.97875,-2.1875 -2.1875,-2.1875 -1.20875,0 -2.1875,0.9775 -2.1875,2.1875"
     inkscape:connector-curvature="0" /><path
     id="path770"
     style="fill:#231f20;fill-opacity:1;fill-rule:nonzero;stroke:none"
     d="m 411.0675,175.32875 c 0,1.20875 0.97875,2.1875 2.1875,2.1875 1.20875,0 2.1875,-0.97875 2.1875,-2.1875 0,-1.20875 -0.97875,-2.1875 -2.1875,-2.1875 -1.20875,0 -2.1875,0.97875 -2.1875,2.1875"
     inkscape:connector-curvature="0" /><path
     id="path772"
     style="fill:#231f20;fill-opacity:1;fill-rule:nonzero;stroke:none"
     d="m 306.10875,200.60625 c 0,1.20875 0.97875,2.1875 2.1875,2.1875 1.20875,0 2.1875,-0.97875 2.1875,-2.1875 0,-1.21 -0.97875,-2.1875 -2.1875,-2.1875 -1.20875,0 -2.1875,0.9775 -2.1875,2.1875"
     inkscape:connector-curvature="0" /><path
     id="path774"
     style="fill:none;stroke:#231f20;stroke-width:0.625;stroke-linecap:butt;stroke-linejoin:miter;stroke-miterlimit:4;stroke-dasharray:none;stroke-opacity:1"
     d="m 36.1275,154.34 c 0,4.1725 -2.838375,7.55625 -6.338,7.55625 -3.500875,0 -6.33925,-3.38375 -6.33925,-7.55625 l 0,-19.3075 c 0,-4.17625 2.838375,-7.5575 6.33925,-7.5575 3.499625,0 6.338,3.38125 6.338,7.5575 l 0,19.3075 z"
     inkscape:connector-curvature="0" /><text
     style="font-variant:normal;font-weight:normal;font-size:5px;font-family:Helvetica;-inkscape-font-specification:Helvetica;writing-mode:lr-tb;fill:#000000;fill-opacity:1;fill-rule:nonzero;stroke:none"
     id="text778"
     x="264.78125"
     y="232.23114"><tspan
       x="264.78125 267.56125"
       y="232.23114"
       id="tspan780">32</tspan></text>
<path
     id="path782"
     style="fill:none;stroke:#231f20;stroke-width:0.625;stroke-linecap:butt;stroke-linejoin:miter;stroke-miterlimit:4;stroke-dasharray:none;stroke-opacity:1"
     d="m 330.79875,198.8825 c 0,4.175 -2.83875,7.55625 -6.34,7.55625 -3.49875,0 -6.335,-3.38125 -6.335,-7.55625 l 0,-19.3075 c 0,-4.175 2.83625,-7.55625 6.335,-7.55625 3.50125,0 6.34,3.38125 6.34,7.55625 l 0,19.3075 z"
     inkscape:connector-curvature="0" /><text
     style="font-variant:normal;font-weight:normal;font-size:5px;font-family:Helvetica;-inkscape-font-specification:Helvetica;writing-mode:lr-tb;fill:#000000;fill-opacity:1;fill-rule:nonzero;stroke:none"
     id="text786"
     x="26.938999"
     y="134.95248"><tspan
       x="26.938999"
       y="134.95248"
       id="tspan788">0</tspan></text>
<text
     style="font-variant:normal;font-weight:bold;font-size:5px;font-family:Helvetica;-inkscape-font-specification:Helvetica-Bold;writing-mode:lr-tb;fill:#000000;fill-opacity:1;fill-rule:nonzero;stroke:none"
     id="text790"
     x="28.871613"
     y="140.82162"><tspan
       x="28.871613"
       y="140.82162"
       id="tspan792">M</tspan><tspan
       x="29.4263"
       y="146.82162"
       id="tspan794">u</tspan><tspan
       x="29.564484"
       y="152.82162"
       id="tspan796">x</tspan></text>
<text
     style="font-variant:normal;font-weight:normal;font-size:5px;font-family:Helvetica;-inkscape-font-specification:Helvetica;writing-mode:lr-tb;fill:#000000;fill-opacity:1;fill-rule:nonzero;stroke:none"
     id="text798"
     x="26.938995"
     y="158.77133"><tspan
       x="26.938995"
       y="158.77133"
       id="tspan800">1</tspan></text>
<path
     id="path802"
     style="fill:none;stroke:#231f20;stroke-width:0.625;stroke-linecap:butt;stroke-linejoin:miter;stroke-miterlimit:4;stroke-dasharray:none;stroke-opacity:1"
     d="m 538.8875,195.875 c 0,4.175 -2.84,7.5575 -6.335,7.5575 -3.50125,0 -6.34125,-3.3825 -6.34125,-7.5575 l 0,-19.31 c 0,-4.17375 2.84,-7.5575 6.34125,-7.5575 3.495,0 6.335,3.38375 6.335,7.5575 l 0,19.31 z"
     inkscape:connector-curvature="0" /><text
     style="font-variant:normal;font-weight:bold;font-size:5px;font-family:Helvetica;-inkscape-font-specification:Helvetica-Bold;writing-mode:lr-tb;fill:#000000;fill-opacity:1;fill-rule:nonzero;stroke:none"
     id="text810"
     x="323.34875"
     y="185.59027"><tspan
       x="323.34875"
       y="185.59027"
       id="tspan812">M</tspan><tspan
       x="323.90494"
       y="191.59027"
       id="tspan814">u</tspan><tspan
       x="324.04163"
       y="197.59027"
       id="tspan816">x</tspan></text>
<text
     style="font-style:normal;font-variant:normal;font-weight:normal;font-stretch:normal;font-size:5px;line-height:125%;font-family:Helvetica;-inkscape-font-specification:'Helvetica, Normal';text-align:start;writing-mode:lr-tb;text-anchor:start;fill:#000000;fill-opacity:1;fill-rule:nonzero;stroke:none"
     id="text818"
     x="319.30136"
     y="181.70842"
     sodipodi:linespacing="125%"><tspan
       sodipodi:role="line"
       id="tspan5614"
       x="319.30136"
       y="181.70842">0</tspan><tspan
       sodipodi:role="line"
       id="tspan5616"
       x="319.30136"
       y="187.95842" /><tspan
       sodipodi:role="line"
       id="tspan5618"
       x="319.30136"
       y="194.20842" /><tspan
       sodipodi:role="line"
       id="tspan5620"
       x="319.30136"
       y="200.45842">1</tspan></text>
<text
     style="font-variant:normal;font-weight:bold;font-size:5px;font-family:Helvetica;-inkscape-font-specification:Helvetica-Bold;writing-mode:lr-tb;fill:#000000;fill-opacity:1;fill-rule:nonzero;stroke:none"
     id="text824"
     x="531.18732"
     y="182.67279"><tspan
       x="531.18732"
       y="182.67279"
       id="tspan826">M</tspan><tspan
       x="531.74249"
       y="188.67279"
       id="tspan828">u</tspan><tspan
       x="531.8797"
       y="194.67279"
       id="tspan830">x</tspan></text>
<text
     style="font-style:normal;font-variant:normal;font-weight:normal;font-stretch:normal;font-size:5px;line-height:125%;font-family:Helvetica;-inkscape-font-specification:'Helvetica, Normal';text-align:start;writing-mode:lr-tb;text-anchor:start;fill:#000000;fill-opacity:1;fill-rule:nonzero;stroke:none"
     id="text832"
     x="493.32306"
     y="54.379852"
     sodipodi:linespacing="125%"><tspan
       sodipodi:role="line"
       id="tspan5632"
       x="493.32306"
       y="54.379852">MEM/WB</tspan></text>
<text
     xml:space="preserve"
     style="font-style:normal;font-weight:normal;font-size:10px;line-height:125%;font-family:sans-serif;text-align:start;letter-spacing:0px;word-spacing:0px;writing-mode:lr-tb;text-anchor:start;opacity:0.93999999;fill:#000000;fill-opacity:1;stroke:none;stroke-width:1px;stroke-linecap:butt;stroke-linejoin:miter;stroke-opacity:1"
     x="19.282963"
     y="238.61285"
     id="text4894"
     sodipodi:linespacing="125%"><tspan
       sodipodi:role="line"
       id="tspan4304"
       x="19.282963"
       y="238.61285"
       style="font-size:7.5px">COD 4Ed, Copyright © 2009 </tspan><tspan
       sodipodi:role="line"
       x="19.282963"
       y="247.98785"
       style="font-size:7.5px"
       id="tspan4308">Elsevier, Inc. All rights reserved.</tspan><tspan
       sodipodi:role="line"
       id="tspan4306"
       x="19.282963"
       y="257.36285" /></text>
<text
     xml:space="preserve"
     style="font-style:normal;font-weight:normal;font-size:10px;line-height:125%;font-family:sans-serif;letter-spacing:0px;word-spacing:0px;fill:#000000;fill-opacity:1;stroke:none;stroke-width:1px;stroke-linecap:butt;stroke-linejoin:miter;stroke-opacity:1"
     x="80.11554"
     y="300.91528"
     id="text5570"
     sodipodi:linespacing="125%"><tspan
       sodipodi:role="line"
       id="tspan5572"
       x="80.11554"
       y="300.91528">Simulação, da instrução LW, na segunda etapa do pipeline.</tspan></text>
<text
     sodipodi:linespacing="125%"
     y="179.0824"
     x="527.30139"
     id="text5622"
     style="font-style:normal;font-variant:normal;font-weight:normal;font-stretch:normal;font-size:5px;line-height:125%;font-family:Helvetica;-inkscape-font-specification:'Helvetica, Normal';text-align:start;writing-mode:lr-tb;text-anchor:start;fill:#000000;fill-opacity:1;fill-rule:nonzero;stroke:none"><tspan
       sodipodi:role="line"
       id="tspan5634"
       x="527.30139"
       y="179.0824">1</tspan><tspan
       sodipodi:role="line"
       id="tspan5636"
       x="527.30139"
       y="185.3324" /><tspan
       sodipodi:role="line"
       id="tspan5638"
       x="527.30139"
       y="191.5824" /><tspan
       sodipodi:role="line"
       id="tspan5640"
       x="527.30139"
       y="197.8324">0</tspan></text>
</svg>