<?xml version="1.0" encoding="UTF-8" standalone="no"?>
<svg
   xmlns:dc="http://purl.org/dc/elements/1.1/"
   xmlns:cc="http://creativecommons.org/ns#"
   xmlns:rdf="http://www.w3.org/1999/02/22-rdf-syntax-ns#"
   xmlns:svg="http://www.w3.org/2000/svg"
   xmlns="http://www.w3.org/2000/svg"
   xmlns:sodipodi="http://sodipodi.sourceforge.net/DTD/sodipodi-0.dtd"
   xmlns:inkscape="http://www.inkscape.org/namespaces/inkscape"
   viewBox="0 0 578.50036 329.64197"
   height="329.64197"
   width="578.50037"
   xml:space="preserve"
   version="1.1"
   id="svg2"
   inkscape:version="0.91 r13725"
   sodipodi:docname="pipelineVerificacaoLW-2.svg"><sodipodi:namedview
     pagecolor="#ffffff"
     bordercolor="#666666"
     borderopacity="1"
     objecttolerance="10"
     gridtolerance="10"
     guidetolerance="10"
     inkscape:pageopacity="0"
     inkscape:pageshadow="2"
     inkscape:window-width="1855"
     inkscape:window-height="1056"
     id="namedview206"
     showgrid="false"
     inkscape:zoom="1.9429547"
     inkscape:cx="289.25018"
     inkscape:cy="162.24759"
     inkscape:window-x="1985"
     inkscape:window-y="24"
     inkscape:window-maximized="1"
     inkscape:current-layer="svg2"
     fit-margin-top="8"
     fit-margin-left="8"
     fit-margin-bottom="8"
     fit-margin-right="8"
     showguides="true"
     inkscape:guide-bbox="true"
     inkscape:showpageshadow="false"><sodipodi:guide
       position="443.13951,270.20703"
       orientation="0,1"
       id="guide4858" /></sodipodi:namedview><metadata
     id="metadata8"><rdf:RDF><cc:Work
         rdf:about=""><dc:format>image/svg+xml</dc:format><dc:type
           rdf:resource="http://purl.org/dc/dcmitype/StillImage" /><dc:title></dc:title></cc:Work></rdf:RDF></metadata><defs
     id="defs6"><clipPath
       id="clipPath168"
       clipPathUnits="userSpaceOnUse"><path
         id="path170"
         d="m 0,408.121 4500,0 0,2466.48 -4500,0 0,-2466.48 z"
         inkscape:connector-curvature="0" /></clipPath><clipPath
       id="clipPath328"
       clipPathUnits="userSpaceOnUse"><path
         id="path330"
         d="m 0,408.121 4500,0 0,2466.48 -4500,0 0,-2466.48 z"
         inkscape:connector-curvature="0" /></clipPath></defs><path
     id="path30"
     style="fill:#a6e2f9;fill-opacity:1;fill-rule:nonzero;stroke:none"
     d="m 346.06494,210.82698 c 0,4.3725 -2.97625,7.915 -6.64375,7.915 -3.66375,0 -6.635,-3.5425 -6.635,-7.915 l 0,-20.22375 c 0,-4.37375 2.97125,-7.91625 6.635,-7.91625 3.6675,0 6.64375,3.5425 6.64375,7.91625 l 0,20.22375"
     inkscape:connector-curvature="0" /><path
     id="path32"
     style="fill:#a6e2f9;fill-opacity:1;fill-rule:nonzero;stroke:none"
     d="m 360.66369,155.07323 34.3925,16.1375 0,19.34125 -34.1625,13.62 0,-20.0025 3.26375,-4.77375 -3.49375,-4.775 0,-19.5475"
     inkscape:connector-curvature="0" /><path
     id="path34"
     style="fill:none;stroke:#231f20;stroke-width:0.55720752;stroke-linecap:butt;stroke-linejoin:miter;stroke-miterlimit:4;stroke-dasharray:none;stroke-opacity:1"
     d="m 302.22619,30.283229 0,-18.93625 m 114.65125,18.93625 0,-18.93625 m -114.65125,9.4675 114.65125,0"
     inkscape:connector-curvature="0" /><text
     style="font-variant:normal;font-weight:normal;font-size:6.12926245px;font-family:Helvetica;-inkscape-font-specification:Helvetica;writing-mode:lr-tb;fill:#00adef;fill-opacity:1;fill-rule:nonzero;stroke:none"
     id="text38"
     x="346.09369"
     y="34.179474"><tspan
       x="346.09369 350.18192 353.24655 356.65375 359.7189 363.12732 364.83002 366.19125 369.60101"
       y="34.179474"
       id="tspan40">Execution</tspan></text>
<text
     style="font-variant:normal;font-weight:normal;font-size:6.12926245px;font-family:Helvetica;-inkscape-font-specification:Helvetica;writing-mode:lr-tb;fill:#231f20;fill-opacity:1;fill-rule:nonzero;stroke:none"
     id="text44"
     x="356.48618"
     y="12.468232"><tspan
       x="356.48618 358.19012"
       y="12.468232"
       id="tspan46">Iw</tspan></text>
<path
     id="path48"
     style="fill:#a6e2f9;fill-opacity:1;fill-rule:nonzero;stroke:none"
     d="m 412.11244,284.22823 7.3501,0 0,-220.953751 -7.3501,0 0,220.953751 z"
     inkscape:connector-curvature="0" /><path
     id="path50"
     style="fill:#a6e2f9;fill-opacity:1;fill-rule:nonzero;stroke:none"
     d="m 303.15494,284.22823 7.35791,0 0,-220.953751 -7.35791,0 0,220.953751 z"
     inkscape:connector-curvature="0" /><path
     id="path52"
     style="fill:none;stroke:#231f20;stroke-width:0.55720752;stroke-linecap:butt;stroke-linejoin:miter;stroke-miterlimit:4;stroke-dasharray:none;stroke-opacity:1"
     d="m 105.59706,72.969479 22.40188,13.47 0,14.038751 -22.21088,13.47125 0,-16.698751 3.78076,-3.98 -3.97176,-3.98625 0,-16.315 z"
     inkscape:connector-curvature="0" /><path
     id="path54"
     style="fill:none;stroke:#231f20;stroke-width:0.55720752;stroke-linecap:butt;stroke-linejoin:miter;stroke-miterlimit:4;stroke-dasharray:none;stroke-opacity:1"
     d="m 143.62494,217.24573 -65.726129,0 0,-66.9925 65.726129,0 0,66.9925 z m 130.49625,2.15125 -65.725,0 0,-69.335 65.725,0 0,69.335 z"
     inkscape:connector-curvature="0" /><path
     id="path56"
     style="fill:none;stroke:#231f20;stroke-width:0.55720752;stroke-linecap:butt;stroke-linejoin:miter;stroke-miterlimit:4;stroke-dasharray:none;stroke-opacity:1"
     d="m 444.42869,236.75073 65.72512,0 0,-66.9975 -65.72512,0 0,66.9975 z"
     inkscape:connector-curvature="0" /><path
     id="path58"
     style="fill:none;stroke:#231f20;stroke-width:0.55720752;stroke-linecap:butt;stroke-linejoin:miter;stroke-miterlimit:4;stroke-dasharray:none;stroke-opacity:1"
     d="m 348.97494,87.173229 28.70375,13.472501 0,16.14 -28.51125,11.37 0,-16.6975 2.7275,-3.985 -2.92,-3.9825 0,-16.317501 z"
     inkscape:connector-curvature="0" /><path
     id="path60"
     style="fill:none;stroke:#231f20;stroke-width:0.55720752;stroke-linecap:butt;stroke-linejoin:miter;stroke-miterlimit:4;stroke-dasharray:none;stroke-opacity:1"
     d="m 360.66369,155.07323 34.3925,16.1375 0,19.34125 -34.1625,13.62 0,-20.0025 3.26375,-4.77375 -3.49375,-4.775 0,-19.5475 z"
     inkscape:connector-curvature="0" /><path
     id="path62"
     style="fill:none;stroke:#231f20;stroke-width:0.55720752;stroke-linecap:butt;stroke-linejoin:miter;stroke-miterlimit:4;stroke-dasharray:none;stroke-opacity:1"
     d="m 332.35119,118.60198 c 0,9.185 -4.40375,16.62875 -9.83375,16.62875 -5.4325,0 -9.83125,-7.44375 -9.83125,-16.62875 0,-9.18625 4.39875,-16.6325 9.83125,-16.6325 5.43,0 9.83375,7.44625 9.83375,16.6325 z"
     inkscape:connector-curvature="0" /><path
     id="path64"
     style="fill:none;stroke:#231f20;stroke-width:0.55720752;stroke-linecap:butt;stroke-linejoin:miter;stroke-miterlimit:4;stroke-dasharray:none;stroke-opacity:1"
     d="m 273.62494,249.47335 c 0,11.06 -5.7025,20.021 -12.73875,20.021 -7.035,0 -12.735,-8.961 -12.735,-20.021 0,-11.05125 5.7,-20.01375 12.735,-20.01375 7.03625,0 12.73875,8.9625 12.73875,20.01375 z"
     inkscape:connector-curvature="0" /><text
     style="font-variant:normal;font-weight:normal;font-size:6.12926245px;font-family:Helvetica;-inkscape-font-specification:Helvetica;writing-mode:lr-tb;fill:#231f20;fill-opacity:1;fill-rule:nonzero;stroke:none"
     id="text68"
     x="112.7563"
     y="95.190735"><tspan
       x="112.7563 116.84453 120.2524"
       y="95.190735"
       id="tspan70">Add</tspan><tspan
       x="79.945305 84.033524 87.441391 90.849258 92.890305 96.298172 99.362808"
       y="157.03598"
       id="tspan72">Address</tspan></text>
<text
     style="font-variant:normal;font-weight:bold;font-size:6.12926245px;font-family:Helvetica;-inkscape-font-specification:Helvetica-Bold;writing-mode:lr-tb;fill:#231f20;fill-opacity:1;fill-rule:nonzero;stroke:none"
     id="text74"
     x="94.924805"
     y="182.0121"><tspan
       x="94.924805 96.628738 100.37373 103.7816 105.82263 108.20692 111.9519 115.35977 117.40082 119.10475 122.84973"
       y="182.0121"
       id="tspan76">Instruction</tspan><tspan
       x="98.838867 104.28778 107.69566 113.14458 116.88956 119.27383"
       y="189.3661"
       id="tspan78">memory</tspan></text>
<text
     style="font-variant:normal;font-weight:normal;font-size:6.12926245px;font-family:Helvetica;-inkscape-font-specification:Helvetica;writing-mode:lr-tb;fill:#231f20;fill-opacity:1;fill-rule:nonzero;stroke:none"
     id="text80"
     x="210.5"
     y="156.8846"><tspan
       x="210.5 214.92627 218.33414 221.74138"
       y="156.8846"
       id="tspan82">Read</tspan><tspan
       x="210.5 212.54105 215.94891 219.3576 220.71831 223.78293 225.48686 228.89474 230.93579 232.64087"
       y="164.2386"
       id="tspan84">register 1</tspan></text>
<text
     transform="matrix(0,-1,1,0,0,0)"
     style="font-variant:normal;font-weight:normal;font-size:6.12926245px;font-family:Helvetica;-inkscape-font-specification:Helvetica;writing-mode:lr-tb;fill:#231f20;fill-opacity:1;fill-rule:nonzero;stroke:none"
     id="text86"
     x="-182.88948"
     y="188.59494"><tspan
       x="-182.88948 -181.18555 -177.77768 -174.71368 -173.00975 -170.9687 -167.56084 -164.49687 -162.79294 -161.43225 -158.02438"
       y="188.59494"
       id="tspan88">Instruction</tspan></text>
<text
     style="font-variant:normal;font-weight:normal;font-size:6.12926245px;font-family:Helvetica;-inkscape-font-specification:Helvetica;writing-mode:lr-tb;fill:#231f20;fill-opacity:1;fill-rule:nonzero;stroke:none"
     id="text90"
     x="210.04369"
     y="173.58199"><tspan
       x="210.04369 214.46901 217.87689 221.28412"
       y="173.58199"
       id="tspan92">Read</tspan><tspan
       x="210.04369 212.08473 215.4926 218.89983 220.26053 223.32516 225.0291 228.43697 230.47801 232.18309"
       y="180.93695"
       id="tspan94">register 2</tspan><tspan
       x="210.49974 216.28577 218.32681 219.68752 221.39145"
       y="192.60054"
       id="tspan96">Write</tspan><tspan
       x="210.49974 212.54079 215.94865 219.35735 220.71805 223.78268 225.48662 228.89449"
       y="199.95404"
       id="tspan98">register</tspan><tspan
       x="210.49974 216.28577 218.32681 219.68752 221.39145"
       y="210.03804"
       id="tspan100">Write</tspan><tspan
       x="210.49974 213.90843 217.31631 219.02025"
       y="217.39301"
       id="tspan102">data</tspan><tspan
       x="255.33075 259.75607 263.1633 266.57117"
       y="161.25775"
       id="tspan104">Read</tspan><tspan
       x="255.33075 258.73862 262.14648 263.85077 267.25836 268.9621"
       y="168.61029"
       id="tspan106">data 1</tspan><tspan
       x="255.33072 259.75604 263.16327 266.57114"
       y="191.92279"
       id="tspan108">Read</tspan><tspan
       x="255.33072 258.73859 262.14645 263.85074 267.25833 268.96207"
       y="199.27925"
       id="tspan110">data 2</tspan></text>
<text
     style="font-variant:normal;font-weight:bold;font-size:6.12926245px;font-family:Helvetica;-inkscape-font-specification:Helvetica-Bold;writing-mode:lr-tb;fill:#231f20;fill-opacity:1;fill-rule:nonzero;stroke:none"
     id="text112"
     x="227.53819"
     y="186.58537"><tspan
       x="227.53819 231.96352 235.37074 239.11572 240.81966 244.22752 246.26857 249.67644 252.06004"
       y="186.58537"
       id="tspan114">Registers</tspan></text>
<text
     style="font-variant:normal;font-weight:normal;font-size:6.12926245px;font-family:Helvetica;-inkscape-font-specification:Helvetica;writing-mode:lr-tb;fill:#231f20;fill-opacity:1;fill-rule:nonzero;stroke:none"
     id="text116"
     x="447.02945"
     y="188.23283"><tspan
       x="447.02945 451.11765 454.52551 457.93259 459.9736 463.3815 466.44736"
       y="188.23283"
       id="tspan118">Address</tspan><tspan
       x="447.53482 453.32083 455.36188 456.72183 458.42578"
       y="224.88034"
       id="tspan120">Write</tspan><tspan
       x="447.53482 450.94351 454.35074 456.05466"
       y="232.23679"
       id="tspan122">data</tspan><tspan
       x="492.66956 497.09488 500.50211 503.9108"
       y="183.90428"
       id="tspan124">Read</tspan><tspan
       x="494.02942 497.43729 500.84515 502.5491"
       y="191.25926"
       id="tspan126">data</tspan></text>
<text
     style="font-variant:normal;font-weight:bold;font-size:6.12926245px;font-family:Helvetica;-inkscape-font-specification:Helvetica-Bold;writing-mode:lr-tb;fill:#231f20;fill-opacity:1;fill-rule:nonzero;stroke:none"
     id="text128"
     x="470.64856"
     y="201.51414"><tspan
       x="470.64856 475.07388 478.48108 480.52213"
       y="201.51414"
       id="tspan130">Data</tspan><tspan
       x="465.36829 470.81757 474.22455 479.67383 483.41919 485.80328"
       y="208.86815"
       id="tspan132">memory</tspan><tspan
       x="352.62204 357.04736 360.79233"
       y="109.36665"
       id="tspan134">Add</tspan></text>
<text
     style="font-variant:normal;font-weight:normal;font-size:6.12926245px;font-family:Helvetica;-inkscape-font-specification:Helvetica;writing-mode:lr-tb;fill:#231f20;fill-opacity:1;fill-rule:nonzero;stroke:none"
     id="text136"
     x="364.93597"
     y="106.76508"><tspan
       x="364.93597 369.0242 372.43207"
       y="106.76508"
       id="tspan138">Add</tspan><tspan
       x="360.85446 362.89551 366.30338 369.36682 372.77551 374.13684"
       y="114.12103"
       id="tspan140">result</tspan></text>
<text
     style="font-variant:normal;font-weight:bold;font-size:6.12926245px;font-family:Helvetica;-inkscape-font-specification:Helvetica-Bold;writing-mode:lr-tb;fill:#231f20;fill-opacity:1;fill-rule:nonzero;stroke:none"
     id="text142"
     x="365.09811"
     y="181.44579"><tspan
       x="365.09811 369.52344 373.2684"
       y="181.44579"
       id="tspan144">ALU</tspan></text>
<text
     style="font-variant:normal;font-weight:normal;font-size:6.12926245px;font-family:Helvetica;-inkscape-font-specification:Helvetica;writing-mode:lr-tb;fill:#231f20;fill-opacity:1;fill-rule:nonzero;stroke:none"
     id="text146"
     x="380.79922"
     y="183.86034"><tspan
       x="380.79922 384.88745 388.29712"
       y="183.86034"
       id="tspan148">ALU</tspan><tspan
       x="377.73575 379.77679 383.18466 386.24762 389.6568 391.01666"
       y="189.88037"
       id="tspan150">result</tspan><tspan
       x="380.33438 384.0795 387.48773 389.52911"
       y="176.18411"
       id="tspan152">Zero</tspan></text>
<text
     style="font-variant:normal;font-weight:bold;font-size:6.12926245px;font-family:Helvetica;-inkscape-font-specification:Helvetica-Bold;writing-mode:lr-tb;fill:#231f20;fill-opacity:1;fill-rule:nonzero;stroke:none"
     id="text154"
     x="315.48962"
     y="116.86188"><tspan
       x="315.48962 319.57785 323.32214 325.02673 327.06677"
       y="116.86188"
       id="tspan156">Shift</tspan><tspan
       x="315.48962 317.19357 320.60226 322.6423 324.68335 326.38727"
       y="124.21832"
       id="tspan158">left 2</tspan><tspan
       x="253.22301 257.31039 259.01434 262.75931 266.5043"
       y="247.73833"
       id="tspan160">Sign-</tspan><tspan
       x="251.0067 254.41457 257.82324 259.86429 263.27216 267.01715"
       y="255.09428"
       id="tspan162">extend</tspan></text>
<path
     id="path172"
     style="fill:none;stroke:#231f20;stroke-width:0.55720752;stroke-linecap:butt;stroke-linejoin:miter;stroke-miterlimit:4;stroke-dasharray:none;stroke-opacity:1"
     d="m 183.50244,284.22823 -14.7075,0 0,-220.953751 14.7075,0 0,220.953751 z m 127.1075,0 -14.70625,0 0,-220.953751 14.70625,0 0,220.953751 z m 116.255,0 -14.70375,0 0,-220.953751 14.70375,0 0,220.953751 z m 108.20375,0 -14.71,0 0,-220.953751 14.71,0 0,220.953751 z M 59.825561,170.88698 l -13.13225,0 0,-30.99 13.13225,0 0,30.99 z"
     inkscape:connector-curvature="0" /><path
     id="path174"
     style="fill:none;stroke:#231f20;stroke-width:0.83581001;stroke-linecap:butt;stroke-linejoin:miter;stroke-miterlimit:4;stroke-dasharray:none;stroke-opacity:1"
     d="m 564.08744,199.05073 5.995,0 0,98.04613 -375.37625,0 0,-88.24113 8.60625,0"
     inkscape:connector-curvature="0" /><path
     id="path176"
     style="fill:#231f20;fill-opacity:1;fill-rule:nonzero;stroke:none"
     d="m 205.14744,208.16823 c -1.10375,-0.3325 -1.8225,-0.64 -2.71,-0.995 l 0,3.3725 c 0.3175,-0.15125 1.60625,-0.665 2.71,-0.9975 1.18375,-0.3575 2.25625,-0.6025 2.9525,-0.69 -0.69625,-0.0875 -1.76875,-0.33125 -2.9525,-0.69"
     inkscape:connector-curvature="0" /><path
     id="path178"
     style="fill:none;stroke:#231f20;stroke-width:0.83581001;stroke-linecap:butt;stroke-linejoin:miter;stroke-miterlimit:4;stroke-dasharray:none;stroke-opacity:1"
     d="m 509.85619,185.39698 6.30375,0"
     inkscape:connector-curvature="0" /><path
     id="path180"
     style="fill:#231f20;fill-opacity:1;fill-rule:nonzero;stroke:none"
     d="m 517.06994,184.71073 c -1.105,-0.335 -1.82625,-0.6425 -2.71,-0.9975 l 0,3.3725 c 0.3175,-0.15 1.605,-0.66375 2.71,-0.9975 1.1825,-0.3575 2.25625,-0.60125 2.9525,-0.68875 -0.69625,-0.0875 -1.77,-0.33125 -2.9525,-0.68875"
     inkscape:connector-curvature="0" /><path
     id="path182"
     style="fill:none;stroke:#231f20;stroke-width:0.83581001;stroke-linecap:butt;stroke-linejoin:miter;stroke-miterlimit:4;stroke-dasharray:none;stroke-opacity:1"
     d="m 203.31244,158.08198 -11.80125,0 0,92.44362 51.5175,0"
     inkscape:connector-curvature="0" /><path
     id="path184"
     style="fill:#231f20;fill-opacity:1;fill-rule:nonzero;stroke:none"
     d="m 244.90369,249.83948 c -1.105,-0.3325 -1.82375,-0.64013 -2.71125,-0.9975 l 0,3.375 c 0.3175,-0.15137 1.60625,-0.665 2.71125,-0.9975 1.185,-0.3575 2.25625,-0.60362 2.95125,-0.69 -0.695,-0.0874 -1.76625,-0.3325 -2.95125,-0.69"
     inkscape:connector-curvature="0" /><path
     id="path186"
     style="fill:#231f20;fill-opacity:1;fill-rule:nonzero;stroke:none"
     d="m 205.11244,157.39698 c -1.10625,-0.335 -1.825,-0.64125 -2.71125,-0.9975 l 0,3.3725 c 0.3175,-0.15 1.605,-0.66375 2.71125,-0.9975 1.18375,-0.3575 2.255,-0.6025 2.95125,-0.69 -0.69625,-0.0863 -1.7675,-0.33 -2.95125,-0.6875"
     inkscape:connector-curvature="0" /><path
     id="path188"
     style="fill:none;stroke:#231f20;stroke-width:0.83581001;stroke-linecap:butt;stroke-linejoin:miter;stroke-miterlimit:4;stroke-dasharray:none;stroke-opacity:1"
     d="m 191.68744,175.24073 11.77375,0"
     inkscape:connector-curvature="0" /><path
     id="path190"
     style="fill:#231f20;fill-opacity:1;fill-rule:nonzero;stroke:none"
     d="m 205.25994,174.55448 c -1.10625,-0.33375 -1.825,-0.64125 -2.7125,-0.99625 l 0,3.37125 c 0.31875,-0.15 1.60625,-0.66375 2.7125,-0.99625 1.1825,-0.35875 2.255,-0.6025 2.95125,-0.69 -0.69625,-0.0875 -1.76875,-0.33 -2.95125,-0.68875"
     inkscape:connector-curvature="0" /><path
     id="path192"
     style="fill:none;stroke:#231f20;stroke-width:0.83581001;stroke-linecap:butt;stroke-linejoin:miter;stroke-miterlimit:4;stroke-dasharray:none;stroke-opacity:1"
     d="m 191.68744,193.70323 11.77375,0"
     inkscape:connector-curvature="0" /><path
     id="path194"
     style="fill:#231f20;fill-opacity:1;fill-rule:nonzero;stroke:none"
     d="m 205.18744,193.01698 c -1.10625,-0.33375 -1.825,-0.64 -2.71125,-0.9975 l 0,3.37375 c 0.31625,-0.15125 1.605,-0.665 2.71125,-0.9975 1.1825,-0.3575 2.255,-0.6025 2.95125,-0.69 -0.69625,-0.0863 -1.76875,-0.3325 -2.95125,-0.68875"
     inkscape:connector-curvature="0" /><path
     id="path196"
     style="fill:none;stroke:#231f20;stroke-width:0.83581001;stroke-linecap:butt;stroke-linejoin:miter;stroke-miterlimit:4;stroke-dasharray:none;stroke-opacity:1"
     d="m 143.72744,183.74698 20.17875,0"
     inkscape:connector-curvature="0" /><path
     id="path198"
     style="fill:#231f20;fill-opacity:1;fill-rule:nonzero;stroke:none"
     d="m 165.48494,183.06198 c -1.105,-0.33375 -1.82375,-0.64 -2.71,-0.995 l 0,3.37125 c 0.3175,-0.15 1.605,-0.66375 2.71,-0.9975 1.18375,-0.3575 2.25625,-0.6025 2.9525,-0.69 -0.69625,-0.0862 -1.76875,-0.33 -2.9525,-0.68875"
     inkscape:connector-curvature="0" /><text
     style="font-variant:normal;font-weight:bold;font-size:6.12926245px;font-family:Helvetica;-inkscape-font-specification:Helvetica-Bold;writing-mode:lr-tb;fill:#231f20;fill-opacity:1;fill-rule:nonzero;stroke:none"
     id="text202"
     x="49.077061"
     y="157.26573"><tspan
       x="49.077061 53.165279"
       y="157.26573"
       id="tspan204">PC</tspan></text>
<path
     id="path206"
     style="fill:none;stroke:#231f20;stroke-width:0.83581001;stroke-linecap:butt;stroke-linejoin:miter;stroke-miterlimit:4;stroke-dasharray:none;stroke-opacity:1"
     d="m 395.00244,173.24948 12.35625,0"
     inkscape:connector-curvature="0" /><path
     id="path208"
     style="fill:#231f20;fill-opacity:1;fill-rule:nonzero;stroke:none"
     d="m 408.93744,172.56323 c -1.105,-0.335 -1.8225,-0.64125 -2.70875,-0.99625 l 0,3.3725 c 0.31625,-0.1525 1.60375,-0.66375 2.70875,-0.99625 1.1825,-0.35875 2.25625,-0.60375 2.9525,-0.69125 -0.69625,-0.0875 -1.77,-0.3325 -2.9525,-0.68875"
     inkscape:connector-curvature="0" /><path
     id="path210"
     style="fill:none;stroke:#231f20;stroke-width:0.83581001;stroke-linecap:butt;stroke-linejoin:miter;stroke-miterlimit:4;stroke-dasharray:none;stroke-opacity:1"
     d="m 395.00244,185.29573 12.6075,0"
     inkscape:connector-curvature="0" /><path
     id="path212"
     style="fill:#231f20;fill-opacity:1;fill-rule:nonzero;stroke:none"
     d="m 409.18994,184.60948 c -1.10625,-0.335 -1.82375,-0.64125 -2.71,-0.9975 l 0,3.3725 c 0.3175,-0.15125 1.60375,-0.66375 2.71,-0.9975 1.18375,-0.3575 2.255,-0.60125 2.95125,-0.68875 -0.69625,-0.0875 -1.7675,-0.3325 -2.95125,-0.68875"
     inkscape:connector-curvature="0" /><path
     id="path214"
     style="fill:none;stroke:#231f20;stroke-width:0.83581001;stroke-linecap:butt;stroke-linejoin:miter;stroke-miterlimit:4;stroke-dasharray:none;stroke-opacity:1"
     d="m 426.86494,186.09448 12.86875,0"
     inkscape:connector-curvature="0" /><path
     id="path216"
     style="fill:#231f20;fill-opacity:1;fill-rule:nonzero;stroke:none"
     d="m 441.31369,185.40948 c -1.10625,-0.33375 -1.82375,-0.64125 -2.7125,-0.99625 l 0,3.37125 c 0.3175,-0.14875 1.60625,-0.66375 2.7125,-0.99625 1.18125,-0.3575 2.25625,-0.60375 2.95125,-0.69 -0.695,-0.0863 -1.77,-0.33125 -2.95125,-0.68875"
     inkscape:connector-curvature="0" /><path
     id="path218"
     style="fill:none;stroke:#231f20;stroke-width:0.83581001;stroke-linecap:butt;stroke-linejoin:miter;stroke-miterlimit:4;stroke-dasharray:none;stroke-opacity:1"
     d="m 426.86494,228.64085 13.1325,0"
     inkscape:connector-curvature="0" /><path
     id="path220"
     style="fill:#231f20;fill-opacity:1;fill-rule:nonzero;stroke:none"
     d="m 441.33244,227.95335 c -1.105,-0.334 -1.8225,-0.64012 -2.70875,-0.99512 l 0,3.3725 c 0.31625,-0.14988 1.60375,-0.6635 2.70875,-0.99613 1.185,-0.35887 2.25625,-0.6025 2.9525,-0.69137 -0.69625,-0.0874 -1.7675,-0.33 -2.9525,-0.68988"
     inkscape:connector-curvature="0" /><path
     id="path222"
     style="fill:none;stroke:#231f20;stroke-width:0.83581001;stroke-linecap:butt;stroke-linejoin:miter;stroke-miterlimit:4;stroke-dasharray:none;stroke-opacity:1"
     d="m 432.37744,186.09448 0,59.354 83.7825,0"
     inkscape:connector-curvature="0" /><path
     id="path224"
     style="fill:#231f20;fill-opacity:1;fill-rule:nonzero;stroke:none"
     d="m 517.12619,244.76098 c -1.10625,-0.334 -1.82625,-0.64163 -2.7125,-0.99663 l 0,3.3725 c 0.32,-0.15225 1.60625,-0.66499 2.7125,-0.9975 1.1825,-0.35837 2.25375,-0.60112 2.95,-0.6885 -0.69625,-0.0889 -1.7675,-0.3325 -2.95,-0.68987"
     inkscape:connector-curvature="0" /><path
     id="path226"
     style="fill:none;stroke:#231f20;stroke-width:0.83581001;stroke-linecap:butt;stroke-linejoin:miter;stroke-miterlimit:4;stroke-dasharray:none;stroke-opacity:1"
     d="m 535.32994,186.09448 10.76625,0"
     inkscape:connector-curvature="0" /><path
     id="path228"
     style="fill:#231f20;fill-opacity:1;fill-rule:nonzero;stroke:none"
     d="m 547.67619,185.40948 c -1.10625,-0.33375 -1.82375,-0.64125 -2.7125,-0.99625 l 0,3.37125 c 0.32,-0.14875 1.60625,-0.66375 2.7125,-0.99625 1.18375,-0.3575 2.255,-0.60375 2.95125,-0.69 -0.69625,-0.0863 -1.7675,-0.33125 -2.95125,-0.68875"
     inkscape:connector-curvature="0" /><path
     id="path230"
     style="fill:none;stroke:#231f20;stroke-width:0.83581001;stroke-linecap:butt;stroke-linejoin:miter;stroke-miterlimit:4;stroke-dasharray:none;stroke-opacity:1"
     d="m 535.06869,245.7106 6.82625,0 0,-35.71862 6.04,0"
     inkscape:connector-curvature="0" /><path
     id="path232"
     style="fill:#231f20;fill-opacity:1;fill-rule:nonzero;stroke:none"
     d="m 547.93744,209.30698 c -1.10625,-0.335 -1.82375,-0.64125 -2.71,-0.9975 l 0,3.37375 c 0.3175,-0.15125 1.60375,-0.66375 2.71,-0.9975 1.18375,-0.3575 2.255,-0.6025 2.95125,-0.69 -0.69625,-0.0875 -1.7675,-0.33125 -2.95125,-0.68875"
     inkscape:connector-curvature="0" /><path
     id="path234"
     style="fill:none;stroke:#231f20;stroke-width:0.83581001;stroke-linecap:butt;stroke-linejoin:miter;stroke-miterlimit:4;stroke-dasharray:none;stroke-opacity:1"
     d="m 427.12869,172.69948 6.565,0"
     inkscape:connector-curvature="0" /><path
     id="path236"
     style="fill:#231f20;fill-opacity:1;fill-rule:nonzero;stroke:none"
     d="m 435.27369,172.01448 c -1.10625,-0.335 -1.82375,-0.64125 -2.7125,-0.9975 l 0,3.37375 c 0.3175,-0.15125 1.60625,-0.665 2.7125,-0.9975 1.18125,-0.35875 2.25625,-0.6025 2.94875,-0.69125 -0.6925,-0.0863 -1.7675,-0.33 -2.94875,-0.6875"
     inkscape:connector-curvature="0" /><path
     id="path238"
     style="fill:none;stroke:#231f20;stroke-width:0.83581001;stroke-linecap:butt;stroke-linejoin:miter;stroke-miterlimit:4;stroke-dasharray:none;stroke-opacity:1"
     d="m 346.32619,200.36323 10.15375,0"
     inkscape:connector-curvature="0" /><path
     id="path240"
     style="fill:#231f20;fill-opacity:1;fill-rule:nonzero;stroke:none"
     d="m 357.75619,199.67823 c -1.10625,-0.33375 -1.82625,-0.64 -2.71,-0.995 l 0,3.37125 c 0.3175,-0.15 1.60375,-0.66375 2.71,-0.99625 1.18125,-0.35875 2.25625,-0.60375 2.95125,-0.69125 -0.695,-0.0863 -1.77,-0.32875 -2.95125,-0.68875"
     inkscape:connector-curvature="0" /><path
     id="path242"
     style="fill:none;stroke:#231f20;stroke-width:0.83581001;stroke-linecap:butt;stroke-linejoin:miter;stroke-miterlimit:4;stroke-dasharray:none;stroke-opacity:1"
     d="m 310.52244,162.19573 45.69875,0"
     inkscape:connector-curvature="0" /><path
     id="path244"
     style="fill:#231f20;fill-opacity:1;fill-rule:nonzero;stroke:none"
     d="m 357.79744,161.50948 c -1.1025,-0.33375 -1.82125,-0.64 -2.71,-0.99625 l 0,3.3725 c 0.3175,-0.15 1.6075,-0.665 2.71,-0.99625 1.185,-0.35875 2.25875,-0.6025 2.955,-0.69125 -0.69625,-0.0863 -1.77,-0.33 -2.955,-0.68875"
     inkscape:connector-curvature="0" /><path
     id="path246"
     style="fill:none;stroke:#231f20;stroke-width:0.83581001;stroke-linecap:butt;stroke-linejoin:miter;stroke-miterlimit:4;stroke-dasharray:none;stroke-opacity:1"
     d="m 310.52244,188.98448 17.77125,0 m -5.77625,-53.75375 0,113.8925 -12.25625,0"
     inkscape:connector-curvature="0" /><path
     id="path248"
     style="fill:#231f20;fill-opacity:1;fill-rule:nonzero;stroke:none"
     d="m 329.87119,188.29823 c -1.10625,-0.33375 -1.82375,-0.64125 -2.71,-0.99625 l 0,3.37125 c 0.3175,-0.15125 1.60375,-0.66375 2.71,-0.99625 1.18375,-0.35875 2.255,-0.6025 2.95125,-0.69 -0.69625,-0.0875 -1.7675,-0.33125 -2.95125,-0.68875"
     inkscape:connector-curvature="0" /><path
     id="path250"
     style="fill:none;stroke:#231f20;stroke-width:0.83581001;stroke-linecap:butt;stroke-linejoin:miter;stroke-miterlimit:4;stroke-dasharray:none;stroke-opacity:1"
     d="m 322.86869,212.61948 5.515,0"
     inkscape:connector-curvature="0" /><path
     id="path252"
     style="fill:#231f20;fill-opacity:1;fill-rule:nonzero;stroke:none"
     d="m 329.96119,211.93323 c -1.10375,-0.3325 -1.82375,-0.64125 -2.71,-0.99625 l 0,3.3725 c 0.3175,-0.1525 1.60625,-0.665 2.71,-0.99625 1.18375,-0.36 2.25625,-0.60375 2.95125,-0.69125 -0.695,-0.0862 -1.7675,-0.33125 -2.95125,-0.68875"
     inkscape:connector-curvature="0" /><path
     id="path254"
     style="fill:none;stroke:#231f20;stroke-width:0.83581001;stroke-linecap:butt;stroke-linejoin:miter;stroke-miterlimit:4;stroke-dasharray:none;stroke-opacity:1"
     d="m 316.30119,188.98448 0,39.9175 91.39375,0"
     inkscape:connector-curvature="0" /><path
     id="path256"
     style="fill:#231f20;fill-opacity:1;fill-rule:nonzero;stroke:none"
     d="m 409.27244,228.21698 c -1.10625,-0.334 -1.82375,-0.64113 -2.71,-0.99613 l 0,3.37113 c 0.3175,-0.14988 1.60375,-0.66263 2.71,-0.99613 1.18375,-0.35737 2.25625,-0.6025 2.95125,-0.68987 -0.695,-0.0865 -1.7675,-0.33163 -2.95125,-0.689"
     inkscape:connector-curvature="0" /><path
     id="path258"
     style="fill:none;stroke:#231f20;stroke-width:0.83581001;stroke-linecap:butt;stroke-linejoin:miter;stroke-miterlimit:4;stroke-dasharray:none;stroke-opacity:1"
     d="m 332.31994,119.91448 12.34625,0"
     inkscape:connector-curvature="0" /><path
     id="path260"
     style="fill:#231f20;fill-opacity:1;fill-rule:nonzero;stroke:none"
     d="m 345.90119,119.22948 c -1.10625,-0.335 -1.82375,-0.6425 -2.71,-0.9975 l 0,3.37125 c 0.3175,-0.15 1.60375,-0.66375 2.71,-0.99625 1.18375,-0.35875 2.25625,-0.6025 2.95125,-0.69 -0.695,-0.0875 -1.7675,-0.33125 -2.95125,-0.6875"
     inkscape:connector-curvature="0" /><path
     id="path262"
     style="fill:none;stroke:#231f20;stroke-width:0.83581001;stroke-linecap:butt;stroke-linejoin:miter;stroke-miterlimit:4;stroke-dasharray:none;stroke-opacity:1"
     d="m 377.67869,108.61948 30.53875,0"
     inkscape:connector-curvature="0" /><path
     id="path264"
     style="fill:#231f20;fill-opacity:1;fill-rule:nonzero;stroke:none"
     d="m 408.94244,107.93448 c -1.105,-0.33375 -1.82375,-0.64125 -2.7125,-0.99625 l 0,3.37125 c 0.3175,-0.15 1.6075,-0.66375 2.7125,-0.99625 1.1825,-0.35875 2.25625,-0.6025 2.9525,-0.69 -0.69625,-0.0875 -1.77,-0.33125 -2.9525,-0.68875"
     inkscape:connector-curvature="0" /><path
     id="path266"
     style="fill:none;stroke:#231f20;stroke-width:0.83581001;stroke-linecap:butt;stroke-linejoin:miter;stroke-miterlimit:4;stroke-dasharray:none;stroke-opacity:1"
     d="m 310.52244,94.175729 33.88,0"
     inkscape:connector-curvature="0" /><path
     id="path268"
     style="fill:#231f20;fill-opacity:1;fill-rule:nonzero;stroke:none"
     d="m 345.72244,93.489479 c -1.10625,-0.33375 -1.82375,-0.64125 -2.71,-0.9975 l 0,3.37375 c 0.3175,-0.15125 1.60375,-0.665 2.71,-0.9975 1.185,-0.3575 2.25875,-0.6025 2.9525,-0.68875 -0.69375,-0.0875 -1.7675,-0.3325 -2.9525,-0.69"
     inkscape:connector-curvature="0" /><path
     id="path270"
     style="fill:none;stroke:#231f20;stroke-width:0.83581001;stroke-linecap:butt;stroke-linejoin:miter;stroke-miterlimit:4;stroke-dasharray:none;stroke-opacity:1"
     d="m 274.27869,162.45948 16.335,0"
     inkscape:connector-curvature="0" /><path
     id="path272"
     style="fill:#231f20;fill-opacity:1;fill-rule:nonzero;stroke:none"
     d="m 292.71244,161.77448 c -1.105,-0.335 -1.82375,-0.6425 -2.71125,-0.99875 l 0,3.37375 c 0.3175,-0.15125 1.60625,-0.66375 2.71125,-0.99625 1.18125,-0.35875 2.25625,-0.60375 2.95125,-0.69125 -0.695,-0.0863 -1.77,-0.33 -2.95125,-0.6875"
     inkscape:connector-curvature="0" /><path
     id="path274"
     style="fill:none;stroke:#231f20;stroke-width:0.83581001;stroke-linecap:butt;stroke-linejoin:miter;stroke-miterlimit:4;stroke-dasharray:none;stroke-opacity:1"
     d="m 274.01994,188.72198 16.59375,0"
     inkscape:connector-curvature="0" /><path
     id="path276"
     style="fill:#231f20;fill-opacity:1;fill-rule:nonzero;stroke:none"
     d="m 292.62744,188.03573 c -1.10625,-0.33375 -1.825,-0.64125 -2.71125,-0.9975 l 0,3.37375 c 0.3175,-0.15125 1.605,-0.66375 2.71125,-0.9975 1.18125,-0.3575 2.255,-0.6025 2.95125,-0.68875 -0.69625,-0.0888 -1.77,-0.3325 -2.95125,-0.69"
     inkscape:connector-curvature="0" /><path
     id="path278"
     style="fill:none;stroke:#231f20;stroke-width:0.83581001;stroke-linecap:butt;stroke-linejoin:miter;stroke-miterlimit:4;stroke-dasharray:none;stroke-opacity:1"
     d="m 183.67619,93.650729 106.9375,0"
     inkscape:connector-curvature="0" /><path
     id="path280"
     style="fill:#231f20;fill-opacity:1;fill-rule:nonzero;stroke:none"
     d="m 292.70994,92.964479 c -1.10625,-0.33375 -1.82375,-0.64125 -2.71125,-0.9975 l 0,3.37375 c 0.31875,-0.15125 1.605,-0.66375 2.71125,-0.99875 1.18375,-0.35625 2.25625,-0.60125 2.94875,-0.6875 -0.6925,-0.0888 -1.765,-0.3325 -2.94875,-0.69"
     inkscape:connector-curvature="0" /><path
     id="path282"
     style="fill:none;stroke:#231f20;stroke-width:0.83581001;stroke-linecap:butt;stroke-linejoin:miter;stroke-miterlimit:4;stroke-dasharray:none;stroke-opacity:1"
     d="m 127.99894,93.650729 36.76725,0"
     inkscape:connector-curvature="0" /><path
     id="path284"
     style="fill:#231f20;fill-opacity:1;fill-rule:nonzero;stroke:none"
     d="m 165.57869,92.964479 c -1.105,-0.33375 -1.82375,-0.64125 -2.71,-0.9975 l 0,3.37375 c 0.31625,-0.15125 1.605,-0.66375 2.71,-0.99875 1.18375,-0.35625 2.25625,-0.60125 2.95125,-0.6875 -0.695,-0.0888 -1.7675,-0.3325 -2.95125,-0.69"
     inkscape:connector-curvature="0" /><path
     id="path286"
     style="fill:none;stroke:#231f20;stroke-width:0.83581001;stroke-linecap:butt;stroke-linejoin:miter;stroke-miterlimit:4;stroke-dasharray:none;stroke-opacity:1"
     d="m 90.706436,107.83073 10.505874,0"
     inkscape:connector-curvature="0" /><path
     id="path288"
     style="fill:#231f20;fill-opacity:1;fill-rule:nonzero;stroke:none"
     d="m 102.53369,107.14573 c -1.1045,-0.3325 -1.82375,-0.64125 -2.710504,-0.9975 l 0,3.37375 c 0.317874,-0.15125 1.606004,-0.66375 2.710504,-0.9975 1.1835,-0.3575 2.25625,-0.6025 2.95212,-0.68875 -0.69587,-0.0875 -1.76862,-0.3325 -2.95212,-0.69"
     inkscape:connector-curvature="0" /><path
     id="path290"
     style="fill:none;stroke:#231f20;stroke-width:0.83581001;stroke-linecap:butt;stroke-linejoin:miter;stroke-miterlimit:4;stroke-dasharray:none;stroke-opacity:1"
     d="m 59.715811,154.57948 13.659125,0"
     inkscape:connector-curvature="0" /><path
     id="path292"
     style="fill:#231f20;fill-opacity:1;fill-rule:nonzero;stroke:none"
     d="m 74.722561,153.89323 c -1.105375,-0.33375 -1.824625,-0.64 -2.711375,-0.995 l 0,3.37125 c 0.317875,-0.15 1.606,-0.66375 2.711375,-0.99625 1.183125,-0.35875 2.255875,-0.6025 2.95175,-0.69125 -0.695875,-0.0863 -1.768625,-0.32875 -2.95175,-0.68875"
     inkscape:connector-curvature="0" /><path
     id="path294"
     style="fill:none;stroke:#231f20;stroke-width:0.83581001;stroke-linecap:butt;stroke-linejoin:miter;stroke-miterlimit:4;stroke-dasharray:none;stroke-opacity:1"
     d="m 66.019936,154.57948 0,-72.485001 34.667504,0"
     inkscape:connector-curvature="0" /><path
     id="path296"
     style="fill:#231f20;fill-opacity:1;fill-rule:nonzero;stroke:none"
     d="m 102.26656,81.409479 c -1.1055,-0.33375 -1.82475,-0.64125 -2.711499,-0.9975 l 0,3.37375 c 0.317875,-0.15125 1.605999,-0.665 2.711499,-0.9975 1.18313,-0.3575 2.25588,-0.6025 2.95163,-0.69 -0.69575,-0.0875 -1.7685,-0.33125 -2.95163,-0.68875"
     inkscape:connector-curvature="0" /><path
     id="path298"
     style="fill:none;stroke:#231f20;stroke-width:0.83581001;stroke-linecap:butt;stroke-linejoin:miter;stroke-miterlimit:4;stroke-dasharray:none;stroke-opacity:1"
     d="m 183.50244,185.74573 5.7775,0"
     inkscape:connector-curvature="0" /><path
     id="path300"
     style="fill:none;stroke:#231f20;stroke-width:0.83581001;stroke-linecap:butt;stroke-linejoin:miter;stroke-miterlimit:4;stroke-dasharray:none;stroke-opacity:1"
     d="m 273.57244,250.64173 17.8,0"
     inkscape:connector-curvature="0" /><text
     style="font-variant:normal;font-weight:normal;font-size:6.12926245px;font-family:Helvetica;-inkscape-font-specification:Helvetica;writing-mode:lr-tb;fill:#231f20;fill-opacity:1;fill-rule:nonzero;stroke:none"
     id="text304"
     x="84.213806"
     y="109.92947"><tspan
       x="84.213806"
       y="109.92947"
       id="tspan306">4</tspan><tspan
       x="295.24881 296.95389 301.37921 303.08313 307.172 169.50507 171.20917 174.95372 176.6579 178.36182 407.41916 411.50653 415.59473 417.29868 422.40436 426.49323"
       y="59.218109"
       id="tspan308">ID/EXIF/IDEX/MEM</tspan></text>
<path
     id="path310"
     style="fill:#231f20;fill-opacity:1;fill-rule:nonzero;stroke:none"
     d="m 292.95119,249.95423 c -1.105,-0.3335 -1.8225,-0.641 -2.71,-0.996 l 0,3.3725 c 0.3175,-0.14987 1.605,-0.66263 2.71,-0.99513 1.185,-0.35987 2.25625,-0.6035 2.9525,-0.69087 -0.69625,-0.0865 -1.7675,-0.3315 -2.9525,-0.6905"
     inkscape:connector-curvature="0" /><path
     id="path312"
     style="fill:none;stroke:#231f20;stroke-width:0.55720752;stroke-linecap:butt;stroke-linejoin:miter;stroke-miterlimit:4;stroke-dasharray:none;stroke-opacity:1"
     d="m 234.66494,247.56073 2.6975,5.90775 m 43.145,-6.42288 2.695,5.90775"
     inkscape:connector-curvature="0" /><path
     id="path314"
     style="fill:none;stroke:#231f20;stroke-width:0.83581001;stroke-linecap:butt;stroke-linejoin:miter;stroke-miterlimit:4;stroke-dasharray:none;stroke-opacity:1"
     d="m 37.481436,154.22948 4.55225,0"
     inkscape:connector-curvature="0" /><text
     style="font-variant:normal;font-weight:normal;font-size:6.12926245px;font-family:Helvetica;-inkscape-font-specification:Helvetica;writing-mode:lr-tb;fill:#231f20;fill-opacity:1;fill-rule:nonzero;stroke:none"
     id="text318"
     x="230.03745"
     y="245.75948"><tspan
       x="230.03745 233.44467"
       y="245.75948"
       id="tspan320">16</tspan></text>
<path
     id="path322"
     style="fill:#231f20;fill-opacity:1;fill-rule:nonzero;stroke:none"
     d="m 43.613186,153.54448 c -1.105,-0.335 -1.824125,-0.64125 -2.710875,-0.9975 l 0,3.3725 c 0.317875,-0.15 1.605875,-0.66375 2.710875,-0.9975 1.183625,-0.3575 2.255875,-0.6025 2.95175,-0.69 -0.695875,-0.0863 -1.768125,-0.33 -2.95175,-0.6875"
     inkscape:connector-curvature="0" /><path
     id="path332"
     style="fill:none;stroke:#231f20;stroke-width:0.83581001;stroke-linecap:butt;stroke-linejoin:miter;stroke-miterlimit:4;stroke-dasharray:none;stroke-opacity:1"
     d="m 426.86494,109.58198 24.86375,0 0,-70.907501 -443.310785,0 0,128.292501 10.854006,0"
     inkscape:connector-curvature="0" /><path
     id="path334"
     style="fill:#231f20;fill-opacity:1;fill-rule:nonzero;stroke:none"
     d="m 21.314436,166.28073 c -1.105512,-0.33375 -1.82475,-0.64125 -2.711475,-0.99625 l 0,3.3725 c 0.317875,-0.15 1.605963,-0.66375 2.711475,-0.9975 1.183,-0.3575 2.255875,-0.60125 2.951625,-0.69 -0.69575,-0.0862 -1.768625,-0.33 -2.951625,-0.68875"
     inkscape:connector-curvature="0" /><path
     id="path336"
     style="fill:none;stroke:#231f20;stroke-width:0.83581001;stroke-linecap:butt;stroke-linejoin:miter;stroke-miterlimit:4;stroke-dasharray:none;stroke-opacity:1"
     d="m 137.10369,93.650729 0,-46.04625 -124.132566,0 0,94.391251 6.300787,-0.0225"
     inkscape:connector-curvature="0" /><path
     id="path338"
     style="fill:#231f20;fill-opacity:1;fill-rule:nonzero;stroke:none"
     d="m 21.080061,141.28198 c -1.106975,-0.33 -1.8272,-0.63375 -2.7144,-0.9875 l 0.0122,3.3725 c 0.3169,-0.15 1.60255,-0.66875 2.707075,-1.00625 1.182125,-0.3625 2.253875,-0.61125 2.949625,-0.7 -0.69625,-0.085 -1.7705,-0.325 -2.9545,-0.67875"
     inkscape:connector-curvature="0" /><path
     id="path340"
     style="fill:#231f20;fill-opacity:1;fill-rule:nonzero;stroke:none"
     d="m 135.21869,93.641979 c 0,1.07625 0.8725,1.95 1.95,1.95 1.07625,0 1.95,-0.87375 1.95,-1.95 0,-1.07625 -0.87375,-1.95 -1.95,-1.95 -1.0775,0 -1.95,0.87375 -1.95,1.95"
     inkscape:connector-curvature="0" /><path
     id="path342"
     style="fill:#231f20;fill-opacity:1;fill-rule:nonzero;stroke:none"
     d="m 64.134186,154.56948 c 0,1.0775 0.872625,1.95125 1.94925,1.95125 1.076625,0 1.95025,-0.87375 1.95025,-1.95125 0,-1.075 -0.873625,-1.95 -1.95025,-1.95 -1.076625,0 -1.94925,0.875 -1.94925,1.95"
     inkscape:connector-curvature="0" /><path
     id="path344"
     style="fill:#231f20;fill-opacity:1;fill-rule:nonzero;stroke:none"
     d="m 189.44994,185.73573 c 0,1.07625 0.87125,1.95125 1.95,1.95125 1.0775,0 1.95125,-0.875 1.95125,-1.95125 0,-1.07625 -0.87375,-1.95 -1.95125,-1.95 -1.07875,0 -1.95,0.87375 -1.95,1.95"
     inkscape:connector-curvature="0" /><path
     id="path346"
     style="fill:#231f20;fill-opacity:1;fill-rule:nonzero;stroke:none"
     d="m 189.73619,193.70323 c 0,1.07625 0.8725,1.95 1.95125,1.95 1.075,0 1.94875,-0.87375 1.94875,-1.95 0,-1.07875 -0.87375,-1.95 -1.94875,-1.95 -1.07875,0 -1.95125,0.87125 -1.95125,1.95"
     inkscape:connector-curvature="0" /><path
     id="path348"
     style="fill:#231f20;fill-opacity:1;fill-rule:nonzero;stroke:none"
     d="m 189.44994,175.10073 c 0,1.0775 0.87125,1.95125 1.95,1.95125 1.0775,0 1.95125,-0.87375 1.95125,-1.95125 0,-1.0775 -0.87375,-1.95 -1.95125,-1.95 -1.07875,0 -1.95,0.8725 -1.95,1.95"
     inkscape:connector-curvature="0" /><path
     id="path350"
     style="fill:#231f20;fill-opacity:1;fill-rule:nonzero;stroke:none"
     d="m 314.24119,189.17323 c 0,1.075 0.87375,1.95 1.9475,1.95 1.08,0 1.95125,-0.875 1.95125,-1.95 0,-1.0775 -0.87125,-1.95 -1.95125,-1.95 -1.07375,0 -1.9475,0.8725 -1.9475,1.95"
     inkscape:connector-curvature="0" /><path
     id="path352"
     style="fill:#231f20;fill-opacity:1;fill-rule:nonzero;stroke:none"
     d="m 430.48869,186.15448 c 0,1.07625 0.87125,1.9525 1.95,1.9525 1.0775,0 1.94875,-0.87625 1.94875,-1.9525 0,-1.07625 -0.87125,-1.94875 -1.94875,-1.94875 -1.07875,0 -1.95,0.8725 -1.95,1.94875"
     inkscape:connector-curvature="0" /><path
     id="path354"
     style="fill:#231f20;fill-opacity:1;fill-rule:nonzero;stroke:none"
     d="m 320.54244,212.63323 c 0,1.07625 0.87625,1.94875 1.95,1.94875 1.0775,0 1.95125,-0.8725 1.95125,-1.94875 0,-1.07875 -0.87375,-1.95125 -1.95125,-1.95125 -1.07375,0 -1.95,0.8725 -1.95,1.95125"
     inkscape:connector-curvature="0" /><path
     id="path356"
     style="fill:none;stroke:#231f20;stroke-width:0.55720752;stroke-linecap:butt;stroke-linejoin:miter;stroke-miterlimit:4;stroke-dasharray:none;stroke-opacity:1"
     d="m 37.391061,164.16948 c 0,4.37125 -2.973125,7.915 -6.639125,7.915 -3.6675,0 -6.640625,-3.54375 -6.640625,-7.915 l 0,-20.225 c 0,-4.375 2.973125,-7.9175 6.640625,-7.9175 3.666,0 6.639125,3.5425 6.639125,7.9175 l 0,20.225 z"
     inkscape:connector-curvature="0" /><path
     id="path358"
     style="fill:none;stroke:#231f20;stroke-width:0.55720752;stroke-linecap:butt;stroke-linejoin:miter;stroke-miterlimit:4;stroke-dasharray:none;stroke-opacity:1"
     d="m 346.06494,210.82698 c 0,4.3725 -2.97625,7.915 -6.64375,7.915 -3.66375,0 -6.635,-3.5425 -6.635,-7.915 l 0,-20.22375 c 0,-4.37375 2.97125,-7.91625 6.635,-7.91625 3.6675,0 6.64375,3.5425 6.64375,7.91625 l 0,20.22375 z"
     inkscape:connector-curvature="0" /><path
     id="path360"
     style="fill:none;stroke:#231f20;stroke-width:0.55720752;stroke-linecap:butt;stroke-linejoin:miter;stroke-miterlimit:4;stroke-dasharray:none;stroke-opacity:1"
     d="m 564.03869,207.67698 c 0,4.3725 -2.96875,7.91625 -6.63625,7.91625 -3.6675,0 -6.64,-3.54375 -6.64,-7.91625 l 0,-20.22625 c 0,-4.37375 2.9725,-7.91625 6.64,-7.91625 3.6675,0 6.63625,3.5425 6.63625,7.91625 l 0,20.22625 z"
     inkscape:connector-curvature="0" /><text
     style="font-variant:normal;font-weight:normal;font-size:6.12926245px;font-family:Helvetica;-inkscape-font-specification:Helvetica;writing-mode:lr-tb;fill:#231f20;fill-opacity:1;fill-rule:nonzero;stroke:none"
     id="text364"
     x="276.90619"
     y="245.75798"><tspan
       x="276.90619 280.31488"
       y="245.75798"
       id="tspan366">32</tspan><tspan
       x="27.763693"
       y="142.79311"
       id="tspan368">0</tspan></text>
<text
     style="font-variant:normal;font-weight:bold;font-size:6.12926245px;font-family:Helvetica;-inkscape-font-specification:Helvetica-Bold;writing-mode:lr-tb;fill:#231f20;fill-opacity:1;fill-rule:nonzero;stroke:none"
     id="text370"
     x="29.4175"
     y="149.47328"><tspan
       x="29.4175"
       y="149.47328"
       id="tspan372">M</tspan><tspan
       x="30.097187"
       y="156.82924"
       id="tspan374">u</tspan><tspan
       x="30.265644"
       y="164.18422"
       id="tspan376">x</tspan></text>
<text
     style="font-variant:normal;font-weight:normal;font-size:6.12926245px;font-family:Helvetica;-inkscape-font-specification:Helvetica;writing-mode:lr-tb;fill:#231f20;fill-opacity:1;fill-rule:nonzero;stroke:none"
     id="text378"
     x="27.763695"
     y="169.5519"><tspan
       x="27.763695"
       y="169.5519"
       id="tspan380">1</tspan><tspan
       x="336.43619"
       y="190.86827"
       id="tspan382">0</tspan></text>
<text
     style="font-variant:normal;font-weight:bold;font-size:6.12926245px;font-family:Helvetica;-inkscape-font-specification:Helvetica-Bold;writing-mode:lr-tb;fill:#231f20;fill-opacity:1;fill-rule:nonzero;stroke:none"
     id="text384"
     x="337.88785"
     y="196.90195"><tspan
       x="337.88785"
       y="196.90195"
       id="tspan386">M</tspan><tspan
       x="338.56656"
       y="204.25693"
       id="tspan388">u</tspan><tspan
       x="338.73502"
       y="211.61191"
       id="tspan390">x</tspan></text>
<text
     style="font-style:normal;font-variant:normal;font-weight:normal;font-stretch:normal;font-size:6.12925005px;line-height:125%;font-family:Helvetica;-inkscape-font-specification:'Helvetica, Normal';text-align:start;writing-mode:lr-tb;text-anchor:start;fill:#231f20;fill-opacity:1;fill-rule:nonzero;stroke:none"
     id="text392"
     x="336.43619"
     y="214.50449"
     sodipodi:linespacing="125%"><tspan
       sodipodi:role="line"
       id="tspan4860"
       x="336.43619"
       y="214.50449">1</tspan></text>
<text
     style="font-variant:normal;font-weight:bold;font-size:6.12926245px;font-family:Helvetica;-inkscape-font-specification:Helvetica-Bold;writing-mode:lr-tb;fill:#231f20;fill-opacity:1;fill-rule:nonzero;stroke:none"
     id="text398"
     x="555.59998"
     y="192.29793"><tspan
       x="555.59998"
       y="192.29793"
       id="tspan400">M</tspan><tspan
       x="556.28113"
       y="199.65289"
       id="tspan402">u</tspan><tspan
       x="556.44763"
       y="207.00838"
       id="tspan404">x</tspan></text>
<text
     style="font-style:normal;font-variant:normal;font-weight:normal;font-stretch:normal;font-size:6.12925005px;line-height:125%;font-family:Helvetica;-inkscape-font-specification:'Helvetica, Normal';text-align:start;writing-mode:lr-tb;text-anchor:start;fill:#231f20;fill-opacity:1;fill-rule:nonzero;stroke:none"
     id="text406"
     x="514.73773"
     y="59.309998"
     sodipodi:linespacing="125%"><tspan
       sodipodi:role="line"
       id="tspan4856"
       x="514.73773"
       y="59.309998">MEM/WB</tspan></text>
<text
     xml:space="preserve"
     style="font-style:normal;font-weight:normal;font-size:10px;line-height:125%;font-family:sans-serif;letter-spacing:0px;word-spacing:0px;fill:#000000;fill-opacity:1;stroke:none;stroke-width:1px;stroke-linecap:butt;stroke-linejoin:miter;stroke-opacity:1"
     x="131.19711"
     y="319.56189"
     id="text5570"
     sodipodi:linespacing="125%"><tspan
       sodipodi:role="line"
       id="tspan5572"
       x="131.19711"
       y="319.56189">Simulação, da instrução LW, na terceira etapa do pipelilne.</tspan></text>
<text
     sodipodi:linespacing="125%"
     y="190.70386"
     x="551.26093"
     id="text5622"
     style="font-style:normal;font-variant:normal;font-weight:normal;font-stretch:normal;font-size:5px;line-height:125%;font-family:sans-serif;-inkscape-font-specification:sans-serif;text-align:start;writing-mode:lr-tb;text-anchor:start;fill:#000000;fill-opacity:1;fill-rule:nonzero;stroke:none"><tspan
       y="190.70386"
       x="551.26093"
       sodipodi:role="line"
       id="tspan5634">1</tspan><tspan
       y="196.95386"
       x="551.26093"
       sodipodi:role="line"
       id="tspan4850" /><tspan
       y="203.20386"
       x="551.26093"
       sodipodi:role="line"
       id="tspan4852" /><tspan
       y="209.45386"
       x="551.26093"
       sodipodi:role="line"
       id="tspan5640">0</tspan></text>
<text
     xml:space="preserve"
     style="font-style:normal;font-weight:normal;font-size:10px;line-height:125%;font-family:sans-serif;text-align:start;letter-spacing:0px;word-spacing:0px;writing-mode:lr-tb;text-anchor:start;opacity:0.93999999;fill:#000000;fill-opacity:1;stroke:none;stroke-width:1px;stroke-linecap:butt;stroke-linejoin:miter;stroke-opacity:1"
     x="25.989063"
     y="266.80597"
     id="text4894"
     sodipodi:linespacing="125%"><tspan
       sodipodi:role="line"
       id="tspan4304"
       x="25.989063"
       y="266.80597"
       style="font-size:7.5px">COD 4Ed, Copyright © 2009 </tspan><tspan
       sodipodi:role="line"
       x="25.989063"
       y="276.18097"
       style="font-size:7.5px"
       id="tspan4308">Elsevier, Inc. All rights reserved.</tspan><tspan
       sodipodi:role="line"
       id="tspan4306"
       x="25.989063"
       y="285.55597" /></text>
</svg>