<?xml version="1.0" encoding="UTF-8" standalone="no"?>
<svg
   xmlns:dc="http://purl.org/dc/elements/1.1/"
   xmlns:cc="http://creativecommons.org/ns#"
   xmlns:rdf="http://www.w3.org/1999/02/22-rdf-syntax-ns#"
   xmlns:svg="http://www.w3.org/2000/svg"
   xmlns="http://www.w3.org/2000/svg"
   xmlns:sodipodi="http://sodipodi.sourceforge.net/DTD/sodipodi-0.dtd"
   xmlns:inkscape="http://www.inkscape.org/namespaces/inkscape"
   viewBox="0 0 448.63141 168.17741"
   height="168.17741"
   width="448.63141"
   xml:space="preserve"
   version="1.1"
   id="svg2"
   inkscape:version="0.91 r13725"
   sodipodi:docname="pipelineExecucaoCOD4Ed-1-corrigido.svg"><sodipodi:namedview
     pagecolor="#ffffff"
     bordercolor="#666666"
     borderopacity="1"
     objecttolerance="10"
     gridtolerance="10"
     guidetolerance="10"
     inkscape:pageopacity="0"
     inkscape:pageshadow="2"
     inkscape:window-width="1920"
     inkscape:window-height="1031"
     id="namedview187"
     showgrid="false"
     fit-margin-left="8"
     fit-margin-top="8"
     fit-margin-bottom="8"
     fit-margin-right="8"
     inkscape:zoom="2.7260686"
     inkscape:cx="224.3157"
     inkscape:cy="78.088707"
     inkscape:window-x="1920"
     inkscape:window-y="30"
     inkscape:window-maximized="1"
     inkscape:current-layer="svg2"
     showguides="true"
     inkscape:guide-bbox="true" /><metadata
     id="metadata8"><rdf:RDF><cc:Work
         rdf:about=""><dc:format>image/svg+xml</dc:format><dc:type
           rdf:resource="http://purl.org/dc/dcmitype/StillImage" /><dc:title></dc:title></cc:Work></rdf:RDF></metadata><defs
     id="defs6" /><g
     transform="matrix(1.25,0,0,-1.25,6.8378367,262.43488)"
     id="g70"><text
       id="text72"
       style="font-style:normal;font-variant:normal;font-weight:normal;font-stretch:normal;font-size:8.00030041px;line-height:125%;font-family:Helvetica;-inkscape-font-specification:'Helvetica, Normal';text-align:start;writing-mode:lr-tb;text-anchor:start;fill:#000000;fill-opacity:1;fill-rule:nonzero;stroke:none"
       transform="scale(0.999996,-1.000004)"
       sodipodi:linespacing="125%"
       x="83.994026"
       y="-186.97751"><tspan
         sodipodi:role="line"
         id="tspan4321"
         x="83.994026"
         y="-186.97751">200        400        600        800      1000     1200      1400       1600</tspan></text>
</g><g
     transform="matrix(1.25,0,0,-1.25,6.8378367,262.43488)"
     id="g170"><text
       id="text172"
       style="font-style:normal;font-variant:normal;font-weight:normal;font-stretch:normal;font-size:8.00033283px;line-height:125%;font-family:Helvetica;-inkscape-font-specification:'Helvetica, Normal';text-align:start;writing-mode:lr-tb;text-anchor:start;fill:#000000;fill-opacity:1;fill-rule:nonzero;stroke:none"
       transform="scale(0.999996,-1.000004)"
       sodipodi:linespacing="125%"
       x="0.64172238"
       y="-197.71484"><tspan
         sodipodi:role="line"
         id="tspan4300"
         x="0.64172238"
         y="-197.71484">Program</tspan><tspan
         sodipodi:role="line"
         id="tspan4302"
         x="0.64172238"
         y="-187.71443">execution</tspan><tspan
         sodipodi:role="line"
         x="0.64172238"
         y="-177.714"
         id="tspan4305">order </tspan><tspan
         sodipodi:role="line"
         x="0.64172238"
         y="-167.71359"
         id="tspan4307">(in instructions)</tspan></text>
</g><path
     id="path184"
     style="fill:none;stroke:#231f20;stroke-width:0.625;stroke-linecap:butt;stroke-linejoin:miter;stroke-miterlimit:4;stroke-dasharray:none;stroke-opacity:1"
     d="m 10.390086,66.243622 0,67.998758"
     inkscape:connector-curvature="0" /><path
     id="path186"
     style="fill:#231f20;fill-opacity:1;fill-rule:nonzero;stroke:none"
     d="m 10.870549,135.34988 c 0.234375,-0.775 0.449712,-1.28 0.699225,-1.90125 l -2.3642625,0 c 0.105475,0.2225 0.46485,1.12625 0.698738,1.90125 0.2509745,0.82875 0.4223615,1.58 0.4833865,2.06875 0.06104,-0.48875 0.232425,-1.24 0.482913,-2.06875"
     inkscape:connector-curvature="0" /><g
     transform="matrix(1.25,0,0,-1.25,6.8378367,262.43488)"
     id="g188"><text
       id="text190"
       style="font-variant:normal;font-weight:normal;font-size:8.00037003px;font-family:Helvetica;-inkscape-font-specification:Helvetica;writing-mode:lr-tb;fill:#000000;fill-opacity:1;fill-rule:nonzero;stroke:none"
       transform="matrix(0.999992,0,0,-1,4.94961,149.025)"><tspan
         id="tspan192"
         y="0"
         x="0 1.7760822 7.5523491 12.000555 16.448761 20.896967 23.121069 25.345173 29.793379 34.241585 38.689789 41.353912 45.802116 50.250324">lw $1, 100($0)</tspan><tspan
         id="tspan194"
         y="19.0012"
         x="0 1.7760822 7.5523491 12.000555 16.448761 20.896967 23.121069 25.345173 29.793379 34.241585 38.689789 41.353912 45.802116 50.250324">lw $2, 200($0)</tspan><tspan
         id="tspan196"
         y="38.002399"
         x="0 1.7760822 7.5523491 12.000555 16.448761 20.896967 23.121069 25.345173 29.793379 34.241585 38.689789 41.353912 45.802116 50.250324">lw $3, 300($0)</tspan></text>
</g><path
     id="path198"
     style="fill:none;stroke:#231f20;stroke-width:0.625;stroke-linecap:butt;stroke-linejoin:miter;stroke-miterlimit:4;stroke-dasharray:none;stroke-opacity:1"
     d="m 82.184962,32.648622 335.630918,0"
     inkscape:connector-curvature="0" /><path
     id="path200"
     style="fill:#231f20;fill-opacity:1;fill-rule:nonzero;stroke:none"
     d="m 416.56409,32.167372 c -0.77625,-0.23375 -1.28,-0.45 -1.90125,-0.69875 l 0,2.365 c 0.2225,-0.10625 1.125,-0.46625 1.90125,-0.7 0.82875,-0.25 1.58125,-0.4225 2.0675,-0.4825 -0.48625,-0.0613 -1.23875,-0.2325 -2.0675,-0.48375"
     inkscape:connector-curvature="0" /><g
     transform="matrix(1.25,0,0,-1.25,6.8378367,262.43488)"
     id="g204"><text
       id="text206"
       style="font-variant:normal;font-weight:normal;font-size:8.00037003px;font-family:Helvetica;-inkscape-font-specification:Helvetica;writing-mode:lr-tb;fill:#000000;fill-opacity:1;fill-rule:nonzero;stroke:none"
       transform="matrix(0.999992,0,0,-1,39.3461,181.292)"><tspan
         id="tspan208"
         y="0"
         x="0 4.888226 6.6643081 13.328616">Time</tspan></text>
<text
       id="text210"
       style="font-variant:normal;font-weight:normal;font-size:6.00030994px;font-family:Helvetica;-inkscape-font-specification:Helvetica;writing-mode:lr-tb;fill:#000000;fill-opacity:1;fill-rule:nonzero;stroke:none"
       transform="matrix(0.999982,0,0,-1,61.8586,153.304)"><tspan
         id="tspan212"
         y="0"
         x="0 1.6680862 5.0042586 8.0044136 9.6724997 11.670603 15.006775 18.006929 19.675016 21.007086 24.343258">Instruction</tspan><tspan
         id="tspan214"
         y="7.0007801"
         x="7.33529 9.003376 12.339548 14.007635 17.00779">fetch</tspan><tspan
         id="tspan216"
         y="0.00078"
         x="98.079086 102.41132 105.74749 107.41246">Data</tspan><tspan
         id="tspan218"
         y="7.0007801"
         x="95.079086 98.41526 101.41542 104.41474 107.75092 110.75107">access</tspan><tspan
         id="tspan220"
         y="3.5007801"
         x="122.58159 126.91381 130.24998">Reg</tspan></text>
</g><path
     id="path222"
     style="fill:none;stroke:#231f20;stroke-width:0.625;stroke-linecap:butt;stroke-linejoin:miter;stroke-miterlimit:4;stroke-dasharray:none;stroke-opacity:1"
     d="m 82.084961,84.543622 37.916499,0 0,-24.14875 -37.916499,0 0,24.14875 z m 38.000379,24.197508 38.3325,0 0,-24.148758 -38.3325,0 0,24.148758 z"
     inkscape:connector-curvature="0" /><g
     transform="matrix(1.25,0,0,-1.25,6.8378367,262.43488)"
     id="g224"><text
       id="text226"
       style="font-variant:normal;font-weight:normal;font-size:6.00030994px;font-family:Helvetica;-inkscape-font-specification:Helvetica;writing-mode:lr-tb;fill:#000000;fill-opacity:1;fill-rule:nonzero;stroke:none"
       transform="matrix(0.999982,0,0,-1,92.157,133.945)"><tspan
         id="tspan228"
         y="0"
         x="0 1.6680862 5.0042586 8.0054693 9.6735554 11.671659 15.007832 18.007986 19.676073 21.008141 24.340761">Instruction</tspan><tspan
         id="tspan230"
         y="7.0007801"
         x="7.33529 9.003376 12.339548 14.008318 17.007595">fetch</tspan></text>
</g><path
     id="path232"
     style="fill:none;stroke:#231f20;stroke-width:0.625;stroke-linecap:butt;stroke-linejoin:miter;stroke-miterlimit:4;stroke-dasharray:none;stroke-opacity:1"
     d="m 158.50159,132.82488 38.33375,0 0,-24.14875 -38.33375,0 0,24.14875 z m -19.42375,-48.281258 114.87375,0 0,-24.14875 -114.87375,0 0,24.14875 z m 19.33,-24.14875 0,24.14875 m 38.24,-23.86875 0,23.58875 m 38.2,-23.86875 0,24.14875"
     inkscape:connector-curvature="0" /><g
     transform="matrix(1.25,0,0,-1.25,6.8378367,262.43488)"
     id="g234"><text
       id="text236"
       style="font-variant:normal;font-weight:normal;font-size:6.00030994px;font-family:Helvetica;-inkscape-font-specification:Helvetica;writing-mode:lr-tb;fill:#000000;fill-opacity:1;fill-rule:nonzero;stroke:none"
       transform="matrix(0.999982,0,0,-1,122.657,114.678)"><tspan
         id="tspan238"
         y="0"
         x="0 1.6680862 5.0042586 8.0044136 9.6724997 11.670603 15.005897 18.006052 19.674137 21.006207 24.340048">Instruction</tspan><tspan
         id="tspan240"
         y="7.0011702"
         x="7.33529 9.003376 12.339548 14.007635 17.00779">fetch</tspan><tspan
         id="tspan242"
         y="-19.35783"
         x="67.636391 71.968613 75.304787 76.969368">Data</tspan><tspan
         id="tspan244"
         y="-12.35783"
         x="64.636391 67.972565 70.972717 73.97287 77.309799 80.309959">access</tspan></text>
</g><path
     id="path246"
     style="fill:none;stroke:#231f20;stroke-width:0.625;stroke-linecap:butt;stroke-linejoin:miter;stroke-miterlimit:4;stroke-dasharray:none;stroke-opacity:1"
     d="m 177.64659,108.62738 114.98,0 0,-24.151258 -114.98,0 0,24.151258 z m 19.06625,-24.151258 0,24.151258 m 38.355,-23.868758 0,23.586258 m 38.14375,-23.868758 0,24.151258"
     inkscape:connector-curvature="0" /><g
     transform="matrix(1.25,0,0,-1.25,6.8378367,262.43488)"
     id="g248"><text
       id="text250"
       style="font-variant:normal;font-weight:normal;font-size:6.00030994px;font-family:Helvetica;-inkscape-font-specification:Helvetica;writing-mode:lr-tb;fill:#000000;fill-opacity:1;fill-rule:nonzero;stroke:none"
       transform="matrix(0.999982,0,0,-1,214.796,130.536)"><tspan
         id="tspan252"
         y="0"
         x="0 4.3322239 7.668396">Reg</tspan><tspan
         id="tspan254"
         y="15.768"
         x="6.30793 10.640154 13.976326 15.641312">Data</tspan><tspan
         id="tspan256"
         y="22.768"
         x="3.30709 6.6432624 9.6434174 12.643573 15.979745 18.9799">access</tspan></text>
</g><path
     id="path258"
     style="fill:none;stroke:#231f20;stroke-width:0.625;stroke-linecap:butt;stroke-linejoin:miter;stroke-miterlimit:4;stroke-dasharray:none;stroke-opacity:1"
     d="m 84.221086,89.296122 32.688004,0"
     inkscape:connector-curvature="0" /><path
     id="path260"
     style="fill:#231f20;fill-opacity:1;fill-rule:nonzero;stroke:none"
     d="m 118.01659,88.814872 c -0.77538,-0.2325 -1.27888,-0.44875 -1.90088,-0.6975 l 0,2.36375 c 0.22313,-0.10625 1.1255,-0.46625 1.90088,-0.69875 0.8295,-0.2525 1.5815,-0.4225 2.06875,-0.48375 -0.48725,-0.0613 -1.23925,-0.23375 -2.06875,-0.48375"
     inkscape:connector-curvature="0" /><path
     id="path262"
     style="fill:#231f20;fill-opacity:1;fill-rule:nonzero;stroke:none"
     d="m 83.114211,89.777372 c 0.774875,0.2325 1.27875,0.44875 1.900875,0.69625 l 0,-2.3625 c -0.223125,0.10625 -1.126,0.46625 -1.900875,0.69875 -0.829625,0.24875 -1.5815,0.4225 -2.069375,0.48375 0.487875,0.0613 1.23975,0.2325 2.069375,0.48375"
     inkscape:connector-curvature="0" /><path
     id="path264"
     style="fill:none;stroke:#231f20;stroke-width:0.625;stroke-linecap:butt;stroke-linejoin:miter;stroke-miterlimit:4;stroke-dasharray:none;stroke-opacity:1"
     d="m 215.95284,132.70863 114.87375,0 0,-24.14625 -114.87375,0 0,24.14625 z m 19.0625,-24.14625 0,24.14625 m 38.09125,-23.865 0,23.58625 m 38.6175,-23.8675 0,24.14625"
     inkscape:connector-curvature="0" /><g
     transform="matrix(1.25,0,0,-1.25,6.8378367,261.6381)"
     id="g266"><text
       id="text268"
       style="font-variant:normal;font-weight:normal;font-size:6.00030994px;font-family:Helvetica;-inkscape-font-specification:Helvetica;writing-mode:lr-tb;fill:#000000;fill-opacity:1;fill-rule:nonzero;stroke:none"
       transform="matrix(0.999982,0,0,-1,245.604,111.269)"><tspan
         id="tspan270"
         y="0"
         x="0 4.3322239 7.668396">Reg</tspan></text>
</g><path
     id="path272"
     style="fill:none;stroke:#231f20;stroke-width:0.625;stroke-linecap:butt;stroke-linejoin:miter;stroke-miterlimit:4;stroke-dasharray:none;stroke-opacity:1"
     d="m 123.23821,113.48363 32.08713,0"
     inkscape:connector-curvature="0" /><path
     id="path274"
     style="fill:#231f20;fill-opacity:1;fill-rule:nonzero;stroke:none"
     d="m 156.43159,113.00238 c -0.775,-0.23375 -1.27875,-0.45125 -1.90125,-0.69875 l 0,2.365 c 0.225,-0.10625 1.12625,-0.46625 1.90125,-0.7 0.82875,-0.25 1.58125,-0.42375 2.07,-0.48375 -0.48875,-0.06 -1.24125,-0.23125 -2.07,-0.4825"
     inkscape:connector-curvature="0" /><path
     id="path276"
     style="fill:#231f20;fill-opacity:1;fill-rule:nonzero;stroke:none"
     d="m 122.13084,113.96238 c 0.77538,0.235 1.27875,0.45125 1.90088,0.7 l 0,-2.365 c -0.22313,0.10625 -1.1255,0.465 -1.90088,0.7 -0.82962,0.25 -1.58162,0.4225 -2.06887,0.48375 0.48725,0.0588 1.23925,0.23125 2.06887,0.48125"
     inkscape:connector-curvature="0" /><g
     transform="matrix(1.25,0,0,-1.25,6.8378367,262.43488)"
     id="g278"><text
       id="text280"
       style="font-variant:normal;font-weight:normal;font-size:8.00037003px;font-family:Helvetica;-inkscape-font-specification:Helvetica;writing-mode:lr-tb;fill:#000000;fill-opacity:1;fill-rule:nonzero;stroke:none"
       transform="matrix(0.999992,0,0,-1,62.873,128.719)"><tspan
         id="tspan282"
         y="0"
         x="0 4.4482059 8.8964119 13.345 15.568661 20.016943">200 ps</tspan></text>
</g><path
     id="path284"
     style="fill:none;stroke:#231f20;stroke-width:0.625;stroke-linecap:butt;stroke-linejoin:miter;stroke-miterlimit:4;stroke-dasharray:none;stroke-opacity:1"
     d="m 161.62784,137.54963 32.0075,0"
     inkscape:connector-curvature="0" /><path
     id="path286"
     style="fill:#231f20;fill-opacity:1;fill-rule:nonzero;stroke:none"
     d="m 194.74284,137.07113 c -0.775,-0.23375 -1.27875,-0.45 -1.9,-0.69875 l 0,2.36475 c 0.2225,-0.106 1.125,-0.46488 1.9,-0.69975 0.83,-0.25 1.58125,-0.42238 2.07,-0.48488 -0.48875,-0.059 -1.24,-0.23012 -2.07,-0.48137"
     inkscape:connector-curvature="0" /><path
     id="path288"
     style="fill:#231f20;fill-opacity:1;fill-rule:nonzero;stroke:none"
     d="m 160.51909,138.0325 c 0.775,0.23338 1.27875,0.44975 1.9,0.69875 l 0,-2.36512 c -0.2225,0.10625 -1.125,0.465 -1.9,0.7 -0.83,0.25 -1.58125,0.4225 -2.0675,0.481 0.48625,0.0625 1.2375,0.234 2.0675,0.48537"
     inkscape:connector-curvature="0" /><g
     transform="matrix(1.25,0,0,-1.25,6.8378367,262.43488)"
     id="g290"><text
       id="text292"
       style="font-variant:normal;font-weight:normal;font-size:8.00037003px;font-family:Helvetica;-inkscape-font-specification:Helvetica;writing-mode:lr-tb;fill:#000000;fill-opacity:1;fill-rule:nonzero;stroke:none"
       transform="matrix(0.999992,0,0,-1,93.327,109.368)"><tspan
         id="tspan294"
         y="0"
         x="0 4.4482059 8.8964119 13.345 15.568661 20.016935">200 ps</tspan></text>
</g><path
     id="path296"
     style="fill:none;stroke:#231f20;stroke-width:0.625;stroke-linecap:butt;stroke-linejoin:miter;stroke-miterlimit:4;stroke-dasharray:none;stroke-opacity:1"
     d="m 199.99034,137.5525 31.9025,0"
     inkscape:connector-curvature="0" /><path
     id="path298"
     style="fill:#231f20;fill-opacity:1;fill-rule:nonzero;stroke:none"
     d="m 233.00034,137.07363 c -0.775,-0.23375 -1.27875,-0.45 -1.9,-0.69875 l 0,2.36512 c 0.22125,-0.10637 1.125,-0.46525 1.9,-0.70012 0.82875,-0.25 1.58125,-0.42237 2.06875,-0.48388 -0.4875,-0.0611 -1.24,-0.23112 -2.06875,-0.48237"
     inkscape:connector-curvature="0" /><path
     id="path300"
     style="fill:#231f20;fill-opacity:1;fill-rule:nonzero;stroke:none"
     d="m 198.88159,138.035 c 0.775,0.23338 1.27875,0.44963 1.9,0.69875 l 0,-2.36512 c -0.2225,0.10625 -1.125,0.465 -1.9,0.7 -0.83,0.25 -1.58125,0.42237 -2.06875,0.481 0.4875,0.0625 1.23875,0.23387 2.06875,0.48537"
     inkscape:connector-curvature="0" /><g
     transform="matrix(1.25,0,0,-1.25,6.8378367,262.43488)"
     id="g302"><text
       id="text304"
       style="font-variant:normal;font-weight:normal;font-size:8.00037003px;font-family:Helvetica;-inkscape-font-specification:Helvetica;writing-mode:lr-tb;fill:#000000;fill-opacity:1;fill-rule:nonzero;stroke:none"
       transform="matrix(0.999992,0,0,-1,123.911,90.1129)"><tspan
         id="tspan306"
         y="0"
         x="0 4.4482059 8.8964119 13.3442 15.567861 20.016136">200 ps</tspan></text>
</g><path
     id="path308"
     style="fill:none;stroke:#231f20;stroke-width:0.625;stroke-linecap:butt;stroke-linejoin:miter;stroke-miterlimit:4;stroke-dasharray:none;stroke-opacity:1"
     d="m 238.24534,137.5525 31.6475,0"
     inkscape:connector-curvature="0" /><path
     id="path310"
     style="fill:#231f20;fill-opacity:1;fill-rule:nonzero;stroke:none"
     d="m 271.00159,137.07363 c -0.77625,-0.23375 -1.28,-0.45 -1.90125,-0.69875 l 0,2.36512 c 0.2225,-0.10637 1.125,-0.46525 1.90125,-0.70012 0.82875,-0.25 1.58125,-0.42237 2.0675,-0.48388 -0.48625,-0.0611 -1.23875,-0.23112 -2.0675,-0.48237"
     inkscape:connector-curvature="0" /><path
     id="path312"
     style="fill:#231f20;fill-opacity:1;fill-rule:nonzero;stroke:none"
     d="m 237.13909,138.035 c 0.77375,0.23338 1.27875,0.44963 1.9,0.69875 l 0,-2.36512 c -0.22125,0.10625 -1.12625,0.465 -1.9,0.7 -0.82875,0.25 -1.5825,0.42237 -2.07,0.481 0.4875,0.0625 1.24125,0.23387 2.07,0.48537"
     inkscape:connector-curvature="0" /><g
     transform="matrix(1.25,0,0,-1.25,6.8378367,262.43488)"
     id="g314"><text
       id="text316"
       style="font-variant:normal;font-weight:normal;font-size:8.00037003px;font-family:Helvetica;-inkscape-font-specification:Helvetica;writing-mode:lr-tb;fill:#000000;fill-opacity:1;fill-rule:nonzero;stroke:none"
       transform="matrix(0.999992,0,0,-1,153.814,90.1129)"><tspan
         id="tspan318"
         y="0"
         x="0 4.4482059 8.8964119 13.345 15.568661 20.016935">200 ps</tspan></text>
</g><path
     id="path320"
     style="fill:none;stroke:#231f20;stroke-width:0.625;stroke-linecap:butt;stroke-linejoin:miter;stroke-miterlimit:4;stroke-dasharray:none;stroke-opacity:1"
     d="m 276.24534,137.5525 32.2675,0"
     inkscape:connector-curvature="0" /><path
     id="path322"
     style="fill:#231f20;fill-opacity:1;fill-rule:nonzero;stroke:none"
     d="m 309.62034,137.07363 c -0.77625,-0.23375 -1.27875,-0.45 -1.9,-0.69875 l 0,2.36512 c 0.22125,-0.10637 1.12375,-0.46525 1.9,-0.70012 0.82875,-0.25 1.5825,-0.42237 2.06875,-0.48388 -0.48625,-0.0611 -1.24,-0.23112 -2.06875,-0.48237"
     inkscape:connector-curvature="0" /><path
     id="path324"
     style="fill:#231f20;fill-opacity:1;fill-rule:nonzero;stroke:none"
     d="m 275.13909,138.035 c 0.775,0.23338 1.28,0.44963 1.90125,0.69875 l 0,-2.36512 c -0.22375,0.10625 -1.12625,0.465 -1.90125,0.7 -0.82875,0.25 -1.58125,0.42237 -2.07,0.481 0.48875,0.0625 1.24125,0.23387 2.07,0.48537"
     inkscape:connector-curvature="0" /><g
     transform="matrix(1.25,0,0,-1.25,6.8378367,262.43488)"
     id="g326"><text
       id="text328"
       style="font-variant:normal;font-weight:normal;font-size:8.00037003px;font-family:Helvetica;-inkscape-font-specification:Helvetica;writing-mode:lr-tb;fill:#000000;fill-opacity:1;fill-rule:nonzero;stroke:none"
       transform="matrix(0.999992,0,0,-1,184.444,90.1129)"><tspan
         id="tspan330"
         y="0"
         x="0 4.4482059 8.8964119 13.345 15.568661 20.016935">200 ps</tspan></text>
</g><path
     id="path332"
     style="fill:none;stroke:#231f20;stroke-width:0.625;stroke-linecap:butt;stroke-linejoin:miter;stroke-miterlimit:4;stroke-dasharray:none;stroke-opacity:1"
     d="m 314.86534,137.5525 30.06625,0"
     inkscape:connector-curvature="0" /><path
     id="path334"
     style="fill:#231f20;fill-opacity:1;fill-rule:nonzero;stroke:none"
     d="m 346.03784,137.07363 c -0.77375,-0.23375 -1.27875,-0.45 -1.9,-0.69875 l 0,2.36512 c 0.2225,-0.10637 1.12625,-0.46525 1.9,-0.70012 0.82875,-0.25 1.5825,-0.42237 2.07,-0.48388 -0.4875,-0.0611 -1.24125,-0.23112 -2.07,-0.48237"
     inkscape:connector-curvature="0" /><path
     id="path336"
     style="fill:#231f20;fill-opacity:1;fill-rule:nonzero;stroke:none"
     d="m 313.75909,138.035 c 0.775,0.23338 1.27875,0.44963 1.9,0.69875 l 0,-2.36512 c -0.2225,0.10625 -1.125,0.465 -1.9,0.7 -0.82875,0.25 -1.5825,0.42237 -2.07,0.481 0.4875,0.0625 1.24125,0.23387 2.07,0.48537"
     inkscape:connector-curvature="0" /><g
     transform="matrix(1.25,0,0,-1.25,6.8378367,262.43488)"
     id="g338"><text
       id="text340"
       style="font-variant:normal;font-weight:normal;font-size:8.00037003px;font-family:Helvetica;-inkscape-font-specification:Helvetica;writing-mode:lr-tb;fill:#000000;fill-opacity:1;fill-rule:nonzero;stroke:none"
       transform="matrix(0.999992,0,0,-1,215.759,90.1129)"><tspan
         id="tspan342"
         y="0"
         x="0 4.4482059 8.8964119 13.345 15.568661 20.01696">200 ps</tspan></text>
</g><text
     transform="scale(0.999996,1.000004)"
     style="font-variant:normal;font-weight:normal;font-size:10.00042248px;font-family:Helvetica;-inkscape-font-specification:Helvetica;writing-mode:lr-tb;fill:#000000;fill-opacity:1;fill-rule:nonzero;stroke:none"
     id="text352"
     x="314.2966"
     y="149.79315"><tspan
       x="314.2966 319.85684 325.41705 330.97778 333.75735 339.31708"
       y="149.79315"
       id="tspan354">200 ps</tspan></text>
<text
     transform="scale(0.999991,1.000009)"
     style="font-style:normal;font-variant:normal;font-weight:normal;font-stretch:normal;font-size:7.50037479px;line-height:125%;font-family:Helvetica;-inkscape-font-specification:'Helvetica, Normal';text-align:start;writing-mode:lr-tb;text-anchor:start;fill:#000000;fill-opacity:1;fill-rule:nonzero;stroke:none"
     id="text356"
     x="142.05865"
     y="74.791534"
     sodipodi:linespacing="125%"><tspan
       sodipodi:role="line"
       id="tspan4309"
       x="142.05865"
       y="74.791534">Reg       ALU</tspan></text>
<text
     xml:space="preserve"
     style="font-style:normal;font-weight:normal;font-size:10px;line-height:125%;font-family:sans-serif;text-align:start;letter-spacing:0px;word-spacing:0px;writing-mode:lr-tb;text-anchor:start;opacity:0.93999999;fill:#000000;fill-opacity:1;stroke:none;stroke-width:1px;stroke-linecap:butt;stroke-linejoin:miter;stroke-opacity:1"
     x="320.24323"
     y="56.68293"
     id="text4894"
     sodipodi:linespacing="125%"><tspan
       sodipodi:role="line"
       id="tspan4304"
       x="320.24323"
       y="56.68293"
       style="font-size:7.5px">COD 4Ed, Copyright © 2009 </tspan><tspan
       sodipodi:role="line"
       x="320.24323"
       y="66.05793"
       style="font-size:7.5px"
       id="tspan4308">Elsevier, Inc. All rights reserved.</tspan><tspan
       sodipodi:role="line"
       id="tspan4306"
       x="320.24323"
       y="75.43293" /></text>
<text
     xml:space="preserve"
     style="font-style:normal;font-weight:normal;font-size:10px;line-height:125%;font-family:sans-serif;letter-spacing:0px;word-spacing:0px;fill:#000000;fill-opacity:1;stroke:none;stroke-width:1px;stroke-linecap:butt;stroke-linejoin:miter;stroke-opacity:1"
     x="14.230389"
     y="158.09734"
     id="text4801"
     sodipodi:linespacing="125%"><tspan
       sodipodi:role="line"
       x="14.230389"
       y="158.09734"
       id="tspan4805">Pipelined execution.</tspan></text>
<path
     id="path4307"
     style="fill:none;stroke:#000000;stroke-width:0.625;stroke-linecap:butt;stroke-linejoin:miter;stroke-miterlimit:4;stroke-dasharray:2.50000007, 2.50000007;stroke-dashoffset:0;stroke-opacity:1"
     d="m 311.69922,108.6074 0,-24.113638 -19.09062,0"
     inkscape:connector-curvature="0"
     sodipodi:nodetypes="ccc" /><path
     sodipodi:nodetypes="ccc"
     inkscape:connector-curvature="0"
     d="m 350.22647,132.6074 0,-24.11363 -19.09062,0"
     style="fill:none;stroke:#000000;stroke-width:0.625;stroke-linecap:butt;stroke-linejoin:miter;stroke-miterlimit:4;stroke-dasharray:2.50000007, 2.50000007;stroke-dashoffset:0;stroke-opacity:1"
     id="path4309" /><path
     sodipodi:nodetypes="ccc"
     inkscape:connector-curvature="0"
     d="m 272.88812,84.607392 0,-24.11363 -19.09062,0"
     style="fill:none;stroke:#000000;stroke-width:0.625;stroke-linecap:butt;stroke-linejoin:miter;stroke-miterlimit:4;stroke-dasharray:2.50000007, 2.50000007;stroke-dashoffset:0;stroke-opacity:1"
     id="path4311" /><text
     sodipodi:linespacing="125%"
     y="98.467209"
     x="180.46449"
     id="text4311"
     style="font-style:normal;font-variant:normal;font-weight:normal;font-stretch:normal;font-size:7.50037479px;line-height:125%;font-family:Helvetica;-inkscape-font-specification:'Helvetica, Normal';text-align:start;writing-mode:lr-tb;text-anchor:start;fill:#000000;fill-opacity:1;fill-rule:nonzero;stroke:none"
     transform="scale(0.999991,1.000009)"><tspan
       y="98.467209"
       x="180.46449"
       id="tspan4313"
       sodipodi:role="line">Reg       ALU</tspan></text>
<text
     transform="scale(0.999991,1.000009)"
     style="font-style:normal;font-variant:normal;font-weight:normal;font-stretch:normal;font-size:7.50037479px;line-height:125%;font-family:Helvetica;-inkscape-font-specification:'Helvetica, Normal';text-align:start;writing-mode:lr-tb;text-anchor:start;fill:#000000;fill-opacity:1;fill-rule:nonzero;stroke:none"
     id="text4315"
     x="218.84267"
     y="122.55074"
     sodipodi:linespacing="125%"><tspan
       sodipodi:role="line"
       id="tspan4317"
       x="218.84267"
       y="122.55074">Reg       ALU</tspan></text>
<path
     style="fill:none;fill-rule:evenodd;stroke:#000000;stroke-width:1px;stroke-linecap:butt;stroke-linejoin:miter;stroke-opacity:1"
     d="m 273.65141,32.907812 0,3.88901"
     id="path4323"
     inkscape:connector-curvature="0" /><path
     inkscape:connector-curvature="0"
     id="path4325"
     d="m 235.22885,32.907812 0,3.88901"
     style="fill:none;fill-rule:evenodd;stroke:#000000;stroke-width:1px;stroke-linecap:butt;stroke-linejoin:miter;stroke-opacity:1" /><path
     style="fill:none;fill-rule:evenodd;stroke:#000000;stroke-width:1px;stroke-linecap:butt;stroke-linejoin:miter;stroke-opacity:1"
     d="m 197.01757,32.907812 0,3.88901"
     id="path4327"
     inkscape:connector-curvature="0" /><path
     inkscape:connector-curvature="0"
     id="path4329"
     d="m 158.81345,32.907812 0,3.88901"
     style="fill:none;fill-rule:evenodd;stroke:#000000;stroke-width:1px;stroke-linecap:butt;stroke-linejoin:miter;stroke-opacity:1" /><path
     style="fill:none;fill-rule:evenodd;stroke:#000000;stroke-width:1px;stroke-linecap:butt;stroke-linejoin:miter;stroke-opacity:1"
     d="m 120.60217,32.907812 0,3.88901"
     id="path4331"
     inkscape:connector-curvature="0" /><path
     inkscape:connector-curvature="0"
     id="path4333"
     d="m 311.86269,32.907812 0,3.88901"
     style="fill:none;fill-rule:evenodd;stroke:#000000;stroke-width:1px;stroke-linecap:butt;stroke-linejoin:miter;stroke-opacity:1" /><path
     style="fill:none;fill-rule:evenodd;stroke:#000000;stroke-width:1px;stroke-linecap:butt;stroke-linejoin:miter;stroke-opacity:1"
     d="m 350.17961,32.907812 0,3.88901"
     id="path4335"
     inkscape:connector-curvature="0" /><path
     inkscape:connector-curvature="0"
     id="path4337"
     d="m 388.96296,32.907812 0,3.88901"
     style="fill:none;fill-rule:evenodd;stroke:#000000;stroke-width:1px;stroke-linecap:butt;stroke-linejoin:miter;stroke-opacity:1" /></svg>