<?xml version="1.0" encoding="UTF-8" standalone="no"?>
<svg
   xmlns:dc="http://purl.org/dc/elements/1.1/"
   xmlns:cc="http://creativecommons.org/ns#"
   xmlns:rdf="http://www.w3.org/1999/02/22-rdf-syntax-ns#"
   xmlns:svg="http://www.w3.org/2000/svg"
   xmlns="http://www.w3.org/2000/svg"
   xmlns:sodipodi="http://sodipodi.sourceforge.net/DTD/sodipodi-0.dtd"
   xmlns:inkscape="http://www.inkscape.org/namespaces/inkscape"
   viewBox="0 0 553.125 278.50684"
   height="278.50684"
   width="553.125"
   xml:space="preserve"
   version="1.1"
   id="svg2"
   inkscape:version="0.91 r13725"
   sodipodi:docname="pipelineConsertado-1.svg"><sodipodi:namedview
     pagecolor="#ffffff"
     bordercolor="#666666"
     borderopacity="1"
     objecttolerance="10"
     gridtolerance="10"
     guidetolerance="10"
     inkscape:pageopacity="0"
     inkscape:pageshadow="2"
     inkscape:window-width="1855"
     inkscape:window-height="1056"
     id="namedview194"
     showgrid="false"
     fit-margin-top="8"
     fit-margin-left="8"
     fit-margin-bottom="8"
     fit-margin-right="8"
     showguides="true"
     inkscape:guide-bbox="true"
     inkscape:zoom="2.0320904"
     inkscape:cx="276.5625"
     inkscape:cy="139.25342"
     inkscape:window-x="1985"
     inkscape:window-y="24"
     inkscape:window-maximized="1"
     inkscape:current-layer="svg2" /><metadata
     id="metadata8"><rdf:RDF><cc:Work
         rdf:about=""><dc:format>image/svg+xml</dc:format><dc:type
           rdf:resource="http://purl.org/dc/dcmitype/StillImage" /><dc:title></dc:title></cc:Work></rdf:RDF></metadata><defs
     id="defs6"><clipPath
       id="clipPath96"
       clipPathUnits="userSpaceOnUse"><path
         id="path98"
         d="m 101,503 0,1981 4298,0 0,-1981 -4298,0 z"
         inkscape:connector-curvature="0" /></clipPath><clipPath
       id="clipPath306"
       clipPathUnits="userSpaceOnUse"><path
         id="path308"
         d="m 101,503 0,1981 4298,0 0,-1981 -4298,0 z"
         inkscape:connector-curvature="0" /></clipPath></defs><path
     id="path16"
     style="fill:none;stroke:#231f20;stroke-width:0.625;stroke-linecap:butt;stroke-linejoin:miter;stroke-miterlimit:4;stroke-dasharray:none;stroke-opacity:1"
     d="m 137.5425,178.94 -62.743625,0 0,-63.955 62.743625,0 0,63.955 z m 124.5775,-0.17875 -62.74375,0 0,-63.9575 62.74375,0 0,63.9575 z m -160.88025,-137.5525 21.3865,12.8575 0,13.40375 -21.20488,12.85875 0,-15.93875 3.60988,-3.8025 -3.7915,-3.80375 0,-15.575 z"
     inkscape:connector-curvature="0" /><text
     style="font-variant:normal;font-weight:normal;font-size:5px;font-family:Helvetica;-inkscape-font-specification:Helvetica;writing-mode:lr-tb;fill:#231f20;fill-opacity:1;fill-rule:nonzero;stroke:none"
     id="text40"
     x="105.9785"
     y="62.423748"><tspan
       x="105.9785 109.3135 112.09178"
       y="62.423748"
       id="tspan42">Add</tspan><tspan
       x="76.132248 79.467247 82.247246 85.027275 86.691742 89.471893 91.972099"
       y="120.67088"
       id="tspan44">Address</tspan></text>
<text
     style="font-variant:normal;font-weight:bold;font-size:5px;font-family:Helvetica;-inkscape-font-specification:Helvetica-Bold;writing-mode:lr-tb;fill:#231f20;fill-opacity:1;fill-rule:nonzero;stroke:none"
     id="text46"
     x="93.251884"
     y="145.53513"><tspan
       x="93.251884 94.641891 97.696892 100.47689 102.14189 104.08689 107.14189 109.92189 111.58689 112.97689 116.03189"
       y="145.53513"
       id="tspan48">Instruction</tspan><tspan
       x="96.444763 100.88976 103.66976 108.11476 111.16976 113.11476"
       y="151.53513"
       id="tspan50">memory</tspan></text>
<text
     style="font-variant:normal;font-weight:normal;font-size:5px;font-family:Helvetica;-inkscape-font-specification:Helvetica;writing-mode:lr-tb;fill:#231f20;fill-opacity:1;fill-rule:nonzero;stroke:none"
     id="text52"
     x="201.20351"
     y="121.31787"><tspan
       x="201.20351 204.81351 207.59351 210.3735"
       y="121.31787"
       id="tspan54">Read</tspan><tspan
       x="201.20351 202.86852 205.64882 208.42836 209.53847 212.03847 213.42847 216.20847 217.87347 219.26347"
       y="127.31787"
       id="tspan56">register 1</tspan></text>
<text
     transform="matrix(0,-1,1,0,0,0)"
     style="font-variant:normal;font-weight:normal;font-size:5px;font-family:Helvetica;-inkscape-font-specification:Helvetica;writing-mode:lr-tb;fill:#231f20;fill-opacity:1;fill-rule:nonzero;stroke:none"
     id="text58"
     x="-136.3425"
     y="180.61749"><tspan
       x="-136.3425 -134.9525 -132.1725 -129.6725 -128.2825 -126.6175 -123.8375 -121.3375 -119.9475 -118.8375 -116.0575"
       y="180.61749"
       id="tspan60">Instruction</tspan></text>
<text
     style="font-variant:normal;font-weight:normal;font-size:5px;font-family:Helvetica;-inkscape-font-specification:Helvetica;writing-mode:lr-tb;fill:#231f20;fill-opacity:1;fill-rule:nonzero;stroke:none"
     id="text62"
     x="201.20375"
     y="137.69751"><tspan
       x="201.20375 204.81375 207.59375 210.37375"
       y="137.69751"
       id="tspan64">Read</tspan><tspan
       x="201.20375 202.86874 205.64906 208.4286 209.53871 212.03871 213.42871 216.20871 217.87372 219.26372"
       y="143.69847"
       id="tspan66">register 2</tspan></text>
<text
     style="font-variant:normal;font-weight:normal;font-size:5px;font-family:Helvetica;-inkscape-font-specification:Helvetica;writing-mode:lr-tb;fill:#00adef;fill-opacity:1;fill-rule:nonzero;stroke:none"
     id="text70"
     x="201.20375"
     y="155.41501"><tspan
       x="201.20375 205.92375 207.589 208.69931 210.089"
       y="155.41501"
       id="tspan72">Write</tspan><tspan
       x="201.20375 202.86874 205.64906 208.4286 209.53871 212.03871 213.42871 216.20752"
       y="161.41257"
       id="tspan74">register</tspan></text>
<text
     style="font-variant:normal;font-weight:normal;font-size:5px;font-family:Helvetica;-inkscape-font-specification:Helvetica;writing-mode:lr-tb;fill:#231f20;fill-opacity:1;fill-rule:nonzero;stroke:none"
     id="text78"
     x="201.20375"
     y="169.79001"><tspan
       x="201.20375 205.92375 207.589 208.69931 210.089"
       y="169.79001"
       id="tspan80">Write</tspan><tspan
       x="201.20375 203.98375 206.76375 208.15375"
       y="175.78757"
       id="tspan82">data</tspan><tspan
       x="246.54013 250.15013 252.93011 255.71011"
       y="125.49269"
       id="tspan84">Read</tspan><tspan
       x="246.54013 249.32013 252.10013 253.49011 256.27011 257.65802"
       y="131.4922"
       id="tspan86">data 1</tspan><tspan
       x="246.54013 250.15013 252.93011 255.71011"
       y="150.56496"
       id="tspan88">Read</tspan><tspan
       x="246.54013 249.32013 252.10013 253.49011 256.27011 257.659"
       y="156.56496"
       id="tspan90">data 2</tspan></text>
<path
     id="path100"
     style="fill:none;stroke:#231f20;stroke-width:0.625;stroke-linecap:butt;stroke-linejoin:miter;stroke-miterlimit:4;stroke-dasharray:none;stroke-opacity:1"
     d="m 175.61,242.88525 -14.04,0 0,-210.9315 14.04,0 0,210.9315 z m 121.34375,0 -14.04,0 0,-210.9315 14.04,0 0,210.9315 z m 110.98125,0 -14.0375,0 0,-210.93275 14.0375,0 0,210.93275 z m 103.29375,0 -14.04125,0 0,-210.93275 14.04125,0 0,210.93275 z m -453.684375,-108.199 -12.535625,0 0,-29.585 12.535625,0 0,29.585 z M 261.64625,209.7075 c 0,10.55762 -5.44375,19.11125 -12.16125,19.11125 -6.71625,0 -12.15875,-8.55363 -12.15875,-19.11125 0,-10.55225 5.4425,-19.10875 12.15875,-19.10875 6.7175,0 12.16125,8.5565 12.16125,19.10875 z M 317.70875,84.77 c 0,8.76875 -4.205,15.87625 -9.3875,15.87625 -5.18625,0 -9.3875,-7.1075 -9.3875,-15.87625 0,-8.7675 4.20125,-15.8775 9.3875,-15.8775 5.1825,0 9.3875,7.11 9.3875,15.8775 z m 27.02875,34.81625 32.83125,15.40875 0,18.46125 -32.615,13.005 0,-19.09625 3.12125,-4.55625 -3.3375,-4.55875 0,-18.66375 z m -11.16,-64.8175 27.4025,12.86125 0,15.40625 -27.22,10.85375 0,-15.93875 2.605,-3.80375 -2.7875,-3.80125 0,-15.5775 z m 153.87,142.79125 -62.7475,0 0,-63.9575 62.7475,0 0,63.9575 z"
     inkscape:connector-curvature="0" /><path
     id="path102"
     style="fill:none;stroke:#231f20;stroke-width:0.9375;stroke-linecap:butt;stroke-linejoin:miter;stroke-miterlimit:4;stroke-dasharray:none;stroke-opacity:1"
     d="m 538.93125,161.57 5.725,0 0,93.59987 -358.35,0 0,-84.23862 8.21625,0"
     inkscape:connector-curvature="0" /><path
     id="path104"
     style="fill:#231f20;fill-opacity:1;fill-rule:nonzero;stroke:none"
     d="m 196.18375,170.21125 c -1.16125,-0.3525 -1.91875,-0.675 -2.85,-1.05 l 0,3.5475 c 0.3325,-0.15875 1.68875,-0.69875 2.85,-1.04875 1.24375,-0.3775 2.3725,-0.635 3.10375,-0.725 -0.73125,-0.0925 -1.86,-0.35 -3.10375,-0.72375"
     inkscape:connector-curvature="0" /><path
     id="path106"
     style="fill:none;stroke:#231f20;stroke-width:0.9375;stroke-linecap:butt;stroke-linejoin:miter;stroke-miterlimit:4;stroke-dasharray:none;stroke-opacity:1"
     d="m 487.16125,148.53625 6.0175,0"
     inkscape:connector-curvature="0" /><path
     id="path108"
     style="fill:#231f20;fill-opacity:1;fill-rule:nonzero;stroke:none"
     d="m 494.02375,147.81625 c -1.16125,-0.3525 -1.91875,-0.675 -2.85125,-1.05 l 0,3.5475 c 0.335,-0.15875 1.69,-0.69875 2.85125,-1.04875 1.2425,-0.37625 2.37375,-0.63375 3.10375,-0.725 -0.73,-0.0925 -1.86125,-0.35 -3.10375,-0.72375"
     inkscape:connector-curvature="0" /><path
     id="path110"
     style="fill:none;stroke:#231f20;stroke-width:0.9375;stroke-linecap:butt;stroke-linejoin:miter;stroke-miterlimit:4;stroke-dasharray:none;stroke-opacity:1"
     d="m 194.5225,122.46 -11.26625,0 0,88.24987 49.18125,0"
     inkscape:connector-curvature="0" /><path
     id="path112"
     style="fill:#231f20;fill-opacity:1;fill-rule:nonzero;stroke:none"
     d="m 233.96375,209.99012 c -1.16375,-0.35 -1.91875,-0.67375 -2.85125,-1.05025 l 0,3.54738 c 0.33375,-0.15875 1.6875,-0.69725 2.85125,-1.04838 1.245,-0.375 2.37125,-0.63275 3.1025,-0.72512 -0.73125,-0.0898 -1.8575,-0.34763 -3.1025,-0.72363"
     inkscape:connector-curvature="0" /><path
     id="path114"
     style="fill:#231f20;fill-opacity:1;fill-rule:nonzero;stroke:none"
     d="m 196.18375,121.73875 c -1.16125,-0.35125 -1.91875,-0.67375 -2.85,-1.04875 l 0,3.5475 c 0.3325,-0.15875 1.68875,-0.69875 2.85,-1.04875 1.24375,-0.37625 2.3725,-0.63375 3.10375,-0.725 -0.73125,-0.0912 -1.86,-0.34875 -3.10375,-0.725"
     inkscape:connector-curvature="0" /><path
     id="path116"
     style="fill:#231f20;fill-opacity:1;fill-rule:nonzero;stroke:none"
     d="m 196.18375,138.11875 c -1.16125,-0.35125 -1.91875,-0.67375 -2.85,-1.0475 l 0,3.54625 c 0.3325,-0.15875 1.68875,-0.69875 2.85,-1.04875 1.24375,-0.37625 2.3725,-0.63375 3.10375,-0.725 -0.73125,-0.0913 -1.86,-0.34875 -3.10375,-0.725"
     inkscape:connector-curvature="0" /><path
     id="path118"
     style="fill:none;stroke:#231f20;stroke-width:0.9375;stroke-linecap:butt;stroke-linejoin:miter;stroke-miterlimit:4;stroke-dasharray:none;stroke-opacity:1"
     d="m 137.64,146.96375 19.26375,0 m 26.52,-8.12375 11.24,0"
     inkscape:connector-curvature="0" /><path
     id="path120"
     style="fill:#231f20;fill-opacity:1;fill-rule:nonzero;stroke:none"
     d="m 158.235,146.24 c -1.1625,-0.35125 -1.91875,-0.675 -2.85125,-1.05 l 0,3.5475 c 0.33375,-0.15875 1.68875,-0.69875 2.85125,-1.04875 1.245,-0.37625 2.3725,-0.63375 3.10375,-0.725 C 160.6075,146.87245 159.48,146.615 158.235,146.24"
     inkscape:connector-curvature="0" /><path
     id="path122"
     style="fill:#231f20;fill-opacity:1;fill-rule:nonzero;stroke:none"
     d="m 158.235,60.215 c -1.1625,-0.3525 -1.91875,-0.675 -2.85125,-1.05 l 0,3.54625 c 0.33375,-0.1575 1.68875,-0.6975 2.85125,-1.0475 1.245,-0.37625 2.3725,-0.63375 3.10375,-0.725 C 160.6075,60.84625 159.48,60.59 158.235,60.215"
     inkscape:connector-curvature="0" /><text
     style="font-variant:normal;font-weight:bold;font-size:5px;font-family:Helvetica;-inkscape-font-specification:Helvetica-Bold;writing-mode:lr-tb;fill:#231f20;fill-opacity:1;fill-rule:nonzero;stroke:none"
     id="text126"
     x="219.355"
     y="148.625"><tspan
       x="219.355 222.96469 225.74438 228.79909 230.18996 232.96996 234.63496 237.41496 239.35995"
       y="148.625"
       id="tspan128">Registers</tspan></text>
<text
     style="font-variant:normal;font-weight:normal;font-size:5px;font-family:Helvetica;-inkscape-font-specification:Helvetica;writing-mode:lr-tb;fill:#231f20;fill-opacity:1;fill-rule:nonzero;stroke:none"
     id="text130"
     x="428.24371"
     y="151.24756"><tspan
       x="428.24371 431.5787 434.3587 437.13873 438.80319 441.58334 444.08405"
       y="151.24756"
       id="tspan132">Address</tspan><tspan
       x="428.24368 432.96368 434.62894 435.73923 437.12747"
       y="188.39993"
       id="tspan134">Write</tspan><tspan
       x="428.24368 431.02368 433.80368 435.19366"
       y="194.39993"
       id="tspan136">data</tspan><tspan
       x="471.77393 475.38391 478.16391 480.94394"
       y="147.11382"
       id="tspan138">Read</tspan><tspan
       x="472.88525 475.66525 478.44525 479.83524"
       y="153.11382"
       id="tspan140">data</tspan></text>
<text
     style="font-variant:normal;font-weight:bold;font-size:5px;font-family:Helvetica;-inkscape-font-specification:Helvetica-Bold;writing-mode:lr-tb;fill:#231f20;fill-opacity:1;fill-rule:nonzero;stroke:none"
     id="text142"
     x="450.65375"
     y="164.15385"><tspan
       x="450.65375 454.26346 457.04388 458.70889"
       y="164.15385"
       id="tspan144">Data</tspan><tspan
       x="446.34613 450.79114 453.57114 458.01614 461.07114 463.01614"
       y="170.15532"
       id="tspan146">memory</tspan><tspan
       x="337.06238 340.67209 343.72501"
       y="75.956566"
       id="tspan148">Add</tspan></text>
<text
     style="font-variant:normal;font-weight:normal;font-size:5px;font-family:Helvetica;-inkscape-font-specification:Helvetica;writing-mode:lr-tb;fill:#231f20;fill-opacity:1;fill-rule:nonzero;stroke:none"
     id="text150"
     x="350.84509"
     y="73.539581"><tspan
       x="350.84509 354.18011 356.96011"
       y="73.539581"
       id="tspan152">Add</tspan><tspan
       x="347.51501 349.18002 351.96002 354.45984 357.23938 358.34973"
       y="79.539093"
       id="tspan154">result</tspan></text>
<text
     style="font-variant:normal;font-weight:bold;font-size:5px;font-family:Helvetica;-inkscape-font-specification:Helvetica-Bold;writing-mode:lr-tb;fill:#231f20;fill-opacity:1;fill-rule:nonzero;stroke:none"
     id="text156"
     x="348.97256"
     y="144.76521"><tspan
       x="348.97256 352.58096 355.6376"
       y="144.76521"
       id="tspan158">ALU</tspan></text>
<text
     style="font-variant:normal;font-weight:normal;font-size:5px;font-family:Helvetica;-inkscape-font-specification:Helvetica;writing-mode:lr-tb;fill:#231f20;fill-opacity:1;fill-rule:nonzero;stroke:none"
     id="text160"
     x="365.61606"
     y="147.21883"><tspan
       x="365.61606 368.95105 371.72986"
       y="147.21883"
       id="tspan162">ALU</tspan><tspan
       x="363.11606 364.78104 367.56104 370.06137 372.84091 373.95123"
       y="153.22029"
       id="tspan164">result</tspan><tspan
       x="365.06137 368.11636 370.89636 372.56137"
       y="138.67142"
       id="tspan166">Zero</tspan></text>
<text
     style="font-variant:normal;font-weight:bold;font-size:5px;font-family:Helvetica;-inkscape-font-specification:Helvetica-Bold;writing-mode:lr-tb;fill:#231f20;fill-opacity:1;fill-rule:nonzero;stroke:none"
     id="text168"
     x="302.48474"
     y="82.990288"><tspan
       x="302.48474 305.81973 308.87473 310.26474 311.92831"
       y="82.990288"
       id="tspan170">Shift</tspan><tspan
       x="302.48474 303.87473 306.65475 308.31973 309.98474 311.37473"
       y="88.990288"
       id="tspan172">left 2</tspan><tspan
       x="243.23474 246.56975 247.95975 251.01474 254.06973"
       y="207.99617"
       id="tspan174">Sign-</tspan><tspan
       x="241.42761 244.20761 246.98718 248.65166 251.43179 254.48718"
       y="213.99617"
       id="tspan176">extend</tspan><tspan
       x="47.804699 51.139698"
       y="121.13478"
       id="tspan178">PC</tspan></text>
<path
     id="path180"
     style="fill:none;stroke:#00adef;stroke-width:0.9375;stroke-linecap:butt;stroke-linejoin:miter;stroke-miterlimit:4;stroke-dasharray:none;stroke-opacity:1"
     d="m 511.44625,238.59512 18.115,0 0,9.6685 -351.0575,0 0,-91.70612 15.95375,0"
     inkscape:connector-curvature="0" /><path
     id="path182"
     style="fill:#00adef;fill-opacity:1;fill-rule:nonzero;stroke:none"
     d="m 196.11875,155.8375 c -1.16375,-0.3525 -1.92,-0.675 -2.8525,-1.05 l 0,3.5475 c 0.33375,-0.15875 1.68875,-0.69875 2.8525,-1.04875 1.2425,-0.37625 2.37125,-0.63375 3.1025,-0.725 -0.73125,-0.0925 -1.86,-0.35 -3.1025,-0.72375"
     inkscape:connector-curvature="0" /><path
     id="path184"
     style="fill:none;stroke:#231f20;stroke-width:0.9375;stroke-linecap:butt;stroke-linejoin:miter;stroke-miterlimit:4;stroke-dasharray:none;stroke-opacity:1"
     d="m 377.5175,148.44 12.03625,0 m -12.03625,-11.5 11.7975,0"
     inkscape:connector-curvature="0" /><path
     id="path186"
     style="fill:#231f20;fill-opacity:1;fill-rule:nonzero;stroke:none"
     d="m 390.745,147.71875 c -1.1625,-0.35125 -1.91625,-0.675 -2.84875,-1.04875 l 0,3.54625 c 0.33375,-0.1575 1.68625,-0.6975 2.84875,-1.0475 1.245,-0.37625 2.37375,-0.63375 3.10625,-0.725 -0.7325,-0.0925 -1.86125,-0.35 -3.10625,-0.725"
     inkscape:connector-curvature="0" /><path
     id="path188"
     style="fill:#231f20;fill-opacity:1;fill-rule:nonzero;stroke:none"
     d="m 390.745,136.2025 c -1.1625,-0.3525 -1.91625,-0.675 -2.84875,-1.05 l 0,3.5475 c 0.33375,-0.15875 1.68625,-0.69875 2.84875,-1.04875 1.245,-0.37625 2.37375,-0.63375 3.10625,-0.725 -0.7325,-0.0925 -1.86125,-0.35 -3.10625,-0.72375"
     inkscape:connector-curvature="0" /><path
     id="path190"
     style="fill:none;stroke:#231f20;stroke-width:0.9375;stroke-linecap:butt;stroke-linejoin:miter;stroke-miterlimit:4;stroke-dasharray:none;stroke-opacity:1"
     d="m 407.935,149.2025 12.285,0"
     inkscape:connector-curvature="0" /><path
     id="path192"
     style="fill:#231f20;fill-opacity:1;fill-rule:nonzero;stroke:none"
     d="m 421.36,148.4825 c -1.16125,-0.35125 -1.91875,-0.675 -2.85125,-1.05 l 0,3.5475 c 0.335,-0.15875 1.69,-0.69875 2.85125,-1.04875 1.245,-0.37625 2.37375,-0.63375 3.10375,-0.725 -0.73,-0.0912 -1.85875,-0.34875 -3.10375,-0.72375"
     inkscape:connector-curvature="0" /><path
     id="path194"
     style="fill:none;stroke:#231f20;stroke-width:0.9375;stroke-linecap:butt;stroke-linejoin:miter;stroke-miterlimit:4;stroke-dasharray:none;stroke-opacity:1"
     d="m 407.935,189.8175 12.53625,0"
     inkscape:connector-curvature="0" /><path
     id="path196"
     style="fill:#231f20;fill-opacity:1;fill-rule:nonzero;stroke:none"
     d="m 421.61,189.09625 c -1.1625,-0.35 -1.9175,-0.675 -2.85,-1.04875 l 0,3.5475 c 0.335,-0.15875 1.6875,-0.69875 2.85,-1.04875 1.245,-0.37625 2.3725,-0.63375 3.105,-0.725 -0.7325,-0.0925 -1.86,-0.34875 -3.105,-0.725"
     inkscape:connector-curvature="0" /><path
     id="path198"
     style="fill:none;stroke:#231f20;stroke-width:0.9375;stroke-linecap:butt;stroke-linejoin:miter;stroke-miterlimit:4;stroke-dasharray:none;stroke-opacity:1"
     d="m 413.19875,149.2025 0,56.65975 79.98,0"
     inkscape:connector-curvature="0" /><path
     id="path200"
     style="fill:#231f20;fill-opacity:1;fill-rule:nonzero;stroke:none"
     d="m 493.8925,205.141 c -1.1625,-0.3495 -1.91625,-0.67475 -2.85,-1.04825 l 0,3.54587 c 0.335,-0.15875 1.6875,-0.69725 2.85,-1.04737 1.245,-0.3765 2.3725,-0.63375 3.105,-0.72613 -0.7325,-0.0902 -1.86,-0.34762 -3.105,-0.72412"
     inkscape:connector-curvature="0" /><path
     id="path202"
     style="fill:none;stroke:#231f20;stroke-width:0.9375;stroke-linecap:butt;stroke-linejoin:miter;stroke-miterlimit:4;stroke-dasharray:none;stroke-opacity:1"
     d="m 511.48,149.2025 10.27875,0"
     inkscape:connector-curvature="0" /><path
     id="path204"
     style="fill:#231f20;fill-opacity:1;fill-rule:nonzero;stroke:none"
     d="m 522.98875,148.4825 c -1.1625,-0.35125 -1.91625,-0.675 -2.84875,-1.05 l 0,3.5475 c 0.33375,-0.15875 1.68625,-0.69875 2.84875,-1.04875 1.245,-0.37625 2.37375,-0.63375 3.10625,-0.725 -0.7325,-0.0912 -1.86125,-0.34875 -3.10625,-0.72375"
     inkscape:connector-curvature="0" /><path
     id="path206"
     style="fill:none;stroke:#231f20;stroke-width:0.9375;stroke-linecap:butt;stroke-linejoin:miter;stroke-miterlimit:4;stroke-dasharray:none;stroke-opacity:1"
     d="m 511.22875,206.11375 6.51875,0 0,-34.0975 5.76625,0"
     inkscape:connector-curvature="0" /><path
     id="path208"
     style="fill:#231f20;fill-opacity:1;fill-rule:nonzero;stroke:none"
     d="m 523.3575,171.2975 c -1.165,-0.3525 -1.91875,-0.675 -2.85125,-1.05125 l 0,3.54875 c 0.33375,-0.16 1.68625,-0.69875 2.85125,-1.05 1.245,-0.375 2.3725,-0.6325 3.1025,-0.72375 -0.73,-0.0913 -1.8575,-0.34875 -3.1025,-0.72375"
     inkscape:connector-curvature="0" /><path
     id="path210"
     style="fill:none;stroke:#231f20;stroke-width:0.9375;stroke-linecap:butt;stroke-linejoin:miter;stroke-miterlimit:4;stroke-dasharray:none;stroke-opacity:1"
     d="m 408.18625,136.415 6.2675,0"
     inkscape:connector-curvature="0" /><path
     id="path212"
     style="fill:#231f20;fill-opacity:1;fill-rule:nonzero;stroke:none"
     d="m 416.0775,135.71125 c -1.135,-0.34375 -1.875,-0.66 -2.78625,-1.025 l 0,3.4675 c 0.325,-0.155 1.65125,-0.6825 2.78625,-1.025 1.2175,-0.36875 2.31875,-0.62 3.035,-0.71 -0.71625,-0.0888 -1.8175,-0.34 -3.035,-0.7075"
     inkscape:connector-curvature="0" /><path
     id="path214"
     style="fill:none;stroke:#231f20;stroke-width:0.9375;stroke-linecap:butt;stroke-linejoin:miter;stroke-miterlimit:4;stroke-dasharray:none;stroke-opacity:1"
     d="m 331.05,162.825 9.6925,0"
     inkscape:connector-curvature="0" /><path
     id="path216"
     style="fill:#231f20;fill-opacity:1;fill-rule:nonzero;stroke:none"
     d="m 341.73375,162.105 c -1.16125,-0.3525 -1.91875,-0.675 -2.85125,-1.05 l 0,3.5475 c 0.335,-0.15875 1.69,-0.6975 2.85125,-1.04875 1.2425,-0.375 2.37375,-0.6325 3.10375,-0.725 -0.73,-0.0913 -1.86125,-0.34875 -3.10375,-0.72375"
     inkscape:connector-curvature="0" /><path
     id="path218"
     style="fill:none;stroke:#231f20;stroke-width:0.9375;stroke-linecap:butt;stroke-linejoin:miter;stroke-miterlimit:4;stroke-dasharray:none;stroke-opacity:1"
     d="m 296.87125,126.3875 43.6225,0"
     inkscape:connector-curvature="0" /><path
     id="path220"
     style="fill:#231f20;fill-opacity:1;fill-rule:nonzero;stroke:none"
     d="m 341.47,125.6675 c -1.16125,-0.35125 -1.91875,-0.675 -2.85125,-1.05 l 0,3.5475 c 0.335,-0.15875 1.69,-0.69875 2.85125,-1.04875 1.2425,-0.37625 2.37375,-0.63375 3.10375,-0.725 -0.73,-0.0913 -1.86125,-0.34875 -3.10375,-0.72375"
     inkscape:connector-curvature="0" /><path
     id="path222"
     style="fill:none;stroke:#231f20;stroke-width:0.9375;stroke-linecap:butt;stroke-linejoin:miter;stroke-miterlimit:4;stroke-dasharray:none;stroke-opacity:1"
     d="m 296.87125,151.96125 16.9625,0 m -5.5125,-51.315 0,108.72775 -11.7025,0"
     inkscape:connector-curvature="0" /><path
     id="path224"
     style="fill:#231f20;fill-opacity:1;fill-rule:nonzero;stroke:none"
     d="m 314.89375,151.24125 c -1.1625,-0.35125 -1.92,-0.675 -2.8525,-1.05 l 0,3.5475 c 0.335,-0.15875 1.69,-0.69875 2.8525,-1.04875 1.245,-0.37625 2.3725,-0.63375 3.1025,-0.725 -0.73,-0.0913 -1.8575,-0.34875 -3.1025,-0.72375"
     inkscape:connector-curvature="0" /><path
     id="path226"
     style="fill:none;stroke:#231f20;stroke-width:0.9375;stroke-linecap:butt;stroke-linejoin:miter;stroke-miterlimit:4;stroke-dasharray:none;stroke-opacity:1"
     d="m 308.6525,174.525 5.26625,0"
     inkscape:connector-curvature="0" /><path
     id="path228"
     style="fill:#231f20;fill-opacity:1;fill-rule:nonzero;stroke:none"
     d="m 315.11,173.805 c -1.16125,-0.3525 -1.91875,-0.675 -2.85125,-1.05 l 0,3.5475 c 0.335,-0.15875 1.69,-0.69875 2.85125,-1.04875 1.245,-0.3775 2.37375,-0.635 3.10375,-0.725 -0.73,-0.0925 -1.85875,-0.35 -3.10375,-0.72375"
     inkscape:connector-curvature="0" /><path
     id="path230"
     style="fill:none;stroke:#231f20;stroke-width:0.9375;stroke-linecap:butt;stroke-linejoin:miter;stroke-miterlimit:4;stroke-dasharray:none;stroke-opacity:1"
     d="m 302.38625,151.96125 0,38.1075 87.24875,0"
     inkscape:connector-curvature="0" /><path
     id="path232"
     style="fill:#231f20;fill-opacity:1;fill-rule:nonzero;stroke:none"
     d="m 390.58375,189.34875 c -1.16125,-0.3525 -1.91625,-0.675 -2.84875,-1.05 l 0,3.5475 c 0.335,-0.15875 1.6875,-0.6975 2.84875,-1.04875 1.245,-0.375 2.37375,-0.63375 3.10625,-0.725 -0.7325,-0.0925 -1.86125,-0.35 -3.10625,-0.72375"
     inkscape:connector-curvature="0" /><path
     id="path234"
     style="fill:none;stroke:#231f20;stroke-width:0.9375;stroke-linecap:butt;stroke-linejoin:miter;stroke-miterlimit:4;stroke-dasharray:none;stroke-opacity:1"
     d="m 317.67875,86.0225 11.785,0"
     inkscape:connector-curvature="0" /><path
     id="path236"
     style="fill:#231f20;fill-opacity:1;fill-rule:nonzero;stroke:none"
     d="m 330.61125,85.3025 c -1.1625,-0.3525 -1.91625,-0.675 -2.84875,-1.04875 l 0,3.54625 c 0.33375,-0.15875 1.68625,-0.6975 2.84875,-1.0475 1.245,-0.37625 2.3725,-0.635 3.105,-0.72625 -0.7325,-0.09125 -1.86,-0.3475 -3.105,-0.72375"
     inkscape:connector-curvature="0" /><path
     id="path238"
     style="fill:none;stroke:#231f20;stroke-width:0.9375;stroke-linecap:butt;stroke-linejoin:miter;stroke-miterlimit:4;stroke-dasharray:none;stroke-opacity:1"
     d="m 361.30375,75.2425 28.83125,0"
     inkscape:connector-curvature="0" /><path
     id="path240"
     style="fill:#231f20;fill-opacity:1;fill-rule:nonzero;stroke:none"
     d="m 390.63,74.52125 c -1.16125,-0.35 -1.91875,-0.67375 -2.85125,-1.04875 l 0,3.5475 c 0.335,-0.15875 1.69,-0.69875 2.85125,-1.04875 1.245,-0.37625 2.37375,-0.63375 3.10375,-0.725 -0.73,-0.09125 -1.85875,-0.34875 -3.10375,-0.725"
     inkscape:connector-curvature="0" /><path
     id="path242"
     style="fill:none;stroke:#231f20;stroke-width:0.9375;stroke-linecap:butt;stroke-linejoin:miter;stroke-miterlimit:4;stroke-dasharray:none;stroke-opacity:1"
     d="m 296.87125,61.4525 32.34125,0"
     inkscape:connector-curvature="0" /><path
     id="path244"
     style="fill:#231f20;fill-opacity:1;fill-rule:nonzero;stroke:none"
     d="m 330.36,60.73125 c -1.1625,-0.35 -1.9175,-0.67375 -2.8525,-1.0475 l 0,3.54625 c 0.3375,-0.15875 1.69,-0.69875 2.8525,-1.04875 1.245,-0.37625 2.3725,-0.63375 3.105,-0.725 -0.7325,-0.09125 -1.86,-0.34875 -3.105,-0.725"
     inkscape:connector-curvature="0" /><path
     id="path246"
     style="fill:none;stroke:#231f20;stroke-width:0.9375;stroke-linecap:butt;stroke-linejoin:miter;stroke-miterlimit:4;stroke-dasharray:none;stroke-opacity:1"
     d="m 262.27125,126.6375 15.59375,0"
     inkscape:connector-curvature="0" /><path
     id="path248"
     style="fill:#231f20;fill-opacity:1;fill-rule:nonzero;stroke:none"
     d="m 279.525,125.9175 c -1.1625,-0.35125 -1.91875,-0.675 -2.85125,-1.05 l 0,3.5475 c 0.33375,-0.15875 1.68875,-0.69875 2.85125,-1.04875 1.245,-0.375 2.3725,-0.63375 3.1025,-0.725 -0.73,-0.0913 -1.8575,-0.34875 -3.1025,-0.72375"
     inkscape:connector-curvature="0" /><path
     id="path250"
     style="fill:none;stroke:#231f20;stroke-width:0.9375;stroke-linecap:butt;stroke-linejoin:miter;stroke-miterlimit:4;stroke-dasharray:none;stroke-opacity:1"
     d="m 262.02125,151.71125 15.84375,0"
     inkscape:connector-curvature="0" /><path
     id="path252"
     style="fill:#231f20;fill-opacity:1;fill-rule:nonzero;stroke:none"
     d="m 279.525,150.99125 c -1.1625,-0.3525 -1.91875,-0.675 -2.85125,-1.05 l 0,3.5475 C 277.0075,153.33 278.3625,152.79 279.525,152.44 c 1.245,-0.37625 2.3725,-0.63375 3.1025,-0.725 -0.73,-0.0925 -1.8575,-0.35 -3.1025,-0.72375"
     inkscape:connector-curvature="0" /><path
     id="path254"
     style="fill:none;stroke:#231f20;stroke-width:0.9375;stroke-linecap:butt;stroke-linejoin:miter;stroke-miterlimit:4;stroke-dasharray:none;stroke-opacity:1"
     d="m 175.77625,60.95125 102.08875,0"
     inkscape:connector-curvature="0" /><path
     id="path256"
     style="fill:#231f20;fill-opacity:1;fill-rule:nonzero;stroke:none"
     d="m 279.525,60.23 c -1.1625,-0.35125 -1.91875,-0.675 -2.85125,-1.04875 l 0,3.54625 C 277.0075,62.57 278.3625,62.03 279.525,61.68 c 1.245,-0.37625 2.3725,-0.63375 3.1025,-0.725 -0.73,-0.0925 -1.8575,-0.34875 -3.1025,-0.725"
     inkscape:connector-curvature="0" /><path
     id="path258"
     style="fill:none;stroke:#231f20;stroke-width:0.9375;stroke-linecap:butt;stroke-linejoin:miter;stroke-miterlimit:4;stroke-dasharray:none;stroke-opacity:1"
     d="m 87.025375,74.49 10.027875,0 m 26.07425,-13.53875 34.59625,0"
     inkscape:connector-curvature="0" /><path
     id="path260"
     style="fill:#231f20;fill-opacity:1;fill-rule:nonzero;stroke:none"
     d="M 98.02438,73.76875 C 96.86188,73.4175 96.106,73.095 95.173375,72.72125 l 0,3.54625 c 0.334005,-0.16 1.688505,-0.69875 2.851005,-1.04875 1.24375,-0.37625 2.37262,-0.63375 3.1035,-0.72625 -0.73088,-0.09125 -1.85976,-0.3475 -3.1035,-0.72375"
     inkscape:connector-curvature="0" /><path
     id="path262"
     style="fill:none;stroke:#231f20;stroke-width:0.9375;stroke-linecap:butt;stroke-linejoin:miter;stroke-miterlimit:4;stroke-dasharray:none;stroke-opacity:1"
     d="m 57.440375,119.1175 13.038125,0"
     inkscape:connector-curvature="0" /><path
     id="path264"
     style="fill:#231f20;fill-opacity:1;fill-rule:nonzero;stroke:none"
     d="m 71.388625,118.39625 c -1.1625,-0.35125 -1.918375,-0.675 -2.851,-1.04875 l 0,3.5475 c 0.334,-0.15875 1.6885,-0.69875 2.851,-1.04875 1.24375,-0.37625 2.372625,-0.63375 3.103625,-0.72625 -0.731,-0.0912 -1.859875,-0.3475 -3.103625,-0.72375"
     inkscape:connector-curvature="0" /><path
     id="path266"
     style="fill:none;stroke:#231f20;stroke-width:0.9375;stroke-linecap:butt;stroke-linejoin:miter;stroke-miterlimit:4;stroke-dasharray:none;stroke-opacity:1"
     d="m 63.4575,119.1175 0,-69.1975 33.09475,0"
     inkscape:connector-curvature="0" /><path
     id="path268"
     style="fill:#231f20;fill-opacity:1;fill-rule:nonzero;stroke:none"
     d="m 97.84475,49.2 c -1.16262,-0.35125 -1.918,-0.675 -2.850625,-1.04875 l 0,3.5475 C 95.32763,51.54 96.68213,51 97.84475,50.64875 c 1.24413,-0.375 2.3725,-0.6325 3.104,-0.725 -0.7315,-0.09125 -1.85987,-0.3475 -3.104,-0.72375"
     inkscape:connector-curvature="0" /><path
     id="path270"
     style="fill:none;stroke:#231f20;stroke-width:0.9375;stroke-linecap:butt;stroke-linejoin:miter;stroke-miterlimit:4;stroke-dasharray:none;stroke-opacity:1"
     d="m 175.61,148.87 5.515,0"
     inkscape:connector-curvature="0" /><text
     style="font-variant:normal;font-weight:normal;font-size:5px;font-family:Helvetica;-inkscape-font-specification:Helvetica;writing-mode:lr-tb;fill:#231f20;fill-opacity:1;fill-rule:nonzero;stroke:none"
     id="text274"
     x="80.828125"
     y="76.495003"><tspan
       x="80.828125"
       y="76.495003"
       id="tspan276">4</tspan><tspan
       x="283.40439 284.79303 288.40335 289.79364 293.12949 163.17323 164.5619 167.61736 169.00819 170.39819 391.05319 394.38818 397.72321 399.11319 403.2782 406.61319"
       y="28.082876"
       id="tspan278">ID/EXIF/IDEX/MEM</tspan></text>
<path
     id="path280"
     style="fill:none;stroke:#00adef;stroke-width:0.9375;stroke-linecap:butt;stroke-linejoin:miter;stroke-miterlimit:4;stroke-dasharray:none;stroke-opacity:1"
     d="m 183.25625,210.70987 0,27.41113 95.51875,0"
     inkscape:connector-curvature="0" /><path
     id="path282"
     style="fill:#00adef;fill-opacity:1;fill-rule:nonzero;stroke:none"
     d="m 279.81,237.40125 c -1.1625,-0.3525 -1.91875,-0.67625 -2.85125,-1.05025 l 0,3.54787 c 0.335,-0.15875 1.68875,-0.70025 2.85125,-1.04887 1.245,-0.37738 2.37375,-0.63525 3.10375,-0.725 -0.73,-0.0924 -1.85875,-0.35013 -3.10375,-0.72375"
     inkscape:connector-curvature="0" /><path
     id="path284"
     style="fill:none;stroke:#00adef;stroke-width:0.9375;stroke-linecap:butt;stroke-linejoin:miter;stroke-miterlimit:4;stroke-dasharray:none;stroke-opacity:1"
     d="m 296.97125,238.84512 93.1075,0"
     inkscape:connector-curvature="0" /><path
     id="path286"
     style="fill:#00adef;fill-opacity:1;fill-rule:nonzero;stroke:none"
     d="m 390.79125,238.125 c -1.16125,-0.35263 -1.91625,-0.67488 -2.84875,-1.04988 l 0,3.54738 c 0.335,-0.15875 1.6875,-0.69875 2.84875,-1.04975 1.245,-0.375 2.37375,-0.63388 3.10625,-0.72413 -0.7325,-0.0924 -1.86125,-0.34962 -3.10625,-0.72362"
     inkscape:connector-curvature="0" /><path
     id="path288"
     style="fill:none;stroke:#00adef;stroke-width:0.9375;stroke-linecap:butt;stroke-linejoin:miter;stroke-miterlimit:4;stroke-dasharray:none;stroke-opacity:1"
     d="m 408.19375,239.206 84.77625,0"
     inkscape:connector-curvature="0" /><path
     id="path290"
     style="fill:#00adef;fill-opacity:1;fill-rule:nonzero;stroke:none"
     d="m 494.085,238.48775 c -1.1625,-0.3525 -1.91875,-0.67525 -2.85125,-1.05125 l 0,3.54825 c 0.33375,-0.15963 1.68875,-0.69863 2.85125,-1.04975 1.245,-0.375 2.3725,-0.63238 3.1025,-0.72363 -0.73,-0.0914 -1.8575,-0.35012 -3.1025,-0.72362"
     inkscape:connector-curvature="0" /><path
     id="path292"
     style="fill:none;stroke:#231f20;stroke-width:0.9375;stroke-linecap:butt;stroke-linejoin:miter;stroke-miterlimit:4;stroke-dasharray:none;stroke-opacity:1"
     d="m 261.595,210.81975 16.995,0"
     inkscape:connector-curvature="0" /><path
     id="path294"
     style="fill:#231f20;fill-opacity:1;fill-rule:nonzero;stroke:none"
     d="m 279.6175,210.101 c -1.1625,-0.352 -1.91875,-0.67475 -2.85125,-1.05125 l 0,3.54887 c 0.33375,-0.15975 1.68875,-0.69875 2.85125,-1.04987 1.245,-0.375 2.3725,-0.63225 3.1025,-0.72363 -0.73,-0.0913 -1.8575,-0.35012 -3.1025,-0.72412"
     inkscape:connector-curvature="0" /><path
     id="path296"
     style="fill:none;stroke:#231f20;stroke-width:0.625;stroke-linecap:butt;stroke-linejoin:miter;stroke-miterlimit:4;stroke-dasharray:none;stroke-opacity:1"
     d="m 224.45375,207.87987 2.5725,5.63863 m 41.18875,-6.12988 2.57375,5.63863"
     inkscape:connector-curvature="0" /><path
     id="path298"
     style="fill:none;stroke:#231f20;stroke-width:0.9375;stroke-linecap:butt;stroke-linejoin:miter;stroke-miterlimit:4;stroke-dasharray:none;stroke-opacity:1"
     d="m 36.213375,118.7825 4.34575,0"
     inkscape:connector-curvature="0" /><path
     id="path300"
     style="fill:#231f20;fill-opacity:1;fill-rule:nonzero;stroke:none"
     d="m 41.672875,118.06125 c -1.162625,-0.35 -1.918,-0.67375 -2.850625,-1.04875 l 0,3.5475 c 0.3335,-0.15875 1.688,-0.6975 2.850625,-1.04875 1.244125,-0.37625 2.3725,-0.63375 3.104,-0.725 -0.7315,-0.0913 -1.859875,-0.34875 -3.104,-0.725"
     inkscape:connector-curvature="0" /><path
     id="path310"
     style="fill:none;stroke:#231f20;stroke-width:0.9375;stroke-linecap:butt;stroke-linejoin:miter;stroke-miterlimit:4;stroke-dasharray:none;stroke-opacity:1"
     d="m 407.935,76.16125 23.735,0 0,-67.6925 -423.20125,0 0,122.51375 10.361375,-0.0813"
     inkscape:connector-curvature="0" /><path
     id="path312"
     style="fill:#231f20;fill-opacity:1;fill-rule:nonzero;stroke:none"
     d="m 20.42625,130.1675 c -1.1655,-0.3425 -1.923375,-0.66 -2.858375,-1.0275 l 0.02737,3.5475 c 0.3325,-0.16125 1.682625,-0.71125 2.84225,-1.07125 1.24175,-0.38625 2.367625,-0.6525 3.098125,-0.74875 -0.732375,-0.0862 -1.86175,-0.33375 -3.109375,-0.7"
     inkscape:connector-curvature="0" /><path
     id="path314"
     style="fill:none;stroke:#231f20;stroke-width:0.9375;stroke-linecap:butt;stroke-linejoin:miter;stroke-miterlimit:4;stroke-dasharray:none;stroke-opacity:1"
     d="m 131.3175,60.95125 0,-43.9575 -118.5025,0 0,90.11125 6.015125,-0.0225"
     inkscape:connector-curvature="0" /><path
     id="path316"
     style="fill:#231f20;fill-opacity:1;fill-rule:nonzero;stroke:none"
     d="m 20.194875,106.35625 c -1.163625,-0.3475 -1.9205,-0.6675 -2.854,-1.03875 l 0.01262,3.54625 c 0.3335,-0.15875 1.686,-0.70375 2.84675,-1.05875 1.242625,-0.38125 2.370125,-0.6425 3.101,-0.73625 -0.731375,-0.0887 -1.860875,-0.34125 -3.106375,-0.7125"
     inkscape:connector-curvature="0" /><path
     id="path318"
     style="fill:#231f20;fill-opacity:1;fill-rule:nonzero;stroke:none"
     d="m 129.1925,60.94375 c 0,1.2075 0.97875,2.1875 2.1875,2.1875 1.2075,0 2.1875,-0.98 2.1875,-2.1875 0,-1.20875 -0.98,-2.1875 -2.1875,-2.1875 -1.20875,0 -2.1875,0.97875 -2.1875,2.1875"
     inkscape:connector-curvature="0" /><path
     id="path320"
     style="fill:#231f20;fill-opacity:1;fill-rule:nonzero;stroke:none"
     d="m 61.331,119.1075 c 0,1.20875 0.98,2.1875 2.1875,2.1875 1.208125,0 2.1875,-0.97875 2.1875,-2.1875 0,-1.2075 -0.979375,-2.1875 -2.1875,-2.1875 -1.2075,0 -2.1875,0.98 -2.1875,2.1875"
     inkscape:connector-curvature="0" /><path
     id="path322"
     style="fill:#231f20;fill-opacity:1;fill-rule:nonzero;stroke:none"
     d="m 180.96375,148.86125 c 0,1.2075 0.9775,2.1875 2.1875,2.1875 1.20625,0 2.1875,-0.98 2.1875,-2.1875 0,-1.20875 -0.98125,-2.1875 -2.1875,-2.1875 -1.21,0 -2.1875,0.97875 -2.1875,2.1875"
     inkscape:connector-curvature="0" /><path
     id="path324"
     style="fill:#231f20;fill-opacity:1;fill-rule:nonzero;stroke:none"
     d="m 180.96375,211.0375 c 0,1.2085 0.9775,2.1875 2.1875,2.1875 1.20625,0 2.1875,-0.979 2.1875,-2.1875 0,-1.20988 -0.98125,-2.1875 -2.1875,-2.1875 -1.21,0 -2.1875,0.97762 -2.1875,2.1875"
     inkscape:connector-curvature="0" /><path
     id="path326"
     style="fill:#231f20;fill-opacity:1;fill-rule:nonzero;stroke:none"
     d="m 180.96375,138.70625 c 0,1.20875 0.9775,2.1875 2.1875,2.1875 1.20625,0 2.1875,-0.97875 2.1875,-2.1875 0,-1.2075 -0.98125,-2.1875 -2.1875,-2.1875 -1.21,0 -2.1875,0.98 -2.1875,2.1875"
     inkscape:connector-curvature="0" /><path
     id="path328"
     style="fill:#231f20;fill-opacity:1;fill-rule:nonzero;stroke:none"
     d="m 300.09375,152.14125 c 0,1.2075 0.97875,2.1875 2.1875,2.1875 1.20875,0 2.1875,-0.98 2.1875,-2.1875 0,-1.20875 -0.97875,-2.1875 -2.1875,-2.1875 -1.20875,0 -2.1875,0.97875 -2.1875,2.1875"
     inkscape:connector-curvature="0" /><path
     id="path330"
     style="fill:#231f20;fill-opacity:1;fill-rule:nonzero;stroke:none"
     d="m 411.0675,149.26125 c 0,1.2075 0.97875,2.1875 2.1875,2.1875 1.20875,0 2.1875,-0.98 2.1875,-2.1875 0,-1.20875 -0.97875,-2.1875 -2.1875,-2.1875 -1.20875,0 -2.1875,0.97875 -2.1875,2.1875"
     inkscape:connector-curvature="0" /><path
     id="path332"
     style="fill:#231f20;fill-opacity:1;fill-rule:nonzero;stroke:none"
     d="m 306.10875,174.5375 c 0,1.2075 0.97875,2.1875 2.1875,2.1875 1.20875,0 2.1875,-0.98 2.1875,-2.1875 0,-1.20875 -0.97875,-2.1875 -2.1875,-2.1875 -1.20875,0 -2.1875,0.97875 -2.1875,2.1875"
     inkscape:connector-curvature="0" /><path
     id="path334"
     style="fill:none;stroke:#231f20;stroke-width:0.625;stroke-linecap:butt;stroke-linejoin:miter;stroke-miterlimit:4;stroke-dasharray:none;stroke-opacity:1"
     d="m 538.8875,169.805 c 0,4.175 -2.84,7.5575 -6.335,7.5575 -3.50125,0 -6.34125,-3.3825 -6.34125,-7.5575 l 0,-19.3075 c 0,-4.17625 2.84,-7.5575 6.34125,-7.5575 3.495,0 6.335,3.38125 6.335,7.5575 l 0,19.3075 z m -208.08875,3.00875 c 0,4.17375 -2.83875,7.55625 -6.34,7.55625 -3.49875,0 -6.335,-3.3825 -6.335,-7.55625 l 0,-19.30875 c 0,-4.175 2.83625,-7.55625 6.335,-7.55625 3.50125,0 6.34,3.38125 6.34,7.55625 l 0,19.30875 z M 36.1275,128.27125 c 0,4.1725 -2.838375,7.5575 -6.338,7.5575 -3.500875,0 -6.33925,-3.385 -6.33925,-7.5575 l 0,-19.31 c 0,-4.17375 2.838375,-7.55625 6.33925,-7.55625 3.499625,0 6.338,3.3825 6.338,7.55625 l 0,19.31 z"
     inkscape:connector-curvature="0" /><text
     style="font-variant:normal;font-weight:normal;font-size:5px;font-family:Helvetica;-inkscape-font-specification:Helvetica;writing-mode:lr-tb;fill:#231f20;fill-opacity:1;fill-rule:nonzero;stroke:none"
     id="text338"
     x="220.03751"
     y="206.16251"><tspan
       x="220.03751 222.8175"
       y="206.16251"
       id="tspan340">16</tspan><tspan
       x="264.78113 267.56113"
       y="206.16104"
       id="tspan342">32</tspan><tspan
       x="26.938631"
       y="108.88367"
       id="tspan344">0</tspan></text>
<text
     style="font-variant:normal;font-weight:bold;font-size:5px;font-family:Helvetica;-inkscape-font-specification:Helvetica-Bold;writing-mode:lr-tb;fill:#231f20;fill-opacity:1;fill-rule:nonzero;stroke:none"
     id="text346"
     x="28.871239"
     y="114.7528"><tspan
       x="28.871239"
       y="114.7528"
       id="tspan348">M</tspan><tspan
       x="29.425926"
       y="120.75233"
       id="tspan350">u</tspan><tspan
       x="29.56411"
       y="126.75233"
       id="tspan352">x</tspan></text>
<text
     style="font-variant:normal;font-weight:normal;font-size:5px;font-family:Helvetica;-inkscape-font-specification:Helvetica;writing-mode:lr-tb;fill:#231f20;fill-opacity:1;fill-rule:nonzero;stroke:none"
     id="text354"
     x="26.938622"
     y="132.70203"><tspan
       x="26.938622"
       y="132.70203"
       id="tspan356">1</tspan><tspan
       x="321.60986"
       y="153.76015"
       id="tspan358">0</tspan></text>
<text
     style="font-variant:normal;font-weight:bold;font-size:5px;font-family:Helvetica;-inkscape-font-specification:Helvetica-Bold;writing-mode:lr-tb;fill:#231f20;fill-opacity:1;fill-rule:nonzero;stroke:none"
     id="text360"
     x="323.34866"
     y="159.52138"><tspan
       x="323.34866"
       y="159.52138"
       id="tspan362">M</tspan><tspan
       x="323.90482"
       y="165.52235"
       id="tspan364">u</tspan><tspan
       x="324.04153"
       y="171.51991"
       id="tspan366">x</tspan></text>
<text
     style="font-variant:normal;font-weight:normal;font-size:5px;font-family:Helvetica;-inkscape-font-specification:'Helvetica, Normal';writing-mode:lr;fill:#231f20;fill-opacity:1;fill-rule:nonzero;stroke:none;font-style:normal;font-stretch:normal;text-anchor:start;text-align:start;line-height:125%;"
     id="text368"
     x="321.60986"
     y="176.32509"
     sodipodi:linespacing="125%"><tspan
       sodipodi:role="line"
       id="tspan4819">1</tspan></text>
<text
     style="font-variant:normal;font-weight:bold;font-size:5px;font-family:Helvetica;-inkscape-font-specification:Helvetica-Bold;writing-mode:lr-tb;fill:#231f20;fill-opacity:1;fill-rule:nonzero;stroke:none"
     id="text374"
     x="531.18719"
     y="156.6039"><tspan
       x="531.18719"
       y="156.6039"
       id="tspan376">M</tspan><tspan
       x="531.74237"
       y="162.60487"
       id="tspan378">u</tspan><tspan
       x="531.87958"
       y="168.60245"
       id="tspan380">x</tspan></text>
<text
     style="font-style:normal;font-variant:normal;font-weight:normal;font-stretch:normal;font-size:5px;line-height:125%;font-family:Helvetica;-inkscape-font-specification:'Helvetica, Normal';text-align:start;writing-mode:lr-tb;text-anchor:start;fill:#231f20;fill-opacity:1;fill-rule:nonzero;stroke:none"
     id="text382"
     x="493.69989"
     y="27.926846"
     sodipodi:linespacing="125%"><tspan
       sodipodi:role="line"
       id="tspan4821"
       x="493.69989"
       y="27.926846">MEM/WB</tspan></text>
<text
     xml:space="preserve"
     style="font-style:normal;font-weight:normal;font-size:10px;line-height:125%;font-family:sans-serif;text-align:start;letter-spacing:0px;word-spacing:0px;writing-mode:lr-tb;text-anchor:start;opacity:0.93999999;fill:#000000;fill-opacity:1;stroke:none;stroke-width:1px;stroke-linecap:butt;stroke-linejoin:miter;stroke-opacity:1"
     x="26.721443"
     y="210.76189"
     id="text4894"
     sodipodi:linespacing="125%"><tspan
       sodipodi:role="line"
       id="tspan4304"
       x="26.721443"
       y="210.76189"
       style="font-size:7.5px">COD 4Ed, Copyright © 2009 </tspan><tspan
       sodipodi:role="line"
       x="26.721443"
       y="220.13689"
       style="font-size:7.5px"
       id="tspan4308">Elsevier, Inc. All rights reserved.</tspan><tspan
       sodipodi:role="line"
       id="tspan4306"
       x="26.721443"
       y="229.51189" /></text>
<text
     xml:space="preserve"
     style="font-style:normal;font-weight:normal;font-size:10px;line-height:125%;font-family:sans-serif;letter-spacing:0px;word-spacing:0px;fill:#000000;fill-opacity:1;stroke:none;stroke-width:1px;stroke-linecap:butt;stroke-linejoin:miter;stroke-opacity:1"
     x="103.58095"
     y="270.42676"
     id="text5570"
     sodipodi:linespacing="125%"><tspan
       sodipodi:role="line"
       id="tspan5572"
       x="103.58095"
       y="270.42676">Conserto da escrita no banco de registradores (instrução LW).</tspan></text>
<text
     sodipodi:linespacing="125%"
     y="152.88985"
     x="527.19373"
     id="text4811"
     style="font-style:normal;font-variant:normal;font-weight:normal;font-stretch:normal;font-size:5px;line-height:125%;font-family:Helvetica;-inkscape-font-specification:'Helvetica, Normal';text-align:start;writing-mode:lr-tb;text-anchor:start;fill:#231f20;fill-opacity:1;fill-rule:nonzero;stroke:none"><tspan
       sodipodi:role="line"
       id="tspan4823"
       x="527.19373"
       y="152.88985">1</tspan><tspan
       sodipodi:role="line"
       id="tspan4825"
       x="527.19373"
       y="159.13985"></tspan><tspan
       sodipodi:role="line"
       id="tspan4827"
       x="527.19373"
       y="165.38985"></tspan><tspan
       sodipodi:role="line"
       id="tspan4829"
       x="527.19373"
       y="171.63985">0</tspan></text>
</svg>