<?xml version="1.0" encoding="UTF-8" standalone="no"?>
<svg
   xmlns:dc="http://purl.org/dc/elements/1.1/"
   xmlns:cc="http://creativecommons.org/ns#"
   xmlns:rdf="http://www.w3.org/1999/02/22-rdf-syntax-ns#"
   xmlns:svg="http://www.w3.org/2000/svg"
   xmlns="http://www.w3.org/2000/svg"
   xmlns:sodipodi="http://sodipodi.sourceforge.net/DTD/sodipodi-0.dtd"
   xmlns:inkscape="http://www.inkscape.org/namespaces/inkscape"
   viewBox="0 0 544.24853 416.7843"
   height="416.7843"
   width="544.24854"
   xml:space="preserve"
   version="1.1"
   id="svg2"
   inkscape:version="0.91 r13725"
   sodipodi:docname="pipelineCOD4Ed-1A.svg"><sodipodi:namedview
     pagecolor="#ffffff"
     bordercolor="#666666"
     borderopacity="1"
     objecttolerance="10"
     gridtolerance="10"
     guidetolerance="10"
     inkscape:pageopacity="0"
     inkscape:pageshadow="2"
     inkscape:window-width="1920"
     inkscape:window-height="1031"
     id="namedview203"
     showgrid="false"
     inkscape:zoom="1.9986357"
     inkscape:cx="272.12427"
     inkscape:cy="208.39215"
     inkscape:window-x="1920"
     inkscape:window-y="30"
     inkscape:window-maximized="1"
     inkscape:current-layer="svg2"
     fit-margin-left="5"
     fit-margin-bottom="5"
     fit-margin-top="5"
     fit-margin-right="5"
     showguides="true"
     inkscape:guide-bbox="true" /><metadata
     id="metadata8"><rdf:RDF><cc:Work
         rdf:about=""><dc:format>image/svg+xml</dc:format><dc:type
           rdf:resource="http://purl.org/dc/dcmitype/StillImage" /><dc:title></dc:title></cc:Work></rdf:RDF></metadata><defs
     id="defs6"><clipPath
       id="clipPath46"
       clipPathUnits="userSpaceOnUse"><path
         id="path48"
         d="m 165,503 0,3015 4170,0 0,-3015 -4170,0 z"
         inkscape:connector-curvature="0" /></clipPath><clipPath
       id="clipPath68"
       clipPathUnits="userSpaceOnUse"><path
         id="path70"
         d="m 165,503 0,3015 4170,0 0,-3015 -4170,0 z"
         inkscape:connector-curvature="0" /></clipPath><clipPath
       id="clipPath366"
       clipPathUnits="userSpaceOnUse"><path
         id="path368"
         d="m 165,503 0,3015 4170,0 0,-3015 -4170,0 z"
         inkscape:connector-curvature="0" /></clipPath></defs><path
     id="path32"
     style="fill:none;stroke:#00adef;stroke-width:0.9375;stroke-linecap:butt;stroke-linejoin:miter;stroke-miterlimit:4;stroke-dasharray:none;stroke-opacity:1"
     d="m 55.122625,182.64875 7.0405,0"
     inkscape:connector-curvature="0" /><path
     id="path34"
     style="fill:#00adef;fill-opacity:1;fill-rule:nonzero;stroke:none"
     d="m 63.82375,181.9275 c -1.162625,-0.35125 -1.9185,-0.675 -2.851125,-1.04875 l 0,3.54625 c 0.334,-0.15875 1.6885,-0.6975 2.851125,-1.0475 1.244125,-0.37625 2.3725,-0.63375 3.1035,-0.72625 -0.731,-0.0913 -1.859375,-0.34875 -3.1035,-0.72375"
     inkscape:connector-curvature="0" /><path
     id="path72"
     style="fill:none;stroke:#231f20;stroke-width:0.625;stroke-linecap:butt;stroke-linejoin:miter;stroke-miterlimit:4;stroke-dasharray:5.00024993, 2.50012495;stroke-dashoffset:0;stroke-opacity:1"
     d="m 153.29387,5 0,406.78429 M 261.88137,5 l 0,406.00159 m 97.1825,-405.219026 0,406.001726 M 467.19637,5 l 0,406.78429"
     inkscape:connector-curvature="0" /><path
     id="path82"
     style="fill:none;stroke:#00adef;stroke-width:0.9375;stroke-linecap:butt;stroke-linejoin:miter;stroke-miterlimit:4;stroke-dasharray:none;stroke-opacity:1"
     d="m 506.30262,224.69 11.9925,0.0175 0,103.56888 -351.76875,0 0,-86.23138 12.14375,0"
     inkscape:connector-curvature="0" /><path
     id="path84"
     style="fill:#00adef;fill-opacity:1;fill-rule:nonzero;stroke:none"
     d="m 180.33012,241.32375 c -1.1625,-0.35125 -1.91875,-0.675 -2.85125,-1.04875 l 0,3.5475 c 0.33375,-0.15875 1.68875,-0.7 2.85125,-1.04875 1.24375,-0.3775 2.3725,-0.635 3.10375,-0.725 -0.73125,-0.0925 -1.86,-0.35 -3.10375,-0.725"
     inkscape:connector-curvature="0" /><path
     id="path86"
     style="fill:none;stroke:#000000;stroke-width:0.625;stroke-linecap:butt;stroke-linejoin:miter;stroke-miterlimit:4;stroke-dasharray:none;stroke-opacity:1"
     d="m 505.99012,238.47375 c 0,6.0525 -4.20125,10.96375 -9.3825,10.96375 -5.18125,0 -9.3825,-4.91125 -9.3825,-10.96375 l 0,-28.01625 c 0,-6.05375 4.20125,-10.965 9.3825,-10.965 5.18125,0 9.3825,4.91125 9.3825,10.965 l 0,28.01625 z m -451.02087,-42.675 c 0,5.69375 -3.873,10.31125 -8.650375,10.31125 -4.777375,0 -8.650875,-4.6175 -8.650875,-10.31125 l 0,-26.35625 c 0,-5.69625 3.8735,-10.31375 8.650875,-10.31375 4.777375,0 8.650375,4.6175 8.650375,10.31375 l 0,26.35625 z"
     inkscape:connector-curvature="0" /><text
     style="font-variant:normal;font-weight:normal;font-size:6.25px;font-family:Helvetica;-inkscape-font-specification:Helvetica;writing-mode:lr-tb;fill:#000000;fill-opacity:1;fill-rule:nonzero;stroke:none"
     id="text90"
     x="491.58762"
     y="211.345"><tspan
       x="491.58762"
       y="211.345"
       id="tspan92">1</tspan></text>
<text
     style="font-variant:normal;font-weight:bold;font-size:6.25px;font-family:Helvetica;-inkscape-font-specification:Helvetica-Bold;writing-mode:lr-tb;fill:#000000;fill-opacity:1;fill-rule:nonzero;stroke:none"
     id="text94"
     x="496.11984"
     y="220.57254"><tspan
       x="496.11984"
       y="220.57254"
       id="tspan96">M</tspan><tspan
       x="496.81219"
       y="229.03885"
       id="tspan98">u</tspan><tspan
       x="496.98505"
       y="237.50125"
       id="tspan100">x</tspan></text>
<text
     style="font-variant:normal;font-weight:normal;font-size:6.25px;font-family:Helvetica;-inkscape-font-specification:Helvetica;writing-mode:lr-tb;fill:#000000;fill-opacity:1;fill-rule:nonzero;stroke:none"
     id="text102"
     x="491.58762"
     y="245.56668"><tspan
       x="491.58762"
       y="245.56668"
       id="tspan104">0</tspan></text>
<path
     id="path106"
     style="fill:none;stroke:#000000;stroke-width:0.625;stroke-linecap:butt;stroke-linejoin:miter;stroke-miterlimit:4;stroke-dasharray:none;stroke-opacity:1"
     d="m 396.55887,260.67875 56.86475,0 0,-88.82762 -56.86475,0 0,88.82762 z"
     inkscape:connector-curvature="0" /><text
     style="font-variant:normal;font-weight:normal;font-size:6.25px;font-family:Helvetica;-inkscape-font-specification:Helvetica;writing-mode:lr-tb;fill:#000000;fill-opacity:1;fill-rule:nonzero;stroke:none"
     id="text110"
     x="42.430126"
     y="168.64626"><tspan
       x="42.430126"
       y="168.64626"
       id="tspan112">0</tspan></text>
<text
     style="font-variant:normal;font-weight:bold;font-size:6.25px;font-family:Helvetica;-inkscape-font-specification:Helvetica-Bold;writing-mode:lr-tb;fill:#000000;fill-opacity:1;fill-rule:nonzero;stroke:none"
     id="text114"
     x="47.369576"
     y="177.36794"><tspan
       x="47.369576"
       y="177.36794"
       id="tspan116">M</tspan><tspan
       x="48.063911"
       y="185.06276"
       id="tspan118">u</tspan><tspan
       x="48.235298"
       y="192.75514"
       id="tspan120">x</tspan></text>
<text
     style="font-variant:normal;font-weight:normal;font-size:6.25px;font-family:Helvetica;-inkscape-font-specification:Helvetica;writing-mode:lr-tb;fill:#000000;fill-opacity:1;fill-rule:nonzero;stroke:none"
     id="text122"
     x="42.430122"
     y="199.63014"><tspan
       x="42.430122"
       y="199.63014"
       id="tspan124">1</tspan><tspan
       x="400.1026 404.27158 407.74631 411.22128 413.30252 416.77753 419.90253"
       y="201.20876"
       id="tspan126">Address</tspan><tspan
       x="400.1026 406.00262 408.08386 409.47134 411.20886"
       y="250.48264"
       id="tspan128">Write</tspan><tspan
       x="400.1026 403.57733 407.05206 408.79013"
       y="257.98264"
       id="tspan130">data</tspan><tspan
       x="436.87262 441.38535 444.86069 448.33603"
       y="207.36787"
       id="tspan132">Read</tspan><tspan
       x="439.64752 443.12228 446.59702 448.33502"
       y="214.86787"
       id="tspan134">data</tspan></text>
<path
     id="path136"
     style="fill:none;stroke:#000000;stroke-width:0.9375;stroke-linecap:butt;stroke-linejoin:miter;stroke-miterlimit:4;stroke-dasharray:none;stroke-opacity:1"
     d="m 453.05262,208.73625 29.52625,0"
     inkscape:connector-curvature="0" /><path
     id="path138"
     style="fill:#231f20;fill-opacity:1;fill-rule:nonzero;stroke:none"
     d="m 484.23887,208.01625 c -1.16125,-0.35125 -1.91875,-0.67625 -2.85125,-1.05 l 0,3.5475 c 0.335,-0.15875 1.69,-0.69875 2.85125,-1.04875 1.245,-0.37625 2.37375,-0.63375 3.10375,-0.725 -0.73,-0.0925 -1.85875,-0.35 -3.10375,-0.72375"
     inkscape:connector-curvature="0" /><path
     id="path140"
     style="fill:none;stroke:#000000;stroke-width:0.9375;stroke-linecap:butt;stroke-linejoin:miter;stroke-miterlimit:4;stroke-dasharray:none;stroke-opacity:1"
     d="m 367.10762,199.8175 -0.0588,78.0425 108.36,0 0,-34.90375 7.87875,0"
     inkscape:connector-curvature="0" /><path
     id="path142"
     style="fill:#231f20;fill-opacity:1;fill-rule:nonzero;stroke:none"
     d="m 484.94762,242.235 c -1.1625,-0.35125 -1.91625,-0.675 -2.84875,-1.04875 l 0,3.5475 c 0.33375,-0.15875 1.68625,-0.69875 2.84875,-1.04875 1.245,-0.37625 2.3725,-0.63375 3.105,-0.725 -0.7325,-0.0925 -1.86,-0.35 -3.105,-0.725"
     inkscape:connector-curvature="0" /><text
     style="font-variant:normal;font-weight:bold;font-size:6.25px;font-family:Helvetica;-inkscape-font-specification:Helvetica-Bold;writing-mode:lr-tb;fill:#000000;fill-opacity:1;fill-rule:nonzero;stroke:none"
     id="text146"
     x="418.21887"
     y="221.96875"><tspan
       x="418.21887 422.73135 426.20636 428.28601"
       y="221.96875"
       id="tspan148">Data</tspan><tspan
       x="413.00891 418.21515 421.69016 427.2464 431.06516 433.4964"
       y="229.46875"
       id="tspan150">Memory</tspan></text>
<text
     style="font-variant:normal;font-weight:normal;font-size:6.25px;font-family:Helvetica;-inkscape-font-specification:Helvetica;writing-mode:lr-tb;fill:#000000;fill-opacity:1;fill-rule:nonzero;stroke:none"
     id="text152"
     x="186.97766"
     y="172.91501"><tspan
       x="186.97766 191.49036 194.9657 198.44104"
       y="172.91501"
       id="tspan154">Read</tspan><tspan
       x="186.97766 189.05893 192.53391 196.00891 197.39642 200.52142 202.25891 205.73392 207.81516 209.54895"
       y="180.41501"
       id="tspan156">register 1</tspan><tspan
       x="186.97766 191.49036 194.9657 198.44104"
       y="193.125"
       id="tspan158">Read</tspan><tspan
       x="186.97766 189.05893 192.53391 196.00891 197.39642 200.52142 202.25891 205.73392 207.81516 209.55267"
       y="200.625"
       id="tspan160">register 2</tspan><tspan
       x="186.97766 192.87766 194.95892 196.34641 198.08392"
       y="220.01125"
       id="tspan162">Write</tspan><tspan
       x="186.97766 189.05893 192.53391 196.00891 197.39642 200.52142 202.25891 205.73392 207.81516"
       y="227.51125"
       id="tspan164">register </tspan></text>
<path
     id="path166"
     style="fill:none;stroke:#000000;stroke-width:0.625;stroke-linecap:butt;stroke-linejoin:miter;stroke-miterlimit:4;stroke-dasharray:none;stroke-opacity:1"
     d="m 183.43387,253.58375 67.00975,0 0,-88.48487 -67.00975,0 0,88.48487 z"
     inkscape:connector-curvature="0" /><text
     style="font-variant:normal;font-weight:normal;font-size:6.25px;font-family:Helvetica;-inkscape-font-specification:Helvetica;writing-mode:lr-tb;fill:#000000;fill-opacity:1;fill-rule:nonzero;stroke:none"
     id="text170"
     x="186.97763"
     y="241.19501"><tspan
       x="186.97763 192.87762 194.95886 196.34637 198.08386"
       y="241.19501"
       id="tspan172">Write</tspan><tspan
       x="186.97763 190.45236 193.92709 195.66513"
       y="248.69501"
       id="tspan174">data</tspan></text>
<text
     style="font-variant:normal;font-weight:bold;font-size:6.25px;font-family:Helvetica;-inkscape-font-specification:Helvetica-Bold;writing-mode:lr-tb;fill:#000000;fill-opacity:1;fill-rule:nonzero;stroke:none"
     id="text176"
     x="202.44882"
     y="211.21889"><tspan
       x="202.44882 206.9613 210.43631 214.25507 215.99255 219.46756 221.54883 225.0238 227.45508"
       y="211.21889"
       id="tspan178">Registers</tspan></text>
<text
     style="font-variant:normal;font-weight:normal;font-size:6.25px;font-family:Helvetica;-inkscape-font-specification:Helvetica;writing-mode:lr-tb;fill:#000000;fill-opacity:1;fill-rule:nonzero;stroke:none"
     id="text180"
     x="231.99518"
     y="173.94888"><tspan
       x="231.99518 236.50641 239.98175 243.45709"
       y="173.94888"
       id="tspan182">Read</tspan><tspan
       x="229.55768 233.03241 236.50714 238.24438 241.71912 243.45517"
       y="181.44888"
       id="tspan184">data 1</tspan></text>
<path
     id="path186"
     style="fill:none;stroke:#000000;stroke-width:0.625;stroke-linecap:butt;stroke-linejoin:miter;stroke-miterlimit:4;stroke-dasharray:none;stroke-opacity:1"
     d="m 315.23012,230.505 0,-28.48875 5.015,-8.0775 -5.015,-5.81875 0,-31.2275 38.8725,25.12 0,25.17 -38.8725,23.3225 z"
     inkscape:connector-curvature="0" /><text
     style="font-variant:normal;font-weight:normal;font-size:6.25px;font-family:Helvetica;-inkscape-font-specification:Helvetica;writing-mode:lr-tb;fill:#000000;fill-opacity:1;fill-rule:nonzero;stroke:none"
     id="text190"
     x="231.99512"
     y="221.38126"><tspan
       x="231.99512 236.50635 239.98169 243.45703"
       y="221.38126"
       id="tspan192">Read</tspan><tspan
       x="229.55762 233.03235 236.50708 238.24432 241.71906 243.45749"
       y="228.88126"
       id="tspan194">data 2</tspan></text>
<text
     style="font-variant:normal;font-weight:bold;font-size:6.25px;font-family:Helvetica;-inkscape-font-specification:Helvetica-Bold;writing-mode:lr-tb;fill:#000000;fill-opacity:1;fill-rule:nonzero;stroke:none"
     id="text196"
     x="321.44873"
     y="196.20113"><tspan
       x="321.44873 325.96124 329.77884"
       y="196.20113"
       id="tspan198">ALU</tspan></text>
<text
     style="font-variant:normal;font-weight:normal;font-size:6.25px;font-family:Helvetica;-inkscape-font-specification:Helvetica;writing-mode:lr-tb;fill:#000000;fill-opacity:1;fill-rule:nonzero;stroke:none"
     id="text200"
     x="337.88138"
     y="185.0312"><tspan
       x="337.88138 341.7012 345.17593 347.2569"
       y="185.0312"
       id="tspan202">Zero</tspan></text>
<path
     id="path204"
     style="fill:none;stroke:#000000;stroke-width:0.625;stroke-linecap:butt;stroke-linejoin:miter;stroke-miterlimit:4;stroke-dasharray:none;stroke-opacity:1"
     d="m 298.78762,154.7725 0,-28.48875 5.015,-8.0775 -5.015,-5.8175 0,-31.22625 38.875,25.11875 0,25.17125 -38.875,23.32 z m -196.6455,-18.2475 0,-28.49125 5.01363,-8.07625 -5.01363,-5.81875 0,-31.225 38.8755,25.1175 0,25.17 -38.8755,23.32375 z"
     inkscape:connector-curvature="0" /><text
     style="font-variant:normal;font-weight:normal;font-size:6.25px;font-family:Helvetica;-inkscape-font-specification:Helvetica;writing-mode:lr-tb;fill:#000000;fill-opacity:1;fill-rule:nonzero;stroke:none"
     id="text208"
     x="339.79636"
     y="198.40125"><tspan
       x="339.79636 343.96512 347.4375"
       y="198.40125"
       id="tspan210">ALU</tspan><tspan
       x="336.67136 338.75262 342.22763 345.35263 348.82761 350.21512"
       y="205.90125"
       id="tspan212">result</tspan></text>
<text
     style="font-variant:normal;font-weight:bold;font-size:6.25px;font-family:Helvetica;-inkscape-font-specification:Helvetica-Bold;writing-mode:lr-tb;fill:#000000;fill-opacity:1;fill-rule:nonzero;stroke:none"
     id="text214"
     x="305.00485"
     y="120.92862"><tspan
       x="305.00485 309.51736 314.02783"
       y="120.92862"
       id="tspan216">ADD</tspan></text>
<path
     id="path218"
     style="fill:none;stroke:#000000;stroke-width:0.9375;stroke-linecap:butt;stroke-linejoin:miter;stroke-miterlimit:4;stroke-dasharray:none;stroke-opacity:1"
     d="m 354.00762,199.62875 37.7875,0"
     inkscape:connector-curvature="0" /><path
     id="path220"
     style="fill:#231f20;fill-opacity:1;fill-rule:nonzero;stroke:none"
     d="m 393.45512,198.9075 c -1.16125,-0.35125 -1.91875,-0.675 -2.85125,-1.04875 l 0,3.54625 c 0.335,-0.15875 1.69,-0.6975 2.85125,-1.0475 1.24625,-0.37625 2.37375,-0.63375 3.10375,-0.72625 -0.73,-0.0913 -1.8575,-0.34875 -3.10375,-0.72375"
     inkscape:connector-curvature="0" /><path
     id="path222"
     style="fill:none;stroke:#000000;stroke-width:0.625;stroke-linecap:butt;stroke-linejoin:miter;stroke-miterlimit:4;stroke-dasharray:none;stroke-opacity:1"
     d="m 285.88012,134.615 c 0,9.43375 -4.55875,17.08125 -10.18375,17.08125 -5.6275,0 -10.185,-7.6475 -10.185,-17.08125 0,-9.435 4.5575,-17.08375 10.185,-17.08375 5.625,0 10.18375,7.64875 10.18375,17.08375 z"
     inkscape:connector-curvature="0" /><text
     style="font-variant:normal;font-weight:normal;font-size:6.25px;font-family:Helvetica;-inkscape-font-specification:Helvetica;writing-mode:lr-tb;fill:#000000;fill-opacity:1;fill-rule:nonzero;stroke:none"
     id="text226"
     x="325.10263"
     y="117.19627"><tspan
       x="325.10263 329.27136 332.745"
       y="117.19627"
       id="tspan228">Add</tspan><tspan
       x="320.94 323.02127 326.49628 329.62128 333.09625 334.48376"
       y="124.69479"
       id="tspan230">result</tspan></text>
<path
     id="path232"
     style="fill:none;stroke:#000000;stroke-width:0.625;stroke-linecap:butt;stroke-linejoin:miter;stroke-miterlimit:4;stroke-dasharray:none;stroke-opacity:1"
     d="m 286.06262,133.9125 8.0675,0"
     inkscape:connector-curvature="0" /><path
     id="path234"
     style="fill:#231f20;fill-opacity:1;fill-rule:nonzero;stroke:none"
     d="m 295.75262,133.20875 c -1.135,-0.34375 -1.875,-0.66 -2.785,-1.02625 l 0,3.4675 c 0.325,-0.155 1.65,-0.68 2.785,-1.025 1.21875,-0.3675 2.32,-0.61875 3.035,-0.70875 -0.715,-0.09 -1.81625,-0.34125 -3.035,-0.7075"
     inkscape:connector-curvature="0" /><path
     id="path236"
     style="fill:none;stroke:#000000;stroke-width:0.625;stroke-linecap:butt;stroke-linejoin:miter;stroke-miterlimit:4;stroke-dasharray:none;stroke-opacity:1"
     d="m 97.79887,241.375 49.98875,0 0,-68.50488 -49.98875,0 0,68.50488 z"
     inkscape:connector-curvature="0" /><text
     style="font-variant:normal;font-weight:normal;font-size:6.25px;font-family:Helvetica;-inkscape-font-specification:Helvetica;writing-mode:lr-tb;fill:#000000;fill-opacity:1;fill-rule:nonzero;stroke:none"
     id="text240"
     x="268.36761"
     y="132.38"><tspan
       x="268.36761 272.53656 276.01129 277.39932 279.13373"
       y="132.38"
       id="tspan242">Shift</tspan><tspan
       x="268.36761 269.75513 273.2301 274.966 276.70349 278.44257"
       y="139.88"
       id="tspan244">left 2</tspan><tspan
       x="99.751358 103.91984 107.39456 110.87005 112.95128 116.42629 119.55129"
       y="184.13638"
       id="tspan246">Address</tspan><tspan
       x="115.41399 117.1515 120.62649 123.7515 125.48898 127.57025 131.04523 134.17023 135.90775 137.29523 140.76361"
       y="208.19012"
       id="tspan248">Instruction</tspan></text>
<text
     style="font-variant:normal;font-weight:bold;font-size:6.25px;font-family:Helvetica;-inkscape-font-specification:Helvetica-Bold;writing-mode:lr-tb;fill:#000000;fill-opacity:1;fill-rule:nonzero;stroke:none"
     id="text250"
     x="111.9511"
     y="228.17162"><tspan
       x="111.9511 113.6886 117.50736 120.98235 123.0636 125.49484 129.31247 132.78781 134.86942 136.60623 140.4238"
       y="228.17162"
       id="tspan252">Instruction</tspan><tspan
       x="115.94143 121.49768 124.97269 130.52893 134.34769 136.77893"
       y="235.67162"
       id="tspan254">memory</tspan><tspan
       x="122.77786 127.29034 131.10648"
       y="101.80287"
       id="tspan256">Add</tspan></text>
<path
     id="path258"
     style="fill:none;stroke:#000000;stroke-width:0.625;stroke-linecap:butt;stroke-linejoin:miter;stroke-miterlimit:4;stroke-dasharray:none;stroke-opacity:1"
     d="m 66.92725,201.86125 13.32225,0 0,-38.48538 -13.32225,0 0,38.48538 z"
     inkscape:connector-curvature="0" /><text
     style="font-variant:normal;font-weight:normal;font-size:6.25px;font-family:Helvetica;-inkscape-font-specification:Helvetica;writing-mode:lr-tb;fill:#000000;fill-opacity:1;fill-rule:nonzero;stroke:none"
     id="text262"
     x="87.219757"
     y="117.34375"><tspan
       x="87.219757"
       y="117.34375"
       id="tspan264">4</tspan></text>
<path
     id="path266"
     style="fill:none;stroke:#000000;stroke-width:0.9375;stroke-linecap:butt;stroke-linejoin:miter;stroke-miterlimit:4;stroke-dasharray:none;stroke-opacity:1"
     d="m 208.80512,292.2525 -48.90625,0 0,-119.34 18.77125,0"
     inkscape:connector-curvature="0" /><path
     id="path268"
     style="fill:#231f20;fill-opacity:1;fill-rule:nonzero;stroke:none"
     d="m 180.33012,172.19125 c -1.1625,-0.35 -1.91875,-0.67375 -2.85125,-1.04875 l 0,3.5475 c 0.33375,-0.15875 1.68875,-0.6975 2.85125,-1.04875 1.24375,-0.37625 2.3725,-0.63375 3.10375,-0.725 -0.73125,-0.0913 -1.86,-0.34875 -3.10375,-0.725"
     inkscape:connector-curvature="0" /><path
     id="path270"
     style="fill:#231f20;fill-opacity:1;fill-rule:nonzero;stroke:none"
     d="m 210.46637,291.5325 c -1.16375,-0.3525 -1.91875,-0.67625 -2.85125,-1.05 l 0,3.5475 c 0.33375,-0.15875 1.6875,-0.7 2.85125,-1.04875 1.24375,-0.3775 2.3725,-0.635 3.1025,-0.725 -0.73,-0.0925 -1.85875,-0.35 -3.1025,-0.72375"
     inkscape:connector-curvature="0" /><path
     id="path272"
     style="fill:none;stroke:#000000;stroke-width:0.9375;stroke-linecap:butt;stroke-linejoin:miter;stroke-miterlimit:4;stroke-dasharray:none;stroke-opacity:1"
     d="m 275.69637,151.69625 0,140.55625 -34.9725,0"
     inkscape:connector-curvature="0" /><text
     style="font-variant:normal;font-weight:bold;font-size:6.25px;font-family:Helvetica;-inkscape-font-specification:Helvetica-Bold;writing-mode:lr-tb;fill:#000000;fill-opacity:1;fill-rule:nonzero;stroke:none"
     id="text276"
     x="68.835503"
     y="185.09625"><tspan
       x="68.835503 73.00425"
       y="185.09625"
       id="tspan278">PC</tspan></text>
<path
     id="path280"
     style="fill:none;stroke:#000000;stroke-width:0.625;stroke-linecap:butt;stroke-linejoin:miter;stroke-miterlimit:4;stroke-dasharray:none;stroke-opacity:1"
     d="m 240.89387,290.08 c 0,14.43125 -6.1275,26.131 -13.6875,26.131 -7.56,0 -13.6875,-11.69975 -13.6875,-26.131 0,-14.43 6.1275,-26.12875 13.6875,-26.12875 7.56,0 13.6875,11.69875 13.6875,26.12875 z"
     inkscape:connector-curvature="0" /><path
     id="path282"
     style="fill:none;stroke:#000000;stroke-width:0.9375;stroke-linecap:butt;stroke-linejoin:miter;stroke-miterlimit:4;stroke-dasharray:none;stroke-opacity:1"
     d="m 159.72887,192.79 18.94125,0"
     inkscape:connector-curvature="0" /><path
     id="path284"
     style="fill:#231f20;fill-opacity:1;fill-rule:nonzero;stroke:none"
     d="m 180.33012,192.07 c -1.1625,-0.3525 -1.91875,-0.675 -2.85125,-1.05 l 0,3.5475 c 0.33375,-0.15875 1.68875,-0.69875 2.85125,-1.04875 1.24375,-0.37625 2.3725,-0.63375 3.10375,-0.725 -0.73125,-0.0913 -1.86,-0.35 -3.10375,-0.72375"
     inkscape:connector-curvature="0" /><path
     id="path286"
     style="fill:none;stroke:#000000;stroke-width:0.9375;stroke-linecap:butt;stroke-linejoin:miter;stroke-miterlimit:4;stroke-dasharray:none;stroke-opacity:1"
     d="m 159.72887,221.41875 18.94125,0"
     inkscape:connector-curvature="0" /><path
     id="path288"
     style="fill:#231f20;fill-opacity:1;fill-rule:nonzero;stroke:none"
     d="m 180.33012,220.6975 c -1.1625,-0.35125 -1.91875,-0.675 -2.85125,-1.04875 l 0,3.5475 c 0.33375,-0.15875 1.68875,-0.7 2.85125,-1.04875 1.24375,-0.3775 2.3725,-0.635 3.10375,-0.725 -0.73125,-0.0925 -1.86,-0.35 -3.10375,-0.725"
     inkscape:connector-curvature="0" /><path
     id="path290"
     style="fill:none;stroke:#000000;stroke-width:0.9375;stroke-linecap:butt;stroke-linejoin:miter;stroke-miterlimit:4;stroke-dasharray:none;stroke-opacity:1"
     d="m 250.47512,173.94875 59.99,0"
     inkscape:connector-curvature="0" /><path
     id="path292"
     style="fill:#231f20;fill-opacity:1;fill-rule:nonzero;stroke:none"
     d="m 312.12512,173.2275 c -1.1625,-0.35125 -1.91625,-0.675 -2.84875,-1.04875 l 0,3.54625 c 0.33375,-0.1575 1.68625,-0.6975 2.84875,-1.0475 1.245,-0.37625 2.3725,-0.63375 3.105,-0.725 -0.7325,-0.0925 -1.86,-0.34875 -3.105,-0.725"
     inkscape:connector-curvature="0" /><text
     style="font-variant:normal;font-weight:bold;font-size:6.25px;font-family:Helvetica;-inkscape-font-specification:Helvetica-Bold;writing-mode:lr-tb;fill:#000000;fill-opacity:1;fill-rule:nonzero;stroke:none"
     id="text296"
     x="219.39264"
     y="288.45126"><tspan
       x="219.39264 223.56137 225.29889 229.11761 232.93637"
       y="288.45126"
       id="tspan298">Sign-</tspan><tspan
       x="217.13531 220.61005 224.08478 226.16574 229.64047 233.45895"
       y="295.95126"
       id="tspan300">extend</tspan></text>
<path
     id="path302"
     style="fill:none;stroke:#000000;stroke-width:0.625;stroke-linecap:butt;stroke-linejoin:miter;stroke-miterlimit:4;stroke-dasharray:none;stroke-opacity:1"
     d="m 306.41512,238.88625 c 0,6.05375 -4.45625,10.96 -9.94375,10.96 -5.49625,0 -9.95125,-4.90625 -9.95125,-10.96 l 0,-28.01625 c 0,-6.05625 4.455,-10.965 9.95125,-10.965 5.4875,0 9.94375,4.90875 9.94375,10.965 l 0,28.01625 z"
     inkscape:connector-curvature="0" /><path
     id="path304"
     style="fill:none;stroke:#000000;stroke-width:0.9375;stroke-linecap:butt;stroke-linejoin:miter;stroke-miterlimit:4;stroke-dasharray:none;stroke-opacity:1"
     d="m 250.47512,207.20125 31.8575,0.01"
     inkscape:connector-curvature="0" /><path
     id="path306"
     style="fill:#231f20;fill-opacity:1;fill-rule:nonzero;stroke:none"
     d="m 283.99262,206.49125 c -1.1625,-0.35125 -1.91875,-0.675 -2.84875,-1.05 l -0.002,3.5475 c 0.33375,-0.15875 1.68875,-0.69875 2.85125,-1.04875 1.2425,-0.37375 2.37375,-0.63125 3.10375,-0.72375 -0.73,-0.0913 -1.86125,-0.34875 -3.10375,-0.725"
     inkscape:connector-curvature="0" /><path
     id="path308"
     style="fill:none;stroke:#000000;stroke-width:0.9375;stroke-linecap:butt;stroke-linejoin:miter;stroke-miterlimit:4;stroke-dasharray:none;stroke-opacity:1"
     d="m 275.45512,237.93875 6.29875,0"
     inkscape:connector-curvature="0" /><path
     id="path310"
     style="fill:#231f20;fill-opacity:1;fill-rule:nonzero;stroke:none"
     d="m 283.41387,237.21875 c -1.16125,-0.35125 -1.91625,-0.675 -2.84875,-1.05 l 0,3.5475 c 0.335,-0.15875 1.6875,-0.69875 2.84875,-1.04875 1.245,-0.375 2.37375,-0.6325 3.10625,-0.725 -0.7325,-0.0913 -1.86125,-0.34875 -3.10625,-0.72375"
     inkscape:connector-curvature="0" /><path
     id="path312"
     style="fill:none;stroke:#000000;stroke-width:0.625;stroke-linecap:butt;stroke-linejoin:miter;stroke-miterlimit:4;stroke-dasharray:none;stroke-opacity:1"
     d="m 354.29762,184.10875 31.00125,0"
     inkscape:connector-curvature="0" /><path
     id="path314"
     style="fill:#231f20;fill-opacity:1;fill-rule:nonzero;stroke:none"
     d="m 386.92262,183.40375 c -1.1375,-0.34375 -1.875,-0.66 -2.78875,-1.025 l 0,3.4675 c 0.3275,-0.155 1.65125,-0.6825 2.78875,-1.025 1.21625,-0.36875 2.31875,-0.62 3.035,-0.71 -0.71625,-0.0887 -1.81875,-0.33875 -3.035,-0.7075"
     inkscape:connector-curvature="0" /><path
     id="path316"
     style="fill:none;stroke:#000000;stroke-width:0.9375;stroke-linecap:butt;stroke-linejoin:miter;stroke-miterlimit:4;stroke-dasharray:none;stroke-opacity:1"
     d="m 269.41012,206.9125 0,46.9925 122.385,0"
     inkscape:connector-curvature="0" /><path
     id="path318"
     style="fill:#231f20;fill-opacity:1;fill-rule:nonzero;stroke:none"
     d="m 393.45512,253.185 c -1.16125,-0.35 -1.91875,-0.67375 -2.85125,-1.05 l 0,3.5475 c 0.335,-0.15875 1.69,-0.6975 2.85125,-1.04875 1.24625,-0.375 2.37375,-0.6325 3.10375,-0.725 -0.73,-0.09 -1.8575,-0.3475 -3.10375,-0.72375"
     inkscape:connector-curvature="0" /><path
     id="path320"
     style="fill:none;stroke:#000000;stroke-width:0.9375;stroke-linecap:butt;stroke-linejoin:miter;stroke-miterlimit:4;stroke-dasharray:none;stroke-opacity:1"
     d="m 80.2925,182.275 12.742125,0"
     inkscape:connector-curvature="0" /><path
     id="path322"
     style="fill:#231f20;fill-opacity:1;fill-rule:nonzero;stroke:none"
     d="m 94.695371,181.555 c -1.16263,-0.3525 -1.918496,-0.675 -2.851116,-1.05 l 0,3.5475 c 0.334,-0.15875 1.688496,-0.69875 2.851116,-1.04875 1.244119,-0.37625 2.372499,-0.63375 3.103499,-0.725 -0.731,-0.0925 -1.85938,-0.35 -3.103499,-0.72375"
     inkscape:connector-curvature="0" /><path
     id="path324"
     style="fill:none;stroke:#000000;stroke-width:0.9375;stroke-linecap:butt;stroke-linejoin:miter;stroke-miterlimit:4;stroke-dasharray:none;stroke-opacity:1"
     d="m 141.63762,99.23625 152.3875,0 m -146.435,106.5375 12.5475,0"
     inkscape:connector-curvature="0" /><path
     id="path326"
     style="fill:#231f20;fill-opacity:1;fill-rule:nonzero;stroke:none"
     d="m 295.68512,98.51625 c -1.1625,-0.35125 -1.91875,-0.675 -2.8525,-1.05 l 0,3.5475 c 0.335,-0.15875 1.69,-0.6975 2.8525,-1.0475 1.245,-0.37625 2.3725,-0.635 3.1025,-0.72625 -0.73,-0.0913 -1.8575,-0.3475 -3.1025,-0.72375"
     inkscape:connector-curvature="0" /><path
     id="path328"
     style="fill:none;stroke:#000000;stroke-width:0.9375;stroke-linecap:butt;stroke-linejoin:miter;stroke-miterlimit:4;stroke-dasharray:none;stroke-opacity:1"
     d="m 147.36387,98.78125 0,-41.97625 -120.907745,0 0,108.58875 7.138125,0"
     inkscape:connector-curvature="0" /><path
     id="path330"
     style="fill:#231f20;fill-opacity:1;fill-rule:nonzero;stroke:none"
     d="m 35.254875,164.67375 c -1.162625,-0.35125 -1.918,-0.675 -2.850625,-1.04875 l 0,3.54625 c 0.3335,-0.15875 1.688,-0.6975 2.850625,-1.04875 1.244125,-0.375 2.372625,-0.6325 3.104,-0.725 -0.731375,-0.0913 -1.859875,-0.34875 -3.104,-0.72375"
     inkscape:connector-curvature="0" /><path
     id="path332"
     style="fill:none;stroke:#000000;stroke-width:0.625;stroke-linecap:butt;stroke-linejoin:miter;stroke-miterlimit:4;stroke-dasharray:none;stroke-opacity:1"
     d="m 91.699745,114.98375 5.783625,0"
     inkscape:connector-curvature="0" /><path
     id="path334"
     style="fill:#231f20;fill-opacity:1;fill-rule:nonzero;stroke:none"
     d="m 99.10699,114.27875 c -1.13625,-0.34375 -1.8755,-0.66 -2.78662,-1.02625 l 0,3.46875 c 0.32563,-0.155 1.65037,-0.6825 2.78662,-1.025 1.21726,-0.3675 2.31975,-0.62 3.03513,-0.70875 -0.71538,-0.09 -1.81788,-0.34125 -3.03513,-0.70875"
     inkscape:connector-curvature="0" /><path
     id="path336"
     style="fill:none;stroke:#000000;stroke-width:0.9375;stroke-linecap:butt;stroke-linejoin:miter;stroke-miterlimit:4;stroke-dasharray:none;stroke-opacity:1"
     d="m 85.883255,181.8175 0,-98.2075 11.494745,0"
     inkscape:connector-curvature="0" /><path
     id="path338"
     style="fill:#231f20;fill-opacity:1;fill-rule:nonzero;stroke:none"
     d="m 99.03862,82.88875 c -1.16263,-0.35 -1.918,-0.67375 -2.85062,-1.0475 l 0,3.54625 c 0.3335,-0.15875 1.688,-0.69875 2.85062,-1.04875 1.24412,-0.37625 2.3725,-0.63375 3.1035,-0.725 -0.731,-0.0913 -1.85938,-0.34875 -3.1035,-0.725"
     inkscape:connector-curvature="0" /><path
     id="path340"
     style="fill:none;stroke:#000000;stroke-width:0.625;stroke-linecap:butt;stroke-linejoin:miter;stroke-miterlimit:4;stroke-dasharray:none;stroke-opacity:1"
     d="m 197.43762,288.23875 5.1325,8.55625 m 43.4575,-8.89875 5.1325,8.5575"
     inkscape:connector-curvature="0" /><text
     style="font-variant:normal;font-weight:normal;font-size:6.25px;font-family:Helvetica;-inkscape-font-specification:Helvetica;writing-mode:lr-tb;fill:#000000;fill-opacity:1;fill-rule:nonzero;stroke:none"
     id="text344"
     x="291.28137"
     y="209.67"><tspan
       x="291.28137"
       y="209.67"
       id="tspan346">0</tspan></text>
<text
     style="font-variant:normal;font-weight:bold;font-size:6.25px;font-family:Helvetica;-inkscape-font-specification:Helvetica-Bold;writing-mode:lr-tb;fill:#000000;fill-opacity:1;fill-rule:nonzero;stroke:none"
     id="text348"
     x="296.44788"
     y="217.52254"><tspan
       x="296.44788"
       y="217.52254"
       id="tspan350">M</tspan><tspan
       x="297.14172"
       y="225.98494"
       id="tspan352">u</tspan><tspan
       x="297.31409"
       y="234.45125"
       id="tspan354">x</tspan></text>
<text
     style="font-variant:normal;font-weight:normal;font-size:6.25px;font-family:Helvetica;-inkscape-font-specification:Helvetica;writing-mode:lr-tb;fill:#000000;fill-opacity:1;fill-rule:nonzero;stroke:none"
     id="text356"
     x="291.28137"
     y="240.39607"><tspan
       x="291.28137"
       y="240.39607"
       id="tspan358">1</tspan><tspan
       x="243.95523 247.42996"
       y="284.16119"
       id="tspan360">32</tspan></text>
<path
     id="path370"
     style="fill:none;stroke:#00adef;stroke-width:0.9375;stroke-linecap:butt;stroke-linejoin:miter;stroke-miterlimit:4;stroke-dasharray:none;stroke-opacity:1"
     d="m 338.09137,117.19625 81.65375,0 0,-64.4975 -414.27637,0 0,135.05125 27.434625,0"
     inkscape:connector-curvature="0" /><path
     id="path372"
     style="fill:#00adef;fill-opacity:1;fill-rule:nonzero;stroke:none"
     d="m 34.564,187.02875 c -1.162625,-0.35125 -1.918,-0.675 -2.850625,-1.04875 l 0,3.54625 c 0.3335,-0.1575 1.688,-0.6975 2.850625,-1.0475 1.244125,-0.37625 2.3725,-0.63375 3.104,-0.725 -0.7315,-0.0925 -1.859875,-0.35 -3.104,-0.725"
     inkscape:connector-curvature="0" /><path
     id="path374"
     style="fill:#231f20;fill-opacity:1;fill-rule:nonzero;stroke:none"
     d="m 145.20762,99.05375 c 0,1.20875 0.98,2.1875 2.1875,2.1875 1.2075,0 2.1875,-0.97875 2.1875,-2.1875 0,-1.2075 -0.98,-2.1875 -2.1875,-2.1875 -1.2075,0 -2.1875,0.98 -2.1875,2.1875"
     inkscape:connector-curvature="0" /><path
     id="path376"
     style="fill:#231f20;fill-opacity:1;fill-rule:nonzero;stroke:none"
     d="m 83.7085,181.99875 c 0,1.20875 0.979505,2.1875 2.187505,2.1875 1.2085,0 2.1875,-0.97875 2.1875,-2.1875 0,-1.2075 -0.979,-2.1875 -2.1875,-2.1875 -1.208,0 -2.187505,0.98 -2.187505,2.1875"
     inkscape:connector-curvature="0" /><path
     id="path378"
     style="fill:#231f20;fill-opacity:1;fill-rule:nonzero;stroke:none"
     d="m 157.84887,192.89375 c 0,1.20875 0.98,2.1875 2.1875,2.1875 1.20875,0 2.1875,-0.97875 2.1875,-2.1875 0,-1.20875 -0.97875,-2.1875 -2.1875,-2.1875 -1.2075,0 -2.1875,0.97875 -2.1875,2.1875"
     inkscape:connector-curvature="0" /><path
     id="path380"
     style="fill:#231f20;fill-opacity:1;fill-rule:nonzero;stroke:none"
     d="m 157.84887,205.96875 c 0,1.2075 0.98,2.1875 2.1875,2.1875 1.20875,0 2.1875,-0.98 2.1875,-2.1875 0,-1.20875 -0.97875,-2.1875 -2.1875,-2.1875 -1.2075,0 -2.1875,0.97875 -2.1875,2.1875"
     inkscape:connector-curvature="0" /><path
     id="path382"
     style="fill:#231f20;fill-opacity:1;fill-rule:nonzero;stroke:none"
     d="m 267.34887,207.2675 c 0,1.2075 0.98,2.1875 2.18875,2.1875 1.20625,0 2.1875,-0.98 2.1875,-2.1875 0,-1.2075 -0.98125,-2.1875 -2.1875,-2.1875 -1.20875,0 -2.18875,0.98 -2.18875,2.1875"
     inkscape:connector-curvature="0" /><path
     id="path384"
     style="fill:#231f20;fill-opacity:1;fill-rule:nonzero;stroke:none"
     d="m 273.33887,237.9075 c 0,1.2075 0.97875,2.1875 2.1875,2.1875 1.20875,0 2.1875,-0.98 2.1875,-2.1875 0,-1.2075 -0.97875,-2.1875 -2.1875,-2.1875 -1.20875,0 -2.1875,0.98 -2.1875,2.1875"
     inkscape:connector-curvature="0" /><path
     id="path386"
     style="fill:#231f20;fill-opacity:1;fill-rule:nonzero;stroke:none"
     d="m 157.84887,221.4225 c 0,1.2075 0.98,2.1875 2.1875,2.1875 1.20875,0 2.1875,-0.98 2.1875,-2.1875 0,-1.21 -0.97875,-2.1875 -2.1875,-2.1875 -1.2075,0 -2.1875,0.9775 -2.1875,2.1875"
     inkscape:connector-curvature="0" /><path
     id="path388"
     style="fill:none;stroke:#000000;stroke-width:0.9375;stroke-linecap:butt;stroke-linejoin:miter;stroke-miterlimit:4;stroke-dasharray:none;stroke-opacity:1"
     d="m 306.33887,221.93875 4.12625,0"
     inkscape:connector-curvature="0" /><path
     id="path390"
     style="fill:#231f20;fill-opacity:1;fill-rule:nonzero;stroke:none"
     d="m 312.12512,221.21875 c -1.1625,-0.3525 -1.91625,-0.67625 -2.84875,-1.05 l 0,3.5475 c 0.33375,-0.15875 1.68625,-0.7 2.84875,-1.04875 1.245,-0.3775 2.3725,-0.635 3.105,-0.725 -0.7325,-0.0925 -1.86,-0.35 -3.105,-0.72375"
     inkscape:connector-curvature="0" /><path
     id="path392"
     style="fill:#231f20;fill-opacity:1;fill-rule:nonzero;stroke:none"
     d="m 364.91512,199.765 c 0,1.2075 0.98,2.1875 2.1875,2.1875 1.20625,0 2.1875,-0.98 2.1875,-2.1875 0,-1.20875 -0.98125,-2.1875 -2.1875,-2.1875 -1.2075,0 -2.1875,0.97875 -2.1875,2.1875"
     inkscape:connector-curvature="0" /><text
     style="font-variant:normal;font-weight:normal;font-size:6.25px;font-family:Helvetica;-inkscape-font-specification:Helvetica;writing-mode:lr-tb;fill:#000000;fill-opacity:1;fill-rule:nonzero;stroke:none"
     id="text402"
     x="192.32782"
     y="284.0575"><tspan
       x="192.32782 195.80145"
       y="284.0575"
       id="tspan404">16</tspan></text>
<text
     xml:space="preserve"
     style="font-style:normal;font-variant:normal;font-weight:normal;font-stretch:normal;font-size:10px;line-height:125%;font-family:Helvetica;-inkscape-font-specification:'Helvetica, Normal';text-align:center;letter-spacing:0px;word-spacing:0px;writing-mode:lr-tb;text-anchor:middle;fill:#000000;fill-opacity:1;stroke:none;stroke-width:1px;stroke-linecap:butt;stroke-linejoin:miter;stroke-opacity:1"
     x="96.740868"
     y="21.431307"
     id="text4829"
     sodipodi:linespacing="125%"><tspan
       sodipodi:role="line"
       id="tspan4890"
       x="96.740868"
       y="21.431307">Instruction Fetch:</tspan><tspan
       sodipodi:role="line"
       id="tspan4892"
       x="96.740868"
       y="33.931305">IF</tspan></text>
<text
     sodipodi:linespacing="125%"
     id="text4846"
     y="21.431307"
     x="204.74088"
     style="font-style:normal;font-variant:normal;font-weight:normal;font-stretch:normal;font-size:10px;line-height:125%;font-family:Helvetica;-inkscape-font-specification:'Helvetica, Normal';text-align:center;letter-spacing:0px;word-spacing:0px;writing-mode:lr-tb;text-anchor:middle;fill:#000000;fill-opacity:1;stroke:none;stroke-width:1px;stroke-linecap:butt;stroke-linejoin:miter;stroke-opacity:1"
     xml:space="preserve"><tspan
       sodipodi:role="line"
       id="tspan4884"
       x="206.12759"
       y="21.431307">Instruction Decode / </tspan><tspan
       sodipodi:role="line"
       id="tspan4886"
       x="204.74088"
       y="33.931305">Register Read:</tspan><tspan
       sodipodi:role="line"
       id="tspan4888"
       x="204.74088"
       y="46.431305">ID</tspan></text>
<text
     xml:space="preserve"
     style="font-style:normal;font-variant:normal;font-weight:normal;font-stretch:normal;font-size:10px;line-height:125%;font-family:Helvetica;-inkscape-font-specification:'Helvetica, Normal';text-align:center;letter-spacing:0px;word-spacing:0px;writing-mode:lr-tb;text-anchor:middle;fill:#000000;fill-opacity:1;stroke:none;stroke-width:1px;stroke-linecap:butt;stroke-linejoin:miter;stroke-opacity:1"
     x="310.74088"
     y="21.431307"
     id="text4852"
     sodipodi:linespacing="125%"><tspan
       sodipodi:role="line"
       id="tspan4878"
       x="312.12759"
       y="21.431307">Execute / </tspan><tspan
       sodipodi:role="line"
       id="tspan4880"
       x="310.74088"
       y="33.931305">Address Calculation:</tspan><tspan
       sodipodi:role="line"
       id="tspan4882"
       x="310.74088"
       y="46.431305">EX</tspan></text>
<text
     sodipodi:linespacing="125%"
     id="text4858"
     y="21.431307"
     x="412.74088"
     style="font-style:normal;font-variant:normal;font-weight:normal;font-stretch:normal;font-size:10px;line-height:125%;font-family:Helvetica;-inkscape-font-specification:'Helvetica, Normal';text-align:center;letter-spacing:0px;word-spacing:0px;writing-mode:lr-tb;text-anchor:middle;fill:#000000;fill-opacity:1;stroke:none;stroke-width:1px;stroke-linecap:butt;stroke-linejoin:miter;stroke-opacity:1"
     xml:space="preserve"><tspan
       sodipodi:role="line"
       id="tspan4874"
       x="412.74088"
       y="21.431307">Memory Access:</tspan><tspan
       sodipodi:role="line"
       id="tspan4876"
       x="412.74088"
       y="33.931305">MEM</tspan></text>
<text
     xml:space="preserve"
     style="font-style:normal;font-variant:normal;font-weight:normal;font-stretch:normal;font-size:10px;line-height:125%;font-family:Helvetica;-inkscape-font-specification:'Helvetica, Normal';text-align:center;letter-spacing:0px;word-spacing:0px;writing-mode:lr-tb;text-anchor:middle;fill:#000000;fill-opacity:1;stroke:none;stroke-width:1px;stroke-linecap:butt;stroke-linejoin:miter;stroke-opacity:1"
     x="514.74091"
     y="21.431307"
     id="text4864"
     sodipodi:linespacing="125%"><tspan
       sodipodi:role="line"
       id="tspan4870"
       x="514.74091"
       y="21.431307">Write Back:</tspan><tspan
       sodipodi:role="line"
       id="tspan4872"
       x="514.74091"
       y="33.931305">WB</tspan></text>
<text
     xml:space="preserve"
     style="font-style:normal;font-weight:normal;font-size:10px;line-height:125%;font-family:sans-serif;text-align:start;letter-spacing:0px;word-spacing:0px;writing-mode:lr-tb;text-anchor:start;opacity:0.93999999;fill:#000000;fill-opacity:1;stroke:none;stroke-width:1px;stroke-linecap:butt;stroke-linejoin:miter;stroke-opacity:1"
     x="12.840118"
     y="297.59671"
     id="text4894"
     sodipodi:linespacing="125%"><tspan
       sodipodi:role="line"
       id="tspan4304"
       x="12.840118"
       y="297.59671"
       style="font-size:7.5px">COD 4Ed, Copyright © 2009 </tspan><tspan
       sodipodi:role="line"
       x="12.840118"
       y="306.97171"
       style="font-size:7.5px"
       id="tspan4308">Elsevier, Inc. All rights reserved.</tspan><tspan
       sodipodi:role="line"
       id="tspan4306"
       x="12.840118"
       y="316.34671" /></text>
<g
     id="g4637"
     transform="translate(-5,-15)"><g
       id="g4443"><g
         id="g4419"><g
           id="g4396"><text
             transform="scale(0.99871824,1.0012834)"
             y="391.71518"
             x="409.06796"
             id="text4346"
             style="font-style:normal;font-variant:normal;font-weight:normal;font-stretch:normal;font-size:12.16612434px;line-height:125%;font-family:Helvetica;-inkscape-font-specification:'Helvetica, Normal';text-align:start;writing-mode:lr-tb;text-anchor:start;fill:#000000;fill-opacity:1;fill-rule:nonzero;stroke:none"
             sodipodi:linespacing="125%"><tspan
               style="font-size:10px"
               sodipodi:role="line"
               id="tspan4354"
               x="409.06796"
               y="391.71518">MEM</tspan></text>
<rect
             style="opacity:1;fill:none;fill-opacity:1;fill-rule:nonzero;stroke:#000000;stroke-width:1;stroke-linecap:butt;stroke-linejoin:miter;stroke-miterlimit:4;stroke-dasharray:none;stroke-dashoffset:0;stroke-opacity:1"
             id="rect4352"
             width="32.600616"
             height="32.600616"
             x="403.91812"
             y="372.26791" /><text
             sodipodi:linespacing="125%"
             style="font-style:normal;font-variant:normal;font-weight:normal;font-stretch:normal;font-size:12.16612434px;line-height:125%;font-family:Helvetica;-inkscape-font-specification:'Helvetica, Normal';text-align:start;writing-mode:lr-tb;text-anchor:start;fill:#000000;fill-opacity:1;fill-rule:nonzero;stroke:none"
             id="text4371"
             x="107.58073"
             y="391.71521"
             transform="scale(0.99871824,1.0012834)"><tspan
               style="font-size:10px"
               id="tspan4373"
               sodipodi:role="line"
               x="107.58073"
               y="391.71521">IF</tspan></text>
<text
             transform="scale(0.99871824,1.0012834)"
             y="391.2543"
             x="313.23953"
             id="text4375"
             style="font-style:normal;font-variant:normal;font-weight:normal;font-stretch:normal;font-size:12.16612434px;line-height:125%;font-family:Helvetica;-inkscape-font-specification:'Helvetica, Normal';text-align:start;writing-mode:lr-tb;text-anchor:start;fill:#000000;fill-opacity:1;fill-rule:nonzero;stroke:none"
             sodipodi:linespacing="125%"><tspan
               style="font-size:10px"
               sodipodi:role="line"
               x="313.23953"
               y="391.2543"
               id="tspan4379">EX</tspan></text>
<path
             id="path22"
             style="fill:none;stroke:#000000;stroke-width:1;stroke-linecap:round;stroke-linejoin:round;stroke-miterlimit:10;stroke-dasharray:none;stroke-opacity:1"
             d="m 300.60387,415.65957 27.64558,-14.79965 0,-25.43466 -27.64558,-14.87845 0,21.93098 11.12077,5.60726 -11.04247,5.44749 -0.0783,22.12703"
             inkscape:connector-curvature="0"
             sodipodi:nodetypes="cccccccc" /><path
             id="path32-0"
             style="fill:none;stroke:#000000;stroke-width:1;stroke-linecap:butt;stroke-linejoin:miter;stroke-miterlimit:10;stroke-dasharray:none;stroke-opacity:1"
             d="m 228.64924,377.59475 71.88897,0"
             inkscape:connector-curvature="0"
             sodipodi:nodetypes="cc" /><text
             sodipodi:linespacing="125%"
             style="font-style:normal;font-variant:normal;font-weight:normal;font-stretch:normal;font-size:12.16612434px;line-height:125%;font-family:Helvetica;-inkscape-font-specification:'Helvetica, Normal';text-align:start;writing-mode:lr-tb;text-anchor:start;fill:#000000;fill-opacity:1;fill-rule:nonzero;stroke:none"
             id="text4518"
             x="207.26906"
             y="391.71521"
             transform="scale(0.99871824,1.0012834)"><tspan
               style="font-size:10px"
               y="391.71521"
               x="207.26906"
               id="tspan4520"
               sodipodi:role="line">ID</tspan></text>
<rect
             y="372.26794"
             x="195.91811"
             height="32.600616"
             width="32.600616"
             id="rect4522"
             style="opacity:1;fill:none;fill-opacity:1;fill-rule:nonzero;stroke:#000000;stroke-width:1;stroke-linecap:butt;stroke-linejoin:miter;stroke-miterlimit:4;stroke-dasharray:none;stroke-dashoffset:0;stroke-opacity:1" /><rect
             style="opacity:1;fill:none;fill-opacity:1;fill-rule:nonzero;stroke:#000000;stroke-width:1;stroke-linecap:butt;stroke-linejoin:miter;stroke-miterlimit:4;stroke-dasharray:none;stroke-dashoffset:0;stroke-opacity:1"
             id="rect4530"
             width="32.600616"
             height="32.600616"
             x="95.918114"
             y="372.26794" /><text
             sodipodi:linespacing="125%"
             style="font-style:normal;font-variant:normal;font-weight:normal;font-stretch:normal;font-size:12.16612434px;line-height:125%;font-family:Helvetica;-inkscape-font-specification:'Helvetica, Normal';text-align:start;writing-mode:lr-tb;text-anchor:start;fill:#000000;fill-opacity:1;fill-rule:nonzero;stroke:none"
             id="text4540"
             x="500.92889"
             y="391.71518"
             transform="scale(0.99871824,1.0012834)"><tspan
               style="font-size:10px"
               y="391.71518"
               x="500.92889"
               id="tspan4542"
               sodipodi:role="line">WB</tspan></text>
<rect
             y="372.26791"
             x="491.91812"
             height="32.600616"
             width="32.600616"
             id="rect4544"
             style="opacity:1;fill:none;fill-opacity:1;fill-rule:nonzero;stroke:#000000;stroke-width:1;stroke-linecap:butt;stroke-linejoin:miter;stroke-miterlimit:4;stroke-dasharray:none;stroke-dashoffset:0;stroke-opacity:1" /><path
             sodipodi:nodetypes="cc"
             inkscape:connector-curvature="0"
             d="m 228.64924,399.53597 71.88897,0"
             style="fill:none;stroke:#000000;stroke-width:1;stroke-linecap:butt;stroke-linejoin:miter;stroke-miterlimit:10;stroke-dasharray:none;stroke-opacity:1"
             id="path4549" /><path
             sodipodi:nodetypes="cc"
             inkscape:connector-curvature="0"
             d="m 128.64924,388.56893 67.30116,0"
             style="fill:none;stroke:#000000;stroke-width:1;stroke-linecap:butt;stroke-linejoin:miter;stroke-miterlimit:10;stroke-dasharray:none;stroke-opacity:1"
             id="path4551" /><path
             id="path4555"
             style="fill:none;stroke:#000000;stroke-width:1;stroke-linecap:butt;stroke-linejoin:miter;stroke-miterlimit:10;stroke-dasharray:none;stroke-opacity:1"
             d="m 328.26403,388.56893 75.68637,0"
             inkscape:connector-curvature="0"
             sodipodi:nodetypes="cc" /><path
             sodipodi:nodetypes="cc"
             inkscape:connector-curvature="0"
             d="m 436.37409,388.56893 55.57631,0"
             style="fill:none;stroke:#000000;stroke-width:1;stroke-linecap:butt;stroke-linejoin:miter;stroke-miterlimit:10;stroke-dasharray:none;stroke-opacity:1"
             id="path4557" /><path
             style="opacity:1;fill:none;fill-opacity:1;fill-rule:nonzero;stroke:#000000;stroke-width:1;stroke-linecap:butt;stroke-linejoin:miter;stroke-miterlimit:4;stroke-dasharray:none;stroke-dashoffset:0;stroke-opacity:1"
             d="m 191.68816,388.17255 0,-4.22133 3.87905,0"
             id="rect4559"
             inkscape:connector-curvature="0"
             sodipodi:nodetypes="ccc" /></g></g></g></g></svg>