<?xml version="1.0" encoding="UTF-8" standalone="no"?>
<svg
   xmlns:dc="http://purl.org/dc/elements/1.1/"
   xmlns:cc="http://creativecommons.org/ns#"
   xmlns:rdf="http://www.w3.org/1999/02/22-rdf-syntax-ns#"
   xmlns:svg="http://www.w3.org/2000/svg"
   xmlns="http://www.w3.org/2000/svg"
   xmlns:sodipodi="http://sodipodi.sourceforge.net/DTD/sodipodi-0.dtd"
   xmlns:inkscape="http://www.inkscape.org/namespaces/inkscape"
   viewBox="0 0 553.12641 306.34768"
   height="306.34769"
   width="553.1264"
   xml:space="preserve"
   version="1.1"
   id="svg2"
   inkscape:version="0.91 r13725"
   sodipodi:docname="pipelineVerificacaoSW-4.svg"><sodipodi:namedview
     pagecolor="#ffffff"
     bordercolor="#666666"
     borderopacity="1"
     objecttolerance="10"
     gridtolerance="10"
     guidetolerance="10"
     inkscape:pageopacity="0"
     inkscape:pageshadow="2"
     inkscape:window-width="1855"
     inkscape:window-height="1056"
     id="namedview355"
     showgrid="false"
     fit-margin-left="8"
     fit-margin-bottom="8"
     fit-margin-top="8"
     fit-margin-right="8"
     inkscape:showpageshadow="false"
     inkscape:zoom="1.4206828"
     inkscape:cx="276.83069"
     inkscape:cy="134.95123"
     inkscape:window-x="1985"
     inkscape:window-y="24"
     inkscape:window-maximized="1"
     inkscape:current-layer="svg2"
     showguides="true"
     inkscape:guide-bbox="true" /><metadata
     id="metadata8"><rdf:RDF><cc:Work
         rdf:about=""><dc:format>image/svg+xml</dc:format><dc:type
           rdf:resource="http://purl.org/dc/dcmitype/StillImage" /><dc:title></dc:title></cc:Work></rdf:RDF></metadata><defs
     id="defs6"><clipPath
       id="clipPath56"
       clipPathUnits="userSpaceOnUse"><path
         id="path58"
         d="m 99,503 0,4894 4302,0 0,-4894 -4302,0 z"
         inkscape:connector-curvature="0" /></clipPath><clipPath
       id="clipPath76"
       clipPathUnits="userSpaceOnUse"><path
         id="path78"
         d="m 99,503 0,4894 4302,0 0,-4894 -4302,0 z"
         inkscape:connector-curvature="0" /></clipPath><clipPath
       id="clipPath212"
       clipPathUnits="userSpaceOnUse"><path
         id="path214"
         d="m 99,503 0,4894 4302,0 0,-4894 -4302,0 z"
         inkscape:connector-curvature="0" /></clipPath><clipPath
       id="clipPath244"
       clipPathUnits="userSpaceOnUse"><path
         id="path246"
         d="m 99,503 0,4894 4302,0 0,-4894 -4302,0 z"
         inkscape:connector-curvature="0" /></clipPath><clipPath
       id="clipPath374"
       clipPathUnits="userSpaceOnUse"><path
         id="path376"
         d="m 99,503 0,4894 4302,0 0,-4894 -4302,0 z"
         inkscape:connector-curvature="0" /></clipPath></defs><path
     id="path32"
     style="fill:none;stroke:#231f20;stroke-width:0.625;stroke-linecap:butt;stroke-linejoin:miter;stroke-miterlimit:4;stroke-dasharray:none;stroke-opacity:1"
     d="m 403.03388,27.8975 0,-17.865 m 100.4375,17.865 0,-17.865 m -100.4375,8.9325 100.4375,0"
     inkscape:connector-curvature="0" /><text
     style="font-variant:normal;font-weight:normal;font-size:7.5px;font-family:Helvetica;-inkscape-font-specification:Helvetica;writing-mode:lr-tb;fill:#00adef;fill-opacity:1;fill-rule:nonzero;stroke:none"
     id="text36"
     x="439.70889"
     y="31.357498"><tspan
       x="439.70889 445.95639 450.1264 456.3739 460.54388 463.04138"
       y="31.357498"
       id="tspan38">Memory</tspan></text>
<text
     style="font-variant:normal;font-weight:normal;font-size:7.5px;font-family:Helvetica;-inkscape-font-specification:Helvetica;writing-mode:lr-tb;fill:#231f20;fill-opacity:1;fill-rule:nonzero;stroke:none"
     id="text42"
     x="448.66763"
     y="12.0425"><tspan
       x="448.66763 452.41763"
       y="12.0425"
       id="tspan44">sw</tspan></text>
<path
     id="path68"
     style="fill:#a6e2f9;fill-opacity:1;fill-rule:nonzero;stroke:none"
     d="m 400.91762,265.1075 7.01904,0 0,-210.9325 -7.01904,0 0,210.9325 z"
     inkscape:connector-curvature="0" /><path
     id="path70"
     style="fill:#a6e2f9;fill-opacity:1;fill-rule:nonzero;stroke:none"
     d="m 424.70137,219.7825 31.375,0 0,-63.9575 -31.375,0 0,63.9575 z"
     inkscape:connector-curvature="0" /><path
     id="path80"
     style="fill:none;stroke:#231f20;stroke-width:0.625;stroke-linecap:butt;stroke-linejoin:miter;stroke-miterlimit:4;stroke-dasharray:none;stroke-opacity:1"
     d="m 175.61137,265.1075 -14.03999,0 0,-210.93125 14.03999,0 0,210.93125 z m 121.34375,0 -14.04,0 0,-210.93125 14.04,0 0,210.93125 z m 110.98125,0 -14.04,0 0,-210.9325 14.04,0 0,210.9325 z m 103.29375,0 -14.04,0 0,-210.9325 14.04,0 0,210.9325 z m -453.68512,-108.2 -12.536625,0 0,-29.58375 12.536625,0 0,29.58375 z M 261.64762,231.93 c 0,10.55625 -5.44375,19.11125 -12.16,19.11125 -6.7175,0 -12.16124,-8.555 -12.16124,-19.11125 0,-10.55125 5.44374,-19.10875 12.16124,-19.10875 6.71625,0 12.16,8.5575 12.16,19.10875 z m 56.06,-124.9375 c 0,8.76875 -4.20249,15.87625 -9.38749,15.87625 -5.18375,0 -9.385,-7.1075 -9.385,-15.87625 0,-8.76875 4.20125,-15.8775 9.385,-15.8775 5.185,0 9.38749,7.10875 9.38749,15.8775 z m 27.03125,34.8175 32.83126,15.40625 0,18.4625 -32.61501,13.00375 0,-19.095 3.12125,-4.5575 -3.3375,-4.5575 0,-18.6625 z m -11.16,-64.81875 27.4025,12.86 0,15.4075 -27.2225,10.855 0,-15.94 2.6075,-3.80375 -2.7875,-3.8025 0,-15.57625 z m 153.8675,142.79125 -62.745,0 0,-63.9575 62.745,0 0,63.9575 z m -349.90375,-18.61875 -62.744245,0 0,-63.955 62.744245,0 0,63.955 z m 124.5775,-0.18 -62.7425,0 0,-63.9575 62.7425,0 0,63.9575 z M 101.23975,63.43 l 21.38663,12.85875 0,13.4025 -21.2045,12.86 0,-15.93875 3.60937,-3.8025 -3.7915,-3.80375 0,-15.57625 z"
     inkscape:connector-curvature="0" /><path
     id="path82"
     style="fill:none;stroke:#231f20;stroke-width:0.9375;stroke-linecap:butt;stroke-linejoin:miter;stroke-miterlimit:4;stroke-dasharray:none;stroke-opacity:1"
     d="m 538.93262,183.7925 5.72501,0 0,93.6 -358.35001,0 0,-84.24 8.215,0"
     inkscape:connector-curvature="0" /><path
     id="path84"
     style="fill:#231f20;fill-opacity:1;fill-rule:nonzero;stroke:none"
     d="m 196.18387,192.4325 c -1.1625,-0.35125 -1.9175,-0.675 -2.84875,-1.05 l 0,3.5475 c 0.33251,-0.15875 1.68625,-0.6975 2.84875,-1.04875 1.245,-0.375 2.3725,-0.6325 3.105,-0.725 -0.7325,-0.0913 -1.86,-0.34875 -3.105,-0.72375"
     inkscape:connector-curvature="0" /><path
     id="path86"
     style="fill:none;stroke:#231f20;stroke-width:0.9375;stroke-linecap:butt;stroke-linejoin:miter;stroke-miterlimit:4;stroke-dasharray:none;stroke-opacity:1"
     d="m 487.16262,170.7575 6.01625,0"
     inkscape:connector-curvature="0" /><path
     id="path88"
     style="fill:#231f20;fill-opacity:1;fill-rule:nonzero;stroke:none"
     d="m 494.02512,170.0375 c -1.16375,-0.35125 -1.91874,-0.675 -2.85125,-1.05 l 0,3.5475 c 0.335,-0.15875 1.6875,-0.6975 2.85125,-1.04875 1.2425,-0.375 2.37125,-0.6325 3.10375,-0.725 -0.7325,-0.0913 -1.86125,-0.34875 -3.10375,-0.72375"
     inkscape:connector-curvature="0" /><path
     id="path90"
     style="fill:none;stroke:#231f20;stroke-width:0.9375;stroke-linecap:butt;stroke-linejoin:miter;stroke-miterlimit:4;stroke-dasharray:none;stroke-opacity:1"
     d="m 194.52262,144.6825 -11.26374,0 0,88.25125 49.17875,0"
     inkscape:connector-curvature="0" /><path
     id="path92"
     style="fill:#231f20;fill-opacity:1;fill-rule:nonzero;stroke:none"
     d="m 233.96512,232.2125 c -1.16375,-0.35125 -1.91999,-0.675 -2.8525,-1.04875 l 0,3.5475 c 0.33376,-0.15875 1.68875,-0.69875 2.8525,-1.04875 1.24375,-0.37625 2.37125,-0.63375 3.10125,-0.725 -0.73,-0.0925 -1.8575,-0.35 -3.10125,-0.725"
     inkscape:connector-curvature="0" /><path
     id="path94"
     style="fill:#231f20;fill-opacity:1;fill-rule:nonzero;stroke:none"
     d="m 196.18387,143.96125 c -1.1625,-0.35 -1.9175,-0.67375 -2.84875,-1.0475 l 0,3.54625 c 0.33251,-0.15875 1.68625,-0.69875 2.84875,-1.04875 1.245,-0.37625 2.3725,-0.63375 3.105,-0.725 -0.7325,-0.0913 -1.86,-0.34875 -3.105,-0.725"
     inkscape:connector-curvature="0" /><path
     id="path96"
     style="fill:#231f20;fill-opacity:1;fill-rule:nonzero;stroke:none"
     d="m 196.18387,160.34 c -1.1625,-0.35 -1.9175,-0.67375 -2.84875,-1.04625 l 0,3.545 c 0.33251,-0.15875 1.68625,-0.6975 2.84875,-1.0475 1.245,-0.37625 2.3725,-0.63375 3.105,-0.725 -0.7325,-0.0925 -1.86,-0.35 -3.105,-0.72625"
     inkscape:connector-curvature="0" /><path
     id="path98"
     style="fill:none;stroke:#231f20;stroke-width:0.9375;stroke-linecap:butt;stroke-linejoin:miter;stroke-miterlimit:4;stroke-dasharray:none;stroke-opacity:1"
     d="m 183.42387,161.0625 11.24251,0"
     inkscape:connector-curvature="0" /><path
     id="path100"
     style="fill:#231f20;fill-opacity:1;fill-rule:nonzero;stroke:none"
     d="m 196.18387,177.96625 c -1.1625,-0.35125 -1.9175,-0.675 -2.84875,-1.0475 l 0,3.54625 c 0.33251,-0.15875 1.68625,-0.69875 2.84875,-1.04875 1.245,-0.37625 2.3725,-0.63375 3.105,-0.725 -0.7325,-0.0925 -1.86,-0.35 -3.105,-0.725"
     inkscape:connector-curvature="0" /><path
     id="path102"
     style="fill:none;stroke:#231f20;stroke-width:0.9375;stroke-linecap:butt;stroke-linejoin:miter;stroke-miterlimit:4;stroke-dasharray:none;stroke-opacity:1"
     d="m 137.64012,169.1825 19.26626,0 m 26.51749,9.505 11.24251,0"
     inkscape:connector-curvature="0" /><path
     id="path104"
     style="fill:#231f20;fill-opacity:1;fill-rule:nonzero;stroke:none"
     d="m 158.23762,168.46125 c -1.16499,-0.35125 -1.91999,-0.675 -2.85249,-1.04875 l 0,3.5475 c 0.33375,-0.15875 1.6875,-0.69875 2.85249,-1.04875 1.24251,-0.37625 2.37001,-0.63375 3.10125,-0.725 -0.73124,-0.0925 -1.85874,-0.35 -3.10125,-0.725"
     inkscape:connector-curvature="0" /><path
     id="path106"
     style="fill:#231f20;fill-opacity:1;fill-rule:nonzero;stroke:none"
     d="m 158.23762,82.4375 c -1.16499,-0.3525 -1.91999,-0.675 -2.85249,-1.05 l 0,3.5475 c 0.33375,-0.15875 1.6875,-0.69875 2.85249,-1.04875 1.24251,-0.37625 2.37001,-0.63375 3.10125,-0.72625 -0.73124,-0.09125 -1.85874,-0.3475 -3.10125,-0.7225"
     inkscape:connector-curvature="0" /><path
     id="path108"
     style="fill:none;stroke:#231f20;stroke-width:0.625;stroke-linecap:butt;stroke-linejoin:miter;stroke-miterlimit:4;stroke-dasharray:none;stroke-opacity:1"
     d="m 377.51888,159.1625 11.795,0"
     inkscape:connector-curvature="0" /><path
     id="path110"
     style="fill:none;stroke:#231f20;stroke-width:0.9375;stroke-linecap:butt;stroke-linejoin:miter;stroke-miterlimit:4;stroke-dasharray:none;stroke-opacity:1"
     d="m 377.51888,170.66125 12.03625,0"
     inkscape:connector-curvature="0" /><path
     id="path112"
     style="fill:#231f20;fill-opacity:1;fill-rule:nonzero;stroke:none"
     d="m 390.74637,169.94125 c -1.16125,-0.35125 -1.91625,-0.67375 -2.85125,-1.05 l 0,3.5475 c 0.335,-0.15875 1.69,-0.6975 2.85125,-1.04875 1.245,-0.37625 2.37375,-0.63375 3.10375,-0.725 -0.73,-0.0913 -1.85875,-0.34875 -3.10375,-0.72375"
     inkscape:connector-curvature="0" /><path
     id="path114"
     style="fill:#231f20;fill-opacity:1;fill-rule:nonzero;stroke:none"
     d="m 390.74637,158.42375 c -1.16125,-0.35125 -1.91625,-0.675 -2.85125,-1.05 l 0,3.5475 c 0.335,-0.15875 1.69,-0.6975 2.85125,-1.04875 1.245,-0.375 2.37375,-0.6325 3.10375,-0.725 -0.73,-0.0913 -1.85875,-0.34875 -3.10375,-0.72375"
     inkscape:connector-curvature="0" /><path
     id="path116"
     style="fill:none;stroke:#231f20;stroke-width:0.9375;stroke-linecap:butt;stroke-linejoin:miter;stroke-miterlimit:4;stroke-dasharray:none;stroke-opacity:1"
     d="m 407.93637,171.425 12.28501,0"
     inkscape:connector-curvature="0" /><path
     id="path118"
     style="fill:#231f20;fill-opacity:1;fill-rule:nonzero;stroke:none"
     d="m 421.36012,170.70375 c -1.1625,-0.35125 -1.9175,-0.675 -2.85,-1.04875 l 0,3.54625 c 0.335,-0.1575 1.6875,-0.6975 2.85,-1.0475 1.245,-0.37625 2.3725,-0.63375 3.105,-0.725 -0.7325,-0.0925 -1.86,-0.35 -3.105,-0.725"
     inkscape:connector-curvature="0" /><path
     id="path120"
     style="fill:none;stroke:#231f20;stroke-width:0.9375;stroke-linecap:butt;stroke-linejoin:miter;stroke-miterlimit:4;stroke-dasharray:none;stroke-opacity:1"
     d="m 407.93637,212.04 12.53501,0"
     inkscape:connector-curvature="0" /><path
     id="path122"
     style="fill:#231f20;fill-opacity:1;fill-rule:nonzero;stroke:none"
     d="m 421.61137,211.32 c -1.1625,-0.3525 -1.91874,-0.675 -2.85,-1.05 l 0,3.5475 c 0.335,-0.15875 1.6875,-0.69875 2.85,-1.04875 1.24501,-0.37625 2.3725,-0.63375 3.10501,-0.725 -0.73251,-0.0925 -1.86,-0.35 -3.10501,-0.72375"
     inkscape:connector-curvature="0" /><path
     id="path124"
     style="fill:none;stroke:#231f20;stroke-width:0.9375;stroke-linecap:butt;stroke-linejoin:miter;stroke-miterlimit:4;stroke-dasharray:none;stroke-opacity:1"
     d="m 413.20013,171.425 0,56.66 79.97874,0"
     inkscape:connector-curvature="0" /><path
     id="path126"
     style="fill:#231f20;fill-opacity:1;fill-rule:nonzero;stroke:none"
     d="m 493.89388,227.365 c -1.1625,-0.3525 -1.91875,-0.675 -2.85125,-1.05 l 0,3.5475 c 0.33625,-0.15875 1.68875,-0.69875 2.85125,-1.04875 1.245,-0.37625 2.3725,-0.63375 3.105,-0.725 -0.7325,-0.0925 -1.86,-0.35 -3.105,-0.72375"
     inkscape:connector-curvature="0" /><path
     id="path128"
     style="fill:none;stroke:#231f20;stroke-width:0.9375;stroke-linecap:butt;stroke-linejoin:miter;stroke-miterlimit:4;stroke-dasharray:none;stroke-opacity:1"
     d="m 511.48138,171.425 10.27875,0"
     inkscape:connector-curvature="0" /><path
     id="path130"
     style="fill:#231f20;fill-opacity:1;fill-rule:nonzero;stroke:none"
     d="m 522.99013,170.70375 c -1.16126,-0.35125 -1.91625,-0.675 -2.85126,-1.04875 l 0,3.54625 c 0.335,-0.1575 1.69,-0.6975 2.85126,-1.0475 1.24499,-0.37625 2.37374,-0.63375 3.10375,-0.725 -0.73001,-0.0925 -1.85876,-0.35 -3.10375,-0.725"
     inkscape:connector-curvature="0" /><path
     id="path132"
     style="fill:none;stroke:#231f20;stroke-width:0.9375;stroke-linecap:butt;stroke-linejoin:miter;stroke-miterlimit:4;stroke-dasharray:none;stroke-opacity:1"
     d="m 511.23012,228.33625 6.51875,0 0,-34.09625 5.76625,0"
     inkscape:connector-curvature="0" /><path
     id="path134"
     style="fill:#231f20;fill-opacity:1;fill-rule:nonzero;stroke:none"
     d="m 523.35887,193.51875 c -1.16375,-0.35125 -1.91874,-0.675 -2.85125,-1.04875 l 0,3.54625 c 0.335,-0.15875 1.6875,-0.6975 2.85126,-1.0475 1.245,-0.37625 2.37125,-0.63375 3.10375,-0.72625 -0.7325,-0.0913 -1.85875,-0.34875 -3.10375,-0.72375"
     inkscape:connector-curvature="0" /><path
     id="path136"
     style="fill:none;stroke:#231f20;stroke-width:0.625;stroke-linecap:butt;stroke-linejoin:miter;stroke-miterlimit:4;stroke-dasharray:none;stroke-opacity:1"
     d="m 408.18513,158.6375 6.26999,0"
     inkscape:connector-curvature="0" /><path
     id="path138"
     style="fill:#231f20;fill-opacity:1;fill-rule:nonzero;stroke:none"
     d="m 416.07887,157.93375 c -1.1375,-0.345 -1.875,-0.66125 -2.78625,-1.02625 l 0,3.46875 c 0.325,-0.155 1.64875,-0.6825 2.78625,-1.02625 1.21625,-0.36875 2.31875,-0.62 3.035,-0.70875 -0.71625,-0.0888 -1.81875,-0.34 -3.035,-0.7075"
     inkscape:connector-curvature="0" /><path
     id="path140"
     style="fill:none;stroke:#231f20;stroke-width:0.9375;stroke-linecap:butt;stroke-linejoin:miter;stroke-miterlimit:4;stroke-dasharray:none;stroke-opacity:1"
     d="m 331.05137,185.0475 9.6925,0"
     inkscape:connector-curvature="0" /><path
     id="path142"
     style="fill:#231f20;fill-opacity:1;fill-rule:nonzero;stroke:none"
     d="m 341.73512,184.3275 c -1.16375,-0.35125 -1.91875,-0.675 -2.85125,-1.05 l 0,3.5475 c 0.335,-0.15875 1.6875,-0.69875 2.85125,-1.04875 1.245,-0.37625 2.37125,-0.63375 3.10375,-0.725 -0.73249,-0.0913 -1.85875,-0.34875 -3.10375,-0.72375"
     inkscape:connector-curvature="0" /><path
     id="path144"
     style="fill:none;stroke:#231f20;stroke-width:0.9375;stroke-linecap:butt;stroke-linejoin:miter;stroke-miterlimit:4;stroke-dasharray:none;stroke-opacity:1"
     d="m 296.87013,148.61 43.625,0"
     inkscape:connector-curvature="0" /><path
     id="path146"
     style="fill:#231f20;fill-opacity:1;fill-rule:nonzero;stroke:none"
     d="m 341.47138,147.88875 c -1.16375,-0.35125 -1.91875,-0.67375 -2.85125,-1.0475 l 0,3.54625 c 0.33499,-0.15875 1.6875,-0.6975 2.85125,-1.0475 1.24374,-0.37625 2.37124,-0.635 3.10375,-0.725 -0.73251,-0.0937 -1.86001,-0.35 -3.10375,-0.72625"
     inkscape:connector-curvature="0" /><path
     id="path148"
     style="fill:none;stroke:#231f20;stroke-width:0.9375;stroke-linecap:butt;stroke-linejoin:miter;stroke-miterlimit:4;stroke-dasharray:none;stroke-opacity:1"
     d="m 296.87013,174.18375 16.96499,0 m -5.51499,-51.315 0,108.72625 -11.69876,0"
     inkscape:connector-curvature="0" /><path
     id="path150"
     style="fill:#231f20;fill-opacity:1;fill-rule:nonzero;stroke:none"
     d="m 314.89262,173.4625 c -1.1625,-0.35125 -1.91624,-0.675 -2.85,-1.04875 l 0,3.5475 c 0.335,-0.15875 1.6875,-0.69875 2.85,-1.04875 1.24501,-0.37625 2.375,-0.63375 3.10501,-0.725 -0.73001,-0.0925 -1.86,-0.35 -3.10501,-0.725"
     inkscape:connector-curvature="0" /><path
     id="path152"
     style="fill:none;stroke:#231f20;stroke-width:0.9375;stroke-linecap:butt;stroke-linejoin:miter;stroke-miterlimit:4;stroke-dasharray:none;stroke-opacity:1"
     d="m 308.65388,196.74625 5.26625,0"
     inkscape:connector-curvature="0" /><path
     id="path154"
     style="fill:#231f20;fill-opacity:1;fill-rule:nonzero;stroke:none"
     d="m 315.11012,196.02625 c -1.1625,-0.35125 -1.9175,-0.675 -2.85,-1.05 l 0,3.5475 c 0.335,-0.15875 1.6875,-0.6975 2.85,-1.04875 1.245,-0.375 2.3725,-0.6325 3.105,-0.725 -0.7325,-0.0913 -1.86,-0.34875 -3.105,-0.72375"
     inkscape:connector-curvature="0" /><path
     id="path156"
     style="fill:none;stroke:#231f20;stroke-width:0.9375;stroke-linecap:butt;stroke-linejoin:miter;stroke-miterlimit:4;stroke-dasharray:none;stroke-opacity:1"
     d="m 302.38763,174.18375 0,38.1075 87.24874,0"
     inkscape:connector-curvature="0" /><path
     id="path158"
     style="fill:#231f20;fill-opacity:1;fill-rule:nonzero;stroke:none"
     d="m 390.58512,211.57125 c -1.16125,-0.35125 -1.91624,-0.675 -2.84875,-1.05 l 0,3.5475 c 0.3325,-0.15875 1.6875,-0.69875 2.84875,-1.04875 1.245,-0.37625 2.37375,-0.63375 3.10375,-0.725 -0.73,-0.0913 -1.85875,-0.34875 -3.10375,-0.72375"
     inkscape:connector-curvature="0" /><path
     id="path160"
     style="fill:none;stroke:#231f20;stroke-width:0.9375;stroke-linecap:butt;stroke-linejoin:miter;stroke-miterlimit:4;stroke-dasharray:none;stroke-opacity:1"
     d="m 317.68013,108.245 11.7825,0"
     inkscape:connector-curvature="0" /><path
     id="path162"
     style="fill:#231f20;fill-opacity:1;fill-rule:nonzero;stroke:none"
     d="m 330.61263,107.525 c -1.1625,-0.35125 -1.91875,-0.675 -2.85125,-1.05 l 0,3.5475 c 0.33625,-0.15875 1.68875,-0.69875 2.85125,-1.04875 1.245,-0.37625 2.3725,-0.63375 3.105,-0.72625 -0.7325,-0.09 -1.86,-0.3475 -3.105,-0.7225"
     inkscape:connector-curvature="0" /><path
     id="path164"
     style="fill:none;stroke:#231f20;stroke-width:0.9375;stroke-linecap:butt;stroke-linejoin:miter;stroke-miterlimit:4;stroke-dasharray:none;stroke-opacity:1"
     d="m 361.30387,97.46375 28.8325,0"
     inkscape:connector-curvature="0" /><path
     id="path166"
     style="fill:#231f20;fill-opacity:1;fill-rule:nonzero;stroke:none"
     d="m 390.63013,96.74375 c -1.16251,-0.35125 -1.91751,-0.675 -2.85001,-1.04875 l 0,3.54625 c 0.335,-0.15875 1.6875,-0.6975 2.85001,-1.0475 1.245,-0.37625 2.3725,-0.63375 3.105,-0.725 -0.7325,-0.0925 -1.86,-0.34875 -3.105,-0.725"
     inkscape:connector-curvature="0" /><path
     id="path168"
     style="fill:none;stroke:#231f20;stroke-width:0.9375;stroke-linecap:butt;stroke-linejoin:miter;stroke-miterlimit:4;stroke-dasharray:none;stroke-opacity:1"
     d="m 296.87013,83.67375 32.34125,0"
     inkscape:connector-curvature="0" /><path
     id="path170"
     style="fill:#231f20;fill-opacity:1;fill-rule:nonzero;stroke:none"
     d="m 330.36137,82.95375 c -1.1625,-0.35125 -1.91874,-0.675 -2.85,-1.04875 l 0,3.54625 c 0.335,-0.1575 1.6875,-0.6975 2.85,-1.04875 1.24501,-0.375 2.3725,-0.6325 3.10501,-0.72375 -0.73251,-0.0925 -1.86,-0.34875 -3.10501,-0.725"
     inkscape:connector-curvature="0" /><path
     id="path172"
     style="fill:none;stroke:#231f20;stroke-width:0.9375;stroke-linecap:butt;stroke-linejoin:miter;stroke-miterlimit:4;stroke-dasharray:none;stroke-opacity:1"
     d="m 262.27262,148.86125 15.5925,0"
     inkscape:connector-curvature="0" /><path
     id="path174"
     style="fill:#231f20;fill-opacity:1;fill-rule:nonzero;stroke:none"
     d="m 279.52638,148.14 c -1.16125,-0.35125 -1.91875,-0.675 -2.85125,-1.04875 l 0,3.5475 c 0.335,-0.15875 1.69,-0.69875 2.85125,-1.05 1.2425,-0.37625 2.3725,-0.6325 3.1025,-0.725 -0.73,-0.09 -1.86,-0.34875 -3.1025,-0.72375"
     inkscape:connector-curvature="0" /><path
     id="path176"
     style="fill:none;stroke:#231f20;stroke-width:0.9375;stroke-linecap:butt;stroke-linejoin:miter;stroke-miterlimit:4;stroke-dasharray:none;stroke-opacity:1"
     d="m 262.02138,173.9325 15.84375,0"
     inkscape:connector-curvature="0" /><path
     id="path178"
     style="fill:#231f20;fill-opacity:1;fill-rule:nonzero;stroke:none"
     d="m 279.52638,173.2125 c -1.16125,-0.35125 -1.91875,-0.675 -2.85125,-1.05 l 0,3.5475 c 0.335,-0.15875 1.69,-0.6975 2.85125,-1.04875 1.2425,-0.375 2.3725,-0.6325 3.1025,-0.725 -0.73,-0.0913 -1.86,-0.34875 -3.1025,-0.72375"
     inkscape:connector-curvature="0" /><path
     id="path180"
     style="fill:none;stroke:#231f20;stroke-width:0.9375;stroke-linecap:butt;stroke-linejoin:miter;stroke-miterlimit:4;stroke-dasharray:none;stroke-opacity:1"
     d="m 175.77762,83.17375 102.0875,0"
     inkscape:connector-curvature="0" /><path
     id="path182"
     style="fill:#231f20;fill-opacity:1;fill-rule:nonzero;stroke:none"
     d="m 279.52638,82.4525 c -1.16125,-0.35125 -1.91876,-0.675 -2.85125,-1.04875 l 0,3.54625 c 0.335,-0.1575 1.69,-0.69875 2.85125,-1.04875 1.2425,-0.375 2.3725,-0.63375 3.1025,-0.725 -0.73,-0.09125 -1.86,-0.3475 -3.1025,-0.72375"
     inkscape:connector-curvature="0" /><path
     id="path184"
     style="fill:none;stroke:#231f20;stroke-width:0.625;stroke-linecap:butt;stroke-linejoin:miter;stroke-miterlimit:4;stroke-dasharray:none;stroke-opacity:1"
     d="m 123.12763,83.17375 34.59749,0"
     inkscape:connector-curvature="0" /><path
     id="path186"
     style="fill:none;stroke:#231f20;stroke-width:0.9375;stroke-linecap:butt;stroke-linejoin:miter;stroke-miterlimit:4;stroke-dasharray:none;stroke-opacity:1"
     d="m 87.025,96.71125 10.029255,0"
     inkscape:connector-curvature="0" /><path
     id="path188"
     style="fill:#231f20;fill-opacity:1;fill-rule:nonzero;stroke:none"
     d="m 98.024495,95.99125 c -1.16312,-0.35125 -1.9175,-0.675 -2.85012,-1.04875 l 0,3.54625 c 0.333,-0.15875 1.687,-0.69875 2.85012,-1.04875 1.24413,-0.37625 2.372005,-0.6325 3.104505,-0.72375 -0.7325,-0.0925 -1.860375,-0.34875 -3.104505,-0.725"
     inkscape:connector-curvature="0" /><path
     id="path190"
     style="fill:none;stroke:#231f20;stroke-width:0.9375;stroke-linecap:butt;stroke-linejoin:miter;stroke-miterlimit:4;stroke-dasharray:none;stroke-opacity:1"
     d="m 57.44,141.33875 13.0395,0"
     inkscape:connector-curvature="0" /><path
     id="path192"
     style="fill:#231f20;fill-opacity:1;fill-rule:nonzero;stroke:none"
     d="M 71.38875,140.61875 C 70.225625,140.2675 69.47125,139.945 68.538625,139.57 l 0,3.54625 c 0.3335,-0.15875 1.687,-0.6975 2.850125,-1.0475 1.244125,-0.37625 2.372,-0.635 3.1045,-0.725 -0.7325,-0.0925 -1.860375,-0.34875 -3.1045,-0.725"
     inkscape:connector-curvature="0" /><path
     id="path194"
     style="fill:none;stroke:#231f20;stroke-width:0.9375;stroke-linecap:butt;stroke-linejoin:miter;stroke-miterlimit:4;stroke-dasharray:none;stroke-opacity:1"
     d="m 63.458,141.33875 0,-69.19625 33.094255,0"
     inkscape:connector-curvature="0" /><path
     id="path196"
     style="fill:#231f20;fill-opacity:1;fill-rule:nonzero;stroke:none"
     d="m 97.845245,71.4225 c -1.16212,-0.3525 -1.91887,-0.675 -2.851495,-1.04875 l 0,3.54625 c 0.334375,-0.15875 1.689375,-0.69875 2.851495,-1.04875 1.24363,-0.37625 2.373015,-0.63375 3.103005,-0.725 -0.73001,-0.0925 -1.859375,-0.34875 -3.103005,-0.72375"
     inkscape:connector-curvature="0" /><path
     id="path198"
     style="fill:none;stroke:#231f20;stroke-width:0.9375;stroke-linecap:butt;stroke-linejoin:miter;stroke-miterlimit:4;stroke-dasharray:none;stroke-opacity:1"
     d="m 261.59638,233.04375 16.99374,0 m -102.97875,-61.95125 5.51626,0"
     inkscape:connector-curvature="0" /><path
     id="path200"
     style="fill:#231f20;fill-opacity:1;fill-rule:nonzero;stroke:none"
     d="m 279.61637,232.3225 c -1.16,-0.35125 -1.9175,-0.675 -2.85,-1.04875 l 0,3.54625 c 0.335,-0.15875 1.69,-0.6975 2.85,-1.0475 1.2475,-0.37625 2.375,-0.63375 3.10501,-0.72625 -0.73001,-0.0913 -1.85751,-0.34875 -3.10501,-0.72375"
     inkscape:connector-curvature="0" /><path
     id="path202"
     style="fill:none;stroke:#231f20;stroke-width:0.625;stroke-linecap:butt;stroke-linejoin:miter;stroke-miterlimit:4;stroke-dasharray:none;stroke-opacity:1"
     d="m 224.45387,230.1025 2.57375,5.63875 m 41.1875,-6.13125 2.575,5.64"
     inkscape:connector-curvature="0" /><path
     id="path204"
     style="fill:none;stroke:#231f20;stroke-width:0.9375;stroke-linecap:butt;stroke-linejoin:miter;stroke-miterlimit:4;stroke-dasharray:none;stroke-opacity:1"
     d="m 36.214375,141.005 4.34575,0"
     inkscape:connector-curvature="0" /><path
     id="path206"
     style="fill:#231f20;fill-opacity:1;fill-rule:nonzero;stroke:none"
     d="M 41.673375,140.28375 C 40.51125,139.9325 39.7545,139.61 38.821875,139.23625 l 0,3.54625 c 0.334375,-0.15875 1.689375,-0.6975 2.8515,-1.0475 1.243625,-0.37625 2.373,-0.635 3.103,-0.725 -0.73,-0.0937 -1.859375,-0.35 -3.103,-0.72625"
     inkscape:connector-curvature="0" /><path
     id="path216"
     style="fill:none;stroke:#231f20;stroke-width:0.9375;stroke-linecap:butt;stroke-linejoin:miter;stroke-miterlimit:4;stroke-dasharray:none;stroke-opacity:1"
     d="m 407.93637,98.3825 23.73625,0 0,-67.69125 -423.20387,0 0,122.51375 10.361375,-0.0812"
     inkscape:connector-curvature="0" /><path
     id="path218"
     style="fill:#231f20;fill-opacity:1;fill-rule:nonzero;stroke:none"
     d="m 20.425875,152.39 c -1.164625,-0.34125 -1.922875,-0.66 -2.858,-1.02625 l 0.02838,3.5475 c 0.332,-0.16125 1.682125,-0.7125 2.84175,-1.0725 1.24125,-0.385 2.36825,-0.65125 3.098125,-0.74875 -0.732375,-0.0863 -1.86275,-0.335 -3.11025,-0.7"
     inkscape:connector-curvature="0" /><path
     id="path220"
     style="fill:none;stroke:#231f20;stroke-width:0.9375;stroke-linecap:butt;stroke-linejoin:miter;stroke-miterlimit:4;stroke-dasharray:none;stroke-opacity:1"
     d="m 131.31763,83.17375 0,-43.9575 -118.50163,0 0,90.11125 6.014125,-0.0225"
     inkscape:connector-curvature="0" /><path
     id="path222"
     style="fill:#231f20;fill-opacity:1;fill-rule:nonzero;stroke:none"
     d="m 20.194875,128.57875 c -1.163125,-0.3475 -1.919875,-0.6675 -2.854,-1.03875 l 0.01362,3.5475 c 0.332125,-0.16125 1.684625,-0.70375 2.84675,-1.06 1.242625,-0.38 2.369125,-0.64125 3.1005,-0.735 -0.732375,-0.09 -1.86025,-0.3425 -3.106875,-0.71375"
     inkscape:connector-curvature="0" /><path
     id="path224"
     style="fill:#231f20;fill-opacity:1;fill-rule:nonzero;stroke:none"
     d="m 129.19263,83.165 c 0,1.20875 0.97874,2.1875 2.1875,2.1875 1.20625,0 2.18875,-0.97875 2.18875,-2.1875 0,-1.20875 -0.9825,-2.1875 -2.18875,-2.1875 -1.20876,0 -2.1875,0.97875 -2.1875,2.1875"
     inkscape:connector-curvature="0" /><path
     id="path226"
     style="fill:#231f20;fill-opacity:1;fill-rule:nonzero;stroke:none"
     d="m 61.331625,141.33 c 0,1.2075 0.979,2.1875 2.1875,2.1875 1.2085,0 2.1875,-0.98 2.1875,-2.1875 0,-1.20625 -0.979,-2.1875 -2.1875,-2.1875 -1.2085,0 -2.1875,0.98125 -2.1875,2.1875"
     inkscape:connector-curvature="0" /><path
     id="path228"
     style="fill:#231f20;fill-opacity:1;fill-rule:nonzero;stroke:none"
     d="m 180.96512,171.0825 c 0,1.20875 0.9775,2.1875 2.1875,2.1875 1.20501,0 2.1875,-0.97875 2.1875,-2.1875 0,-1.20875 -0.98249,-2.1875 -2.1875,-2.1875 -1.21,0 -2.1875,0.97875 -2.1875,2.1875"
     inkscape:connector-curvature="0" /><path
     id="path230"
     style="fill:#231f20;fill-opacity:1;fill-rule:nonzero;stroke:none"
     d="m 181.23637,178.6875 c 0,1.2075 0.98125,2.1875 2.1875,2.1875 1.20751,0 2.1875,-0.98 2.1875,-2.1875 0,-1.20875 -0.97999,-2.1875 -2.1875,-2.1875 -1.20625,0 -2.1875,0.97875 -2.1875,2.1875"
     inkscape:connector-curvature="0" /><path
     id="path232"
     style="fill:#231f20;fill-opacity:1;fill-rule:nonzero;stroke:none"
     d="m 180.96512,160.92875 c 0,1.20875 0.9775,2.1875 2.1875,2.1875 1.20501,0 2.1875,-0.97875 2.1875,-2.1875 0,-1.20875 -0.98249,-2.1875 -2.1875,-2.1875 -1.21,0 -2.1875,0.97875 -2.1875,2.1875"
     inkscape:connector-curvature="0" /><path
     id="path234"
     style="fill:#231f20;fill-opacity:1;fill-rule:nonzero;stroke:none"
     d="m 300.09512,174.3625 c 0,1.20875 0.97875,2.1875 2.1875,2.1875 1.20625,0 2.1875,-0.97875 2.1875,-2.1875 0,-1.20875 -0.98125,-2.1875 -2.1875,-2.1875 -1.20875,0 -2.1875,0.97875 -2.1875,2.1875"
     inkscape:connector-curvature="0" /><path
     id="path236"
     style="fill:#231f20;fill-opacity:1;fill-rule:nonzero;stroke:none"
     d="m 411.06887,171.4825 c 0,1.2075 0.97875,2.1875 2.1875,2.1875 1.20625,0 2.1875,-0.98 2.1875,-2.1875 0,-1.2075 -0.98125,-2.1875 -2.1875,-2.1875 -1.20875,0 -2.1875,0.98 -2.1875,2.1875"
     inkscape:connector-curvature="0" /><path
     id="path238"
     style="fill:#231f20;fill-opacity:1;fill-rule:nonzero;stroke:none"
     d="m 306.11012,196.75875 c 0,1.20875 0.98,2.1875 2.1875,2.1875 1.20875,0 2.1875,-0.97875 2.1875,-2.1875 0,-1.20875 -0.97875,-2.1875 -2.1875,-2.1875 -1.2075,0 -2.1875,0.97875 -2.1875,2.1875"
     inkscape:connector-curvature="0" /><path
     id="path248"
     style="fill:none;stroke:#231f20;stroke-width:0.625;stroke-linecap:butt;stroke-linejoin:miter;stroke-miterlimit:4;stroke-dasharray:none;stroke-opacity:1"
     d="m 538.88888,192.0275 c 0,4.175 -2.83751,7.5575 -6.33751,7.5575 -3.49874,0 -6.33874,-3.3825 -6.33874,-7.5575 l 0,-19.3075 c 0,-4.17625 2.84,-7.5575 6.33874,-7.5575 3.5,0 6.33751,3.38125 6.33751,7.5575 z m -208.08875,3.0075 c 0,4.175 -2.83875,7.55625 -6.34,7.55625 -3.49875,0 -6.3375,-3.38125 -6.3375,-7.55625 l 0,-19.3075 c 0,-4.175 2.83875,-7.55625 6.3375,-7.55625 3.50125,0 6.34,3.38125 6.34,7.55625 z M 36.1275,150.49375 c 0,4.1725 -2.837875,7.55625 -6.337875,7.55625 -3.501,0 -6.338875,-3.38375 -6.338875,-7.55625 l 0,-19.30875 c 0,-4.175 2.837875,-7.5575 6.338875,-7.5575 3.5,0 6.337875,3.3825 6.337875,7.5575 z"
     inkscape:connector-curvature="0"
     sodipodi:nodetypes="sssssssssssssssssssss" /><text
     style="font-variant:normal;font-weight:normal;font-size:5px;font-family:Helvetica;-inkscape-font-specification:Helvetica;writing-mode:lr-tb;fill:#231f20;fill-opacity:1;fill-rule:nonzero;stroke:none"
     id="text408"
     x="105.97862"
     y="84.646248"><tspan
       x="105.97862 109.31362 112.09191"
       y="84.646248"
       id="tspan410">Add</tspan><tspan
       x="76.13237 79.467377 82.247375 85.027885 86.692352 89.472504 91.972221"
       y="142.89139"
       id="tspan412">Address</tspan></text>
<text
     style="font-variant:normal;font-weight:bold;font-size:5px;font-family:Helvetica;-inkscape-font-specification:Helvetica-Bold;writing-mode:lr-tb;fill:#231f20;fill-opacity:1;fill-rule:nonzero;stroke:none"
     id="text414"
     x="93.252502"
     y="167.75763"><tspan
       x="93.252502 94.642502 97.697502 100.4775 102.1425 104.0875 107.1425 109.9225 111.5875 112.9775 116.0325"
       y="167.75763"
       id="tspan416">Instruction</tspan><tspan
       x="96.444885 100.88988 103.66988 108.11488 111.16988 113.11488"
       y="173.75763"
       id="tspan418">memory</tspan></text>
<text
     style="font-variant:normal;font-weight:normal;font-size:5px;font-family:Helvetica;-inkscape-font-specification:Helvetica;writing-mode:lr-tb;fill:#231f20;fill-opacity:1;fill-rule:nonzero;stroke:none"
     id="text420"
     x="201.20363"
     y="143.54039"><tspan
       x="201.20363 204.81363 207.59363 210.37363"
       y="143.54039"
       id="tspan422">Read</tspan><tspan
       x="201.20363 202.86864 205.64864 208.42873 209.53903 212.03934 213.42873 216.20874 217.87373 219.26373"
       y="149.54039"
       id="tspan424">register 1</tspan></text>
<text
     transform="matrix(0,-1,1,0,0,0)"
     style="font-variant:normal;font-weight:normal;font-size:5px;font-family:Helvetica;-inkscape-font-specification:Helvetica;writing-mode:lr-tb;fill:#231f20;fill-opacity:1;fill-rule:nonzero;stroke:none"
     id="text426"
     x="-158.56375"
     y="180.61888"><tspan
       x="-158.56375 -157.17375 -154.39482 -151.89482 -150.50482 -148.83983 -146.05983 -143.55983 -142.16983 -141.05983 -138.27861"
       y="180.61888"
       id="tspan428">Instruction</tspan></text>
<text
     style="font-variant:normal;font-weight:normal;font-size:5px;font-family:Helvetica;-inkscape-font-specification:Helvetica;writing-mode:lr-tb;fill:#231f20;fill-opacity:1;fill-rule:nonzero;stroke:none"
     id="text430"
     x="201.20387"
     y="159.91876"><tspan
       x="201.20387 204.81387 207.59387 210.37387"
       y="159.91876"
       id="tspan432">Read</tspan><tspan
       x="201.20387 202.86888 205.64888 208.42897 209.53928 212.03958 213.42897 216.20897 217.87398 219.26398"
       y="165.91972"
       id="tspan434">register 2</tspan><tspan
       x="201.20387 205.92387 207.58887 208.69887 210.08887"
       y="177.63507"
       id="tspan436">Write</tspan><tspan
       x="201.20387 202.86888 205.64888 208.42897 209.53928 212.03958 213.42897 216.20897"
       y="183.63605"
       id="tspan438">register</tspan><tspan
       x="201.20387 205.92387 207.58887 208.69887 210.08887"
       y="192.01007"
       id="tspan440">Write</tspan><tspan
       x="201.20387 203.98891 206.77394 208.16898"
       y="198.01105"
       id="tspan442">data</tspan><tspan
       x="246.54025 250.15025 252.93025 255.71025"
       y="147.71466"
       id="tspan444">Read</tspan><tspan
       x="246.54025 249.32025 252.10023 253.49025 256.26962 257.65964"
       y="153.71468"
       id="tspan446">data 1</tspan><tspan
       x="246.54025 250.15025 252.93025 255.71025"
       y="172.78505"
       id="tspan448">Read</tspan><tspan
       x="246.54025 249.32025 252.10023 253.49025 256.26962 257.65964"
       y="178.78603"
       id="tspan450">data 2</tspan></text>
<text
     style="font-variant:normal;font-weight:bold;font-size:5px;font-family:Helvetica;-inkscape-font-specification:Helvetica-Bold;writing-mode:lr-tb;fill:#231f20;fill-opacity:1;fill-rule:nonzero;stroke:none"
     id="text452"
     x="219.35524"
     y="170.84755"><tspan
       x="219.35524 222.96524 225.74524 228.80055 230.19093 232.97131 234.63557 237.41595 239.36014"
       y="170.84755"
       id="tspan454">Registers</tspan></text>
<text
     style="font-variant:normal;font-weight:normal;font-size:5px;font-family:Helvetica;-inkscape-font-specification:Helvetica;writing-mode:lr-tb;fill:#231f20;fill-opacity:1;fill-rule:nonzero;stroke:none"
     id="text456"
     x="428.2439"
     y="173.46716"><tspan
       x="428.2439 431.57889 434.35889 437.13892 438.80338 441.58353 444.08423"
       y="173.46716"
       id="tspan458">Address</tspan><tspan
       x="428.24387 432.96387 434.62888 435.73886 437.12735"
       y="210.62242"
       id="tspan460">Write</tspan><tspan
       x="428.24387 431.02386 433.80386 435.19385"
       y="216.62242"
       id="tspan462">data</tspan><tspan
       x="471.77411 475.38412 478.16412 480.94272"
       y="169.33629"
       id="tspan464">Read</tspan><tspan
       x="472.88544 475.66544 478.44543 479.83545"
       y="175.33482"
       id="tspan466">data</tspan></text>
<text
     style="font-variant:normal;font-weight:bold;font-size:5px;font-family:Helvetica;-inkscape-font-specification:Helvetica-Bold;writing-mode:lr-tb;fill:#231f20;fill-opacity:1;fill-rule:nonzero;stroke:none"
     id="text468"
     x="450.65393"
     y="186.37633"><tspan
       x="450.65393 454.26364 457.04407 458.70908"
       y="186.37633"
       id="tspan470">Data</tspan><tspan
       x="446.34631 450.79132 453.57132 458.01633 461.07132 463.01633"
       y="192.37486"
       id="tspan472">memory</tspan><tspan
       x="337.06256 340.67227 343.72665"
       y="98.178612"
       id="tspan474">Add</tspan></text>
<text
     style="font-variant:normal;font-weight:normal;font-size:5px;font-family:Helvetica;-inkscape-font-specification:Helvetica;writing-mode:lr-tb;fill:#231f20;fill-opacity:1;fill-rule:nonzero;stroke:none"
     id="text476"
     x="350.84528"
     y="95.76162"><tspan
       x="350.84528 354.1803 356.9603"
       y="95.76162"
       id="tspan478">Add</tspan><tspan
       x="347.51523 349.18021 351.96021 354.46021 357.2402 358.35022"
       y="101.76113"
       id="tspan480">result</tspan></text>
<text
     style="font-variant:normal;font-weight:bold;font-size:5px;font-family:Helvetica;-inkscape-font-specification:Helvetica-Bold;writing-mode:lr-tb;fill:#231f20;fill-opacity:1;fill-rule:nonzero;stroke:none"
     id="text482"
     x="348.97275"
     y="166.98726"><tspan
       x="348.97275 352.58273 355.63773"
       y="166.98726"
       id="tspan484">ALU</tspan></text>
<text
     style="font-variant:normal;font-weight:normal;font-size:5px;font-family:Helvetica;-inkscape-font-specification:Helvetica;writing-mode:lr-tb;fill:#231f20;fill-opacity:1;fill-rule:nonzero;stroke:none"
     id="text486"
     x="365.61624"
     y="169.44136"><tspan
       x="365.61624 368.95123 371.73004"
       y="169.44136"
       id="tspan488">ALU</tspan><tspan
       x="363.11624 364.78125 367.56125 370.06125 372.84125 373.95123"
       y="175.43991"
       id="tspan490">result</tspan><tspan
       x="365.06155 368.11655 370.89655 372.56155"
       y="160.89352"
       id="tspan492">Zero</tspan></text>
<text
     style="font-variant:normal;font-weight:bold;font-size:5px;font-family:Helvetica;-inkscape-font-specification:Helvetica-Bold;writing-mode:lr-tb;fill:#231f20;fill-opacity:1;fill-rule:nonzero;stroke:none"
     id="text494"
     x="302.48492"
     y="105.21239"><tspan
       x="302.48492 305.81992 308.87494 310.26492 311.92993"
       y="105.21239"
       id="tspan496">Shift</tspan><tspan
       x="302.48492 303.87494 306.65494 308.31992 309.98492 311.37494"
       y="111.21239"
       id="tspan498">left 2</tspan><tspan
       x="243.23491 246.56992 247.95992 251.01492 254.06993"
       y="230.21928"
       id="tspan500">Sign-</tspan><tspan
       x="241.4278 244.20779 246.98785 248.65231 251.43248 254.48784"
       y="236.21927"
       id="tspan502">extend</tspan><tspan
       x="47.805347 51.140347"
       y="143.35703"
       id="tspan504">PC</tspan></text>
<text
     style="font-variant:normal;font-weight:normal;font-size:5px;font-family:Helvetica;-inkscape-font-specification:Helvetica;writing-mode:lr-tb;fill:#231f20;fill-opacity:1;fill-rule:nonzero;stroke:none"
     id="text506"
     x="80.829231"
     y="98.7174"><tspan
       x="80.829231"
       y="98.7174"
       id="tspan508">4</tspan><tspan
       x="283.40424 284.79437 288.40469 289.79498 293.12933 163.17308 164.56322 167.61867 169.00853 170.39853 391.05356 394.38855 397.72354 399.11356 403.27853 406.61356"
       y="50.305771"
       id="tspan510">ID/EXIF/IDEX/MEM</tspan><tspan
       x="220.03853 222.81853"
       y="228.38579"
       id="tspan512">16</tspan><tspan
       x="264.78217 267.56216"
       y="228.38432"
       id="tspan514">32</tspan><tspan
       x="26.940905"
       y="131.10695"
       id="tspan516">0</tspan></text>
<text
     style="font-variant:normal;font-weight:bold;font-size:5px;font-family:Helvetica;-inkscape-font-specification:Helvetica-Bold;writing-mode:lr-tb;fill:#231f20;fill-opacity:1;fill-rule:nonzero;stroke:none"
     id="text518"
     x="28.87303"
     y="136.9756"><tspan
       x="28.87303"
       y="136.9756"
       id="tspan520">M</tspan><tspan
       x="29.427717"
       y="142.9756"
       id="tspan522">u</tspan><tspan
       x="29.565901"
       y="148.9756"
       id="tspan524">x</tspan></text>
<text
     style="font-variant:normal;font-weight:normal;font-size:5px;font-family:Helvetica;-inkscape-font-specification:Helvetica;writing-mode:lr-tb;fill:#231f20;fill-opacity:1;fill-rule:nonzero;stroke:none"
     id="text526"
     x="26.940901"
     y="154.92432"><tspan
       x="26.940901"
       y="154.92432"
       id="tspan528">1</tspan><tspan
       x="321.6109"
       y="175.98431"
       id="tspan530">0</tspan></text>
<text
     style="font-variant:normal;font-weight:bold;font-size:5px;font-family:Helvetica;-inkscape-font-specification:Helvetica-Bold;writing-mode:lr-tb;fill:#231f20;fill-opacity:1;fill-rule:nonzero;stroke:none"
     id="text532"
     x="323.3497"
     y="181.7431"><tspan
       x="323.3497"
       y="181.7431"
       id="tspan534">M</tspan><tspan
       x="323.90634"
       y="187.7431"
       id="tspan536">u</tspan><tspan
       x="324.04257"
       y="193.74408"
       id="tspan538">x</tspan></text>
<text
     style="font-style:normal;font-variant:normal;font-weight:normal;font-stretch:normal;font-size:5px;line-height:125%;font-family:Helvetica;-inkscape-font-specification:'Helvetica, Normal';text-align:start;writing-mode:lr-tb;text-anchor:start;fill:#231f20;fill-opacity:1;fill-rule:nonzero;stroke:none"
     id="text540"
     x="321.61093"
     y="198.54779"
     sodipodi:linespacing="125%"><tspan
       sodipodi:role="line"
       id="tspan5415"
       x="321.61093"
       y="198.54779">1</tspan></text>
<text
     style="font-variant:normal;font-weight:bold;font-size:5px;font-family:Helvetica;-inkscape-font-specification:Helvetica-Bold;writing-mode:lr-tb;fill:#231f20;fill-opacity:1;fill-rule:nonzero;stroke:none"
     id="text546"
     x="531.18823"
     y="178.82567"><tspan
       x="531.18823"
       y="178.82567"
       id="tspan548">M</tspan><tspan
       x="531.74341"
       y="184.82567"
       id="tspan550">u</tspan><tspan
       x="531.88062"
       y="190.82664"
       id="tspan552">x</tspan></text>
<text
     sodipodi:linespacing="125%"
     id="text5363"
     y="258.35196"
     x="27.087315"
     style="font-style:normal;font-weight:normal;font-size:10px;line-height:125%;font-family:sans-serif;text-align:start;letter-spacing:0px;word-spacing:0px;writing-mode:lr-tb;text-anchor:start;opacity:0.93999999;fill:#000000;fill-opacity:1;stroke:none;stroke-width:1px;stroke-linecap:butt;stroke-linejoin:miter;stroke-opacity:1"
     xml:space="preserve"><tspan
       style="font-size:7.5px"
       y="258.35196"
       x="27.087315"
       id="tspan5365"
       sodipodi:role="line">COD 4Ed, Copyright © 2009 </tspan><tspan
       id="tspan5367"
       style="font-size:7.5px"
       y="267.72696"
       x="27.087315"
       sodipodi:role="line">Elsevier, Inc. All rights reserved.</tspan><tspan
       y="277.10196"
       x="27.087315"
       id="tspan5369"
       sodipodi:role="line" /></text>
<text
     sodipodi:linespacing="125%"
     id="text5371"
     y="296.26761"
     x="124.61362"
     style="font-style:normal;font-weight:normal;font-size:10px;line-height:125%;font-family:sans-serif;letter-spacing:0px;word-spacing:0px;fill:#000000;fill-opacity:1;stroke:none;stroke-width:1px;stroke-linecap:butt;stroke-linejoin:miter;stroke-opacity:1"
     xml:space="preserve"><tspan
       y="296.26761"
       x="124.61362"
       id="tspan5373"
       sodipodi:role="line">Simulação, da instrução SW, na quarta etapa do pipelilne.</tspan></text>
<text
     sodipodi:linespacing="125%"
     y="49.539368"
     x="493.70093"
     id="text5401"
     style="font-style:normal;font-variant:normal;font-weight:normal;font-stretch:normal;font-size:5px;line-height:125%;font-family:Helvetica;-inkscape-font-specification:'Helvetica, Normal';text-align:start;writing-mode:lr-tb;text-anchor:start;fill:#231f20;fill-opacity:1;fill-rule:nonzero;stroke:none"><tspan
       y="49.539368"
       x="493.70093"
       id="tspan5403"
       sodipodi:role="line">MEM/WB</tspan></text>
<text
     style="font-style:normal;font-variant:normal;font-weight:normal;font-stretch:normal;font-size:5px;line-height:125%;font-family:Helvetica;-inkscape-font-specification:'Helvetica, Normal';text-align:start;writing-mode:lr-tb;text-anchor:start;fill:#231f20;fill-opacity:1;fill-rule:nonzero;stroke:none"
     id="text5405"
     x="527.19849"
     y="174.70294"
     sodipodi:linespacing="125%"><tspan
       sodipodi:role="line"
       id="tspan5407"
       x="527.19849"
       y="174.70294">1</tspan><tspan
       sodipodi:role="line"
       x="527.19849"
       y="180.95294"
       id="tspan5409" /><tspan
       sodipodi:role="line"
       x="527.19849"
       y="187.20294"
       id="tspan5411" /><tspan
       sodipodi:role="line"
       id="tspan5413"
       x="527.19849"
       y="193.45294">0</tspan></text>
</svg>