<?xml version="1.0" encoding="UTF-8" standalone="no"?>
<svg
   xmlns:dc="http://purl.org/dc/elements/1.1/"
   xmlns:cc="http://creativecommons.org/ns#"
   xmlns:rdf="http://www.w3.org/1999/02/22-rdf-syntax-ns#"
   xmlns:svg="http://www.w3.org/2000/svg"
   xmlns="http://www.w3.org/2000/svg"
   xmlns:sodipodi="http://sodipodi.sourceforge.net/DTD/sodipodi-0.dtd"
   xmlns:inkscape="http://www.inkscape.org/namespaces/inkscape"
   viewBox="0 0 521.026 361.5477"
   height="361.5477"
   width="521.026"
   xml:space="preserve"
   version="1.1"
   id="svg2"
   inkscape:version="0.91 r13725"
   sodipodi:docname="pipelineCOD4Ed-2.svg"><sodipodi:namedview
     pagecolor="#ffffff"
     bordercolor="#666666"
     borderopacity="1"
     objecttolerance="10"
     gridtolerance="10"
     guidetolerance="10"
     inkscape:pageopacity="0"
     inkscape:pageshadow="2"
     inkscape:window-width="1855"
     inkscape:window-height="1056"
     id="namedview218"
     showgrid="false"
     inkscape:zoom="5.237082"
     inkscape:cx="409.81253"
     inkscape:cy="71.130766"
     inkscape:window-x="1985"
     inkscape:window-y="24"
     inkscape:window-maximized="1"
     inkscape:current-layer="svg2"
     fit-margin-left="8"
     fit-margin-top="8"
     fit-margin-right="8"
     fit-margin-bottom="8"
     showguides="true"
     inkscape:guide-bbox="true" /><metadata
     id="metadata8"><rdf:RDF><cc:Work
         rdf:about=""><dc:format>image/svg+xml</dc:format><dc:type
           rdf:resource="http://purl.org/dc/dcmitype/StillImage" /><dc:title></dc:title></cc:Work></rdf:RDF></metadata><defs
     id="defs6"><clipPath
       id="clipPath352"
       clipPathUnits="userSpaceOnUse"><path
         id="path354"
         d="m 270.578,503.129 3958.86,0 0,2774.78 -3958.86,0 0,-2774.78 z"
         inkscape:connector-curvature="0" /></clipPath><clipPath
       id="clipPath364"
       clipPathUnits="userSpaceOnUse"><path
         id="path366"
         d="m 270.578,503.129 3958.86,0 0,2774.78 -3958.86,0 0,-2774.78 z"
         inkscape:connector-curvature="0" /></clipPath><clipPath
       id="clipPath376"
       clipPathUnits="userSpaceOnUse"><path
         id="path378"
         d="m 270.578,503.129 3958.86,0 0,2774.78 -3958.86,0 0,-2774.78 z"
         inkscape:connector-curvature="0" /></clipPath><clipPath
       id="clipPath388"
       clipPathUnits="userSpaceOnUse"><path
         id="path390"
         d="m 270.578,503.129 3958.86,0 0,2774.78 -3958.86,0 0,-2774.78 z"
         inkscape:connector-curvature="0" /></clipPath></defs><text
     transform="scale(0.999995,1.000005)"
     style="font-variant:normal;font-weight:normal;font-size:10.0000248px;font-family:Helvetica;-inkscape-font-specification:Helvetica;writing-mode:lr-tb;fill:#000000;fill-opacity:1;fill-rule:nonzero;stroke:none"
     id="text34"
     x="7.640039"
     y="61.509747"><tspan
       x="7.640039 14.310057 17.640066 23.200079 28.760092 32.090099 37.650112"
       y="61.509747"
       id="tspan36">Program</tspan><tspan
       x="7.640039 13.200377 18.200716 23.76021 28.760221 34.319355 37.099361 39.319363 44.880428"
       y="73.510178"
       id="tspan38">execution</tspan><tspan
       x="7.640039 13.200377 16.529947 22.090284 27.649939"
       y="85.510117"
       id="tspan40">order</tspan><tspan
       x="7.640039 10.970049 13.190054 18.750067 21.530073 23.750082 29.310556 34.309978 37.089394 40.419727 45.979595 50.97961 53.759617 55.979618 61.539768 67.099503 72.099228"
       y="97.509567"
       id="tspan42">(in instructions)</tspan><tspan
       x="22.334467 24.554472 31.774492 34.554497 40.114506 45.674526 51.233898 54.013905 56.79417 62.353893 67.913628 71.243347 76.80307 82.362801"
       y="123.08807"
       id="tspan44">lw $10, 20($1)</tspan><tspan
       x="22.334467 27.334478 32.894489 38.454502 41.234509 46.794529 52.354542 57.914555 60.694561 63.474567 69.034584 74.594604 77.374603 80.154053 85.714394 91.277161"
       y="175.15468"
       id="tspan46">sub $11, $2, $3 </tspan><tspan
       x="22.334379 27.894716 33.455051 39.015392 41.795719 47.35606 52.915348 58.475681 61.255253 64.035583 69.595924 75.153992 77.934006 80.71434 86.274162"
       y="226.90443"
       id="tspan48">add $12, $3, $4</tspan><tspan
       x="22.334356 24.554361 31.774378 34.554382 40.114399 45.674412 51.233784 54.01379 56.794056 62.353779 67.913513 71.243233 76.802963 82.362694"
       y="279.29138"
       id="tspan50">lw $13, 24($1)</tspan></text>
<path
     id="path52"
     style="fill:none;stroke:#000000;stroke-width:0.625;stroke-linecap:butt;stroke-linejoin:miter;stroke-miterlimit:4;stroke-dasharray:none;stroke-opacity:1"
     d="m 12.750377,104.95255 0,231.85738"
     inkscape:connector-curvature="0" /><path
     id="path54"
     style="fill:#231f20;fill-opacity:1;fill-rule:nonzero;stroke:none"
     d="m 13.481877,338.49642 c 0.357375,-1.17875 0.686,-1.94775 1.065875,-2.894 l -3.6035,0 c 0.162125,0.33888 0.71,1.71525 1.066375,2.894 0.381875,1.26613 0.642625,2.41263 0.736375,3.15376 0.09275,-0.74113 0.354,-1.88763 0.734875,-3.15376"
     inkscape:connector-curvature="0" /><text
     transform="scale(0.999995,1.000005)"
     style="font-variant:normal;font-weight:normal;font-size:10.0000248px;font-family:Helvetica;-inkscape-font-specification:Helvetica;writing-mode:lr-tb;fill:#000000;fill-opacity:1;fill-rule:nonzero;stroke:none"
     id="text58"
     x="22.33449"
     y="331.6774"><tspan
       x="22.33449 27.894827 33.455162 39.015499 41.795834 47.356167 52.915455 58.475796 61.25536 64.035698 69.596039 75.154106 77.934105 80.714462 86.274269"
       y="331.6774"
       id="tspan60">add $14, $5, $6</tspan></text>
<path
     id="path62"
     style="fill:none;stroke:#000000;stroke-width:0.625;stroke-linecap:butt;stroke-linejoin:miter;stroke-miterlimit:4;stroke-dasharray:none;stroke-opacity:1"
     d="m 209.5245,13.175055 288.1325,0"
     inkscape:connector-curvature="0" /><path
     id="path64"
     style="fill:#231f20;fill-opacity:1;fill-rule:nonzero;stroke:none"
     d="m 499.34325,12.442555 c -1.18125,-0.35625 -1.9475,-0.685 -2.895,-1.065 l 0,3.60375 c 0.34,-0.16125 1.71375,-0.70875 2.895,-1.065 1.2625,-0.3825 2.41,-0.64375 3.155,-0.73625 -0.745,-0.09375 -1.8925,-0.355 -3.155,-0.7375"
     inkscape:connector-curvature="0" /><text
     transform="scale(0.999995,1.000005)"
     style="font-variant:normal;font-weight:normal;font-size:10.0000248px;font-family:Helvetica;-inkscape-font-specification:Helvetica;writing-mode:lr-tb;fill:#000000;fill-opacity:1;fill-rule:nonzero;stroke:none"
     id="text68"
     x="108.27505"
     y="15.289978"><tspan
       x="108.27505 114.38477 116.60542 124.93514 130.49542 133.27544 136.60455 138.82455 144.38411 147.16368 152.16325 154.38406 159.94379 164.94351 169.94423 172.72423 177.72424 182.72426 187.72427 189.94427 195.50429 200.51079"
       y="15.289978"
       id="tspan70">Time (in clock cycles)</tspan></text>
<path
     id="path72"
     style="fill:none;stroke:#000000;stroke-width:1.25;stroke-linecap:butt;stroke-linejoin:miter;stroke-miterlimit:4;stroke-dasharray:none;stroke-opacity:1"
     d="m 331.8345,268.79755 11.15375,0 m -105.0225,-103.92125 10.99375,0 m -121.21125,-44.99 27.47125,0 m 17.88875,-7.26625 28.32375,0 m -28.32375,12.77625 28.32375,0 m 23.2125,-5.51 23.85125,0 m 36.415,0 9.5825,0"
     inkscape:connector-curvature="0" /><path
     id="path74"
     style="fill:#80d6f7;fill-opacity:1;fill-rule:nonzero;stroke:none"
     d="m 118.397,129.34255 0,-18.7975 9.4875,0 0,18.72125 -9.4875,0.0763"
     inkscape:connector-curvature="0" /><path
     id="path76"
     style="fill:none;stroke:#000000;stroke-width:0.625;stroke-linecap:butt;stroke-linejoin:miter;stroke-miterlimit:4;stroke-dasharray:none;stroke-opacity:1"
     d="m 108.9795,129.2663 18.835,0 0,-18.8355 -18.835,0 0,18.8355 z"
     inkscape:connector-curvature="0" /><text
     transform="scale(0.999995,1.000005)"
     style="font-variant:normal;font-weight:normal;font-size:10.0000248px;font-family:Helvetica;-inkscape-font-specification:Helvetica;writing-mode:lr-tb;fill:#000000;fill-opacity:1;fill-rule:nonzero;stroke:none"
     id="text80"
     x="112.75382"
     y="123.08819"><tspan
       x="112.75382 115.53382"
       y="123.08819"
       id="tspan82">IM</tspan></text>
<path
     id="path84"
     style="fill:#80d6f7;fill-opacity:1;fill-rule:nonzero;stroke:none"
     d="m 258.0395,129.34255 0,-18.7975 9.4875,0 0,18.72125 -9.4875,0.0763"
     inkscape:connector-curvature="0" /><path
     id="path86"
     style="fill:#80d6f7;fill-opacity:1;fill-rule:nonzero;stroke:none"
     d="m 164.24325,129.28505 0,-18.7975 9.4875,0 0,18.7225 -9.4875,0.075"
     inkscape:connector-curvature="0" /><path
     id="path88"
     style="fill:none;stroke:#000000;stroke-width:0.625;stroke-linecap:butt;stroke-linejoin:miter;stroke-miterlimit:4;stroke-dasharray:none;stroke-opacity:1"
     d="m 164.0795,110.4688 9.58125,0 0,18.835 -9.4175,0"
     inkscape:connector-curvature="0" /><path
     id="path90"
     style="fill:none;stroke:#231f20;stroke-width:0.625;stroke-linecap:butt;stroke-linejoin:miter;stroke-miterlimit:4;stroke-dasharray:5.00025, 2.500125;stroke-dashoffset:0;stroke-opacity:1"
     d="m 162.8495,110.5038 -8.02875,0 0,18.765 9.4175,0"
     inkscape:connector-curvature="0" /><text
     transform="scale(0.999995,1.000005)"
     style="font-variant:normal;font-weight:normal;font-size:10.0000248px;font-family:Helvetica;-inkscape-font-specification:Helvetica;writing-mode:lr-tb;fill:#000000;fill-opacity:1;fill-rule:nonzero;stroke:none"
     id="text94"
     x="154.77026"
     y="123.08819"><tspan
       x="154.77026 161.9903 167.55159"
       y="123.08819"
       id="tspan96">Reg</tspan></text>
<path
     id="path98"
     style="fill:#80d6f7;fill-opacity:1;fill-rule:nonzero;stroke:none"
     d="m 303.902,129.2488 0,-18.76125 -9.485,0 0,18.76125 9.485,0.0388"
     inkscape:connector-curvature="0" /><path
     id="path100"
     style="fill:none;stroke:#000000;stroke-width:0.625;stroke-linecap:butt;stroke-linejoin:miter;stroke-miterlimit:4;stroke-dasharray:none;stroke-opacity:1"
     d="m 304.06575,110.4688 -9.5825,0 0,18.835 9.41875,0"
     inkscape:connector-curvature="0" /><path
     id="path102"
     style="fill:none;stroke:#231f20;stroke-width:0.625;stroke-linecap:butt;stroke-linejoin:miter;stroke-miterlimit:4;stroke-dasharray:5.00025, 2.500125;stroke-dashoffset:0;stroke-opacity:1"
     d="m 305.29575,110.5038 8.0275,0 0,18.765 -9.41625,0"
     inkscape:connector-curvature="0" /><text
     transform="scale(0.999995,1.000005)"
     style="font-variant:normal;font-weight:normal;font-size:10.0000248px;font-family:Helvetica;-inkscape-font-specification:Helvetica;writing-mode:lr-tb;fill:#000000;fill-opacity:1;fill-rule:nonzero;stroke:none"
     id="text106"
     x="294.36472"
     y="123.08819"><tspan
       x="294.36472 301.58475 307.14749"
       y="123.08819"
       id="tspan108">Reg</tspan></text>
<path
     id="path110"
     style="fill:#80d6f7;fill-opacity:1;fill-rule:nonzero;stroke:none"
     d="m 201.69575,98.702555 25.29125,13.926245 0,14.51625 -25.09375,13.9275 0,-17.26125 3.90875,-4.12125 -4.10625,-4.12 0,-16.867495"
     inkscape:connector-curvature="0" /><path
     id="path112"
     style="fill:none;stroke:#000000;stroke-width:0.625;stroke-linecap:butt;stroke-linejoin:miter;stroke-miterlimit:4;stroke-dasharray:none;stroke-opacity:1"
     d="m 150.8445,119.87755 0,-3.95875 3.76125,0 m 47.09,-17.216245 25.29125,13.926245 0,14.51625 -25.09375,13.9275 0,-17.26125 3.90875,-4.12125 -4.10625,-4.12 0,-16.867495"
     inkscape:connector-curvature="0" /><path
     id="path132"
     style="fill:none;stroke:#000000;stroke-width:1.25;stroke-linecap:butt;stroke-linejoin:miter;stroke-miterlimit:4;stroke-dasharray:none;stroke-opacity:1"
     d="m 278.807,119.82255 -11.365,0 m -92.7375,52.13375 27.4725,0 m 18.20875,-7.2675 16.92875,0 m -16.61625,12.7775 28.11625,0 m 22.2525,-5.51 24.385,0 m 36.41625,0 9.585,0"
     inkscape:connector-curvature="0" /><path
     id="path134"
     style="fill:#80d6f7;fill-opacity:1;fill-rule:nonzero;stroke:none"
     d="m 165.35325,181.4113 0,-18.7975 9.4875,0 0,18.72 -9.4875,0.0775"
     inkscape:connector-curvature="0" /><path
     id="path136"
     style="fill:#80d6f7;fill-opacity:1;fill-rule:nonzero;stroke:none"
     d="m 210.92825,181.4113 0,-18.7975 9.4875,0 0,18.72 -9.4875,0.0775"
     inkscape:connector-curvature="0" /><path
     id="path138"
     style="fill:none;stroke:#000000;stroke-width:0.625;stroke-linecap:butt;stroke-linejoin:miter;stroke-miterlimit:4;stroke-dasharray:none;stroke-opacity:1"
     d="m 174.772,181.3338 -18.83625,0 0,-18.83625 18.83625,0 0,18.83625 z m 139.645,0 -18.835,0 0,-18.83625 18.835,0 0,18.83625 z"
     inkscape:connector-curvature="0" /><text
     transform="scale(0.999995,1.000005)"
     style="font-variant:normal;font-weight:normal;font-size:10.0000248px;font-family:Helvetica;-inkscape-font-specification:Helvetica;writing-mode:lr-tb;fill:#000000;fill-opacity:1;fill-rule:nonzero;stroke:none"
     id="text142"
     x="159.71155"
     y="175.15544"><tspan
       x="159.71155 162.49155"
       y="175.15544"
       id="tspan144">IM</tspan></text>
<path
     id="path146"
     style="fill:none;stroke:#000000;stroke-width:0.625;stroke-linecap:butt;stroke-linejoin:miter;stroke-miterlimit:4;stroke-dasharray:none;stroke-opacity:1"
     d="m 211.037,162.5363 9.5825,0 0,18.83625 -9.41875,0"
     inkscape:connector-curvature="0" /><text
     transform="scale(0.999995,1.000005)"
     style="font-variant:normal;font-weight:normal;font-size:10.0000248px;font-family:Helvetica;-inkscape-font-specification:Helvetica;writing-mode:lr-tb;fill:#000000;fill-opacity:1;fill-rule:nonzero;stroke:none"
     id="text150"
     x="296.80222"
     y="175.15544"><tspan
       x="296.80222 304.02225"
       y="175.15544"
       id="tspan152">DM</tspan></text>
<path
     id="path154"
     style="fill:none;stroke:#231f20;stroke-width:0.625;stroke-linecap:butt;stroke-linejoin:miter;stroke-miterlimit:4;stroke-dasharray:5.00025, 2.500125;stroke-dashoffset:0;stroke-opacity:1"
     d="m 209.807,162.5738 -8.02875,0 0,18.76375 9.4175,0"
     inkscape:connector-curvature="0" /><text
     transform="scale(0.999995,1.000005)"
     style="font-variant:normal;font-weight:normal;font-size:10.0000248px;font-family:Helvetica;-inkscape-font-specification:Helvetica;writing-mode:lr-tb;fill:#000000;fill-opacity:1;fill-rule:nonzero;stroke:none"
     id="text158"
     x="201.72676"
     y="175.15544"><tspan
       x="201.72676 208.94678 214.50905"
       y="175.15544"
       id="tspan160">Reg</tspan></text>
<path
     id="path162"
     style="fill:#80d6f7;fill-opacity:1;fill-rule:nonzero;stroke:none"
     d="m 350.857,181.35255 0,-18.795 -9.485,0 0,18.72125 9.485,0.0738"
     inkscape:connector-curvature="0" /><path
     id="path164"
     style="fill:none;stroke:#000000;stroke-width:0.625;stroke-linecap:butt;stroke-linejoin:miter;stroke-miterlimit:4;stroke-dasharray:none;stroke-opacity:1"
     d="m 351.02325,162.5363 -9.585,0 0,18.83625 9.41875,0"
     inkscape:connector-curvature="0" /><path
     id="path166"
     style="fill:none;stroke:#231f20;stroke-width:0.625;stroke-linecap:butt;stroke-linejoin:miter;stroke-miterlimit:4;stroke-dasharray:5.00025, 2.500125;stroke-dashoffset:0;stroke-opacity:1"
     d="m 352.252,162.5738 8.02875,0 0,18.76375 -9.41875,0"
     inkscape:connector-curvature="0" /><text
     transform="scale(0.999995,1.000005)"
     style="font-variant:normal;font-weight:normal;font-size:10.0000248px;font-family:Helvetica;-inkscape-font-specification:Helvetica;writing-mode:lr-tb;fill:#000000;fill-opacity:1;fill-rule:nonzero;stroke:none"
     id="text170"
     x="341.31995"
     y="175.15419"><tspan
       x="341.31995 348.53998 354.09998"
       y="175.15419"
       id="tspan172">Reg</tspan></text>
<path
     id="path174"
     style="fill:#80d6f7;fill-opacity:1;fill-rule:nonzero;stroke:none"
     d="m 248.65575,150.7688 24.4375,13.92875 0,14.515 -24.24375,13.92625 0,-17.26125 3.91,-4.11875 -4.10375,-4.11875 0,-16.87125"
     inkscape:connector-curvature="0" /><path
     id="path176"
     style="fill:none;stroke:#000000;stroke-width:0.625;stroke-linecap:butt;stroke-linejoin:miter;stroke-miterlimit:4;stroke-dasharray:none;stroke-opacity:1"
     d="m 197.80075,171.9463 0,-3.95875 3.76125,0 m 47.09375,-17.21875 24.4375,13.92875 0,14.515 -24.24375,13.92625 0,-17.26125 3.91,-4.11875 -4.10375,-4.11875 0,-16.87125"
     inkscape:connector-curvature="0" /><path
     id="path196"
     style="fill:none;stroke:#000000;stroke-width:1.25;stroke-linecap:butt;stroke-linejoin:miter;stroke-miterlimit:4;stroke-dasharray:none;stroke-opacity:1"
     d="m 326.22575,171.8913 -11.82875,0 m -92.735,51.8125 27.4725,0 m 17.8875,5.51 15.97125,0 m 12.69875,-12.775 -28.49375,0 m 51.1475,7.265 24.065,0 m 36.415,0 9.5825,0"
     inkscape:connector-curvature="0" /><path
     id="path258"
     style="fill:none;stroke:#000000;stroke-width:1.25;stroke-linecap:butt;stroke-linejoin:miter;stroke-miterlimit:4;stroke-dasharray:none;stroke-opacity:1"
     d="m 373.187,223.64005 -11.83125,0 m -92.7375,52.45125 27.47375,0 m 17.8875,-7.26375 17.24875,0 m -17.24875,12.775 17.24875,0 m 34.3975,-5.51125 23.7425,0 m 36.41625,0 9.5825,0"
     inkscape:connector-curvature="0" /><path
     id="path288"
     style="fill:#80d6f7;fill-opacity:1;fill-rule:nonzero;stroke:none"
     d="m 295.72585,202.90755 24.43875,13.9275 0,14.51625 -24.2425,13.92388 0,-17.26138 3.91125,-4.1175 -4.1075,-4.12 0,-16.86875"
     inkscape:connector-curvature="0" /><path
     id="path260"
     style="fill:#80d6f7;fill-opacity:1;fill-rule:nonzero;stroke:none"
     d="m 212.42835,233.55005 0,-18.7975 9.485,0 0,18.7175 -9.485,0.08"
     inkscape:connector-curvature="0" /><path
     id="path262"
     style="fill:none;stroke:#000000;stroke-width:0.625;stroke-linecap:butt;stroke-linejoin:miter;stroke-miterlimit:4;stroke-dasharray:none;stroke-opacity:1"
     d="m 221.8421,233.47005 -18.83375,0 0,-18.835 18.83375,0 0,18.835 z m 139.64875,0 -18.8375,0 0,-18.835 18.8375,0 0,18.835 z"
     inkscape:connector-curvature="0" /><path
     id="path264"
     style="fill:#80d6f7;fill-opacity:1;fill-rule:nonzero;stroke:none"
     d="m 258.27335,233.49255 0,-18.79875 9.485,0 0,18.72125 -9.485,0.0775"
     inkscape:connector-curvature="0" /><path
     id="path266"
     style="fill:none;stroke:#000000;stroke-width:0.625;stroke-linecap:butt;stroke-linejoin:miter;stroke-miterlimit:4;stroke-dasharray:none;stroke-opacity:1"
     d="m 258.1121,214.6738 9.58,0 0,18.83625 -9.41875,0"
     inkscape:connector-curvature="0" /><path
     id="path268"
     style="fill:none;stroke:#231f20;stroke-width:0.625;stroke-linecap:butt;stroke-linejoin:miter;stroke-miterlimit:4;stroke-dasharray:5.00025, 2.500125;stroke-dashoffset:0;stroke-opacity:1"
     d="m 256.87835,214.7088 -8.0275,0 0,18.7675 9.42,0"
     inkscape:connector-curvature="0" /><text
     transform="scale(0.999995,1.000005)"
     style="font-variant:normal;font-weight:normal;font-size:10.0000248px;font-family:Helvetica;-inkscape-font-specification:Helvetica;writing-mode:lr-tb;fill:#000000;fill-opacity:1;fill-rule:nonzero;stroke:none"
     id="text272"
     x="248.79958"
     y="227.29077"><tspan
       x="248.79958 256.01959 261.58185"
       y="227.29077"
       id="tspan274">Reg</tspan></text>
<path
     id="path276"
     style="fill:#80d6f7;fill-opacity:1;fill-rule:nonzero;stroke:none"
     d="m 397.92835,233.49255 0,-18.79875 -9.485,0 0,18.72125 9.485,0.0775"
     inkscape:connector-curvature="0" /><path
     id="path278"
     style="fill:none;stroke:#000000;stroke-width:0.625;stroke-linecap:butt;stroke-linejoin:miter;stroke-miterlimit:4;stroke-dasharray:none;stroke-opacity:1"
     d="m 398.0921,214.6738 -9.58,0 0,18.83625 9.41625,0"
     inkscape:connector-curvature="0" /><path
     id="path280"
     style="fill:none;stroke:#231f20;stroke-width:0.625;stroke-linecap:butt;stroke-linejoin:miter;stroke-miterlimit:4;stroke-dasharray:5.00025, 2.500125;stroke-dashoffset:0;stroke-opacity:1"
     d="m 399.3221,214.7088 8.03,0 0,18.7675 -9.41875,0"
     inkscape:connector-curvature="0" /><text
     transform="scale(0.999995,1.000005)"
     style="font-variant:normal;font-weight:normal;font-size:10.0000248px;font-family:Helvetica;-inkscape-font-specification:Helvetica;writing-mode:lr-tb;fill:#000000;fill-opacity:1;fill-rule:nonzero;stroke:none"
     id="text284"
     x="388.39401"
     y="227.28952"><tspan
       x="388.39401 395.61404 401.17404"
       y="227.28952"
       id="tspan286">Reg</tspan></text>
<path
     id="path292"
     style="fill:none;stroke:#000000;stroke-width:1.25;stroke-linecap:butt;stroke-linejoin:miter;stroke-miterlimit:4;stroke-dasharray:none;stroke-opacity:1"
     d="m 338.2071,224.2838 0,13.56875 27.2625,0 0,-8.42375 4.36483,-5.30175"
     inkscape:connector-curvature="0"
     sodipodi:nodetypes="ccccc" /><path
     id="path310"
     style="fill:none;stroke:#000000;stroke-width:1.25;stroke-linecap:butt;stroke-linejoin:miter;stroke-miterlimit:4;stroke-dasharray:none;stroke-opacity:1"
     d="m 419.742,276.0263 -11.43125,0 m -92.73125,52.4525 27.4675,0 m 17.89125,-7.26363 15.96875,0 m 35.99125,7.26363 23.425,0 m 36.41625,0 9.5825,0"
     inkscape:connector-curvature="0" /><path
     id="path312"
     style="fill:#80d6f7;fill-opacity:1;fill-rule:nonzero;stroke:none"
     d="m 306.22825,337.93493 0,-18.79501 9.4825,0 0,18.71638 -9.4825,0.0786"
     inkscape:connector-curvature="0" /><path
     id="path314"
     style="fill:none;stroke:#000000;stroke-width:0.625;stroke-linecap:butt;stroke-linejoin:miter;stroke-miterlimit:4;stroke-dasharray:none;stroke-opacity:1"
     d="m 315.6445,337.8563 -18.8375,0 0,-18.8335 18.8375,0 0,18.8335 z m 139.64125,0 -18.8325,0 0,-18.8335 18.8325,0 0,18.8335 z"
     inkscape:connector-curvature="0" /><path
     id="path316"
     style="fill:#80d6f7;fill-opacity:1;fill-rule:nonzero;stroke:none"
     d="m 352.07325,337.88017 0,-18.79787 9.4875,0 0,18.71875 -9.4875,0.0791"
     inkscape:connector-curvature="0" /><path
     id="path318"
     style="fill:none;stroke:#000000;stroke-width:0.625;stroke-linecap:butt;stroke-linejoin:miter;stroke-miterlimit:4;stroke-dasharray:none;stroke-opacity:1"
     d="m 351.907,319.0613 9.5825,0 0,18.8365 -9.41625,0"
     inkscape:connector-curvature="0" /><path
     id="path320"
     style="fill:none;stroke:#231f20;stroke-width:0.625;stroke-linecap:butt;stroke-linejoin:miter;stroke-miterlimit:4;stroke-dasharray:5.00025, 2.500125;stroke-dashoffset:0;stroke-opacity:1"
     d="m 350.682,319.09755 -8.03,0 0,18.76362 9.41625,0"
     inkscape:connector-curvature="0" /><text
     transform="scale(0.999995,1.000005)"
     style="font-variant:normal;font-weight:normal;font-size:10.0000248px;font-family:Helvetica;-inkscape-font-specification:Helvetica;writing-mode:lr-tb;fill:#000000;fill-opacity:1;fill-rule:nonzero;stroke:none"
     id="text324"
     x="342.59872"
     y="331.6774"><tspan
       x="342.59872 349.81873 355.37875"
       y="331.6774"
       id="tspan326">Reg</tspan></text>
<path
     id="path328"
     style="fill:#80d6f7;fill-opacity:1;fill-rule:nonzero;stroke:none"
     d="m 491.7295,337.88017 0,-18.79637 -9.4825,0 0,18.71875 9.4825,0.0776"
     inkscape:connector-curvature="0" /><path
     id="path330"
     style="fill:none;stroke:#000000;stroke-width:0.625;stroke-linecap:butt;stroke-linejoin:miter;stroke-miterlimit:4;stroke-dasharray:none;stroke-opacity:1"
     d="m 491.8945,319.0613 -9.5825,0 0,18.8365 9.4175,0"
     inkscape:connector-curvature="0" /><path
     id="path332"
     style="fill:none;stroke:#231f20;stroke-width:0.625;stroke-linecap:butt;stroke-linejoin:miter;stroke-miterlimit:4;stroke-dasharray:5.00025, 2.500125;stroke-dashoffset:0;stroke-opacity:1"
     d="m 493.12575,319.09755 8.0275,0 0,18.76362 -9.41875,0"
     inkscape:connector-curvature="0" /><text
     transform="scale(0.999995,1.000005)"
     style="font-variant:normal;font-weight:normal;font-size:10.0000248px;font-family:Helvetica;-inkscape-font-specification:Helvetica;writing-mode:lr-tb;fill:#000000;fill-opacity:1;fill-rule:nonzero;stroke:none"
     id="text336"
     x="482.1944"
     y="331.6774"><tspan
       x="482.1944 489.41443 494.9762"
       y="331.6774"
       id="tspan338">Reg</tspan></text>
<path
     id="path340"
     style="fill:#80d6f7;fill-opacity:1;fill-rule:nonzero;stroke:none"
     d="m 389.527,307.2938 24.43875,13.92875 0,14.51362 -24.24625,13.92875 0,-17.26225 3.91125,-4.11862 -4.10375,-4.12162 0,-16.86863"
     inkscape:connector-curvature="0" /><path
     id="path342"
     style="fill:none;stroke:#000000;stroke-width:0.625;stroke-linecap:butt;stroke-linejoin:miter;stroke-miterlimit:4;stroke-dasharray:none;stroke-opacity:1"
     d="m 338.672,328.47255 0,-3.96 3.7625,0 m 47.0925,-17.21875 24.43875,13.92875 0,14.51362 -24.24625,13.92875 0,-17.26225 3.91125,-4.11862 -4.10375,-4.12162 0,-16.86863"
     inkscape:connector-curvature="0" /><path
     id="path394"
     style="fill:none;stroke:#000000;stroke-width:1.25;stroke-linecap:butt;stroke-linejoin:miter;stroke-miterlimit:4;stroke-dasharray:none;stroke-opacity:1"
     d="m 467.10075,328.41492 -11.82875,0 m -170.48375,-99.36987 11.0125,0 m 82.7475,92.12862 10.375,0 m -57.05,-39.77362 11.07625,0"
     inkscape:connector-curvature="0" /><path
     id="path410"
     style="fill:#80d6f7;fill-opacity:1;fill-rule:nonzero;stroke:none"
     d="m 258.0395,129.34255 0,-18.7975 9.4875,0 0,18.72125 -9.4875,0.0763"
     inkscape:connector-curvature="0" /><path
     id="path426"
     style="fill:none;stroke:#000000;stroke-width:0.625;stroke-linecap:butt;stroke-linejoin:miter;stroke-miterlimit:4;stroke-dasharray:none;stroke-opacity:1"
     d="m 248.62325,129.2663 18.836,0 0,-18.8355 -18.836,0 0,18.8355 z"
     inkscape:connector-curvature="0" /><text
     xml:space="preserve"
     style="font-style:normal;font-weight:normal;font-size:10px;line-height:125%;font-family:sans-serif;text-align:start;letter-spacing:0px;word-spacing:0px;writing-mode:lr-tb;text-anchor:start;opacity:0.93999999;fill:#000000;fill-opacity:1;stroke:none;stroke-width:1px;stroke-linecap:butt;stroke-linejoin:miter;stroke-opacity:1"
     x="384.76538"
     y="53.038834"
     id="text4894"
     sodipodi:linespacing="125%"><tspan
       sodipodi:role="line"
       id="tspan4304"
       x="384.76538"
       y="53.038834"
       style="font-size:7.5px">COD 4Ed, Copyright © 2009 </tspan><tspan
       sodipodi:role="line"
       x="384.76538"
       y="62.413834"
       style="font-size:7.5px"
       id="tspan4308">Elsevier, Inc. All rights reserved.</tspan><tspan
       sodipodi:role="line"
       id="tspan4306"
       x="384.76538"
       y="71.788834" /></text>
<path
     style="fill:none;fill-rule:evenodd;stroke:#000000;stroke-width:1;stroke-linecap:butt;stroke-linejoin:miter;stroke-miterlimit:4;stroke-dasharray:8, 4;stroke-dashoffset:0;stroke-opacity:1"
     d="m 140.76146,81.726874 0,277.664276"
     id="path4312"
     inkscape:connector-curvature="0" /><path
     inkscape:connector-curvature="0"
     id="path4314"
     d="m 187.83436,81.726874 0,277.664276"
     style="fill:none;fill-rule:evenodd;stroke:#000000;stroke-width:1;stroke-linecap:butt;stroke-linejoin:miter;stroke-miterlimit:4;stroke-dasharray:8, 4;stroke-dashoffset:0;stroke-opacity:1" /><path
     style="fill:none;fill-rule:evenodd;stroke:#000000;stroke-width:1;stroke-linecap:butt;stroke-linejoin:miter;stroke-miterlimit:4;stroke-dasharray:8, 4;stroke-dashoffset:0;stroke-opacity:1"
     d="m 234.90726,81.726874 0,277.664276"
     id="path4316"
     inkscape:connector-curvature="0" /><path
     inkscape:connector-curvature="0"
     id="path4318"
     d="m 281.98016,81.726874 0,277.664276"
     style="fill:none;fill-rule:evenodd;stroke:#000000;stroke-width:1;stroke-linecap:butt;stroke-linejoin:miter;stroke-miterlimit:4;stroke-dasharray:8, 4;stroke-dashoffset:0;stroke-opacity:1" /><path
     inkscape:connector-curvature="0"
     id="path4320"
     d="m 328.78761,81.726874 0,277.664276"
     style="fill:none;fill-rule:evenodd;stroke:#000000;stroke-width:1;stroke-linecap:butt;stroke-linejoin:miter;stroke-miterlimit:4;stroke-dasharray:8, 4;stroke-dashoffset:0;stroke-opacity:1" /><path
     style="fill:none;fill-rule:evenodd;stroke:#000000;stroke-width:1;stroke-linecap:butt;stroke-linejoin:miter;stroke-miterlimit:4;stroke-dasharray:8, 4;stroke-dashoffset:0;stroke-opacity:1"
     d="m 375.86051,81.726874 0,277.664276"
     id="path4322"
     inkscape:connector-curvature="0" /><path
     inkscape:connector-curvature="0"
     id="path4324"
     d="m 422.93341,81.726874 0,277.664276"
     style="fill:none;fill-rule:evenodd;stroke:#000000;stroke-width:1;stroke-linecap:butt;stroke-linejoin:miter;stroke-miterlimit:4;stroke-dasharray:8, 4;stroke-dashoffset:0;stroke-opacity:1" /><path
     style="fill:none;fill-rule:evenodd;stroke:#000000;stroke-width:1;stroke-linecap:butt;stroke-linejoin:miter;stroke-miterlimit:4;stroke-dasharray:8, 4;stroke-dashoffset:0;stroke-opacity:1"
     d="m 470.00631,81.726874 0,277.664276"
     id="path4326"
     inkscape:connector-curvature="0" /><path
     sodipodi:nodetypes="ccccc"
     inkscape:connector-curvature="0"
     d="m 431.76358,328.42604 0,13.56875 27.2625,0 0,-8.42375 4.36483,-5.30175"
     style="fill:none;stroke:#000000;stroke-width:1.25;stroke-linecap:butt;stroke-linejoin:miter;stroke-miterlimit:4;stroke-dasharray:none;stroke-opacity:1"
     id="path4328" /><path
     id="path198"
     style="fill:#80d6f7;fill-opacity:1;fill-rule:nonzero;stroke:none"
     d="m 258.73195,285.16005 0,-18.8 9.4875,0 0,18.72125 -9.4875,0.0788"
     inkscape:connector-curvature="0" /><path
     id="path200"
     style="fill:none;stroke:#000000;stroke-width:0.625;stroke-linecap:butt;stroke-linejoin:miter;stroke-miterlimit:4;stroke-dasharray:none;stroke-opacity:1"
     d="m 249.3157,285.0813 18.835,0 0,-18.8325 -18.835,0 0,18.8325 z"
     inkscape:connector-curvature="0" /><text
     transform="scale(0.999995,1.000005)"
     style="font-variant:normal;font-weight:normal;font-size:10.0000248px;font-family:Helvetica;-inkscape-font-specification:Helvetica;writing-mode:lr-tb;fill:#000000;fill-opacity:1;fill-rule:nonzero;stroke:none"
     id="text204"
     x="251.93448"
     y="278.90372"><tspan
       x="251.93448 254.71448"
       y="278.90372"
       id="tspan206">IM</tspan></text>
<path
     id="path212"
     style="fill:#80d6f7;fill-opacity:1;fill-rule:nonzero;stroke:none"
     d="m 304.5782,285.1063 0,-18.80125 9.4875,0 0,18.7225 -9.4875,0.0788"
     inkscape:connector-curvature="0" /><path
     id="path214"
     style="fill:none;stroke:#000000;stroke-width:0.625;stroke-linecap:butt;stroke-linejoin:miter;stroke-miterlimit:4;stroke-dasharray:none;stroke-opacity:1"
     d="m 304.41445,266.28755 9.5825,0 0,18.835 -9.41875,0"
     inkscape:connector-curvature="0" /><path
     id="path216"
     style="fill:none;stroke:#231f20;stroke-width:0.625;stroke-linecap:butt;stroke-linejoin:miter;stroke-miterlimit:4;stroke-dasharray:5.00025, 2.500125;stroke-dashoffset:0;stroke-opacity:1"
     d="m 303.1857,266.32005 -8.02875,0 0,18.76875 9.41875,0"
     inkscape:connector-curvature="0" /><text
     transform="scale(0.999995,1.000005)"
     style="font-variant:normal;font-weight:normal;font-size:10.0000248px;font-family:Helvetica;-inkscape-font-specification:Helvetica;writing-mode:lr-tb;fill:#000000;fill-opacity:1;fill-rule:nonzero;stroke:none"
     id="text220"
     x="295.10574"
     y="278.90372"><tspan
       x="295.10574 302.32571 307.88797"
       y="278.90372"
       id="tspan222">Reg</tspan></text>
<path
     id="path224"
     style="fill:#80d6f7;fill-opacity:1;fill-rule:nonzero;stroke:none"
     d="m 444.23695,285.1063 0,-18.80125 -9.485,0 0,18.7225 9.485,0.0788"
     inkscape:connector-curvature="0" /><path
     id="path226"
     style="fill:none;stroke:#000000;stroke-width:0.625;stroke-linecap:butt;stroke-linejoin:miter;stroke-miterlimit:4;stroke-dasharray:none;stroke-opacity:1"
     d="m 444.4007,266.28755 -9.5825,0 0,18.835 9.41875,0"
     inkscape:connector-curvature="0" /><path
     id="path228"
     style="fill:none;stroke:#231f20;stroke-width:0.625;stroke-linecap:butt;stroke-linejoin:miter;stroke-miterlimit:4;stroke-dasharray:5.00025, 2.500125;stroke-dashoffset:0;stroke-opacity:1"
     d="m 445.6332,266.32005 8.0275,0 0,18.76875 -9.41875,0"
     inkscape:connector-curvature="0" /><text
     transform="scale(0.999995,1.000005)"
     style="font-variant:normal;font-weight:normal;font-size:10.0000248px;font-family:Helvetica;-inkscape-font-specification:Helvetica;writing-mode:lr-tb;fill:#000000;fill-opacity:1;fill-rule:nonzero;stroke:none"
     id="text232"
     x="434.70013"
     y="278.90372"><tspan
       x="434.70013 441.92017 447.48016"
       y="278.90372"
       id="tspan234">Reg</tspan></text>
<path
     id="path238"
     style="fill:none;stroke:#000000;stroke-width:0.625;stroke-linecap:butt;stroke-linejoin:miter;stroke-miterlimit:4;stroke-dasharray:none;stroke-opacity:1"
     d="m 244.7595,223.69505 0,-3.95875 3.7625,0 m 47.09125,-17.21625 24.43625,13.925 0,14.5175 -24.24375,13.92375 0,-17.2575 3.90875,-4.12 -4.10125,-4.12125 0,-16.8675"
     inkscape:connector-curvature="0" /><path
     id="path292-3"
     style="fill:none;stroke:#000000;stroke-width:1.25;stroke-linecap:butt;stroke-linejoin:miter;stroke-miterlimit:4;stroke-dasharray:none;stroke-opacity:1"
     d="m 384.50403,275.88458 0,13.56875 27.2625,0 0,-8.42375 4.36483,-5.30175"
     inkscape:connector-curvature="0"
     sodipodi:nodetypes="ccccc" /><path
     id="path292-6"
     style="fill:none;stroke:#000000;stroke-width:1.25;stroke-linecap:butt;stroke-linejoin:miter;stroke-miterlimit:4;stroke-dasharray:none;stroke-opacity:1"
     d="m 244.14227,120.08773 0,13.56875 27.2625,0 0,-8.42375 4.36483,-5.30175"
     inkscape:connector-curvature="0"
     sodipodi:nodetypes="ccccc" /><path
     id="path292-7"
     style="fill:none;stroke:#000000;stroke-width:1.25;stroke-linecap:butt;stroke-linejoin:miter;stroke-miterlimit:4;stroke-dasharray:none;stroke-opacity:1"
     d="m 291.15594,172.34819 0,13.56875 27.2625,0 0,-8.42375 4.36483,-5.30175"
     inkscape:connector-curvature="0"
     sodipodi:nodetypes="ccccc" /><text
     y="227.74628"
     x="206.67062"
     id="text3541"
     style="font-variant:normal;font-weight:normal;font-size:10.0000248px;font-family:Helvetica;-inkscape-font-specification:Helvetica;writing-mode:lr-tb;fill:#000000;fill-opacity:1;fill-rule:nonzero;stroke:none"
     transform="scale(0.999995,1.000005)"><tspan
       id="tspan3543"
       y="227.74628"
       x="206.67062 209.45062">IM</tspan></text>
<text
     y="332.16733"
     x="299.93451"
     id="text3558"
     style="font-variant:normal;font-weight:normal;font-size:10.0000248px;font-family:Helvetica;-inkscape-font-specification:Helvetica;writing-mode:lr-tb;fill:#000000;fill-opacity:1;fill-rule:nonzero;stroke:none"
     transform="scale(0.999995,1.000005)"><tspan
       id="tspan3560"
       y="332.16733"
       x="299.93451 302.71448">IM</tspan></text>
<g
     inkscape:groupmode="layer"
     id="layer1"
     inkscape:label="Layer 1"
     style="display:inline"><path
       id="path208"
       style="opacity:1;fill:#80d6f7;fill-opacity:1;fill-rule:nonzero;stroke:none"
       d="m 398.1432,285.18255 0,-18.79875 9.4875,0 0,18.72375 -9.4875,0.075"
       inkscape:connector-curvature="0" /><path
       id="path236"
       style="fill:#80d6f7;fill-opacity:1;fill-rule:nonzero;stroke:none"
       d="m 342.24517,254.90213 24.43625,13.925 0,14.5175 -24.24375,13.92375 0,-17.2575 3.90875,-4.12 -4.10125,-4.12125 0,-16.8675"
       inkscape:connector-curvature="0" /><path
       id="path210"
       style="fill:none;stroke:#000000;stroke-width:0.625;stroke-linecap:butt;stroke-linejoin:miter;stroke-miterlimit:4;stroke-dasharray:none;stroke-opacity:1"
       d="m 388.9582,285.0813 18.834,0 0,-18.8325 -18.834,0 0,18.8325 z"
       inkscape:connector-curvature="0" /><path
       id="path290"
       style="fill:none;stroke:#000000;stroke-width:0.625;stroke-linecap:butt;stroke-linejoin:miter;stroke-miterlimit:4;stroke-dasharray:none;stroke-opacity:1"
       d="m 291.34596,276.08255 0,-3.95875 3.7625,0 m 47.08875,-17.21625 24.43875,13.9275 0,14.51625 -24.2425,13.92388 0,-17.26138 3.91125,-4.1175 -4.1075,-4.12 0,-16.86875"
       inkscape:connector-curvature="0" /><text
       style="font-variant:normal;font-weight:bold;font-size:9.9999752px;font-family:Helvetica;-inkscape-font-specification:Helvetica-Bold;writing-mode:lr-tb;fill:#000000;fill-opacity:1;fill-rule:nonzero;stroke:none"
       id="text398"
       x="205.9595"
       y="123.0413"><tspan
         x="205.9595 213.17949 219.29202"
         y="123.0413"
         id="tspan400">ALU</tspan><tspan
         x="252.59224 259.81223 265.92477"
         y="175.11118"
         id="tspan402">ALU</tspan><tspan
         x="299.48087 306.70084 312.81436"
         y="226.48618"
         id="tspan404">ALU</tspan><tspan
         x="346.35687 353.57684 359.69086"
         y="279.24741"
         id="tspan406">ALU</tspan><tspan
         x="393.20847 400.42847 406.54102"
         y="331.26016"
         id="tspan408">ALU</tspan></text>
<text
       transform="scale(0.999995,1.000005)"
       style="font-variant:normal;font-weight:normal;font-size:10.0000248px;font-family:Helvetica;-inkscape-font-specification:Helvetica;writing-mode:lr-tb;fill:#000000;fill-opacity:1;fill-rule:nonzero;stroke:none"
       id="text414"
       x="343.75998"
       y="226.90393"><tspan
         x="343.75998 350.97998"
         y="226.90393"
         id="tspan416">DM</tspan><tspan
         x="390.96774 398.18774"
         y="279.28989"
         id="tspan418">DM</tspan><tspan
         x="437.92551 445.14551"
         y="331.6774"
         id="tspan420">DM</tspan><tspan
         x="107.85215 115.07217 122.2922 125.0722 153.87726 161.09729 168.31729 171.09731 199.90628 207.12628 214.34631 217.1291 245.92874 253.15417 260.37418 263.15411 291.9635 299.18069 306.4007 309.18063 337.99002 345.20721 352.42722 355.20715 384.01654 391.23474 398.45474 401.23331 430.04272 437.26227 444.48227 447.26135 476.07071 483.28891 490.50891 493.28894"
         y="29.693907"
         id="tspan422">CC 1CC 2CC 3CC 4CC 5CC 6CC 7CC 8CC 9</tspan><tspan
         x="249.84256 257.06259"
         y="123.08694"
         id="tspan424">DM</tspan></text>
</g><path
     inkscape:connector-curvature="0"
     d="m 361.46205,334.03915 28.11625,0"
     style="fill:none;stroke:#000000;stroke-width:1.25;stroke-linecap:butt;stroke-linejoin:miter;stroke-miterlimit:4;stroke-dasharray:none;stroke-opacity:1"
     id="path4280"
     sodipodi:nodetypes="cc" /></svg>