<?xml version="1.0" encoding="UTF-8" standalone="no"?>
<svg
   xmlns:dc="http://purl.org/dc/elements/1.1/"
   xmlns:cc="http://creativecommons.org/ns#"
   xmlns:rdf="http://www.w3.org/1999/02/22-rdf-syntax-ns#"
   xmlns:svg="http://www.w3.org/2000/svg"
   xmlns="http://www.w3.org/2000/svg"
   xmlns:sodipodi="http://sodipodi.sourceforge.net/DTD/sodipodi-0.dtd"
   xmlns:inkscape="http://www.inkscape.org/namespaces/inkscape"
   viewBox="0 0 585.48895 327.66674"
   height="327.66675"
   width="585.48895"
   xml:space="preserve"
   version="1.1"
   id="svg2"
   inkscape:version="0.92.3 (2405546, 2018-03-11)"
   sodipodi:docname="pipelineComForward-1.svg"><sodipodi:namedview
   pagecolor="#ffffff"
   bordercolor="#666666"
   borderopacity="1"
   objecttolerance="10"
   gridtolerance="10"
   guidetolerance="10"
   inkscape:pageopacity="0"
   inkscape:pageshadow="2"
   inkscape:window-width="1920"
   inkscape:window-height="1061"
   id="namedview205"
   showgrid="false"
   inkscape:showpageshadow="false"
   fit-margin-top="8"
   fit-margin-left="8"
   fit-margin-bottom="8"
   fit-margin-right="8"
   inkscape:zoom="1.8343642"
   inkscape:cx="292.74448"
   inkscape:cy="163.83337"
   inkscape:window-x="1920"
   inkscape:window-y="0"
   inkscape:window-maximized="1"
   inkscape:current-layer="svg2"
   showguides="true"
   inkscape:guide-bbox="true" /><metadata
   id="metadata8"><rdf:RDF><cc:Work
       rdf:about=""><dc:format>image/svg+xml</dc:format><dc:type
         rdf:resource="http://purl.org/dc/dcmitype/StillImage" /><dc:title></dc:title></cc:Work></rdf:RDF></metadata><defs
   id="defs6" /><path
   id="path30"
   style="fill:none;stroke:#ff0000;stroke-width:1;stroke-linecap:butt;stroke-linejoin:miter;stroke-miterlimit:4;stroke-dasharray:none;stroke-opacity:1"
   d="m 524.44896,64.793479 h 52.54 V 287.53585 H 401.24521"
   inkscape:connector-curvature="0"
   sodipodi:nodetypes="cccc" /><path
   id="path32"
   style="fill:#ff0000;fill-opacity:1;fill-rule:nonzero;stroke:none"
   d="m 400.10021,288.1086 c 0.92,0.27638 1.51875,0.53125 2.25875,0.831 v -2.8135 c -0.26375,0.126 -1.33875,0.55225 -2.25875,0.83113 -0.98625,0.29875 -1.8825,0.50237 -2.45875,0.57512 0.57625,0.0722 1.4725,0.27588 2.45875,0.57625"
   inkscape:connector-curvature="0" /><path
   id="path34"
   style="fill:none;stroke:#ff0000;stroke-width:1;stroke-linecap:butt;stroke-linejoin:miter;stroke-miterlimit:4;stroke-dasharray:none;stroke-opacity:1"
   d="M 425.73771,46.028479 V 274.21985 h -21.08625"
   inkscape:connector-curvature="0" /><path
   id="path36"
   style="fill:#ff0000;fill-opacity:1;fill-rule:nonzero;stroke:none"
   d="m 404.64146,274.79123 c 0.92,0.27825 1.51875,0.53612 2.25875,0.832 v -2.811 c -0.26375,0.12637 -1.33875,0.55362 -2.25875,0.831 -0.98625,0.29887 -1.8825,0.50287 -2.46375,0.57375 0.58125,0.0743 1.4775,0.27637 2.46375,0.57425"
   inkscape:connector-curvature="0" /><path
   id="path38"
   style="fill:none;stroke:#ff0000;stroke-width:1;stroke-linecap:butt;stroke-linejoin:miter;stroke-miterlimit:4;stroke-dasharray:none;stroke-opacity:1"
   d="m 269.43521,17.929729 h -15.61875 v 56.38875 h 15.61875 z m 254.92,37.93375 h -15.62 v 18.615 h 15.62 z m -121.91375,-0.08125 h 15.9425 m -0.16375,-18.31 h -15.6175 v 36.85 h 15.6175 z"
   inkscape:connector-curvature="0" /><text
   transform="scale(0.999994,1.000006)"
   style="font-variant:normal;font-weight:normal;font-size:8.37046242px;line-height:0%;font-family:Helvetica;-inkscape-font-specification:Helvetica;writing-mode:lr-tb;fill:#ff0000;fill-opacity:1;fill-rule:nonzero;stroke:none"
   id="text42"
   x="406.92764"
   y="67.751823"><tspan
     x="406.92764"
     y="67.751823"
     id="tspan44"
     style="fill:#ff0000;fill-opacity:1">M</tspan><tspan
     x="403.67273 411.57446"
     y="47.665066"
     id="tspan46"
     style="fill:#ff0000;fill-opacity:1">WB</tspan><tspan
     x="509.8071 517.7088"
     y="67.428078"
     id="tspan48"
     style="fill:#ff0000;fill-opacity:1">WB</tspan></text>

<path
   id="path50"
   style="fill:none;stroke:#231f20;stroke-width:0.55803502;stroke-linecap:butt;stroke-linejoin:miter;stroke-miterlimit:4;stroke-dasharray:none;stroke-opacity:1"
   d="m 87.945584,193.24598 h -50.046 v -81.4075 h 50.046 z M 237.70271,166.55973 H 187.65646 V 85.152229 h 50.04625 z"
   inkscape:connector-curvature="0" /><path
   id="path52"
   style="fill:none;stroke:#231f20;stroke-width:0.55803502;stroke-linecap:butt;stroke-linejoin:miter;stroke-miterlimit:4;stroke-dasharray:none;stroke-opacity:1"
   d="m 327.51021,113.75473 c 0,3.4525 -2.8,6.25625 -6.26,6.25625 -3.4525,0 -6.255,-2.80375 -6.255,-6.25625 V 81.574729 c 0,-3.455 2.8025,-6.25625 6.255,-6.25625 3.46,0 6.26,2.80125 6.26,6.25625 z m 238.37125,45.48875 c 0,3.45625 -2.8025,6.255 -6.2625,6.255 -3.45125,0 -6.2525,-2.79875 -6.2525,-6.255 v -32.1775 c 0,-3.4575 2.80125,-6.2575 6.2525,-6.2575 3.46,0 6.2625,2.8 6.2625,6.2575 z"
   inkscape:connector-curvature="0" /><path
   id="path54"
   style="fill:none;stroke:#231f20;stroke-width:0.55803502;stroke-linecap:butt;stroke-linejoin:miter;stroke-miterlimit:4;stroke-dasharray:none;stroke-opacity:1"
   d="m 365.61771,92.253479 23.665,25.752501 v 26.83125 l -23.4625,25.745 v -31.9075 l 3.9925,-7.6175 -4.195,-7.61375 z M 524.30896,258.63498 H 508.77771 V 74.318479 h 15.53125 z m -106.1325,0 h -15.5325 V 74.322229 h 15.5325 z m -296.895,0 H 105.74871 V 74.322229 h 15.53275 z m 148.11125,0 h -15.5325 V 74.322229 h 15.5325 z m 58.1175,7.122 c 0,3.45512 -2.8,6.26025 -6.26,6.26025 -3.4525,0 -6.255,-2.80513 -6.255,-6.26025 v -32.1785 c 0,-3.45375 2.8025,-6.25625 6.255,-6.25625 3.46,0 6.26,2.8025 6.26,6.25625 z m 0,-86.5385 c 0,3.45375 -2.8,6.25375 -6.26,6.25375 -3.4525,0 -6.255,-2.8 -6.255,-6.25375 v -32.18375 c 0,-3.45375 2.8025,-6.25375 6.255,-6.25375 3.46,0 6.26,2.8 6.26,6.25375 z"
   inkscape:connector-curvature="0" /><path
   id="path56"
   style="fill:none;stroke:#231f20;stroke-width:0.83705252;stroke-linecap:butt;stroke-linejoin:miter;stroke-miterlimit:4;stroke-dasharray:none;stroke-opacity:1"
   d="m 237.97396,104.46598 h 11.91125"
   inkscape:connector-curvature="0" /><path
   id="path58"
   style="fill:#231f20;fill-opacity:1;fill-rule:nonzero;stroke:none"
   d="m 250.62396,103.78098 c -1.10625,-0.3325 -1.82375,-0.64125 -2.71125,-0.9975 v 3.37375 c 0.3175,-0.15 1.605,-0.6625 2.71125,-0.9975 1.18375,-0.3575 2.2575,-0.60125 2.9525,-0.68875 -0.695,-0.0887 -1.76875,-0.3325 -2.9525,-0.69"
   inkscape:connector-curvature="0" /><path
   id="path60"
   style="fill:none;stroke:#231f20;stroke-width:0.83705252;stroke-linecap:butt;stroke-linejoin:miter;stroke-miterlimit:4;stroke-dasharray:none;stroke-opacity:1"
   d="m 237.97396,148.55598 h 11.91125"
   inkscape:connector-curvature="0" /><path
   id="path62"
   style="fill:#231f20;fill-opacity:1;fill-rule:nonzero;stroke:none"
   d="m 250.70146,147.87098 c -1.10625,-0.33375 -1.825,-0.64 -2.7125,-0.9975 v 3.37375 c 0.31875,-0.15125 1.60625,-0.6625 2.7125,-0.9975 1.18375,-0.3575 2.255,-0.60125 2.95125,-0.68875 -0.69625,-0.0875 -1.7675,-0.33125 -2.95125,-0.69"
   inkscape:connector-curvature="0" /><path
   id="path64"
   style="fill:none;stroke:#231f20;stroke-width:0.83705252;stroke-linecap:butt;stroke-linejoin:miter;stroke-miterlimit:4;stroke-dasharray:none;stroke-opacity:1"
   d="m 327.51021,97.807229 h 33.88375"
   inkscape:connector-curvature="0" /><path
   id="path66"
   style="fill:#231f20;fill-opacity:1;fill-rule:nonzero;stroke:none"
   d="m 362.44896,97.122229 c -1.10625,-0.33375 -1.82375,-0.64125 -2.71,-0.9975 v 3.37375 c 0.3175,-0.15 1.60375,-0.6625 2.71,-0.9975 1.18375,-0.3575 2.25875,-0.6025 2.95375,-0.69 -0.695,-0.08625 -1.77,-0.33125 -2.95375,-0.68875"
   inkscape:connector-curvature="0" /><path
   id="path68"
   style="fill:none;stroke:#231f20;stroke-width:0.83705252;stroke-linecap:butt;stroke-linejoin:miter;stroke-miterlimit:4;stroke-dasharray:none;stroke-opacity:1"
   d="m 327.51021,164.09098 h 33.88375"
   inkscape:connector-curvature="0" /><path
   id="path70"
   style="fill:#231f20;fill-opacity:1;fill-rule:nonzero;stroke:none"
   d="m 362.50021,163.40598 c -1.10625,-0.33375 -1.82375,-0.64125 -2.71,-0.99875 v 3.375 c 0.315,-0.1525 1.60375,-0.665 2.71,-0.99875 1.18375,-0.35625 2.25625,-0.60125 2.95125,-0.68875 -0.695,-0.0875 -1.7675,-0.3325 -2.95125,-0.68875"
   inkscape:connector-curvature="0" /><path
   id="path72"
   style="fill:none;stroke:#231f20;stroke-width:0.83705252;stroke-linecap:butt;stroke-linejoin:miter;stroke-miterlimit:4;stroke-dasharray:none;stroke-opacity:1"
   d="m 389.23146,131.37098 h 9.1525"
   inkscape:connector-curvature="0" /><path
   id="path74"
   style="fill:#231f20;fill-opacity:1;fill-rule:nonzero;stroke:none"
   d="m 399.44146,130.68473 c -1.10625,-0.3325 -1.82375,-0.64125 -2.71,-0.9975 v 3.375 c 0.315,-0.15125 1.60375,-0.6625 2.71,-0.9975 1.18375,-0.36 2.25625,-0.6025 2.95125,-0.69 -0.695,-0.0875 -1.7675,-0.3325 -2.95125,-0.69"
   inkscape:connector-curvature="0" /><path
   id="path76"
   style="fill:none;stroke:#231f20;stroke-width:0.83705252;stroke-linecap:butt;stroke-linejoin:miter;stroke-miterlimit:4;stroke-dasharray:none;stroke-opacity:1"
   d="m 418.63521,131.37098 h 22.26125"
   inkscape:connector-curvature="0" /><path
   id="path78"
   style="fill:#231f20;fill-opacity:1;fill-rule:nonzero;stroke:none"
   d="m 441.41896,130.51473 c -1.385,-0.4175 -2.2825,-0.8025 -3.39125,-1.2475 v 4.21625 c 0.3975,-0.1875 2.00625,-0.82875 3.39125,-1.245 1.47625,-0.44875 2.82,-0.75375 3.68875,-0.86375 -0.86875,-0.10875 -2.2125,-0.41375 -3.68875,-0.86"
   inkscape:connector-curvature="0" /><path
   id="path80"
   style="fill:none;stroke:#231f20;stroke-width:0.83705252;stroke-linecap:butt;stroke-linejoin:miter;stroke-miterlimit:4;stroke-dasharray:none;stroke-opacity:1"
   d="m 418.17646,197.97098 h 22.26125"
   inkscape:connector-curvature="0" /><path
   id="path82"
   style="fill:#231f20;fill-opacity:1;fill-rule:nonzero;stroke:none"
   d="m 440.96021,197.11598 c -1.3825,-0.41875 -2.28125,-0.80125 -3.38875,-1.2475 v 4.2175 c 0.395,-0.18875 2.00625,-0.83 3.38875,-1.2475 1.47875,-0.4475 2.82,-0.7525 3.69125,-0.86125 -0.87125,-0.11125 -2.2125,-0.415 -3.69125,-0.86125"
   inkscape:connector-curvature="0" /><path
   id="path84"
   style="fill:none;stroke:#231f20;stroke-width:0.83705252;stroke-linecap:butt;stroke-linejoin:miter;stroke-miterlimit:4;stroke-dasharray:none;stroke-opacity:1"
   d="m 489.38021,131.37098 h 14.6875"
   inkscape:connector-curvature="0" /><path
   id="path86"
   style="fill:#231f20;fill-opacity:1;fill-rule:nonzero;stroke:none"
   d="m 504.82896,130.51473 c -1.38125,-0.4175 -2.28,-0.8025 -3.38875,-1.2475 v 4.21625 c 0.39625,-0.1875 2.0075,-0.82875 3.38875,-1.245 1.48,-0.44875 2.82,-0.75375 3.69,-0.86375 -0.87,-0.10875 -2.21,-0.41375 -3.69,-0.86"
   inkscape:connector-curvature="0" /><path
   id="path88"
   style="fill:none;stroke:#231f20;stroke-width:0.83705252;stroke-linecap:butt;stroke-linejoin:miter;stroke-miterlimit:4;stroke-dasharray:none;stroke-opacity:1"
   d="m 524.59271,131.37098 h 23.30125"
   inkscape:connector-curvature="0" /><path
   id="path90"
   style="fill:#231f20;fill-opacity:1;fill-rule:nonzero;stroke:none"
   d="m 549.86646,130.51473 c -1.3825,-0.4175 -2.28125,-0.8025 -3.38875,-1.2475 v 4.21625 c 0.3975,-0.1875 2.00625,-0.82875 3.38875,-1.245 1.47875,-0.44875 2.82125,-0.75375 3.69125,-0.86375 -0.87,-0.10875 -2.2125,-0.41375 -3.69125,-0.86"
   inkscape:connector-curvature="0" /><path
   id="path92"
   style="fill:none;stroke:#231f20;stroke-width:0.83705252;stroke-linecap:butt;stroke-linejoin:miter;stroke-miterlimit:4;stroke-dasharray:none;stroke-opacity:1"
   d="m 524.59271,218.46848 h 16.08875 v -59.36125 h 7.76625"
   inkscape:connector-curvature="0" /><path
   id="path94"
   style="fill:#231f20;fill-opacity:1;fill-rule:nonzero;stroke:none"
   d="m 549.52146,158.25223 c -1.38375,-0.4175 -2.28,-0.8025 -3.38875,-1.24875 v 4.2175 c 0.39625,-0.18875 2.005,-0.83 3.38875,-1.24625 1.48,-0.4475 2.82,-0.7525 3.69125,-0.8625 -0.87125,-0.11 -2.21125,-0.41375 -3.69125,-0.86"
   inkscape:connector-curvature="0" /><text
   transform="scale(0.999994,1.000006)"
   style="font-variant:normal;font-weight:bold;font-size:8.37046242px;line-height:0%;font-family:Helvetica;-inkscape-font-specification:Helvetica-Bold;writing-mode:lr-tb;fill:#231f20;fill-opacity:1;fill-rule:nonzero;stroke:none"
   id="text98"
   x="193.60637"
   y="128.69771"><tspan
     x="193.60637 199.64984 204.30382 209.41818 211.74516 216.39914 219.18651 223.84048 227.1017"
     y="128.69771"
     id="tspan100">Registers</tspan><tspan
     x="41.297283 43.623966 48.738815 53.393063 56.180008 59.436329 64.550362 69.204338 71.991699 74.318695 79.430824"
     y="150.16832"
     id="tspan102">Instruction</tspan><tspan
     x="46.641586 54.082928 58.736908 66.177849 71.292702 74.548401"
     y="160.21318"
     id="tspan104">memory</tspan><tspan
     x="317.76758"
     y="92.511475"
     id="tspan106">M</tspan><tspan
     x="318.69727"
     y="100.88203"
     id="tspan108">u</tspan><tspan
     x="318.92627"
     y="109.25209"
     id="tspan110">x</tspan><tspan
     x="556.13983"
     y="136.67717"
     id="tspan112">M</tspan><tspan
     x="557.07001"
     y="145.04674"
     id="tspan114">u</tspan><tspan
     x="557.29858"
     y="153.41681"
     id="tspan116">x</tspan><tspan
     x="317.76749"
     y="156.64824"
     id="tspan118">M</tspan><tspan
     x="318.69717"
     y="165.01781"
     id="tspan120">u</tspan><tspan
     x="318.92618"
     y="173.38934"
     id="tspan122">x</tspan><tspan
     x="317.76749"
     y="244.51392"
     id="tspan124">M</tspan><tspan
     x="318.69717"
     y="252.88397"
     id="tspan126">u</tspan><tspan
     x="318.92618"
     y="261.25504"
     id="tspan128">x</tspan></text>

<path
   id="path138"
   style="fill:none;stroke:#231f20;stroke-width:0.83705252;stroke-linecap:butt;stroke-linejoin:miter;stroke-miterlimit:4;stroke-dasharray:none;stroke-opacity:1"
   d="M 295.54275,310.92735 H 178.05396 V 162.99098 h 5.1775"
   inkscape:connector-curvature="0"
   sodipodi:nodetypes="cccc" /><path
   id="path140"
   style="fill:#231f20;fill-opacity:1;fill-rule:nonzero;stroke:none"
   d="m 184.51271,162.30473 c -1.105,-0.33375 -1.82375,-0.64 -2.71,-0.9975 v 3.37375 c 0.3175,-0.14875 1.605,-0.6625 2.71,-0.9975 1.18375,-0.3575 2.2575,-0.60125 2.95375,-0.68875 -0.69625,-0.0875 -1.77,-0.33125 -2.95375,-0.69"
   inkscape:connector-curvature="0" /><path
   id="path142"
   style="fill:none;stroke:#231f20;stroke-width:0.83705252;stroke-linecap:butt;stroke-linejoin:miter;stroke-miterlimit:4;stroke-dasharray:none;stroke-opacity:1"
   d="m 131.38396,93.462229 h 51.40875"
   inkscape:connector-curvature="0" /><path
   id="path144"
   style="fill:#231f20;fill-opacity:1;fill-rule:nonzero;stroke:none"
   d="m 184.37271,92.777229 c -1.10625,-0.33375 -1.825,-0.64125 -2.7125,-0.99875 v 3.375 c 0.31875,-0.15125 1.60625,-0.66375 2.7125,-0.9975 1.1825,-0.3575 2.255,-0.6025 2.95125,-0.69 -0.69625,-0.0875 -1.76875,-0.33125 -2.95125,-0.68875"
   inkscape:connector-curvature="0" /><path
   id="path154"
   style="fill:none;stroke:#231f20;stroke-width:0.83705252;stroke-linecap:butt;stroke-linejoin:miter;stroke-miterlimit:4;stroke-dasharray:none;stroke-opacity:1"
   d="m 182.79271,139.51723 h -21.4 v 179.731 h 308.725 V 280.6911"
   inkscape:connector-curvature="0" /><path
   id="path156"
   style="fill:#231f20;fill-opacity:1;fill-rule:nonzero;stroke:none"
   d="m 184.37271,138.83098 c -1.10625,-0.33375 -1.825,-0.64125 -2.7125,-0.9975 v 3.37375 c 0.31875,-0.15125 1.60625,-0.66375 2.7125,-0.9975 1.1825,-0.3575 2.255,-0.60125 2.95125,-0.69 -0.69625,-0.0875 -1.76875,-0.33125 -2.95125,-0.68875"
   inkscape:connector-curvature="0" /><path
   id="path158"
   style="fill:none;stroke:#231f20;stroke-width:0.83705252;stroke-linecap:butt;stroke-linejoin:miter;stroke-miterlimit:4;stroke-dasharray:none;stroke-opacity:1"
   d="m 131.38396,116.48848 h 51.40875"
   inkscape:connector-curvature="0" /><path
   id="path160"
   style="fill:#231f20;fill-opacity:1;fill-rule:nonzero;stroke:none"
   d="m 184.37271,115.80348 c -1.10625,-0.335 -1.825,-0.64125 -2.7125,-0.99875 v 3.375 c 0.31875,-0.15125 1.60625,-0.66375 2.7125,-0.99875 1.1825,-0.3575 2.255,-0.60125 2.95125,-0.68875 -0.69625,-0.0875 -1.76875,-0.33125 -2.95125,-0.68875"
   inkscape:connector-curvature="0" /><path
   id="path162"
   style="fill:none;stroke:#231f20;stroke-width:0.83705252;stroke-linecap:butt;stroke-linejoin:miter;stroke-miterlimit:4;stroke-dasharray:none;stroke-opacity:1"
   d="m 327.51021,250.36735 h 71.1525"
   inkscape:connector-curvature="0" /><path
   id="path164"
   style="fill:#231f20;fill-opacity:1;fill-rule:nonzero;stroke:none"
   d="m 399.44146,249.68223 c -1.10625,-0.33388 -1.82375,-0.641 -2.7125,-0.9975 v 3.3735 c 0.3175,-0.14988 1.60625,-0.665 2.7125,-0.9975 1.18375,-0.3575 2.25625,-0.60213 2.95125,-0.6885 -0.695,-0.0874 -1.7675,-0.334 -2.95125,-0.69"
   inkscape:connector-curvature="0" /><path
   id="path166"
   style="fill:none;stroke:#231fff;stroke-width:0.837;stroke-linecap:butt;stroke-linejoin:miter;stroke-miterlimit:4;stroke-dasharray:none;stroke-opacity:1"
   d="M 430.28146,131.64598 V 300.84736 H 302.13396 V 112.78598 h 8.68375"
   inkscape:connector-curvature="0" /><path
   id="path168"
   style="fill:#231fff;fill-opacity:1;fill-rule:nonzero;stroke:none"
   d="m 311.99021,112.10098 c -1.10625,-0.33375 -1.82375,-0.64125 -2.71,-0.99875 v 3.375 c 0.3175,-0.15125 1.60375,-0.66375 2.71,-0.9975 1.18375,-0.35875 2.25625,-0.6025 2.95375,-0.69 -0.6975,-0.0887 -1.77,-0.33125 -2.95375,-0.68875"
   inkscape:connector-curvature="0" /><path
   id="path170"
   style="fill:none;stroke:#231f20;stroke-width:0.83705252;stroke-linecap:butt;stroke-linejoin:miter;stroke-miterlimit:4;stroke-dasharray:none;stroke-opacity:1"
   d="M 295.47646,310.8361 V 98.359729 h 14.785"
   inkscape:connector-curvature="0" /><path
   id="path172"
   style="fill:#237f20;fill-opacity:1;fill-rule:nonzero;stroke:none"
   d="m 311.84146,97.674729 c -1.10625,-0.33375 -1.82375,-0.64125 -2.7125,-0.9975 v 3.373751 c 0.32,-0.150001 1.60625,-0.663751 2.7125,-0.997501 1.18375,-0.3575 2.2575,-0.6025 2.95125,-0.68875 -0.69375,-0.08875 -1.7675,-0.33125 -2.95125,-0.69"
   inkscape:connector-curvature="0" /><path
   id="path174"
   style="fill:none;stroke:#231f20;stroke-width:0.83705252;stroke-linecap:butt;stroke-linejoin:miter;stroke-miterlimit:4;stroke-dasharray:none;stroke-opacity:1"
   d="m 430.28146,218.46848 h 73.78625"
   inkscape:connector-curvature="0" /><path
   id="path176"
   style="fill:#231f20;fill-opacity:1;fill-rule:nonzero;stroke:none"
   d="m 505.03021,217.61223 c -1.3825,-0.4175 -2.28125,-0.8025 -3.39125,-1.2475 v 4.21875 c 0.4,-0.18875 2.00875,-0.83 3.39125,-1.2475 1.47875,-0.44875 2.81875,-0.75375 3.69125,-0.86125 -0.8725,-0.11125 -2.2125,-0.41625 -3.69125,-0.8625"
   inkscape:connector-curvature="0" /><path
   id="path178"
   style="fill:none;stroke:#231f20;stroke-width:0.83705252;stroke-linecap:butt;stroke-linejoin:miter;stroke-miterlimit:4;stroke-dasharray:none;stroke-opacity:1"
   d="m 418.07896,242.04348 h 86.54"
   inkscape:connector-curvature="0" /><path
   id="path180"
   style="fill:#231f20;fill-opacity:1;fill-rule:nonzero;stroke:none"
   d="m 505.02271,241.18598 c -1.385,-0.41625 -2.28125,-0.8 -3.39125,-1.2475 v 4.21875 c 0.3975,-0.18875 2.00625,-0.82875 3.39125,-1.2475 1.47875,-0.44625 2.82,-0.75125 3.68875,-0.8625 -0.86875,-0.1075 -2.21,-0.4125 -3.68875,-0.86125"
   inkscape:connector-curvature="0" /><path
   id="path182"
   style="fill:none;stroke:#237f20;stroke-width:0.83705252;stroke-linecap:butt;stroke-linejoin:miter;stroke-miterlimit:4;stroke-dasharray:none;stroke-opacity:1"
   d="m 294.92271,164.37848 h 15.58093"
   inkscape:connector-curvature="0"
   sodipodi:nodetypes="cc" /><path
   id="path184"
   style="fill:#237f20;fill-opacity:1;fill-rule:nonzero;stroke:none"
   d="m 312.29509,163.69223 c -1.10625,-0.33375 -1.82375,-0.64 -2.71,-0.99625 v 3.37375 c 0.3175,-0.15125 1.60375,-0.66375 2.71,-0.99875 1.18375,-0.3575 2.25875,-0.60125 2.95375,-0.68875 -0.695,-0.0875 -1.77,-0.33125 -2.95375,-0.69"
   inkscape:connector-curvature="0" /><path
   id="path186"
   style="fill:none;stroke:#231f20;stroke-width:0.83705252;stroke-linecap:butt;stroke-linejoin:miter;stroke-miterlimit:4;stroke-dasharray:none;stroke-opacity:1"
   d="m 269.29146,148.84598 h 41.67878"
   inkscape:connector-curvature="0"
   sodipodi:nodetypes="cc" /><path
   id="path188"
   style="fill:#231f20;fill-opacity:1;fill-rule:nonzero;stroke:none"
   d="m 312.33955,148.16098 c -1.10625,-0.335 -1.82625,-0.6425 -2.7125,-0.99875 v 3.37375 c 0.32,-0.15 1.60625,-0.6625 2.7125,-0.99625 1.18375,-0.35875 2.25875,-0.6025 2.95125,-0.69125 -0.6925,-0.0863 -1.7675,-0.33125 -2.95125,-0.6875"
   inkscape:connector-curvature="0" /><path
   id="path190"
   style="fill:none;stroke:#231fff;stroke-width:0.83705252;stroke-linecap:butt;stroke-linejoin:miter;stroke-miterlimit:4;stroke-dasharray:none;stroke-opacity:1"
   d="m 301.58021,178.24723 h 9.02304"
   inkscape:connector-curvature="0"
   sodipodi:nodetypes="cc" /><path
   id="path192"
   style="fill:#231fff;fill-opacity:1;fill-rule:nonzero;stroke:none"
   d="m 312.32842,177.56223 c -1.10625,-0.33375 -1.82375,-0.6425 -2.7125,-0.9975 v 3.37375 c 0.3175,-0.15125 1.60625,-0.66375 2.7125,-0.9975 1.18125,-0.35875 2.25625,-0.6025 2.95125,-0.68875 -0.695,-0.0888 -1.77,-0.3325 -2.95125,-0.69"
   inkscape:connector-curvature="0" /><text
   transform="scale(0.999994,1.000006)"
   style="font-variant:normal;font-weight:bold;font-size:8.37046242px;line-height:0%;font-family:Helvetica;-inkscape-font-specification:Helvetica-Bold;writing-mode:lr-tb;fill:#231f20;fill-opacity:1;fill-rule:nonzero;stroke:none"
   id="text196"
   x="370.72617"
   y="134.26143"><tspan
     x="370.72617 376.77002 381.88492"
     y="134.26143"
     id="tspan198">ALU</tspan></text>

<text
   transform="scale(0.999994,1.000006)"
   style="font-variant:normal;font-weight:normal;font-size:8.37046242px;line-height:0%;font-family:Helvetica;-inkscape-font-specification:Helvetica;writing-mode:lr-tb;fill:#231f20;fill-opacity:1;fill-rule:nonzero;stroke:none"
   id="text200"
   x="250.69447"
   y="14.102019"><tspan
     x="250.69447 253.02177 259.06555 261.3923 266.97537"
     y="14.102019"
     id="tspan202">ID/EX</tspan><tspan
     x="393.90649 399.49008 405.07245 407.39929 414.37189 419.95306"
     y="32.682034"
     id="tspan204">EX/MEM</tspan><tspan
     x="498.87985 505.85245 511.43555 518.40814 520.73499 528.63556"
     y="51.973919"
     id="tspan206">MEM/WB</tspan></text>

<path
   id="path208"
   style="fill:none;stroke:#ff0000;stroke-width:1;stroke-linecap:butt;stroke-linejoin:miter;stroke-miterlimit:4;stroke-dasharray:none;stroke-opacity:1"
   d="m 401.99521,275.60948 c 0,8.57375 -5.90375,15.53275 -13.17875,15.53275 h -23.0225 c -7.2775,0 -13.17625,-6.959 -13.17625,-15.53275 0,-8.5825 5.89875,-15.53213 13.17625,-15.53213 h 23.0225 c 7.275,0 13.17875,6.94963 13.17875,15.53213 z"
   inkscape:connector-curvature="0" /><text
   transform="scale(0.999994,1.000006)"
   style="font-variant:normal;font-weight:normal;font-size:8.37046242px;line-height:0%;font-family:Helvetica;-inkscape-font-specification:Helvetica;writing-mode:lr-tb;fill:#ff0000;fill-opacity:1;fill-rule:nonzero;stroke:none"
   id="text212"
   x="356.37732"
   y="273.27936"><tspan
     x="356.37732 361.49219 366.14557 368.93265 374.9765 379.63086 382.41858 387.07294 388.93027 393.58994"
     y="273.27936"
     id="tspan214"
     style="fill:#ff0000;fill-opacity:1">Forwarding</tspan><tspan
     x="370.56 375.2146 379.86792 381.72607"
     y="283.32324"
     id="tspan216"
     style="fill:#ff0000;fill-opacity:1">unit</tspan></text>

<path
   id="path218"
   style="fill:none;stroke:#231f20;stroke-width:0.83705252;stroke-linecap:butt;stroke-linejoin:miter;stroke-miterlimit:4;stroke-dasharray:none;stroke-opacity:1"
   d="m 269.37896,252.30973 h 40.61625"
   inkscape:connector-curvature="0" /><path
   id="path220"
   style="fill:#231f20;fill-opacity:1;fill-rule:nonzero;stroke:none"
   d="m 311.67771,251.62473 c -1.10625,-0.335 -1.82625,-0.64263 -2.7125,-0.99863 v 3.37263 c 0.32,-0.149 1.60625,-0.66263 2.7125,-0.99413 1.18375,-0.36137 2.25625,-0.60362 2.95125,-0.691 -0.695,-0.0889 -1.7675,-0.3315 -2.95125,-0.68887"
   inkscape:connector-curvature="0" /><path
   id="path222"
   style="fill:none;stroke:#231f20;stroke-width:0.83705252;stroke-linecap:butt;stroke-linejoin:miter;stroke-miterlimit:4;stroke-dasharray:none;stroke-opacity:1"
   d="m 269.37896,240.66098 h 40.74625"
   inkscape:connector-curvature="0" /><path
   id="path224"
   style="fill:#231f20;fill-opacity:1;fill-rule:nonzero;stroke:none"
   d="m 311.74396,239.97473 c -1.10625,-0.33375 -1.82625,-0.64125 -2.7125,-0.9975 v 3.37375 c 0.3175,-0.15 1.60625,-0.6625 2.7125,-0.9975 1.18125,-0.35875 2.255,-0.60125 2.95125,-0.69 -0.69625,-0.0875 -1.77,-0.33125 -2.95125,-0.68875"
   inkscape:connector-curvature="0" /><path
   id="path226"
   style="fill:none;stroke:#231f20;stroke-width:0.83705252;stroke-linecap:butt;stroke-linejoin:miter;stroke-miterlimit:4;stroke-dasharray:none;stroke-opacity:1"
   d="m 269.37896,220.13098 h 19.99375 v 53.8125 h 59.63875"
   inkscape:connector-curvature="0" /><path
   id="path228"
   style="fill:#231f20;fill-opacity:1;fill-rule:nonzero;stroke:none"
   d="m 349.56146,273.25848 c -1.10625,-0.335 -1.82375,-0.64263 -2.7125,-0.99763 v 3.37263 c 0.31875,-0.15138 1.60625,-0.66263 2.7125,-0.9985 1.18375,-0.358 2.2575,-0.60013 2.95125,-0.689 -0.69375,-0.0874 -1.7675,-0.33113 -2.95125,-0.6875"
   inkscape:connector-curvature="0" /><path
   id="path230"
   style="fill:none;stroke:#231f20;stroke-width:0.83705252;stroke-linecap:butt;stroke-linejoin:miter;stroke-miterlimit:4;stroke-dasharray:none;stroke-opacity:1"
   d="m 269.37896,231.22598 h 13.80125 v 50.48262 h 66.1075"
   inkscape:connector-curvature="0" /><path
   id="path232"
   style="fill:#231f20;fill-opacity:1;fill-rule:nonzero;stroke:none"
   d="m 350.48146,281.02598 c -1.10625,-0.33638 -1.82625,-0.644 -2.7125,-1 v 3.37362 c 0.3175,-0.14987 1.60625,-0.66262 2.7125,-0.99762 1.18125,-0.35738 2.25625,-0.601 2.95125,-0.6885 -0.695,-0.0874 -1.77,-0.3325 -2.95125,-0.6875"
   inkscape:connector-curvature="0" /><path
   id="path234"
   style="fill:none;stroke:#231f20;stroke-width:0.83705252;stroke-linecap:butt;stroke-linejoin:miter;stroke-miterlimit:4;stroke-dasharray:none;stroke-opacity:1"
   d="M 421.96021,242.59848 V 267.5661 H 405.87396"
   inkscape:connector-curvature="0" /><path
   id="path236"
   style="fill:#231f20;fill-opacity:1;fill-rule:nonzero;stroke:none"
   d="m 403.24271,268.2521 c 1.10625,0.334 1.82375,0.64113 2.71,0.99763 v -3.37363 c -0.315,0.15088 -1.60375,0.66363 -2.71,0.99713 -1.18375,0.35787 -2.25625,0.6015 -2.95125,0.69037 0.695,0.0874 1.7675,0.33113 2.95125,0.6885"
   inkscape:connector-curvature="0" /><path
   id="path238"
   style="fill:none;stroke:#231f20;stroke-width:0.83705252;stroke-linecap:butt;stroke-linejoin:miter;stroke-miterlimit:4;stroke-dasharray:none;stroke-opacity:1"
   d="m 524.59271,242.59848 h 14.42375 v 37.724 h -132.5875"
   inkscape:connector-curvature="0" /><path
   id="path240"
   style="fill:#231f20;fill-opacity:1;fill-rule:nonzero;stroke:none"
   d="m 404.55396,281.00598 c 1.105,0.3335 1.82625,0.64362 2.7125,0.99862 v -3.37262 c -0.3175,0.149 -1.6075,0.66262 -2.7125,0.99512 -1.185,0.35888 -2.25625,0.604 -2.9525,0.69 0.69625,0.0864 1.7675,0.3325 2.9525,0.68888"
   inkscape:connector-curvature="0" /><path
   id="path242"
   style="fill:none;stroke:#ff0000;stroke-width:1;stroke-linecap:butt;stroke-linejoin:miter;stroke-miterlimit:4;stroke-dasharray:none;stroke-opacity:1"
   d="m 359.57271,262.01485 h -10.505 V 129.42723 h -28.26375 v -5.5475"
   inkscape:connector-curvature="0"
   sodipodi:nodetypes="ccccc" /><path
   id="path244"
   style="fill:#ff0000;fill-opacity:1;fill-rule:nonzero;stroke:none"
   d="m 320.23271,122.56348 c -0.27875,0.9225 -0.535,1.52125 -0.8325,2.25875 h 2.8125 c -0.1275,-0.2625 -0.5525,-1.33625 -0.8325,-2.25875 -0.29875,-0.98625 -0.50125,-1.88125 -0.57375,-2.46125 -0.0737,0.58 -0.27625,1.475 -0.57375,2.46125"
   inkscape:connector-curvature="0" /><path
   id="path246"
   style="fill:none;stroke:#ff0000;stroke-width:1;stroke-linecap:butt;stroke-linejoin:miter;stroke-miterlimit:4;stroke-dasharray:none;stroke-opacity:1"
   d="m 354.28271,267.5661 h -14.98 v -54.57512 h -17.9475 v -23.09375"
   inkscape:connector-curvature="0"
   sodipodi:nodetypes="ccccc" /><path
   id="path248"
   style="fill:#ff0000;fill-opacity:1;fill-rule:nonzero;stroke:none"
   d="m 320.78646,188.58098 c -0.27875,0.92125 -0.535,1.52 -0.8325,2.2575 h 2.8125 c -0.1275,-0.2625 -0.55375,-1.33625 -0.83,-2.2575 -0.3,-0.98625 -0.5025,-1.88125 -0.57625,-2.46125 -0.0738,0.58 -0.27625,1.475 -0.57375,2.46125"
   inkscape:connector-curvature="0" /><text
   transform="scale(0.999994,1.000006)"
   style="font-variant:normal;font-weight:normal;font-size:8.37046242px;line-height:0%;font-family:Helvetica;-inkscape-font-specification:Helvetica;writing-mode:lr-tb;fill:#231f20;fill-opacity:1;fill-rule:nonzero;stroke:none"
   id="text252"
   x="433.01529"
   y="237.60455"><tspan
     x="433.01529 438.43042 443.84677 446.00659 452.8121 458.22723 465.03275 467.19171 473.06833 477.55444 482.04037 483.7312 487.74979 489.90933 494.39542 497.01514 502.89175"
     y="237.60455"
     id="tspan254">EX/MEM.RegisterRd</tspan><tspan
     x="433.01517 439.98776 445.57086 452.54346 454.87183 462.77353 468.35599 470.68146 476.72531 481.37967 486.03326 487.89145 492.0773 494.40399 499.05658 501.84473 507.89304"
     y="275.32648"
     id="tspan256">MEM/WB.RegisterRd</tspan><tspan
     x="270.86197 276.90543"
     y="216.58556"
     id="tspan258">Rs</tspan><tspan
     x="271.77603 277.81952"
     y="228.18314"
     id="tspan260">Rt</tspan><tspan
     x="271.77603 277.81952"
     y="238.82907"
     id="tspan262">Rt</tspan><tspan
     x="270.63199 276.67548"
     y="249.65907"
     id="tspan264">Rd</tspan></text>

<path
   id="path274"
   style="fill:none;stroke:#231f20;stroke-width:0.55803502;stroke-linecap:butt;stroke-linejoin:miter;stroke-miterlimit:4;stroke-dasharray:none;stroke-opacity:1"
   d="M 8.2790175,166.41348 H 21.592018 V 138.6776 H 8.2790175 Z"
   inkscape:connector-curvature="0" /><text
   transform="scale(0.999994,1.000006)"
   style="font-variant:normal;font-weight:bold;font-size:8.37046242px;line-height:0%;font-family:Helvetica;-inkscape-font-specification:Helvetica-Bold;writing-mode:lr-tb;fill:#231f20;fill-opacity:1;fill-rule:nonzero;stroke:none"
   id="text278"
   x="9.123311"
   y="155.38629"><tspan
     x="9.123311 14.706409"
     y="155.38629"
     id="tspan280">PC</tspan></text>

<text
   transform="scale(0.999994,1.000006)"
   style="font-variant:normal;font-weight:normal;font-size:8.37046242px;line-height:0%;font-family:Helvetica;-inkscape-font-specification:Helvetica;writing-mode:lr-tb;fill:#ff0000;fill-opacity:1;fill-rule:nonzero;stroke:none"
   id="text284"
   x="177.29128"
   y="47.529442"><tspan
     x="177.29128 183.16875 187.65547 192.1422 194.30261 196.92232 201.41008"
     y="47.529442"
     id="tspan286"
     style="fill:#ff0000;fill-opacity:1">Control</tspan></text>

<path
   id="path288"
   style="fill:none;stroke:#ff0000;stroke-width:1;stroke-linecap:butt;stroke-linejoin:miter;stroke-miterlimit:4;stroke-dasharray:none;stroke-opacity:1"
   d="m 254.13396,57.434729 h 14.9825 m -15.45875,-21.19625 h 15.9375 m -64.00375,8.6825 c 0,14.55125 -6.895,26.35 -15.3975,26.35 -8.505,0 -15.395,-11.79875 -15.395,-26.35 0,-14.5525 6.89,-26.35125 15.395,-26.35125 8.5025,0 15.3975,11.79875 15.3975,26.35125 z"
   inkscape:connector-curvature="0" /><text
   transform="scale(0.999994,1.000006)"
   style="font-variant:normal;font-weight:normal;font-size:8.37046242px;line-height:0%;font-family:Helvetica;-inkscape-font-specification:Helvetica;writing-mode:lr-tb;fill:#ff0000;fill-opacity:1;fill-rule:nonzero;stroke:none"
   id="text292"
   x="256.0455"
   y="69.406815"><tspan
     x="256.0455 261.6286"
     y="69.406815"
     id="tspan294"
     style="fill:#ff0000;fill-opacity:1">EX</tspan><tspan
     x="258.14169"
     y="48.20919"
     id="tspan296"
     style="fill:#ff0000;fill-opacity:1">M</tspan><tspan
     x="254.88387 262.78558"
     y="28.121435"
     id="tspan298"
     style="fill:#ff0000;fill-opacity:1">WB</tspan></text>

<path
   id="path300"
   style="fill:none;stroke:#231f20;stroke-width:0.83705252;stroke-linecap:butt;stroke-linejoin:miter;stroke-miterlimit:4;stroke-dasharray:none;stroke-opacity:1"
   d="M 88.070959,152.91223 H 101.75658"
   inkscape:connector-curvature="0" /><path
   id="path302"
   style="fill:#231f20;fill-opacity:1;fill-rule:nonzero;stroke:none"
   d="m 102.55096,152.22848 c -1.10538,-0.335 -1.82413,-0.64125 -2.711876,-0.9975 v 3.37375 c 0.318376,-0.15125 1.606496,-0.66375 2.711876,-0.99875 1.18362,-0.3575 2.25637,-0.60125 2.95312,-0.68875 -0.69675,-0.0888 -1.7695,-0.33125 -2.95312,-0.68875"
   inkscape:connector-curvature="0" /><path
   id="path304"
   style="fill:none;stroke:#231f20;stroke-width:0.83705252;stroke-linecap:butt;stroke-linejoin:miter;stroke-miterlimit:4;stroke-dasharray:none;stroke-opacity:1"
   d="M 249.69146,252.03098 H 131.34396 V 44.920979 h 40.31125"
   inkscape:connector-curvature="0" /><path
   id="path306"
   style="fill:#231f20;fill-opacity:1;fill-rule:nonzero;stroke:none"
   d="m 171.57271,44.234729 c -1.105,-0.33375 -1.825,-0.64 -2.7125,-0.9975 v 3.37375 c 0.31875,-0.15 1.6075,-0.6625 2.7125,-0.9975 1.185,-0.3575 2.2575,-0.6025 2.95375,-0.68875 -0.69625,-0.08875 -1.76875,-0.33125 -2.95375,-0.69"
   inkscape:connector-curvature="0" /><path
   id="path308"
   style="fill:#231f20;fill-opacity:1;fill-rule:nonzero;stroke:none"
   d="m 250.72146,251.34585 c -1.10625,-0.3335 -1.825,-0.64262 -2.7125,-0.99612 v 3.37262 c 0.31875,-0.15137 1.60625,-0.66262 2.7125,-0.99762 1.18375,-0.35888 2.25625,-0.6025 2.95375,-0.68988 -0.6975,-0.0874 -1.77,-0.33012 -2.95375,-0.689"
   inkscape:connector-curvature="0" /><path
   id="path310"
   style="fill:none;stroke:#231f20;stroke-width:0.83705252;stroke-linecap:butt;stroke-linejoin:miter;stroke-miterlimit:4;stroke-dasharray:none;stroke-opacity:1"
   d="m 152.79271,116.66848 v 114.64875 h 96.16 m -127.78113,-78.7725 h 10.26363"
   inkscape:connector-curvature="0" /><path
   id="path312"
   style="fill:#231f20;fill-opacity:1;fill-rule:nonzero;stroke:none"
   d="m 250.53146,230.63348 c -1.10625,-0.335 -1.825,-0.64375 -2.7125,-0.99875 v 3.3725 c 0.31875,-0.14875 1.60625,-0.6625 2.7125,-0.995 1.18375,-0.35875 2.2575,-0.60375 2.9525,-0.69 -0.695,-0.0875 -1.76875,-0.3325 -2.9525,-0.68875"
   inkscape:connector-curvature="0" /><path
   id="path314"
   style="fill:none;stroke:#231f20;stroke-width:0.83705252;stroke-linecap:butt;stroke-linejoin:miter;stroke-miterlimit:4;stroke-dasharray:none;stroke-opacity:1"
   d="M 142.43771,93.737229 V 219.48348 h 106.88375"
   inkscape:connector-curvature="0" /><path
   id="path316"
   style="fill:#231f20;fill-opacity:1;fill-rule:nonzero;stroke:none"
   d="m 250.79896,218.79973 c -1.105,-0.335 -1.82375,-0.6425 -2.71,-0.99875 v 3.37375 c 0.31625,-0.15 1.605,-0.66375 2.71,-0.9975 1.185,-0.35875 2.2575,-0.6025 2.95375,-0.68875 -0.69625,-0.0875 -1.76875,-0.33375 -2.95375,-0.68875"
   inkscape:connector-curvature="0" /><path
   id="path318"
   style="fill:none;stroke:#231f20;stroke-width:0.83705252;stroke-linecap:butt;stroke-linejoin:miter;stroke-miterlimit:4;stroke-dasharray:none;stroke-opacity:1"
   d="m 131.15746,240.75098 h 118.164"
   inkscape:connector-curvature="0" /><path
   id="path320"
   style="fill:#231f20;fill-opacity:1;fill-rule:nonzero;stroke:none"
   d="m 250.69396,240.06598 c -1.10625,-0.335 -1.825,-0.6425 -2.7125,-1 v 3.375 c 0.3175,-0.15 1.60625,-0.66375 2.7125,-0.99625 1.18375,-0.36 2.25625,-0.60375 2.9525,-0.68875 -0.69625,-0.09 -1.76875,-0.33375 -2.9525,-0.69"
   inkscape:connector-curvature="0" /><text
   transform="scale(0.999994,1.000006)"
   style="font-variant:normal;font-weight:normal;font-size:8.37046242px;line-height:0%;font-family:Helvetica;-inkscape-font-specification:Helvetica;writing-mode:lr-tb;fill:#231f20;fill-opacity:1;fill-rule:nonzero;stroke:none"
   id="text324"
   x="181.8938"
   y="216.58467"><tspan
     x="181.8938 184.2211 189.33575 191.66306 193.99034 200.03412 202.36142 208.40277 213.05675 217.71072 219.56897 223.7542 226.08118 230.73517 233.52252 239.56836"
     y="216.58467"
     id="tspan326">IF/ID.RegisterRs</tspan><tspan
     x="181.8938 184.2211 189.33575 191.66306 193.99034 200.03412 202.36142 208.40277 213.05675 217.71072 219.56897 223.7542 226.08118 230.73517 233.52252 239.56836"
     y="228.18324"
     id="tspan328">IF/ID.RegisterRt</tspan><tspan
     x="181.8938 184.2211 189.33575 191.66306 193.99034 200.03412 202.36142 208.40277 213.05675 217.71072 219.56897 223.7542 226.08118 230.73517 233.52252 239.56836"
     y="238.82918"
     id="tspan330">IF/ID.RegisterRt</tspan><tspan
     x="181.8938 184.2211 189.33575 191.66306 193.99034 200.03412 202.36142 208.40277 213.05675 217.71072 219.56897 223.7542 226.08118 230.73517 233.52252 239.56836"
     y="249.66064"
     id="tspan332">IF/ID.RegisterRd</tspan></text>

<path
   id="path334"
   style="fill:none;stroke:#ff0000;stroke-width:1;stroke-linecap:butt;stroke-linejoin:miter;stroke-miterlimit:4;stroke-dasharray:none;stroke-opacity:1"
   d="m 205.57396,46.028479 h 42.63875"
   inkscape:connector-curvature="0" /><path
   id="path336"
   style="fill:#ff0000;fill-opacity:1;fill-rule:nonzero;stroke:none"
   d="m 250.58896,45.343479 c -1.10625,-0.335 -1.825,-0.64125 -2.7125,-0.9975 v 3.37375 c 0.31875,-0.15125 1.60625,-0.66375 2.7125,-0.9975 1.1825,-0.3575 2.25625,-0.6025 2.95125,-0.69 -0.695,-0.0875 -1.76875,-0.33125 -2.95125,-0.68875"
   inkscape:connector-curvature="0" /><path
   id="path338"
   style="fill:none;stroke:#ff0000;stroke-width:1;stroke-linecap:butt;stroke-linejoin:miter;stroke-miterlimit:4;stroke-dasharray:none;stroke-opacity:1"
   d="m 248.21271,68.773479 h -7.2125 v -43.825 h 6.935"
   inkscape:connector-curvature="0" /><path
   id="path340"
   style="fill:#ff0000;fill-opacity:1;fill-rule:nonzero;stroke:none"
   d="m 250.62771,24.263479 c -1.10625,-0.33375 -1.825,-0.64125 -2.7125,-0.9975 v 3.37375 c 0.31875,-0.15 1.60625,-0.6625 2.7125,-0.9975 1.18375,-0.3575 2.25625,-0.6025 2.9525,-0.69 -0.69625,-0.0875 -1.76875,-0.33125 -2.9525,-0.68875"
   inkscape:connector-curvature="0" /><path
   id="path342"
   style="fill:#ff0000;fill-opacity:1;fill-rule:nonzero;stroke:none"
   d="m 250.59021,68.088479 c -1.10625,-0.33375 -1.825,-0.64125 -2.7125,-0.9975 v 3.37375 c 0.3175,-0.15 1.60625,-0.66375 2.7125,-0.9975 1.1825,-0.3575 2.25625,-0.6025 2.95125,-0.69 -0.695,-0.0875 -1.76875,-0.33125 -2.95125,-0.68875"
   inkscape:connector-curvature="0" /><path
   id="path344"
   style="fill:none;stroke:#ff0000;stroke-width:1;stroke-linecap:butt;stroke-linejoin:miter;stroke-miterlimit:4;stroke-dasharray:none;stroke-opacity:1"
   d="m 269.47896,25.689729 h 112.43 v 19.415 h 16.2725"
   inkscape:connector-curvature="0" /><path
   id="path346"
   style="fill:#ff0000;fill-opacity:1;fill-rule:nonzero;stroke:none"
   d="m 399.48271,44.419729 c -1.10625,-0.33375 -1.82625,-0.64125 -2.7125,-0.99875 v 3.375 c 0.3175,-0.15125 1.60625,-0.66375 2.7125,-0.99875 1.18125,-0.3575 2.25625,-0.60125 2.95125,-0.68875 -0.695,-0.08875 -1.77,-0.3325 -2.95125,-0.68875"
   inkscape:connector-curvature="0" /><path
   id="path348"
   style="fill:none;stroke:#ff0000;stroke-width:1;stroke-linecap:butt;stroke-linejoin:miter;stroke-miterlimit:4;stroke-dasharray:none;stroke-opacity:1"
   d="m 269.47896,46.770979 h 108.36125 v 19.23 h 19.97"
   inkscape:connector-curvature="0" /><path
   id="path350"
   style="fill:#ff0000;fill-opacity:1;fill-rule:nonzero;stroke:none"
   d="m 399.39021,65.314729 c -1.10625,-0.33375 -1.82375,-0.64125 -2.71,-0.9975 v 3.37375 c 0.3175,-0.15 1.60375,-0.66375 2.71,-0.9975 1.18375,-0.3575 2.2575,-0.60125 2.95375,-0.68875 -0.69625,-0.0875 -1.77,-0.33125 -2.95375,-0.69"
   inkscape:connector-curvature="0" /><path
   id="path352"
   style="fill:none;stroke:#ff0000;stroke-width:1;stroke-linecap:butt;stroke-linejoin:miter;stroke-miterlimit:4;stroke-dasharray:none;stroke-opacity:1"
   d="m 418.15271,45.659729 h 71.38125 v 19.2325 h 14.42125"
   inkscape:connector-curvature="0" /><path
   id="path354"
   style="fill:#ff0000;fill-opacity:1;fill-rule:nonzero;stroke:none"
   d="m 504.87146,64.035979 c -1.385,-0.4175 -2.28375,-0.80125 -3.39125,-1.2475 v 4.2175 c 0.3975,-0.18875 2.00625,-0.82875 3.39125,-1.24625 1.47875,-0.4475 2.81875,-0.75375 3.68875,-0.8625 -0.87,-0.10875 -2.21,-0.415 -3.68875,-0.86125"
   inkscape:connector-curvature="0" /><text
   transform="matrix(0,-1.000005,0.999995,0,0,0)"
   style="font-variant:normal;font-weight:normal;font-size:8.37053776px;line-height:0%;font-family:Helvetica;-inkscape-font-specification:Helvetica;writing-mode:lr-tb;fill:#231f20;fill-opacity:1;fill-rule:nonzero;stroke:none"
   id="text358"
   x="-148.65649"
   y="128.84846"><tspan
     x="-148.65649 -146.32921 -141.67493 -137.48994 -135.16328 -132.37624 -127.72184 -123.53657 -121.20956 -119.3513 -114.69642"
     y="128.84846"
     id="tspan360">Instruction</tspan></text>

<path
   id="path362"
   style="fill:none;stroke:#231f20;stroke-width:0.83705252;stroke-linecap:butt;stroke-linejoin:miter;stroke-miterlimit:4;stroke-dasharray:none;stroke-opacity:1"
   d="m 21.315584,152.54473 h 11.65"
   inkscape:connector-curvature="0" /><path
   id="path364"
   style="fill:#231f20;fill-opacity:1;fill-rule:nonzero;stroke:none"
   d="m 34.704334,151.86098 c -1.1045,-0.335 -1.82425,-0.64125 -2.711,-0.9975 v 3.3725 c 0.317875,-0.15 1.6065,-0.6625 2.711,-0.9975 1.184,-0.3575 2.25725,-0.60125 2.953125,-0.68875 -0.695875,-0.0887 -1.769125,-0.33125 -2.953125,-0.68875"
   inkscape:connector-curvature="0" /><path
   id="path366"
   style="fill:#231f20;fill-opacity:1;fill-rule:nonzero;stroke:none"
   d="m 432.23146,218.63473 c 0,1.07875 -0.87375,1.95125 -1.95,1.95125 -1.0775,0 -1.94875,-0.8725 -1.94875,-1.95125 0,-1.075 0.87125,-1.95125 1.94875,-1.95125 1.07625,0 1.95,0.87625 1.95,1.95125"
   inkscape:connector-curvature="0" /><path
   id="path368"
   style="fill:#231f20;fill-opacity:1;fill-rule:nonzero;stroke:none"
   d="m 472.06771,280.50698 c 0,1.07662 -0.87625,1.95025 -1.95,1.95025 -1.07875,0 -1.95375,-0.87363 -1.95375,-1.95025 0,-1.07863 0.875,-1.95113 1.95375,-1.95113 1.07375,0 1.95,0.8725 1.95,1.95113"
   inkscape:connector-curvature="0" /><path
   id="path370"
   style="fill:#231f20;fill-opacity:1;fill-rule:nonzero;stroke:none"
   d="m 423.95771,242.04348 c 0,1.0775 -0.87125,1.95125 -1.9475,1.95125 -1.08,0 -1.95625,-0.87375 -1.95625,-1.95125 0,-1.07875 0.87625,-1.9525 1.95625,-1.9525 1.07625,0 1.9475,0.87375 1.9475,1.9525"
   inkscape:connector-curvature="0" /><path
   id="path372"
   style="fill:#237f20;fill-opacity:1;fill-rule:nonzero;stroke:none"
   d="m 297.42771,164.48598 c 0,1.0775 -0.8775,1.955 -1.94875,1.955 -1.07875,0 -1.95375,-0.8775 -1.95375,-1.955 0,-1.075 0.875,-1.9475 1.95375,-1.9475 1.07125,0 1.94875,0.8725 1.94875,1.9475"
   inkscape:connector-curvature="0" /><path
   id="path374"
   style="fill:#231fff;fill-opacity:1;fill-rule:nonzero;stroke:none"
   d="m 304.08521,178.25098 c 0,1.07375 -0.8725,1.94625 -1.94875,1.94625 -1.07875,0 -1.9525,-0.8725 -1.9525,-1.94625 0,-1.07875 0.87375,-1.955 1.9525,-1.955 1.07625,0 1.94875,0.87625 1.94875,1.955"
   inkscape:connector-curvature="0" /><path
   id="path376"
   style="fill:#231f20;fill-opacity:1;fill-rule:nonzero;stroke:none"
   d="m 144.39021,93.735979 c 0,1.07625 -0.87625,1.9525 -1.95375,1.9525 -1.075,0 -1.94875,-0.87625 -1.94875,-1.9525 0,-1.07625 0.87375,-1.94875 1.94875,-1.94875 1.0775,0 1.95375,0.8725 1.95375,1.94875"
   inkscape:connector-curvature="0" /><path
   id="path378"
   style="fill:#231f20;fill-opacity:1;fill-rule:nonzero;stroke:none"
   d="m 154.74521,116.48223 c 0,1.075 -0.875,1.95125 -1.9525,1.95125 -1.07375,0 -1.95,-0.87625 -1.95,-1.95125 0,-1.07875 0.87625,-1.95 1.95,-1.95 1.0775,0 1.9525,0.87125 1.9525,1.95"
   inkscape:connector-curvature="0" /><path
   id="path380"
   style="fill:#231f20;fill-opacity:1;fill-rule:nonzero;stroke:none"
   d="m 133.38646,240.88723 c 0,1.0775 -0.874,1.95125 -1.95125,1.95125 -1.07762,0 -1.95062,-0.87375 -1.95062,-1.95125 0,-1.0775 0.873,-1.95 1.95062,-1.95 1.07725,0 1.95125,0.8725 1.95125,1.95"
   inkscape:connector-curvature="0" /><path
   id="path384"
   style="fill:#231f20;fill-opacity:1;fill-rule:nonzero;stroke:none"
   d="m 432.23146,131.64348 c 0,1.07625 -0.87125,1.955 -1.95,1.955 -1.0775,0 -1.94875,-0.87875 -1.94875,-1.955 0,-1.075 0.87125,-1.94625 1.94875,-1.94625 1.07875,0 1.95,0.87125 1.95,1.94625"
   inkscape:connector-curvature="0" /><path
   id="path386"
   style="fill:none;stroke:#231f20;stroke-width:0.83705252;stroke-linecap:butt;stroke-linejoin:miter;stroke-miterlimit:4;stroke-dasharray:none;stroke-opacity:1"
   d="m 269.45771,85.139729 h 42.49125"
   inkscape:connector-curvature="0" /><path
   id="path388"
   style="fill:#231f20;fill-opacity:1;fill-rule:nonzero;stroke:none"
   d="m 311.92646,84.454729 c -1.10625,-0.33375 -1.82375,-0.64125 -2.7125,-0.9975 v 3.37375 c 0.3175,-0.15 1.60625,-0.66375 2.7125,-0.9975 1.18375,-0.35875 2.25625,-0.6025 2.95125,-0.68875 -0.695,-0.08875 -1.7675,-0.3325 -2.95125,-0.69"
   inkscape:connector-curvature="0" /><path
   id="path390"
   style="fill:none;stroke:#231f20;stroke-width:0.55803502;stroke-linecap:butt;stroke-linejoin:miter;stroke-miterlimit:4;stroke-dasharray:none;stroke-opacity:1"
   d="m 445.10771,202.65348 h 44.2725 V 123.7301 h -44.2725 z"
   inkscape:connector-curvature="0" /><path
   id="path392"
   style="fill:#231f20;fill-opacity:1;fill-rule:nonzero;stroke:none"
   d="m 336.06521,164.09098 c 0,0.8925 -0.7225,1.61375 -1.61375,1.61375 -0.89125,0 -1.61375,-0.72125 -1.61375,-1.61375 0,-0.89 0.7225,-1.6125 1.61375,-1.6125 0.89125,0 1.61375,0.7225 1.61375,1.6125"
   inkscape:connector-curvature="0" /><path
   id="path394"
   style="fill:none;stroke:#231f20;stroke-width:0.83705252;stroke-linecap:butt;stroke-linejoin:miter;stroke-miterlimit:4;stroke-dasharray:none;stroke-opacity:1"
   d="m 334.45146,164.09098 v 33.88 h 63.31"
   inkscape:connector-curvature="0"
   sodipodi:nodetypes="ccc" /><path
   id="path396"
   style="fill:#231f20;fill-opacity:1;fill-rule:nonzero;stroke:none"
   d="m 399.67771,197.27848 c -1.11,-0.33625 -1.835,-0.64375 -2.72375,-1.0025 v 3.3925 c 0.31625,-0.15125 1.61375,-0.67 2.72375,-1.005 1.18875,-0.35875 2.26625,-0.60375 2.96625,-0.6925 -0.7,-0.0863 -1.7775,-0.3325 -2.96625,-0.6925"
   inkscape:connector-curvature="0" /><text
   transform="scale(0.999994,1.000006)"
   style="font-variant:normal;font-weight:normal;font-size:8.37046242px;line-height:0%;font-family:Helvetica;-inkscape-font-specification:Helvetica;writing-mode:lr-tb;fill:#231f20;fill-opacity:1;fill-rule:nonzero;stroke:none"
   id="text400"
   x="104.44621"
   y="69.875565"><tspan
     x="104.44621 106.77351 111.88816 114.21434 116.53613"
     y="69.875565"
     id="tspan402">IF/ID</tspan></text>

<text
   transform="scale(0.999994,1.000006)"
   style="font-variant:normal;font-weight:bold;font-size:8.37046242px;line-height:0%;font-family:Helvetica;-inkscape-font-specification:Helvetica-Bold;writing-mode:lr-tb;fill:#231f20;fill-opacity:1;fill-rule:nonzero;stroke:none"
   id="text404"
   x="458.17474"
   y="160.77737"><tspan
     x="458.17474 464.2186 468.87198 471.65967"
     y="160.77737"
     id="tspan406">Data</tspan><tspan
     x="450.96329 458.40463 463.05862 470.49997 475.6134 478.86914"
     y="170.82127"
     id="tspan408">memory</tspan></text>

<g
   transform="translate(-176.39537,-78.859802)"
   id="layer1"
   inkscape:label="Camada 1"><text
   id="text4894"
   y="368.73376"
   x="252.28816"
   style="font-style:normal;font-weight:normal;line-height:0%;font-family:sans-serif;text-align:center;letter-spacing:0px;word-spacing:0px;writing-mode:lr-tb;text-anchor:middle;opacity:0.93999999;fill:#000000;fill-opacity:1;stroke:none;stroke-width:1px;stroke-linecap:butt;stroke-linejoin:miter;stroke-opacity:1"
   xml:space="preserve"><tspan
     style="font-size:7.5px;line-height:1.25;text-align:center;letter-spacing:0px;word-spacing:0px;text-anchor:middle"
     y="368.73376"
     x="253.48201"
     id="tspan4304"
     sodipodi:role="line">COD 4Ed, Copyright © 2009 </tspan><tspan
     style="font-size:7.5px;line-height:1.25;text-align:center;letter-spacing:0px;word-spacing:0px;text-anchor:middle"
     y="378.10876"
     x="253.48201"
     id="tspan4306"
     sodipodi:role="line"> Elsevier, Inc. All rights reserved. </tspan></text>

</g><path
   inkscape:connector-curvature="0"
   d="m 566.04836,142.28098 h 4.0331 V 310.92735 H 295.63208 V 98.452272 h 13.80955"
   style="fill:none;stroke:#237f20;stroke-width:0.83705252;stroke-linecap:butt;stroke-linejoin:miter;stroke-miterlimit:4;stroke-dasharray:none;stroke-opacity:1"
   id="path4922"
   sodipodi:nodetypes="cccccc" /><path
   id="path382"
   style="fill:#231f20;fill-opacity:1;fill-rule:nonzero;stroke:none"
   d="m 297.42771,310.83223 c 0,1.08 -0.875,1.955 -1.95125,1.955 -1.07375,0 -1.95125,-0.875 -1.95125,-1.955 0,-1.07525 0.8775,-1.94638 1.95125,-1.94638 1.07625,0 1.95125,0.87113 1.95125,1.94638"
   inkscape:connector-curvature="0" /></svg>