<?xml version="1.0" encoding="UTF-8" standalone="no"?>
<svg
   xmlns:dc="http://purl.org/dc/elements/1.1/"
   xmlns:cc="http://creativecommons.org/ns#"
   xmlns:rdf="http://www.w3.org/1999/02/22-rdf-syntax-ns#"
   xmlns:svg="http://www.w3.org/2000/svg"
   xmlns="http://www.w3.org/2000/svg"
   xmlns:sodipodi="http://sodipodi.sourceforge.net/DTD/sodipodi-0.dtd"
   xmlns:inkscape="http://www.inkscape.org/namespaces/inkscape"
   viewBox="0 0 578.50037 291.9234"
   height="291.9234"
   width="578.50037"
   xml:space="preserve"
   version="1.1"
   id="svg2"
   inkscape:version="0.91 r13725"
   sodipodi:docname="pipelineCOD4Ed-3.svg"><sodipodi:namedview
     pagecolor="#ffffff"
     bordercolor="#666666"
     borderopacity="1"
     objecttolerance="10"
     gridtolerance="10"
     guidetolerance="10"
     inkscape:pageopacity="0"
     inkscape:pageshadow="2"
     inkscape:window-width="1855"
     inkscape:window-height="1056"
     id="namedview223"
     showgrid="false"
     fit-margin-top="8"
     fit-margin-left="8"
     fit-margin-right="8"
     fit-margin-bottom="8"
     inkscape:zoom="1.9394975"
     inkscape:cx="289.25018"
     inkscape:cy="145.9617"
     inkscape:window-x="1985"
     inkscape:window-y="24"
     inkscape:window-maximized="1"
     inkscape:current-layer="svg2" /><metadata
     id="metadata8"><rdf:RDF><cc:Work
         rdf:about=""><dc:format>image/svg+xml</dc:format><dc:type
           rdf:resource="http://purl.org/dc/dcmitype/StillImage" /><dc:title></dc:title></cc:Work></rdf:RDF></metadata><defs
     id="defs6"><clipPath
       id="clipPath194"
       clipPathUnits="userSpaceOnUse"><path
         id="path196"
         d="m 0,693 0,2074 4500,0 0,-2074 -4500,0 z"
         inkscape:connector-curvature="0" /></clipPath><clipPath
       id="clipPath354"
       clipPathUnits="userSpaceOnUse"><path
         id="path356"
         d="m 0,693 0,2074 4500,0 0,-2074 -4500,0 z"
         inkscape:connector-curvature="0" /></clipPath></defs><path
     id="path16"
     style="fill:none;stroke:#231f20;stroke-width:0.55720752;stroke-linecap:butt;stroke-linejoin:miter;stroke-miterlimit:4;stroke-dasharray:none;stroke-opacity:1"
     d="m 105.59656,42.711656 22.40238,13.47 0,14.03875 -22.21138,13.47125 0,-16.6975 3.78025,-3.98125 -3.97125,-3.98625 0,-16.315 z"
     inkscape:connector-curvature="0" /><text
     style="font-variant:normal;font-weight:normal;font-size:5.57205009px;font-family:Helvetica;-inkscape-font-specification:Helvetica;writing-mode:lr-tb;fill:#000000;fill-opacity:1;fill-rule:nonzero;stroke:none"
     id="text48"
     x="110.56044"
     y="64.934151"><tspan
       x="110.56044 114.27699 117.37505"
       y="64.934151"
       id="tspan50">Add</tspan><tspan
       x="79.296814 83.013367 86.111435 89.209488 91.064987 94.16304 96.949066"
       y="125.94827"
       id="tspan52">Address</tspan></text>
<text
     style="font-variant:normal;font-weight:bold;font-size:5.57205009px;font-family:Helvetica;-inkscape-font-specification:Helvetica-Bold;writing-mode:lr-tb;fill:#000000;fill-opacity:1;fill-rule:nonzero;stroke:none"
     id="text54"
     x="96.366188"
     y="151.99416"><tspan
       x="96.366188 97.915222 101.31974 104.4178 106.27329 108.44082 111.84535 114.94341 116.7989 118.34792 121.75245"
       y="151.99416"
       id="tspan56">Instruction</tspan><tspan
       x="99.923317 104.87687 107.97493 112.92848 116.333 118.50053"
       y="158.68068"
       id="tspan58">memory</tspan></text>
<path
     id="path60"
     style="fill:none;stroke:#231f20;stroke-width:0.55720752;stroke-linecap:butt;stroke-linejoin:miter;stroke-miterlimit:4;stroke-dasharray:none;stroke-opacity:1"
     d="m 143.62494,186.98916 -65.726128,0 0,-66.995 65.726128,0 0,66.995 z m 130.49625,-0.1875 -65.725,0 0,-66.9975 65.725,0 0,66.9975 z"
     inkscape:connector-curvature="0" /><text
     style="font-variant:normal;font-weight:normal;font-size:5.57205009px;font-family:Helvetica;-inkscape-font-specification:Helvetica;writing-mode:lr-tb;fill:#000000;fill-opacity:1;fill-rule:nonzero;stroke:none"
     id="text64"
     x="210.31119"
     y="126.62666"><tspan
       x="210.31119 214.33421 217.43227 220.5314"
       y="126.62666"
       id="tspan66">Read</tspan><tspan
       x="210.31119 212.16669 215.26474 218.36281 219.59979 222.38582 223.93484 227.03384 228.88933 230.43912"
       y="133.3127"
       id="tspan68">register 1</tspan></text>
<text
     transform="matrix(0,-1,1,0,0,0)"
     style="font-variant:normal;font-weight:normal;font-size:5.57205009px;font-family:Helvetica;-inkscape-font-specification:Helvetica;writing-mode:lr-tb;fill:#000000;fill-opacity:1;fill-rule:nonzero;stroke:none"
     id="text70"
     x="-142.36417"
     y="188.74744"><tspan
       x="-142.36417 -140.81512 -137.71707 -134.93105 -133.382 -131.52652 -128.42845 -125.64243 -124.0934 -122.85641 -119.75834"
       y="188.74744"
       id="tspan72">Instruction</tspan></text>
<text
     style="font-variant:normal;font-weight:normal;font-size:5.57205009px;font-family:Helvetica;-inkscape-font-specification:Helvetica;writing-mode:lr-tb;fill:#000000;fill-opacity:1;fill-rule:nonzero;stroke:none"
     id="text74"
     x="210.31119"
     y="143.78416"><tspan
       x="210.31119 214.33421 217.43227 220.5314"
       y="143.78416"
       id="tspan76">Read</tspan><tspan
       x="210.31119 212.16669 215.26474 218.36281 219.59979 222.38582 223.93484 227.03384 228.88933 230.43912"
       y="150.47166"
       id="tspan78">register 2</tspan><tspan
       x="210.31119 215.5712 217.4267 218.6637 220.21402"
       y="162.34274"
       id="tspan80">Write</tspan><tspan
       x="210.31119 212.16669 215.26474 218.36281 219.59979 222.38582 223.93484 227.03384"
       y="169.02927"
       id="tspan82">register</tspan><tspan
       x="210.31119 215.5712 217.4267 218.6637 220.21402"
       y="177.40038"
       id="tspan84">Write</tspan><tspan
       x="210.31119 213.40926 216.50731 218.05634"
       y="184.0869"
       id="tspan86">data</tspan><tspan
       x="257.80142 261.82446 264.92252 268.02057"
       y="130.99951"
       id="tspan88">Read</tspan><tspan
       x="257.80142 260.89951 263.99756 265.5466 268.64465 270.19366"
       y="137.68605"
       id="tspan90">data 1</tspan><tspan
       x="257.80142 261.82446 264.92252 268.02057"
       y="157.26129"
       id="tspan92">Read</tspan><tspan
       x="257.80142 260.89951 263.99756 265.5466 268.64465 270.19366"
       y="163.94879"
       id="tspan94">data 2</tspan></text>
<path
     id="path96"
     style="fill:none;stroke:#231f20;stroke-width:0.55720752;stroke-linecap:butt;stroke-linejoin:miter;stroke-miterlimit:4;stroke-dasharray:none;stroke-opacity:1"
     d="m 444.42619,206.49291 65.7275,0 0,-66.99513 -65.7275,0 0,66.99513 z"
     inkscape:connector-curvature="0" /><text
     style="font-variant:normal;font-weight:bold;font-size:5.57205009px;font-family:Helvetica;-inkscape-font-specification:Helvetica-Bold;writing-mode:lr-tb;fill:#000000;fill-opacity:1;fill-rule:nonzero;stroke:none"
     id="text100"
     x="228.56244"
     y="155.03915"><tspan
       x="228.56244 232.58546 235.68352 239.08804 240.63707 243.73514 245.59062 248.68744 250.85638"
       y="155.03915"
       id="tspan102">Registers</tspan></text>
<text
     style="font-variant:normal;font-weight:normal;font-size:5.57205009px;font-family:Helvetica;-inkscape-font-specification:Helvetica;writing-mode:lr-tb;fill:#000000;fill-opacity:1;fill-rule:nonzero;stroke:none"
     id="text104"
     x="448.1387"
     y="157.97665"><tspan
       x="448.1387 451.85577 454.95267 458.0513 459.90677 463.00485 465.79153"
       y="157.97665"
       id="tspan106">Address</tspan><tspan
       x="448.1387 453.39871 455.25421 456.49118 458.04105"
       y="196.89566"
       id="tspan108">Write</tspan><tspan
       x="448.1387 451.23676 454.33481 455.88385"
       y="203.58316"
       id="tspan110">data</tspan><tspan
       x="493.33893 497.36249 500.46109 503.55768"
       y="153.64954"
       id="tspan112">Read</tspan><tspan
       x="494.57526 497.67331 500.77139 502.32135"
       y="160.33557"
       id="tspan114">data</tspan></text>
<text
     style="font-variant:normal;font-weight:bold;font-size:5.57205009px;font-family:Helvetica;-inkscape-font-specification:Helvetica-Bold;writing-mode:lr-tb;fill:#000000;fill-opacity:1;fill-rule:nonzero;stroke:none"
     id="text116"
     x="471.2515"
     y="171.49817"><tspan
       x="471.2515 475.27505 478.37262 480.22809"
       y="171.49817"
       id="tspan118">Data</tspan><tspan
       x="466.45026 471.40381 474.50186 479.45612 482.86063 485.02753"
       y="178.18323"
       id="tspan120">memory</tspan></text>
<path
     id="path122"
     style="fill:none;stroke:#231f20;stroke-width:0.55720752;stroke-linecap:butt;stroke-linejoin:miter;stroke-miterlimit:4;stroke-dasharray:none;stroke-opacity:1"
     d="m 348.97494,56.915406 28.70375,13.4725 0,16.14 -28.51375,11.36875 0,-16.69625 2.73,-3.98375 -2.92,-3.98375 0,-16.3175 z"
     inkscape:connector-curvature="0" /><text
     style="font-variant:normal;font-weight:bold;font-size:5.57205009px;font-family:Helvetica;-inkscape-font-specification:Helvetica-Bold;writing-mode:lr-tb;fill:#000000;fill-opacity:1;fill-rule:nonzero;stroke:none"
     id="text126"
     x="352.62619"
     y="79.110405"><tspan
       x="352.62619 356.64975 360.05344"
       y="79.110405"
       id="tspan128">Add</tspan></text>
<text
     style="font-variant:normal;font-weight:normal;font-size:5.57205009px;font-family:Helvetica;-inkscape-font-specification:Helvetica;writing-mode:lr-tb;fill:#000000;fill-opacity:1;fill-rule:nonzero;stroke:none"
     id="text130"
     x="366.46848"
     y="76.578667"><tspan
       x="366.46848 370.18558 373.28244"
       y="76.578667"
       id="tspan132">Add</tspan><tspan
       x="362.75607 364.61157 367.70963 370.49567 373.59372 374.83072"
       y="83.264702"
       id="tspan134">result</tspan></text>
<path
     id="path136"
     style="fill:none;stroke:#231f20;stroke-width:0.55720752;stroke-linecap:butt;stroke-linejoin:miter;stroke-miterlimit:4;stroke-dasharray:none;stroke-opacity:1"
     d="m 360.66369,124.81541 34.3925,16.13875 0,19.33875 -34.165,13.62125 0,-20.0025 3.26875,-4.7725 -3.49625,-4.77375 0,-19.55 z"
     inkscape:connector-curvature="0" /><text
     style="font-variant:normal;font-weight:bold;font-size:5.57205009px;font-family:Helvetica;-inkscape-font-specification:Helvetica-Bold;writing-mode:lr-tb;fill:#000000;fill-opacity:1;fill-rule:nonzero;stroke:none"
     id="text140"
     x="365.1012"
     y="151.18916"><tspan
       x="365.1012 369.12476 372.52991"
       y="151.18916"
       id="tspan142">ALU</tspan></text>
<text
     style="font-variant:normal;font-weight:normal;font-size:5.57205009px;font-family:Helvetica;-inkscape-font-specification:Helvetica;writing-mode:lr-tb;fill:#000000;fill-opacity:1;fill-rule:nonzero;stroke:none"
     id="text144"
     x="381.88635"
     y="153.75801"><tspan
       x="381.88635 385.60345 388.70032"
       y="153.75801"
       id="tspan146">ALU</tspan><tspan
       x="379.09875 380.95425 384.05231 386.83832 389.93637 391.17426"
       y="160.44551"
       id="tspan148">result</tspan></text>
<path
     id="path150"
     style="fill:none;stroke:#231f20;stroke-width:0.55720752;stroke-linecap:butt;stroke-linejoin:miter;stroke-miterlimit:4;stroke-dasharray:none;stroke-opacity:1"
     d="m 332.34869,88.342906 c 0,9.18625 -4.40125,16.631254 -9.83125,16.631254 -5.43,0 -9.83375,-7.445004 -9.83375,-16.631254 0,-9.18625 4.40375,-16.63125 9.83375,-16.63125 5.43,0 9.83125,7.445 9.83125,16.63125 z"
     inkscape:connector-curvature="0" /><text
     style="font-variant:normal;font-weight:normal;font-size:5.57205009px;font-family:Helvetica;-inkscape-font-specification:Helvetica;writing-mode:lr-tb;fill:#000000;fill-opacity:1;fill-rule:nonzero;stroke:none"
     id="text154"
     x="381.95493"
     y="144.80415"><tspan
       x="381.95493 385.35947 388.45752 390.31238"
       y="144.80415"
       id="tspan156">Zero</tspan></text>
<text
     style="font-variant:normal;font-weight:bold;font-size:5.57205009px;font-family:Helvetica;-inkscape-font-specification:Helvetica-Bold;writing-mode:lr-tb;fill:#000000;fill-opacity:1;fill-rule:nonzero;stroke:none"
     id="text158"
     x="316.40469"
     y="86.478027"><tspan
       x="316.40469 320.12177 323.52628 325.07532 326.93079"
       y="86.478027"
       id="tspan160">Shift</tspan><tspan
       x="316.40469 317.9537 321.05286 322.90833 324.76382 326.31287"
       y="93.165039"
       id="tspan162">left 2</tspan></text>
<path
     id="path164"
     style="fill:none;stroke:#231f20;stroke-width:0.55720752;stroke-linecap:butt;stroke-linejoin:miter;stroke-miterlimit:4;stroke-dasharray:none;stroke-opacity:1"
     d="m 273.62494,219.21791 c 0,11.0575 -5.7025,20.01987 -12.7375,20.01987 -7.03625,0 -12.7375,-8.96237 -12.7375,-20.01987 0,-11.055 5.70125,-20.0175 12.7375,-20.0175 7.035,0 12.7375,8.9625 12.7375,20.0175 z"
     inkscape:connector-curvature="0" /><text
     style="font-variant:normal;font-weight:bold;font-size:5.57205009px;font-family:Helvetica;-inkscape-font-specification:Helvetica-Bold;writing-mode:lr-tb;fill:#000000;fill-opacity:1;fill-rule:nonzero;stroke:none"
     id="text168"
     x="253.92119"
     y="217.42416"><tspan
       x="253.92119 257.63773 259.18677 262.59128 265.99518"
       y="217.42416"
       id="tspan170">Sign-</tspan><tspan
       x="251.90605 255.0041 258.10217 259.95764 263.05573 266.46024"
       y="224.1102"
       id="tspan172">extend</tspan></text>
<path
     id="path174"
     style="fill:none;stroke:#231f20;stroke-width:0.55720752;stroke-linecap:butt;stroke-linejoin:miter;stroke-miterlimit:4;stroke-dasharray:none;stroke-opacity:1"
     d="m 46.693312,140.63041 13.132375,0 0,-30.99125 -13.132375,0 0,30.99125 z"
     inkscape:connector-curvature="0" /><path
     id="path178"
     style="fill:none;stroke:#000000;stroke-width:1;stroke-linecap:butt;stroke-linejoin:miter;stroke-miterlimit:4;stroke-dasharray:none;stroke-opacity:1"
     d="m 520.35869,253.97166 14.7075,0 0,-220.955004 -14.7075,0 0,220.955004 z"
     inkscape:connector-curvature="0" /><path
     id="path182"
     style="fill:none;fill-opacity:1;stroke:#000000;stroke-width:1;stroke-linecap:butt;stroke-linejoin:miter;stroke-miterlimit:4;stroke-dasharray:none;stroke-opacity:1"
     d="m 412.15869,253.97166 14.7065,0 0,-220.955004 -14.7065,0 0,220.955004 z"
     inkscape:connector-curvature="0" /><path
     id="path186"
     style="fill:none;stroke:#000000;stroke-width:1;stroke-linecap:butt;stroke-linejoin:miter;stroke-miterlimit:4;stroke-dasharray:none;stroke-opacity:1"
     d="m 295.90369,253.97166 14.706,0 0,-220.955004 -14.706,0 0,220.955004 z"
     inkscape:connector-curvature="0" /><path
     id="path198"
     style="fill:none;stroke:#000000;stroke-width:1;stroke-linecap:butt;stroke-linejoin:miter;stroke-miterlimit:4;stroke-dasharray:none;stroke-opacity:1"
     d="m 168.79494,253.97166 14.7075,0 0,-220.955004 -14.7075,0 0,220.955004 z"
     inkscape:connector-curvature="0" /><path
     id="path200"
     style="fill:none;stroke:#231f20;stroke-width:0.83581126;stroke-linecap:butt;stroke-linejoin:miter;stroke-miterlimit:4;stroke-dasharray:none;stroke-opacity:1"
     d="m 564.08744,168.79291 5.995,0 0,98.04737 -375.3775,0 0,-88.24237 8.6075,0"
     inkscape:connector-curvature="0" /><path
     id="path202"
     style="fill:#231f20;fill-opacity:1;fill-rule:nonzero;stroke:none"
     d="m 205.14119,177.91291 c -1.10375,-0.335 -1.82375,-0.64125 -2.71,-0.9975 l 0,3.3725 c 0.3175,-0.15125 1.60625,-0.66375 2.71,-0.99625 1.18375,-0.35875 2.2575,-0.6025 2.9525,-0.69125 -0.695,-0.0862 -1.76875,-0.33 -2.9525,-0.6875"
     inkscape:connector-curvature="0" /><path
     id="path204"
     style="fill:none;stroke:#231f20;stroke-width:0.83581126;stroke-linecap:butt;stroke-linejoin:miter;stroke-miterlimit:4;stroke-dasharray:none;stroke-opacity:1"
     d="m 509.85619,155.13916 6.30375,0"
     inkscape:connector-curvature="0" /><path
     id="path206"
     style="fill:#231f20;fill-opacity:1;fill-rule:nonzero;stroke:none"
     d="m 517.14619,154.45291 c -1.10625,-0.33375 -1.82375,-0.64125 -2.7125,-0.99625 l 0,3.37125 c 0.32,-0.15 1.60625,-0.6625 2.7125,-0.995 1.18125,-0.35875 2.25625,-0.60375 2.95125,-0.69 -0.695,-0.0875 -1.77,-0.3325 -2.95125,-0.69"
     inkscape:connector-curvature="0" /><path
     id="path208"
     style="fill:none;stroke:#231f20;stroke-width:0.83581126;stroke-linecap:butt;stroke-linejoin:miter;stroke-miterlimit:4;stroke-dasharray:none;stroke-opacity:1"
     d="m 203.31244,127.82291 -11.80125,0 0,92.445 51.51625,0"
     inkscape:connector-curvature="0" /><path
     id="path210"
     style="fill:#231f20;fill-opacity:1;fill-rule:nonzero;stroke:none"
     d="m 244.93869,219.58166 c -1.10625,-0.33375 -1.825,-0.64 -2.7125,-0.99625 l 0,3.3725 c 0.31875,-0.15 1.60625,-0.665 2.7125,-0.99625 1.18375,-0.35875 2.255,-0.60375 2.95125,-0.69125 -0.69625,-0.085 -1.7675,-0.33 -2.95125,-0.68875"
     inkscape:connector-curvature="0" /><path
     id="path212"
     style="fill:#231f20;fill-opacity:1;fill-rule:nonzero;stroke:none"
     d="m 205.13869,127.13916 c -1.10375,-0.335 -1.8225,-0.6425 -2.71,-0.9975 l 0,3.3725 c 0.3175,-0.15125 1.60625,-0.665 2.71,-0.9975 1.18375,-0.3575 2.2575,-0.6025 2.9525,-0.68875 -0.695,-0.0888 -1.76875,-0.3325 -2.9525,-0.68875"
     inkscape:connector-curvature="0" /><path
     id="path214"
     style="fill:none;stroke:#231f20;stroke-width:0.83581126;stroke-linecap:butt;stroke-linejoin:miter;stroke-miterlimit:4;stroke-dasharray:none;stroke-opacity:1"
     d="m 191.68619,144.98166 11.775,0"
     inkscape:connector-curvature="0" /><path
     id="path216"
     style="fill:#231f20;fill-opacity:1;fill-rule:nonzero;stroke:none"
     d="m 205.14369,144.29666 c -1.105,-0.335 -1.825,-0.64125 -2.71125,-0.9975 l 0,3.3725 c 0.3175,-0.15 1.60625,-0.66375 2.71125,-0.99625 1.18375,-0.35875 2.25625,-0.6025 2.9525,-0.69125 -0.69625,-0.0863 -1.76875,-0.32875 -2.9525,-0.6875"
     inkscape:connector-curvature="0" /><path
     id="path218"
     style="fill:none;stroke:#231f20;stroke-width:0.83581126;stroke-linecap:butt;stroke-linejoin:miter;stroke-miterlimit:4;stroke-dasharray:none;stroke-opacity:1"
     d="m 191.68619,163.44416 11.775,0"
     inkscape:connector-curvature="0" /><path
     id="path220"
     style="fill:#231f20;fill-opacity:1;fill-rule:nonzero;stroke:none"
     d="m 205.14369,162.76041 c -1.105,-0.335 -1.825,-0.6425 -2.71125,-0.99875 l 0,3.3725 c 0.3175,-0.15 1.60625,-0.6625 2.71125,-0.99625 1.18375,-0.3575 2.25625,-0.6025 2.9525,-0.69 -0.69625,-0.0862 -1.76875,-0.33125 -2.9525,-0.6875"
     inkscape:connector-curvature="0" /><path
     id="path222"
     style="fill:none;stroke:#231f20;stroke-width:0.83581126;stroke-linecap:butt;stroke-linejoin:miter;stroke-miterlimit:4;stroke-dasharray:none;stroke-opacity:1"
     d="m 143.72744,153.49166 20.17875,0"
     inkscape:connector-curvature="0" /><path
     id="path224"
     style="fill:#231f20;fill-opacity:1;fill-rule:nonzero;stroke:none"
     d="m 165.48494,152.80541 c -1.105,-0.33375 -1.82375,-0.64 -2.71,-0.9975 l 0,3.37375 c 0.3175,-0.15125 1.605,-0.665 2.71,-0.9975 1.18375,-0.3575 2.25625,-0.6025 2.9525,-0.69 -0.69625,-0.0863 -1.76875,-0.3325 -2.9525,-0.68875"
     inkscape:connector-curvature="0" /><text
     style="font-variant:normal;font-weight:bold;font-size:5.57205009px;font-family:Helvetica;-inkscape-font-specification:Helvetica-Bold;writing-mode:lr-tb;fill:#000000;fill-opacity:1;fill-rule:nonzero;stroke:none"
     id="text228"
     x="49.622936"
     y="126.4354"><tspan
       x="49.622936 53.339493"
       y="126.4354"
       id="tspan230">PC</tspan></text>
<path
     id="path232"
     style="fill:none;stroke:#231f20;stroke-width:0.83581126;stroke-linecap:butt;stroke-linejoin:miter;stroke-miterlimit:4;stroke-dasharray:none;stroke-opacity:1"
     d="m 395.00244,142.99166 12.35625,0"
     inkscape:connector-curvature="0" /><path
     id="path234"
     style="fill:#231f20;fill-opacity:1;fill-rule:nonzero;stroke:none"
     d="m 408.93744,142.30666 c -1.105,-0.33375 -1.8225,-0.64 -2.71125,-0.99625 l 0,3.3725 c 0.31625,-0.15 1.60625,-0.665 2.71125,-0.9975 1.1825,-0.3575 2.25625,-0.60375 2.9525,-0.69 -0.69625,-0.0863 -1.77,-0.33125 -2.9525,-0.68875"
     inkscape:connector-curvature="0" /><path
     id="path236"
     style="fill:none;stroke:#231f20;stroke-width:0.83581126;stroke-linecap:butt;stroke-linejoin:miter;stroke-miterlimit:4;stroke-dasharray:none;stroke-opacity:1"
     d="m 395.00244,155.03791 12.6075,0"
     inkscape:connector-curvature="0" /><path
     id="path238"
     style="fill:#231f20;fill-opacity:1;fill-rule:nonzero;stroke:none"
     d="m 409.18994,154.35291 c -1.10625,-0.335 -1.82375,-0.6425 -2.7125,-0.9975 l 0,3.37125 c 0.3175,-0.14875 1.60625,-0.6625 2.7125,-0.995 1.18125,-0.35875 2.255,-0.60375 2.95125,-0.69 -0.69625,-0.0875 -1.77,-0.33125 -2.95125,-0.68875"
     inkscape:connector-curvature="0" /><path
     id="path240"
     style="fill:none;stroke:#231f20;stroke-width:0.83581126;stroke-linecap:butt;stroke-linejoin:miter;stroke-miterlimit:4;stroke-dasharray:none;stroke-opacity:1"
     d="m 426.86494,155.83666 12.86875,0"
     inkscape:connector-curvature="0" /><path
     id="path242"
     style="fill:#231f20;fill-opacity:1;fill-rule:nonzero;stroke:none"
     d="m 441.31369,155.15041 c -1.10625,-0.3325 -1.82375,-0.64 -2.7125,-0.99625 l 0,3.3725 c 0.32,-0.15 1.60625,-0.66375 2.7125,-0.99625 1.18125,-0.35875 2.25625,-0.60375 2.95125,-0.69 -0.695,-0.0888 -1.77,-0.33125 -2.95125,-0.69"
     inkscape:connector-curvature="0" /><path
     id="path244"
     style="fill:none;stroke:#231f20;stroke-width:0.83581126;stroke-linecap:butt;stroke-linejoin:miter;stroke-miterlimit:4;stroke-dasharray:none;stroke-opacity:1"
     d="m 426.86494,198.38041 13.13,0"
     inkscape:connector-curvature="0" /><path
     id="path246"
     style="fill:#231f20;fill-opacity:1;fill-rule:nonzero;stroke:none"
     d="m 441.57494,197.69666 c -1.10625,-0.33375 -1.82375,-0.64125 -2.71,-0.99625 l 0,3.3725 c 0.3175,-0.15125 1.60375,-0.665 2.71,-0.99875 1.18375,-0.35625 2.25625,-0.60375 2.95125,-0.68875 -0.695,-0.0875 -1.7675,-0.3325 -2.95125,-0.68875"
     inkscape:connector-curvature="0" /><path
     id="path248"
     style="fill:none;stroke:#000000;stroke-width:0.83581126;stroke-linecap:butt;stroke-linejoin:miter;stroke-miterlimit:4;stroke-dasharray:none;stroke-opacity:1"
     d="m 432.37994,155.83666 0,59.35 83.78,0"
     inkscape:connector-curvature="0" /><path
     id="path250"
     style="fill:#231f20;fill-opacity:1;fill-rule:nonzero;stroke:none"
     d="m 517.14619,214.50416 c -1.10625,-0.335 -1.82375,-0.6425 -2.7125,-0.99625 l 0,3.37125 c 0.32,-0.15125 1.60625,-0.66375 2.7125,-0.99625 1.18125,-0.35875 2.25625,-0.6025 2.95125,-0.69125 -0.695,-0.0875 -1.77,-0.33125 -2.95125,-0.6875"
     inkscape:connector-curvature="0" /><path
     id="path252"
     style="fill:none;stroke:#231f20;stroke-width:0.83581126;stroke-linecap:butt;stroke-linejoin:miter;stroke-miterlimit:4;stroke-dasharray:none;stroke-opacity:1"
     d="m 535.32994,155.83666 10.76625,0"
     inkscape:connector-curvature="0" /><path
     id="path254"
     style="fill:#231f20;fill-opacity:1;fill-rule:nonzero;stroke:none"
     d="m 547.67619,155.15041 c -1.10625,-0.3325 -1.82375,-0.64 -2.71,-0.99625 l 0,3.3725 c 0.3175,-0.15 1.60375,-0.66375 2.71,-0.99625 1.18375,-0.35875 2.255,-0.60375 2.95125,-0.69 -0.69625,-0.0888 -1.7675,-0.33125 -2.95125,-0.69"
     inkscape:connector-curvature="0" /><path
     id="path256"
     style="fill:none;stroke:#231f20;stroke-width:0.83581126;stroke-linecap:butt;stroke-linejoin:miter;stroke-miterlimit:4;stroke-dasharray:none;stroke-opacity:1"
     d="m 535.06619,215.45291 6.83125,0 0,-35.7175 6.0375,0"
     inkscape:connector-curvature="0" /><path
     id="path258"
     style="fill:#231f20;fill-opacity:1;fill-rule:nonzero;stroke:none"
     d="m 547.97119,179.05041 c -1.10625,-0.335 -1.82375,-0.64125 -2.7125,-0.9975 l 0,3.3725 c 0.3175,-0.15 1.60625,-0.66375 2.7125,-0.9975 1.18125,-0.3575 2.25625,-0.6025 2.95125,-0.68875 -0.695,-0.0875 -1.77,-0.33125 -2.95125,-0.68875"
     inkscape:connector-curvature="0" /><path
     id="path260"
     style="fill:none;stroke:#231f20;stroke-width:0.83581126;stroke-linecap:butt;stroke-linejoin:miter;stroke-miterlimit:4;stroke-dasharray:none;stroke-opacity:1"
     d="m 427.12619,142.44291 6.5675,0"
     inkscape:connector-curvature="0" /><path
     id="path262"
     style="fill:#231f20;fill-opacity:1;fill-rule:nonzero;stroke:none"
     d="m 435.27369,141.75666 c -1.10625,-0.33375 -1.82375,-0.64 -2.7125,-0.99625 l 0,3.3725 c 0.3175,-0.15125 1.60625,-0.66375 2.7125,-0.9975 1.18125,-0.3575 2.25625,-0.6025 2.95125,-0.68875 -0.695,-0.0875 -1.77,-0.3325 -2.95125,-0.69"
     inkscape:connector-curvature="0" /><path
     id="path264"
     style="fill:none;stroke:#231f20;stroke-width:0.83581126;stroke-linecap:butt;stroke-linejoin:miter;stroke-miterlimit:4;stroke-dasharray:none;stroke-opacity:1"
     d="m 346.32869,170.10666 10.15375,0"
     inkscape:connector-curvature="0" /><path
     id="path266"
     style="fill:#231f20;fill-opacity:1;fill-rule:nonzero;stroke:none"
     d="m 357.60994,169.42166 c -1.10625,-0.33375 -1.82375,-0.64 -2.71,-0.99625 l 0,3.3725 c 0.3175,-0.1525 1.60375,-0.665 2.71,-0.9975 1.18375,-0.3575 2.25625,-0.60375 2.95125,-0.69 -0.695,-0.0875 -1.7675,-0.3325 -2.95125,-0.68875"
     inkscape:connector-curvature="0" /><path
     id="path268"
     style="fill:none;stroke:#231f20;stroke-width:0.83581126;stroke-linecap:butt;stroke-linejoin:miter;stroke-miterlimit:4;stroke-dasharray:none;stroke-opacity:1"
     d="m 310.52244,131.93791 45.69625,0"
     inkscape:connector-curvature="0" /><path
     id="path270"
     style="fill:#231f20;fill-opacity:1;fill-rule:nonzero;stroke:none"
     d="m 357.34619,131.25291 c -1.10625,-0.335 -1.82375,-0.6425 -2.71,-0.9975 l 0,3.3725 c 0.3175,-0.15125 1.60375,-0.66375 2.71,-0.9975 1.18375,-0.3575 2.25625,-0.6025 2.95125,-0.69 -0.695,-0.0862 -1.7675,-0.33125 -2.95125,-0.6875"
     inkscape:connector-curvature="0" /><path
     id="path272"
     style="fill:none;stroke:#231f20;stroke-width:0.83581126;stroke-linecap:butt;stroke-linejoin:miter;stroke-miterlimit:4;stroke-dasharray:none;stroke-opacity:1"
     d="m 310.52244,158.72666 17.77125,0 m -5.77625,-53.7525 0,113.8925 -12.25625,0"
     inkscape:connector-curvature="0" /><path
     id="path274"
     style="fill:#231f20;fill-opacity:1;fill-rule:nonzero;stroke:none"
     d="m 329.87369,158.04166 c -1.10875,-0.335 -1.82625,-0.64125 -2.7125,-0.9975 l 0,3.37375 c 0.3175,-0.15125 1.60375,-0.665 2.7125,-0.9975 1.18125,-0.35875 2.2525,-0.60375 2.94875,-0.69125 -0.69625,-0.0862 -1.7675,-0.33 -2.94875,-0.6875"
     inkscape:connector-curvature="0" /><path
     id="path276"
     style="fill:none;stroke:#231f20;stroke-width:0.83581126;stroke-linecap:butt;stroke-linejoin:miter;stroke-miterlimit:4;stroke-dasharray:none;stroke-opacity:1"
     d="m 322.86869,182.36291 5.5125,0"
     inkscape:connector-curvature="0" /><path
     id="path278"
     style="fill:#231f20;fill-opacity:1;fill-rule:nonzero;stroke:none"
     d="m 329.96119,181.67666 c -1.10625,-0.33375 -1.82625,-0.64 -2.7125,-0.99625 l 0,3.37125 c 0.3175,-0.14875 1.60625,-0.66375 2.7125,-0.99625 1.18125,-0.35875 2.25625,-0.6025 2.94875,-0.69 -0.6925,-0.0863 -1.7675,-0.33 -2.94875,-0.68875"
     inkscape:connector-curvature="0" /><path
     id="path280"
     style="fill:none;stroke:#000000;stroke-width:0.83581126;stroke-linecap:butt;stroke-linejoin:miter;stroke-miterlimit:4;stroke-dasharray:none;stroke-opacity:1"
     d="m 316.30119,158.72666 0,39.92 91.39375,0"
     inkscape:connector-curvature="0" /><path
     id="path282"
     style="fill:#231f20;fill-opacity:1;fill-rule:nonzero;stroke:none"
     d="m 409.27494,197.96041 c -1.10875,-0.33375 -1.82625,-0.64125 -2.7125,-0.99875 l 0,3.375 c 0.3175,-0.15125 1.60375,-0.665 2.7125,-0.99625 1.18125,-0.35875 2.25625,-0.60375 2.94875,-0.69125 -0.6925,-0.0875 -1.7675,-0.3325 -2.94875,-0.68875"
     inkscape:connector-curvature="0" /><path
     id="path284"
     style="fill:none;stroke:#231f20;stroke-width:0.83581126;stroke-linecap:butt;stroke-linejoin:miter;stroke-miterlimit:4;stroke-dasharray:none;stroke-opacity:1"
     d="m 332.31994,89.655406 12.34375,0"
     inkscape:connector-curvature="0" /><path
     id="path286"
     style="fill:#231f20;fill-opacity:1;fill-rule:nonzero;stroke:none"
     d="m 346.24244,88.970406 c -1.105,-0.33375 -1.82375,-0.64125 -2.7125,-0.9975 l 0,3.3725 c 0.32,-0.15125 1.6075,-0.66375 2.7125,-0.99625 1.185,-0.35875 2.25625,-0.6025 2.9525,-0.69 -0.69625,-0.0875 -1.7675,-0.33125 -2.9525,-0.68875"
     inkscape:connector-curvature="0" /><path
     id="path288"
     style="fill:none;stroke:#231f20;stroke-width:0.83581126;stroke-linecap:butt;stroke-linejoin:miter;stroke-miterlimit:4;stroke-dasharray:none;stroke-opacity:1"
     d="m 377.67869,78.361656 30.53875,0"
     inkscape:connector-curvature="0" /><path
     id="path290"
     style="fill:#231f20;fill-opacity:1;fill-rule:nonzero;stroke:none"
     d="m 409.34869,77.677906 c -1.10625,-0.335 -1.82375,-0.6425 -2.7125,-0.99875 l 0,3.3725 c 0.32,-0.15 1.60625,-0.6625 2.7125,-0.99625 1.18375,-0.35875 2.255,-0.6025 2.95125,-0.68875 -0.69625,-0.0875 -1.7675,-0.3325 -2.95125,-0.68875"
     inkscape:connector-curvature="0" /><path
     id="path292"
     style="fill:none;stroke:#231f20;stroke-width:0.83581126;stroke-linecap:butt;stroke-linejoin:miter;stroke-miterlimit:4;stroke-dasharray:none;stroke-opacity:1"
     d="m 310.52244,63.917906 33.88,0"
     inkscape:connector-curvature="0" /><path
     id="path294"
     style="fill:#231f20;fill-opacity:1;fill-rule:nonzero;stroke:none"
     d="m 345.97869,63.232906 c -1.10375,-0.33375 -1.82375,-0.64125 -2.71,-0.9975 l 0,3.3725 c 0.3175,-0.15 1.60625,-0.66375 2.71,-0.9975 1.185,-0.3575 2.25625,-0.60125 2.9525,-0.68875 -0.69625,-0.0875 -1.7675,-0.33125 -2.9525,-0.68875"
     inkscape:connector-curvature="0" /><path
     id="path296"
     style="fill:none;stroke:#231f20;stroke-width:0.83581126;stroke-linecap:butt;stroke-linejoin:miter;stroke-miterlimit:4;stroke-dasharray:none;stroke-opacity:1"
     d="m 274.27994,132.20166 16.335,0"
     inkscape:connector-curvature="0" /><path
     id="path298"
     style="fill:#231f20;fill-opacity:1;fill-rule:nonzero;stroke:none"
     d="m 292.68744,131.51541 c -1.105,-0.33375 -1.8225,-0.64125 -2.70875,-0.9975 l 0,3.37375 c 0.3175,-0.15 1.60375,-0.66375 2.70875,-0.99875 1.185,-0.35625 2.25875,-0.60125 2.9525,-0.6875 -0.69375,-0.0887 -1.7675,-0.3325 -2.9525,-0.69"
     inkscape:connector-curvature="0" /><path
     id="path300"
     style="fill:none;stroke:#231f20;stroke-width:0.83581126;stroke-linecap:butt;stroke-linejoin:miter;stroke-miterlimit:4;stroke-dasharray:none;stroke-opacity:1"
     d="m 274.01869,158.46541 16.59625,0"
     inkscape:connector-curvature="0" /><path
     id="path302"
     style="fill:#231f20;fill-opacity:1;fill-rule:nonzero;stroke:none"
     d="m 292.64869,157.77916 c -1.10625,-0.33375 -1.8225,-0.64 -2.71,-0.9975 l 0,3.37375 c 0.3175,-0.15125 1.60375,-0.665 2.71,-0.9975 1.185,-0.3575 2.25625,-0.60375 2.9525,-0.69 -0.69625,-0.0863 -1.7675,-0.3325 -2.9525,-0.68875"
     inkscape:connector-curvature="0" /><path
     id="path304"
     style="fill:none;stroke:#231f20;stroke-width:0.83581126;stroke-linecap:butt;stroke-linejoin:miter;stroke-miterlimit:4;stroke-dasharray:none;stroke-opacity:1"
     d="m 183.67744,63.391656 106.9375,0"
     inkscape:connector-curvature="0" /><path
     id="path306"
     style="fill:#231f20;fill-opacity:1;fill-rule:nonzero;stroke:none"
     d="m 292.68744,62.707906 c -1.105,-0.335 -1.8225,-0.6425 -2.70875,-0.9975 l 0,3.3725 c 0.3175,-0.15125 1.60375,-0.66375 2.70875,-0.9975 1.185,-0.3575 2.25875,-0.6025 2.9525,-0.69 -0.69375,-0.08625 -1.7675,-0.33125 -2.9525,-0.6875"
     inkscape:connector-curvature="0" /><path
     id="path308"
     style="fill:none;stroke:#231f20;stroke-width:0.83581126;stroke-linecap:butt;stroke-linejoin:miter;stroke-miterlimit:4;stroke-dasharray:none;stroke-opacity:1"
     d="m 127.99894,63.391656 36.766,0"
     inkscape:connector-curvature="0" /><path
     id="path310"
     style="fill:#231f20;fill-opacity:1;fill-rule:nonzero;stroke:none"
     d="m 165.67619,62.707906 c -1.10625,-0.335 -1.825,-0.6425 -2.7125,-0.9975 l 0,3.3725 c 0.31875,-0.15125 1.60625,-0.66375 2.7125,-0.9975 1.1825,-0.3575 2.255,-0.6025 2.95125,-0.69 -0.69625,-0.08625 -1.76875,-0.33125 -2.95125,-0.6875"
     inkscape:connector-curvature="0" /><path
     id="path312"
     style="fill:none;stroke:#231f20;stroke-width:0.83581126;stroke-linecap:butt;stroke-linejoin:miter;stroke-miterlimit:4;stroke-dasharray:none;stroke-opacity:1"
     d="m 90.706437,77.574156 10.505873,0"
     inkscape:connector-curvature="0" /><path
     id="path314"
     style="fill:#231f20;fill-opacity:1;fill-rule:nonzero;stroke:none"
     d="m 102.79144,76.889156 c -1.105,-0.33375 -1.82375,-0.64125 -2.71088,-0.9975 l 0,3.3725 c 0.31738,-0.15 1.60588,-0.66375 2.71088,-0.9975 1.18312,-0.3575 2.25637,-0.60125 2.95212,-0.68875 -0.69575,-0.0875 -1.769,-0.33125 -2.95212,-0.68875"
     inkscape:connector-curvature="0" /><path
     id="path316"
     style="fill:none;stroke:#231f20;stroke-width:0.83581126;stroke-linecap:butt;stroke-linejoin:miter;stroke-miterlimit:4;stroke-dasharray:none;stroke-opacity:1"
     d="m 59.715812,124.32041 13.659125,0"
     inkscape:connector-curvature="0" /><path
     id="path318"
     style="fill:#231f20;fill-opacity:1;fill-rule:nonzero;stroke:none"
     d="m 74.953562,123.63666 c -1.1045,-0.335 -1.82325,-0.6425 -2.7105,-0.9975 l 0,3.3725 c 0.317375,-0.15125 1.606,-0.665 2.7105,-0.9975 1.184125,-0.3575 2.256875,-0.6025 2.952625,-0.69 -0.69575,-0.0875 -1.7685,-0.33125 -2.952625,-0.6875"
     inkscape:connector-curvature="0" /><path
     id="path320"
     style="fill:none;stroke:#231f20;stroke-width:0.83581126;stroke-linecap:butt;stroke-linejoin:miter;stroke-miterlimit:4;stroke-dasharray:none;stroke-opacity:1"
     d="m 66.019437,124.32041 0,-72.482504 34.667503,0"
     inkscape:connector-curvature="0" /><path
     id="path322"
     style="fill:#231f20;fill-opacity:1;fill-rule:nonzero;stroke:none"
     d="m 102.26556,51.152906 c -1.105,-0.335 -1.82375,-0.64125 -2.710498,-0.9975 l 0,3.3725 c 0.317375,-0.15125 1.605498,-0.66375 2.710498,-0.9975 1.18363,-0.3575 2.25588,-0.60125 2.95263,-0.68875 -0.69675,-0.0875 -1.769,-0.3325 -2.95263,-0.68875"
     inkscape:connector-curvature="0" /><path
     id="path324"
     style="fill:none;stroke:#231f20;stroke-width:0.83581126;stroke-linecap:butt;stroke-linejoin:miter;stroke-miterlimit:4;stroke-dasharray:none;stroke-opacity:1"
     d="m 183.50244,155.48916 6.0975,0"
     inkscape:connector-curvature="0" /><text
     style="font-variant:normal;font-weight:normal;font-size:5.57205009px;font-family:Helvetica;-inkscape-font-specification:Helvetica;writing-mode:lr-tb;fill:#000000;fill-opacity:1;fill-rule:nonzero;stroke:none"
     id="text328"
     x="84.216187"
     y="79.674149"><tspan
       x="84.216187"
       y="79.674149"
       id="tspan330">4</tspan><tspan
       x="295.97992 297.52896 301.55197 303.10101 306.81638 170.10994 171.65897 175.06349 176.61252 178.16154 408.52118 412.23828 415.95413 417.50363 422.14474 425.86182"
       y="28.962782"
       id="tspan332">ID/EXIF/IDEX/MEM</tspan></text>
<path
     id="path334"
     style="fill:none;stroke:#231f20;stroke-width:0.83581126;stroke-linecap:butt;stroke-linejoin:miter;stroke-miterlimit:4;stroke-dasharray:none;stroke-opacity:1"
     d="m 273.57244,220.38291 17.8025,0"
     inkscape:connector-curvature="0" /><path
     id="path336"
     style="fill:#231f20;fill-opacity:1;fill-rule:nonzero;stroke:none"
     d="m 292.67119,219.69666 c -1.10375,-0.3325 -1.82375,-0.64 -2.71125,-0.99625 l 0,3.37125 c 0.3175,-0.14875 1.6075,-0.66125 2.71125,-0.99625 1.18375,-0.35875 2.25625,-0.6025 2.95125,-0.6875 -0.695,-0.0887 -1.7675,-0.3325 -2.95125,-0.69125"
     inkscape:connector-curvature="0" /><path
     id="path338"
     style="fill:none;stroke:#231f20;stroke-width:0.55720752;stroke-linecap:butt;stroke-linejoin:miter;stroke-miterlimit:4;stroke-dasharray:none;stroke-opacity:1"
     d="m 234.66369,217.30416 2.6975,5.905 m 43.145,-6.4225 2.69625,5.9075"
     inkscape:connector-curvature="0" /><text
     style="font-variant:normal;font-weight:normal;font-size:5.57205009px;font-family:Helvetica;-inkscape-font-specification:Helvetica;writing-mode:lr-tb;fill:#000000;fill-opacity:1;fill-rule:nonzero;stroke:none"
     id="text342"
     x="230.03993"
     y="215.50417"><tspan
       x="230.03993 233.138"
       y="215.50417"
       id="tspan344">16</tspan></text>
<path
     id="path346"
     style="fill:none;stroke:#231f20;stroke-width:0.83581126;stroke-linecap:butt;stroke-linejoin:miter;stroke-miterlimit:4;stroke-dasharray:none;stroke-opacity:1"
     d="m 37.481437,123.97041 4.55225,0"
     inkscape:connector-curvature="0" /><path
     id="path348"
     style="fill:#231f20;fill-opacity:1;fill-rule:nonzero;stroke:none"
     d="m 43.612687,123.28666 c -1.105375,-0.335 -1.824125,-0.6425 -2.710875,-0.9975 l 0,3.3725 c 0.317875,-0.15125 1.6055,-0.665 2.710875,-0.99875 1.183625,-0.35625 2.255875,-0.60125 2.95175,-0.6875 -0.695875,-0.0888 -1.768125,-0.3325 -2.95175,-0.68875"
     inkscape:connector-curvature="0" /><path
     id="path358"
     style="fill:none;stroke:#231f20;stroke-width:0.83581126;stroke-linecap:butt;stroke-linejoin:miter;stroke-miterlimit:4;stroke-dasharray:none;stroke-opacity:1"
     d="m 426.86494,79.324156 24.86375,0 0,-70.9062504 -443.3107844,0 0,128.2925044 10.8535184,0"
     inkscape:connector-curvature="0" /><path
     id="path360"
     style="fill:#231f20;fill-opacity:1;fill-rule:nonzero;stroke:none"
     d="m 20.850562,136.02416 c -1.105025,-0.33375 -1.823775,-0.64125 -2.710975,-0.99625 l 0,3.37125 c 0.317388,-0.15125 1.60595,-0.6625 2.710975,-0.9975 1.183125,-0.3575 2.25625,-0.60125 2.952125,-0.6875 -0.695875,-0.0888 -1.769,-0.3325 -2.952125,-0.69"
     inkscape:connector-curvature="0" /><path
     id="path362"
     style="fill:none;stroke:#231f20;stroke-width:0.83581126;stroke-linecap:butt;stroke-linejoin:miter;stroke-miterlimit:4;stroke-dasharray:none;stroke-opacity:1"
     d="m 137.10369,63.391656 0,-46.04375 -124.132566,0 0,94.380004 6.3003,0"
     inkscape:connector-curvature="0" /><path
     id="path364"
     style="fill:#231f20;fill-opacity:1;fill-rule:nonzero;stroke:none"
     d="m 20.850562,111.04291 c -1.105025,-0.335 -1.823775,-0.6425 -2.710975,-0.99875 l 0,3.37375 c 0.317388,-0.15125 1.60595,-0.66375 2.710975,-0.9975 1.183125,-0.3575 2.25625,-0.6025 2.952125,-0.69 -0.695875,-0.0875 -1.769,-0.33125 -2.952125,-0.6875"
     inkscape:connector-curvature="0" /><path
     id="path366"
     style="fill:#231f20;fill-opacity:1;fill-rule:nonzero;stroke:none"
     d="m 135.21869,63.384156 c 0,1.07625 0.8725,1.95125 1.95,1.95125 1.07625,0 1.95125,-0.875 1.95125,-1.95125 0,-1.0775 -0.875,-1.95 -1.95125,-1.95 -1.0775,0 -1.95,0.8725 -1.95,1.95"
     inkscape:connector-curvature="0" /><path
     id="path368"
     style="fill:#231f20;fill-opacity:1;fill-rule:nonzero;stroke:none"
     d="m 64.133187,124.31291 c 0,1.075 0.873125,1.95 1.95025,1.95 1.077125,0 1.950625,-0.875 1.950625,-1.95 0,-1.07625 -0.8735,-1.95 -1.950625,-1.95 -1.077125,0 -1.95025,0.87375 -1.95025,1.95"
     inkscape:connector-curvature="0" /><path
     id="path370"
     style="fill:#231f20;fill-opacity:1;fill-rule:nonzero;stroke:none"
     d="m 189.44994,155.47791 c 0,1.07875 0.87125,1.95 1.95,1.95 1.07625,0 1.95,-0.87125 1.95,-1.95 0,-1.07625 -0.87375,-1.95 -1.95,-1.95 -1.07875,0 -1.95,0.87375 -1.95,1.95"
     inkscape:connector-curvature="0" /><path
     id="path372"
     style="fill:#231f20;fill-opacity:1;fill-rule:nonzero;stroke:none"
     d="m 189.73619,163.44416 c 0,1.08 0.8725,1.95125 1.95,1.95125 1.07625,0 1.95,-0.87125 1.95,-1.95125 0,-1.07625 -0.87375,-1.95 -1.95,-1.95 -1.0775,0 -1.95,0.87375 -1.95,1.95"
     inkscape:connector-curvature="0" /><path
     id="path374"
     style="fill:#231f20;fill-opacity:1;fill-rule:nonzero;stroke:none"
     d="m 189.44994,144.84166 c 0,1.0775 0.87125,1.95125 1.95,1.95125 1.07625,0 1.95,-0.87375 1.95,-1.95125 0,-1.07625 -0.87375,-1.94875 -1.95,-1.94875 -1.07875,0 -1.95,0.8725 -1.95,1.94875"
     inkscape:connector-curvature="0" /><path
     id="path376"
     style="fill:#231f20;fill-opacity:1;fill-rule:nonzero;stroke:none"
     d="m 314.24119,158.91416 c 0,1.07875 0.87375,1.95125 1.95,1.95125 1.0775,0 1.95125,-0.8725 1.95125,-1.95125 0,-1.07625 -0.87375,-1.95 -1.95125,-1.95 -1.07625,0 -1.95,0.87375 -1.95,1.95"
     inkscape:connector-curvature="0" /><path
     id="path378"
     style="fill:#231f20;fill-opacity:1;fill-rule:nonzero;stroke:none"
     d="m 430.48619,155.89791 c 0,1.07625 0.87375,1.95 1.9525,1.95 1.0775,0 1.94875,-0.87375 1.94875,-1.95 0,-1.07625 -0.87125,-1.95 -1.94875,-1.95 -1.07875,0 -1.9525,0.87375 -1.9525,1.95"
     inkscape:connector-curvature="0" /><path
     id="path380"
     style="fill:#231f20;fill-opacity:1;fill-rule:nonzero;stroke:none"
     d="m 320.54494,182.37416 c 0,1.08 0.87125,1.95125 1.9475,1.95125 1.0775,0 1.95125,-0.87125 1.95125,-1.95125 0,-1.0775 -0.87375,-1.95 -1.95125,-1.95 -1.07625,0 -1.9475,0.8725 -1.9475,1.95"
     inkscape:connector-curvature="0" /><path
     id="path382"
     style="fill:none;stroke:#231f20;stroke-width:0.55720752;stroke-linecap:butt;stroke-linejoin:miter;stroke-miterlimit:4;stroke-dasharray:none;stroke-opacity:1"
     d="m 37.391062,133.91166 c 0,4.3725 -2.973125,7.915 -6.639125,7.915 -3.6675,0 -6.640625,-3.5425 -6.640625,-7.915 l 0,-20.22625 c 0,-4.37375 2.973125,-7.91625 6.640625,-7.91625 3.666,0 6.639125,3.5425 6.639125,7.91625 l 0,20.22625 z"
     inkscape:connector-curvature="0" /><text
     style="font-variant:normal;font-weight:normal;font-size:5.57205009px;font-family:Helvetica;-inkscape-font-specification:Helvetica;writing-mode:lr-tb;fill:#000000;fill-opacity:1;fill-rule:nonzero;stroke:none"
     id="text386"
     x="276.90869"
     y="215.50291"><tspan
       x="276.90869 280.00674"
       y="215.50291"
       id="tspan388">32</tspan></text>
<path
     id="path390"
     style="fill:none;stroke:#231f20;stroke-width:0.55720752;stroke-linecap:butt;stroke-linejoin:miter;stroke-miterlimit:4;stroke-dasharray:none;stroke-opacity:1"
     d="m 346.06244,180.56916 c 0,4.37375 -2.97125,7.91625 -6.63875,7.91625 -3.66625,0 -6.6375,-3.5425 -6.6375,-7.91625 l 0,-20.225 c 0,-4.3725 2.97125,-7.915 6.6375,-7.915 3.6675,0 6.63875,3.5425 6.63875,7.915 l 0,20.225 z"
     inkscape:connector-curvature="0" /><text
     style="font-variant:normal;font-weight:normal;font-size:5.57205009px;font-family:Helvetica;-inkscape-font-specification:Helvetica;writing-mode:lr-tb;fill:#000000;fill-opacity:1;fill-rule:nonzero;stroke:none"
     id="text394"
     x="27.766062"
     y="113.60165"><tspan
       x="27.766062"
       y="113.60165"
       id="tspan396">0</tspan></text>
<text
     style="font-variant:normal;font-weight:bold;font-size:5.57205009px;font-family:Helvetica;-inkscape-font-specification:Helvetica-Bold;writing-mode:lr-tb;fill:#000000;fill-opacity:1;fill-rule:nonzero;stroke:none"
     id="text398"
     x="29.650824"
     y="119.74911"><tspan
       x="29.650824"
       y="119.74911"
       id="tspan400">M</tspan><tspan
       x="30.269966"
       y="126.43612"
       id="tspan402">u</tspan><tspan
       x="30.42231"
       y="133.12265"
       id="tspan404">x</tspan></text>
<text
     style="font-variant:normal;font-weight:normal;font-size:5.57205009px;font-family:Helvetica;-inkscape-font-specification:Helvetica;writing-mode:lr-tb;fill:#000000;fill-opacity:1;fill-rule:nonzero;stroke:none"
     id="text406"
     x="27.76606"
     y="138.55138"><tspan
       x="27.76606"
       y="138.55138"
       id="tspan408">1</tspan></text>
<path
     id="path410"
     style="fill:none;stroke:#231f20;stroke-width:0.55720752;stroke-linecap:butt;stroke-linejoin:miter;stroke-miterlimit:4;stroke-dasharray:none;stroke-opacity:1"
     d="m 564.04119,177.41916 c 0,4.375 -2.97375,7.9175 -6.63875,7.9175 -3.665,0 -6.64,-3.5425 -6.64,-7.9175 l 0,-20.22625 c 0,-4.37375 2.975,-7.91625 6.64,-7.91625 3.665,0 6.63875,3.5425 6.63875,7.91625 l 0,20.22625 z"
     inkscape:connector-curvature="0" /><text
     style="font-style:normal;font-variant:normal;font-weight:normal;font-stretch:normal;font-size:5.57200003px;line-height:125%;font-family:Helvetica;-inkscape-font-specification:'Helvetica, Normal';text-align:start;writing-mode:lr-tb;text-anchor:start;fill:#000000;fill-opacity:1;fill-rule:nonzero;stroke:none"
     id="text414"
     x="333.88287"
     y="162.21555"
     sodipodi:linespacing="125%"><tspan
       sodipodi:role="line"
       id="tspan4915"
       x="333.88287"
       y="162.21555">0</tspan><tspan
       sodipodi:role="line"
       id="tspan4917"
       x="333.88287"
       y="169.18054" /><tspan
       sodipodi:role="line"
       id="tspan4919"
       x="333.88287"
       y="176.14554" /><tspan
       sodipodi:role="line"
       id="tspan4921"
       x="333.88287"
       y="183.11055">1</tspan></text>
<text
     style="font-variant:normal;font-weight:bold;font-size:5.57205009px;font-family:Helvetica;-inkscape-font-specification:Helvetica-Bold;writing-mode:lr-tb;fill:#000000;fill-opacity:1;fill-rule:nonzero;stroke:none"
     id="text418"
     x="338.12103"
     y="166.64536"><tspan
       x="338.12103"
       y="166.64536"
       id="tspan420">M</tspan><tspan
       x="338.74017"
       y="173.33286"
       id="tspan422">u</tspan><tspan
       x="338.89252"
       y="180.01791"
       id="tspan424">x</tspan></text>
<text
     style="font-style:normal;font-variant:normal;font-weight:normal;font-stretch:normal;font-size:5.57200003px;line-height:125%;font-family:Helvetica;-inkscape-font-specification:'Helvetica, Normal';text-align:start;writing-mode:lr-tb;text-anchor:start;fill:#000000;fill-opacity:1;fill-rule:nonzero;stroke:none"
     id="text426"
     x="336.43744"
     y="184.24887"
     sodipodi:linespacing="125%"><tspan
       sodipodi:role="line"
       id="tspan4897"
       x="336.43744"
       y="184.24887" /></text>
<text
     style="font-variant:normal;font-weight:bold;font-size:5.57205009px;font-family:Helvetica;-inkscape-font-specification:Helvetica-Bold;writing-mode:lr-tb;fill:#000000;fill-opacity:1;fill-rule:nonzero;stroke:none"
     id="text432"
     x="555.8349"
     y="163.59015"><tspan
       x="555.8349"
       y="163.59015"
       id="tspan434">M</tspan><tspan
       x="556.45258"
       y="170.27521"
       id="tspan436">u</tspan><tspan
       x="556.60638"
       y="176.96271"
       id="tspan438">x</tspan></text>
<text
     style="font-style:normal;font-variant:normal;font-weight:normal;font-stretch:normal;font-size:5.57200003px;line-height:125%;font-family:Helvetica;-inkscape-font-specification:'Helvetica, Normal';text-align:start;writing-mode:lr-tb;text-anchor:start;fill:#000000;fill-opacity:1;fill-rule:nonzero;stroke:none"
     id="text440"
     x="516.41498"
     y="29.104824"
     sodipodi:linespacing="125%"><tspan
       sodipodi:role="line"
       id="tspan4899"
       x="516.41498"
       y="29.104824">MEM/WB</tspan></text>
<text
     xml:space="preserve"
     style="font-style:normal;font-weight:normal;font-size:10px;line-height:125%;font-family:sans-serif;text-align:start;letter-spacing:0px;word-spacing:0px;writing-mode:lr-tb;text-anchor:start;opacity:0.93999999;fill:#000000;fill-opacity:1;stroke:none;stroke-width:1px;stroke-linecap:butt;stroke-linejoin:miter;stroke-opacity:1"
     x="24.663897"
     y="225.57674"
     id="text4894"
     sodipodi:linespacing="125%"><tspan
       sodipodi:role="line"
       id="tspan4304"
       x="24.663897"
       y="225.57674"
       style="font-size:7.5px">COD 4Ed, Copyright © 2009 </tspan><tspan
       sodipodi:role="line"
       x="24.663897"
       y="234.95174"
       style="font-size:7.5px"
       id="tspan4308">Elsevier, Inc. All rights reserved.</tspan><tspan
       sodipodi:role="line"
       id="tspan4306"
       x="24.663897"
       y="244.32674" /></text>
<text
     xml:space="preserve"
     style="font-style:normal;font-weight:normal;font-size:10px;line-height:125%;font-family:sans-serif;letter-spacing:0px;word-spacing:0px;fill:#000000;fill-opacity:1;stroke:none;stroke-width:1px;stroke-linecap:butt;stroke-linejoin:miter;stroke-opacity:1"
     x="153.72342"
     y="281.84332"
     id="text4893"
     sodipodi:linespacing="125%"><tspan
       sodipodi:role="line"
       id="tspan4895"
       x="153.72342"
       y="281.84332">The pipelined version of the single cycle datapath. </tspan></text>
<text
     sodipodi:linespacing="125%"
     y="159.16232"
     x="551.88287"
     id="text4324"
     style="font-style:normal;font-variant:normal;font-weight:normal;font-stretch:normal;font-size:5.57200015px;line-height:125%;font-family:Helvetica;-inkscape-font-specification:'Helvetica, Normal';text-align:start;writing-mode:lr;text-anchor:start;fill:#000000;fill-opacity:1;fill-rule:nonzero;stroke:none;"><tspan
       sodipodi:role="line"
       id="tspan4337">1</tspan></text>
<text
     style="font-style:normal;font-variant:normal;font-weight:normal;font-stretch:normal;font-size:5.57200003px;line-height:125%;font-family:Helvetica;-inkscape-font-specification:'Helvetica, Normal';text-align:start;writing-mode:lr-tb;text-anchor:start;fill:#000000;fill-opacity:1;fill-rule:nonzero;stroke:none"
     id="text4325"
     x="551.9552"
     y="179.91176"
     sodipodi:linespacing="125%"><tspan
       sodipodi:role="line"
       id="tspan4335"
       x="551.9552"
       y="179.91176">0</tspan></text>
</svg>