<?xml version="1.0" encoding="UTF-8" standalone="no"?>
<svg
   xmlns:dc="http://purl.org/dc/elements/1.1/"
   xmlns:cc="http://creativecommons.org/ns#"
   xmlns:rdf="http://www.w3.org/1999/02/22-rdf-syntax-ns#"
   xmlns:svg="http://www.w3.org/2000/svg"
   xmlns="http://www.w3.org/2000/svg"
   xmlns:sodipodi="http://sodipodi.sourceforge.net/DTD/sodipodi-0.dtd"
   xmlns:inkscape="http://www.inkscape.org/namespaces/inkscape"
   viewBox="0 0 555.77692 361.21511"
   height="361.21512"
   width="555.77692"
   xml:space="preserve"
   version="1.1"
   id="svg2"
   inkscape:version="0.91 r13725"
   sodipodi:docname="pipelineComForwardExtSinal-1.svg"><sodipodi:namedview
     pagecolor="#ffffff"
     bordercolor="#666666"
     borderopacity="1"
     objecttolerance="10"
     gridtolerance="10"
     guidetolerance="10"
     inkscape:pageopacity="0"
     inkscape:pageshadow="2"
     inkscape:window-width="1920"
     inkscape:window-height="1031"
     id="namedview132"
     showgrid="false"
     inkscape:showpageshadow="false"
     fit-margin-top="8"
     fit-margin-left="8"
     fit-margin-bottom="8"
     fit-margin-right="8"
     inkscape:zoom="2.2509031"
     inkscape:cx="277.88846"
     inkscape:cy="180.60756"
     inkscape:window-x="1920"
     inkscape:window-y="30"
     inkscape:window-maximized="1"
     inkscape:current-layer="svg2"
     showguides="true"
     inkscape:guide-bbox="true"><sodipodi:guide
       position="56.421798,151.93901"
       orientation="0,1"
       id="guide4258" /></sodipodi:namedview><metadata
     id="metadata8"><rdf:RDF><cc:Work
         rdf:about=""><dc:format>image/svg+xml</dc:format><dc:type
           rdf:resource="http://purl.org/dc/dcmitype/StillImage" /><dc:title></dc:title></cc:Work></rdf:RDF></metadata><defs
     id="defs6"><clipPath
       id="clipPath122"
       clipPathUnits="userSpaceOnUse"><path
         id="path124"
         d="m 90,313 0,2772 4320,0 0,-2772 -4320,0 z"
         inkscape:connector-curvature="0" /></clipPath></defs><path
     id="path28"
     style="fill:none;stroke:#ff0000;stroke-width:1.25;stroke-linecap:butt;stroke-linejoin:miter;stroke-miterlimit:4;stroke-dasharray:none;stroke-opacity:1"
     d="m 240.06194,118.155 0,-7.33875"
     inkscape:connector-curvature="0" /><path
     id="path30"
     style="fill:none;stroke:#000000;stroke-width:1;stroke-linecap:butt;stroke-linejoin:miter;stroke-miterlimit:4;stroke-dasharray:none;stroke-opacity:1"
     d="m 369.83444,203.67875 63.00738,0 0,-112.318375 -63.00738,0 0,112.318375 z"
     inkscape:connector-curvature="0" /><path
     id="path40"
     style="fill:none;stroke:#000000;stroke-width:1;stroke-linecap:butt;stroke-linejoin:miter;stroke-miterlimit:4;stroke-dasharray:none;stroke-opacity:1"
     d="m 537.42944,184.6325 c 0,4.7675 -3.86375,8.63125 -8.6325,8.63125 -4.765,0 -8.635,-3.86375 -8.635,-8.63125 l 0,-44.4 c 0,-4.76625 3.87,-8.63125 8.635,-8.63125 4.76875,0 8.6325,3.865 8.6325,8.63125 l 0,44.4 z M 90.768563,148.035 l -69.05075,0 0,-112.31625 69.05075,0 0,112.31625 z"
     inkscape:connector-curvature="0" /><text
     style="font-variant:normal;font-weight:normal;font-size:10px;font-family:Arial;-inkscape-font-specification:Arial;writing-mode:lr-tb;fill:#000000;fill-opacity:1;fill-rule:nonzero;stroke:none;font-style:normal;font-stretch:normal;"
     id="text44"
     x="33.457561"
     y="95.740005"><tspan
       x="33.457561 40.677563 46.237564 52.347565 55.127563 60.687565 64.017563 69.577568 73.467567"
       y="95.740005"
       id="tspan46"
       style="-inkscape-font-specification:'Arial Bold';font-family:Arial;font-weight:bold;font-style:normal;font-stretch:normal;font-variant:normal">Registers</tspan></text>
<path
     id="path48"
     style="fill:none;stroke:#000000;stroke-width:1;stroke-linecap:butt;stroke-linejoin:miter;stroke-miterlimit:4;stroke-dasharray:none;stroke-opacity:1"
     d="m 202.69444,79.00625 c 0,4.76625 -3.86375,8.63125 -8.63,8.63125 -4.76875,0 -8.63625,-3.865 -8.63625,-8.63125 l 0,-44.3975 c 0,-4.76875 3.8675,-8.6325 8.63625,-8.6325 4.76625,0 8.63,3.86375 8.63,8.6325 l 0,44.3975 z"
     inkscape:connector-curvature="0" /><text
     style="font-variant:normal;font-weight:bold;font-size:10px;font-family:Helvetica;-inkscape-font-specification:Helvetica-Bold;writing-mode:lr-tb;fill:#000000;fill-opacity:1;fill-rule:nonzero;stroke:none"
     id="text52"
     x="189.89569"
     y="50.397499"><tspan
       x="189.89569"
       y="50.397499"
       id="tspan54">M</tspan><tspan
       x="191.00702"
       y="60.397499"
       id="tspan56">u</tspan><tspan
       x="191.28094"
       y="70.397499"
       id="tspan58">x</tspan><tspan
       x="189.89569"
       y="140.71388"
       id="tspan60">M</tspan><tspan
       x="191.00702"
       y="150.71388"
       id="tspan62">u</tspan><tspan
       x="191.28094"
       y="160.71388"
       id="tspan64">x</tspan><tspan
       x="189.89569"
       y="260.11523"
       id="tspan66"
       style="-inkscape-font-specification:Arial;font-family:Arial;font-weight:normal;font-style:normal;font-stretch:normal;font-variant:normal;">M</tspan><tspan
       x="191.00702"
       y="270.11523"
       id="tspan68">u</tspan><tspan
       x="191.28094"
       y="280.11523"
       id="tspan70">x</tspan><tspan
       x="235.8972"
       y="142.57776"
       id="tspan72">M</tspan><tspan
       x="237.00609"
       y="152.57776"
       id="tspan74">u</tspan><tspan
       x="237.28197"
       y="162.57776"
       id="tspan76">x</tspan><tspan
       x="524.63074"
       y="156.02258"
       id="tspan78">M</tspan><tspan
       x="525.7406"
       y="166.02258"
       id="tspan80">u</tspan><tspan
       x="526.01453"
       y="176.02258"
       id="tspan82">x</tspan></text>
<path
     id="path84"
     style="fill:none;stroke:#000000;stroke-width:1;stroke-linecap:butt;stroke-linejoin:miter;stroke-miterlimit:4;stroke-dasharray:none;stroke-opacity:1"
     d="m 261.13069,62.31 32.64375,35.52625 0,37.02125 -32.36625,35.52125 0,-44.0275 5.51,-10.505 -5.7875,-10.50875 0,-43.0275 z m 219.02625,215.25625 -21.43375,0 0,-254.29875 21.43375,0 0,254.29875 z m -146.4475,0 -21.43625,0 0,-254.29875 21.43625,0 0,254.29875 z m -199.00375,0 -21.43275,0 0,-254.29875 21.43275,0 0,254.29875 z m 67.98875,11.1625 c 0,4.76225 -3.86375,8.6275 -8.63,8.6275 -4.76875,0 -8.63625,-3.86525 -8.63625,-8.6275 l 0,-44.40125 c 0,-4.7675 3.8675,-8.63125 8.63625,-8.63125 4.76625,0 8.63,3.86375 8.63,8.63125 l 0,44.40125 z m 46,-117.54 c 0,4.765 -3.865,8.63125 -8.6325,8.63125 -4.7675,0 -8.6325,-3.86625 -8.6325,-8.63125 l 0,-44.4 c 0,-4.76625 3.865,-8.63375 8.6325,-8.63375 4.7675,0 8.6325,3.8675 8.6325,8.63375 l 0,44.4 z m -46,-1.86375 c 0,4.7675 -3.86375,8.63 -8.63,8.63 -4.76875,0 -8.63625,-3.8625 -8.63625,-8.63 l 0,-44.4025 c 0,-4.765 3.8675,-8.63 8.63625,-8.63 4.76625,0 8.63,3.865 8.63,8.63 l 0,44.4025 z"
     inkscape:connector-curvature="0" /><path
     id="path86"
     style="fill:none;stroke:#000000;stroke-width:1;stroke-linecap:butt;stroke-linejoin:miter;stroke-miterlimit:4;stroke-dasharray:none;stroke-opacity:1"
     d="m 91.139188,57.77125 16.437002,0"
     inkscape:connector-curvature="0" /><path
     id="path88"
     style="fill:#231f20;fill-opacity:1;fill-rule:nonzero;stroke:none"
     d="m 109.83644,56.79 c -1.582,-0.47625 -2.61087,-0.91625 -3.87887,-1.42625 l 0,4.82625 c 0.45312,-0.21625 2.29687,-0.95125 3.87887,-1.4275 1.69238,-0.51125 3.228,-0.86125 4.22363,-0.98625 -0.99563,-0.125 -2.53125,-0.47375 -4.22363,-0.98625"
     inkscape:connector-curvature="0" /><path
     id="path90"
     style="fill:none;stroke:#000000;stroke-width:1;stroke-linecap:butt;stroke-linejoin:miter;stroke-miterlimit:4;stroke-dasharray:none;stroke-opacity:1"
     d="m 91.139188,127.02125 16.437002,0"
     inkscape:connector-curvature="0" /><path
     id="path92"
     style="fill:#231f20;fill-opacity:1;fill-rule:nonzero;stroke:none"
     d="m 109.83644,126.04375 c -1.582,-0.48 -2.61087,-0.91875 -3.87887,-1.42625 l 0,4.8225 c 0.45312,-0.215 2.29687,-0.94875 3.87887,-1.42625 1.69238,-0.5125 3.228,-0.8625 4.22363,-0.9875 -0.99563,-0.12375 -2.53125,-0.4725 -4.22363,-0.9825"
     inkscape:connector-curvature="0" /><path
     id="path94"
     style="fill:none;stroke:#000000;stroke-width:1;stroke-linecap:butt;stroke-linejoin:miter;stroke-miterlimit:4;stroke-dasharray:none;stroke-opacity:1"
     d="m 202.88819,77.29 51.645,0"
     inkscape:connector-curvature="0" /><path
     id="path96"
     style="fill:#231f20;fill-opacity:1;fill-rule:nonzero;stroke:none"
     d="m 256.79319,76.30875 c -1.58125,-0.4775 -2.61,-0.91875 -3.88,-1.4275 l 0,4.82625 c 0.45375,-0.2175 2.29875,-0.94625 3.88,-1.42875 1.6925,-0.51125 3.22875,-0.85875 4.22375,-0.985 -0.995,-0.1225 -2.53125,-0.47375 -4.22375,-0.985"
     inkscape:connector-curvature="0" /><path
     id="path98"
     style="fill:none;stroke:#000000;stroke-width:1;stroke-linecap:butt;stroke-linejoin:miter;stroke-miterlimit:4;stroke-dasharray:none;stroke-opacity:1"
     d="m 334.27069,103.31 29.4675,0 m -70.03125,13.035 12.62875,0"
     inkscape:connector-curvature="0" /><path
     id="path100"
     style="fill:#231f20;fill-opacity:1;fill-rule:nonzero;stroke:none"
     d="m 366.00194,102.32875 c -1.585,-0.4775 -2.61,-0.91625 -3.8825,-1.42375 l 0,4.82375 c 0.45625,-0.215 2.2975,-0.95 3.8825,-1.42625 1.68875,-0.5125 3.225,-0.8625 4.22375,-0.98625 -0.99875,-0.12625 -2.535,-0.47625 -4.22375,-0.9875"
     inkscape:connector-curvature="0" /><path
     id="path102"
     style="fill:none;stroke:#000000;stroke-width:1;stroke-linecap:butt;stroke-linejoin:miter;stroke-miterlimit:4;stroke-dasharray:none;stroke-opacity:1"
     d="m 333.50694,184.12625 29.4675,0"
     inkscape:connector-curvature="0" /><path
     id="path104"
     style="fill:#231f20;fill-opacity:1;fill-rule:nonzero;stroke:none"
     d="m 364.85444,183.1375 c -1.585,-0.47375 -2.6125,-0.91375 -3.8825,-1.4225 l 0,4.825 c 0.4575,-0.215 2.2975,-0.95125 3.8825,-1.4275 1.68875,-0.51125 3.2275,-0.86 4.22125,-0.98625 -0.99375,-0.12125 -2.5325,-0.47375 -4.22125,-0.98875"
     inkscape:connector-curvature="0" /><path
     id="path106"
     style="fill:none;stroke:#000000;stroke-width:1;stroke-linecap:butt;stroke-linejoin:miter;stroke-miterlimit:4;stroke-dasharray:none;stroke-opacity:1"
     d="m 433.00819,146.175 19.13625,0"
     inkscape:connector-curvature="0" /><path
     id="path108"
     style="fill:#231f20;fill-opacity:1;fill-rule:nonzero;stroke:none"
     d="m 454.40444,145.1925 c -1.58375,-0.47625 -2.60875,-0.91625 -3.87875,-1.42625 l 0,4.8275 c 0.45375,-0.2175 2.295,-0.9525 3.87875,-1.42875 1.695,-0.5125 3.2275,-0.86125 4.22125,-0.985 -0.99375,-0.1275 -2.52625,-0.475 -4.22125,-0.9875"
     inkscape:connector-curvature="0" /><path
     id="path110"
     style="fill:none;stroke:#000000;stroke-width:1;stroke-linecap:butt;stroke-linejoin:miter;stroke-miterlimit:4;stroke-dasharray:none;stroke-opacity:1"
     d="m 480.46444,146.175 32.14625,0"
     inkscape:connector-curvature="0" /><path
     id="path112"
     style="fill:#231f20;fill-opacity:1;fill-rule:nonzero;stroke:none"
     d="m 514.86819,145.1925 c -1.58125,-0.47625 -2.60875,-0.91625 -3.87875,-1.42625 l 0,4.8275 c 0.45625,-0.2175 2.2975,-0.9525 3.87875,-1.42875 1.695,-0.5125 3.23,-0.86125 4.22375,-0.985 -0.99375,-0.1275 -2.52875,-0.475 -4.22375,-0.9875"
     inkscape:connector-curvature="0" /><path
     id="path114"
     style="fill:none;stroke:#000000;stroke-width:1;stroke-linecap:butt;stroke-linejoin:miter;stroke-miterlimit:4;stroke-dasharray:none;stroke-opacity:1"
     d="m 480.46444,223.48 22.195,0 0,-39.0375 10.715,0"
     inkscape:connector-curvature="0" /><path
     id="path116"
     style="fill:#231f20;fill-opacity:1;fill-rule:nonzero;stroke:none"
     d="m 515.63569,183.4625 c -1.585,-0.47875 -2.61,-0.91875 -3.8825,-1.425 l 0,4.82375 c 0.46,-0.21375 2.2975,-0.95 3.8825,-1.42625 1.69125,-0.51125 3.23,-0.86125 4.22125,-0.98625 -0.99125,-0.12375 -2.53,-0.475 -4.22125,-0.98625"
     inkscape:connector-curvature="0" /><path
     id="path126"
     style="fill:none;stroke:#000000;stroke-width:1;stroke-linecap:butt;stroke-linejoin:miter;stroke-miterlimit:4;stroke-dasharray:none;stroke-opacity:1"
     d="m 537.10569,161.22625 10.2025,0 0,189.82 -538.83944,0 0,-222.4775 7.142063,0"
     inkscape:connector-curvature="0" /><path
     id="path128"
     style="fill:#231f20;fill-opacity:1;fill-rule:nonzero;stroke:none"
     d="m 17.872563,127.58625 c -1.583,-0.475 -2.611375,-0.915 -3.878875,-1.42375 l 0,4.82625 c 0.452625,-0.21875 2.295875,-0.95125 3.878875,-1.43 1.692875,-0.51125 3.226125,-0.86 4.223625,-0.98625 -0.9975,-0.12375 -2.53075,-0.475 -4.223625,-0.98625"
     inkscape:connector-curvature="0" /><text
     style="font-variant:normal;font-weight:normal;font-size:10px;font-family:Arial;-inkscape-font-specification:Arial;writing-mode:lr-tb;fill:#000000;fill-opacity:1;fill-rule:nonzero;stroke:none;font-style:normal;font-stretch:normal;"
     id="text132"
     x="269.81693"
     y="119.50125"><tspan
       x="269.81693 277.03693 283.14948"
       y="119.50125"
       id="tspan134"
       style="-inkscape-font-specification:Arial;font-family:Arial;font-weight:normal;font-style:normal;font-stretch:normal;font-variant:normal;">ALU</tspan></text>
<text
     transform="scale(0.99999449,1.0000055)"
     style="font-variant:normal;font-weight:normal;font-size:9.99994469px;font-family:Arial;-inkscape-font-specification:Arial;writing-mode:lr-tb;fill:#000000;fill-opacity:1;fill-rule:nonzero;stroke:none;font-style:normal;font-stretch:normal;"
     id="text136"
     x="110.9308"
     y="15.289915"><tspan
       x="110.9308 113.71078 120.93074 123.70988 130.38156 303.27185 309.9418 316.61179 319.39175 327.72043 334.39676"
       y="15.289915"
       id="tspan138"
       style="-inkscape-font-specification:Arial;font-family:Arial;font-weight:normal;font-style:normal;font-stretch:normal;font-variant:normal;">ID/EXEX/MEM</tspan></text>
<path
     id="path140"
     style="fill:none;stroke:#000000;stroke-width:1;stroke-linecap:butt;stroke-linejoin:miter;stroke-miterlimit:4;stroke-dasharray:none;stroke-opacity:1"
     d="m 202.62444,267.48862 104.095,0"
     inkscape:connector-curvature="0" /><path
     id="path142"
     style="fill:#231f20;fill-opacity:1;fill-rule:nonzero;stroke:none"
     d="m 308.98069,266.50875 c -1.585,-0.47875 -2.61,-0.9175 -3.88,-1.4275 l 0,4.82725 c 0.45125,-0.21725 2.295,-0.95113 3.88,-1.42725 1.69125,-0.51275 3.2275,-0.86225 4.22,-0.98725 -0.9925,-0.12263 -2.52875,-0.47525 -4.22,-0.98525"
     inkscape:connector-curvature="0" /><path
     id="path144"
     style="fill:none;stroke:#000000;stroke-width:1;stroke-linecap:butt;stroke-linejoin:miter;stroke-miterlimit:4;stroke-dasharray:none;stroke-opacity:1"
     d="m 350.34444,103.69375 0,233.45012 -177.57,0 0,-259.47262 6.88875,0"
     inkscape:connector-curvature="0" /><path
     id="path146"
     style="fill:#231f20;fill-opacity:1;fill-rule:nonzero;stroke:none"
     d="m 181.92194,76.69 c -1.5825,-0.47875 -2.61,-0.92 -3.88,-1.4275 l 0,4.82625 c 0.455,-0.2175 2.2975,-0.94875 3.88,-1.42875 1.69375,-0.51125 3.2275,-0.85875 4.2225,-0.985 -0.995,-0.125 -2.52875,-0.47375 -4.2225,-0.985"
     inkscape:connector-curvature="0" /><path
     id="path148"
     style="fill:none;stroke:#000000;stroke-width:1;stroke-linecap:butt;stroke-linejoin:miter;stroke-miterlimit:4;stroke-dasharray:none;stroke-opacity:1"
     d="m 164.35444,350.92025 0,-293.1515 14.5425,0"
     inkscape:connector-curvature="0" /><path
     id="path150"
     style="fill:#231f20;fill-opacity:1;fill-rule:nonzero;stroke:none"
     d="m 181.15569,56.78875 c -1.58125,-0.4775 -2.61,-0.9175 -3.87875,-1.4275 l 0,4.8275 c 0.455,-0.21625 2.2975,-0.9525 3.87875,-1.42875 1.69375,-0.51 3.22875,-0.86125 4.2225,-0.98625 -0.99375,-0.12375 -2.52875,-0.47375 -4.2225,-0.985"
     inkscape:connector-curvature="0" /><path
     id="path152"
     style="fill:#231f20;fill-opacity:1;fill-rule:nonzero;stroke:none"
     d="m 454.40444,222.4975 c -1.58375,-0.47875 -2.60875,-0.91625 -3.87875,-1.425 l 0,4.82375 c 0.45375,-0.21375 2.295,-0.95125 3.87875,-1.4275 1.695,-0.51 3.2275,-0.86 4.22125,-0.98375 -0.99375,-0.125 -2.52625,-0.475 -4.22125,-0.9875"
     inkscape:connector-curvature="0" /><path
     id="path154"
     style="fill:none;stroke:#000000;stroke-width:1;stroke-linecap:butt;stroke-linejoin:miter;stroke-miterlimit:4;stroke-dasharray:none;stroke-opacity:1"
     d="m 333.50694,256.0075 119.40375,0 m -0.76625,-32.5275 -101.8,0"
     inkscape:connector-curvature="0" /><path
     id="path156"
     style="fill:#231f20;fill-opacity:1;fill-rule:nonzero;stroke:none"
     d="m 455.17194,255.02875 c -1.585,-0.47875 -2.6125,-0.92 -3.8825,-1.4275 l 0,4.825 c 0.45375,-0.21625 2.2975,-0.95125 3.8825,-1.4275 1.69125,-0.5125 3.225,-0.86125 4.22375,-0.9875 -0.99875,-0.12375 -2.5325,-0.4725 -4.22375,-0.9825"
     inkscape:connector-curvature="0" /><path
     id="path158"
     style="fill:none;stroke:#000000;stroke-width:1;stroke-linecap:butt;stroke-linejoin:miter;stroke-miterlimit:4;stroke-dasharray:none;stroke-opacity:1"
     d="m 163.58944,148.855 15.3075,0"
     inkscape:connector-curvature="0" /><path
     id="path160"
     style="fill:#231f20;fill-opacity:1;fill-rule:nonzero;stroke:none"
     d="m 181.15569,147.87125 c -1.58125,-0.4775 -2.61,-0.91625 -3.87875,-1.42875 l 0,4.83 c 0.455,-0.2175 2.2975,-0.95125 3.87875,-1.4275 1.69375,-0.5125 3.22875,-0.86 4.2225,-0.98625 -0.99375,-0.125 -2.52875,-0.475 -4.2225,-0.9875"
     inkscape:connector-curvature="0" /><path
     id="path162"
     style="fill:none;stroke:#000000;stroke-width:1;stroke-linecap:butt;stroke-linejoin:miter;stroke-miterlimit:4;stroke-dasharray:none;stroke-opacity:1"
     d="m 135.26819,127.42125 45.73375,0"
     inkscape:connector-curvature="0" /><path
     id="path164"
     style="fill:#231f20;fill-opacity:1;fill-rule:nonzero;stroke:none"
     d="m 181.73069,126.43875 c -1.5825,-0.4775 -2.61,-0.9175 -3.88,-1.42625 l 0,4.8275 c 0.45625,-0.2175 2.2975,-0.95125 3.88,-1.4275 1.6925,-0.5125 3.2275,-0.86 4.2225,-0.98625 -0.995,-0.125 -2.53,-0.4775 -4.2225,-0.9875"
     inkscape:connector-curvature="0" /><path
     id="path166"
     style="fill:#231f20;fill-opacity:1;fill-rule:nonzero;stroke:none"
     d="m 307.63944,115.35875 c -1.58125,-0.48 -2.61,-0.92 -3.87875,-1.42875 l 0,4.83 c 0.45375,-0.22 2.2975,-0.95125 3.87875,-1.43 1.6925,-0.5125 3.225,-0.8625 4.22125,-0.9875 -0.99625,-0.12375 -2.52875,-0.475 -4.22125,-0.98375"
     inkscape:connector-curvature="0" /><path
     id="path168"
     style="fill:none;stroke:#000000;stroke-width:1;stroke-linecap:butt;stroke-linejoin:miter;stroke-miterlimit:4;stroke-dasharray:none;stroke-opacity:1"
     d="m 172.77444,167.98875 6.31375,0"
     inkscape:connector-curvature="0" /><path
     id="path170"
     style="fill:#231f20;fill-opacity:1;fill-rule:nonzero;stroke:none"
     d="m 181.34694,167.0075 c -1.58125,-0.47875 -2.61,-0.91625 -3.87875,-1.4275 l 0,4.82625 c 0.455,-0.21625 2.2975,-0.95 3.87875,-1.4275 1.6925,-0.50875 3.22875,-0.86 4.22375,-0.98625 -0.995,-0.12375 -2.53125,-0.4725 -4.22375,-0.985"
     inkscape:connector-curvature="0" /><text
     transform="scale(0.99999449,1.0000055)"
     style="font-variant:normal;font-weight:normal;font-size:9.99994469px;font-family:Arial;-inkscape-font-specification:Arial;writing-mode:lr-tb;fill:#000000;fill-opacity:1;fill-rule:nonzero;stroke:none;font-style:normal;font-stretch:normal;"
     id="text174"
     x="448.33316"
     y="15.289915"><tspan
       x="448.33316 456.66309 463.33307 471.66302 474.44299 483.88095"
       y="15.289915"
       id="tspan176"
       style="-inkscape-font-specification:Arial;font-family:Arial;font-weight:normal;font-style:normal;font-stretch:normal;font-variant:normal;">MEM/WB</tspan></text>
<path
     id="path178"
     style="fill:none;stroke:#ff0000;stroke-width:1;stroke-linecap:butt;stroke-linejoin:miter;stroke-miterlimit:4;stroke-dasharray:none;stroke-opacity:1"
     d="m 311.31194,302.31475 c 0,11.83637 -8.14,21.43262 -18.17875,21.43262 l -31.765,0 c -10.04,0 -18.1775,-9.59625 -18.1775,-21.43262 0,-11.836 8.1375,-21.42975 18.1775,-21.42975 l 31.765,0 c 10.03875,0 18.17875,9.59375 18.17875,21.42975 z"
     inkscape:connector-curvature="0" /><text
     transform="scale(0.99999449,1.0000055)"
     style="font-variant:normal;font-weight:normal;font-size:9.99994469px;font-family:Arial;-inkscape-font-specification:Arial;writing-mode:lr-tb;fill:#ff0000;fill-opacity:1;fill-rule:nonzero;stroke:none;font-style:normal;font-stretch:normal;"
     id="text182"
     x="252.24583"
     y="299.48447"><tspan
       x="252.24583 258.35577 263.91574 267.24573 274.4657 280.02567 283.35565 288.91562 291.1348 296.69476"
       y="299.48447"
       id="tspan184"
       style="fill:#ff0000;fill-opacity:1;-inkscape-font-specification:Arial;font-family:Arial;font-weight:normal;font-style:normal;font-stretch:normal;font-variant:normal;">Forwarding</tspan><tspan
       x="269.19223 274.75256 280.31229 282.53601"
       y="311.48441"
       id="tspan186"
       style="fill:#ff0000;fill-opacity:1;-inkscape-font-specification:Arial;font-family:Arial;font-weight:normal;font-style:normal;font-stretch:normal;font-variant:normal;">unit</tspan></text>
<path
     id="path188"
     style="fill:none;stroke:#000000;stroke-width:1;stroke-linecap:butt;stroke-linejoin:miter;stroke-miterlimit:4;stroke-dasharray:none;stroke-opacity:1"
     d="m 134.88569,270.16725 42.0975,0"
     inkscape:connector-curvature="0" /><path
     id="path190"
     style="fill:#231f20;fill-opacity:1;fill-rule:nonzero;stroke:none"
     d="m 180.77319,269.18875 c -1.58125,-0.479 -2.61,-0.9175 -3.87875,-1.42875 l 0,4.82625 c 0.455,-0.21388 2.2975,-0.95025 3.87875,-1.42625 1.6925,-0.51125 3.22875,-0.86138 4.22375,-0.98738 -0.995,-0.1225 -2.53125,-0.47412 -4.22375,-0.98387"
     inkscape:connector-curvature="0" /><path
     id="path192"
     style="fill:none;stroke:#000000;stroke-width:1;stroke-linecap:butt;stroke-linejoin:miter;stroke-miterlimit:4;stroke-dasharray:none;stroke-opacity:1"
     d="m 134.88569,258.6875 42.0975,0"
     inkscape:connector-curvature="0" /><path
     id="path194"
     style="fill:#231f20;fill-opacity:1;fill-rule:nonzero;stroke:none"
     d="m 180.77319,257.70625 c -1.58125,-0.4775 -2.61,-0.9175 -3.87875,-1.42625 l 0,4.82625 c 0.455,-0.21625 2.2975,-0.9525 3.87875,-1.42875 1.6925,-0.5125 3.22875,-0.86125 4.22375,-0.9875 -0.995,-0.1225 -2.53125,-0.4725 -4.22375,-0.98375"
     inkscape:connector-curvature="0" /><path
     id="path196"
     style="fill:none;stroke:#000000;stroke-width:1;stroke-linecap:butt;stroke-linejoin:miter;stroke-miterlimit:4;stroke-dasharray:none;stroke-opacity:1"
     d="m 134.88569,238.02 21.40375,0 0,61.99987 81.92625,0"
     inkscape:connector-curvature="0" /><path
     id="path198"
     style="fill:#231f20;fill-opacity:1;fill-rule:nonzero;stroke:none"
     d="m 238.94444,299.03737 c -1.58125,-0.4785 -2.61,-0.91837 -3.88,-1.42862 l 0,4.8285 c 0.45625,-0.21963 2.29875,-0.94863 3.88,-1.42963 1.6925,-0.51125 3.2275,-0.86037 4.2225,-0.98537 -0.995,-0.12113 -2.53,-0.47213 -4.2225,-0.98488"
     inkscape:connector-curvature="0" /><path
     id="path200"
     style="fill:none;stroke:#000000;stroke-width:1;stroke-linecap:butt;stroke-linejoin:miter;stroke-miterlimit:4;stroke-dasharray:none;stroke-opacity:1"
     d="m 135.26819,247.20875 12.2675,0 0,63.52887 91.0625,0"
     inkscape:connector-curvature="0" /><path
     id="path202"
     style="fill:#231f20;fill-opacity:1;fill-rule:nonzero;stroke:none"
     d="m 240.85819,309.75612 c -1.58125,-0.4775 -2.61,-0.91987 -3.87875,-1.43112 l 0,4.831 c 0.45375,-0.21963 2.2975,-0.9535 3.87875,-1.4335 1.69375,-0.50975 3.2275,-0.8565 4.2225,-0.98388 -0.995,-0.12262 -2.52875,-0.47362 -4.2225,-0.9825"
     inkscape:connector-curvature="0" /><path
     id="path204"
     style="fill:none;stroke:#000000;stroke-width:1;stroke-linecap:butt;stroke-linejoin:miter;stroke-miterlimit:4;stroke-dasharray:none;stroke-opacity:1"
     d="m 344.98819,256.77375 0,42.09862 -28.32,0"
     inkscape:connector-curvature="0" /><path
     id="path206"
     style="fill:#231f20;fill-opacity:1;fill-rule:nonzero;stroke:none"
     d="m 315.93819,299.85137 c 1.585,0.4785 2.6125,0.9175 3.87875,1.42475 l 0,-4.82612 c -0.45375,0.21725 -2.29375,0.95512 -3.87875,1.42875 -1.69,0.50875 -3.2275,0.86125 -4.22125,0.98725 0.99375,0.125 2.53125,0.47262 4.22125,0.98537"
     inkscape:connector-curvature="0" /><path
     id="path208"
     style="fill:none;stroke:#000000;stroke-width:1;stroke-linecap:butt;stroke-linejoin:miter;stroke-miterlimit:4;stroke-dasharray:none;stroke-opacity:1"
     d="m 480.46444,256.77375 19.9025,0 0,52.04975 -182.9325,0"
     inkscape:connector-curvature="0" /><path
     id="path210"
     style="fill:#231f20;fill-opacity:1;fill-rule:nonzero;stroke:none"
     d="m 315.17444,309.8025 c 1.58125,0.48 2.61125,0.9175 3.87625,1.42487 l 0,-4.82375 c -0.45125,0.21625 -2.295,0.95113 -3.87625,1.42525 -1.6925,0.51225 -3.2275,0.86375 -4.22375,0.98875 0.99625,0.12363 2.53125,0.47463 4.22375,0.98488"
     inkscape:connector-curvature="0" /><path
     id="path212"
     style="fill:none;stroke:#ff0000;stroke-width:1;stroke-linecap:butt;stroke-linejoin:miter;stroke-miterlimit:4;stroke-dasharray:none;stroke-opacity:1"
     d="m 252.56194,283.56475 -38.45625,0 0,-182.93225 -20.665,0 0,-7.65375"
     inkscape:connector-curvature="0" /><path
     id="path214"
     style="fill:#ff0000;fill-opacity:1;fill-rule:nonzero;stroke:none"
     d="m 192.45819,92.2475 c -0.47625,1.585 -0.915,2.61 -1.425,3.88 l 4.825,0 c -0.215,-0.455 -0.95,-2.295 -1.4275,-3.88 -0.51125,-1.69 -0.86,-3.22625 -0.98625,-4.2225 -0.12375,0.99625 -0.475,2.5325 -0.98625,4.2225"
     inkscape:connector-curvature="0" /><path
     id="path216"
     style="fill:none;stroke:#ff0000;stroke-width:1;stroke-linecap:butt;stroke-linejoin:miter;stroke-miterlimit:4;stroke-dasharray:none;stroke-opacity:1"
     d="m 245.81444,291.21762 -37.8325,0 0,-59.69887 -13.7775,0 0,-47.4575"
     inkscape:connector-curvature="0" /><path
     id="path218"
     style="fill:#ff0000;fill-opacity:1;fill-rule:nonzero;stroke:none"
     d="m 193.22319,182.37625 c -0.47625,1.58125 -0.915,2.6075 -1.425,3.87875 l 4.825,0 c -0.215,-0.4575 -0.94875,-2.2975 -1.4275,-3.87875 -0.51125,-1.69375 -0.86125,-3.22875 -0.98625,-4.225 -0.1225,0.99625 -0.475,2.53125 -0.98625,4.225"
     inkscape:connector-curvature="0" /><path
     id="path220"
     style="fill:none;stroke:#000000;stroke-width:1;stroke-linecap:butt;stroke-linejoin:miter;stroke-miterlimit:4;stroke-dasharray:none;stroke-opacity:1"
     d="m 248.73819,149.76875 6.63125,0 m -120.61625,59.675 82.90375,0 0,-41.8575 13.6775,0 m -28.38875,-40.69375 28.41,0"
     inkscape:connector-curvature="0" /><path
     id="path222"
     style="fill:#231f20;fill-opacity:1;fill-rule:nonzero;stroke:none"
     d="m 257.62819,148.7875 c -1.5825,-0.47875 -2.61,-0.91875 -3.87875,-1.43 l 0,4.8275 c 0.4525,-0.2175 2.29625,-0.9525 3.87875,-1.425 1.6925,-0.515 3.2275,-0.86125 4.22375,-0.98625 -0.99625,-0.1275 -2.53125,-0.47375 -4.22375,-0.98625"
     inkscape:connector-curvature="0" /><path
     id="path224"
     style="fill:none;stroke:#000000;stroke-width:1;stroke-linecap:butt;stroke-linejoin:miter;stroke-miterlimit:4;stroke-dasharray:none;stroke-opacity:1"
     d="m 224.24194,127.38875 0,57.3975 81.89125,0"
     inkscape:connector-curvature="0" /><path
     id="path226"
     style="fill:#231f20;fill-opacity:1;fill-rule:nonzero;stroke:none"
     d="m 308.39694,183.805 c -1.585,-0.4775 -2.61,-0.91875 -3.8825,-1.4275 l 0,4.82625 c 0.455,-0.21625 2.2975,-0.9475 3.8825,-1.42625 1.68875,-0.51125 3.225,-0.86125 4.22125,-0.98625 -0.99625,-0.125 -2.5325,-0.47625 -4.22125,-0.98625"
     inkscape:connector-curvature="0" /><text
     transform="scale(0.99999449,1.0000055)"
     style="font-variant:normal;font-weight:normal;font-size:10.00000005px;font-family:Arial;-inkscape-font-specification:Arial;writing-mode:lr-tb;fill:#ff0000;fill-opacity:1;fill-rule:nonzero;stroke:none;font-style:normal;font-stretch:normal;"
     id="text230"
     x="222.83817"
     y="108.41065"><tspan
       x="222.83817 229.50813 235.0681 242.28806 248.95802 252.29056"
       y="108.41065"
       id="tspan232"
       style="fill:#ff0000;fill-opacity:1;-inkscape-font-specification:Arial;font-family:Arial;font-weight:normal;font-style:normal;font-stretch:normal;font-variant:normal;font-size:10.00000005px;">ALUSrc</tspan></text>
<path
     id="path234"
     style="fill:#231f20;fill-opacity:1;fill-rule:nonzero;stroke:none"
     d="m 166.33694,149.62 c 0,1.27 -1.02625,2.29625 -2.29625,2.29625 -1.2675,0 -2.29625,-1.02625 -2.29625,-2.29625 0,-1.26625 1.02875,-2.295 2.29625,-2.295 1.27,0 2.29625,1.02875 2.29625,2.295"
     inkscape:connector-curvature="0" /><path
     id="path236"
     style="fill:#231f20;fill-opacity:1;fill-rule:nonzero;stroke:none"
     d="m 166.33694,149.62 c 0,1.27 -1.02625,2.29625 -2.29625,2.29625 -1.2675,0 -2.29625,-1.02625 -2.29625,-2.29625 0,-1.26625 1.02875,-2.295 2.29625,-2.295 1.27,0 2.29625,1.02875 2.29625,2.295"
     inkscape:connector-curvature="0" /><path
     id="path238"
     style="fill:#231f20;fill-opacity:1;fill-rule:nonzero;stroke:none"
     d="m 166.59194,350.92025 c 0,1.26612 -1.02625,2.29487 -2.29625,2.29487 -1.2675,0 -2.295,-1.02875 -2.295,-2.29487 0,-1.26913 1.0275,-2.29638 2.295,-2.29638 1.27,0 2.29625,1.02725 2.29625,2.29638"
     inkscape:connector-curvature="0" /><path
     id="path240"
     style="fill:#231f20;fill-opacity:1;fill-rule:nonzero;stroke:none"
     d="m 227.31569,127.16875 c 0,1.69 -1.3725,3.06 -3.06375,3.06 -1.69125,0 -3.0625,-1.37 -3.0625,-3.06 0,-1.6925 1.37125,-3.06125 3.0625,-3.06125 1.69125,0 3.06375,1.36875 3.06375,3.06125"
     inkscape:connector-curvature="0" /><path
     id="path242"
     style="fill:#231f20;fill-opacity:1;fill-rule:nonzero;stroke:none"
     d="m 227.31569,127.16875 c 0,1.69 -1.3725,3.06 -3.06375,3.06 -1.69125,0 -3.0625,-1.37 -3.0625,-3.06 0,-1.6925 1.37125,-3.06125 3.0625,-3.06125 1.69125,0 3.06375,1.36875 3.06375,3.06125"
     inkscape:connector-curvature="0" /><path
     id="path244"
     style="fill:#231f20;fill-opacity:1;fill-rule:nonzero;stroke:none"
     d="m 175.13819,167.99125 c 0,1.26625 -1.02625,2.2975 -2.295,2.2975 -1.2675,0 -2.29625,-1.03125 -2.29625,-2.2975 0,-1.26625 1.02875,-2.295 2.29625,-2.295 1.26875,0 2.295,1.02875 2.295,2.295"
     inkscape:connector-curvature="0" /><path
     id="path246"
     style="fill:#231f20;fill-opacity:1;fill-rule:nonzero;stroke:none"
     d="m 175.13819,167.99125 c 0,1.26625 -1.02625,2.2975 -2.295,2.2975 -1.2675,0 -2.29625,-1.03125 -2.29625,-2.2975 0,-1.26625 1.02875,-2.295 2.29625,-2.295 1.26875,0 2.295,1.02875 2.295,2.295"
     inkscape:connector-curvature="0" /><path
     id="path248"
     style="fill:#231f20;fill-opacity:1;fill-rule:nonzero;stroke:none"
     d="m 352.71319,103.185 c 0,1.26875 -1.03,2.29625 -2.295,2.29625 -1.2725,0 -2.3,-1.0275 -2.3,-2.29625 0,-1.26625 1.0275,-2.295 2.3,-2.295 1.265,0 2.295,1.02875 2.295,2.295"
     inkscape:connector-curvature="0" /><path
     id="path250"
     style="fill:#231f20;fill-opacity:1;fill-rule:nonzero;stroke:none"
     d="m 352.71319,103.185 c 0,1.26875 -1.03,2.29625 -2.295,2.29625 -1.2725,0 -2.3,-1.0275 -2.3,-2.29625 0,-1.26625 1.0275,-2.295 2.3,-2.295 1.265,0 2.295,1.02875 2.295,2.295"
     inkscape:connector-curvature="0" /><path
     id="path252"
     style="fill:#231f20;fill-opacity:1;fill-rule:nonzero;stroke:none"
     d="m 352.71319,223.60875 c 0,1.26875 -1.03,2.295 -2.295,2.295 -1.2725,0 -2.3,-1.02625 -2.3,-2.295 0,-1.26875 1.0275,-2.29625 2.3,-2.29625 1.265,0 2.295,1.0275 2.295,2.29625"
     inkscape:connector-curvature="0" /><path
     id="path254"
     style="fill:#231f20;fill-opacity:1;fill-rule:nonzero;stroke:none"
     d="m 352.71319,223.60875 c 0,1.26875 -1.03,2.295 -2.295,2.295 -1.2725,0 -2.3,-1.02625 -2.3,-2.295 0,-1.26875 1.0275,-2.29625 2.3,-2.29625 1.265,0 2.295,1.0275 2.295,2.29625"
     inkscape:connector-curvature="0" /><path
     id="path256"
     style="fill:#231f20;fill-opacity:1;fill-rule:nonzero;stroke:none"
     d="m 347.61069,255.755 c 0,1.26875 -1.03,2.29625 -2.2975,2.29625 -1.2675,0 -2.295,-1.0275 -2.295,-2.29625 0,-1.2675 1.0275,-2.29375 2.295,-2.29375 1.2675,0 2.2975,1.02625 2.2975,2.29375"
     inkscape:connector-curvature="0" /><path
     id="path258"
     style="fill:#231f20;fill-opacity:1;fill-rule:nonzero;stroke:none"
     d="m 347.61069,255.755 c 0,1.26875 -1.03,2.29625 -2.2975,2.29625 -1.2675,0 -2.295,-1.0275 -2.295,-2.29625 0,-1.2675 1.0275,-2.29375 2.295,-2.29375 1.2675,0 2.2975,1.02625 2.2975,2.29375"
     inkscape:connector-curvature="0" /><path
     id="path260"
     style="fill:none;stroke:#000000;stroke-width:1;stroke-linecap:butt;stroke-linejoin:miter;stroke-miterlimit:4;stroke-dasharray:none;stroke-opacity:1"
     d="m 134.36194,41.06 45.7325,0"
     inkscape:connector-curvature="0" /><path
     id="path262"
     style="fill:#231f20;fill-opacity:1;fill-rule:nonzero;stroke:none"
     d="m 180.82194,40.08 c -1.58,-0.47875 -2.61,-0.91875 -3.87875,-1.4275 l 0,4.82625 c 0.455,-0.21625 2.29875,-0.95125 3.87875,-1.4275 1.6925,-0.51 3.22875,-0.86125 4.22375,-0.98625 -0.995,-0.125 -2.53125,-0.47375 -4.22375,-0.985"
     inkscape:connector-curvature="0" /><g
     transform="translate(-167.78567,-43.638549)"
     id="layer1"
     inkscape:label="Camada 1"><text
       sodipodi:linespacing="125%"
       id="text4894"
       y="368.73376"
       x="252.28816"
       style="font-style:normal;font-weight:normal;font-size:10px;line-height:125%;font-family:sans-serif;text-align:center;letter-spacing:0px;word-spacing:0px;writing-mode:lr-tb;text-anchor:middle;opacity:0.93999999;fill:#000000;fill-opacity:1;stroke:none;stroke-width:1px;stroke-linecap:butt;stroke-linejoin:miter;stroke-opacity:1"
       xml:space="preserve"><tspan
         style="font-size:7.5px;text-align:center;letter-spacing:0px;word-spacing:0px;text-anchor:middle"
         y="368.73376"
         x="253.48201"
         id="tspan4304"
         sodipodi:role="line">COD 4Ed, Copyright © 2009 </tspan><tspan
         style="font-size:7.5px;text-align:center;letter-spacing:0px;word-spacing:0px;text-anchor:middle"
         y="378.10876"
         x="253.48201"
         id="tspan4306"
         sodipodi:role="line"> Elsevier, Inc. All rights reserved. </tspan></text>
</g><text
     xml:space="preserve"
     style="font-style:normal;font-variant:normal;font-weight:bold;font-stretch:normal;font-size:10px;line-height:100%;font-family:Arial;-inkscape-font-specification:'Arial, Bold';text-align:center;letter-spacing:0px;word-spacing:0px;writing-mode:lr-tb;text-anchor:middle;fill:#000000;fill-opacity:1;stroke:none;stroke-width:1px;stroke-linecap:butt;stroke-linejoin:miter;stroke-opacity:1"
     x="401.06714"
     y="145.04642"
     id="text4248"
     sodipodi:linespacing="100%"><tspan
       sodipodi:role="line"
       id="tspan4250"
       x="401.06714"
       y="145.04642">Data</tspan><tspan
       sodipodi:role="line"
       x="401.06714"
       y="155.04642"
       id="tspan4252">Memory</tspan></text>
<text
     xml:space="preserve"
     style="font-style:normal;font-variant:normal;font-weight:bold;font-stretch:normal;font-size:10px;line-height:100%;font-family:Arial;-inkscape-font-specification:'Arial, Bold';text-align:center;letter-spacing:0px;word-spacing:0px;writing-mode:lr-tb;text-anchor:middle;fill:#000000;fill-opacity:1;stroke:none;stroke-width:1px;stroke-linecap:butt;stroke-linejoin:miter;stroke-opacity:1"
     x="68.416985"
     y="206.16623"
     id="text4254"
     sodipodi:linespacing="100%"><tspan
       sodipodi:role="line"
       id="tspan4256"
       x="68.416985"
       y="206.16623"
       style="font-style:normal;font-variant:normal;font-weight:normal;font-stretch:normal;font-family:Arial;-inkscape-font-specification:Arial">Signal Extended</tspan></text>
<path
     style="fill:none;fill-rule:evenodd;stroke:#000000;stroke-width:1px;stroke-linecap:butt;stroke-linejoin:miter;stroke-opacity:1"
     d="m 65.751386,209.2761 47.980744,0"
     id="path4260"
     inkscape:connector-curvature="0" /></svg>