<?xml version="1.0" encoding="UTF-8" standalone="no"?>
<svg
   xmlns:dc="http://purl.org/dc/elements/1.1/"
   xmlns:cc="http://creativecommons.org/ns#"
   xmlns:rdf="http://www.w3.org/1999/02/22-rdf-syntax-ns#"
   xmlns:svg="http://www.w3.org/2000/svg"
   xmlns="http://www.w3.org/2000/svg"
   xmlns:sodipodi="http://sodipodi.sourceforge.net/DTD/sodipodi-0.dtd"
   xmlns:inkscape="http://www.inkscape.org/namespaces/inkscape"
   viewBox="0 0 553.66138 290.0664"
   height="290.06641"
   width="553.66138"
   xml:space="preserve"
   version="1.1"
   id="svg2"
   inkscape:version="0.91 r13725"
   sodipodi:docname="pipelineVerificacaoSW-5.svg"><sodipodi:namedview
     pagecolor="#ffffff"
     bordercolor="#666666"
     borderopacity="1"
     objecttolerance="10"
     gridtolerance="10"
     guidetolerance="10"
     inkscape:pageopacity="0"
     inkscape:pageshadow="2"
     inkscape:window-width="1855"
     inkscape:window-height="1056"
     id="namedview355"
     showgrid="false"
     fit-margin-left="8"
     fit-margin-bottom="8"
     fit-margin-top="8"
     fit-margin-right="8"
     inkscape:showpageshadow="false"
     inkscape:zoom="1.4206828"
     inkscape:cx="276.83069"
     inkscape:cy="255.86288"
     inkscape:window-x="1985"
     inkscape:window-y="24"
     inkscape:window-maximized="1"
     inkscape:current-layer="svg2"
     showguides="true"
     inkscape:guide-bbox="true" /><metadata
     id="metadata8"><rdf:RDF><cc:Work
         rdf:about=""><dc:format>image/svg+xml</dc:format><dc:type
           rdf:resource="http://purl.org/dc/dcmitype/StillImage" /><dc:title></dc:title></cc:Work></rdf:RDF></metadata><defs
     id="defs6"><clipPath
       id="clipPath56"
       clipPathUnits="userSpaceOnUse"><path
         id="path58"
         d="m 99,503 0,4894 4302,0 0,-4894 -4302,0 z"
         inkscape:connector-curvature="0" /></clipPath><clipPath
       id="clipPath76"
       clipPathUnits="userSpaceOnUse"><path
         id="path78"
         d="m 99,503 0,4894 4302,0 0,-4894 -4302,0 z"
         inkscape:connector-curvature="0" /></clipPath><clipPath
       id="clipPath212"
       clipPathUnits="userSpaceOnUse"><path
         id="path214"
         d="m 99,503 0,4894 4302,0 0,-4894 -4302,0 z"
         inkscape:connector-curvature="0" /></clipPath><clipPath
       id="clipPath244"
       clipPathUnits="userSpaceOnUse"><path
         id="path246"
         d="m 99,503 0,4894 4302,0 0,-4894 -4302,0 z"
         inkscape:connector-curvature="0" /></clipPath><clipPath
       id="clipPath374"
       clipPathUnits="userSpaceOnUse"><path
         id="path376"
         d="m 99,503 0,4894 4302,0 0,-4894 -4302,0 z"
         inkscape:connector-curvature="0" /></clipPath></defs><text
     style="font-variant:normal;font-weight:normal;font-size:7.5px;font-family:Helvetica;-inkscape-font-specification:Helvetica;writing-mode:lr-tb;fill:#00adef;fill-opacity:1;fill-rule:nonzero;stroke:none"
     id="text48"
     x="505.94138"
     y="31.357502"><tspan
       x="505.94138 512.89404 515.39014 517.05511 519.14014 523.31012 525.80762 529.9776 534.14764 537.89764"
       y="31.357502"
       id="tspan50">Write-back</tspan></text>
<path
     id="path60"
     style="fill:none;stroke:#231f20;stroke-width:0.625;stroke-linecap:butt;stroke-linejoin:miter;stroke-miterlimit:4;stroke-dasharray:none;stroke-opacity:1"
     d="m 501.83762,27.897489 0,-17.865 m 43.51125,17.865 0,-17.865 m -43.51125,8.9325 43.51125,0"
     inkscape:connector-curvature="0" /><text
     style="font-variant:normal;font-weight:normal;font-size:7.5px;font-family:Helvetica;-inkscape-font-specification:Helvetica;writing-mode:lr-tb;fill:#231f20;fill-opacity:1;fill-rule:nonzero;stroke:none"
     id="text64"
     x="519.01013"
     y="12.0425"><tspan
       x="519.01013 522.76013"
       y="12.0425"
       id="tspan66">sw</tspan></text>
<path
     id="path250"
     style="fill:none;stroke:#231f20;stroke-width:0.9375;stroke-linecap:butt;stroke-linejoin:miter;stroke-miterlimit:4;stroke-dasharray:none;stroke-opacity:1"
     d="m 538.93262,171.00999 5.72501,0 0,93.60137 -358.35001,0 0,-84.24012 8.215,0"
     inkscape:connector-curvature="0" /><path
     id="path252"
     style="fill:#231f20;fill-opacity:1;fill-rule:nonzero;stroke:none"
     d="m 196.18387,179.64999 c -1.1625,-0.35125 -1.9175,-0.675 -2.84875,-1.04875 l 0,3.54625 c 0.33251,-0.1575 1.68625,-0.6975 2.84875,-1.0475 1.245,-0.37625 2.3725,-0.63375 3.105,-0.725 -0.7325,-0.0925 -1.86,-0.34875 -3.105,-0.725"
     inkscape:connector-curvature="0" /><path
     id="path254"
     style="fill:none;stroke:#231f20;stroke-width:0.9375;stroke-linecap:butt;stroke-linejoin:miter;stroke-miterlimit:4;stroke-dasharray:none;stroke-opacity:1"
     d="m 487.16262,157.97624 6.01625,0"
     inkscape:connector-curvature="0" /><path
     id="path256"
     style="fill:#231f20;fill-opacity:1;fill-rule:nonzero;stroke:none"
     d="m 494.02512,157.25499 c -1.16375,-0.35 -1.91874,-0.675 -2.85125,-1.04875 l 0,3.54625 c 0.335,-0.1575 1.6875,-0.6975 2.85125,-1.0475 1.2425,-0.37625 2.37125,-0.63375 3.10375,-0.725 -0.7325,-0.0925 -1.86125,-0.34875 -3.10375,-0.725"
     inkscape:connector-curvature="0" /><path
     id="path258"
     style="fill:none;stroke:#231f20;stroke-width:0.9375;stroke-linecap:butt;stroke-linejoin:miter;stroke-miterlimit:4;stroke-dasharray:none;stroke-opacity:1"
     d="m 194.52262,131.90124 -11.26374,0 0,88.25012 49.17875,0"
     inkscape:connector-curvature="0" /><path
     id="path260"
     style="fill:#231f20;fill-opacity:1;fill-rule:nonzero;stroke:none"
     d="m 233.96512,219.43111 c -1.16375,-0.3525 -1.91999,-0.67474 -2.8525,-1.04974 l 0,3.54737 c 0.33376,-0.15875 1.68875,-0.69725 2.8525,-1.04888 1.24375,-0.375 2.37125,-0.63375 3.10125,-0.72512 -0.73,-0.0907 -1.8575,-0.34963 -3.10125,-0.72363"
     inkscape:connector-curvature="0" /><path
     id="path262"
     style="fill:#231f20;fill-opacity:1;fill-rule:nonzero;stroke:none"
     d="m 196.18387,131.17999 c -1.1625,-0.35125 -1.9175,-0.67375 -2.84875,-1.0475 l 0,3.54625 c 0.33251,-0.15875 1.68625,-0.69875 2.84875,-1.05 1.245,-0.37625 2.3725,-0.63375 3.105,-0.72375 -0.7325,-0.0925 -1.86,-0.35 -3.105,-0.725"
     inkscape:connector-curvature="0" /><path
     id="path264"
     style="fill:#231f20;fill-opacity:1;fill-rule:nonzero;stroke:none"
     d="m 196.18387,147.55874 c -1.1625,-0.35125 -1.9175,-0.67375 -2.84875,-1.0475 l 0,3.54625 c 0.33251,-0.15875 1.68625,-0.6975 2.84875,-1.04875 1.245,-0.37625 2.3725,-0.63375 3.105,-0.725 -0.7325,-0.0925 -1.86,-0.35 -3.105,-0.725"
     inkscape:connector-curvature="0" /><path
     id="path266"
     style="fill:none;stroke:#231f20;stroke-width:0.9375;stroke-linecap:butt;stroke-linejoin:miter;stroke-miterlimit:4;stroke-dasharray:none;stroke-opacity:1"
     d="m 183.42387,148.27999 11.24251,0"
     inkscape:connector-curvature="0" /><path
     id="path268"
     style="fill:#231f20;fill-opacity:1;fill-rule:nonzero;stroke:none"
     d="m 196.18387,165.18249 c -1.1625,-0.34875 -1.9175,-0.6725 -2.84875,-1.0475 l 0,3.5475 c 0.33251,-0.15875 1.68625,-0.6975 2.84875,-1.05 1.245,-0.375 2.3725,-0.63125 3.105,-0.725 -0.7325,-0.0888 -1.86,-0.34875 -3.105,-0.725"
     inkscape:connector-curvature="0" /><path
     id="path270"
     style="fill:none;stroke:#231f20;stroke-width:0.9375;stroke-linecap:butt;stroke-linejoin:miter;stroke-miterlimit:4;stroke-dasharray:none;stroke-opacity:1"
     d="m 137.64012,156.39999 19.26626,0 m 26.51749,9.505 11.24251,0"
     inkscape:connector-curvature="0" /><path
     id="path272"
     style="fill:#231f20;fill-opacity:1;fill-rule:nonzero;stroke:none"
     d="m 158.23762,155.67999 c -1.16499,-0.3525 -1.91999,-0.675 -2.85249,-1.05 l 0,3.5475 c 0.33375,-0.15875 1.6875,-0.6975 2.85249,-1.04875 1.24251,-0.375 2.37001,-0.6325 3.10125,-0.725 -0.73124,-0.0913 -1.85874,-0.34875 -3.10125,-0.72375"
     inkscape:connector-curvature="0" /><path
     id="path274"
     style="fill:#231f20;fill-opacity:1;fill-rule:nonzero;stroke:none"
     d="m 158.23762,69.654989 c -1.16499,-0.35 -1.91999,-0.675 -2.85249,-1.04875 l 0,3.54625 c 0.33375,-0.15875 1.6875,-0.6975 2.85249,-1.0475 1.24251,-0.37625 2.37001,-0.63375 3.10125,-0.72625 -0.73124,-0.0913 -1.85874,-0.3475 -3.10125,-0.72375"
     inkscape:connector-curvature="0" /><path
     id="path276"
     style="fill:none;stroke:#231f20;stroke-width:0.9375;stroke-linecap:butt;stroke-linejoin:miter;stroke-miterlimit:4;stroke-dasharray:none;stroke-opacity:1"
     d="m 377.51888,157.87874 12.03625,0 m -12.03625,-11.4975 11.795,0"
     inkscape:connector-curvature="0" /><path
     id="path278"
     style="fill:#231f20;fill-opacity:1;fill-rule:nonzero;stroke:none"
     d="m 390.74637,157.15874 c -1.16125,-0.35 -1.91625,-0.675 -2.85125,-1.05 l 0,3.5475 c 0.335,-0.15875 1.69,-0.6975 2.85125,-1.04875 1.245,-0.375 2.37375,-0.6325 3.10375,-0.725 -0.73,-0.09 -1.85875,-0.3475 -3.10375,-0.72375"
     inkscape:connector-curvature="0" /><path
     id="path280"
     style="fill:#231f20;fill-opacity:1;fill-rule:nonzero;stroke:none"
     d="m 390.74637,145.64124 c -1.16125,-0.35 -1.91625,-0.675 -2.85125,-1.04875 l 0,3.54625 c 0.335,-0.1575 1.69,-0.6975 2.85125,-1.0475 1.245,-0.37625 2.37375,-0.63375 3.10375,-0.725 -0.73,-0.0925 -1.85875,-0.34875 -3.10375,-0.725"
     inkscape:connector-curvature="0" /><path
     id="path282"
     style="fill:none;stroke:#231f20;stroke-width:0.9375;stroke-linecap:butt;stroke-linejoin:miter;stroke-miterlimit:4;stroke-dasharray:none;stroke-opacity:1"
     d="m 407.93637,158.64249 12.28501,0"
     inkscape:connector-curvature="0" /><path
     id="path284"
     style="fill:#231f20;fill-opacity:1;fill-rule:nonzero;stroke:none"
     d="m 421.36012,157.92249 c -1.1625,-0.3525 -1.9175,-0.675 -2.85,-1.05 l 0,3.5475 c 0.335,-0.15875 1.6875,-0.6975 2.85,-1.04875 1.245,-0.375 2.3725,-0.63375 3.105,-0.725 -0.7325,-0.0913 -1.86,-0.35 -3.105,-0.72375"
     inkscape:connector-curvature="0" /><path
     id="path286"
     style="fill:none;stroke:#231f20;stroke-width:0.9375;stroke-linecap:butt;stroke-linejoin:miter;stroke-miterlimit:4;stroke-dasharray:none;stroke-opacity:1"
     d="m 407.93637,199.25749 12.53501,0"
     inkscape:connector-curvature="0" /><path
     id="path288"
     style="fill:#231f20;fill-opacity:1;fill-rule:nonzero;stroke:none"
     d="m 421.61137,198.53749 c -1.1625,-0.35125 -1.91874,-0.675 -2.85,-1.05 l 0,3.5475 c 0.335,-0.15875 1.6875,-0.69875 2.85,-1.04875 1.24501,-0.375 2.3725,-0.6325 3.10501,-0.725 -0.73251,-0.0912 -1.86,-0.34875 -3.10501,-0.72375"
     inkscape:connector-curvature="0" /><path
     id="path290"
     style="fill:none;stroke:#231f20;stroke-width:0.9375;stroke-linecap:butt;stroke-linejoin:miter;stroke-miterlimit:4;stroke-dasharray:none;stroke-opacity:1"
     d="m 413.20013,158.64249 0,56.66025 79.97874,0"
     inkscape:connector-curvature="0" /><path
     id="path292"
     style="fill:#231f20;fill-opacity:1;fill-rule:nonzero;stroke:none"
     d="m 493.89388,214.58249 c -1.1625,-0.351 -1.91875,-0.67475 -2.85125,-1.04975 l 0,3.54737 c 0.33625,-0.15875 1.68875,-0.69775 2.85125,-1.04887 1.245,-0.375 2.3725,-0.63238 3.105,-0.72513 -0.7325,-0.0913 -1.86,-0.34862 -3.105,-0.72362"
     inkscape:connector-curvature="0" /><path
     id="path294"
     style="fill:none;stroke:#231f20;stroke-width:0.9375;stroke-linecap:butt;stroke-linejoin:miter;stroke-miterlimit:4;stroke-dasharray:none;stroke-opacity:1"
     d="m 511.48138,158.64249 10.27875,0"
     inkscape:connector-curvature="0" /><path
     id="path296"
     style="fill:#231f20;fill-opacity:1;fill-rule:nonzero;stroke:none"
     d="m 522.99013,157.92249 c -1.16126,-0.3525 -1.91625,-0.675 -2.85126,-1.05 l 0,3.5475 c 0.335,-0.15875 1.69,-0.6975 2.85126,-1.04875 1.24499,-0.375 2.37374,-0.63375 3.10375,-0.725 -0.73001,-0.0913 -1.85876,-0.35 -3.10375,-0.72375"
     inkscape:connector-curvature="0" /><path
     id="path298"
     style="fill:none;stroke:#231f20;stroke-width:0.9375;stroke-linecap:butt;stroke-linejoin:miter;stroke-miterlimit:4;stroke-dasharray:none;stroke-opacity:1"
     d="m 511.23012,215.55511 6.51875,0 0,-34.09762 5.76625,0"
     inkscape:connector-curvature="0" /><path
     id="path300"
     style="fill:#231f20;fill-opacity:1;fill-rule:nonzero;stroke:none"
     d="m 523.35887,180.73749 c -1.16375,-0.3525 -1.91875,-0.675 -2.85125,-1.05 l 0,3.5475 c 0.335,-0.15875 1.6875,-0.6975 2.85125,-1.04875 1.24501,-0.37625 2.37126,-0.63375 3.10375,-0.725 -0.73249,-0.0925 -1.85874,-0.35 -3.10375,-0.72375"
     inkscape:connector-curvature="0" /><path
     id="path302"
     style="fill:none;stroke:#231f20;stroke-width:0.9375;stroke-linecap:butt;stroke-linejoin:miter;stroke-miterlimit:4;stroke-dasharray:none;stroke-opacity:1"
     d="m 408.18513,145.85499 6.26999,0"
     inkscape:connector-curvature="0" /><path
     id="path304"
     style="fill:#231f20;fill-opacity:1;fill-rule:nonzero;stroke:none"
     d="m 416.07887,145.15124 c -1.1375,-0.345 -1.875,-0.66 -2.78625,-1.025 l 0,3.4675 c 0.325,-0.155 1.64875,-0.68125 2.78625,-1.025 1.21625,-0.36875 2.31875,-0.62 3.035,-0.71 -0.71625,-0.0888 -1.81875,-0.34 -3.035,-0.7075"
     inkscape:connector-curvature="0" /><path
     id="path306"
     style="fill:none;stroke:#231f20;stroke-width:0.9375;stroke-linecap:butt;stroke-linejoin:miter;stroke-miterlimit:4;stroke-dasharray:none;stroke-opacity:1"
     d="m 331.05137,172.26499 9.6925,0"
     inkscape:connector-curvature="0" /><path
     id="path308"
     style="fill:#231f20;fill-opacity:1;fill-rule:nonzero;stroke:none"
     d="m 341.73512,171.54624 c -1.16375,-0.3525 -1.91875,-0.675 -2.85125,-1.05125 l 0,3.54875 c 0.335,-0.15875 1.6875,-0.69875 2.85125,-1.04875 1.245,-0.3775 2.37125,-0.635 3.10375,-0.725 -0.7325,-0.0925 -1.85875,-0.35 -3.10375,-0.72375"
     inkscape:connector-curvature="0" /><path
     id="path310"
     style="fill:none;stroke:#231f20;stroke-width:0.9375;stroke-linecap:butt;stroke-linejoin:miter;stroke-miterlimit:4;stroke-dasharray:none;stroke-opacity:1"
     d="m 296.87013,135.82749 43.625,0"
     inkscape:connector-curvature="0" /><path
     id="path312"
     style="fill:#231f20;fill-opacity:1;fill-rule:nonzero;stroke:none"
     d="m 341.47138,135.10749 c -1.16375,-0.3525 -1.91875,-0.67375 -2.85125,-1.04875 l 0,3.54625 c 0.33499,-0.15875 1.6875,-0.69625 2.85125,-1.0475 1.24374,-0.375 2.37124,-0.63375 3.10375,-0.725 -0.73251,-0.0925 -1.86001,-0.35 -3.10375,-0.725"
     inkscape:connector-curvature="0" /><path
     id="path314"
     style="fill:none;stroke:#231f20;stroke-width:0.9375;stroke-linecap:butt;stroke-linejoin:miter;stroke-miterlimit:4;stroke-dasharray:none;stroke-opacity:1"
     d="m 296.87013,161.40124 16.96499,0 m -5.51499,-51.31375 0,108.7265 -11.69876,0"
     inkscape:connector-curvature="0" /><path
     id="path316"
     style="fill:#231f20;fill-opacity:1;fill-rule:nonzero;stroke:none"
     d="m 314.89262,160.68124 c -1.1625,-0.3525 -1.91624,-0.675 -2.85,-1.05 l 0,3.5475 c 0.335,-0.15875 1.6875,-0.6975 2.85,-1.04875 1.24501,-0.375 2.375,-0.63375 3.10501,-0.725 -0.73001,-0.0913 -1.86,-0.35 -3.10501,-0.72375"
     inkscape:connector-curvature="0" /><path
     id="path318"
     style="fill:none;stroke:#231f20;stroke-width:0.9375;stroke-linecap:butt;stroke-linejoin:miter;stroke-miterlimit:4;stroke-dasharray:none;stroke-opacity:1"
     d="m 308.65388,183.96499 5.26625,0"
     inkscape:connector-curvature="0" /><path
     id="path320"
     style="fill:#231f20;fill-opacity:1;fill-rule:nonzero;stroke:none"
     d="m 315.11012,183.24374 c -1.1625,-0.35 -1.9175,-0.675 -2.85,-1.04875 l 0,3.5475 c 0.335,-0.15875 1.6875,-0.69875 2.85,-1.04875 1.245,-0.37625 2.3725,-0.63375 3.105,-0.725 -0.7325,-0.0925 -1.86,-0.35 -3.105,-0.725"
     inkscape:connector-curvature="0" /><path
     id="path322"
     style="fill:none;stroke:#231f20;stroke-width:0.9375;stroke-linecap:butt;stroke-linejoin:miter;stroke-miterlimit:4;stroke-dasharray:none;stroke-opacity:1"
     d="m 302.38763,161.40124 0,38.10875 87.24874,0"
     inkscape:connector-curvature="0" /><path
     id="path324"
     style="fill:#231f20;fill-opacity:1;fill-rule:nonzero;stroke:none"
     d="m 390.58512,198.78874 c -1.16125,-0.35125 -1.91624,-0.675 -2.84875,-1.04875 l 0,3.5475 c 0.3325,-0.15875 1.6875,-0.7 2.84875,-1.04875 1.245,-0.3775 2.37375,-0.635 3.10375,-0.725 -0.73,-0.0925 -1.85875,-0.35 -3.10375,-0.725"
     inkscape:connector-curvature="0" /><path
     id="path326"
     style="fill:none;stroke:#231f20;stroke-width:0.9375;stroke-linecap:butt;stroke-linejoin:miter;stroke-miterlimit:4;stroke-dasharray:none;stroke-opacity:1"
     d="m 317.68013,95.463739 11.7825,0"
     inkscape:connector-curvature="0" /><path
     id="path328"
     style="fill:#231f20;fill-opacity:1;fill-rule:nonzero;stroke:none"
     d="m 330.61263,94.743739 c -1.1625,-0.3525 -1.91875,-0.675 -2.85125,-1.05 l 0,3.5475 c 0.33625,-0.15875 1.68875,-0.6975 2.85125,-1.04875 1.245,-0.375 2.3725,-0.63375 3.105,-0.725 -0.7325,-0.0913 -1.86,-0.34875 -3.105,-0.72375"
     inkscape:connector-curvature="0" /><path
     id="path330"
     style="fill:none;stroke:#231f20;stroke-width:0.9375;stroke-linecap:butt;stroke-linejoin:miter;stroke-miterlimit:4;stroke-dasharray:none;stroke-opacity:1"
     d="m 361.30387,84.682489 28.8325,0"
     inkscape:connector-curvature="0" /><path
     id="path332"
     style="fill:#231f20;fill-opacity:1;fill-rule:nonzero;stroke:none"
     d="m 390.63013,83.962489 c -1.16251,-0.3525 -1.91751,-0.67375 -2.85001,-1.04875 l 0,3.54625 c 0.335,-0.15875 1.6875,-0.69625 2.85001,-1.0475 1.245,-0.375 2.3725,-0.63375 3.105,-0.725 -0.7325,-0.0925 -1.86,-0.35 -3.105,-0.725"
     inkscape:connector-curvature="0" /><path
     id="path334"
     style="fill:none;stroke:#231f20;stroke-width:0.9375;stroke-linecap:butt;stroke-linejoin:miter;stroke-miterlimit:4;stroke-dasharray:none;stroke-opacity:1"
     d="m 296.87013,70.893739 32.34125,0"
     inkscape:connector-curvature="0" /><path
     id="path336"
     style="fill:#231f20;fill-opacity:1;fill-rule:nonzero;stroke:none"
     d="m 330.36137,70.172489 c -1.1625,-0.35 -1.91874,-0.675 -2.85,-1.04875 l 0,3.54625 c 0.335,-0.1575 1.6875,-0.6975 2.85,-1.0475 1.24501,-0.37625 2.3725,-0.63375 3.10501,-0.725 -0.73251,-0.0925 -1.86,-0.3475 -3.10501,-0.725"
     inkscape:connector-curvature="0" /><path
     id="path338"
     style="fill:none;stroke:#231f20;stroke-width:0.9375;stroke-linecap:butt;stroke-linejoin:miter;stroke-miterlimit:4;stroke-dasharray:none;stroke-opacity:1"
     d="m 262.27262,136.07874 15.5925,0"
     inkscape:connector-curvature="0" /><path
     id="path340"
     style="fill:#231f20;fill-opacity:1;fill-rule:nonzero;stroke:none"
     d="m 279.52638,135.35749 c -1.16125,-0.35 -1.91875,-0.675 -2.85125,-1.04875 l 0,3.5475 c 0.335,-0.15875 1.69,-0.69875 2.85125,-1.04875 1.2425,-0.3775 2.3725,-0.6325 3.1025,-0.72625 -0.73,-0.09 -1.86,-0.3475 -3.1025,-0.72375"
     inkscape:connector-curvature="0" /><path
     id="path342"
     style="fill:none;stroke:#231f20;stroke-width:0.9375;stroke-linecap:butt;stroke-linejoin:miter;stroke-miterlimit:4;stroke-dasharray:none;stroke-opacity:1"
     d="m 262.02138,161.15124 15.84375,0"
     inkscape:connector-curvature="0" /><path
     id="path344"
     style="fill:#231f20;fill-opacity:1;fill-rule:nonzero;stroke:none"
     d="m 279.52638,160.42999 c -1.16125,-0.35 -1.91875,-0.675 -2.85125,-1.04875 l 0,3.5475 c 0.335,-0.15875 1.69,-0.69875 2.85125,-1.04875 1.2425,-0.37625 2.3725,-0.63375 3.1025,-0.725 -0.73,-0.0925 -1.86,-0.35 -3.1025,-0.725"
     inkscape:connector-curvature="0" /><path
     id="path346"
     style="fill:none;stroke:#231f20;stroke-width:0.9375;stroke-linecap:butt;stroke-linejoin:miter;stroke-miterlimit:4;stroke-dasharray:none;stroke-opacity:1"
     d="m 175.77762,70.392489 102.0875,0"
     inkscape:connector-curvature="0" /><path
     id="path348"
     style="fill:#231f20;fill-opacity:1;fill-rule:nonzero;stroke:none"
     d="m 279.52638,69.671239 c -1.16125,-0.35125 -1.91875,-0.675 -2.85125,-1.0475 l 0,3.54625 c 0.335,-0.15875 1.69,-0.69875 2.85125,-1.05 1.2425,-0.37625 2.3725,-0.63375 3.1025,-0.72375 -0.73,-0.0925 -1.86,-0.35 -3.1025,-0.725"
     inkscape:connector-curvature="0" /><path
     id="path350"
     style="fill:none;stroke:#231f20;stroke-width:0.9375;stroke-linecap:butt;stroke-linejoin:miter;stroke-miterlimit:4;stroke-dasharray:none;stroke-opacity:1"
     d="m 87.025,83.929989 10.029255,0 m 26.073375,-13.5375 34.59749,0"
     inkscape:connector-curvature="0" /><path
     id="path352"
     style="fill:#231f20;fill-opacity:1;fill-rule:nonzero;stroke:none"
     d="m 98.024495,83.211239 c -1.16312,-0.3525 -1.9175,-0.675 -2.85012,-1.05125 l 0,3.54875 c 0.333,-0.15875 1.687,-0.69875 2.85012,-1.05 1.24413,-0.375 2.372005,-0.63375 3.104505,-0.72375 -0.7325,-0.0925 -1.860375,-0.34875 -3.104505,-0.72375"
     inkscape:connector-curvature="0" /><path
     id="path354"
     style="fill:none;stroke:#231f20;stroke-width:0.9375;stroke-linecap:butt;stroke-linejoin:miter;stroke-miterlimit:4;stroke-dasharray:none;stroke-opacity:1"
     d="m 57.44,128.55624 13.0395,0"
     inkscape:connector-curvature="0" /><path
     id="path356"
     style="fill:#231f20;fill-opacity:1;fill-rule:nonzero;stroke:none"
     d="m 71.38875,127.83624 c -1.163125,-0.35 -1.9175,-0.6725 -2.850125,-1.04875 l 0,3.54625 c 0.3335,-0.15875 1.687,-0.69625 2.850125,-1.0475 1.244125,-0.375 2.372,-0.63375 3.1045,-0.725 -0.7325,-0.0913 -1.860375,-0.3475 -3.1045,-0.725"
     inkscape:connector-curvature="0" /><path
     id="path358"
     style="fill:none;stroke:#231f20;stroke-width:0.9375;stroke-linecap:butt;stroke-linejoin:miter;stroke-miterlimit:4;stroke-dasharray:none;stroke-opacity:1"
     d="m 63.458,128.55624 0,-69.195001 33.094255,0"
     inkscape:connector-curvature="0" /><path
     id="path360"
     style="fill:#231f20;fill-opacity:1;fill-rule:nonzero;stroke:none"
     d="m 97.845245,58.639989 c -1.16212,-0.35 -1.91887,-0.67375 -2.851495,-1.0475 l 0,3.54625 c 0.334375,-0.15875 1.689375,-0.69875 2.851495,-1.0475 1.24363,-0.3775 2.373015,-0.63375 3.103005,-0.72625 -0.73001,-0.0913 -1.859375,-0.34875 -3.103005,-0.725"
     inkscape:connector-curvature="0" /><path
     id="path362"
     style="fill:none;stroke:#231f20;stroke-width:0.9375;stroke-linecap:butt;stroke-linejoin:miter;stroke-miterlimit:4;stroke-dasharray:none;stroke-opacity:1"
     d="m 261.59638,220.26124 16.99374,0 m -102.97875,-61.95 5.51626,0"
     inkscape:connector-curvature="0" /><path
     id="path364"
     style="fill:#231f20;fill-opacity:1;fill-rule:nonzero;stroke:none"
     d="m 279.61637,219.54099 c -1.16,-0.352 -1.9175,-0.67475 -2.85,-1.04975 l 0,3.54737 c 0.335,-0.15875 1.69,-0.69737 2.85,-1.04837 1.2475,-0.3765 2.375,-0.63375 3.10501,-0.72513 -0.73001,-0.0928 -1.85751,-0.35012 -3.10501,-0.72412"
     inkscape:connector-curvature="0" /><path
     id="path366"
     style="fill:none;stroke:#231f20;stroke-width:0.625;stroke-linecap:butt;stroke-linejoin:miter;stroke-miterlimit:4;stroke-dasharray:none;stroke-opacity:1"
     d="m 224.45387,217.32124 2.57375,5.63775 m 41.1875,-6.13038 2.575,5.63863"
     inkscape:connector-curvature="0" /><path
     id="path368"
     style="fill:none;stroke:#231f20;stroke-width:0.9375;stroke-linecap:butt;stroke-linejoin:miter;stroke-miterlimit:4;stroke-dasharray:none;stroke-opacity:1"
     d="m 36.214375,128.22249 4.34575,0"
     inkscape:connector-curvature="0" /><path
     id="path378"
     style="fill:#231f20;fill-opacity:1;fill-rule:nonzero;stroke:none"
     d="m 41.673375,127.50249 c -1.162125,-0.3525 -1.918875,-0.67375 -2.8515,-1.04875 l 0,3.54625 c 0.334375,-0.15875 1.689375,-0.69625 2.8515,-1.0475 1.243625,-0.375 2.373,-0.63375 3.103,-0.725 -0.73,-0.0925 -1.859375,-0.35 -3.103,-0.725"
     inkscape:connector-curvature="0" /><path
     id="path380"
     style="fill:none;stroke:#231f20;stroke-width:0.9375;stroke-linecap:butt;stroke-linejoin:miter;stroke-miterlimit:4;stroke-dasharray:none;stroke-opacity:1"
     d="m 407.93637,85.602489 23.73625,0 0,-67.6925 -423.20387,0 0,122.513751 10.361375,-0.0813"
     inkscape:connector-curvature="0" /><path
     id="path382"
     style="fill:#231f20;fill-opacity:1;fill-rule:nonzero;stroke:none"
     d="m 20.425875,139.60749 c -1.164625,-0.34125 -1.922875,-0.66 -2.858,-1.02625 l 0.02838,3.5475 c 0.332,-0.16125 1.682125,-0.71125 2.84175,-1.0725 1.24125,-0.385 2.36825,-0.65125 3.098125,-0.74875 -0.732375,-0.085 -1.86275,-0.335 -3.11025,-0.7"
     inkscape:connector-curvature="0" /><path
     id="path384"
     style="fill:none;stroke:#231f20;stroke-width:0.9375;stroke-linecap:butt;stroke-linejoin:miter;stroke-miterlimit:4;stroke-dasharray:none;stroke-opacity:1"
     d="m 131.31763,70.392489 0,-43.95625 -118.50163,0 0,90.110001 6.014125,-0.0238"
     inkscape:connector-curvature="0" /><path
     id="path386"
     style="fill:#231f20;fill-opacity:1;fill-rule:nonzero;stroke:none"
     d="m 20.194875,115.79499 c -1.163125,-0.345 -1.919875,-0.66625 -2.854,-1.0375 l 0.01362,3.5475 c 0.332125,-0.16125 1.684625,-0.70375 2.84675,-1.05875 1.242625,-0.38125 2.369125,-0.6425 3.1005,-0.73625 -0.732375,-0.09 -1.86025,-0.34375 -3.106875,-0.715"
     inkscape:connector-curvature="0" /><path
     id="path388"
     style="fill:#231f20;fill-opacity:1;fill-rule:nonzero;stroke:none"
     d="m 129.19263,70.383739 c 0,1.20875 0.97874,2.1875 2.1875,2.1875 1.20625,0 2.18875,-0.97875 2.18875,-2.1875 0,-1.2075 -0.9825,-2.1875 -2.18875,-2.1875 -1.20876,0 -2.1875,0.98 -2.1875,2.1875"
     inkscape:connector-curvature="0" /><path
     id="path390"
     style="fill:#231f20;fill-opacity:1;fill-rule:nonzero;stroke:none"
     d="m 61.331625,128.54874 c 0,1.20625 0.979,2.1875 2.1875,2.1875 1.2085,0 2.1875,-0.98125 2.1875,-2.1875 0,-1.2075 -0.979,-2.1875 -2.1875,-2.1875 -1.2085,0 -2.1875,0.98 -2.1875,2.1875"
     inkscape:connector-curvature="0" /><path
     id="path392"
     style="fill:#231f20;fill-opacity:1;fill-rule:nonzero;stroke:none"
     d="m 180.96512,158.29999 c 0,1.21 0.9775,2.1875 2.1875,2.1875 1.20501,0 2.1875,-0.9775 2.1875,-2.1875 0,-1.2075 -0.98249,-2.1875 -2.1875,-2.1875 -1.21,0 -2.1875,0.98 -2.1875,2.1875"
     inkscape:connector-curvature="0" /><path
     id="path394"
     style="fill:#231f20;fill-opacity:1;fill-rule:nonzero;stroke:none"
     d="m 181.23637,165.90499 c 0,1.21 0.98125,2.1875 2.1875,2.1875 1.20751,0 2.1875,-0.9775 2.1875,-2.1875 0,-1.2075 -0.97999,-2.1875 -2.1875,-2.1875 -1.20625,0 -2.1875,0.98 -2.1875,2.1875"
     inkscape:connector-curvature="0" /><path
     id="path396"
     style="fill:#231f20;fill-opacity:1;fill-rule:nonzero;stroke:none"
     d="m 180.96512,148.14624 c 0,1.21 0.9775,2.1875 2.1875,2.1875 1.20501,0 2.1875,-0.9775 2.1875,-2.1875 0,-1.2075 -0.98249,-2.1875 -2.1875,-2.1875 -1.21,0 -2.1875,0.98 -2.1875,2.1875"
     inkscape:connector-curvature="0" /><path
     id="path398"
     style="fill:#231f20;fill-opacity:1;fill-rule:nonzero;stroke:none"
     d="m 300.09512,161.57999 c 0,1.21 0.97875,2.1875 2.1875,2.1875 1.20625,0 2.1875,-0.9775 2.1875,-2.1875 0,-1.2075 -0.98125,-2.1875 -2.1875,-2.1875 -1.20875,0 -2.1875,0.98 -2.1875,2.1875"
     inkscape:connector-curvature="0" /><path
     id="path400"
     style="fill:#231f20;fill-opacity:1;fill-rule:nonzero;stroke:none"
     d="m 411.06887,158.70124 c 0,1.2075 0.97875,2.1875 2.1875,2.1875 1.20625,0 2.1875,-0.98 2.1875,-2.1875 0,-1.20875 -0.98125,-2.1875 -2.1875,-2.1875 -1.20875,0 -2.1875,0.97875 -2.1875,2.1875"
     inkscape:connector-curvature="0" /><path
     id="path402"
     style="fill:#231f20;fill-opacity:1;fill-rule:nonzero;stroke:none"
     d="m 306.11012,183.97624 c 0,1.21 0.98,2.1875 2.1875,2.1875 1.20875,0 2.1875,-0.9775 2.1875,-2.1875 0,-1.2075 -0.97875,-2.1875 -2.1875,-2.1875 -1.2075,0 -2.1875,0.98 -2.1875,2.1875"
     inkscape:connector-curvature="0" /><path
     id="path404"
     style="fill:none;stroke:#231f20;stroke-width:0.625;stroke-linecap:butt;stroke-linejoin:miter;stroke-miterlimit:4;stroke-dasharray:none;stroke-opacity:1"
     d="m 538.88888,179.24499 c 0,4.17625 -2.83751,7.55875 -6.33751,7.55875 -3.49874,0 -6.33874,-3.3825 -6.33874,-7.55875 l 0,-19.3075 c 0,-4.175 2.84,-7.55625 6.33874,-7.55625 3.5,0 6.33751,3.38125 6.33751,7.55625 l 0,19.3075 z m -208.08875,3.0075 c 0,4.175 -2.83875,7.55625 -6.34,7.55625 -3.49875,0 -6.3375,-3.38125 -6.3375,-7.55625 l 0,-19.30625 c 0,-4.17625 2.83875,-7.5575 6.3375,-7.5575 3.50125,0 6.34,3.38125 6.34,7.5575 l 0,19.30625 z m -294.67263,-44.54 c 0,4.1725 -2.837875,7.55625 -6.337875,7.55625 -3.501,0 -6.338875,-3.38375 -6.338875,-7.55625 l 0,-19.31 c 0,-4.17375 2.837875,-7.55625 6.338875,-7.55625 3.5,0 6.337875,3.3825 6.337875,7.55625 l 0,19.31 z"
     inkscape:connector-curvature="0" /><text
     style="font-style:normal;font-variant:normal;font-weight:normal;font-stretch:normal;font-size:5px;line-height:125%;font-family:Helvetica;-inkscape-font-specification:'Helvetica, Normal';text-align:start;writing-mode:lr-tb;text-anchor:start;fill:#231f20;fill-opacity:1;fill-rule:nonzero;stroke:none"
     id="text554"
     x="75.60627"
     y="131.34792"
     sodipodi:linespacing="125%"><tspan
       sodipodi:role="line"
       id="tspan5427"
       x="75.60627"
       y="131.34792">Address</tspan></text>
<text
     style="font-variant:normal;font-weight:bold;font-size:5px;font-family:Helvetica;-inkscape-font-specification:Helvetica-Bold;writing-mode:lr-tb;fill:#231f20;fill-opacity:1;fill-rule:nonzero;stroke:none"
     id="text564"
     x="93.253403"
     y="154.97649"><tspan
       x="93.253403 94.643402 97.698402 100.4784 102.1434 104.0884 107.1434 109.9234 111.5884 112.9784 116.0334"
       y="154.97649"
       id="tspan566">Instruction</tspan><tspan
       x="96.445793 100.89079 103.67079 108.11579 111.17079 113.11579"
       y="160.97649"
       id="tspan568">memory</tspan></text>
<text
     style="font-variant:normal;font-weight:normal;font-size:5px;font-family:Helvetica;-inkscape-font-specification:Helvetica;writing-mode:lr-tb;fill:#231f20;fill-opacity:1;fill-rule:nonzero;stroke:none"
     id="text570"
     x="201.20453"
     y="130.75923"><tspan
       x="201.20453 204.81453 207.59453 210.37453"
       y="130.75923"
       id="tspan572">Read</tspan><tspan
       x="201.20453 202.86954 205.64954 208.42963 209.53993 212.04024 213.42963 216.20964 217.87463 219.26463"
       y="136.75777"
       id="tspan574">register 1</tspan></text>
<text
     transform="matrix(0,-1,1,0,0,0)"
     style="font-variant:normal;font-weight:normal;font-size:5px;font-family:Helvetica;-inkscape-font-specification:Helvetica;writing-mode:lr-tb;fill:#231f20;fill-opacity:1;fill-rule:nonzero;stroke:none"
     id="text576"
     x="-145.78249"
     y="180.61888"><tspan
       x="-145.78249 -144.3925 -141.6125 -139.1125 -137.72249 -136.05818 -133.27818 -130.77818 -129.38817 -128.27818 -125.49819"
       y="180.61888"
       id="tspan578">Instruction</tspan></text>
<text
     style="font-variant:normal;font-weight:normal;font-size:5px;font-family:Helvetica;-inkscape-font-specification:Helvetica;writing-mode:lr-tb;fill:#231f20;fill-opacity:1;fill-rule:nonzero;stroke:none"
     id="text580"
     x="201.20387"
     y="147.1375"><tspan
       x="201.20387 204.81387 207.59387 210.37387"
       y="147.1375"
       id="tspan582">Read</tspan><tspan
       x="201.20387 202.86888 205.64888 208.42897 209.53928 212.03958 213.42897 216.20897 217.87398 219.26398"
       y="153.13603"
       id="tspan584">register 2</tspan><tspan
       x="201.20387 205.92387 207.58887 208.69887 210.08887"
       y="164.85381"
       id="tspan586">Write</tspan><tspan
       x="201.20387 202.86888 205.64888 208.42897 209.53928 212.03958 213.42897 216.20897"
       y="170.85237"
       id="tspan588">register</tspan><tspan
       x="201.20387 205.92387 207.58887 208.69887 210.08887"
       y="179.22826"
       id="tspan590">Write</tspan><tspan
       x="201.20387 203.98891 206.77394 208.16898"
       y="185.22685"
       id="tspan592">data</tspan><tspan
       x="246.54025 250.15025 252.93025 255.71025"
       y="134.93199"
       id="tspan594">Read</tspan><tspan
       x="246.54025 249.32025 252.10023 253.49025 256.26962 257.65964"
       y="140.93199"
       id="tspan596">data 1</tspan><tspan
       x="246.54025 250.15025 252.93025 255.71025"
       y="160.00322"
       id="tspan598">Read</tspan><tspan
       x="246.54025 249.32025 252.10023 253.49025 256.26962 257.65964"
       y="166.00179"
       id="tspan600">data 2</tspan></text>
<text
     style="font-variant:normal;font-weight:bold;font-size:5px;font-family:Helvetica;-inkscape-font-specification:Helvetica-Bold;writing-mode:lr-tb;fill:#231f20;fill-opacity:1;fill-rule:nonzero;stroke:none"
     id="text602"
     x="219.35524"
     y="158.06425"><tspan
       x="219.35524 222.96524 225.74524 228.80055 230.19093 232.97131 234.63557 237.41595 239.36014"
       y="158.06425"
       id="tspan604">Registers</tspan></text>
<text
     style="font-variant:normal;font-weight:normal;font-size:5px;font-family:Helvetica;-inkscape-font-specification:Helvetica;writing-mode:lr-tb;fill:#231f20;fill-opacity:1;fill-rule:nonzero;stroke:none"
     id="text606"
     x="428.2439"
     y="160.68584"><tspan
       x="428.2439 431.57889 434.35889 437.13892 438.80338 441.58353 444.08423"
       y="160.68584"
       id="tspan608">Address</tspan><tspan
       x="428.24387 432.96387 434.62888 435.73886 437.12735"
       y="197.84056"
       id="tspan610">Write</tspan><tspan
       x="428.24387 431.02386 433.80386 435.19385"
       y="203.84056"
       id="tspan612">data</tspan><tspan
       x="471.77411 475.38412 478.16412 480.94272"
       y="156.55296"
       id="tspan614">Read</tspan><tspan
       x="472.88544 475.66544 478.44543 479.83545"
       y="162.55296"
       id="tspan616">data</tspan></text>
<text
     style="font-variant:normal;font-weight:bold;font-size:5px;font-family:Helvetica;-inkscape-font-specification:Helvetica-Bold;writing-mode:lr-tb;fill:#231f20;fill-opacity:1;fill-rule:nonzero;stroke:none"
     id="text618"
     x="450.65393"
     y="173.59303"><tspan
       x="450.65393 454.26364 457.04407 458.70908"
       y="173.59303"
       id="tspan620">Data</tspan><tspan
       x="446.34631 450.79132 453.57132 458.01633 461.07132 463.01633"
       y="179.593"
       id="tspan622">memory</tspan><tspan
       x="337.06256 340.67227 343.72665"
       y="85.396782"
       id="tspan624">Add</tspan></text>
<text
     style="font-variant:normal;font-weight:normal;font-size:5px;font-family:Helvetica;-inkscape-font-specification:Helvetica;writing-mode:lr-tb;fill:#231f20;fill-opacity:1;fill-rule:nonzero;stroke:none"
     id="text626"
     x="350.84528"
     y="82.979301"><tspan
       x="350.84528 354.1803 356.9603"
       y="82.979301"
       id="tspan628">Add</tspan><tspan
       x="347.51523 349.18021 351.96021 354.46021 357.2402 358.35022"
       y="88.97686"
       id="tspan630">result</tspan></text>
<text
     style="font-variant:normal;font-weight:bold;font-size:5px;font-family:Helvetica;-inkscape-font-specification:Helvetica-Bold;writing-mode:lr-tb;fill:#231f20;fill-opacity:1;fill-rule:nonzero;stroke:none"
     id="text632"
     x="348.97275"
     y="154.20436"><tspan
       x="348.97275 352.58273 355.63773"
       y="154.20436"
       id="tspan634">ALU</tspan></text>
<text
     style="font-variant:normal;font-weight:normal;font-size:5px;font-family:Helvetica;-inkscape-font-specification:Helvetica;writing-mode:lr-tb;fill:#231f20;fill-opacity:1;fill-rule:nonzero;stroke:none"
     id="text636"
     x="365.61624"
     y="156.65797"><tspan
       x="365.61624 368.95123 371.73004"
       y="156.65797"
       id="tspan638">ALU</tspan><tspan
       x="363.11624 364.78125 367.56125 370.06125 372.84125 373.95123"
       y="162.65797"
       id="tspan640">result</tspan><tspan
       x="365.06155 368.11655 370.89655 372.56155"
       y="148.11058"
       id="tspan642">Zero</tspan></text>
<text
     style="font-variant:normal;font-weight:bold;font-size:5px;font-family:Helvetica;-inkscape-font-specification:Helvetica-Bold;writing-mode:lr-tb;fill:#231f20;fill-opacity:1;fill-rule:nonzero;stroke:none"
     id="text644"
     x="302.48492"
     y="92.430473"><tspan
       x="302.48492 305.81992 308.87494 310.26492 311.92993"
       y="92.430473"
       id="tspan646">Shift</tspan><tspan
       x="302.48492 303.87494 306.65494 308.31992 309.98492 311.37494"
       y="98.429497"
       id="tspan648">left 2</tspan><tspan
       x="243.23491 246.56992 247.95992 251.01492 254.06993"
       y="217.43535"
       id="tspan650">Sign-</tspan><tspan
       x="241.4278 244.20779 246.98785 248.65231 251.43248 254.48784"
       y="223.43535"
       id="tspan652">extend</tspan><tspan
       x="47.805347 51.140347"
       y="130.57448"
       id="tspan654">PC</tspan></text>
<text
     style="font-variant:normal;font-weight:normal;font-size:5px;font-family:Helvetica;-inkscape-font-specification:Helvetica;writing-mode:lr-tb;fill:#231f20;fill-opacity:1;fill-rule:nonzero;stroke:none"
     id="text656"
     x="80.829231"
     y="85.93438"><tspan
       x="80.829231"
       y="85.93438"
       id="tspan658">4</tspan><tspan
       x="283.40424 284.79437 288.40469 289.79498 293.12933 163.17308 164.56322 167.61867 169.00853 170.39853 391.05356 394.38855 397.72354 399.11356 403.27853 406.61356"
       y="37.520741"
       id="tspan660">ID/EXIF/IDEX/MEM</tspan><tspan
       x="220.03853 222.81853"
       y="215.6032"
       id="tspan662">16</tspan><tspan
       x="264.78217 267.56216"
       y="215.60173"
       id="tspan664">32</tspan><tspan
       x="26.940905"
       y="118.32302"
       id="tspan666">0</tspan></text>
<text
     style="font-variant:normal;font-weight:bold;font-size:5px;font-family:Helvetica;-inkscape-font-specification:Helvetica-Bold;writing-mode:lr-tb;fill:#231f20;fill-opacity:1;fill-rule:nonzero;stroke:none"
     id="text668"
     x="28.87303"
     y="124.19167"><tspan
       x="28.87303"
       y="124.19167"
       id="tspan670">M</tspan><tspan
       x="29.427717"
       y="130.1917"
       id="tspan672">u</tspan><tspan
       x="29.565901"
       y="136.1917"
       id="tspan674">x</tspan></text>
<text
     style="font-variant:normal;font-weight:normal;font-size:5px;font-family:Helvetica;-inkscape-font-specification:Helvetica;writing-mode:lr-tb;fill:#231f20;fill-opacity:1;fill-rule:nonzero;stroke:none"
     id="text676"
     x="26.940901"
     y="142.14189"><tspan
       x="26.940901"
       y="142.14189"
       id="tspan678">1</tspan><tspan
       x="321.6109"
       y="163.19951"
       id="tspan680">0</tspan></text>
<text
     style="font-variant:normal;font-weight:bold;font-size:5px;font-family:Helvetica;-inkscape-font-specification:Helvetica-Bold;writing-mode:lr-tb;fill:#231f20;fill-opacity:1;fill-rule:nonzero;stroke:none"
     id="text682"
     x="323.3497"
     y="168.96071"><tspan
       x="323.3497"
       y="168.96071"
       id="tspan684">M</tspan><tspan
       x="323.90634"
       y="174.95924"
       id="tspan686">u</tspan><tspan
       x="324.04257"
       y="180.95921"
       id="tspan688">x</tspan></text>
<text
     style="font-style:normal;font-variant:normal;font-weight:normal;font-stretch:normal;font-size:5px;line-height:125%;font-family:Helvetica;-inkscape-font-specification:'Helvetica, Normal';text-align:start;writing-mode:lr-tb;text-anchor:start;fill:#231f20;fill-opacity:1;fill-rule:nonzero;stroke:none"
     id="text690"
     x="321.61093"
     y="185.76537"
     sodipodi:linespacing="125%"><tspan
       sodipodi:role="line"
       id="tspan5399"
       x="321.61093"
       y="185.76537">1</tspan></text>
<text
     style="font-variant:normal;font-weight:bold;font-size:5px;font-family:Helvetica;-inkscape-font-specification:Helvetica-Bold;writing-mode:lr-tb;fill:#231f20;fill-opacity:1;fill-rule:nonzero;stroke:none"
     id="text696"
     x="531.18823"
     y="166.04329"><tspan
       x="531.18823"
       y="166.04329"
       id="tspan698">M</tspan><tspan
       x="531.74341"
       y="172.04182"
       id="tspan700">u</tspan><tspan
       x="531.88062"
       y="178.04179"
       id="tspan702">x</tspan></text>
<text
     style="font-style:normal;font-variant:normal;font-weight:normal;font-stretch:normal;font-size:5px;line-height:125%;font-family:Helvetica;-inkscape-font-specification:'Helvetica, Normal';text-align:start;writing-mode:lr-tb;text-anchor:start;fill:#231f20;fill-opacity:1;fill-rule:nonzero;stroke:none"
     id="text704"
     x="493.70093"
     y="37.258106"
     sodipodi:linespacing="125%"><tspan
       sodipodi:role="line"
       id="tspan5379"
       x="493.70093"
       y="37.258106">MEM/WB</tspan></text>
<text
     xml:space="preserve"
     style="font-style:normal;font-weight:normal;font-size:10px;line-height:125%;font-family:sans-serif;text-align:start;letter-spacing:0px;word-spacing:0px;writing-mode:lr-tb;text-anchor:start;opacity:0.93999999;fill:#000000;fill-opacity:1;stroke:none;stroke-width:1px;stroke-linecap:butt;stroke-linejoin:miter;stroke-opacity:1"
     x="27.087315"
     y="242.07066"
     id="text4894"
     sodipodi:linespacing="125%"><tspan
       sodipodi:role="line"
       id="tspan4304"
       x="27.087315"
       y="242.07066"
       style="font-size:7.5px">COD 4Ed, Copyright © 2009 </tspan><tspan
       sodipodi:role="line"
       x="27.087315"
       y="251.44566"
       style="font-size:7.5px"
       id="tspan4308">Elsevier, Inc. All rights reserved.</tspan><tspan
       sodipodi:role="line"
       id="tspan4306"
       x="27.087315"
       y="260.82068" /></text>
<text
     xml:space="preserve"
     style="font-style:normal;font-weight:normal;font-size:10px;line-height:125%;font-family:sans-serif;letter-spacing:0px;word-spacing:0px;fill:#000000;fill-opacity:1;stroke:none;stroke-width:1px;stroke-linecap:butt;stroke-linejoin:miter;stroke-opacity:1"
     x="124.61362"
     y="279.98633"
     id="text5570"
     sodipodi:linespacing="125%"><tspan
       sodipodi:role="line"
       id="tspan5572"
       x="124.61362"
       y="279.98633">Simulação, da instrução SW, na quinta etapa do pipelilne.</tspan></text>
<text
     sodipodi:linespacing="125%"
     y="162.42168"
     x="527.19849"
     id="text5389"
     style="font-style:normal;font-variant:normal;font-weight:normal;font-stretch:normal;font-size:5px;line-height:125%;font-family:Helvetica;-inkscape-font-specification:'Helvetica, Normal';text-align:start;writing-mode:lr-tb;text-anchor:start;fill:#231f20;fill-opacity:1;fill-rule:nonzero;stroke:none"><tspan
       y="162.42168"
       x="527.19849"
       id="tspan5391"
       sodipodi:role="line">1</tspan><tspan
       id="tspan5393"
       y="168.67168"
       x="527.19849"
       sodipodi:role="line" /><tspan
       id="tspan5395"
       y="174.92168"
       x="527.19849"
       sodipodi:role="line" /><tspan
       y="181.17168"
       x="527.19849"
       id="tspan5397"
       sodipodi:role="line">0</tspan></text>
<text
     sodipodi:linespacing="125%"
     y="72.983299"
     x="106.57729"
     id="text5419"
     style="font-style:normal;font-variant:normal;font-weight:normal;font-stretch:normal;font-size:5px;line-height:125%;font-family:Helvetica;-inkscape-font-specification:'Helvetica, Normal';text-align:start;writing-mode:lr-tb;text-anchor:start;fill:#231f20;fill-opacity:1;fill-rule:nonzero;stroke:none"><tspan
       sodipodi:role="line"
       id="tspan5425"
       x="106.57729"
       y="72.983299">Add</tspan></text>
<path
     inkscape:connector-curvature="0"
     d="m 175.61137,252.32612 -14.03999,0 0,-210.932381 14.03999,0 z m 121.34375,0 -14.04,0 0,-210.932381 14.04,0 z m 110.98125,0 -14.04,0 0,-210.932381 14.04,0 z m 103.29375,0 -14.04,0 0,-210.932381 14.04,0 z M 57.545,144.12624 l -12.536625,0 0,-29.585 12.536625,0 z m 204.10262,75.02262 c 0,10.55475 -5.44375,19.11138 -12.16,19.11138 -6.7175,0 -12.16124,-8.55663 -12.16124,-19.11138 0,-10.55262 5.44374,-19.11012 12.16124,-19.11012 6.71625,0 12.16,8.5575 12.16,19.11012 z m 56.06,-124.937621 c 0,8.768751 -4.20249,15.876251 -9.38749,15.876251 -5.18375,0 -9.385,-7.1075 -9.385,-15.876251 0,-8.77 4.20125,-15.8775 9.385,-15.8775 5.185,0 9.38749,7.1075 9.38749,15.8775 z m 27.03125,34.816251 32.83126,15.4075 0,18.4625 -32.61501,13.0025 0,-19.09375 3.12125,-4.5575 -3.3375,-4.5575 z m -11.16,-64.818751 27.4025,12.86125 0,15.40875 -27.2225,10.852501 0,-15.938751 2.6075,-3.80375 -2.7875,-3.8025 z m 153.8675,142.791251 -62.745,0 0,-63.9575 62.745,0 z m -349.90374,-18.61875 -62.744255,0 0,-63.955 62.744255,0 z m 124.5775,-0.18 -62.7425,0 0,-63.95625 62.7425,0 z M 101.23975,50.648739 l 21.38663,12.85875 0,13.40375 -21.2045,12.86 0,-15.94 3.60937,-3.80125 -3.7915,-3.805 z"
     style="fill:none;stroke:#000000;stroke-width:0.625;stroke-linecap:butt;stroke-linejoin:miter;stroke-miterlimit:4;stroke-dasharray:none;stroke-opacity:1"
     id="path4476"
     sodipodi:nodetypes="cccccccccccccccccccccccccssssssssssccccccccccccccccccccccccccccccccccccccc" /></svg>