<?xml version="1.0" encoding="UTF-8" standalone="no"?>
<!-- Created with Inkscape (http://www.inkscape.org/) -->

<svg
   xmlns:dc="http://purl.org/dc/elements/1.1/"
   xmlns:cc="http://creativecommons.org/ns#"
   xmlns:rdf="http://www.w3.org/1999/02/22-rdf-syntax-ns#"
   xmlns:svg="http://www.w3.org/2000/svg"
   xmlns="http://www.w3.org/2000/svg"
   xmlns:sodipodi="http://sodipodi.sourceforge.net/DTD/sodipodi-0.dtd"
   xmlns:inkscape="http://www.inkscape.org/namespaces/inkscape"
   id="svg2"
   version="1.1"
   inkscape:version="0.92.5 (2060ec1f9f, 2020-04-08)"
   xml:space="preserve"
   width="343.37646"
   height="386.87857"
   viewBox="0 0 343.37646 386.87857"
   sodipodi:docname="UnidadeControleHardWired-Decoder-e-AtivacaoPtControle-Quiz.svg"><metadata
     id="metadata8"><rdf:RDF><cc:Work
         rdf:about=""><dc:format>image/svg+xml</dc:format><dc:type
           rdf:resource="http://purl.org/dc/dcmitype/StillImage" /><dc:title></dc:title></cc:Work></rdf:RDF></metadata><defs
     id="defs6" /><sodipodi:namedview
     pagecolor="#ffffff"
     bordercolor="#666666"
     borderopacity="1"
     objecttolerance="10"
     gridtolerance="10"
     guidetolerance="10"
     inkscape:pageopacity="0"
     inkscape:pageshadow="2"
     inkscape:window-width="1920"
     inkscape:window-height="1061"
     id="namedview4"
     showgrid="false"
     inkscape:zoom="2.2125805"
     inkscape:cx="171.68823"
     inkscape:cy="193.43929"
     inkscape:window-x="1920"
     inkscape:window-y="0"
     inkscape:window-maximized="1"
     inkscape:current-layer="g10"
     fit-margin-left="10"
     fit-margin-bottom="10"
     fit-margin-top="10"
     fit-margin-right="10"
     showguides="true"
     inkscape:guide-bbox="true" /><g
     id="g10"
     inkscape:groupmode="layer"
     inkscape:label="ink_ext_XXXXXX"
     transform="matrix(1.25,0,0,-1.25,10.312207,338.505)"><path
   inkscape:connector-curvature="0"
   id="path18"
   style="fill:none;stroke:#000000;stroke-width:1;stroke-linecap:butt;stroke-linejoin:miter;stroke-miterlimit:4;stroke-dasharray:none;stroke-opacity:1"
   d="m 163.8711,169.6412 c 0.966,0 1.749,0.784 1.749,1.75 0,0.967 -0.783,1.75 -1.749,1.75 -0.967,0 -1.751,-0.783 -1.751,-1.75 0,-0.966 0.784,-1.75 1.751,-1.75 z" /><path
   inkscape:connector-curvature="0"
   id="path20"
   style="fill:none;stroke:#000000;stroke-width:1;stroke-linecap:butt;stroke-linejoin:miter;stroke-miterlimit:4;stroke-dasharray:none;stroke-opacity:1"
   d="m 155.8129,169.6412 c 0.966,0 1.75,0.784 1.75,1.75 0,0.967 -0.784,1.75 -1.75,1.75 -0.966,0 -1.75,-0.783 -1.75,-1.75 0,-0.966 0.784,-1.75 1.75,-1.75 z" /><path
   inkscape:connector-curvature="0"
   id="path24"
   style="fill:none;stroke:#000000;stroke-width:0.99999994;stroke-linecap:butt;stroke-linejoin:miter;stroke-miterlimit:4;stroke-dasharray:none;stroke-opacity:1"
   d="m 139.16601,168.84706 v 74.21849" /><path
   inkscape:connector-curvature="0"
   id="path48"
   style="fill:none;stroke:#000000;stroke-width:1;stroke-linecap:butt;stroke-linejoin:miter;stroke-miterlimit:4;stroke-dasharray:none;stroke-opacity:1"
   d="m 128.2297,169.6412 c 0.967,0 1.751,0.784 1.751,1.75 0,0.967 -0.784,1.75 -1.751,1.75 -0.966,0 -1.749,-0.783 -1.749,-1.75 0,-0.966 0.783,-1.75 1.749,-1.75 z" /><path
   inkscape:connector-curvature="0"
   id="path50"
   style="fill:none;stroke:#000000;stroke-width:1;stroke-linecap:butt;stroke-linejoin:miter;stroke-miterlimit:4;stroke-dasharray:none;stroke-opacity:1"
   d="m 120.3727,169.6412 c 0.966,0 1.749,0.784 1.749,1.75 0,0.967 -0.783,1.75 -1.749,1.75 -0.967,0 -1.751,-0.783 -1.751,-1.75 0,-0.966 0.784,-1.75 1.751,-1.75 z" /><path
   inkscape:connector-curvature="0"
   id="path52"
   style="fill:none;stroke:#000000;stroke-width:1;stroke-linecap:butt;stroke-linejoin:miter;stroke-miterlimit:4;stroke-dasharray:none;stroke-opacity:1"
   d="m 103.5,173.13611 v 68.24688" /><path
   inkscape:connector-curvature="0"
   id="path68"
   style="fill:#000000;fill-opacity:1;fill-rule:nonzero;stroke:none"
   d="m 128.3499,203.967 c 0.967,0 1.751,0.783 1.751,1.749 0,0.967 -0.784,1.751 -1.751,1.751 -0.966,0 -1.749,-0.784 -1.749,-1.751 0,-0.966 0.783,-1.749 1.749,-1.749" /><path
   inkscape:connector-curvature="0"
   id="path70"
   style="fill:#000000;fill-opacity:1;fill-rule:nonzero;stroke:none"
   d="m 120.316,216.3 c 0.967,0 1.751,0.784 1.751,1.75 0,0.966 -0.784,1.75 -1.751,1.75 -0.966,0 -1.749,-0.784 -1.749,-1.75 0,-0.966 0.783,-1.75 1.749,-1.75" /><path
   inkscape:connector-curvature="0"
   id="path72"
   style="fill:#000000;fill-opacity:1;fill-rule:nonzero;stroke:none"
   d="m 111.4386,228.8 c 0.967,0 1.751,0.782 1.751,1.75 0,0.967 -0.784,1.75 -1.751,1.75 -0.966,0 -1.749,-0.783 -1.749,-1.75 0,-0.968 0.783,-1.75 1.749,-1.75" /><path
   inkscape:connector-curvature="0"
   id="path74"
   style="fill:#000000;fill-opacity:1;fill-rule:nonzero;stroke:none"
   d="m 103.514,240.812 c 0.967,0 1.75,0.783 1.75,1.75 0,0.967 -0.783,1.75 -1.75,1.75 -0.967,0 -1.75,-0.783 -1.75,-1.75 0,-0.967 0.783,-1.75 1.75,-1.75" /><path
   inkscape:connector-curvature="0"
   id="path76"
   style="fill:none;stroke:#000000;stroke-width:1;stroke-linecap:butt;stroke-linejoin:miter;stroke-miterlimit:4;stroke-dasharray:none;stroke-opacity:1"
   d="m 92.297718,169.6412 c 0.9668,0 1.7508,0.784 1.7508,1.75 0,0.967 -0.784,1.75 -1.7508,1.75 -0.966,0 -1.7492,-0.783 -1.7492,-1.75 0,-0.966 0.7832,-1.75 1.7492,-1.75 z" /><path
   inkscape:connector-curvature="0"
   id="path78"
   style="fill:none;stroke:#000000;stroke-width:1;stroke-linecap:butt;stroke-linejoin:miter;stroke-miterlimit:4;stroke-dasharray:none;stroke-opacity:1"
   d="m 84.3164,169.6412 c 0.9668,0 1.7508,0.784 1.7508,1.75 0,0.967 -0.784,1.75 -1.7508,1.75 -0.966,0 -1.7492,-0.783 -1.7492,-1.75 0,-0.966 0.7832,-1.75 1.7492,-1.75 z" /><path
   inkscape:connector-curvature="0"
   id="path80"
   style="fill:none;stroke:#000000;stroke-width:1;stroke-linecap:butt;stroke-linejoin:miter;stroke-miterlimit:4;stroke-dasharray:none;stroke-opacity:1"
   d="m 75.276738,169.6412 c 0.966,0 1.7492,0.784 1.7492,1.75 0,0.967 -0.7832,1.75 -1.7492,1.75 -0.9668,0 -1.7508,-0.783 -1.7508,-1.75 0,-0.966 0.784,-1.75 1.7508,-1.75 z" /><path
   inkscape:connector-curvature="0"
   id="path82"
   style="fill:none;stroke:#000000;stroke-width:0.99999994;stroke-linecap:butt;stroke-linejoin:miter;stroke-miterlimit:4;stroke-dasharray:none;stroke-opacity:1"
   d="m 67.499998,168.7252 v 72.65779" /><path
   inkscape:connector-curvature="0"
   id="path98"
   style="fill:#000000;fill-opacity:1;fill-rule:nonzero;stroke:none"
   d="m 92.267592,203.967 c 0.9664,0 1.7508,0.783 1.7508,1.749 0,0.967 -0.7844,1.751 -1.7508,1.751 -0.9668,0 -1.7492,-0.784 -1.7492,-1.751 0,-0.966 0.7824,-1.749 1.7492,-1.749" /><path
   inkscape:connector-curvature="0"
   id="path100"
   style="fill:#000000;fill-opacity:1;fill-rule:nonzero;stroke:none"
   d="m 84.3164,216.3 c 0.9664,0 1.7508,0.784 1.7508,1.75 0,0.966 -0.7844,1.75 -1.7508,1.75 -0.9668,0 -1.7492,-0.784 -1.7492,-1.75 0,-0.966 0.7824,-1.75 1.7492,-1.75" /><path
   inkscape:connector-curvature="0"
   id="path102"
   style="fill:#000000;fill-opacity:1;fill-rule:nonzero;stroke:none"
   d="m 75.366944,228.8 c 0.9664,0 1.7508,0.782 1.7508,1.75 0,0.967 -0.7844,1.75 -1.7508,1.75 -0.9668,0 -1.7492,-0.783 -1.7492,-1.75 0,-0.968 0.7824,-1.75 1.7492,-1.75" /><path
   inkscape:connector-curvature="0"
   id="path104"
   style="fill:#000000;fill-opacity:1;fill-rule:nonzero;stroke:none"
   d="m 67.5141,240.812 c 0.9668,0 1.7496,0.783 1.7496,1.75 0,0.967 -0.7828,1.75 -1.7496,1.75 -0.9661,0 -1.7504,-0.783 -1.7504,-1.75 0,-0.967 0.7843,-1.75 1.7504,-1.75" /><path
   inkscape:connector-curvature="0"
   id="path108"
   style="fill:none;stroke:#000000;stroke-width:1;stroke-linecap:butt;stroke-linejoin:miter;stroke-miterlimit:4;stroke-dasharray:none;stroke-opacity:1"
   d="m 56.658712,169.65872 c 0.9664,0 1.75,0.784 1.75,1.75 0,0.967 -0.7836,1.75 -1.75,1.75 -0.9664,0 -1.75,-0.783 -1.75,-1.75 0,-0.966 0.7836,-1.75 1.75,-1.75 z" /><path
   inkscape:connector-curvature="0"
   id="path112"
   style="fill:none;stroke:#000000;stroke-width:1;stroke-linecap:butt;stroke-linejoin:miter;stroke-miterlimit:4;stroke-dasharray:none;stroke-opacity:1"
   d="m 48.629212,169.65872 c 0.9664,0 1.75,0.784 1.75,1.75 0,0.967 -0.7836,1.75 -1.75,1.75 -0.9664,0 -1.75,-0.783 -1.75,-1.75 0,-0.966 0.7836,-1.75 1.75,-1.75 z" /><path
   inkscape:connector-curvature="0"
   id="path114"
   style="fill:none;stroke:#000000;stroke-width:1;stroke-linecap:butt;stroke-linejoin:miter;stroke-miterlimit:4;stroke-dasharray:none;stroke-opacity:1"
   d="m 39.70719,169.65872 c 0.9668,0 1.7508,0.784 1.7508,1.75 0,0.967 -0.784,1.75 -1.7508,1.75 -0.966,0 -1.7492,-0.783 -1.7492,-1.75 0,-0.966 0.7832,-1.75 1.7492,-1.75 z" /><path
   inkscape:connector-curvature="0"
   id="path116"
   style="fill:none;stroke:#000000;stroke-width:1;stroke-linecap:butt;stroke-linejoin:miter;stroke-miterlimit:4;stroke-dasharray:none;stroke-opacity:1"
   d="m 31.645148,169.65872 c 0.9664,0 1.75,0.784 1.75,1.75 0,0.967 -0.7836,1.75 -1.75,1.75 -0.9664,0 -1.75,-0.783 -1.75,-1.75 0,-0.966 0.7836,-1.75 1.75,-1.75 z" /><path
   inkscape:connector-curvature="0"
   id="path120"
   style="fill:none;stroke:#000000;stroke-width:1;stroke-linecap:butt;stroke-linejoin:miter;stroke-miterlimit:4;stroke-dasharray:none;stroke-opacity:1"
   d="m 111.46226,168.37872 v 61.67127" /><path
   inkscape:connector-curvature="0"
   id="path122"
   style="fill:none;stroke:#000000;stroke-width:1;stroke-linecap:butt;stroke-linejoin:miter;stroke-miterlimit:4;stroke-dasharray:none;stroke-opacity:1"
   d="M 120.38428,173.31328 V 218.05" /><path
   inkscape:connector-curvature="0"
   id="path124"
   style="fill:none;stroke:#000000;stroke-width:1;stroke-linecap:butt;stroke-linejoin:miter;stroke-miterlimit:4;stroke-dasharray:none;stroke-opacity:1"
   d="M 128.37112,173.04928 V 205.384" /><path
   inkscape:connector-curvature="0"
   id="path134"
   style="fill:#000000;fill-opacity:1;fill-rule:nonzero;stroke:none"
   d="m 56.616052,203.967 c 0.9664,0 1.75,0.783 1.75,1.749 0,0.967 -0.7836,1.751 -1.75,1.751 -0.9664,0 -1.75,-0.784 -1.75,-1.751 0,-0.966 0.7836,-1.749 1.75,-1.749" /><path
   inkscape:connector-curvature="0"
   id="path136"
   style="fill:#000000;fill-opacity:1;fill-rule:nonzero;stroke:none"
   d="m 48.629212,216.3 c 0.9664,0 1.75,0.784 1.75,1.75 0,0.966 -0.7836,1.75 -1.75,1.75 -0.9664,0 -1.75,-0.784 -1.75,-1.75 0,-0.966 0.7836,-1.75 1.75,-1.75" /><path
   inkscape:connector-curvature="0"
   id="path138"
   style="fill:#000000;fill-opacity:1;fill-rule:nonzero;stroke:none"
   d="m 39.70719,228.8 c 0.9664,0 1.7508,0.782 1.7508,1.75 0,0.967 -0.7844,1.75 -1.7508,1.75 -0.9668,0 -1.7492,-0.783 -1.7492,-1.75 0,-0.968 0.7824,-1.75 1.7492,-1.75" /><path
   inkscape:connector-curvature="0"
   id="path140"
   style="fill:#000000;fill-opacity:1;fill-rule:nonzero;stroke:none"
   d="m 31.7086,240.812 c 0.9656,0 1.7492,0.783 1.7492,1.75 0,0.967 -0.7836,1.75 -1.7492,1.75 -0.9664,0 -1.7508,-0.783 -1.7508,-1.75 0,-0.967 0.7844,-1.75 1.7508,-1.75" /><path
   inkscape:connector-curvature="0"
   id="path142"
   style="fill:#000000;fill-opacity:1;fill-rule:nonzero;stroke:none"
   d="m 78.852969,124.187 c 0.9664,0 1.7508,0.784 1.7508,1.75 0,0.965 -0.7844,1.75 -1.7508,1.75 -0.9668,0 -1.7492,-0.785 -1.7492,-1.75 0,-0.966 0.7824,-1.75 1.7492,-1.75" /><path
   inkscape:connector-curvature="0"
   id="path148"
   style="fill:#000000;fill-opacity:1;fill-rule:nonzero;stroke:none"
   d="m 79.25,92.53532 c 0.9664,0 1.75,0.783 1.75,1.75 0,0.966 -0.7836,1.75 -1.75,1.75 -0.9664,0 -1.75,-0.784 -1.75,-1.75 0,-0.967 0.7836,-1.75 1.75,-1.75" /><path
   inkscape:connector-curvature="0"
   id="path152"
   style="fill:#000000;fill-opacity:1;fill-rule:nonzero;stroke:none"
   d="m 43.173138,49.090735 c 0.9664,0 1.75,0.7828 1.75,1.7488 0,0.9668 -0.7836,1.7512 -1.75,1.7512 -0.9664,0 -1.75,-0.7844 -1.75,-1.7512 0,-0.966 0.7836,-1.7488 1.75,-1.7488" /><path
   inkscape:connector-curvature="0"
   id="path156"
   style="fill:#000000;fill-opacity:1;fill-rule:nonzero;stroke:none"
   d="m 115.1418,21.779795 c 0.966,0 1.749,0.7844 1.749,1.7512 0,0.966 -0.783,1.7488 -1.749,1.7488 -0.967,0 -1.751,-0.7828 -1.751,-1.7488 0,-0.9668 0.784,-1.7512 1.751,-1.7512" /><path
   inkscape:connector-curvature="0"
   id="path162"
   style="fill:#000000;fill-opacity:1;fill-rule:nonzero;stroke:none"
   d="m 115.125,83.13932 c 0.966,0 1.75,0.784 1.75,1.751 0,0.966 -0.784,1.749 -1.75,1.749 -0.966,0 -1.75,-0.783 -1.75,-1.749 0,-0.967 0.784,-1.751 1.75,-1.751" /><path
   inkscape:connector-curvature="0"
   id="path164"
   style="fill:none;stroke:#000000;stroke-width:0.99999994;stroke-linecap:butt;stroke-linejoin:miter;stroke-miterlimit:4;stroke-dasharray:none;stroke-opacity:1"
   d="M 165.04887,126.009 H 78.210601"
   sodipodi:nodetypes="cc" /><path
   inkscape:connector-curvature="0"
   id="path166"
   style="fill:none;stroke:#000000;stroke-width:1;stroke-linecap:butt;stroke-linejoin:miter;stroke-miterlimit:4;stroke-dasharray:none;stroke-opacity:1"
   d="M 164.58654,94.31532 H 79.625"
   sodipodi:nodetypes="cc" /><path
   inkscape:connector-curvature="0"
   id="path168"
   style="fill:none;stroke:#000000;stroke-width:1;stroke-linecap:butt;stroke-linejoin:miter;stroke-miterlimit:4;stroke-dasharray:none;stroke-opacity:1"
   d="m 196.334,84.11532 h 14.5" /><path
   inkscape:connector-curvature="0"
   id="path170"
   style="fill:none;stroke:#000000;stroke-width:1;stroke-linecap:butt;stroke-linejoin:miter;stroke-miterlimit:4;stroke-dasharray:none;stroke-opacity:1"
   d="M 165.94627,84.84732 H 115.5" /><path
   inkscape:connector-curvature="0"
   id="path176"
   style="fill:none;stroke:#000000;stroke-width:1;stroke-linecap:butt;stroke-linejoin:miter;stroke-miterlimit:4;stroke-dasharray:none;stroke-opacity:1"
   d="M 211.084,50.75 H 43.298082"
   sodipodi:nodetypes="cc" /><path
   inkscape:connector-curvature="0"
   id="path190"
   style="fill:none;stroke:#000000;stroke-width:1;stroke-linecap:butt;stroke-linejoin:miter;stroke-miterlimit:4;stroke-dasharray:none;stroke-opacity:1"
   d="M 151.209,137.93914 V 4.0690988"
   sodipodi:nodetypes="cc" /><path
   inkscape:connector-curvature="0"
   id="path192"
   style="fill:none;stroke:#000000;stroke-width:1;stroke-linecap:butt;stroke-linejoin:miter;stroke-miterlimit:4;stroke-dasharray:none;stroke-opacity:1"
   d="M 115.166,137.884 V 6.21602" /><path
   inkscape:connector-curvature="0"
   id="path194"
   style="fill:none;stroke:#000000;stroke-width:1;stroke-linecap:butt;stroke-linejoin:miter;stroke-miterlimit:4;stroke-dasharray:none;stroke-opacity:1"
   d="M 79.1664,137.884 V 6.425" /><path
   inkscape:connector-curvature="0"
   id="path196"
   style="fill:none;stroke:#000000;stroke-width:1;stroke-linecap:butt;stroke-linejoin:miter;stroke-miterlimit:4;stroke-dasharray:none;stroke-opacity:1"
   d="M 43.375,137.884 V 6.21602" /><path
   inkscape:connector-curvature="0"
   id="path206"
   style="fill:#000000;fill-opacity:1;fill-rule:nonzero;stroke:none"
   d="M 155.012,205.716 H 22.75" /><path
   inkscape:connector-curvature="0"
   id="path208"
   style="fill:none;stroke:#000000;stroke-width:0.99999994;stroke-linecap:butt;stroke-linejoin:miter;stroke-miterlimit:4;stroke-dasharray:none;stroke-opacity:1"
   d="M 164.40537,205.716 H 22.75" /><path
   inkscape:connector-curvature="0"
   id="path210"
   style="fill:#000000;fill-opacity:1;fill-rule:nonzero;stroke:none"
   d="M 150.762,218.05 H 22.75" /><path
   inkscape:connector-curvature="0"
   id="path212"
   style="fill:none;stroke:#000000;stroke-width:1;stroke-linecap:butt;stroke-linejoin:miter;stroke-miterlimit:4;stroke-dasharray:none;stroke-opacity:1"
   d="M 156.37457,218.05 H 22.750001"
   sodipodi:nodetypes="cc" /><path
   inkscape:connector-curvature="0"
   id="path214"
   style="fill:#000000;fill-opacity:1;fill-rule:nonzero;stroke:none"
   d="M 144.5,230.55 H 22.75" /><path
   inkscape:connector-curvature="0"
   id="path216"
   style="fill:none;stroke:#000000;stroke-width:1;stroke-linecap:butt;stroke-linejoin:miter;stroke-miterlimit:4;stroke-dasharray:none;stroke-opacity:1"
   d="M 147.47421,230.55 H 22.75"
   sodipodi:nodetypes="cc" /><path
   inkscape:connector-curvature="0"
   id="path218"
   style="fill:#000000;fill-opacity:1;fill-rule:nonzero;stroke:none"
   d="M 139.5,242.645 H 22.75" /><path
   inkscape:connector-curvature="0"
   id="path220"
   style="fill:none;stroke:#000000;stroke-width:1;stroke-linecap:butt;stroke-linejoin:miter;stroke-miterlimit:4;stroke-dasharray:none;stroke-opacity:1"
   d="M 139.5,242.645 H 22.75" /><path
   inkscape:connector-curvature="0"
   id="path266"
   style="fill:none;fill-opacity:1;fill-rule:nonzero;stroke:none"
   d="m 161.834,98.64732 c 0,0 2.717,-2.941 3.666,-6.5 0.666,-2.5 0.666,-7 0,-8.832 -0.649,-1.787 -3.5,-6.334 -3.5,-6.334 0,0 12.166,-0.334 16.334,0.166 4.166,0.5 7.877,1.17 12.666,4.5 3.834,2.668 5.334,5.668 5.334,5.668 0,0 -2.334,4.332 -5.834,6.832 -2.145,1.532 -5.334,3.5 -9.166,4.168 -3.834,0.666 -8,1.166 -19.5,0.332" /><path
   inkscape:connector-curvature="0"
   id="path268"
   style="fill:none;stroke:#000000;stroke-width:1;stroke-linecap:butt;stroke-linejoin:miter;stroke-miterlimit:2;stroke-dasharray:none;stroke-opacity:1"
   d="m 161.834,-61.35268 c 0,0 2.717,-2.941 3.666,-6.5 0.666,-2.5 0.666,-7 0,-8.832 -0.649,-1.787 -3.5,-6.334 -3.5,-6.334 0,0 12.166,-0.334 16.334,0.166 4.166,0.5 7.877,1.17 12.666,4.5 3.834,2.668 5.334,5.668 5.334,5.668 0,0 -2.334,4.332 -5.834,6.832 -2.145,1.532 -5.334,3.5 -9.166,4.168 -3.834,0.666 -8,1.166 -19.5,0.332 z" /><path
   inkscape:connector-curvature="0"
   id="path270"
   style="fill:none;fill-opacity:1;fill-rule:nonzero;stroke:none"
   d="m 161.834,66.884 c 0,0 2.717,-2.943 3.666,-6.5 0.666,-2.5 0.666,-7 0,-8.834 -0.649,-1.7859 -3.5,-6.334 -3.5,-6.334 0,0 12.166,-0.332 16.334,0.168 4.166,0.5 7.877,1.168 12.666,4.5 3.834,2.666 5.334,5.666 5.334,5.666 0,0 -2.334,4.334 -5.834,6.834 -2.145,1.5308 -5.334,3.5 -9.166,4.166 -3.834,0.666 -8,1.166 -19.5,0.334" /><path
   inkscape:connector-curvature="0"
   id="path274"
   style="fill:none;fill-opacity:1;fill-rule:nonzero;stroke:none"
   d="m 136.75,168.716 c 0,0 -0.084,-10 -0.084,-14.5 0,-4.5 0,-7.25 2.834,-11 1.531,-2.025 4.5,-5.332 11.334,-5.332 6.832,0 8.717,1.945 11,4.166 3.082,3 4.332,5.416 4.5,10.5 0.163,5 0.125,16.166 0.125,16.166 H 136.75" /><path
   inkscape:connector-curvature="0"
   id="path276"
   style="fill:none;stroke:#000000;stroke-width:1;stroke-linecap:butt;stroke-linejoin:miter;stroke-miterlimit:2;stroke-dasharray:none;stroke-opacity:1"
   d="m 136.75,168.716 c 0,0 -0.084,-10 -0.084,-14.5 0,-4.5 0,-7.25 2.834,-11 1.531,-2.025 4.5,-5.332 11.334,-5.332 6.832,0 8.717,1.945 11,4.166 3.082,3 4.332,5.416 4.5,10.5 0.163,5 0.125,16.166 0.125,16.166 z" /><path
   inkscape:connector-curvature="0"
   id="path278"
   style="fill:none;fill-opacity:1;fill-rule:nonzero;stroke:none"
   d="m 101.084,168.716 c 0,0 -0.084,-10 -0.084,-14.5 0,-4.5 0,-7.25 2.834,-11 1.53,-2.025 4.5,-5.332 11.332,-5.332 6.834,0 8.719,1.945 11,4.166 3.084,3 4.334,5.416 4.5,10.5 0.164,5 0,16.166 0,16.166 h -29.582" /><path
   inkscape:connector-curvature="0"
   id="path280"
   style="fill:none;stroke:#000000;stroke-width:1;stroke-linecap:butt;stroke-linejoin:miter;stroke-miterlimit:2;stroke-dasharray:none;stroke-opacity:1"
   d="m 101.084,168.716 c 0,0 -0.084,-10 -0.084,-14.5 0,-4.5 0,-7.25 2.834,-11 1.53,-2.025 4.5,-5.332 11.332,-5.332 6.834,0 8.719,1.945 11,4.166 3.084,3 4.334,5.416 4.5,10.5 0.164,5 0,16.166 0,16.166 z" /><path
   inkscape:connector-curvature="0"
   id="path282"
   style="fill:none;fill-opacity:1;fill-rule:nonzero;stroke:none"
   d="m 65.0836,168.716 c 0,0 -0.0836,-10 -0.0836,-14.5 0,-4.5 0,-7.25 2.8336,-11 1.5309,-2.025 4.5,-5.332 11.3328,-5.332 6.8336,0 8.718,1.945 10.9996,4.166 3.084,3 4.334,5.416 4.5,10.5 0.1641,5 0,16.166 0,16.166 H 65.0836" /><path
   inkscape:connector-curvature="0"
   id="path284"
   style="fill:none;stroke:#000000;stroke-width:1;stroke-linecap:butt;stroke-linejoin:miter;stroke-miterlimit:2;stroke-dasharray:none;stroke-opacity:1"
   d="m 65.0836,168.716 c 0,0 -0.0836,-10 -0.0836,-14.5 0,-4.5 0,-7.25 2.8336,-11 1.5309,-2.025 4.5,-5.332 11.3328,-5.332 6.8336,0 8.718,1.945 10.9996,4.166 3.084,3 4.334,5.416 4.5,10.5 0.1641,5 0,16.166 0,16.166 z" /><path
   inkscape:connector-curvature="0"
   id="path286"
   style="fill:none;fill-opacity:1;fill-rule:nonzero;stroke:none"
   d="m 29.2914,168.716 c 0,0 -0.0828,-10 -0.0828,-14.5 0,-4.5 0,-7.25 2.8328,-11 1.5313,-2.025 4.5,-5.332 11.3336,-5.332 6.8336,0 8.718,1.945 11,4.166 3.0836,3 4.3336,5.416 4.5,10.5 0.1641,5 0,16.166 0,16.166 H 29.2914" /><path
   inkscape:connector-curvature="0"
   id="path288"
   style="fill:none;stroke:#000000;stroke-width:1;stroke-linecap:butt;stroke-linejoin:miter;stroke-miterlimit:2;stroke-dasharray:none;stroke-opacity:1"
   d="m 29.2914,168.716 c 0,0 -0.0828,-10 -0.0828,-14.5 0,-4.5 0,-7.25 2.8328,-11 1.5313,-2.025 4.5,-5.332 11.3336,-5.332 6.8336,0 8.718,1.945 11,4.166 3.0836,3 4.3336,5.416 4.5,10.5 0.1641,5 0,16.166 0,16.166 z" /><text
   xml:space="preserve"
   style="font-style:normal;font-variant:normal;font-weight:normal;font-stretch:normal;line-height:0%;font-family:Arial;-inkscape-font-specification:Arial;text-align:start;letter-spacing:0px;word-spacing:0px;writing-mode:lr-tb;text-anchor:start;fill:#000000;fill-opacity:1;stroke:none;stroke-width:1px;stroke-linecap:butt;stroke-linejoin:miter;stroke-opacity:1"
   x="-0.82984388"
   y="-254.06181"
   id="text4431"
   transform="scale(1,-1)"><tspan
     sodipodi:role="line"
     id="tspan4433"
     x="-0.82984388"
     y="-254.06181"
     style="font-style:normal;font-variant:normal;font-weight:normal;font-stretch:normal;font-size:12px;line-height:1.25;font-family:Arial;-inkscape-font-specification:Arial">Opcode</tspan></text>

<text
   xml:space="preserve"
   style="font-style:normal;font-variant:normal;font-weight:normal;font-stretch:normal;line-height:0%;font-family:Arial;-inkscape-font-specification:Arial;text-align:start;letter-spacing:0px;word-spacing:0px;writing-mode:lr-tb;text-anchor:start;fill:#000000;fill-opacity:1;stroke:none;stroke-width:1px;stroke-linecap:butt;stroke-linejoin:miter;stroke-opacity:1"
   x="0.23555258"
   y="-240.65723"
   id="text4431-0"
   transform="scale(1,-1)"><tspan
     sodipodi:role="line"
     id="tspan4433-6"
     x="0.23555258"
     y="-240.65723"
     style="font-style:normal;font-variant:normal;font-weight:normal;font-stretch:normal;font-size:10px;line-height:1.25;font-family:Arial;-inkscape-font-specification:Arial">bit 0</tspan></text>

<text
   transform="scale(1,-1)"
   id="text4571"
   y="-227.85718"
   x="0.23555258"
   style="font-style:normal;font-variant:normal;font-weight:normal;font-stretch:normal;line-height:0%;font-family:Arial;-inkscape-font-specification:Arial;text-align:start;letter-spacing:0px;word-spacing:0px;writing-mode:lr-tb;text-anchor:start;fill:#000000;fill-opacity:1;stroke:none;stroke-width:1px;stroke-linecap:butt;stroke-linejoin:miter;stroke-opacity:1"
   xml:space="preserve"><tspan
     style="font-style:normal;font-variant:normal;font-weight:normal;font-stretch:normal;font-size:10px;line-height:1.25;font-family:Arial;-inkscape-font-specification:Arial"
     y="-227.85718"
     x="0.23555258"
     id="tspan4573"
     sodipodi:role="line">bit 1</tspan></text>

<text
   xml:space="preserve"
   style="font-style:normal;font-variant:normal;font-weight:normal;font-stretch:normal;line-height:0%;font-family:Arial;-inkscape-font-specification:Arial;text-align:start;letter-spacing:0px;word-spacing:0px;writing-mode:lr-tb;text-anchor:start;fill:#000000;fill-opacity:1;stroke:none;stroke-width:1px;stroke-linecap:butt;stroke-linejoin:miter;stroke-opacity:1"
   x="0.23555258"
   y="-215.05713"
   id="text4575"
   transform="scale(1,-1)"><tspan
     sodipodi:role="line"
     id="tspan4577"
     x="0.23555258"
     y="-215.05713"
     style="font-style:normal;font-variant:normal;font-weight:normal;font-stretch:normal;font-size:10px;line-height:1.25;font-family:Arial;-inkscape-font-specification:Arial">bit 2</tspan></text>

<text
   transform="scale(1,-1)"
   id="text4579"
   y="-202.25708"
   x="0.23555258"
   style="font-style:normal;font-variant:normal;font-weight:normal;font-stretch:normal;line-height:0%;font-family:Arial;-inkscape-font-specification:Arial;text-align:start;letter-spacing:0px;word-spacing:0px;writing-mode:lr-tb;text-anchor:start;fill:#000000;fill-opacity:1;stroke:none;stroke-width:1px;stroke-linecap:butt;stroke-linejoin:miter;stroke-opacity:1"
   xml:space="preserve"><tspan
     style="font-style:normal;font-variant:normal;font-weight:normal;font-stretch:normal;font-size:10px;line-height:1.25;font-family:Arial;-inkscape-font-specification:Arial"
     y="-202.25708"
     x="0.23555258"
     id="tspan4581"
     sodipodi:role="line">bit 3</tspan></text>



<text
   transform="scale(1,-1)"
   id="text4591"
   y="-166.03125"
   x="234.33253"
   style="font-style:normal;font-variant:normal;font-weight:normal;font-stretch:normal;line-height:0%;font-family:Arial;-inkscape-font-specification:Arial;text-align:center;letter-spacing:0px;word-spacing:0px;writing-mode:lr-tb;text-anchor:middle;fill:#000000;fill-opacity:1;stroke:none;stroke-width:1px;stroke-linecap:butt;stroke-linejoin:miter;stroke-opacity:1"
   xml:space="preserve"><tspan
     style="font-style:normal;font-variant:normal;font-weight:bold;font-stretch:normal;font-size:9.60000038px;line-height:100%;font-family:Arial;-inkscape-font-specification:'Arial Bold';text-align:center;text-anchor:middle"
     y="-166.03125"
     x="234.33253"
     id="tspan4593"
     sodipodi:role="line">Pontos</tspan><tspan
     style="font-style:normal;font-variant:normal;font-weight:bold;font-stretch:normal;font-size:9.60000038px;line-height:100%;font-family:Arial;-inkscape-font-specification:'Arial Bold';text-align:center;text-anchor:middle"
     y="-156.43124"
     x="234.33253"
     sodipodi:role="line"
     id="tspan4595">de</tspan><tspan
     style="font-style:normal;font-variant:normal;font-weight:bold;font-stretch:normal;font-size:9.60000038px;line-height:100%;font-family:Arial;-inkscape-font-specification:'Arial Bold';text-align:center;text-anchor:middle"
     y="-146.83125"
     x="234.33253"
     sodipodi:role="line"
     id="tspan4597">Controle</tspan></text>

<text
   xml:space="preserve"
   style="font-style:normal;font-variant:normal;font-weight:normal;font-stretch:normal;line-height:0%;font-family:Arial;-inkscape-font-specification:Arial;text-align:start;letter-spacing:0px;word-spacing:0px;writing-mode:lr-tb;text-anchor:start;fill:#000000;fill-opacity:1;stroke:none;stroke-width:1px;stroke-linecap:butt;stroke-linejoin:miter;stroke-opacity:1"
   x="214.90648"
   y="-116.11905"
   id="text4599"
   transform="scale(1,-1)"><tspan
     sodipodi:role="line"
     id="tspan4601"
     x="214.90648"
     y="-116.11905"
     style="font-style:normal;font-variant:normal;font-weight:normal;font-stretch:normal;font-size:10px;line-height:1.25;font-family:Arial;-inkscape-font-specification:Arial">Sel MUX</tspan></text>

<text
   transform="scale(1,-1)"
   id="text4603"
   y="-80.800156"
   x="214.90648"
   style="font-style:normal;font-variant:normal;font-weight:normal;font-stretch:normal;line-height:0%;font-family:Arial;-inkscape-font-specification:Arial;text-align:start;letter-spacing:0px;word-spacing:0px;writing-mode:lr-tb;text-anchor:start;fill:#000000;fill-opacity:1;stroke:none;stroke-width:1px;stroke-linecap:butt;stroke-linejoin:miter;stroke-opacity:1"
   xml:space="preserve"><tspan
     style="font-style:normal;font-variant:normal;font-weight:normal;font-stretch:normal;font-size:10px;line-height:1.25;font-family:Arial;-inkscape-font-specification:Arial"
     y="-80.800156"
     x="214.90648"
     id="tspan4605"
     sodipodi:role="line">Hab A</tspan></text>

<text
   xml:space="preserve"
   style="font-style:normal;font-variant:normal;font-weight:normal;font-stretch:normal;line-height:0%;font-family:Arial;-inkscape-font-specification:Arial;text-align:start;letter-spacing:0px;word-spacing:0px;writing-mode:lr-tb;text-anchor:start;fill:#000000;fill-opacity:1;stroke:none;stroke-width:1px;stroke-linecap:butt;stroke-linejoin:miter;stroke-opacity:1"
   x="214.90648"
   y="-47.368851"
   id="text4607"
   transform="scale(1,-1)"><tspan
     sodipodi:role="line"
     id="tspan4609"
     x="214.90648"
     y="-47.368851"
     style="font-style:normal;font-variant:normal;font-weight:normal;font-stretch:normal;font-size:10px;line-height:1.25;font-family:Arial;-inkscape-font-specification:Arial">Reset A</tspan></text>


<text
   xml:space="preserve"
   style="font-style:normal;font-variant:normal;font-weight:normal;font-stretch:normal;line-height:0%;font-family:Arial;-inkscape-font-specification:Arial;text-align:start;letter-spacing:0px;word-spacing:0px;writing-mode:lr-tb;text-anchor:start;fill:#000000;fill-opacity:1;stroke:none;stroke-width:1px;stroke-linecap:butt;stroke-linejoin:miter;stroke-opacity:1"
   x="214.90648"
   y="-21.199451"
   id="text4615"
   transform="scale(1,-1)"><tspan
     sodipodi:role="line"
     id="tspan4617"
     x="214.90648"
     y="-21.199451"
     style="font-style:normal;font-variant:normal;font-weight:normal;font-stretch:normal;font-size:10px;line-height:1.25;font-family:Arial;-inkscape-font-specification:Arial">Operação</tspan></text>





<text
   xml:space="preserve"
   style="font-style:normal;font-variant:normal;font-weight:normal;font-stretch:normal;line-height:0%;font-family:Arial;-inkscape-font-specification:Arial;text-align:start;letter-spacing:0px;word-spacing:0px;writing-mode:lr-tb;text-anchor:start;fill:#000000;fill-opacity:1;stroke:none;stroke-width:1px;stroke-linecap:butt;stroke-linejoin:miter;stroke-opacity:1"
   x="29.693272"
   y="7.3430104"
   id="text4637"
   transform="scale(1,-1)"><tspan
     sodipodi:role="line"
     id="tspan4639"
     x="29.693272"
     y="7.3430104"
     style="font-style:normal;font-variant:normal;font-weight:normal;font-stretch:normal;font-size:10px;line-height:1.25;font-family:Arial;-inkscape-font-specification:Arial">Inst_1</tspan></text>

<text
   transform="scale(1,-1)"
   id="text4641"
   y="7.3430104"
   x="65.251106"
   style="font-style:normal;font-variant:normal;font-weight:normal;font-stretch:normal;line-height:0%;font-family:Arial;-inkscape-font-specification:Arial;text-align:start;letter-spacing:0px;word-spacing:0px;writing-mode:lr-tb;text-anchor:start;fill:#000000;fill-opacity:1;stroke:none;stroke-width:1px;stroke-linecap:butt;stroke-linejoin:miter;stroke-opacity:1"
   xml:space="preserve"><tspan
     style="font-style:normal;font-variant:normal;font-weight:normal;font-stretch:normal;font-size:10px;line-height:1.25;font-family:Arial;-inkscape-font-specification:Arial"
     y="7.3430104"
     x="65.251106"
     id="tspan4643"
     sodipodi:role="line">Inst_2</tspan></text>

<text
   xml:space="preserve"
   style="font-style:normal;font-variant:normal;font-weight:normal;font-stretch:normal;line-height:0%;font-family:Arial;-inkscape-font-specification:Arial;text-align:start;letter-spacing:0px;word-spacing:0px;writing-mode:lr-tb;text-anchor:start;fill:#000000;fill-opacity:1;stroke:none;stroke-width:1px;stroke-linecap:butt;stroke-linejoin:miter;stroke-opacity:1"
   x="101.18999"
   y="7.3430104"
   id="text4645"
   transform="scale(1,-1)"><tspan
     sodipodi:role="line"
     id="tspan4647"
     x="101.18999"
     y="7.3430104"
     style="font-style:normal;font-variant:normal;font-weight:normal;font-stretch:normal;font-size:10px;line-height:1.25;font-family:Arial;-inkscape-font-specification:Arial">Inst_3</tspan></text>

<text
   transform="scale(1,-1)"
   id="text4649"
   y="7.3430104"
   x="136.6087"
   style="font-style:normal;font-variant:normal;font-weight:normal;font-stretch:normal;line-height:0%;font-family:Arial;-inkscape-font-specification:Arial;text-align:start;letter-spacing:0px;word-spacing:0px;writing-mode:lr-tb;text-anchor:start;fill:#000000;fill-opacity:1;stroke:none;stroke-width:1px;stroke-linecap:butt;stroke-linejoin:miter;stroke-opacity:1"
   xml:space="preserve"><tspan
     style="font-style:normal;font-variant:normal;font-weight:normal;font-stretch:normal;font-size:10px;line-height:1.25;font-family:Arial;-inkscape-font-specification:Arial"
     y="7.3430104"
     x="136.6087"
     id="tspan4651"
     sodipodi:role="line">Inst_4</tspan></text>

<text
   transform="scale(1,-1)"
   id="text4653"
   y="28.349243"
   x="98.181984"
   style="font-style:normal;font-variant:normal;font-weight:normal;font-stretch:normal;line-height:0%;font-family:Arial;-inkscape-font-specification:Arial;text-align:center;letter-spacing:0px;word-spacing:0px;writing-mode:lr-tb;text-anchor:middle;fill:#000000;fill-opacity:1;stroke:none;stroke-width:1px;stroke-linecap:butt;stroke-linejoin:miter;stroke-opacity:1"
   xml:space="preserve"><tspan
     style="font-style:normal;font-variant:normal;font-weight:normal;font-stretch:normal;font-size:12px;line-height:1.25;font-family:Arial;-inkscape-font-specification:Arial;text-align:center;text-anchor:middle"
     y="28.349243"
     x="98.181984"
     sodipodi:role="line"
     id="tspan4657">Instruções Decodificadas</tspan></text>

<path
   d="M 75.386164,173.34612 V 230.05"
   style="fill:none;stroke:#000000;stroke-width:1;stroke-linecap:butt;stroke-linejoin:miter;stroke-miterlimit:4;stroke-dasharray:none;stroke-opacity:1"
   id="path5013"
   inkscape:connector-curvature="0" /><path
   d="M 84.308187,173.31328 V 218.05"
   style="fill:none;stroke:#000000;stroke-width:1;stroke-linecap:butt;stroke-linejoin:miter;stroke-miterlimit:4;stroke-dasharray:none;stroke-opacity:1"
   id="path5015"
   inkscape:connector-curvature="0" /><path
   d="M 92.295024,173.04928 V 205.384"
   style="fill:none;stroke:#000000;stroke-width:1;stroke-linecap:butt;stroke-linejoin:miter;stroke-miterlimit:4;stroke-dasharray:none;stroke-opacity:1"
   id="path5017"
   inkscape:connector-curvature="0" /><path
   d="m 31.716053,172.96072 v 68.42227"
   style="fill:none;stroke:#000000;stroke-width:0.99999994;stroke-linecap:butt;stroke-linejoin:miter;stroke-miterlimit:4;stroke-dasharray:none;stroke-opacity:1"
   id="path5019"
   inkscape:connector-curvature="0"
   sodipodi:nodetypes="cc" /><path
   inkscape:connector-curvature="0"
   id="path5021"
   style="fill:none;stroke:#000000;stroke-width:1;stroke-linecap:butt;stroke-linejoin:miter;stroke-miterlimit:4;stroke-dasharray:none;stroke-opacity:1"
   d="M 39.602219,173.34612 V 230.05"
   sodipodi:nodetypes="cc" /><path
   inkscape:connector-curvature="0"
   id="path5023"
   style="fill:none;stroke:#000000;stroke-width:1;stroke-linecap:butt;stroke-linejoin:miter;stroke-miterlimit:4;stroke-dasharray:none;stroke-opacity:1"
   d="M 48.524242,173.31328 V 218.05"
   sodipodi:nodetypes="cc" /><path
   inkscape:connector-curvature="0"
   id="path5025"
   style="fill:none;stroke:#000000;stroke-width:1;stroke-linecap:butt;stroke-linejoin:miter;stroke-miterlimit:4;stroke-dasharray:none;stroke-opacity:1"
   d="M 56.511079,173.04928 V 205.384"
   sodipodi:nodetypes="cc" /><path
   d="m 103.4695,169.6412 c 0.966,0 1.749,0.784 1.749,1.75 0,0.967 -0.783,1.75 -1.749,1.75 -0.967,0 -1.751,-0.783 -1.751,-1.75 0,-0.966 0.784,-1.75 1.751,-1.75 z"
   style="fill:none;stroke:#000000;stroke-width:1;stroke-linecap:butt;stroke-linejoin:miter;stroke-miterlimit:4;stroke-dasharray:none;stroke-opacity:1"
   id="path5027"
   inkscape:connector-curvature="0" /><path
   d="m 147.00096,168.37872 v 62.34864"
   style="fill:none;stroke:#000000;stroke-width:1;stroke-linecap:butt;stroke-linejoin:miter;stroke-miterlimit:4;stroke-dasharray:none;stroke-opacity:1"
   id="path5031"
   inkscape:connector-curvature="0"
   sodipodi:nodetypes="cc" /><path
   d="M 155.92298,173.31328 V 218.05"
   style="fill:none;stroke:#000000;stroke-width:1;stroke-linecap:butt;stroke-linejoin:miter;stroke-miterlimit:4;stroke-dasharray:none;stroke-opacity:1"
   id="path5033"
   inkscape:connector-curvature="0" /><path
   d="M 163.90982,173.04928 V 205.384"
   style="fill:none;stroke:#000000;stroke-width:1;stroke-linecap:butt;stroke-linejoin:miter;stroke-miterlimit:4;stroke-dasharray:none;stroke-opacity:1"
   id="path5035"
   inkscape:connector-curvature="0" /><path
   d="m 161.834,130.77506 c 0,0 2.717,-2.941 3.666,-6.5 0.666,-2.5 0.666,-7 0,-8.832 -0.649,-1.787 -3.5,-6.334 -3.5,-6.334 0,0 12.166,-0.334 16.334,0.166 4.166,0.5 7.877,1.17 12.666,4.5 3.834,2.668 5.334,5.668 5.334,5.668 0,0 -2.334,4.332 -5.834,6.832 -2.145,1.532 -5.334,3.5 -9.166,4.168 -3.834,0.666 -8,1.166 -19.5,0.332 z"
   style="fill:none;stroke:#000000;stroke-width:1;stroke-linecap:butt;stroke-linejoin:miter;stroke-miterlimit:2;stroke-dasharray:none;stroke-opacity:1"
   id="path5037"
   inkscape:connector-curvature="0" /><path
   d="m 196.334,119.484 h 14.5"
   style="fill:none;stroke:#000000;stroke-width:1;stroke-linecap:butt;stroke-linejoin:miter;stroke-miterlimit:4;stroke-dasharray:none;stroke-opacity:1"
   id="path5039"
   inkscape:connector-curvature="0" /><path
   d="m 114.98106,23.55 h 96.10297"
   style="fill:none;stroke:#000000;stroke-width:1;stroke-linecap:butt;stroke-linejoin:miter;stroke-miterlimit:4;stroke-dasharray:none;stroke-opacity:1"
   id="path5043"
   inkscape:connector-curvature="0" /><path
   d="m 115.125,111.93932 c 0.966,0 1.75,0.784 1.75,1.751 0,0.966 -0.784,1.749 -1.75,1.749 -0.966,0 -1.75,-0.783 -1.75,-1.749 0,-0.967 0.784,-1.751 1.75,-1.751"
   style="fill:#000000;fill-opacity:1;fill-rule:nonzero;stroke:none"
   id="path5045"
   inkscape:connector-curvature="0" /><path
   d="m 164.5,113.64732 h -49"
   style="fill:none;stroke:#000000;stroke-width:1;stroke-linecap:butt;stroke-linejoin:miter;stroke-miterlimit:4;stroke-dasharray:none;stroke-opacity:1"
   id="path5047"
   inkscape:connector-curvature="0" /><path
   d="m 161.834,98.94914 c 0,0 2.717,-3.906214 3.666,-8.633251 0.666,-3.320479 0.666,-9.297349 0,-11.730599 -0.649,-2.37347 -3.5,-8.41277 -3.5,-8.41277 0,0 12.166,-0.44361 16.334,0.22048 4.166,0.6641 7.877,1.55399 12.666,5.97687 3.834,3.54362 5.334,7.52819 5.334,7.52819 0,0 -2.334,5.753733 -5.834,9.074214 -2.145,2.03479 -5.334,4.648676 -9.166,5.535906 -3.834,0.88457 -8,1.54867 -19.5,0.44096 z"
   style="fill:none;stroke:#000000;stroke-width:1;stroke-linecap:butt;stroke-linejoin:miter;stroke-miterlimit:2;stroke-dasharray:none;stroke-opacity:1"
   id="path5049"
   inkscape:connector-curvature="0" /><path
   d="M 164.29966,75.24732 H 150.7"
   style="fill:none;stroke:#000000;stroke-width:0.99999994;stroke-linecap:butt;stroke-linejoin:miter;stroke-miterlimit:4;stroke-dasharray:none;stroke-opacity:1"
   id="path5051"
   inkscape:connector-curvature="0"
   sodipodi:nodetypes="cc" /><path
   d="m 151.16101,73.484002 c 0.966,0 1.75,0.784 1.75,1.751 0,0.966 -0.784,1.749 -1.75,1.749 -0.966,0 -1.75,-0.783 -1.75,-1.749 0,-0.967 0.784,-1.751 1.75,-1.751"
   style="fill:#000000;fill-opacity:1;fill-rule:nonzero;stroke:none"
   id="path5053"
   inkscape:connector-curvature="0" /></g></svg>