<svg xmlns="http://www.w3.org/2000/svg" fill-rule="evenodd" stroke-linejoin="round" stroke-width="28.222" preserveAspectRatio="xMidYMid" version="1.2" viewBox="0 0 14385.652 12875.729">
  <defs class="ClipPathGroup">
    <marker id="c" orient="auto" overflow="visible">
      <path stroke="#000" stroke-width=".4pt" d="M1.96 0a2 2 0 1 1-4.001-.001A2 2 0 0 1 1.96 0z"/>
    </marker>
    <marker id="b" orient="auto" overflow="visible">
      <path stroke="#000" stroke-width=".4pt" d="M1.96 0a2 2 0 1 1-4.001-.001A2 2 0 0 1 1.96 0z"/>
    </marker>
    <marker id="a" orient="auto" overflow="visible">
      <path stroke="#000" stroke-width=".375" d="M5.231 2.42L-1.324.01 5.23-2.401C4.184-.978 4.19.969 5.231 2.42z"/>
    </marker>
  </defs>
  <text x="7210.126" y="1015.244" class="TextShape" font-family="Arial,sans-serif" font-size="999.208" font-weight="700" style="line-height:125%;-inkscape-font-specification:'Arial, sans-serif, Bold';text-align:center" text-anchor="middle" transform="scale(.99997 1.00003)">
    <tspan x="7210.126" y="1015.244">Arquitetura: Pilha</tspan>
  </text>
  <text x="10272.785" y="2910.056" class="TextShape" font-family="Arial,sans-serif" font-size="705.556" font-weight="700" style="line-height:125%;-inkscape-font-specification:'Arial, sans-serif, Bold';text-align:start" transform="scale(.99997 1.00003)">
    <tspan x="10272.785" y="2910.056">Memória</tspan>
  </text>
  <text x="-17984.529" y="-12022.506" class="TextShape" font-size="8.497" transform="scale(.99997 1.00003)">
    <tspan class="TextParagraph" font-family="Arial,sans-serif" font-size="449.645" font-weight="400"><tspan x="-9232.383" y="5617.034" class="TextPosition"/>
</tspan>
  </text>
  <path fill="none" stroke="#000" stroke-linejoin="miter" stroke-width="84.667" marker-end="url(#b)" marker-start="url(#a)" d="M3989.379 8861.445V4571.31"/>
  <path fill="none" stroke="#000" stroke-linejoin="miter" stroke-width="84.667" marker-start="url(#a)" d="M3218.178 4588.127l-1096.846-2.252-21.472 7947.513 3631.294-.839v-1314.351"/>
  <g fill="none" stroke="#000" stroke-width="84.667">
    <path d="M11723.941 11780.274h-2359.38V3128.4h4718.758v8651.873h-2359.378z"/>
    <path stroke-linejoin="miter" d="M9394.289 4044.676h4701.877M9394.289 5004.232h4701.877M9394.289 5963.786h4701.877M9394.289 6923.342h4701.877M9394.289 7939.342h4701.877M9394.289 8898.898h4701.877M9394.289 9858.448h4701.877M9394.289 10818h4701.877"/>
  </g>
  <g stroke-linejoin="miter">
    <text x="17420.348" y="19785.572" stroke-width="1" font-family="Standard Symbols L" font-size="705.556" font-weight="400" letter-spacing="0" style="line-height:125%;-inkscape-font-specification:'Standard Symbols L, Normal';text-align:start" transform="translate(-12442.994 -9158.116)" word-spacing="0">
      <tspan x="17420.348" y="19785.572" font-family="Arial" font-weight="700" style="-inkscape-font-specification:'Arial Bold'">ULA</tspan>
    </text>
    <path fill="none" stroke="#000" stroke-width="84.667" d="M8195.536 9030.058l-1097.592 2195.05H4355.381l-1097.592-2195.05h1644.972l275.46 550.18h1097.592l274.751-550.18h1644.972z"/>
  </g>
  <text x="4820.941" y="2903.278" stroke-linejoin="miter" stroke-width="1" font-family="Arial" font-size="705.556" font-weight="400" letter-spacing="0" style="line-height:125%;-inkscape-font-specification:Arial;text-align:start" word-spacing="0">
    <tspan x="4820.941" y="2903.278" font-weight="700" style="-inkscape-font-specification:'Arial Bold'">Pilha</tspan>
  </text>
  <path fill="none" stroke="#000" stroke-width="84.667" d="M8039.296 5991.5v952.052H3316.521V5991.5zM8039.296 5031.943v952.053H3316.521v-952.053zM8039.296 4072.39v952.052H3316.521V4072.39zM8039.296 3112.833v952.053H3316.521v-952.053z" class="BoundingBox"/>
  <path fill="none" stroke="#000" stroke-linejoin="miter" stroke-width="84.667" marker-end="url(#c)" marker-start="url(#a)" d="M7375.71 8880.57V3620.79"/>
  <text x="1231.83" y="3040.71" stroke-linejoin="miter" stroke-width="1" font-family="Arial" font-size="564.444" font-weight="700" letter-spacing="0" style="line-height:125%;-inkscape-font-specification:'Arial Bold';text-align:center" text-anchor="middle" word-spacing="0">
    <tspan x="1231.83" y="3040.71">Stack</tspan><tspan x="1231.83" y="3746.265">Pointer</tspan>
  </text>
  <path fill="none" stroke="#000" stroke-linejoin="miter" stroke-width="84.667" marker-start="url(#a)" d="M3045.8 3606.23h-754.016"/>
</svg>
