<?xml version="1.0" encoding="UTF-8" standalone="no"?>
<!-- Created with Inkscape (http://www.inkscape.org/) -->

<svg
   xmlns:dc="http://purl.org/dc/elements/1.1/"
   xmlns:cc="http://creativecommons.org/ns#"
   xmlns:rdf="http://www.w3.org/1999/02/22-rdf-syntax-ns#"
   xmlns:svg="http://www.w3.org/2000/svg"
   xmlns="http://www.w3.org/2000/svg"
   xmlns:sodipodi="http://sodipodi.sourceforge.net/DTD/sodipodi-0.dtd"
   xmlns:inkscape="http://www.inkscape.org/namespaces/inkscape"
   width="56.556526mm"
   height="30.750929mm"
   viewBox="0 0 200.39715 108.95998"
   id="svg4562"
   version="1.1"
   inkscape:version="0.91 r13725"
   sodipodi:docname="generalSequentialTiming-2a.svg">
  <defs
     id="defs4564">
    <marker
       style="overflow:visible"
       id="Dot_l"
       refX="0"
       refY="0"
       orient="auto"
       inkscape:stockid="Dot_l">
      <path
         transform="matrix(0.8,0,0,0.8,5.700394,0.8)"
         style="fill-rule:evenodd;stroke:#000000;stroke-width:1pt;marker-start:none;marker-end:none"
         d="m -2.5,-1 c 0,2.76 -2.24,5 -5,5 -2.76,0 -5,-2.24 -5,-5 0,-2.76 2.24,-5 5,-5 2.76,0 5,2.24 5,5 z"
         id="path11234"
         inkscape:connector-curvature="0" />
    </marker>
    <marker
       style="overflow:visible"
       id="Dot_s"
       refX="0"
       refY="0"
       orient="auto"
       inkscape:stockid="Dot_s">
      <path
         transform="matrix(0.2,0,0,0.2,1.425099,0.2)"
         style="fill-rule:evenodd;stroke:#000000;stroke-width:1pt;marker-start:none;marker-end:none"
         d="m -2.5,-1 c 0,2.76 -2.24,5 -5,5 -2.76,0 -5,-2.24 -5,-5 0,-2.76 2.24,-5 5,-5 2.76,0 5,2.24 5,5 z"
         id="path11228"
         inkscape:connector-curvature="0" />
    </marker>
    <marker
       style="overflow:visible"
       id="Dot_m"
       refX="0"
       refY="0"
       orient="auto"
       inkscape:stockid="Dot_m">
      <path
         transform="matrix(0.4,0,0,0.4,2.850197,0.4)"
         style="fill-rule:evenodd;stroke:#000000;stroke-width:1pt;marker-start:none;marker-end:none"
         d="m -2.5,-1 c 0,2.76 -2.24,5 -5,5 -2.76,0 -5,-2.24 -5,-5 0,-2.76 2.24,-5 5,-5 2.76,0 5,2.24 5,5 z"
         id="path11231"
         inkscape:connector-curvature="0" />
    </marker>
  </defs>
  <sodipodi:namedview
     id="base"
     pagecolor="#ffffff"
     bordercolor="#666666"
     borderopacity="1.0"
     inkscape:pageopacity="0.0"
     inkscape:pageshadow="2"
     inkscape:zoom="5.3937131"
     inkscape:cx="113.62991"
     inkscape:cy="26.734626"
     inkscape:document-units="px"
     inkscape:current-layer="layer1"
     showgrid="false"
     inkscape:window-width="1855"
     inkscape:window-height="1056"
     inkscape:window-x="1985"
     inkscape:window-y="24"
     inkscape:window-maximized="1"
     fit-margin-left="2"
     fit-margin-top="2"
     fit-margin-right="2"
     fit-margin-bottom="2"
     showguides="true"
     inkscape:guide-bbox="true" />
  <metadata
     id="metadata4567">
    <rdf:RDF>
      <cc:Work
         rdf:about="">
        <dc:format>image/svg+xml</dc:format>
        <dc:type
           rdf:resource="http://purl.org/dc/dcmitype/StillImage" />
        <dc:title></dc:title>
      </cc:Work>
    </rdf:RDF>
  </metadata>
  <g
     inkscape:label="Camada 1"
     inkscape:groupmode="layer"
     id="layer1"
     transform="translate(-277.35378,-286.38088)">
    <g
       id="g4290">
      <g
         transform="translate(4.4635767e-6,0)"
         id="g4257">
        <path
           inkscape:connector-curvature="0"
           id="path5459"
           style="fill:none;stroke:#000000;stroke-width:0.625;stroke-linecap:round;stroke-linejoin:round;stroke-miterlimit:10;stroke-dasharray:2.406, 1.203;stroke-dashoffset:0;stroke-opacity:1"
           d="m 408.21652,294.59275 0,40.83251" />
        <g
           transform="matrix(1.25,0,0,-1.25,277.26139,465.70224)"
           id="g5465">
          <text
             id="text5467"
             style="font-style:oblique;font-variant:normal;font-size:8.00002956px;font-family:Helvetica;-inkscape-font-specification:Helvetica-Oblique;writing-mode:lr-tb;fill:#231f20;fill-opacity:1;fill-rule:nonzero;stroke:none"
             transform="matrix(0.99999,0,0,-1,15.975,84.7691)">
            <tspan
               id="tspan5469"
               sodipodi:role="line"
               y="0"
               x="0 5.8160748 10.183699">CLK</tspan>
          </text>
        </g>
        <g
           id="g4192"
           transform="translate(5.6686092,-1.2916219)">
          <text
             y="314.39975"
             x="358.86331"
             id="text5489"
             style="font-style:oblique;font-variant:normal;font-size:9.99998665px;font-family:Helvetica;-inkscape-font-specification:Helvetica-Oblique;writing-mode:lr-tb;fill:#000000;fill-opacity:1;fill-rule:nonzero;stroke:none"
             transform="scale(0.999995,1.000005)">
            <tspan
               style="fill:#000000;fill-opacity:1"
               id="tspan5491"
               y="314.39975"
               x="358.86331">t1</tspan>
          </text>
          <text
             y="316.59399"
             x="362.31741"
             id="text5493"
             style="font-variant:normal;font-weight:normal;font-size:7.27271366px;font-family:Helvetica;-inkscape-font-specification:Helvetica;writing-mode:lr-tb;fill:#000000;fill-opacity:1;fill-rule:nonzero;stroke:none"
             transform="scale(0.999995,1.000005)">
            <tspan
               id="tspan5495"
               sodipodi:role="line"
               y="316.59399"
               x="362.31741" />
          </text>
        </g>
        <text
           transform="scale(0.999995,1.000005)"
           style="font-style:normal;font-variant:normal;font-weight:normal;font-stretch:normal;font-size:10px;line-height:125%;font-family:Helvetica;-inkscape-font-specification:'Helvetica, Normal';text-align:start;writing-mode:lr-tb;text-anchor:start;fill:#231f20;fill-opacity:1;fill-rule:nonzero;stroke:none"
           id="text5499"
           x="284.04181"
           y="327.40808"
           sodipodi:linespacing="125%">
          <tspan
             sodipodi:role="line"
             id="tspan4368"
             x="284.04181"
             y="327.40808">entrada</tspan>
        </text>
        <g
           id="g4394"
           transform="translate(4.0000002,0)">
          <text
             y="313.10809"
             x="386.61444"
             id="text5515"
             style="font-style:oblique;font-variant:normal;font-size:9.99998665px;font-family:Helvetica;-inkscape-font-specification:Helvetica-Oblique;writing-mode:lr-tb;fill:#000000;fill-opacity:1;fill-rule:nonzero;stroke:none"
             transform="scale(0.999995,1.000005)">
            <tspan
               style="fill:#000000;fill-opacity:1"
               id="tspan5517"
               y="313.10809"
               x="386.61444">t2</tspan>
          </text>
          <text
             y="315.53241"
             x="390.06754"
             id="text5519"
             style="font-variant:normal;font-weight:normal;font-size:7.27271366px;font-family:Helvetica;-inkscape-font-specification:Helvetica;writing-mode:lr-tb;fill:#000000;fill-opacity:1;fill-rule:nonzero;stroke:none"
             transform="scale(0.999995,1.000005)">
            <tspan
               id="tspan5521"
               sodipodi:role="line"
               y="315.53241"
               x="390.06754" />
          </text>
        </g>
        <path
           inkscape:connector-curvature="0"
           id="path5523"
           style="fill:none;stroke:#000000;stroke-width:0.625;stroke-linecap:round;stroke-linejoin:round;stroke-miterlimit:10;stroke-dasharray:none;stroke-opacity:1"
           d="m 360.09152,301.60988 17.69475,0" />
        <path
           inkscape:connector-curvature="0"
           id="path5525"
           style="fill:#000000;fill-opacity:1;fill-rule:evenodd;stroke:none"
           d="m 354.87664,301.60988 6.9135,-3.45713 c -1.11325,2.168 -1.11325,4.74613 0,6.91463 l 0,0 -6.9135,-3.4575 0,0" />
        <path
           inkscape:connector-curvature="0"
           id="path5527"
           style="fill:#000000;fill-opacity:1;fill-rule:evenodd;stroke:none"
           d="m 383.00164,301.60988 -6.91463,3.4575 c 1.11388,-2.1685 1.11388,-4.74663 0,-6.91463 l 0,0 6.91463,3.45713 0,0" />
        <path
           inkscape:connector-curvature="0"
           id="path5535"
           style="fill:none;stroke:#231f20;stroke-width:0.9375;stroke-linecap:round;stroke-linejoin:round;stroke-miterlimit:10;stroke-dasharray:none;stroke-opacity:1"
           d="m 323.93914,362.65249 56.25,0 5.625,-11.25 84.37475,0" />
        <path
           inkscape:connector-curvature="0"
           id="path5541"
           style="fill:none;stroke:#231f20;stroke-width:0.625;stroke-linecap:round;stroke-linejoin:round;stroke-miterlimit:10;stroke-dasharray:none;stroke-opacity:1"
           d="m 323.93914,319.11088 5.625,11.249 5.625,-11.249 5.625,11.249 5.625,-11.249 5.625,11.249 5.625,-11.249 50.62475,0 5.625,11.249 5.625,-11.249 5.625,11.249 5.625,-11.249 5.625,11.249 5.625,-11.249 5.625,11.249 5.625,-11.249 5.625,11.249 5.625,-11.249 5.625,11.249" />
        <path
           inkscape:connector-curvature="0"
           id="path5543"
           style="fill:none;stroke:#231f20;stroke-width:0.625;stroke-linecap:round;stroke-linejoin:round;stroke-miterlimit:10;stroke-dasharray:none;stroke-opacity:1"
           d="m 323.93914,330.35988 5.625,-11.249 5.625,11.249 5.625,-11.249 5.625,11.249 5.625,-11.249 5.625,11.249 50.62475,0 5.625,-11.249 5.625,11.249 5.625,-11.249 5.625,11.249 5.625,-11.249 5.625,11.249 5.625,-11.249 5.625,11.249 5.625,-11.249 5.625,11.249 5.625,-11.249" />
        <path
           inkscape:connector-curvature="0"
           id="path5549"
           style="fill:none;stroke:#000000;stroke-width:0.625;stroke-linecap:round;stroke-linejoin:round;stroke-miterlimit:10;stroke-dasharray:none;stroke-opacity:1"
           d="m 388.21652,301.60988 14.88225,0" />
        <path
           inkscape:connector-curvature="0"
           id="path5551"
           style="fill:#000000;fill-opacity:1;fill-rule:evenodd;stroke:none"
           d="m 383.00164,301.60988 6.9135,-3.45713 c -1.11325,2.168 -1.11325,4.74613 0,6.91463 l 0,0 -6.9135,-3.4575 0,0" />
        <path
           inkscape:connector-curvature="0"
           id="path5553"
           style="fill:#000000;fill-opacity:1;fill-rule:evenodd;stroke:none"
           d="m 408.31389,301.60988 -6.91438,3.4575 c 1.11388,-2.1685 1.11388,-4.74663 0,-6.91463 l 0,0 6.91438,3.45713 0,0" />
        <path
           inkscape:connector-curvature="0"
           id="path5561"
           style="fill:none;stroke:#231f20;stroke-width:0.625;stroke-linecap:round;stroke-linejoin:round;stroke-miterlimit:10;stroke-dasharray:none;stroke-opacity:1"
           d="m 413.93889,330.35988 56.25,0" />
        <path
           inkscape:connector-curvature="0"
           id="path5563"
           style="fill:none;stroke:#231f20;stroke-width:0.625;stroke-linecap:round;stroke-linejoin:round;stroke-miterlimit:10;stroke-dasharray:none;stroke-opacity:1"
           d="m 352.06414,330.35988 -28.125,0" />
        <path
           inkscape:connector-curvature="0"
           id="path5565"
           style="fill:none;stroke:#231f20;stroke-width:0.625;stroke-linecap:round;stroke-linejoin:round;stroke-miterlimit:10;stroke-dasharray:none;stroke-opacity:1"
           d="m 352.06414,319.11088 -28.125,0" />
        <path
           inkscape:connector-curvature="0"
           id="path5569"
           style="fill:none;stroke:#231f20;stroke-width:0.625;stroke-linecap:round;stroke-linejoin:round;stroke-miterlimit:10;stroke-dasharray:none;stroke-opacity:1"
           d="m 413.93889,319.11088 56.25,0" />
        <path
           inkscape:connector-curvature="0"
           id="path5459-3"
           style="fill:none;stroke:#000000;stroke-width:0.625;stroke-linecap:round;stroke-linejoin:round;stroke-miterlimit:10;stroke-dasharray:2.406, 1.203;stroke-dashoffset:0;stroke-opacity:1"
           d="m 355.04564,293.78444 0,40.83251" />
        <path
           inkscape:connector-curvature="0"
           id="path5461-0"
           style="fill:none;stroke:#231f20;stroke-width:0.70420951;stroke-linecap:round;stroke-linejoin:round;stroke-miterlimit:10;stroke-dasharray:1.8072832, 1.87789194;stroke-dashoffset:0;stroke-opacity:1"
           d="m 382.9876,297.13379 0,77.22215"
           sodipodi:nodetypes="cc" />
      </g>
      <text
         sodipodi:linespacing="125%"
         y="385.9523"
         x="309.76852"
         id="text5499-7"
         style="font-style:normal;font-variant:normal;font-weight:normal;font-stretch:normal;font-size:10px;line-height:125%;font-family:Helvetica;-inkscape-font-specification:'Helvetica, Normal';text-align:start;writing-mode:lr-tb;text-anchor:start;fill:#231f20;fill-opacity:1;fill-rule:nonzero;stroke:none"
         transform="scale(0.99999501,1.000005)">
        <tspan
           y="385.9523"
           x="309.76852"
           id="tspan4273"
           sodipodi:role="line">Temporização: Flip-Flop tipo D</tspan>
      </text>
    </g>
  </g>
</svg>
