<?xml version="1.0" encoding="UTF-8" standalone="no"?>
<!-- Created with Inkscape (http://www.inkscape.org/) -->

<svg
   xmlns:dc="http://purl.org/dc/elements/1.1/"
   xmlns:cc="http://creativecommons.org/ns#"
   xmlns:rdf="http://www.w3.org/1999/02/22-rdf-syntax-ns#"
   xmlns:svg="http://www.w3.org/2000/svg"
   xmlns="http://www.w3.org/2000/svg"
   xmlns:sodipodi="http://sodipodi.sourceforge.net/DTD/sodipodi-0.dtd"
   xmlns:inkscape="http://www.inkscape.org/namespaces/inkscape"
   id="svg2"
   version="1.1"
   inkscape:version="0.92.3 (2405546, 2018-03-11)"
   width="410.7941"
   height="300.63885"
   xml:space="preserve"
   sodipodi:docname="pipeline-3.svg"><metadata
     id="metadata8"><rdf:RDF><cc:Work
         rdf:about=""><dc:format>image/svg+xml</dc:format><dc:type
           rdf:resource="http://purl.org/dc/dcmitype/StillImage" /><dc:title></dc:title></cc:Work></rdf:RDF></metadata><defs
     id="defs6"><filter
       inkscape:collect="always"
       style="color-interpolation-filters:sRGB"
       id="filter4498"
       x="-0.0058833705"
       width="1.0117667"
       y="-0.0061213472"
       height="1.0122427"><feGaussianBlur
         inkscape:collect="always"
         stdDeviation="0.53902377"
         id="feGaussianBlur4500" /></filter></defs><sodipodi:namedview
     pagecolor="#ffffff"
     bordercolor="#666666"
     borderopacity="1"
     objecttolerance="10"
     gridtolerance="10"
     guidetolerance="10"
     inkscape:pageopacity="0"
     inkscape:pageshadow="2"
     inkscape:window-width="1920"
     inkscape:window-height="1061"
     id="namedview4"
     showgrid="false"
     inkscape:showpageshadow="false"
     inkscape:zoom="2.6631347"
     inkscape:cx="205.39705"
     inkscape:cy="150.31943"
     inkscape:window-x="1920"
     inkscape:window-y="0"
     inkscape:window-maximized="1"
     inkscape:current-layer="g4305"
     fit-margin-left="3"
     fit-margin-top="3"
     fit-margin-bottom="3"
     fit-margin-right="3" /><g
     id="g10"
     inkscape:groupmode="layer"
     inkscape:label="ink_ext_XXXXXX"
     transform="matrix(1.25,0,0,-1.25,60.484711,257.92319)"><g
   id="g4502"
   transform="translate(-46.934001,-50.987619)"><path
     inkscape:connector-curvature="0"
     id="path5044"
     style="fill:none;stroke:#000000;stroke-width:0.80000001;stroke-linecap:round;stroke-linejoin:round;stroke-miterlimit:10;stroke-dasharray:none;stroke-opacity:1"
     d="m 84.336856,123.46194 h 4.3641" /><path
     inkscape:connector-curvature="0"
     id="path5046"
     style="fill:none;stroke:#000000;stroke-width:0.80000001;stroke-linecap:round;stroke-linejoin:round;stroke-miterlimit:10;stroke-dasharray:none;stroke-opacity:1"
     d="m 84.336856,114.73454 h 4.3641" /><path
     inkscape:connector-curvature="0"
     id="path5048"
     style="fill:none;stroke:#000000;stroke-width:0.80000001;stroke-linecap:round;stroke-linejoin:round;stroke-miterlimit:10;stroke-dasharray:none;stroke-opacity:1"
     d="m 114.88256,119.09863 h -4.3637" /><path
     inkscape:connector-curvature="0"
     id="path5050"
     style="fill:none;stroke:#000000;stroke-width:0.80000001;stroke-linecap:round;stroke-linejoin:round;stroke-miterlimit:10;stroke-dasharray:none;stroke-opacity:1"
     d="m 101.79156,127.82553 c 4.8183,0 8.7273,-3.9093 8.7273,-8.7269 0,-4.86409 -3.909,-8.72769 -8.7273,-8.72769" /><path
     inkscape:connector-curvature="0"
     id="path5052"
     style="fill:none;stroke:#000000;stroke-width:0.80000001;stroke-linecap:round;stroke-linejoin:round;stroke-miterlimit:10;stroke-dasharray:none;stroke-opacity:1"
     d="M 101.79156,127.82553 H 88.700956 v -17.45459 h 13.090604" /></g><text
   style="line-height:0%;text-align:start;writing-mode:lr-tb;text-anchor:start"
   y="-172.53372"
   x="265.05612"
   id="text4357"
   transform="scale(1,-1)"><tspan
     y="-172.53372"
     x="265.05612"
     id="tspan4359"
     sodipodi:role="line"
     style="font-size:10.52924728px;line-height:1.25">b7</tspan><tspan
     y="-159.37216"
     x="265.05612"
     id="tspan4361"
     sodipodi:role="line"
     style="font-size:10.52924728px;line-height:1.25"> </tspan><tspan
     y="-146.2106"
     x="265.05612"
     id="tspan4363"
     sodipodi:role="line"
     style="font-size:10.52924728px;line-height:1.25">b6</tspan><tspan
     y="-133.04904"
     x="265.05612"
     id="tspan4365"
     sodipodi:role="line"
     style="font-size:10.52924728px;line-height:1.25"> </tspan><tspan
     y="-119.88748"
     x="265.05612"
     id="tspan4367"
     sodipodi:role="line"
     style="font-size:10.52924728px;line-height:1.25">b5</tspan><tspan
     y="-106.72593"
     x="265.05612"
     id="tspan4369"
     sodipodi:role="line"
     style="font-size:10.52924728px;line-height:1.25"> </tspan><tspan
     y="-93.564369"
     x="265.05612"
     id="tspan4371"
     sodipodi:role="line"
     style="font-size:10.52924728px;line-height:1.25">b4</tspan><tspan
     y="-80.402809"
     x="265.05612"
     id="tspan4373"
     sodipodi:role="line"
     style="font-size:10.52924728px;line-height:1.25"> </tspan><tspan
     y="-67.241249"
     x="265.05612"
     id="tspan4375"
     sodipodi:role="line"
     style="font-size:10.52924728px;line-height:1.25">b3</tspan><tspan
     y="-54.079689"
     x="265.05612"
     id="tspan4377"
     sodipodi:role="line"
     style="font-size:10.52924728px;line-height:1.25"> </tspan><tspan
     y="-40.918129"
     x="265.05612"
     id="tspan4379"
     sodipodi:role="line"
     style="font-size:10.52924728px;line-height:1.25">b2</tspan><tspan
     y="-27.756573"
     x="265.05612"
     id="tspan4381"
     sodipodi:role="line"
     style="font-size:10.52924728px;line-height:1.25"> </tspan><tspan
     y="-14.595013"
     x="265.05612"
     id="tspan4383"
     sodipodi:role="line"
     style="font-size:10.52924728px;line-height:1.25">b1</tspan><tspan
     y="-1.4334536"
     x="265.05612"
     id="tspan4385"
     sodipodi:role="line"
     style="font-size:10.52924728px;line-height:1.25"> </tspan><tspan
     y="11.728106"
     x="265.05612"
     id="tspan4387"
     sodipodi:role="line"
     style="font-size:10.52924728px;line-height:1.25">b0</tspan></text>

<g
   transform="rotate(180,129.75712,40.029765)"
   id="g4391"><path
     inkscape:connector-curvature="0"
     id="path4393"
     style="fill:none;stroke:#000000;stroke-width:0.80000001;stroke-linecap:round;stroke-linejoin:round;stroke-miterlimit:10;stroke-dasharray:none;stroke-opacity:1"
     d="M 0.25,87.5223 H 4.61328" /><g
     id="g4397"><path
       d="M 5.0991106,-107.76575 H 12.85479 V 95.76377 H 5.0991106 Z"
       style="fill:none;stroke:#000000;stroke-width:0.80000001;stroke-linecap:round;stroke-linejoin:round;stroke-miterlimit:10;stroke-dasharray:none;stroke-opacity:1"
       id="path4399"
       inkscape:connector-curvature="0" /><path
       d="m 5.0196467,95.753986 3.9573024,-3.907602 3.9572839,3.907602"
       style="fill:none;stroke:#000000;stroke-width:0.72092724;stroke-linecap:round;stroke-linejoin:round;stroke-miterlimit:10;stroke-dasharray:none;stroke-opacity:1"
       id="path4401"
       inkscape:connector-curvature="0" /></g><path
     inkscape:connector-curvature="0"
     id="path4403"
     style="fill:none;stroke:#000000;stroke-width:0.80000001;stroke-linecap:round;stroke-linejoin:round;stroke-miterlimit:10;stroke-dasharray:none;stroke-opacity:1"
     d="M 8.97695,100.613 V 96.2496" /><path
     inkscape:connector-curvature="0"
     id="path4405"
     style="fill:none;stroke:#000000;stroke-width:0.80000001;stroke-linecap:round;stroke-linejoin:round;stroke-miterlimit:10;stroke-dasharray:none;stroke-opacity:1"
     d="M 41.356817,-17.250459 H 12.659003" /><path
     inkscape:connector-curvature="0"
     id="path4407"
     style="fill:none;stroke:#000000;stroke-width:0.80000001;stroke-linecap:round;stroke-linejoin:round;stroke-miterlimit:10;stroke-dasharray:none;stroke-opacity:1"
     d="M 4.7393785,61.400698 H 0.37607817" /><path
     inkscape:connector-curvature="0"
     id="path4409"
     style="fill:none;stroke:#000000;stroke-width:0.80000001;stroke-linecap:round;stroke-linejoin:round;stroke-miterlimit:10;stroke-dasharray:none;stroke-opacity:1"
     d="M 4.7393785,35.219098 H 0.37607817" /><path
     inkscape:connector-curvature="0"
     id="path4411"
     style="fill:none;stroke:#000000;stroke-width:0.80000001;stroke-linecap:round;stroke-linejoin:round;stroke-miterlimit:10;stroke-dasharray:none;stroke-opacity:1"
     d="M 4.7393785,9.0370454 H 0.37607817" /><path
     inkscape:connector-curvature="0"
     id="path4413"
     style="fill:none;stroke:#000000;stroke-width:0.80000001;stroke-linecap:round;stroke-linejoin:round;stroke-miterlimit:10;stroke-dasharray:none;stroke-opacity:1"
     d="M 0.66552,-17.250938 H 5.0288" /><path
     inkscape:connector-curvature="0"
     id="path4415"
     style="fill:none;stroke:#000000;stroke-width:0.80000001;stroke-linecap:round;stroke-linejoin:round;stroke-miterlimit:10;stroke-dasharray:none;stroke-opacity:1"
     d="M 5.1549,-43.372538 H 0.7916" /><path
     inkscape:connector-curvature="0"
     id="path4417"
     style="fill:none;stroke:#000000;stroke-width:0.80000001;stroke-linecap:round;stroke-linejoin:round;stroke-miterlimit:10;stroke-dasharray:none;stroke-opacity:1"
     d="M 5.1549,-69.554141 H 0.7916" /><path
     inkscape:connector-curvature="0"
     id="path4419"
     style="fill:none;stroke:#000000;stroke-width:0.80000001;stroke-linecap:round;stroke-linejoin:round;stroke-miterlimit:10;stroke-dasharray:none;stroke-opacity:1"
     d="M 5.1549,-95.736194 H 0.7916" /><path
     inkscape:connector-curvature="0"
     id="path4421"
     style="fill:none;stroke:#000000;stroke-width:0.80000001;stroke-linecap:round;stroke-linejoin:round;stroke-miterlimit:10;stroke-dasharray:none;stroke-opacity:1"
     d="M 45.376918,-43.371883 H 13.285209" /><path
     inkscape:connector-curvature="0"
     id="path4423"
     style="fill:none;stroke:#000000;stroke-width:0.80000001;stroke-linecap:round;stroke-linejoin:round;stroke-miterlimit:10;stroke-dasharray:none;stroke-opacity:1"
     d="M 52.057863,-69.553483 H 13.441986" /><path
     inkscape:connector-curvature="0"
     id="path4425"
     style="fill:none;stroke:#000000;stroke-width:0.80000001;stroke-linecap:round;stroke-linejoin:round;stroke-miterlimit:10;stroke-dasharray:none;stroke-opacity:1"
     d="M 83.763118,-95.735542 H 12.98331" /><path
     d="M 12.952153,87.5223 H 121.44295"
     style="fill:none;stroke:#000000;stroke-width:0.80000001;stroke-linecap:round;stroke-linejoin:round;stroke-miterlimit:10;stroke-dasharray:none;stroke-opacity:1"
     id="path4427"
     inkscape:connector-curvature="0" /><path
     d="M 95.07081,61.400698 H 13.78647"
     style="fill:none;stroke:#000000;stroke-width:0.80000001;stroke-linecap:round;stroke-linejoin:round;stroke-miterlimit:10;stroke-dasharray:none;stroke-opacity:1"
     id="path4429"
     inkscape:connector-curvature="0" /><path
     d="M 55.830858,35.219098 H 13.275997"
     style="fill:none;stroke:#000000;stroke-width:0.80000001;stroke-linecap:round;stroke-linejoin:round;stroke-miterlimit:10;stroke-dasharray:none;stroke-opacity:1"
     id="path4431"
     inkscape:connector-curvature="0" /><path
     d="M 45.462694,9.0370454 H 12.720757"
     style="fill:none;stroke:#000000;stroke-width:0.80000001;stroke-linecap:round;stroke-linejoin:round;stroke-miterlimit:10;stroke-dasharray:none;stroke-opacity:1"
     id="path4433"
     inkscape:connector-curvature="0" /></g><g
   transform="translate(122.63322,-68.36707)"
   id="g4435"><text
   id="text4437"
   style="font-style:italic;font-variant:normal;font-weight:normal;font-stretch:normal;font-size:8px;line-height:0%;font-family:Arial;-inkscape-font-specification:'Arial Italic';writing-mode:lr-tb;fill:#000000;fill-opacity:1;fill-rule:nonzero;stroke:none"
   transform="matrix(1,0,-1e-8,-1,119.69,36.6922)"><tspan
     id="tspan4439"
     y="0"
     x="0 5.8320298 10.280278"
     style="font-style:italic;font-variant:normal;font-weight:normal;font-stretch:normal;font-size:8px;font-family:Arial;-inkscape-font-specification:'Arial Italic'">CLK</tspan></text>

</g><text
   transform="scale(1,-1)"
   xml:space="preserve"
   style="font-style:italic;font-variant:normal;font-weight:normal;font-stretch:normal;line-height:0%;font-family:sans-serif;-inkscape-font-specification:'sans-serif Italic';letter-spacing:0px;word-spacing:0px;fill:#000000;fill-opacity:1;stroke:none;stroke-width:1px;stroke-linecap:butt;stroke-linejoin:miter;stroke-opacity:1"
   x="241.99252"
   y="-193.54793"
   id="text4441"><tspan
     sodipodi:role="line"
     id="tspan4443"
     x="241.99252"
     y="-193.54793"
     style="font-style:italic;font-variant:normal;font-weight:normal;font-stretch:normal;font-size:14px;line-height:1.25;font-family:sans-serif;-inkscape-font-specification:'sans-serif Italic'">R2</tspan></text>

<g
   id="g4349"><g
     id="g4305"><text
   transform="scale(1,-1)"
   id="text158-6"
   x="-46.944038"
   y="-172.53372"
   style="line-height:0%;text-align:start;writing-mode:lr-tb;text-anchor:start"><tspan
     sodipodi:role="line"
     id="tspan4886"
     x="-46.944038"
     y="-172.53372"
     style="font-size:10.52924728px;line-height:1.25">b7</tspan><tspan
     sodipodi:role="line"
     id="tspan4888"
     x="-46.944038"
     y="-159.37216"
     style="font-size:10.52924728px;line-height:1.25"> </tspan><tspan
     sodipodi:role="line"
     id="tspan4890"
     x="-46.944038"
     y="-146.2106"
     style="font-size:10.52924728px;line-height:1.25">b6</tspan><tspan
     sodipodi:role="line"
     id="tspan4892"
     x="-46.944038"
     y="-133.04904"
     style="font-size:10.52924728px;line-height:1.25"> </tspan><tspan
     sodipodi:role="line"
     id="tspan4894"
     x="-46.944038"
     y="-119.88748"
     style="font-size:10.52924728px;line-height:1.25">b5</tspan><tspan
     sodipodi:role="line"
     id="tspan4896"
     x="-46.944038"
     y="-106.72593"
     style="font-size:10.52924728px;line-height:1.25"> </tspan><tspan
     sodipodi:role="line"
     id="tspan4898"
     x="-46.944038"
     y="-93.564369"
     style="font-size:10.52924728px;line-height:1.25">b4</tspan><tspan
     sodipodi:role="line"
     id="tspan4900"
     x="-46.944038"
     y="-80.402809"
     style="font-size:10.52924728px;line-height:1.25"> </tspan><tspan
     sodipodi:role="line"
     id="tspan4902"
     x="-46.944038"
     y="-67.241249"
     style="font-size:10.52924728px;line-height:1.25">b3</tspan><tspan
     sodipodi:role="line"
     id="tspan4904"
     x="-46.944038"
     y="-54.079689"
     style="font-size:10.52924728px;line-height:1.25"> </tspan><tspan
     sodipodi:role="line"
     id="tspan4906"
     x="-46.944038"
     y="-40.918129"
     style="font-size:10.52924728px;line-height:1.25">b2</tspan><tspan
     sodipodi:role="line"
     id="tspan4908"
     x="-46.944038"
     y="-27.756573"
     style="font-size:10.52924728px;line-height:1.25"> </tspan><tspan
     sodipodi:role="line"
     id="tspan4910"
     x="-46.944038"
     y="-14.595013"
     style="font-size:10.52924728px;line-height:1.25">b1</tspan><tspan
     sodipodi:role="line"
     id="tspan4912"
     x="-46.944038"
     y="-1.4334536"
     style="font-size:10.52924728px;line-height:1.25"> </tspan><tspan
     sodipodi:role="line"
     id="tspan4914"
     x="-46.944038"
     y="11.728106"
     style="font-size:10.52924728px;line-height:1.25">b0</tspan></text>

<path
   inkscape:connector-curvature="0"
   id="path14-0"
   style="fill:none;stroke:#000000;stroke-width:0.80000001;stroke-linecap:round;stroke-linejoin:round;stroke-miterlimit:10;stroke-dasharray:none;stroke-opacity:1"
   d="M 41.662237,-7.46277 H -15.39364" /><g
   id="g4534"
   transform="rotate(180,-5.4428795,40.029765)"><path
     d="M 5.0991106,-107.76575 H 12.85479 V 95.76377 H 5.0991106 Z"
     style="fill:none;stroke:#000000;stroke-width:0.80000001;stroke-linecap:round;stroke-linejoin:round;stroke-miterlimit:10;stroke-dasharray:none;stroke-opacity:1"
     id="path20-8"
     inkscape:connector-curvature="0" /><path
     d="m 5.0196467,95.753986 3.9573024,-3.907602 3.9572839,3.907602"
     style="fill:none;stroke:#000000;stroke-width:0.72092724;stroke-linecap:round;stroke-linejoin:round;stroke-miterlimit:10;stroke-dasharray:none;stroke-opacity:1"
     id="path22-8"
     inkscape:connector-curvature="0" /></g><path
   inkscape:connector-curvature="0"
   id="path24-8"
   style="fill:none;stroke:#000000;stroke-width:0.80000001;stroke-linecap:round;stroke-linejoin:round;stroke-miterlimit:10;stroke-dasharray:none;stroke-opacity:1"
   d="m -19.862709,-20.55347 v 4.3634" /><path
   inkscape:connector-curvature="0"
   id="path16-0"
   style="fill:none;stroke:#000000;stroke-width:0.80000001;stroke-linecap:round;stroke-linejoin:round;stroke-miterlimit:10;stroke-dasharray:none;stroke-opacity:1"
   d="m -28.118618,97.309989 h 4.3633" /><path
   inkscape:connector-curvature="0"
   id="path28-9"
   style="fill:none;stroke:#000000;stroke-width:0.80000001;stroke-linecap:round;stroke-linejoin:round;stroke-miterlimit:10;stroke-dasharray:none;stroke-opacity:1"
   d="M -15.198941,18.658832 H 20.539223" /><path
   inkscape:connector-curvature="0"
   id="path40-9"
   style="fill:none;stroke:#000000;stroke-width:0.80000001;stroke-linecap:round;stroke-linejoin:round;stroke-miterlimit:10;stroke-dasharray:none;stroke-opacity:1"
   d="M -15.319042,44.840432 H 8.2122865" /><path
   inkscape:connector-curvature="0"
   id="path102-08"
   style="fill:none;stroke:#000000;stroke-width:0.80000001;stroke-linecap:round;stroke-linejoin:round;stroke-miterlimit:10;stroke-dasharray:none;stroke-opacity:1"
   d="M -15.382341,71.022485 H -2.0573649" /><path
   inkscape:connector-curvature="0"
   id="path14-1"
   style="fill:none;stroke:#000000;stroke-width:0.80000001;stroke-linecap:round;stroke-linejoin:round;stroke-miterlimit:10;stroke-dasharray:none;stroke-opacity:1"
   d="M 2.4036407,97.310468 H -15.651078" /><path
   inkscape:connector-curvature="0"
   id="path28-9-3"
   style="fill:none;stroke:#000000;stroke-width:0.80000001;stroke-linecap:round;stroke-linejoin:round;stroke-miterlimit:10;stroke-dasharray:none;stroke-opacity:1"
   d="M -15.307321,123.43207 H 2.7766947" /><path
   inkscape:connector-curvature="0"
   id="path40-9-1"
   style="fill:none;stroke:#000000;stroke-width:0.80000001;stroke-linecap:round;stroke-linejoin:round;stroke-miterlimit:10;stroke-dasharray:none;stroke-opacity:1"
   d="M -15.399613,149.61367 H 16.590478" /><path
   inkscape:connector-curvature="0"
   id="path102-08-1"
   style="fill:none;stroke:#000000;stroke-width:0.80000001;stroke-linecap:round;stroke-linejoin:round;stroke-miterlimit:10;stroke-dasharray:none;stroke-opacity:1"
   d="M -15.955029,175.79572 H 63.923648" /><path
   inkscape:connector-curvature="0"
   id="path28-9-3-0"
   style="fill:none;stroke:#000000;stroke-width:0.80000001;stroke-linecap:round;stroke-linejoin:round;stroke-miterlimit:10;stroke-dasharray:none;stroke-opacity:1"
   d="m -28.227569,123.43141 h 4.3633" /><path
   inkscape:connector-curvature="0"
   id="path40-9-1-3"
   style="fill:none;stroke:#000000;stroke-width:0.80000001;stroke-linecap:round;stroke-linejoin:round;stroke-miterlimit:10;stroke-dasharray:none;stroke-opacity:1"
   d="m -28.227569,149.61301 h 4.3633" /><path
   inkscape:connector-curvature="0"
   id="path102-08-1-4"
   style="fill:none;stroke:#000000;stroke-width:0.80000001;stroke-linecap:round;stroke-linejoin:round;stroke-miterlimit:10;stroke-dasharray:none;stroke-opacity:1"
   d="m -28.227569,175.79507 h 4.3633" /><path
   d="m -23.794079,-7.46277 h -4.36328"
   style="fill:none;stroke:#000000;stroke-width:0.80000001;stroke-linecap:round;stroke-linejoin:round;stroke-miterlimit:10;stroke-dasharray:none;stroke-opacity:1"
   id="path4623"
   inkscape:connector-curvature="0" /><path
   d="m -28.283457,18.658832 h 4.3633"
   style="fill:none;stroke:#000000;stroke-width:0.80000001;stroke-linecap:round;stroke-linejoin:round;stroke-miterlimit:10;stroke-dasharray:none;stroke-opacity:1"
   id="path4625"
   inkscape:connector-curvature="0" /><path
   d="m -28.283457,44.840432 h 4.3633"
   style="fill:none;stroke:#000000;stroke-width:0.80000001;stroke-linecap:round;stroke-linejoin:round;stroke-miterlimit:10;stroke-dasharray:none;stroke-opacity:1"
   id="path4627"
   inkscape:connector-curvature="0" /><path
   d="m -28.283457,71.022485 h 4.3633"
   style="fill:none;stroke:#000000;stroke-width:0.80000001;stroke-linecap:round;stroke-linejoin:round;stroke-miterlimit:10;stroke-dasharray:none;stroke-opacity:1"
   id="path4629"
   inkscape:connector-curvature="0" /><g
   id="g4754"
   transform="translate(-147.76678,-68.36707)"><text
   transform="matrix(1,0,-1e-8,-1,119.69,36.6922)"
   style="font-style:italic;font-variant:normal;font-weight:normal;font-stretch:normal;font-size:8px;line-height:0%;font-family:Arial;-inkscape-font-specification:'Arial Italic';writing-mode:lr-tb;fill:#000000;fill-opacity:1;fill-rule:nonzero;stroke:none"
   id="text4756"><tspan
     x="0 5.8320298 10.280278"
     y="0"
     id="tspan4758"
     style="font-style:italic;font-variant:normal;font-weight:normal;font-stretch:normal;font-size:8px;font-family:Arial;-inkscape-font-specification:'Arial Italic'">CLK</tspan></text>

</g><text
   id="text5228"
   y="-193.54793"
   x="-28.407856"
   style="font-style:italic;font-variant:normal;font-weight:normal;font-stretch:normal;line-height:0%;font-family:sans-serif;-inkscape-font-specification:'sans-serif Italic';letter-spacing:0px;word-spacing:0px;fill:#000000;fill-opacity:1;stroke:none;stroke-width:1px;stroke-linecap:butt;stroke-linejoin:miter;stroke-opacity:1"
   xml:space="preserve"
   transform="scale(1,-1)"><tspan
     style="font-style:italic;font-variant:normal;font-weight:normal;font-stretch:normal;font-size:14px;line-height:1.25;font-family:sans-serif;-inkscape-font-specification:'sans-serif Italic'"
     y="-193.54793"
     x="-28.407856"
     id="tspan5230"
     sodipodi:role="line">R1</tspan></text>

</g><path
     style="fill:#000000;fill-opacity:0.42424245;stroke:#000000;stroke-width:0.43217522;stroke-opacity:1;filter:url(#filter4498)"
     d="M 59.95704,-17.94661 C 47.47727,-14.917119 32.101303,-3.0482 24.200086,9.6546 c -4.266291,6.858908 -6.270855,12.866394 -7.063296,21.168027 -0.638077,6.68449 -1.174306,7.819686 -5.539233,11.726521 -2.029179,1.816221 -4.508319,4.362125 -5.509208,5.657564 -2.511379,3.250466 -4.858704,8.321063 -6.078229,13.12995 -0.926839,3.654744 -1.027013,4.713698 -1.032094,10.910619 -0.0065,7.937739 0.343503,9.977519 3.14752,18.343119 2.020145,6.02698 2.109651,7.03792 1.208087,13.64471 -1.365813,10.00892 0.313559,20.44763 4.749998,29.52521 0.614924,1.25823 3.121901,5.14728 5.57106,8.64234 3.421809,4.88307 4.861867,7.37471 6.218528,10.75955 3.200257,7.98456 6.831385,12.46987 12.017707,14.84475 5.010051,2.29415 11.247052,2.19959 18.146344,-0.27512 3.70011,-1.3272 6.56599,-1.41409 8.29652,-0.25154 0.72376,0.48621 3.3418,3.26357 5.81786,6.17188 11.86488,13.93624 22.00502,19.80733 32.69255,18.92885 6.47039,-0.53185 12.03064,-3.3252 18.67552,-9.38219 3.84662,-3.5063 5.51017,-4.42762 7.20172,-3.98852 0.64747,0.16807 2.90997,1.67654 5.02779,3.35213 7.07658,5.5989 12.29723,7.68878 19.28183,7.71877 8.91516,0.0383 16.87801,-3.63517 26.63594,-12.28767 5.03846,-4.46768 5.19093,-4.56793 11.20566,-7.36826 9.36818,-4.36162 14.67332,-8.60472 20.05014,-16.03631 5.91791,-8.17947 8.47546,-15.70385 10.26662,-30.20464 0.58909,-4.76918 1.40404,-10.31058 1.811,-12.31424 4.03666,-19.87445 1.51866,-34.880464 -7.66684,-45.690441 -4.19317,-4.934745 -4.78571,-6.454809 -5.2042,-13.350639 -0.44099,-7.266175 -0.87742,-9.741705 -2.60065,-14.751306 -3.55015,-10.320543 -11.6675,-17.301104 -22.04451,-18.95728 -3.1444,-0.501814 -5.06849,-0.494646 -9.73608,0.03609 -6.91911,0.787011 -7.58453,0.554584 -10.31506,-3.603546 -4.86552,-7.409272 -6.80104,-10.023932 -9.82493,-13.27243 -10.34332,-11.111493 -22.9913,-17.683774 -35.67483,-18.537842 -7.42135,-0.499678 -14.14878,1.066922 -22.43982,5.225457 -2.56885,1.288466 -5.18477,2.458129 -5.81317,2.599254 -1.58366,0.355605 -3.30977,-0.788384 -5.82589,-3.861086 -2.57623,-3.14616 -4.94405,-4.880781 -8.04175,-5.891374 -2.83915,-0.926257 -7.95038,-0.909732 -11.85565,0.03813 z m 12.62844,1.281864 c 2.49729,0.779231 4.98075,2.750749 6.44337,5.115135 1.24314,2.009599 2.42103,5.978511 2.42103,8.157649 0,1.735837 0.99441,1.492835 3.66168,-0.894684 15.59599,-13.960207 37.37193,-13.628597 55.95272,0.852032 7.93228,6.181909 15.32558,15.301904 17.67692,21.80541 0.73262,2.02632 1.33204,4.003838 1.33204,4.39442 0,1.283284 0.99438,1.278047 3.96598,-0.02085 8.3284,-3.640454 18.73358,-2.877387 25.97703,1.904973 9.78485,6.460339 14.82117,19.801431 12.49892,33.109371 -0.29276,1.677629 -0.53817,3.413176 -0.54537,3.856777 -0.008,0.514111 1.14095,1.597819 3.16981,2.988909 6.40562,4.392037 10.96047,12.681067 12.40075,22.567204 1.07086,7.35047 0.46169,16.29924 -1.68335,24.72876 -0.80016,3.14443 -1.19452,5.91322 -1.4482,10.16745 -0.64373,10.79607 -2.38502,17.97624 -6.22202,25.6564 -5.45813,10.92499 -15.86668,19.75911 -27.05171,22.95979 -2.45498,0.70251 -3.15616,1.16901 -5.24289,3.48811 -6.26468,6.96231 -14.15873,12.15522 -21.6862,14.26573 -4.38158,1.22848 -13.07062,0.81663 -16.72778,-0.79291 -5.02553,-2.21174 -11.35203,-7.36342 -14.30545,-11.64897 -0.5935,-0.8612 -1.26172,-1.56581 -1.48495,-1.56581 -0.22322,0 -1.14294,1.04812 -2.04381,2.32915 -4.15541,5.90899 -9.18908,10.24275 -15.04799,12.95562 -4.57182,2.11693 -10.94237,2.61813 -15.79815,1.24293 -9.67861,-2.74106 -19.59769,-11.16786 -28.3069,-24.04824 l -2.91696,-4.314 -2.1451,1.33204 c -4.72504,2.93411 -11.573374,5.0392 -16.413597,5.04535 -9.706686,0.0123 -17.595355,-8.2126 -19.389212,-20.21564 -0.559997,-3.74707 -0.812587,-4.32116 -1.90119,-4.32116 -1.159107,0 -4.795232,-3.80839 -6.7922,-7.11396 -2.607937,-4.31693 -5.087708,-10.4856 -6.27248,-15.6034 -0.912597,-3.94209 -1.098173,-5.58626 -1.09455,-9.69746 0.0052,-5.86343 0.566914,-9.1217 2.343861,-13.59488 L 7.221216,95.12454 5.756752,93.84533 C 1.783888,90.37505 -0.782552,80.3784 -0.375409,69.959645 c 0.314658,-8.052143 2.302306,-14.270802 6.355835,-19.88522 2.709034,-3.7522 6.288301,-6.618254 10.24612,-8.204463 1.616147,-0.647718 3.078942,-1.372061 3.250648,-1.609654 0.171706,-0.237589 0.03872,-1.163773 -0.295544,-2.058182 -0.33426,-0.894408 -0.769262,-3.013939 -0.966672,-4.710072 -1.773199,-15.235389 13.004581,-36.090701 32.839062,-46.344519 8.12832,-4.20205 15.88221,-5.57491 21.53144,-3.812235 z"
     id="path2463"
     inkscape:connector-curvature="0" /></g><g
   id="layer1"
   inkscape:label="Layer 1"
   transform="matrix(0.41243901,0,0,-0.44799508,149.50006,88.555932)"><path
     sodipodi:nodetypes="cc"
     id="path3059"
     d="m 70,25 c 20,0 25,0 25,0"
     style="fill:none;stroke:#000000;stroke-width:2;stroke-linecap:butt;stroke-linejoin:miter;stroke-opacity:1"
     inkscape:connector-curvature="0" /><path
     id="path3061"
     d="M 30.385717,15 H 4.9999998"
     style="fill:none;stroke:#000000;stroke-width:1.99999988;stroke-linecap:butt;stroke-linejoin:miter;stroke-opacity:1"
     inkscape:connector-curvature="0" /><path
     id="path3944"
     d="M 31.362091,35 H 4.9999998"
     style="fill:none;stroke:#000000;stroke-width:1.99999976;stroke-linecap:butt;stroke-linejoin:miter;stroke-opacity:1"
     inkscape:connector-curvature="0" /><g
     transform="translate(26.5,-39.5)"
     inkscape:label="Layer 1"
     id="g2560"><path
       sodipodi:nodetypes="ccccsccccsc"
       d="m -2.25,81.500005 c -1.597374,2.6444 -2.25,3 -2.25,3 h -3.65625 l 2,-2.4375 c 0,0 5.65625,-7.000054 5.65625,-17.562505 0,-10.562451 -5.65625,-17.5625 -5.65625,-17.5625 l -2,-2.4375 H -4.5 c 0.78125,0.9375 1.421875,1.65625 2.21875,3 1.872719,3.099815 4.78125,9.026646 4.78125,17 0,7.95065 -2.896697,13.879425 -4.75,17.000005 z"
       style="fill:#000000;fill-opacity:1;fill-rule:evenodd;stroke:none;stroke-width:3;stroke-linecap:butt;stroke-linejoin:miter;stroke-opacity:1"
       id="path3516"
       inkscape:connector-curvature="0" /><path
       sodipodi:nodetypes="ccsccccscccccccccsccsc"
       id="path4973"
       d="m -2.40625,44.5 2,2.4375 c 0,0 5.65625,7.000049 5.65625,17.5625 0,10.562451 -5.65625,17.5625 -5.65625,17.5625 l -2,2.4375 H 0.75 h 14 c 2.408076,10e-7 7.689699,0.02451 13.625,-2.40625 5.935301,-2.430764 12.536536,-7.343266 17.6875,-16.875 L 44.75,64.5 46.0625,63.78125 C 35.759387,44.71559 19.506574,44.5 14.75,44.5 h -14 z m 5.875,3 H 14.75 c 4.684173,0 18.28685,-0.130207 27.96875,17 C 37.951964,72.929075 32.197469,77.18391 27,79.3125 21.639339,81.507924 17.158075,81.500001 14.75,81.5 H 3.5 c 1.8735884,-3.108434 4.75,-9.04935 4.75,-17 0,-7.973354 -2.9085314,-13.900185 -4.78125,-17 z"
       style="fill:#000000;fill-opacity:1;fill-rule:evenodd;stroke:none;stroke-width:3;stroke-linecap:butt;stroke-linejoin:miter;stroke-opacity:1"
       inkscape:connector-curvature="0" /></g></g><g
   id="layer1-2"
   inkscape:label="Layer 1"
   transform="matrix(0.34297816,0,0,-0.34297816,101.7684,46.036601)"><path
     sodipodi:nodetypes="cc"
     id="path3059-5"
     d="M 79.15691,25 H 95"
     style="fill:none;stroke:#000000;stroke-width:1.99999988;stroke-linecap:butt;stroke-linejoin:miter;stroke-opacity:1"
     inkscape:connector-curvature="0" /><path
     id="path3061-4"
     d="M 29.043478,25 H 5.0434781"
     style="fill:none;stroke:#000000;stroke-width:2;stroke-linecap:butt;stroke-linejoin:miter;stroke-opacity:1"
     inkscape:connector-curvature="0" /><path
     sodipodi:nodetypes="ccccccccccccc"
     id="path2638"
     d="M 28.96875,2.59375 V 5 45 47.40625 l 2.15625,-1.0625 41.03125,-20 v -2.6875 l -41.03125,-20 z m 3,4.8125 L 68.09375,25 31.96875,42.59375 Z"
     style="display:inline;overflow:visible;visibility:visible;fill:#000000;fill-opacity:1;stroke:none;stroke-width:3;stroke-linejoin:miter;stroke-opacity:1;marker:none;enable-background:accumulate"
     inkscape:connector-curvature="0" /><circle
     transform="translate(-1)"
     id="path2671"
     style="display:inline;overflow:visible;visibility:visible;fill:none;fill-opacity:1;stroke:#000000;stroke-width:3;stroke-linejoin:miter;stroke-opacity:1;marker:none;enable-background:accumulate"
     cx="76"
     cy="25"
     r="4" /></g><text
   transform="scale(1,-1)"
   xml:space="preserve"
   style="font-style:normal;font-variant:normal;font-weight:normal;font-stretch:normal;line-height:0%;font-family:sans-serif;-inkscape-font-specification:sans-serif;letter-spacing:0px;word-spacing:0px;fill:#000000;fill-opacity:1;stroke:none;stroke-width:1px;stroke-linecap:butt;stroke-linejoin:miter;stroke-opacity:1"
   x="27.59215"
   y="-119.94769"
   id="text4598"><tspan
     sodipodi:role="line"
     id="tspan4600"
     x="27.59215"
     y="-119.94769"
     style="font-style:normal;font-variant:normal;font-weight:normal;font-stretch:normal;font-size:14px;line-height:1.25;font-family:sans-serif;-inkscape-font-specification:sans-serif">Lógica Combinacional</tspan></text>

</g></svg>