<?xml version="1.0" encoding="UTF-8" standalone="no"?>
<svg
   xmlns:dc="http://purl.org/dc/elements/1.1/"
   xmlns:cc="http://creativecommons.org/ns#"
   xmlns:rdf="http://www.w3.org/1999/02/22-rdf-syntax-ns#"
   xmlns:svg="http://www.w3.org/2000/svg"
   xmlns="http://www.w3.org/2000/svg"
   xmlns:sodipodi="http://sodipodi.sourceforge.net/DTD/sodipodi-0.dtd"
   xmlns:inkscape="http://www.inkscape.org/namespaces/inkscape"
   version="1.1"
   id="Layer_1"
   x="0px"
   y="0px"
   width="638px"
   height="675px"
   viewBox="-115 -152.729 638 675"
   enable-background="new -115 -152.729 638 675"
   xml:space="preserve"
   preserveAspectRatio="xMidYMid meet"
   zoomAndPan="magnify"
   contentScriptType="application/ecmascript"
   contentStyleType="text/css"
   inkscape:version="0.91 r13725"
   sodipodi:docname="designFlowQuartus-1.svg"
   inkscape:export-filename="/home/paulo/Imagens/designFlowQuartus-1_svg.png"
   inkscape:export-xdpi="90"
   inkscape:export-ydpi="90"><metadata
     id="metadata415"><rdf:RDF><cc:Work
         rdf:about=""><dc:format>image/svg+xml</dc:format><dc:type
           rdf:resource="http://purl.org/dc/dcmitype/StillImage" /><dc:title /></cc:Work></rdf:RDF></metadata><sodipodi:namedview
     pagecolor="#ffffff"
     bordercolor="#666666"
     borderopacity="1"
     objecttolerance="10"
     gridtolerance="10"
     guidetolerance="10"
     inkscape:pageopacity="0"
     inkscape:pageshadow="2"
     inkscape:window-width="1855"
     inkscape:window-height="1056"
     id="namedview413"
     showgrid="false"
     inkscape:zoom="1.3614815"
     inkscape:cx="151.90261"
     inkscape:cy="337.5"
     inkscape:window-x="65"
     inkscape:window-y="24"
     inkscape:window-maximized="1"
     inkscape:current-layer="Layer_1" /><defs
     id="defs3"><style
       type="text/css"
       id="style5">@import url(/etc/clientlibs/altera-www/global/css/svg-font-face.css);</style></defs><g
     id="g7"
     style=""><line
       fill="none"
       stroke="#010101"
       stroke-width="0.5"
       x1="246.104"
       y1="205.719"
       x2="286.604"
       y2="205.719"
       id="line9"
       style="" /><path
       fill="#010101"
       d="M288.375,204.95c-1.238-0.375-2.046-0.721-3.039-1.119v3.781c0.354-0.17,1.801-0.743,3.039-1.118   c1.328-0.403,2.533-0.678,3.313-0.775C290.905,205.624,289.703,205.353,288.375,204.95z"
       id="path11"
       style="" /></g><g
     id="g13"
     style=""><line
       fill="none"
       stroke="#010101"
       stroke-width="0.5"
       x1="3.105"
       y1="57.219"
       x2="70.605"
       y2="57.219"
       id="line15"
       style="" /><path
       fill="#010101"
       d="M72.375,56.45c-1.239-0.375-2.045-0.721-3.041-1.119v3.781c0.355-0.169,1.801-0.743,3.041-1.118   c1.327-0.401,2.532-0.677,3.312-0.773C74.907,57.124,73.703,56.852,72.375,56.45z"
       id="path17"
       style="" /></g><g
     id="g19"
     style=""><line
       fill="none"
       stroke="#010101"
       stroke-width="0.5"
       x1="143.282"
       y1="435.218"
       x2="143.282"
       y2="470.636"
       id="line21"
       style="" /><path
       fill="#010101"
       d="M144.05,472.406c0.375-1.234,0.718-2.045,1.119-3.037h-3.783c0.168,0.354,0.744,1.803,1.119,3.037   c0.4,1.33,0.675,2.531,0.772,3.313C143.375,474.935,143.649,473.736,144.05,472.406z"
       id="path23"
       style="" /></g><g
     id="g25"
     style=""><line
       fill="none"
       stroke="#010101"
       stroke-width="0.5"
       x1="143.282"
       y1="367.718"
       x2="143.282"
       y2="403.136"
       id="line27"
       style="" /><path
       fill="#010101"
       d="M144.05,404.908c0.375-1.236,0.718-2.047,1.119-3.039h-3.783c0.168,0.354,0.744,1.803,1.119,3.039   c0.4,1.328,0.675,2.526,0.772,3.311C143.375,407.435,143.649,406.236,144.05,404.908z"
       id="path29"
       style="" /></g><g
     id="g31"
     style=""><line
       fill="none"
       stroke="#010101"
       stroke-width="0.5"
       x1="142.547"
       y1="133.138"
       x2="142.547"
       y2="160.138"
       id="line33"
       style="" /><path
       fill="#010101"
       d="M143.315,161.906c0.375-1.237,0.718-2.045,1.119-3.039h-3.783c0.167,0.354,0.744,1.802,1.119,3.039   c0.399,1.328,0.674,2.531,0.771,3.313C142.64,164.439,142.914,163.235,143.315,161.906z"
       id="path35"
       style="" /></g><line
     fill="none"
     stroke="#010101"
     stroke-width="0.5"
     x1="322.848"
     y1="327.218"
     x2="382.604"
     y2="327.218"
     id="line37"
     style="" /><path
     fill="#010101"
     d="M384.375,326.451c-1.238-0.375-2.046-0.723-3.039-1.119v3.779c0.354-0.17,1.801-0.742,3.039-1.117  c1.328-0.402,2.531-0.678,3.313-0.773C386.906,327.125,385.703,326.854,384.375,326.451z"
     id="path39"
     style="" /><g
     id="g41"
     style=""><line
       fill="none"
       stroke="#010101"
       stroke-width="0.5"
       x1="156.688"
       y1="205.719"
       x2="197.188"
       y2="205.719"
       id="line43"
       style="" /><path
       fill="#010101"
       d="M198.96,204.95c-1.239-0.375-2.048-0.721-3.041-1.119v3.781c0.354-0.17,1.802-0.743,3.041-1.118   c1.327-0.403,2.532-0.678,3.311-0.775C201.49,205.624,200.284,205.353,198.96,204.95z"
       id="path45"
       style="" /></g><g
     id="g47"
     style=""><g
       id="g49"
       style=""><line
         fill="none"
         stroke="#010101"
         stroke-width="0.5"
         x1="70.605"
         y1="205.719"
         x2="111.105"
         y2="205.719"
         id="line51"
         style="" /><path
         fill="#010101"
         d="M112.875,204.95c-1.239-0.375-2.045-0.721-3.041-1.119v3.781c0.355-0.17,1.801-0.743,3.041-1.118    c1.327-0.403,2.532-0.678,3.312-0.775C115.407,205.624,114.203,205.353,112.875,204.95z"
         id="path53"
         style="" /></g><path
       fill="#010101"
       d="M112.875,204.95c-1.239-0.375-2.045-0.721-3.041-1.119v3.781c0.355-0.17,1.801-0.743,3.041-1.118   c1.327-0.403,2.532-0.678,3.312-0.775C115.407,205.624,114.203,205.353,112.875,204.95z"
       id="path55"
       style="" /></g><g
     id="g57"
     style=""><line
       fill="none"
       stroke="#010101"
       stroke-width="0.5"
       x1="313.604"
       y1="205.719"
       x2="354.104"
       y2="205.719"
       id="line59"
       style="" /><path
       fill="#010101"
       d="M355.875,204.95c-1.238-0.375-2.046-0.721-3.039-1.119v3.781c0.354-0.17,1.801-0.743,3.039-1.118   c1.328-0.403,2.531-0.678,3.313-0.775C358.406,205.624,357.203,205.353,355.875,204.95z"
       id="path61"
       style="" /></g><g
     id="g63"
     style=""><line
       fill="none"
       stroke="#010101"
       stroke-width="0.5"
       x1="313.604"
       y1="57.219"
       x2="354.104"
       y2="57.219"
       id="line65"
       style="" /><path
       fill="#010101"
       d="M355.875,56.45c-1.238-0.375-2.046-0.721-3.039-1.119v3.781c0.354-0.169,1.801-0.743,3.039-1.118   c1.328-0.401,2.531-0.677,3.313-0.773C358.406,57.124,357.203,56.852,355.875,56.45z"
       id="path67"
       style="" /></g><g
     id="g69"
     style=""><line
       fill="none"
       stroke="#010101"
       stroke-width="0.5"
       x1="192.104"
       y1="57.219"
       x2="286.604"
       y2="57.219"
       id="line71"
       style="" /><path
       fill="#010101"
       d="M288.375,56.45c-1.238-0.375-2.046-0.721-3.039-1.119v3.781c0.354-0.169,1.801-0.743,3.039-1.118   c1.328-0.401,2.533-0.677,3.313-0.773C290.905,57.124,289.703,56.852,288.375,56.45z"
       id="path73"
       style="" /></g><g
     id="g75"
     style=""><line
       fill="none"
       stroke="#010101"
       stroke-width="0.5"
       x1="142.547"
       y1="70.719"
       x2="142.547"
       y2="97.719"
       id="line77"
       style="" /><path
       fill="#010101"
       d="M143.315,99.49c0.375-1.238,0.718-2.047,1.119-3.039h-3.783c0.167,0.354,0.744,1.801,1.119,3.039   c0.399,1.327,0.674,2.532,0.771,3.313C142.64,102.022,142.914,100.816,143.315,99.49z"
       id="path79"
       style="" /></g><g
     id="g81"
     style=""><text
       transform="matrix(1 0 0 1 71.937 324.3857)"
       style="font-family:'Abyssinica SIL';font-size:10px;-inkscape-font-specification:'Abyssinica SIL';font-weight:normal;font-style:normal;font-stretch:normal;font-variant:normal;"
       id="text83">No</text>
</g><g
     id="g85"
     style=""><path
       fill="none"
       stroke="#010101"
       stroke-width="0.5"
       stroke-miterlimit="3.8636"
       d="M33.478,184.525   c-0.342-4.656,17.908-8.678,40.129-8.688h29.838c21.653-0.012,39.434-4.922,39.099-10.617c0.039,5.88,18.61,10.711,40.126,10.617   h29.842c20.969-0.071,39.061,3.876,39.1,8.688"
       id="path87"
       style="" /></g><rect
     x="359.188"
     y="38.219"
     fill="#FFFFFF"
     stroke="#000000"
     stroke-width="0.5"
     stroke-miterlimit="10"
     width="97.506"
     height="46"
     id="rect89"
     style="" /><text
     transform="matrix(1 0 0 1 382.875 53.9453)"
     style="font-family:'Abyssinica SIL';font-size:10px;-inkscape-font-specification:'Abyssinica SIL';font-weight:normal;font-style:normal;font-stretch:normal;font-variant:normal;"
     id="text91">Gate-Level</text>
<text
     transform="matrix(1 0 0 1 384.0723 66.5449)"
     style="font-family:'Abyssinica SIL';font-size:10px;-inkscape-font-specification:'Abyssinica SIL';font-weight:normal;font-style:normal;font-stretch:normal;font-variant:normal;"
     id="text93">Functional</text>
<text
     transform="matrix(1 0 0 1 383.8359 79.1426)"
     style="font-family:'Abyssinica SIL';font-size:10px;-inkscape-font-specification:'Abyssinica SIL';font-weight:normal;font-style:normal;font-stretch:normal;font-variant:normal;"
     id="text95">Simulation</text>
<rect
     x="359.188"
     y="-32.057"
     fill="#FFFFFF"
     stroke="#000000"
     stroke-width="0.5"
     stroke-miterlimit="10"
     width="97.506"
     height="39.764"
     id="rect97"
     style="" /><text
     transform="matrix(1 0 0 1 374.7441 -13.7686)"
     style="font-family:'Abyssinica SIL';font-size:10px;-inkscape-font-specification:'Abyssinica SIL';font-weight:normal;font-style:normal;font-stretch:normal;font-variant:normal;"
     id="text99">Functional/RTL</text>
<text
     transform="matrix(1 0 0 1 383.8359 -1.168)"
     style="font-family:'Abyssinica SIL';font-size:10px;-inkscape-font-specification:'Abyssinica SIL';font-weight:normal;font-style:normal;font-stretch:normal;font-variant:normal;"
     id="text101">Simulation</text>
<rect
     x="105.802"
     y="289.232"
     transform="matrix(0.7071 -0.7071 0.7071 0.7071 -189.0514 197.0006)"
     fill="#FFFFFF"
     stroke="#010101"
     stroke-width="0.5"
     stroke-linecap="square"
     stroke-miterlimit="10"
     width="74.95"
     height="74.95"
     id="rect103"
     style="" /><text
     transform="matrix(1 0 0 1 156.687 392.0732)"
     style="font-family:'Abyssinica SIL';font-size:10px;-inkscape-font-specification:'Abyssinica SIL';font-weight:normal;font-style:normal;font-stretch:normal;font-variant:normal;"
     id="text105">Yes</text>
<text
     transform="matrix(1 0 0 1 111.2666 321.5732)"
     style="font-family:'Abyssinica SIL';font-size:10px;-inkscape-font-specification:'Abyssinica SIL';font-weight:normal;font-style:normal;font-stretch:normal;font-variant:normal;"
     id="text107">Timing &amp; Area</text>
<text
     transform="matrix(1 0 0 1 111.7432 334.1758)"
     style="font-family:'Abyssinica SIL';font-size:10px;-inkscape-font-specification:'Abyssinica SIL';font-weight:normal;font-style:normal;font-stretch:normal;font-variant:normal;"
     id="text109">Requirements</text>
<text
     transform="matrix(1 0 0 1 119.6338 346.7773)"
     style="font-family:'Abyssinica SIL';font-size:10px;-inkscape-font-specification:'Abyssinica SIL';font-weight:normal;font-style:normal;font-stretch:normal;font-variant:normal;"
     id="text111">Satisfied?</text>
<rect
     x="359.188"
     y="186.885"
     fill="#FFFFFF"
     stroke="#000000"
     stroke-width="0.5"
     stroke-miterlimit="10"
     width="105.084"
     height="41.253"
     id="rect113"
     style="" /><text
     transform="matrix(1 0 0 1 372.7598 208.0684)"
     style="font-family:'Abyssinica SIL';font-size:10px;-inkscape-font-specification:'Abyssinica SIL';font-weight:normal;font-style:normal;font-stretch:normal;font-variant:normal;"
     id="text115">Gate-Level Timing</text>
<text
     transform="matrix(1 0 0 1 387.8359 220.668)"
     style="font-family:'Abyssinica SIL';font-size:10px;-inkscape-font-specification:'Abyssinica SIL';font-weight:normal;font-style:normal;font-stretch:normal;font-variant:normal;"
     id="text117">Simulation</text>
<rect
     x="388.064"
     y="300.219"
     fill="#FFFFFF"
     stroke="#000000"
     stroke-width="0.5"
     stroke-miterlimit="10"
     width="112.493"
     height="67.5"
     id="rect119"
     style="" /><text
     transform="matrix(1 0 0 1 401.0186 319.6055)"
     style="font-family:'Abyssinica SIL';font-size:10px;-inkscape-font-specification:'Abyssinica SIL';font-weight:normal;font-style:normal;font-stretch:normal;font-variant:normal;"
     id="text121">Formal Verification</text>
<text
     transform="matrix(1 0 0 1 393.834 332.2051)"
     style="font-family:'Abyssinica SIL';font-size:10px;-inkscape-font-specification:'Abyssinica SIL';font-weight:normal;font-style:normal;font-stretch:normal;font-variant:normal;"
     id="text123">Using Source Code as</text>
<text
     transform="matrix(1 0 0 1 392.8682 344.8066)"
     style="font-family:'Abyssinica SIL';font-size:10px;-inkscape-font-specification:'Abyssinica SIL';font-weight:normal;font-style:normal;font-stretch:normal;font-variant:normal;"
     id="text125">Golden Netlist, and VO</text>
<text
     transform="matrix(1 0 0 1 402.4512 357.4043)"
     style="font-family:'Abyssinica SIL';font-size:10px;-inkscape-font-specification:'Abyssinica SIL';font-weight:normal;font-style:normal;font-stretch:normal;font-variant:normal;"
     id="text127">as Revised Netlist</text>
<g
     id="g129"
     style=""><path
       fill="#FFFFFF"
       stroke="#000000"
       stroke-width="0.5"
       stroke-miterlimit="10"
       d="M157.021,107.859h-28.958v26.89h0.047   c0.253,3.128,6.612,5.63,14.425,5.63c7.819,0,14.18-2.502,14.433-5.63h0.052L157.021,107.859L157.021,107.859z"
       id="path131"
       style="" /><path
       fill="#FFFFFF"
       stroke="#000000"
       stroke-width="0.5"
       stroke-miterlimit="10"
       d="M156.979,107.551   c0,3.216-6.464,5.813-14.442,5.813c-7.971,0-14.44-2.599-14.44-5.813c0-3.218,6.47-5.818,14.44-5.818   C150.515,101.733,156.979,104.334,156.979,107.551z"
       id="path133"
       style="" /></g><text
     transform="matrix(1 0 0 1 87.4658 110.2715)"
     style="font-family:'Abyssinica SIL';font-size:10px;-inkscape-font-specification:'Abyssinica SIL';font-weight:normal;font-style:normal;font-stretch:normal;font-variant:normal;"
     id="text135">Internal</text>
<text
     transform="matrix(1 0 0 1 78.8525 122.8711)"
     style="font-family:'Abyssinica SIL';font-size:10px;-inkscape-font-specification:'Abyssinica SIL';font-weight:normal;font-style:normal;font-stretch:normal;font-variant:normal;"
     id="text137">Synthesis</text>
<text
     transform="matrix(1 0 0 1 92.2637 135.4727)"
     style="font-family:'Abyssinica SIL';font-size:10px;-inkscape-font-specification:'Abyssinica SIL';font-weight:normal;font-style:normal;font-stretch:normal;font-variant:normal;"
     id="text139">Netlist</text>
<g
     id="g141"
     style=""><path
       fill="#FFFFFF"
       stroke="#000000"
       stroke-width="0.5"
       stroke-miterlimit="10"
       d="M157.755,416.563h-28.957v26.893h0.046   c0.253,3.127,6.612,5.629,14.426,5.629c7.819,0,14.179-2.502,14.433-5.629h0.051L157.755,416.563L157.755,416.563z"
       id="path143"
       style="" /><path
       fill="#FFFFFF"
       stroke="#000000"
       stroke-width="0.5"
       stroke-miterlimit="10"
       d="M157.714,416.253   c0,3.217-6.464,5.814-14.442,5.814c-7.971,0-14.44-2.601-14.44-5.814c0-3.219,6.47-5.82,14.44-5.82   C151.25,410.433,157.714,413.037,157.714,416.253z"
       id="path145"
       style="" /></g><text
     transform="matrix(1 0 0 1 170.187 420.4844)"
     style="font-family:'Abyssinica SIL';font-size:10px;-inkscape-font-specification:'Abyssinica SIL';font-weight:normal;font-style:normal;font-stretch:normal;font-variant:normal;"
     id="text147">Configuration/</text>
<text
     transform="matrix(1 0 0 1 170.187 433.0811)"
     style="font-family:'Abyssinica SIL';font-size:10px;-inkscape-font-specification:'Abyssinica SIL';font-weight:normal;font-style:normal;font-stretch:normal;font-variant:normal;"
     id="text149">Programming</text>
<text
     transform="matrix(1 0 0 1 170.187 445.6836)"
     style="font-family:'Abyssinica SIL';font-size:10px;-inkscape-font-specification:'Abyssinica SIL';font-weight:normal;font-style:normal;font-stretch:normal;font-variant:normal;"
     id="text151">Files (</text>
<text
     transform="matrix(1 0 0 1 196.916 445.6836)"
     style="font-family:'Abyssinica SIL';font-size:10px;-inkscape-font-specification:'Abyssinica SIL';font-weight:normal;font-style:normal;font-stretch:normal;font-variant:normal;"
     id="text153">.sof</text>
<text
     transform="matrix(1 0 0 1 216.0249 445.6836)"
     style="font-family:'Abyssinica SIL';font-size:10px;-inkscape-font-specification:'Abyssinica SIL';font-weight:normal;font-style:normal;font-stretch:normal;font-variant:normal;"
     id="text155">/</text>
<text
     transform="matrix(1 0 0 1 220.2402 445.6836)"
     style="font-family:'Abyssinica SIL';font-size:10px;-inkscape-font-specification:'Abyssinica SIL';font-weight:normal;font-style:normal;font-stretch:normal;font-variant:normal;"
     id="text157">.pof</text>
<text
     transform="matrix(1 0 0 1 241.1948 445.6836)"
     style="font-family:'Abyssinica SIL';font-size:10px;-inkscape-font-specification:'Abyssinica SIL';font-weight:normal;font-style:normal;font-stretch:normal;font-variant:normal;"
     id="text159">)</text>
<rect
     x="77.292"
     y="44.79"
     fill="#FFFFFF"
     stroke="#000000"
     stroke-width="0.5"
     stroke-miterlimit="10"
     width="130.501"
     height="32.857"
     id="rect161"
     style="" /><text
     transform="matrix(1 0 0 1 102.5781 66.543)"
     style="font-family:'Abyssinica SIL';font-size:10px;-inkscape-font-specification:'Abyssinica SIL';font-weight:normal;font-style:normal;font-stretch:normal;font-variant:normal;"
     id="text163">Analysis &amp; Synthesis</text>
<rect
     x="-71.313"
     y="44.79"
     fill="#FFFFFF"
     stroke="#000000"
     stroke-width="0.5"
     stroke-miterlimit="10"
     width="79.5"
     height="32.857"
     id="rect165"
     style="" /><text
     transform="matrix(1 0 0 1 -57.3369 60.2441)"
     style="font-family:'Abyssinica SIL';font-size:10px;-inkscape-font-specification:'Abyssinica SIL';font-weight:normal;font-style:normal;font-stretch:normal;font-variant:normal;"
     id="text167">Constraints</text>
<text
     transform="matrix(1 0 0 1 -55.189 72.8438)"
     style="font-family:'Abyssinica SIL';font-size:10px;-inkscape-font-specification:'Abyssinica SIL';font-weight:normal;font-style:normal;font-stretch:normal;font-variant:normal;"
     id="text169">&amp; Settings</text>
<rect
     x="-71.313"
     y="186.885"
     fill="#FFFFFF"
     stroke="#000000"
     stroke-width="0.5"
     stroke-miterlimit="10"
     width="79.5"
     height="41.253"
     id="rect171"
     style="" /><text
     transform="matrix(1 0 0 1 -53.3369 204.2461)"
     style="font-family:'Abyssinica SIL';font-size:10px;-inkscape-font-specification:'Abyssinica SIL';font-weight:normal;font-style:normal;font-stretch:normal;font-variant:normal;"
     id="text173">Constraints</text>
<text
     transform="matrix(1 0 0 1 -51.189 216.8457)"
     style="font-family:'Abyssinica SIL';font-size:10px;-inkscape-font-specification:'Abyssinica SIL';font-weight:normal;font-style:normal;font-stretch:normal;font-variant:normal;"
     id="text175">&amp; Settings</text>
<rect
     x="35.188"
     y="186.885"
     fill="#FFFFFF"
     stroke="#000000"
     stroke-width="0.5"
     stroke-miterlimit="10"
     width="49.5"
     height="41.253"
     id="rect177"
     style="" /><text
     transform="matrix(1 0 0 1 50.1299 210.5449)"
     style="font-family:'Abyssinica SIL';font-size:10px;-inkscape-font-specification:'Abyssinica SIL';font-weight:normal;font-style:normal;font-stretch:normal;font-variant:normal;"
     id="text179">Fitter</text>
<rect
     x="114.792"
     y="186.885"
     fill="#FFFFFF"
     stroke="#000000"
     stroke-width="0.5"
     stroke-miterlimit="10"
     width="55.5"
     height="41.253"
     id="rect181"
     style="" /><text
     transform="matrix(1 0 0 1 119.2061 210.5449)"
     style="font-family:'Abyssinica SIL';font-size:10px;-inkscape-font-specification:'Abyssinica SIL';font-weight:normal;font-style:normal;font-stretch:normal;font-variant:normal;"
     id="text183">Assembler</text>
<rect
     x="201.969"
     y="186.885"
     fill="#FFFFFF"
     stroke="#000000"
     stroke-width="0.5"
     stroke-miterlimit="10"
     width="49.221"
     height="41.253"
     id="rect185"
     style="" /><text
     transform="matrix(1 0 0 1 210.6602 204.2461)"
     style="font-family:'Abyssinica SIL';font-size:10px;-inkscape-font-specification:'Abyssinica SIL';font-weight:normal;font-style:normal;font-stretch:normal;font-variant:normal;"
     id="text187">Timing</text>
<text
     transform="matrix(1 0 0 1 206.8281 216.8457)"
     style="font-family:'Abyssinica SIL';font-size:10px;-inkscape-font-specification:'Abyssinica SIL';font-weight:normal;font-style:normal;font-stretch:normal;font-variant:normal;"
     id="text189">Analyzer</text>
<text
     transform="matrix(1 0 0 1 279.5938 97.7168)"
     style="font-family:'Abyssinica SIL';font-size:10px;-inkscape-font-specification:'Abyssinica SIL';font-weight:normal;font-style:normal;font-stretch:normal;font-variant:normal;"
     id="text191">Post Synthesis</text>
<text
     transform="matrix(1 0 0 1 279.8398 110.3145)"
     style="font-family:'Abyssinica SIL';font-size:10px;-inkscape-font-specification:'Abyssinica SIL';font-weight:normal;font-style:normal;font-stretch:normal;font-variant:normal;"
     id="text193">Simulation File</text>
<text
     transform="matrix(1 0 0 1 290.125 122.916)"
     style="font-family:'Abyssinica SIL';font-size:10px;-inkscape-font-specification:'Abyssinica SIL';font-weight:normal;font-style:normal;font-stretch:normal;font-variant:normal;"
     id="text195">(</text>
<text
     transform="matrix(1 0 0 1 292.9941 122.916)"
     style="font-family:'Abyssinica SIL';font-size:10px;-inkscape-font-specification:'Abyssinica SIL';font-weight:normal;font-style:normal;font-stretch:normal;font-variant:normal;"
     id="text197">.vho/.vo)</text>
<g
     id="g199"
     style=""><polygon
       fill="#FFFFFF"
       stroke="#000000"
       stroke-width="0.5"
       stroke-linejoin="round"
       stroke-miterlimit="10"
       points="   322.848,82.039 322.848,44.398 300.854,44.398 291.688,52.665 291.688,82.039  "
       id="polygon201"
       style="" /><polygon
       fill="#D8D8D8"
       stroke="#000000"
       stroke-width="0.5"
       stroke-linejoin="round"
       stroke-miterlimit="10"
       points="   300.849,44.398 300.849,52.625 291.688,52.625  "
       id="polygon203"
       style="" /></g><text
     transform="matrix(1 0 0 1 299.457 246.2188)"
     style="font-family:'Abyssinica SIL';font-size:10px;-inkscape-font-specification:'Abyssinica SIL';font-weight:normal;font-style:normal;font-stretch:normal;font-variant:normal;"
     id="text205">Post</text>
<text
     transform="matrix(1 0 0 1 259.7266 258.8164)"
     style="font-family:'Abyssinica SIL';font-size:10px;-inkscape-font-specification:'Abyssinica SIL';font-weight:normal;font-style:normal;font-stretch:normal;font-variant:normal;"
     id="text207">   Placement and Routing</text>
<text
     transform="matrix(1 0 0 1 277.6855 271.416)"
     style="font-family:'Abyssinica SIL';font-size:10px;-inkscape-font-specification:'Abyssinica SIL';font-weight:normal;font-style:normal;font-stretch:normal;font-variant:normal;"
     id="text209">Simulation Files</text>
<text
     transform="matrix(1 0 0 1 272.4102 284.0176)"
     style="font-family:'Abyssinica SIL';font-size:10px;-inkscape-font-specification:'Abyssinica SIL';font-weight:normal;font-style:normal;font-stretch:normal;font-variant:normal;"
     id="text211">(</text>
<text
     transform="matrix(1 0 0 1 275.2754 284.0176)"
     style="font-family:'Abyssinica SIL';font-size:10px;-inkscape-font-specification:'Abyssinica SIL';font-weight:normal;font-style:normal;font-stretch:normal;font-variant:normal;"
     id="text213">.vho</text>
<text
     transform="matrix(1 0 0 1 298.0303 284.0176)"
     style="font-family:'Abyssinica SIL';font-size:10px;-inkscape-font-specification:'Abyssinica SIL';font-weight:normal;font-style:normal;font-stretch:normal;font-variant:normal;"
     id="text215">/</text>
<text
     transform="matrix(1 0 0 1 302.2461 284.0176)"
     style="font-family:'Abyssinica SIL';font-size:10px;-inkscape-font-specification:'Abyssinica SIL';font-weight:normal;font-style:normal;font-stretch:normal;font-variant:normal;"
     id="text217">.vo</text>
<text
     transform="matrix(1 0 0 1 318.1289 284.0176)"
     style="font-family:'Abyssinica SIL';font-size:10px;-inkscape-font-specification:'Abyssinica SIL';font-weight:normal;font-style:normal;font-stretch:normal;font-variant:normal;"
     id="text219"> and </text>
<text
     transform="matrix(1 0 0 1 340.3594 284.0176)"
     style="font-family:'Abyssinica SIL';font-size:10px;-inkscape-font-specification:'Abyssinica SIL';font-weight:normal;font-style:normal;font-stretch:normal;font-variant:normal;"
     id="text221">.sdo</text>
<text
     transform="matrix(1 0 0 1 361.8828 284.0176)"
     style="font-family:'Abyssinica SIL';font-size:10px;-inkscape-font-specification:'Abyssinica SIL';font-weight:normal;font-style:normal;font-stretch:normal;font-variant:normal;"
     id="text223">)</text>
<g
     id="g225"
     style=""><polygon
       fill="#FFFFFF"
       stroke="#000000"
       stroke-width="0.5"
       stroke-linejoin="round"
       stroke-miterlimit="10"
       points="   322.848,229.863 322.848,192.219 300.854,192.219 291.688,200.487 291.688,229.863  "
       id="polygon227"
       style="" /><polygon
       fill="#D8D8D8"
       stroke="#000000"
       stroke-width="0.5"
       stroke-linejoin="round"
       stroke-miterlimit="10"
       points="   300.849,192.219 300.849,200.448 291.688,200.448  "
       id="polygon229"
       style="" /></g><text
     transform="matrix(1 0 0 1 299.457 343.4688)"
     style="font-family:'Abyssinica SIL';font-size:10px;-inkscape-font-specification:'Abyssinica SIL';font-weight:normal;font-style:normal;font-stretch:normal;font-variant:normal;"
     id="text231">Post</text>
<text
     transform="matrix(1 0 0 1 263.3174 356.0654)"
     style="font-family:'Abyssinica SIL';font-size:10px;-inkscape-font-specification:'Abyssinica SIL';font-weight:normal;font-style:normal;font-stretch:normal;font-variant:normal;"
     id="text233">Placement and Routing</text>
<text
     transform="matrix(1 0 0 1 264.0508 368.668)"
     style="font-family:'Abyssinica SIL';font-size:10px;-inkscape-font-specification:'Abyssinica SIL';font-weight:normal;font-style:normal;font-stretch:normal;font-variant:normal;"
     id="text235">Formal Verification File</text>
<text
     transform="matrix(1 0 0 1 299.4629 381.2676)"
     style="font-family:'Abyssinica SIL';font-size:10px;-inkscape-font-specification:'Abyssinica SIL';font-weight:normal;font-style:normal;font-stretch:normal;font-variant:normal;"
     id="text237">(</text>
<text
     transform="matrix(1 0 0 1 302.3281 381.2676)"
     style="font-family:'Abyssinica SIL';font-size:10px;-inkscape-font-specification:'Abyssinica SIL';font-weight:normal;font-style:normal;font-stretch:normal;font-variant:normal;"
     id="text239">.vo</text>
<text
     transform="matrix(1 0 0 1 318.2129 381.2676)"
     style="font-family:'Abyssinica SIL';font-size:10px;-inkscape-font-specification:'Abyssinica SIL';font-weight:normal;font-style:normal;font-stretch:normal;font-variant:normal;"
     id="text241">)</text>
<g
     id="g243"
     style=""><polygon
       fill="#FFFFFF"
       stroke="#000000"
       stroke-width="0.5"
       stroke-linejoin="round"
       stroke-miterlimit="10"
       points="   322.848,345.041 322.848,307.397 300.854,307.397 291.688,315.664 291.688,345.041  "
       id="polygon245"
       style="" /><polygon
       fill="#D8D8D8"
       stroke="#000000"
       stroke-width="0.5"
       stroke-linejoin="round"
       stroke-miterlimit="10"
       points="   300.852,307.397 300.852,315.625 291.688,315.625  "
       id="polygon247"
       style="" /></g><g
     id="g251"
     transform="translate(-10,0)"><text
       id="text253"
       style="font-style:normal;font-variant:normal;font-weight:normal;font-stretch:normal;font-size:10px;font-family:'Abyssinica SIL';-inkscape-font-specification:'Abyssinica SIL'"
       transform="translate(77.876,-80.4883)">Verilog HDL</text>
</g><g
     id="g255"><polygon
       style="fill:#ffffff;stroke:#000000;stroke-width:0.5;stroke-linejoin:round;stroke-miterlimit:10"
       id="polygon257"
       points="93.592,-74.923 84.425,-66.657 84.425,-37.281 115.585,-37.281 115.585,-74.923 "
       stroke-miterlimit="10" /><polygon
       style="fill:#d8d8d8;stroke:#000000;stroke-width:0.5;stroke-linejoin:round;stroke-miterlimit:10"
       id="polygon259"
       points="84.438,-66.689 93.602,-74.917 93.602,-66.689 "
       stroke-miterlimit="10" /></g><g
     id="g261"
     style=""><g
       id="g263"
       style=""><text
         transform="matrix(1 0 0 1 133.5249 -80.5313)"
         style="font-family:'Abyssinica SIL';font-size:10px;-inkscape-font-specification:'Abyssinica SIL';font-weight:normal;font-style:normal;font-stretch:normal;font-variant:normal;"
         id="text265">VHDL</text>
</g><g
       id="g267"
       style=""><polygon
         fill="#FFFFFF"
         stroke="#000000"
         stroke-width="0.5"
         stroke-linejoin="round"
         stroke-miterlimit="10"
         points="    160.585,-37.281 160.585,-74.923 138.592,-74.923 129.425,-66.657 129.425,-37.281   "
         id="polygon269"
         style="" /><polygon
         fill="#D8D8D8"
         stroke="#000000"
         stroke-width="0.5"
         stroke-linejoin="round"
         stroke-miterlimit="10"
         points="    138.602,-74.917 138.602,-66.689 129.438,-66.689   "
         id="polygon271"
         style="" /></g></g><rect
     x="175.56599"
     y="-139.052"
     width="46.875"
     height="66.75"
     id="rect277"
     style="fill:none" /><text
     style="font-size:10px;font-family:'Abyssinica SIL';-inkscape-font-specification:'Abyssinica SIL';font-weight:normal;font-style:normal;font-stretch:normal;font-variant:normal;"
     id="text283"
     x="177.4707"
     y="-106.3359">Description </text>
<g
     id="g3840"><text
       y="-131.53709"
       x="187.7578"
       id="text279"
       style="font-size:10px;font-family:'Abyssinica SIL';-inkscape-font-specification:'Abyssinica SIL';font-weight:normal;font-style:normal;font-stretch:normal;font-variant:normal;">Altera </text>
<text
       y="-118.9375"
       x="180.34669"
       id="text281"
       style="font-size:10px;font-family:'Abyssinica SIL';-inkscape-font-specification:'Abyssinica SIL';font-weight:normal;font-style:normal;font-stretch:normal;font-variant:normal;">Hardware </text>
<text
       y="-93.738297"
       x="179.84959"
       id="text285"
       style="font-size:10px;font-family:'Abyssinica SIL';-inkscape-font-specification:'Abyssinica SIL';font-weight:normal;font-style:normal;font-stretch:normal;font-variant:normal;">Language </text>
<text
       y="-81.136703"
       x="184.65919"
       id="text287"
       style="font-size:10px;font-family:'Abyssinica SIL';-inkscape-font-specification:'Abyssinica SIL';font-weight:normal;font-style:normal;font-stretch:normal;font-variant:normal;">(AHDL)</text>
</g><rect
     x="225.825"
     y="-126.851"
     width="57.375"
     height="71.625"
     id="rect289"
     style="fill:none" /><g
     id="g3832"
     transform="translate(28,0)"><text
       y="-119.3379"
       x="243.2666"
       id="text291"
       style="font-style:normal;font-variant:normal;font-weight:normal;font-stretch:normal;font-size:10px;font-family:'Abyssinica SIL';-inkscape-font-specification:'Abyssinica SIL'">Altera </text>
<text
       y="-106.7363"
       x="235.12891"
       id="text293"
       style="font-style:normal;font-variant:normal;font-weight:normal;font-stretch:normal;font-size:10px;font-family:'Abyssinica SIL';-inkscape-font-specification:'Abyssinica SIL'">schematic </text>
<text
       y="-94.136703"
       x="229.3867"
       id="text295"
       style="font-style:normal;font-variant:normal;font-weight:normal;font-stretch:normal;font-size:10px;font-family:'Abyssinica SIL';-inkscape-font-specification:'Abyssinica SIL'">Block Design </text>
<text
       y="-81.537102"
       x="235.62109"
       id="text297"
       style="font-style:normal;font-variant:normal;font-weight:normal;font-stretch:normal;font-size:10px;font-family:'Abyssinica SIL';-inkscape-font-specification:'Abyssinica SIL'">File (</text>
<text
       y="-81.537102"
       x="258.01611"
       id="text299"
       style="font-style:normal;font-variant:normal;font-weight:normal;font-stretch:normal;font-size:10px;font-family:'Abyssinica SIL';-inkscape-font-specification:'Abyssinica SIL'">.bdf</text>
<text
       y="-81.537102"
       x="279.20999"
       id="text301"
       style="font-style:normal;font-variant:normal;font-weight:normal;font-stretch:normal;font-size:12.5px;font-family:'Abyssinica SIL';-inkscape-font-specification:'Abyssinica SIL'">) </text>
</g><g
     id="g303"><polygon
       style="fill:#ffffff;stroke:#000000;stroke-width:0.5;stroke-linejoin:round;stroke-miterlimit:10"
       id="polygon305"
       points="192.591,-74.923 183.425,-66.657 183.425,-37.281 214.584,-37.281 214.584,-74.923 "
       stroke-miterlimit="10" /><polygon
       style="fill:#d8d8d8;stroke:#000000;stroke-width:0.5;stroke-linejoin:round;stroke-miterlimit:10"
       id="polygon307"
       points="183.438,-66.689 192.603,-74.917 192.603,-66.689 "
       stroke-miterlimit="10" /></g><g
     id="g309"
     style=""><g
       id="g311"
       style=""><polygon
         fill="#FFFFFF"
         stroke="#000000"
         stroke-width="0.5"
         stroke-linejoin="round"
         stroke-miterlimit="10"
         points="    268.584,-37.281 268.584,-74.923 246.591,-74.923 237.424,-66.657 237.424,-37.281   "
         id="polygon313"
         style="" /><polygon
         fill="#D8D8D8"
         stroke="#000000"
         stroke-width="0.5"
         stroke-linejoin="round"
         stroke-miterlimit="10"
         points="    246.603,-74.917 246.603,-66.689 237.438,-66.689   "
         id="polygon315"
         style="" /></g></g><path
     fill="#FFFFFF"
     stroke="#000000"
     stroke-width="0.5"
     d="M216.348,488.607c0,8.098-5.213,14.67-11.637,14.67H81.841  c-6.427,0-11.638-6.572-11.638-14.67l0,0c0-8.104,5.211-14.677,11.638-14.677h122.87  C211.139,473.933,216.348,480.507,216.348,488.607L216.348,488.607z"
     id="path317"
     style="" /><text
     transform="matrix(1 0 0 1 85.5532 492.9004)"
     style="font-family:'Abyssinica SIL';font-size:10px;-inkscape-font-specification:'Abyssinica SIL';font-weight:normal;font-style:normal;font-stretch:normal;font-variant:normal;"
     id="text319">Configure/Program Device</text>
<g
     id="g321"
     style=""><polyline
       fill="none"
       stroke="#010101"
       stroke-width="0.5"
       points="97.547,-37.281 97.547,-10.281 354.104,-10.281  "
       id="polyline323"
       style="" /><path
       fill="#010101"
       d="M355.875-11.05c-1.238-0.375-2.046-0.721-3.039-1.119v3.781c0.354-0.169,1.801-0.743,3.039-1.118   c1.328-0.401,2.531-0.677,3.313-0.773C358.406-10.376,357.203-10.648,355.875-11.05z"
       id="path325"
       style="" /></g><line
     fill="none"
     stroke="#010101"
     stroke-width="0.5"
     x1="142.547"
     y1="-37.281"
     x2="142.547"
     y2="-10.281"
     id="line327"
     style="" /><line
     fill="none"
     stroke="#010101"
     stroke-width="0.5"
     x1="196.547"
     y1="-37.281"
     x2="196.547"
     y2="-10.281"
     id="line329"
     style="" /><line
     fill="none"
     stroke="#010101"
     stroke-width="0.5"
     x1="250.546"
     y1="-37.281"
     x2="250.546"
     y2="-10.281"
     id="line331"
     style="" /><g
     id="g333"
     style=""><line
       fill="none"
       stroke="#010101"
       stroke-width="0.5"
       x1="142.547"
       y1="-10.281"
       x2="142.547"
       y2="43.719"
       id="line335"
       style="" /><path
       fill="#010101"
       d="M143.315,45.49c0.375-1.238,0.718-2.047,1.119-3.039h-3.783c0.167,0.354,0.744,1.801,1.119,3.039   c0.399,1.327,0.674,2.532,0.771,3.313C142.64,48.022,142.914,46.816,143.315,45.49z"
       id="path337"
       style="" /></g><g
     id="g339"
     style=""><polyline
       fill="none"
       stroke="#010101"
       stroke-width="0.5"
       points="92.188,327.218 -99.813,327.218 -99.813,57.219 -77.895,57.219     "
       id="polyline341"
       style="" /><path
       fill="#010101"
       d="M-76.125,56.45c-1.239-0.375-2.045-0.721-3.041-1.119v3.781c0.355-0.169,1.801-0.743,3.041-1.118   c1.327-0.401,2.532-0.677,3.312-0.773C-73.593,57.124-74.797,56.852-76.125,56.45z"
       id="path343"
       style="" /></g><g
     id="g345"
     style=""><line
       fill="none"
       stroke="#010101"
       stroke-width="0.5"
       x1="-99.813"
       y1="205.719"
       x2="-77.895"
       y2="205.719"
       id="line347"
       style="" /><path
       fill="#010101"
       d="M-76.125,204.95c-1.239-0.375-2.045-0.721-3.041-1.119v3.781c0.355-0.17,1.801-0.743,3.041-1.118   c1.327-0.403,2.532-0.678,3.312-0.775C-73.593,205.624-74.797,205.353-76.125,204.95z"
       id="path349"
       style="" /></g><g
     id="g351"
     style=""><line
       fill="none"
       stroke="#010101"
       stroke-width="0.5"
       x1="8.188"
       y1="205.719"
       x2="30.105"
       y2="205.719"
       id="line353"
       style="" /><path
       fill="#010101"
       d="M31.875,204.95c-1.239-0.375-2.045-0.721-3.041-1.119v3.781c0.355-0.17,1.801-0.743,3.041-1.118   c1.327-0.403,2.532-0.678,3.312-0.775C34.407,205.624,33.203,205.353,31.875,204.95z"
       id="path355"
       style="" /></g><g
     id="g357"
     style=""><polyline
       fill="none"
       stroke="#010101"
       stroke-width="0.5"
       points="264.688,205.719 264.688,327.218 286.604,327.218  "
       id="polyline359"
       style="" /><path
       fill="#010101"
       d="M288.375,326.451c-1.238-0.375-2.046-0.723-3.039-1.119v3.779c0.354-0.17,1.801-0.742,3.039-1.117   c1.328-0.402,2.533-0.678,3.313-0.773C290.905,327.125,289.703,326.854,288.375,326.451z"
       id="path361"
       style="" /></g><g
     id="g363"
     style=""><polyline
       fill="none"
       stroke="#010101"
       stroke-width="0.5"
       points="341.855,-10.281 341.855,-50.781 480.688,-50.781    480.688,259.719 422.545,259.719 422.545,295.138  "
       id="polyline365"
       style="" /><path
       fill="#010101"
       d="M423.151,296.906c0.298-1.235,0.564-2.045,0.886-3.037h-2.992c0.132,0.353,0.589,1.802,0.887,3.037   c0.314,1.33,0.528,2.531,0.61,3.313C422.619,299.439,422.835,298.236,423.151,296.906z"
       id="path367"
       style="" /></g><g
     id="g369"
     style=""><path
       fill="none"
       stroke="#010101"
       stroke-width="0.5"
       stroke-miterlimit="3.8636"
       d="M34.213,232.719   c-0.342,4.657,17.908,8.678,40.129,8.688h29.838c21.653,0.016,39.434,4.924,39.099,10.617c0.039-5.88,18.61-10.711,40.128-10.617   h29.839c20.97,0.073,39.063-3.876,39.099-8.688"
       id="path371"
       style="" /></g><g
     id="g373"
     style=""><line
       fill="none"
       stroke="#010101"
       stroke-width="0.5"
       stroke-linecap="square"
       stroke-miterlimit="10"
       x1="143.277"
       y1="250.719"
       x2="143.277"
       y2="268.138"
       id="line375"
       style="" /><path
       fill="#010101"
       d="M144.045,269.906c0.375-1.235,0.72-2.045,1.119-3.037h-3.783c0.17,0.353,0.746,1.802,1.119,3.037   c0.402,1.33,0.675,2.531,0.774,3.313C143.372,272.439,143.646,271.236,144.045,269.906z"
       id="path377"
       style="" /></g><g
     id="g379"
     style=""><g
       id="g381"
       style=""><polygon
         fill="#FFFFFF"
         stroke="#000000"
         stroke-width="0.5"
         stroke-linejoin="round"
         stroke-miterlimit="10"
         points="    53.335,-37.281 53.335,-74.923 31.342,-74.923 22.175,-66.657 22.175,-37.281   "
         id="polygon383"
         style="" /><polygon
         fill="#D8D8D8"
         stroke="#000000"
         stroke-width="0.5"
         stroke-linejoin="round"
         stroke-miterlimit="10"
         points="    31.352,-74.917 31.352,-66.689 22.188,-66.689   "
         id="polygon385"
         style="" /></g></g><polyline
     fill="none"
     stroke="#010101"
     stroke-width="0.5"
     points="39.63,-37.281 39.63,-10.281 97.547,-10.281 "
     id="polyline387"
     style="" /><g
     id="g391"
     transform="translate(-40,0)"><text
       id="text393"
       style="font-size:10px;font-family:'Abyssinica SIL';-inkscape-font-specification:'Abyssinica SIL';font-weight:normal;font-style:normal;font-stretch:normal;font-variant:normal;"
       transform="translate(-54.6201,-80.4883)">System Verilog</text>
</g><g
     id="g395"><polygon
       style="fill:#ffffff;stroke:#000000;stroke-width:0.5;stroke-linejoin:round;stroke-miterlimit:10"
       id="polygon397"
       points="-33.158,-74.923 -42.326,-66.657 -42.326,-37.281 -11.165,-37.281 -11.165,-74.923 "
       stroke-miterlimit="10" /><polygon
       style="fill:#d8d8d8;stroke:#000000;stroke-width:0.5;stroke-linejoin:round;stroke-miterlimit:10"
       id="polygon399"
       points="-42.312,-66.689 -33.148,-74.917 -33.148,-66.689 "
       stroke-miterlimit="10" /></g><polyline
     fill="none"
     stroke="#010101"
     stroke-width="0.5"
     points="-26.746,-37.281 -26.746,-10.281 45.795,-10.281 "
     id="polyline401"
     style="" /><rect
     x="6.068"
     y="-126.851"
     fill="none"
     width="67.125"
     height="62.25"
     id="rect403"
     style="" /><g
     id="g3794"><text
       y="-129.33789"
       x="14.7217"
       id="text405"
       style="font-style:normal;font-variant:normal;font-weight:normal;font-stretch:normal;font-size:10px;font-family:'Abyssinica SIL';-inkscape-font-specification:'Abyssinica SIL'">Quartus Prime </text>
<text
       y="-116.7363"
       x="22.398899"
       id="text407"
       style="font-style:normal;font-variant:normal;font-weight:normal;font-stretch:normal;font-size:10px;font-family:'Abyssinica SIL';-inkscape-font-specification:'Abyssinica SIL'">Exported </text>
<text
       y="-104.1367"
       x="15.7021"
       id="text409"
       style="font-style:normal;font-variant:normal;font-weight:normal;font-stretch:normal;font-size:10px;font-family:'Abyssinica SIL';-inkscape-font-specification:'Abyssinica SIL'">Partition File </text>
<text
       y="-93.537102"
       x="28.2778"
       id="text411"
       style="font-style:normal;font-variant:normal;font-weight:normal;font-stretch:normal;font-size:10px;font-family:'Abyssinica SIL';-inkscape-font-specification:'Abyssinica SIL'">(.qxp)</text>
</g><flowRoot
     xml:space="preserve"
     id="flowRoot3743"
     style="fill:black;stroke:none;stroke-opacity:1;stroke-width:1px;stroke-linejoin:miter;stroke-linecap:butt;fill-opacity:1;font-family:sans-serif;font-style:normal;font-weight:normal;font-size:11.25px;line-height:125%;letter-spacing:0px;word-spacing:0px;"><flowRegion
       id="flowRegion3745"><rect
         id="rect3747"
         width="72.518547"
         height="95.911629"
         x="149.71571"
         y="430.15244"
         style="font-size:11.25px;" /></flowRegion><flowPara
       id="flowPara3749" /></flowRoot><flowRoot
     xml:space="preserve"
     id="flowRoot3781"
     style="fill:black;stroke:none;stroke-opacity:1;stroke-width:1px;stroke-linejoin:miter;stroke-linecap:butt;fill-opacity:1;font-family:sans-serif;font-style:normal;font-weight:normal;font-size:11.25px;line-height:125%;letter-spacing:0px;word-spacing:0px;"><flowRegion
       id="flowRegion3783"><rect
         id="rect3785"
         width="290.85394"
         height="33.530079"
         x="36.649158"
         y="54.303623"
         style="font-size:11.25px;" /></flowRegion><flowPara
       id="flowPara3787" /></flowRoot><flowRoot
     xml:space="preserve"
     id="flowRoot3824"
     style="fill:black;stroke:none;stroke-opacity:1;stroke-width:1px;stroke-linejoin:miter;stroke-linecap:butt;fill-opacity:1;font-family:sans-serif;font-style:normal;font-weight:normal;font-size:12.5px;line-height:125%;letter-spacing:0px;word-spacing:0px"><flowRegion
       id="flowRegion3826"><rect
         id="rect3828"
         width="102.92955"
         height="63.941086"
         x="341.53897"
         y="11.41631" /></flowRegion><flowPara
       id="flowPara3830" /></flowRoot></svg>