<?xml version="1.0" encoding="UTF-8" standalone="no"?>
<!-- Created with Inkscape (http://www.inkscape.org/) -->

<svg
   xmlns:dc="http://purl.org/dc/elements/1.1/"
   xmlns:cc="http://creativecommons.org/ns#"
   xmlns:rdf="http://www.w3.org/1999/02/22-rdf-syntax-ns#"
   xmlns:svg="http://www.w3.org/2000/svg"
   xmlns="http://www.w3.org/2000/svg"
   xmlns:sodipodi="http://sodipodi.sourceforge.net/DTD/sodipodi-0.dtd"
   xmlns:inkscape="http://www.inkscape.org/namespaces/inkscape"
   width="805.68665"
   height="674.53741"
   id="svg2"
   sodipodi:version="0.32"
   inkscape:version="0.92.3 (2405546, 2018-03-11)"
   version="1.0"
   sodipodi:docname="pipelineSimplificadoWiki-3.svg"
   inkscape:output_extension="org.inkscape.output.svg.inkscape">
  <defs
     id="defs4" />
  <sodipodi:namedview
     id="base"
     pagecolor="#ffffff"
     bordercolor="#666666"
     borderopacity="1.0"
     gridtolerance="10000"
     guidetolerance="10"
     objecttolerance="10"
     inkscape:pageopacity="0.0"
     inkscape:pageshadow="2"
     inkscape:zoom="1.2815138"
     inkscape:cx="402.84332"
     inkscape:cy="351.12481"
     inkscape:document-units="px"
     inkscape:current-layer="layer1"
     showgrid="false"
     inkscape:window-width="1920"
     inkscape:window-height="1061"
     inkscape:window-x="1920"
     inkscape:window-y="0"
     showguides="true"
     inkscape:guide-bbox="true"
     inkscape:window-maximized="1"
     fit-margin-left="5"
     fit-margin-top="8"
     fit-margin-right="5"
     fit-margin-bottom="20"
     inkscape:showpageshadow="false">
    <inkscape:grid
       type="xygrid"
       id="grid2409"
       visible="true"
       enabled="true"
       originx="99.75292"
       originy="474.7986" />
  </sodipodi:namedview>
  <metadata
     id="metadata7">
    <rdf:RDF>
      <cc:Work
         rdf:about="">
        <dc:format>image/svg+xml</dc:format>
        <dc:type
           rdf:resource="http://purl.org/dc/dcmitype/StillImage" />
        <dc:title></dc:title>
      </cc:Work>
    </rdf:RDF>
  </metadata>
  <g
     inkscape:label="Layer 1"
     inkscape:groupmode="layer"
     id="layer1"
     transform="translate(99.75292,9.7389089)">
    <rect
       style="opacity:0.3;fill:none;fill-rule:evenodd;stroke:none;stroke-width:1px;stroke-linecap:butt;stroke-linejoin:miter;stroke-opacity:1"
       id="rect2603"
       width="319.98413"
       height="25"
       x="3.9399907e-14"
       y="-3.5762787e-07" />
    <rect
       style="opacity:0.3;fill:none;fill-rule:evenodd;stroke:none;stroke-width:1px;stroke-linecap:butt;stroke-linejoin:miter;stroke-opacity:1"
       id="rect2599"
       width="320"
       height="45"
       x="3.4194869e-14"
       y="-3.5762787e-07" />
    <text
       xml:space="preserve"
       style="font-style:normal;font-variant:normal;font-weight:normal;font-stretch:normal;line-height:0%;font-family:'DejaVu Sans';-inkscape-font-specification:'DejaVu Sans';text-align:start;writing-mode:lr-tb;text-anchor:start;fill:none;stroke:#000000;stroke-width:1px;stroke-linecap:butt;stroke-linejoin:miter;stroke-opacity:1"
       x="275.375"
       y="320"
       id="text2410"><tspan
         sodipodi:role="line"
         id="tspan2412"
         x="275.375"
         y="320"
         style="font-size:12px;line-height:1"> </tspan></text>
    <text
       xml:space="preserve"
       style="font-style:normal;font-variant:normal;font-weight:normal;font-stretch:normal;line-height:0%;font-family:'DejaVu Sans';-inkscape-font-specification:'DejaVu Sans';text-align:start;writing-mode:lr-tb;text-anchor:start;fill:none;stroke:#000000;stroke-width:1px;stroke-linecap:butt;stroke-linejoin:miter;stroke-opacity:1"
       x="325"
       y="465"
       id="text2428"><tspan
         sodipodi:role="line"
         id="tspan2430"
         x="325"
         y="465"
         style="font-size:12px;line-height:1"> </tspan></text>
    <text
       xml:space="preserve"
       style="font-style:normal;font-variant:normal;font-weight:bold;font-stretch:normal;line-height:0%;font-family:'DejaVu Sans';-inkscape-font-specification:'DejaVu Sans Bold';text-align:start;writing-mode:lr-tb;text-anchor:start;fill:#000000;fill-opacity:1;stroke:none;stroke-width:1px;stroke-linecap:butt;stroke-linejoin:miter;stroke-opacity:1"
       x="303.91959"
       y="15"
       id="text2923"><tspan
         sodipodi:role="line"
         id="tspan2925"
         x="303.91959"
         y="15"
         style="font-size:14.46112728px;line-height:1">Clock Cycle</tspan></text>
    <path
       style="display:inline;overflow:visible;visibility:visible;opacity:1;fill:none;fill-opacity:1;stroke:#000000;stroke-width:2;stroke-linejoin:miter;stroke-miterlimit:4;stroke-dasharray:none;stroke-opacity:1;marker:none;enable-background:accumulate"
       d="m 117,52.655592 30,15 v 25 L 117,107.65559 V 85.405592 l 10,-5 -10,-5 z"
       id="path2725"
       sodipodi:nodetypes="cccccccc"
       inkscape:connector-curvature="0" />
    <g
       id="g4481">
      <text
         id="text2701"
         y="83.787453"
         x="16.667019"
         style="font-style:normal;font-variant:normal;font-weight:bold;font-stretch:normal;line-height:0%;font-family:'DejaVu Sans';-inkscape-font-specification:'DejaVu Sans, Bold';text-align:start;writing-mode:lr-tb;text-anchor:start;fill:#000000;fill-opacity:1;stroke:none;stroke-width:1px;stroke-linecap:butt;stroke-linejoin:miter;stroke-opacity:1"
         xml:space="preserve"><tspan
           y="83.787453"
           x="16.667019"
           id="tspan2703"
           sodipodi:role="line"
           style="font-size:10px;line-height:1">IF</tspan></text>
      <text
         id="text2705"
         y="83.787453"
         x="70.77346"
         style="font-style:normal;font-variant:normal;font-weight:bold;font-stretch:normal;line-height:0%;font-family:'DejaVu Sans';-inkscape-font-specification:'DejaVu Sans, Bold';text-align:start;writing-mode:lr-tb;text-anchor:start;fill:#000000;fill-opacity:1;stroke:none;stroke-width:1px;stroke-linecap:butt;stroke-linejoin:miter;stroke-opacity:1"
         xml:space="preserve"><tspan
           y="83.787453"
           x="70.77346"
           id="tspan2707"
           sodipodi:role="line"
           style="font-size:10px;line-height:1">ID</tspan></text>
      <text
         id="text2713"
         y="83.787453"
         x="173.59106"
         style="font-style:normal;font-variant:normal;font-weight:bold;font-stretch:normal;line-height:0%;font-family:'DejaVu Sans';-inkscape-font-specification:'DejaVu Sans, Bold';text-align:start;writing-mode:lr-tb;text-anchor:start;fill:#000000;fill-opacity:1;stroke:none;stroke-width:1px;stroke-linecap:butt;stroke-linejoin:miter;stroke-opacity:1"
         xml:space="preserve"><tspan
           y="83.787453"
           x="173.59106"
           id="tspan2715"
           sodipodi:role="line"
           style="font-size:10px;line-height:1">MEM</tspan></text>
      <text
         id="text2717"
         y="83.813766"
         x="232.88718"
         style="font-style:normal;font-variant:normal;font-weight:bold;font-stretch:normal;line-height:0%;font-family:'DejaVu Sans';-inkscape-font-specification:'DejaVu Sans, Bold';text-align:start;writing-mode:lr-tb;text-anchor:start;fill:#000000;fill-opacity:1;stroke:none;stroke-width:1px;stroke-linecap:butt;stroke-linejoin:miter;stroke-opacity:1"
         xml:space="preserve"><tspan
           y="83.813766"
           x="232.88718"
           id="tspan2719"
           sodipodi:role="line"
           style="font-size:10px;line-height:1">WB</tspan></text>
      <rect
         y="65.155594"
         x="7"
         height="29.973682"
         width="29.973684"
         id="rect2721"
         style="fill:none;fill-rule:evenodd;stroke:#000000;stroke-width:2;stroke-linecap:butt;stroke-linejoin:miter;stroke-opacity:1" />
      <rect
         y="65.155594"
         x="62"
         height="29.973682"
         width="29.973684"
         id="rect2723"
         style="fill:none;fill-rule:evenodd;stroke:#000000;stroke-width:2;stroke-linecap:butt;stroke-linejoin:miter;stroke-opacity:1" />
      <rect
         y="65.155594"
         x="171.95174"
         height="29.973682"
         width="30.021835"
         id="rect2727"
         style="fill:none;fill-rule:evenodd;stroke:#000000;stroke-width:2;stroke-linecap:butt;stroke-linejoin:miter;stroke-opacity:1" />
      <rect
         y="65.181908"
         x="227.02631"
         height="29.973682"
         width="29.973692"
         id="rect2729"
         style="fill:none;fill-rule:evenodd;stroke:#000000;stroke-width:2.00000048;stroke-linecap:butt;stroke-linejoin:miter;stroke-opacity:1" />
      <path
         inkscape:connector-curvature="0"
         id="path2733"
         d="m 92,73.155592 h 5 l 10,-10 h 10"
         style="display:inline;overflow:visible;visibility:visible;opacity:1;fill:none;fill-opacity:1;stroke:#000000;stroke-width:2;stroke-linejoin:miter;stroke-miterlimit:4;stroke-dasharray:none;stroke-opacity:1;marker:none;enable-background:accumulate" />
      <path
         inkscape:connector-curvature="0"
         id="path2735"
         d="m 92,87.155592 h 5 l 10,10 h 10"
         style="display:inline;overflow:visible;visibility:visible;opacity:1;fill:none;fill-opacity:1;stroke:#000000;stroke-width:2;stroke-linejoin:miter;stroke-miterlimit:4;stroke-dasharray:none;stroke-opacity:1;marker:none;enable-background:accumulate" />
      <path
         inkscape:connector-curvature="0"
         id="path2737"
         d="m 36.75,80.155592 h 25"
         style="display:inline;overflow:visible;visibility:visible;opacity:1;fill:none;fill-opacity:1;stroke:#000000;stroke-width:2;stroke-linejoin:miter;stroke-miterlimit:4;stroke-dasharray:none;stroke-opacity:1;marker:none;enable-background:accumulate" />
      <path
         inkscape:connector-curvature="0"
         sodipodi:nodetypes="cc"
         id="path2739"
         d="M 147.01254,80.155592 H 172.25"
         style="display:inline;overflow:visible;visibility:visible;opacity:1;fill:none;fill-opacity:1;stroke:#000000;stroke-width:2;stroke-linejoin:miter;stroke-miterlimit:4;stroke-dasharray:none;stroke-opacity:1;marker:none;enable-background:accumulate" />
      <path
         inkscape:connector-curvature="0"
         id="path2741"
         d="m 202.22489,80.155592 h 25.02643"
         style="display:inline;overflow:visible;visibility:visible;opacity:1;fill:none;fill-opacity:1;stroke:#000000;stroke-width:2;stroke-linejoin:miter;stroke-miterlimit:4;stroke-dasharray:none;stroke-opacity:1;marker:none;enable-background:accumulate" />
      <text
         id="text2709"
         y="83.800613"
         x="129.5"
         style="font-style:normal;font-variant:normal;font-weight:bold;font-stretch:normal;line-height:0%;font-family:'DejaVu Sans';-inkscape-font-specification:'DejaVu Sans, Bold';text-align:start;writing-mode:lr-tb;text-anchor:start;fill:#000000;fill-opacity:1;stroke:none;stroke-width:1px;stroke-linecap:butt;stroke-linejoin:miter;stroke-opacity:1"
         xml:space="preserve"><tspan
           y="83.800613"
           x="129.5"
           id="tspan2711"
           sodipodi:role="line"
           style="font-size:10px;line-height:1">EX</tspan></text>
      <path
         inkscape:connector-curvature="0"
         id="path4633"
         d="M 52,80 V 70 h 10"
         style="display:inline;overflow:visible;visibility:visible;opacity:1;fill:none;fill-opacity:1;stroke:#000000;stroke-width:2;stroke-linejoin:miter;stroke-miterlimit:4;stroke-dasharray:none;stroke-opacity:1;marker:none;enable-background:accumulate" />
    </g>
    <g
       transform="matrix(0.74079502,0,0,0.74079502,635.37337,-2.4797039)"
       id="g4222">
      <path
         style="fill:#ffffff"
         inkscape:connector-curvature="0"
         id="path5"
         d="M 2.803,1.481 85.928,1.63 c 1.162,0 2.199,-0.173 2.199,2.333 L 88.024,31.517 H 0.705 V 3.861 c 0,-1.235 0.118,-2.38 2.098,-2.38 z" />
      <g
         id="g7">
        <ellipse
           style="fill:#ffffff"
           id="ellipse9"
           ry="11.172"
           rx="11.101"
           cy="16.500999"
           cx="14.887" />
      </g>
      <path
         inkscape:connector-curvature="0"
         id="path11"
         d="m 24.271,5.06 c 3.484,2.592 5.754,6.744 5.755,11.44 -0.001,4.272 -1.88,8.095 -4.842,10.703 H 88.037 V 5.06 Z" />
      <g
         id="g15">
        <path
           style="fill:#ffffff"
           inkscape:connector-curvature="0"
           id="path17"
           d="m 36.739,8.557 c 0.392,0 0.728,0.059 1.002,0.173 0.276,0.116 0.5,0.268 0.674,0.456 0.173,0.189 0.299,0.405 0.379,0.647 0.079,0.241 0.118,0.493 0.118,0.753 0,0.253 -0.039,0.503 -0.118,0.749 -0.08,0.244 -0.206,0.462 -0.379,0.65 -0.174,0.188 -0.397,0.341 -0.674,0.456 -0.274,0.115 -0.61,0.173 -1.002,0.173 h -1.452 v 2.267 H 33.905 V 8.557 Z m -0.379,2.976 c 0.158,0 0.312,-0.012 0.457,-0.035 0.147,-0.023 0.276,-0.069 0.388,-0.137 0.111,-0.068 0.201,-0.164 0.269,-0.288 0.068,-0.124 0.101,-0.287 0.101,-0.487 0,-0.201 -0.033,-0.363 -0.101,-0.488 C 37.407,9.975 37.317,9.878 37.205,9.812 37.094,9.743 36.965,9.698 36.817,9.674 36.671,9.65 36.518,9.638 36.36,9.638 h -1.073 v 1.896 l 1.073,-0.001 z" />
        <path
           style="fill:#ffffff"
           inkscape:connector-curvature="0"
           id="path19"
           d="m 44.751,14.398 c -0.476,0.417 -1.133,0.625 -1.972,0.625 -0.851,0 -1.509,-0.207 -1.976,-0.62 C 40.337,13.99 40.104,13.351 40.104,12.49 V 8.557 h 1.381 v 3.934 c 0,0.171 0.016,0.339 0.045,0.506 0.029,0.165 0.091,0.311 0.185,0.438 0.094,0.125 0.225,0.229 0.392,0.309 0.167,0.08 0.392,0.119 0.673,0.119 0.493,0 0.833,-0.109 1.021,-0.332 0.188,-0.221 0.282,-0.568 0.282,-1.04 V 8.557 h 1.382 v 3.934 c -0.001,0.855 -0.239,1.491 -0.714,1.907 z" />
        <path
           style="fill:#ffffff"
           inkscape:connector-curvature="0"
           id="path21"
           d="m 50.069,8.557 c 0.301,0 0.572,0.027 0.817,0.081 0.246,0.053 0.459,0.14 0.636,0.26 0.176,0.121 0.312,0.282 0.407,0.483 0.099,0.201 0.146,0.45 0.146,0.745 0,0.318 -0.071,0.584 -0.217,0.796 -0.144,0.212 -0.355,0.388 -0.637,0.522 0.387,0.112 0.676,0.309 0.865,0.589 0.191,0.281 0.286,0.619 0.286,1.015 0,0.319 -0.062,0.595 -0.185,0.829 -0.123,0.232 -0.289,0.422 -0.498,0.57 -0.207,0.148 -0.445,0.257 -0.713,0.328 -0.269,0.07 -0.541,0.105 -0.822,0.105 H 47.11 V 8.557 Z m -0.173,2.56 c 0.246,0 0.447,-0.059 0.606,-0.178 0.157,-0.118 0.237,-0.309 0.237,-0.576 0,-0.147 -0.026,-0.269 -0.08,-0.362 C 50.606,9.906 50.537,9.833 50.448,9.779 50.36,9.726 50.26,9.689 50.145,9.67 50.03,9.648 49.912,9.638 49.789,9.638 h -1.294 v 1.479 z m 0.078,2.685 c 0.135,0 0.264,-0.014 0.387,-0.04 0.125,-0.026 0.231,-0.072 0.326,-0.133 0.094,-0.062 0.168,-0.147 0.227,-0.254 0.056,-0.104 0.083,-0.241 0.083,-0.406 0,-0.325 -0.093,-0.557 -0.271,-0.696 -0.184,-0.138 -0.425,-0.208 -0.724,-0.208 h -1.505 v 1.737 z" />
        <path
           style="fill:#ffffff"
           inkscape:connector-curvature="0"
           id="path23"
           d="m 55.142,8.557 v 5.155 h 3.062 v 1.169 H 53.76 V 8.557 Z" />
        <path
           style="fill:#ffffff"
           inkscape:connector-curvature="0"
           id="path25"
           d="m 60.748,8.557 v 6.324 H 59.366 V 8.557 Z" />
        <path
           style="fill:#ffffff"
           inkscape:connector-curvature="0"
           id="path27"
           d="M 66.45,10.244 C 66.368,10.112 66.266,9.996 66.143,9.895 66.018,9.794 65.878,9.716 65.722,9.66 65.569,9.603 65.407,9.575 65.235,9.575 c -0.312,0 -0.574,0.062 -0.791,0.183 -0.217,0.12 -0.396,0.283 -0.527,0.486 -0.137,0.204 -0.232,0.436 -0.296,0.695 -0.062,0.26 -0.093,0.529 -0.093,0.806 0,0.267 0.031,0.525 0.093,0.776 0.062,0.251 0.159,0.477 0.296,0.677 0.134,0.201 0.311,0.361 0.527,0.483 0.217,0.12 0.479,0.181 0.791,0.181 0.424,0 0.754,-0.129 0.99,-0.389 0.236,-0.26 0.383,-0.602 0.437,-1.028 h 1.337 c -0.034,0.396 -0.126,0.753 -0.271,1.072 -0.146,0.318 -0.34,0.591 -0.58,0.815 -0.24,0.224 -0.521,0.395 -0.846,0.513 -0.322,0.119 -0.678,0.178 -1.064,0.178 -0.48,0 -0.914,-0.084 -1.299,-0.252 -0.383,-0.17 -0.709,-0.399 -0.972,-0.696 -0.265,-0.295 -0.468,-0.641 -0.606,-1.04 -0.143,-0.399 -0.213,-0.829 -0.213,-1.29 0,-0.472 0.07,-0.91 0.213,-1.314 0.141,-0.404 0.344,-0.757 0.606,-1.058 0.263,-0.302 0.589,-0.537 0.972,-0.709 0.385,-0.172 0.816,-0.258 1.299,-0.258 0.347,0 0.675,0.051 0.98,0.15 0.309,0.102 0.583,0.248 0.827,0.439 0.243,0.191 0.444,0.43 0.603,0.713 0.16,0.283 0.258,0.608 0.301,0.974 H 66.61 c -0.024,-0.159 -0.078,-0.305 -0.16,-0.438 z" />
        <path
           style="fill:#ffffff"
           inkscape:connector-curvature="0"
           id="path29"
           d="m 36.615,17.415 c 0.405,0 0.782,0.064 1.131,0.193 0.35,0.131 0.651,0.326 0.906,0.586 0.255,0.26 0.455,0.584 0.599,0.975 0.144,0.389 0.216,0.848 0.216,1.372 0,0.462 -0.059,0.888 -0.176,1.274 -0.118,0.391 -0.295,0.728 -0.532,1.012 -0.238,0.283 -0.534,0.506 -0.89,0.668 -0.354,0.162 -0.772,0.244 -1.254,0.244 h -2.71 v -6.324 z m -0.096,5.154 c 0.199,0 0.393,-0.031 0.581,-0.097 0.188,-0.066 0.354,-0.174 0.502,-0.323 0.146,-0.151 0.264,-0.349 0.352,-0.59 0.088,-0.242 0.132,-0.537 0.132,-0.887 0,-0.316 -0.031,-0.605 -0.093,-0.863 -0.062,-0.257 -0.162,-0.478 -0.304,-0.658 -0.141,-0.186 -0.326,-0.324 -0.559,-0.422 -0.231,-0.099 -0.517,-0.146 -0.858,-0.146 h -0.984 v 3.984 h 1.231 z" />
        <path
           style="fill:#ffffff"
           inkscape:connector-curvature="0"
           id="path31"
           d="m 40.8,19.289 c 0.141,-0.405 0.344,-0.759 0.606,-1.06 0.265,-0.304 0.589,-0.537 0.973,-0.709 0.385,-0.172 0.816,-0.258 1.298,-0.258 0.487,0 0.921,0.086 1.303,0.258 0.383,0.172 0.705,0.405 0.969,0.709 0.265,0.301 0.467,0.652 0.605,1.06 0.143,0.403 0.213,0.843 0.213,1.313 0,0.461 -0.07,0.892 -0.213,1.288 -0.141,0.397 -0.343,0.746 -0.605,1.041 -0.264,0.296 -0.586,0.526 -0.969,0.694 -0.382,0.168 -0.814,0.253 -1.303,0.253 -0.481,0 -0.913,-0.085 -1.298,-0.253 -0.384,-0.168 -0.708,-0.398 -0.973,-0.694 -0.263,-0.295 -0.466,-0.644 -0.606,-1.041 -0.141,-0.396 -0.211,-0.827 -0.211,-1.288 0,-0.47 0.07,-0.91 0.211,-1.313 z m 1.262,2.089 c 0.062,0.252 0.16,0.479 0.295,0.68 0.135,0.199 0.312,0.36 0.527,0.48 0.218,0.121 0.481,0.184 0.792,0.184 0.312,0 0.576,-0.062 0.792,-0.184 0.219,-0.12 0.395,-0.281 0.529,-0.48 0.134,-0.201 0.232,-0.428 0.295,-0.68 0.062,-0.25 0.092,-0.509 0.092,-0.773 0,-0.276 -0.029,-0.547 -0.092,-0.807 -0.062,-0.261 -0.161,-0.49 -0.295,-0.695 -0.137,-0.203 -0.312,-0.365 -0.529,-0.486 -0.216,-0.12 -0.48,-0.182 -0.792,-0.182 -0.311,0 -0.574,0.062 -0.792,0.182 -0.216,0.121 -0.393,0.283 -0.527,0.486 -0.135,0.205 -0.233,0.437 -0.295,0.695 -0.062,0.258 -0.093,0.527 -0.093,0.807 10e-4,0.264 0.032,0.523 0.093,0.773 z" />
        <path
           style="fill:#ffffff"
           inkscape:connector-curvature="0"
           id="path33"
           d="m 50.092,17.415 1.47,4.35 h 0.021 l 1.391,-4.35 h 1.944 v 6.324 h -1.294 v -4.482 h -0.019 l -1.541,4.482 h -1.062 l -1.54,-4.438 h -0.019 v 4.438 h -1.295 v -6.324 z" />
        <path
           style="fill:#ffffff"
           inkscape:connector-curvature="0"
           id="path35"
           d="m 59.765,17.415 2.35,6.324 h -1.436 l -0.475,-1.408 h -2.35 l -0.494,1.408 h -1.392 l 2.377,-6.324 z m 0.079,3.88 -0.793,-2.321 h -0.019 l -0.816,2.321 h 1.628 z" />
        <path
           style="fill:#ffffff"
           inkscape:connector-curvature="0"
           id="path37"
           d="m 64.547,17.415 v 6.324 h -1.382 v -6.324 z" />
        <path
           style="fill:#ffffff"
           inkscape:connector-curvature="0"
           id="path39"
           d="m 67.603,17.415 2.623,4.242 h 0.018 v -4.242 h 1.295 v 6.324 h -1.383 l -2.613,-4.234 h -0.018 v 4.234 H 66.23 v -6.324 z" />
      </g>
      <path
         inkscape:connector-curvature="0"
         id="path41"
         d="M 86.853,1 H 2.147 C 1.239,1 0.5,1.743 0.5,2.657 v 28.97 C 0.5,31.833 0.667,32 0.872,32 H 88.128 C 88.333,32 88.5,31.833 88.5,31.627 V 2.657 C 88.5,1.743 87.761,1 86.853,1 Z M 2.147,1.749 h 84.704 c 0.498,0 0.903,0.407 0.903,0.908 0,0 0,20.122 0,28.557 H 1.245 V 22.79 c 0,-8.436 0,-20.133 0,-20.133 0,-0.501 0.405,-0.908 0.902,-0.908 z" />
      <g
         id="g4213"
         transform="matrix(0.1332533,0,0,0.1332533,2.528981,3.5742669)">
        <circle
           r="98"
           cy="98"
           cx="98"
           id="circle-border" />
        <circle
           r="78"
           cy="98"
           cx="98"
           id="circle-inside"
           style="fill:#ffffff" />
        <circle
           r="55"
           cy="98"
           cx="98"
           id="c-border" />
        <circle
           r="30"
           cy="98"
           cx="98"
           id="c-inside"
           style="fill:#ffffff" />
        <rect
           y="85"
           x="123"
           height="25"
           width="31"
           id="c-cut"
           style="fill:#ffffff" />
        <rect
           transform="rotate(45,12.07107,179)"
           height="123"
           width="31"
           id="bar-margin"
           x="0"
           y="0"
           style="fill:#ffffff" />
        <rect
           transform="rotate(45,42.248735,195.49999)"
           height="175"
           width="25"
           id="bar"
           x="0"
           y="0" />
      </g>
    </g>
    <g
       id="g4768">
      <g
         id="g4406">
        <text
           xml:space="preserve"
           style="font-style:normal;font-variant:normal;font-weight:bold;font-stretch:normal;line-height:0%;font-family:'DejaVu Sans';-inkscape-font-specification:'DejaVu Sans Bold';text-align:start;writing-mode:lr-tb;text-anchor:start;fill:#000000;fill-opacity:1;stroke:none;stroke-width:1px;stroke-linecap:butt;stroke-linejoin:miter;stroke-opacity:1"
           x="17.548367"
           y="40.816116"
           id="text2971"><tspan
             sodipodi:role="line"
             id="tspan2973"
             x="17.548367"
             y="40.816116"
             style="font-size:12px;line-height:1">1</tspan></text>
        <text
           xml:space="preserve"
           style="font-style:normal;font-variant:normal;font-weight:bold;font-stretch:normal;line-height:0%;font-family:'DejaVu Sans';-inkscape-font-specification:'DejaVu Sans Bold';text-align:start;writing-mode:lr-tb;text-anchor:start;fill:#000000;fill-opacity:1;stroke:none;stroke-width:1px;stroke-linecap:butt;stroke-linejoin:miter;stroke-opacity:1"
           x="72"
           y="40.895218"
           id="text2975"><tspan
             sodipodi:role="line"
             id="tspan2977"
             x="72"
             y="40.895218"
             style="font-size:12px;line-height:1">2</tspan></text>
        <text
           xml:space="preserve"
           style="font-style:normal;font-variant:normal;font-weight:bold;font-stretch:normal;line-height:0%;font-family:'DejaVu Sans';-inkscape-font-specification:'DejaVu Sans Bold';text-align:start;writing-mode:lr-tb;text-anchor:start;fill:#000000;fill-opacity:1;stroke:none;stroke-width:1px;stroke-linecap:butt;stroke-linejoin:miter;stroke-opacity:1"
           x="126.06924"
           y="40.810257"
           id="text2979"><tspan
             sodipodi:role="line"
             id="tspan2981"
             x="126.06924"
             y="40.810257"
             style="font-size:12px;line-height:1">3</tspan></text>
        <text
           xml:space="preserve"
           style="font-style:normal;font-variant:normal;font-weight:bold;font-stretch:normal;line-height:0%;font-family:'DejaVu Sans';-inkscape-font-specification:'DejaVu Sans Bold';text-align:start;writing-mode:lr-tb;text-anchor:start;fill:#000000;fill-opacity:1;stroke:none;stroke-width:1px;stroke-linecap:butt;stroke-linejoin:miter;stroke-opacity:1"
           x="182"
           y="40.816116"
           id="text2983"><tspan
             sodipodi:role="line"
             id="tspan2985"
             x="182"
             y="40.816116"
             style="font-size:12px;line-height:1">4</tspan></text>
        <text
           xml:space="preserve"
           style="font-style:normal;font-variant:normal;font-weight:bold;font-stretch:normal;line-height:0%;font-family:'DejaVu Sans';-inkscape-font-specification:'DejaVu Sans Bold';text-align:start;writing-mode:lr-tb;text-anchor:start;fill:#000000;fill-opacity:1;stroke:none;stroke-width:1px;stroke-linecap:butt;stroke-linejoin:miter;stroke-opacity:1"
           x="237"
           y="40.731155"
           id="text2987"><tspan
             sodipodi:role="line"
             id="tspan2989"
             x="237"
             y="40.731155"
             style="font-size:12px;line-height:1">5</tspan></text>
        <text
           xml:space="preserve"
           style="font-style:normal;font-variant:normal;font-weight:bold;font-stretch:normal;line-height:0%;font-family:'DejaVu Sans';-inkscape-font-specification:'DejaVu Sans Bold';text-align:start;writing-mode:lr-tb;text-anchor:start;fill:#000000;fill-opacity:1;stroke:none;stroke-width:1px;stroke-linecap:butt;stroke-linejoin:miter;stroke-opacity:1"
           x="292.83682"
           y="40.804398"
           id="text2991"><tspan
             sodipodi:role="line"
             id="tspan2993"
             x="292.83682"
             y="40.804398"
             style="font-size:12px;line-height:1">6</tspan></text>
        <text
           id="text4382"
           y="40.816116"
           x="348.53833"
           style="font-style:normal;font-variant:normal;font-weight:bold;font-stretch:normal;line-height:0%;font-family:'DejaVu Sans';-inkscape-font-specification:'DejaVu Sans Bold';text-align:start;writing-mode:lr-tb;text-anchor:start;fill:#000000;fill-opacity:1;stroke:none;stroke-width:1px;stroke-linecap:butt;stroke-linejoin:miter;stroke-opacity:1"
           xml:space="preserve"><tspan
             y="40.816116"
             x="348.53833"
             id="tspan4384"
             sodipodi:role="line"
             style="font-size:12px;line-height:1">7</tspan></text>
        <text
           id="text4386"
           y="40.810257"
           x="402.98999"
           style="font-style:normal;font-variant:normal;font-weight:bold;font-stretch:normal;line-height:0%;font-family:'DejaVu Sans';-inkscape-font-specification:'DejaVu Sans Bold';text-align:start;writing-mode:lr-tb;text-anchor:start;fill:#000000;fill-opacity:1;stroke:none;stroke-width:1px;stroke-linecap:butt;stroke-linejoin:miter;stroke-opacity:1"
           xml:space="preserve"><tspan
             y="40.810257"
             x="402.98999"
             id="tspan4388"
             sodipodi:role="line"
             style="font-size:12px;line-height:1">8</tspan></text>
        <text
           id="text4390"
           y="40.804398"
           x="457.05923"
           style="font-style:normal;font-variant:normal;font-weight:bold;font-stretch:normal;line-height:0%;font-family:'DejaVu Sans';-inkscape-font-specification:'DejaVu Sans Bold';text-align:start;writing-mode:lr-tb;text-anchor:start;fill:#000000;fill-opacity:1;stroke:none;stroke-width:1px;stroke-linecap:butt;stroke-linejoin:miter;stroke-opacity:1"
           xml:space="preserve"><tspan
             y="40.804398"
             x="457.05923"
             id="tspan4392"
             sodipodi:role="line"
             style="font-size:12px;line-height:1">9</tspan></text>
        <text
           id="text4394"
           y="40.810257"
           x="508.98999"
           style="font-style:normal;font-variant:normal;font-weight:bold;font-stretch:normal;line-height:0%;font-family:'DejaVu Sans';-inkscape-font-specification:'DejaVu Sans Bold';text-align:start;writing-mode:lr-tb;text-anchor:start;fill:#000000;fill-opacity:1;stroke:none;stroke-width:1px;stroke-linecap:butt;stroke-linejoin:miter;stroke-opacity:1"
           xml:space="preserve"><tspan
             y="40.810257"
             x="508.98999"
             id="tspan4396"
             sodipodi:role="line"
             style="font-size:12px;line-height:1">10</tspan></text>
        <text
           id="text4398"
           y="40.816116"
           x="563.98999"
           style="font-style:normal;font-variant:normal;font-weight:bold;font-stretch:normal;line-height:0%;font-family:'DejaVu Sans';-inkscape-font-specification:'DejaVu Sans Bold';text-align:start;writing-mode:lr-tb;text-anchor:start;fill:#000000;fill-opacity:1;stroke:none;stroke-width:1px;stroke-linecap:butt;stroke-linejoin:miter;stroke-opacity:1"
           xml:space="preserve"><tspan
             y="40.816116"
             x="563.98999"
             id="tspan4400"
             sodipodi:role="line"
             style="font-size:12px;line-height:1">11</tspan></text>
      </g>
      <text
         xml:space="preserve"
         style="font-style:normal;font-variant:normal;font-weight:bold;font-stretch:normal;line-height:0%;font-family:'DejaVu Sans';-inkscape-font-specification:'DejaVu Sans Bold';text-align:start;writing-mode:lr-tb;text-anchor:start;fill:#000000;fill-opacity:1;stroke:none;stroke-width:1px;stroke-linecap:butt;stroke-linejoin:miter;stroke-opacity:1"
         x="616.37775"
         y="40.895218"
         id="text4402"><tspan
           sodipodi:role="line"
           id="tspan4404"
           x="616.37775"
           y="40.895218"
           style="font-size:12px;line-height:1">12</tspan></text>
      <text
         id="text4438"
         y="40.895218"
         x="670.37775"
         style="font-style:normal;font-variant:normal;font-weight:bold;font-stretch:normal;line-height:0%;font-family:'DejaVu Sans';-inkscape-font-specification:'DejaVu Sans Bold';text-align:start;writing-mode:lr-tb;text-anchor:start;fill:#000000;fill-opacity:1;stroke:none;stroke-width:1px;stroke-linecap:butt;stroke-linejoin:miter;stroke-opacity:1"
         xml:space="preserve"><tspan
           y="40.895218"
           x="670.37775"
           id="tspan4440"
           sodipodi:role="line"
           style="font-size:12px;line-height:1">13</tspan></text>
    </g>
    <g
       id="g4751">
      <path
         inkscape:connector-curvature="0"
         id="path2510"
         d="M 0.89665607,25.000001 H 699.16043"
         style="display:inline;overflow:visible;visibility:visible;opacity:1;fill:none;fill-opacity:0.45454544;stroke:#000000;stroke-width:1.99999988;stroke-linejoin:miter;stroke-miterlimit:4;stroke-dasharray:none;stroke-opacity:1;marker:none;enable-background:accumulate" />
      <g
         id="g4658">
        <path
           style="display:inline;overflow:visible;visibility:visible;opacity:1;fill:#4e9a06;fill-opacity:1;stroke:#000000;stroke-width:2;stroke-linejoin:miter;stroke-miterlimit:4;stroke-dasharray:none;stroke-opacity:1;marker:none;enable-background:accumulate"
           d="M 50,25 V 45"
           id="path2902"
           inkscape:connector-curvature="0" />
        <path
           style="display:inline;overflow:visible;visibility:visible;opacity:1;fill:#4e9a06;fill-opacity:1;stroke:#000000;stroke-width:2;stroke-linejoin:miter;stroke-miterlimit:4;stroke-dasharray:none;stroke-opacity:1;marker:none;enable-background:accumulate"
           d="M 105,25 V 45"
           id="path2904"
           inkscape:connector-curvature="0" />
        <path
           style="display:inline;overflow:visible;visibility:visible;opacity:1;fill:#4e9a06;fill-opacity:1;stroke:#000000;stroke-width:2;stroke-linejoin:miter;stroke-miterlimit:4;stroke-dasharray:none;stroke-opacity:1;marker:none;enable-background:accumulate"
           d="M 160,25 V 45"
           id="path2906"
           inkscape:connector-curvature="0" />
        <path
           style="display:inline;overflow:visible;visibility:visible;opacity:1;fill:#4e9a06;fill-opacity:1;stroke:#000000;stroke-width:2;stroke-linejoin:miter;stroke-miterlimit:4;stroke-dasharray:none;stroke-opacity:1;marker:none;enable-background:accumulate"
           d="M 215,25 V 45"
           id="path2908"
           inkscape:connector-curvature="0" />
        <path
           style="display:inline;overflow:visible;visibility:visible;opacity:1;fill:#4e9a06;fill-opacity:1;stroke:#000000;stroke-width:2;stroke-linejoin:miter;stroke-miterlimit:4;stroke-dasharray:none;stroke-opacity:1;marker:none;enable-background:accumulate"
           d="M 270,25 V 45"
           id="path2910"
           inkscape:connector-curvature="0" />
        <path
           inkscape:connector-curvature="0"
           id="path4372"
           d="M 324.37968,25 V 45"
           style="display:inline;overflow:visible;visibility:visible;opacity:1;fill:#4e9a06;fill-opacity:1;stroke:#000000;stroke-width:2;stroke-linejoin:miter;stroke-miterlimit:4;stroke-dasharray:none;stroke-opacity:1;marker:none;enable-background:accumulate" />
        <path
           inkscape:connector-curvature="0"
           id="path4374"
           d="M 379.37968,25 V 45"
           style="display:inline;overflow:visible;visibility:visible;opacity:1;fill:#4e9a06;fill-opacity:1;stroke:#000000;stroke-width:2;stroke-linejoin:miter;stroke-miterlimit:4;stroke-dasharray:none;stroke-opacity:1;marker:none;enable-background:accumulate" />
        <path
           inkscape:connector-curvature="0"
           id="path4376"
           d="M 434.37968,25 V 45"
           style="display:inline;overflow:visible;visibility:visible;opacity:1;fill:#4e9a06;fill-opacity:1;stroke:#000000;stroke-width:2;stroke-linejoin:miter;stroke-miterlimit:4;stroke-dasharray:none;stroke-opacity:1;marker:none;enable-background:accumulate" />
        <path
           inkscape:connector-curvature="0"
           id="path4378"
           d="M 489.37968,25 V 45"
           style="display:inline;overflow:visible;visibility:visible;opacity:1;fill:#4e9a06;fill-opacity:1;stroke:#000000;stroke-width:2;stroke-linejoin:miter;stroke-miterlimit:4;stroke-dasharray:none;stroke-opacity:1;marker:none;enable-background:accumulate" />
        <path
           inkscape:connector-curvature="0"
           id="path4380"
           d="M 544.37968,25 V 45"
           style="display:inline;overflow:visible;visibility:visible;opacity:1;fill:#4e9a06;fill-opacity:1;stroke:#000000;stroke-width:2;stroke-linejoin:miter;stroke-miterlimit:4;stroke-dasharray:none;stroke-opacity:1;marker:none;enable-background:accumulate" />
        <g
           id="g4434">
          <path
             inkscape:connector-curvature="0"
             id="path4430"
             d="M 597.37968,25 V 45"
             style="display:inline;overflow:visible;visibility:visible;opacity:1;fill:#4e9a06;fill-opacity:1;stroke:#000000;stroke-width:2;stroke-linejoin:miter;stroke-miterlimit:4;stroke-dasharray:none;stroke-opacity:1;marker:none;enable-background:accumulate" />
          <path
             inkscape:connector-curvature="0"
             id="path4432"
             d="M 652.37968,25 V 45"
             style="display:inline;overflow:visible;visibility:visible;opacity:1;fill:#4e9a06;fill-opacity:1;stroke:#000000;stroke-width:2;stroke-linejoin:miter;stroke-miterlimit:4;stroke-dasharray:none;stroke-opacity:1;marker:none;enable-background:accumulate" />
        </g>
      </g>
    </g>
    <path
       inkscape:connector-curvature="0"
       id="path4721"
       d="M 0.89665607,113 H 699.16043"
       style="display:inline;overflow:visible;visibility:visible;opacity:1;fill:none;fill-opacity:0.45454544;stroke:#000000;stroke-width:2;stroke-linejoin:miter;stroke-miterlimit:4;stroke-dasharray:1, 1;stroke-dashoffset:0;stroke-opacity:1;marker:none;enable-background:accumulate" />
    <g
       id="g4916">
      <path
         style="display:inline;overflow:visible;visibility:visible;opacity:1;fill:#000000;fill-opacity:1;stroke:#000000;stroke-width:2;stroke-linejoin:miter;stroke-miterlimit:4;stroke-dasharray:2.00000003, 8.00000015;stroke-dashoffset:0;stroke-opacity:1;marker:none;enable-background:accumulate"
         d="M 50,49.000022 V 644.79853"
         id="path4620"
         inkscape:connector-curvature="0" />
      <path
         inkscape:connector-curvature="0"
         id="path4622"
         d="M 104,49.000022 V 644.79853"
         style="display:inline;overflow:visible;visibility:visible;opacity:1;fill:#000000;fill-opacity:1;stroke:#000000;stroke-width:2;stroke-linejoin:miter;stroke-miterlimit:4;stroke-dasharray:2.00000003, 8.00000015;stroke-dashoffset:0;stroke-opacity:1;marker:none;enable-background:accumulate" />
      <path
         style="display:inline;overflow:visible;visibility:visible;opacity:1;fill:#000000;fill-opacity:1;stroke:#000000;stroke-width:2;stroke-linejoin:miter;stroke-miterlimit:4;stroke-dasharray:2.00000003, 8.00000015;stroke-dashoffset:0;stroke-opacity:1;marker:none;enable-background:accumulate"
         d="M 160,49.000022 V 644.79853"
         id="path4624"
         inkscape:connector-curvature="0" />
      <path
         inkscape:connector-curvature="0"
         id="path4626"
         d="M 214,49.000022 V 644.79853"
         style="display:inline;overflow:visible;visibility:visible;opacity:1;fill:#000000;fill-opacity:1;stroke:#000000;stroke-width:2;stroke-linejoin:miter;stroke-miterlimit:4;stroke-dasharray:2.00000003, 8.00000015;stroke-dashoffset:0;stroke-opacity:1;marker:none;enable-background:accumulate" />
      <path
         style="display:inline;overflow:visible;visibility:visible;opacity:1;fill:#000000;fill-opacity:1;stroke:#000000;stroke-width:2;stroke-linejoin:miter;stroke-miterlimit:4;stroke-dasharray:2.00000003, 8.00000015;stroke-dashoffset:0;stroke-opacity:1;marker:none;enable-background:accumulate"
         d="M 270,49.000022 V 644.79853"
         id="path4628"
         inkscape:connector-curvature="0" />
      <path
         inkscape:connector-curvature="0"
         id="path4630"
         d="M 324,49.000022 V 644.79853"
         style="display:inline;overflow:visible;visibility:visible;opacity:1;fill:#000000;fill-opacity:1;stroke:#000000;stroke-width:2;stroke-linejoin:miter;stroke-miterlimit:4;stroke-dasharray:2.00000003, 8.00000015;stroke-dashoffset:0;stroke-opacity:1;marker:none;enable-background:accumulate" />
      <path
         style="display:inline;overflow:visible;visibility:visible;opacity:1;fill:#000000;fill-opacity:1;stroke:#000000;stroke-width:2;stroke-linejoin:miter;stroke-miterlimit:4;stroke-dasharray:2.00000003, 8.00000015;stroke-dashoffset:0;stroke-opacity:1;marker:none;enable-background:accumulate"
         d="M 380,49.000022 V 644.79853"
         id="path4632"
         inkscape:connector-curvature="0" />
      <path
         inkscape:connector-curvature="0"
         id="path4634"
         d="M 434,49.000022 V 644.79853"
         style="display:inline;overflow:visible;visibility:visible;opacity:1;fill:#000000;fill-opacity:1;stroke:#000000;stroke-width:2;stroke-linejoin:miter;stroke-miterlimit:4;stroke-dasharray:2.00000003, 8.00000015;stroke-dashoffset:0;stroke-opacity:1;marker:none;enable-background:accumulate" />
      <path
         style="display:inline;overflow:visible;visibility:visible;opacity:1;fill:#000000;fill-opacity:1;stroke:#000000;stroke-width:2;stroke-linejoin:miter;stroke-miterlimit:4;stroke-dasharray:2.00000003, 8.00000015;stroke-dashoffset:0;stroke-opacity:1;marker:none;enable-background:accumulate"
         d="M 490,49.000022 V 644.79853"
         id="path4636"
         inkscape:connector-curvature="0" />
      <path
         inkscape:connector-curvature="0"
         id="path4638"
         d="M 544,49.000022 V 644.79853"
         style="display:inline;overflow:visible;visibility:visible;opacity:1;fill:#000000;fill-opacity:1;stroke:#000000;stroke-width:2;stroke-linejoin:miter;stroke-miterlimit:4;stroke-dasharray:2.00000003, 8.00000015;stroke-dashoffset:0;stroke-opacity:1;marker:none;enable-background:accumulate" />
      <path
         style="display:inline;overflow:visible;visibility:visible;opacity:1;fill:#000000;fill-opacity:1;stroke:#000000;stroke-width:2;stroke-linejoin:miter;stroke-miterlimit:4;stroke-dasharray:2.00000003, 8.00000015;stroke-dashoffset:0;stroke-opacity:1;marker:none;enable-background:accumulate"
         d="M 598,49.000022 V 644.79853"
         id="path4640"
         inkscape:connector-curvature="0" />
      <path
         inkscape:connector-curvature="0"
         id="path4642"
         d="M 652,49.000022 V 644.79853"
         style="display:inline;overflow:visible;visibility:visible;opacity:1;fill:#000000;fill-opacity:1;stroke:#000000;stroke-width:2;stroke-linejoin:miter;stroke-miterlimit:4;stroke-dasharray:2.00000003, 8.00000015;stroke-dashoffset:0;stroke-opacity:1;marker:none;enable-background:accumulate" />
    </g>
    <path
       style="display:inline;overflow:visible;visibility:visible;opacity:1;fill:none;fill-opacity:0.45454544;stroke:#000000;stroke-width:2;stroke-linejoin:miter;stroke-miterlimit:4;stroke-dasharray:1, 1;stroke-dashoffset:0;stroke-opacity:1;marker:none;enable-background:accumulate"
       d="M 0.89665607,179 H 699.16043"
       id="path4840"
       inkscape:connector-curvature="0" />
    <path
       inkscape:connector-curvature="0"
       id="path4842"
       d="M 0.89665607,245 H 699.16043"
       style="display:inline;overflow:visible;visibility:visible;opacity:1;fill:none;fill-opacity:0.45454544;stroke:#000000;stroke-width:2;stroke-linejoin:miter;stroke-miterlimit:4;stroke-dasharray:1, 1;stroke-dashoffset:0;stroke-opacity:1;marker:none;enable-background:accumulate" />
    <path
       style="display:inline;overflow:visible;visibility:visible;opacity:1;fill:none;fill-opacity:0.45454544;stroke:#000000;stroke-width:2;stroke-linejoin:miter;stroke-miterlimit:4;stroke-dasharray:1, 1;stroke-dashoffset:0;stroke-opacity:1;marker:none;enable-background:accumulate"
       d="M 0.89665607,311.71732 H 699.16043"
       id="path4844"
       inkscape:connector-curvature="0" />
    <path
       inkscape:connector-curvature="0"
       id="path4846"
       d="M 0.89665607,378.57356 H 699.16043"
       style="display:inline;overflow:visible;visibility:visible;opacity:1;fill:none;fill-opacity:0.45454544;stroke:#000000;stroke-width:2;stroke-linejoin:miter;stroke-miterlimit:4;stroke-dasharray:1, 1;stroke-dashoffset:0;stroke-opacity:1;marker:none;enable-background:accumulate" />
    <path
       style="display:inline;overflow:visible;visibility:visible;opacity:1;fill:none;fill-opacity:0.45454544;stroke:#000000;stroke-width:2;stroke-linejoin:miter;stroke-miterlimit:4;stroke-dasharray:1, 1;stroke-dashoffset:0;stroke-opacity:1;marker:none;enable-background:accumulate"
       d="M 0.89665607,444.57356 H 699.16043"
       id="path4848"
       inkscape:connector-curvature="0" />
    <path
       inkscape:connector-curvature="0"
       id="path4850"
       d="M 0.89665607,511.29088 H 699.16043"
       style="display:inline;overflow:visible;visibility:visible;opacity:1;fill:none;fill-opacity:0.45454544;stroke:#000000;stroke-width:2;stroke-linejoin:miter;stroke-miterlimit:4;stroke-dasharray:1, 1;stroke-dashoffset:0;stroke-opacity:1;marker:none;enable-background:accumulate" />
    <text
       id="text4852"
       y="30.40583"
       x="-96.080406"
       style="font-style:normal;font-variant:normal;font-weight:bold;font-stretch:normal;line-height:0%;font-family:'DejaVu Sans';-inkscape-font-specification:'DejaVu Sans Bold';text-align:start;writing-mode:lr-tb;text-anchor:start;fill:#000000;fill-opacity:1;stroke:none;stroke-width:1px;stroke-linecap:butt;stroke-linejoin:miter;stroke-opacity:1"
       xml:space="preserve"><tspan
         y="30.40583"
         x="-96.080406"
         id="tspan4854"
         sodipodi:role="line"
         style="font-size:14.46112728px;line-height:1">Instruction</tspan></text>
    <path
       style="display:inline;overflow:visible;visibility:visible;opacity:1;fill:none;fill-opacity:0.45454544;stroke:#000000;stroke-width:2;stroke-linejoin:miter;stroke-miterlimit:4;stroke-dasharray:1, 1;stroke-dashoffset:0;stroke-opacity:1;marker:none;enable-background:accumulate"
       d="M 0.89665607,577.29088 H 699.16043"
       id="path4900"
       inkscape:connector-curvature="0" />
  </g>
</svg>
